<svg xmlns="http://www.w3.org/2000/svg" xmlns:xlink="http://www.w3.org/1999/xlink" width="269.688" height="259.181" viewBox="0 0 202.266 194.386"><defs><symbol overflow="visible" id="b"><path style="stroke:none" d="M3.078-7.078h.594L6.609 0h-.734l-.922-2.219H1.781L.875 0h-.75Zm1.719 4.312-1.422-3.5-1.453 3.5Zm0 0"/></symbol><symbol overflow="visible" id="c"><path style="stroke:none" d="M6.203-1.828c0 .355-.09.672-.266.953a1.87 1.87 0 0 1-.718.64A2.126 2.126 0 0 1 4.234 0H.891v-7.078h3.406c.332 0 .617.09.86.266.238.18.421.406.546.687a1.915 1.915 0 0 1-.062 1.828 1.63 1.63 0 0 1-.75.672c.406.117.722.34.953.672.238.324.36.7.36 1.125Zm-.687-.11c0-.238-.059-.457-.172-.656a1.293 1.293 0 0 0-.438-.5 1.003 1.003 0 0 0-.61-.203H1.579v2.688h2.656c.227 0 .438-.063.625-.188.196-.125.352-.285.47-.484a1.25 1.25 0 0 0 .187-.657Zm-3.938-4.53v2.609h2.438c.226 0 .43-.063.609-.188.188-.125.332-.285.438-.484.101-.196.156-.407.156-.625 0-.239-.055-.457-.157-.657a1.155 1.155 0 0 0-.406-.468.94.94 0 0 0-.578-.188Zm0 0"/></symbol><symbol overflow="visible" id="d"><path style="stroke:none" d="M.422-3.594c0-.426.07-.847.219-1.265.156-.414.375-.797.656-1.141a2.993 2.993 0 0 1 1.047-.813 3.25 3.25 0 0 1 1.437-.312c.625 0 1.16.148 1.61.438.457.292.789.664 1 1.109l-.547.344a2.14 2.14 0 0 0-.578-.735 2.033 2.033 0 0 0-.75-.39 2.61 2.61 0 0 0-.782-.125c-.43 0-.804.086-1.125.25-.324.168-.601.39-.828.671a3.087 3.087 0 0 0-.5.954 3.273 3.273 0 0 0-.172 1.062c0 .399.067.774.204 1.125.132.356.32.672.562.953.238.274.52.492.844.657.32.167.672.25 1.047.25.27 0 .539-.047.812-.141a2.62 2.62 0 0 0 .781-.422c.25-.195.446-.453.594-.766l.578.313c-.148.344-.375.64-.687.89a3.16 3.16 0 0 1-1.016.563 3.462 3.462 0 0 1-1.094.188c-.492 0-.937-.102-1.343-.313a3.536 3.536 0 0 1-1.063-.828 3.877 3.877 0 0 1-.672-1.188 3.918 3.918 0 0 1-.234-1.328Zm0 0"/></symbol><symbol overflow="visible" id="e"><path style="stroke:none" d="M3.625-3.813v.547h-1.25v1.36H1.75v-1.36H.516v-.546H1.75v-1.344h.625v1.343Zm0 0"/></symbol><symbol overflow="visible" id="f"><path style="stroke:none" d="M.64-2.406v-.625h4.391v.625Zm0 0"/></symbol><symbol overflow="visible" id="g"><path style="stroke:none" d="M3.766.047c-.555 0-1.024-.098-1.407-.297a2.383 2.383 0 0 1-.921-.797 3.524 3.524 0 0 1-.5-1.14A5.496 5.496 0 0 1 .78-3.516v-3.562h.688v3.562c0 .375.035.743.11 1.094.081.344.206.656.374.938.176.28.41.507.703.671.29.157.66.235 1.11.235.445 0 .816-.082 1.109-.25.3-.176.535-.399.703-.672a3.18 3.18 0 0 0 .36-.938c.07-.351.109-.71.109-1.078v-3.562h.703v3.562c0 .48-.055.938-.156 1.375-.106.43-.278.805-.516 1.125a2.66 2.66 0 0 1-.937.782c-.375.187-.836.28-1.375.28Zm0 0"/></symbol><symbol overflow="visible" id="j"><path style="stroke:none" d="M.89 0v-7.078h.688V0Zm0 0"/></symbol><symbol overflow="visible" id="h"><path style="stroke:none" d="M.266-1.188c0-.257.07-.484.218-.671.145-.196.348-.348.61-.454a2.62 2.62 0 0 1 .922-.156c.195 0 .406.024.625.063.218.031.414.078.593.14v-.359c0-.344-.105-.617-.312-.828-.211-.207-.496-.313-.86-.313-.23 0-.453.043-.671.125a3.954 3.954 0 0 0-.672.36l-.203-.39c.27-.177.535-.313.796-.407.258-.094.524-.14.797-.14.508 0 .91.148 1.204.437.3.293.453.695.453 1.203v1.922c0 .074.015.133.046.172.032.03.083.046.157.046V0c-.063.008-.117.016-.156.016a.184.184 0 0 1-.094 0c-.137 0-.242-.04-.313-.125a.407.407 0 0 1-.094-.25l-.015-.313a1.86 1.86 0 0 1-.735.563 2.25 2.25 0 0 1-.89.187c-.274 0-.516-.058-.734-.172a1.367 1.367 0 0 1-.5-.453 1.222 1.222 0 0 1-.172-.64Zm2.78.313c.052-.07.095-.14.126-.203a.43.43 0 0 0 .062-.203v-.594a3.015 3.015 0 0 0-.578-.156 2.848 2.848 0 0 0-.578-.063c-.387 0-.7.078-.937.235a.691.691 0 0 0-.36.625c0 .156.035.304.11.437.082.137.203.25.359.344.156.086.336.125.547.125.258 0 .5-.05.719-.156.226-.102.406-.235.53-.391Zm0 0"/></symbol><symbol overflow="visible" id="i"><path style="stroke:none" d="M2.625.078a1.73 1.73 0 0 1-.906-.25 1.83 1.83 0 0 1-.64-.64V0H.593v-5.813h.547v2.532c.187-.281.41-.504.671-.672.258-.176.563-.266.907-.266.289 0 .55.063.781.188.227.117.426.277.594.484.164.2.289.43.375.688.082.261.125.527.125.796 0 .293-.055.57-.157.829A2.08 2.08 0 0 1 3.405-.093c-.242.113-.5.171-.781.171ZM2.5-.39c.227 0 .438-.046.625-.14a1.56 1.56 0 0 0 .484-.375c.145-.156.254-.332.329-.531A1.902 1.902 0 0 0 3.86-2.89a1.623 1.623 0 0 0-.516-.626 1.311 1.311 0 0 0-.781-.234 1.23 1.23 0 0 0-.594.156c-.18.094-.34.219-.485.375a2.4 2.4 0 0 0-.343.516v1.281a.91.91 0 0 0 .156.406c.094.125.207.235.344.329.132.085.273.156.421.218.157.055.301.078.438.078Zm0 0"/></symbol><symbol overflow="visible" id="k"><path style="stroke:none" d="M2.406.078c-.312 0-.594-.058-.844-.172a2.06 2.06 0 0 1-.656-.469 2.263 2.263 0 0 1-.594-1.53c0-.384.086-.739.266-1.063.176-.332.422-.594.735-.781A2.055 2.055 0 0 1 2.39-4.22c.382 0 .722.09 1.015.266.301.18.524.418.672.719l-.531.171a1.22 1.22 0 0 0-.485-.5 1.353 1.353 0 0 0-.703-.187c-.273 0-.523.074-.75.219a1.57 1.57 0 0 0-.546.594c-.137.25-.204.53-.204.843 0 .313.067.602.204.86.144.25.328.453.546.609.227.156.485.234.766.234.176 0 .348-.03.516-.093.164-.07.312-.16.437-.266a.873.873 0 0 0 .25-.36l.547.157c-.074.2-.2.375-.375.531-.18.156-.383.281-.61.375a2.18 2.18 0 0 1-.734.125Zm0 0"/></symbol><clipPath id="a"><path d="M0 0h202.266v194.387H0Zm0 0"/></clipPath><clipPath id="l"><path d="M199 12h3.266v4H199Zm0 0"/></clipPath><clipPath id="m"><path d="M193 6h9.266v15H193Zm0 0"/></clipPath><clipPath id="n"><path d="M199 140h3.266v3H199Zm0 0"/></clipPath><clipPath id="o"><path d="M193 134h9.266v15H193Zm0 0"/></clipPath><clipPath id="p"><path d="M199 175h3.266v4H199Zm0 0"/></clipPath><clipPath id="q"><path d="M193 169h9.266v15H193Zm0 0"/></clipPath></defs><g clip-path="url(#a)"><path style="stroke:none;fill-rule:nonzero;fill:#fff;fill-opacity:1" d="M0 194.387V0h202.27v194.387Zm0 0"/></g><use xlink:href="#b" x="83.954" y="10.394" style="fill:#000;fill-opacity:1"/><use xlink:href="#c" x="164.487" y="137.953" style="fill:#000;fill-opacity:1"/><use xlink:href="#d" x="3.321" y="144.999" style="fill:#000;fill-opacity:1"/><path style="fill:none;stroke-width:.3985;stroke-linecap:butt;stroke-linejoin:miter;stroke:#000;stroke-opacity:1;stroke-miterlimit:10" d="m0 85.039 31.722-54.941m10.203-17.676L73.648-42.52H10.206m-20.41 0h-63.445l31.723 54.942m10.207 17.676 31.718 54.94" transform="matrix(1 0 0 -1 87.321 98.953)"/><path style="fill:none;stroke-width:.797;stroke-linecap:butt;stroke-linejoin:miter;stroke:#000;stroke-opacity:1;stroke-miterlimit:10" d="M45.66 26.363c-2.817 4.88-9.06 6.55-13.938 3.735-4.883-2.817-6.555-9.06-3.734-13.942 2.816-4.879 9.058-6.55 13.937-3.734 4.883 2.82 6.555 9.058 3.734 13.941Zm0 0" transform="matrix(1 0 0 -1 87.321 98.953)"/><path style="fill:none;stroke-width:.797;stroke-linecap:butt;stroke-linejoin:miter;stroke:#000;stroke-opacity:1;stroke-miterlimit:10" d="M32.406 18.71c.066 1.548.132 3.02.933 3.485.8.461 2.11-.219 3.485-.933 1.375-.72 2.683-1.399 3.484-.934.8.46.867 1.938.934 3.484" transform="matrix(1 0 0 -1 87.321 98.953)"/><path style="fill-rule:nonzero;fill:#000;fill-opacity:1;stroke-width:.3985;stroke-linecap:butt;stroke-linejoin:miter;stroke:#000;stroke-opacity:1;stroke-miterlimit:10" d="M1.359 85.039a1.359 1.359 0 1 1-2.72 0 1.36 1.36 0 0 1 2.72 0ZM75.007-42.52a1.36 1.36 0 0 1-2.719 0 1.36 1.36 0 0 1 2.72 0Zm0 0" transform="matrix(1 0 0 -1 87.321 98.953)"/><use xlink:href="#e" x="129.854" y="66.803" style="fill:#000;fill-opacity:1"/><use xlink:href="#f" x="136.859" y="80.274" style="fill:#000;fill-opacity:1"/><use xlink:href="#g" x="139.769" y="63.287" style="fill:#000;fill-opacity:1"/><g style="fill:#000;fill-opacity:1"><use xlink:href="#h" x="147.291" y="65.674"/><use xlink:href="#i" x="151.635" y="65.674"/></g><path style="fill:none;stroke-width:.398;stroke-linecap:butt;stroke-linejoin:miter;stroke:#000;stroke-opacity:1;stroke-miterlimit:10" d="M0 0h17.282" transform="matrix(1 0 0 -1 139.769 67.148)"/><path style="fill-rule:nonzero;fill:#000;fill-opacity:1;stroke-width:.3985;stroke-linecap:butt;stroke-linejoin:miter;stroke:#000;stroke-opacity:1;stroke-miterlimit:10" d="m15.117 58.86-1.473-.852 3.281-2.282-.336 3.98Zm0 0" transform="matrix(1 0 0 -1 87.321 98.953)"/><use xlink:href="#j" x="106.701" y="33.406" style="fill:#000;fill-opacity:1"/><g style="fill:#000;fill-opacity:1"><use xlink:href="#h" x="109.172" y="35.793"/><use xlink:href="#i" x="113.516" y="35.793"/></g><path style="fill:none;stroke-width:.398;stroke-linecap:butt;stroke-linejoin:miter;stroke:#000;stroke-opacity:1;stroke-miterlimit:10" d="M-.002.001h12.23" transform="matrix(1 0 0 -1 106.701 37.267)"/><path style="fill:none;stroke-width:.797;stroke-linecap:butt;stroke-linejoin:miter;stroke:#000;stroke-opacity:1;stroke-miterlimit:10" d="M0-52.727c5.636 0 10.206 4.57 10.206 10.207 0 5.637-4.57 10.203-10.207 10.203A10.201 10.201 0 0 1-10.204-42.52c0-5.636 4.567-10.207 10.203-10.207Zm0 0" transform="matrix(1 0 0 -1 87.321 98.953)"/><path style="fill:none;stroke-width:.797;stroke-linecap:butt;stroke-linejoin:miter;stroke:#000;stroke-opacity:1;stroke-miterlimit:10" d="M0-37.418c1.308-.832 2.55-1.629 2.55-2.55 0-.923-1.242-1.72-2.55-2.552-1.305-.832-2.551-1.629-2.551-2.55 0-.926 1.246-1.72 2.55-2.551" transform="matrix(1 0 0 -1 87.321 98.953)"/><path style="fill-rule:nonzero;fill:#000;fill-opacity:1;stroke-width:.3985;stroke-linecap:butt;stroke-linejoin:miter;stroke:#000;stroke-opacity:1;stroke-miterlimit:10" d="M75.007-42.52a1.36 1.36 0 0 1-2.719 0 1.36 1.36 0 0 1 2.72 0Zm-147.293 0a1.361 1.361 0 0 1-2.722 0 1.36 1.36 0 0 1 2.722 0Zm0 0" transform="matrix(1 0 0 -1 87.321 98.953)"/><use xlink:href="#e" x="93.031" y="157.523" style="fill:#000;fill-opacity:1"/><use xlink:href="#f" x="76.704" y="157.523" style="fill:#000;fill-opacity:1"/><use xlink:href="#g" x="78.665" y="166.249" style="fill:#000;fill-opacity:1"/><g style="fill:#000;fill-opacity:1"><use xlink:href="#i" x="86.186" y="168.636"/><use xlink:href="#k" x="91.104" y="168.636"/></g><path style="fill:none;stroke-width:.398;stroke-linecap:butt;stroke-linejoin:miter;stroke:#000;stroke-opacity:1;stroke-miterlimit:10" d="M0 0h17.312" transform="matrix(1 0 0 -1 78.665 170.11)"/><path style="fill-rule:nonzero;fill:#000;fill-opacity:1;stroke-width:.3985;stroke-linecap:butt;stroke-linejoin:miter;stroke:#000;stroke-opacity:1;stroke-miterlimit:10" d="M43.413-42.52v1.7l-3.613-1.7 3.613-1.703Zm0 0" transform="matrix(1 0 0 -1 87.321 98.953)"/><use xlink:href="#j" x="123.116" y="152.066" style="fill:#000;fill-opacity:1"/><g style="fill:#000;fill-opacity:1"><use xlink:href="#i" x="125.586" y="154.453"/><use xlink:href="#k" x="130.504" y="154.453"/></g><path style="fill:none;stroke-width:.398;stroke-linecap:butt;stroke-linejoin:miter;stroke:#000;stroke-opacity:1;stroke-miterlimit:10" d="M.001.001h12.262" transform="matrix(1 0 0 -1 123.116 155.927)"/><path style="fill:none;stroke-width:.797;stroke-linecap:butt;stroke-linejoin:miter;stroke:#000;stroke-opacity:1;stroke-miterlimit:10" d="M-45.66 26.363c-2.817-4.883-1.145-11.12 3.734-13.941 4.882-2.817 11.12-1.145 13.94 3.734 2.817 4.883 1.145 11.125-3.733 13.942-4.883 2.816-11.125 1.144-13.942-3.735Zm0 0" transform="matrix(1 0 0 -1 87.321 98.953)"/><path style="fill:none;stroke-width:.797;stroke-linecap:butt;stroke-linejoin:miter;stroke:#000;stroke-opacity:1;stroke-miterlimit:10" d="M-32.403 18.71c-1.375-.718-2.688-1.398-3.488-.937-.797.465-.864 1.942-.934 3.489-.066 1.546-.133 3.023-.933 3.484-.797.46-2.11-.219-3.485-.934" transform="matrix(1 0 0 -1 87.321 98.953)"/><path style="fill-rule:nonzero;fill:#000;fill-opacity:1;stroke-width:.3985;stroke-linecap:butt;stroke-linejoin:miter;stroke:#000;stroke-opacity:1;stroke-miterlimit:10" d="M-72.286-42.52a1.361 1.361 0 0 1-2.722 0 1.36 1.36 0 0 1 2.722 0ZM1.359 85.039a1.359 1.359 0 1 1-2.72 0 1.36 1.36 0 0 1 2.72 0Zm0 0" transform="matrix(1 0 0 -1 87.321 98.953)"/><use xlink:href="#e" x="32.877" y="80.274" style="fill:#000;fill-opacity:1"/><use xlink:href="#f" x="39.882" y="66.803" style="fill:#000;fill-opacity:1"/><use xlink:href="#g" x="18.134" y="64.18" style="fill:#000;fill-opacity:1"/><g style="fill:#000;fill-opacity:1"><use xlink:href="#k" x="25.656" y="65.674"/><use xlink:href="#h" x="30.032" y="65.674"/></g><path style="fill:none;stroke-width:.398;stroke-linecap:butt;stroke-linejoin:miter;stroke:#000;stroke-opacity:1;stroke-miterlimit:10" d="M-.001 0h16.738" transform="matrix(1 0 0 -1 18.134 67.148)"/><path style="fill-rule:nonzero;fill:#000;fill-opacity:1;stroke-width:.3985;stroke-linecap:butt;stroke-linejoin:miter;stroke:#000;stroke-opacity:1;stroke-miterlimit:10" d="m-58.532-16.336 1.473-.852.336 3.98-3.282-2.28Zm0 0" transform="matrix(1 0 0 -1 87.321 98.953)"/><use xlink:href="#j" x="14.327" y="106.915" style="fill:#000;fill-opacity:1"/><g style="fill:#000;fill-opacity:1"><use xlink:href="#k" x="16.798" y="108.41"/><use xlink:href="#h" x="21.174" y="108.41"/></g><path style="fill:none;stroke-width:.398;stroke-linecap:butt;stroke-linejoin:miter;stroke:#000;stroke-opacity:1;stroke-miterlimit:10" d="M.001.001H11.69" transform="matrix(1 0 0 -1 14.327 109.884)"/><path style="fill:none;stroke-width:.3985;stroke-linecap:butt;stroke-linejoin:miter;stroke:#000;stroke-opacity:1;stroke-miterlimit:10" d="M113.386 85.039H56.695m0 0H-.001" transform="matrix(1 0 0 -1 87.321 98.953)"/><g clip-path="url(#l)"><path style="stroke:none;fill-rule:nonzero;fill:#000;fill-opacity:1" d="M202.07 13.914a1.362 1.362 0 1 0-2.724-.002 1.362 1.362 0 0 0 2.724.002Zm0 0"/></g><g clip-path="url(#m)"><path style="fill:none;stroke-width:.3985;stroke-linecap:butt;stroke-linejoin:miter;stroke:#000;stroke-opacity:1;stroke-miterlimit:10" d="M114.75 85.039a1.362 1.362 0 1 1-2.725.002 1.362 1.362 0 0 1 2.724-.002Zm0 0" transform="matrix(1 0 0 -1 87.321 98.953)"/></g><path style="fill-rule:nonzero;fill:#000;fill-opacity:1;stroke-width:.3985;stroke-linecap:butt;stroke-linejoin:miter;stroke:#000;stroke-opacity:1;stroke-miterlimit:10" d="M1.359 85.039a1.359 1.359 0 1 1-2.72 0 1.36 1.36 0 0 1 2.72 0Zm56.824 0v1.703l-3.617-1.703 3.617-1.7Zm0 0" transform="matrix(1 0 0 -1 87.321 98.953)"/><use xlink:href="#j" x="140.358" y="24.507" style="fill:#000;fill-opacity:1"/><use xlink:href="#h" x="142.828" y="26.001" style="fill:#000;fill-opacity:1"/><path style="fill:none;stroke-width:.398;stroke-linecap:butt;stroke-linejoin:miter;stroke:#000;stroke-opacity:1;stroke-miterlimit:10" d="M.001 0h7.313" transform="matrix(1 0 0 -1 140.358 27.476)"/><path style="fill:none;stroke-width:.3985;stroke-linecap:butt;stroke-linejoin:miter;stroke:#000;stroke-opacity:1;stroke-miterlimit:10" d="M-73.65-42.52v-35.433M113.386-42.52H93.519m0 0H73.648" transform="matrix(1 0 0 -1 87.321 98.953)"/><g clip-path="url(#n)"><path style="stroke:none;fill-rule:nonzero;fill:#000;fill-opacity:1" d="M202.07 141.473a1.361 1.361 0 0 0-2.722 0 1.36 1.36 0 0 0 2.722 0Zm0 0"/></g><g clip-path="url(#o)"><path style="fill:none;stroke-width:.3985;stroke-linecap:butt;stroke-linejoin:miter;stroke:#000;stroke-opacity:1;stroke-miterlimit:10" d="M114.75-42.52a1.361 1.361 0 0 1-2.723 0 1.36 1.36 0 0 1 2.722 0Zm0 0" transform="matrix(1 0 0 -1 87.321 98.953)"/></g><path style="fill-rule:nonzero;fill:#000;fill-opacity:1;stroke-width:.3985;stroke-linecap:butt;stroke-linejoin:miter;stroke:#000;stroke-opacity:1;stroke-miterlimit:10" d="M95.007-42.52v1.7l-3.617-1.7 3.617-1.703Zm0 0" transform="matrix(1 0 0 -1 87.321 98.953)"/><use xlink:href="#j" x="176.894" y="152.066" style="fill:#000;fill-opacity:1"/><use xlink:href="#i" x="179.365" y="154.453" style="fill:#000;fill-opacity:1"/><path style="fill:none;stroke-width:.398;stroke-linecap:butt;stroke-linejoin:miter;stroke:#000;stroke-opacity:1;stroke-miterlimit:10" d="M0 .001h7.887" transform="matrix(1 0 0 -1 176.894 155.927)"/><path style="fill:none;stroke-width:.3985;stroke-linecap:butt;stroke-linejoin:miter;stroke:#000;stroke-opacity:1;stroke-miterlimit:10" d="M113.386-77.953H19.87m0 0h-93.52" transform="matrix(1 0 0 -1 87.321 98.953)"/><g clip-path="url(#p)"><path style="stroke:none;fill-rule:nonzero;fill:#000;fill-opacity:1" d="M202.07 176.906a1.361 1.361 0 0 0-2.722 0 1.36 1.36 0 0 0 2.722 0Zm0 0"/></g><g clip-path="url(#q)"><path style="fill:none;stroke-width:.3985;stroke-linecap:butt;stroke-linejoin:miter;stroke:#000;stroke-opacity:1;stroke-miterlimit:10" d="M114.75-77.953a1.361 1.361 0 0 1-2.723 0 1.36 1.36 0 0 1 2.722 0Zm0 0" transform="matrix(1 0 0 -1 87.321 98.953)"/></g><path style="fill-rule:nonzero;fill:#000;fill-opacity:1;stroke-width:.3985;stroke-linecap:butt;stroke-linejoin:miter;stroke:#000;stroke-opacity:1;stroke-miterlimit:10" d="M21.359-77.953v1.699l-3.614-1.7 3.614-1.702Zm0 0" transform="matrix(1 0 0 -1 87.321 98.953)"/><use xlink:href="#j" x="103.519" y="187.499" style="fill:#000;fill-opacity:1"/><use xlink:href="#k" x="105.989" y="188.993" style="fill:#000;fill-opacity:1"/><path style="fill:none;stroke-width:.398;stroke-linecap:butt;stroke-linejoin:miter;stroke:#000;stroke-opacity:1;stroke-miterlimit:10" d="M0 0h7.344" transform="matrix(1 0 0 -1 103.519 190.468)"/></svg>
