<svg xmlns="http://www.w3.org/2000/svg" xmlns:xlink="http://www.w3.org/1999/xlink" width="269.688" height="249.732" viewBox="0 0 202.266 187.299"><defs><path id="b" d="M3.078-7.078h.594L6.609 0h-.734l-.922-2.219H1.781L.875 0h-.75Zm1.719 4.312-1.422-3.5-1.453 3.5Zm0 0"/><path id="c" d="M6.203-1.828q-.001.532-.266.953a1.87 1.87 0 0 1-.718.64A2.1 2.1 0 0 1 4.234 0H.891v-7.078h3.406q.497.001.86.266c.238.18.421.406.546.687a1.92 1.92 0 0 1-.062 1.828q-.27.456-.75.672.608.175.953.672.359.487.36 1.125m-.687-.11q-.001-.357-.172-.656a1.3 1.3 0 0 0-.438-.5 1 1 0 0 0-.61-.203H1.579v2.688h2.656q.343 0 .625-.188.293-.186.47-.484a1.25 1.25 0 0 0 .187-.657m-3.938-4.53v2.609h2.438q.34 0 .609-.188.28-.187.438-.484c.101-.196.156-.407.156-.625q-.002-.358-.157-.657a1.16 1.16 0 0 0-.406-.468.94.94 0 0 0-.578-.188Zm0 0"/><path id="d" d="M.422-3.594c0-.426.07-.847.219-1.265Q.875-5.482 1.297-6a3 3 0 0 1 1.047-.812 3.25 3.25 0 0 1 1.437-.313q.936.002 1.61.438.684.44 1 1.109l-.547.344a2.14 2.14 0 0 0-.578-.735 2 2 0 0 0-.75-.39 2.6 2.6 0 0 0-.782-.125q-.644.002-1.125.25-.487.25-.828.672a3.1 3.1 0 0 0-.5.953q-.174.516-.172 1.062 0 .598.204 1.125.199.533.562.953.358.41.844.657c.32.167.672.25 1.047.25q.404 0 .812-.141a2.6 2.6 0 0 0 .781-.422c.25-.195.446-.453.594-.766l.578.313q-.22.515-.687.89a3.2 3.2 0 0 1-1.016.563 3.5 3.5 0 0 1-1.094.188Q2.998.065 2.391-.25a3.5 3.5 0 0 1-1.063-.828 3.9 3.9 0 0 1-.672-1.188 3.9 3.9 0 0 1-.234-1.328m0 0"/><path id="e" d="M1.578-5.797V0H.891v-7.078h.578l4.64 5.906v-5.89h.704V0h-.657Zm0 0"/><path id="f" d="M3.625-3.812v.546h-1.25v1.36H1.75v-1.36H.516v-.546H1.75v-1.344h.625v1.343Zm0 0"/><path id="g" d="M.64-2.406v-.625h4.391v.625Zm0 0"/><path id="h" d="M3.766.047q-.832 0-1.407-.297a2.4 2.4 0 0 1-.921-.797 3.5 3.5 0 0 1-.5-1.14A5.5 5.5 0 0 1 .78-3.516v-3.562h.688v3.562c0 .375.035.743.11 1.094q.122.516.374.938c.176.28.41.507.703.672q.435.234 1.11.234.668.001 1.109-.25.45-.263.703-.672a3.2 3.2 0 0 0 .36-.937q.107-.527.109-1.079v-3.562h.703v3.562c0 .48-.055.938-.156 1.375q-.159.645-.516 1.125a2.66 2.66 0 0 1-.937.782c-.375.187-.836.28-1.375.28m0 0"/><path id="o" d="M.89 0v-7.078h.688V0Zm0 0"/><path id="i" d="M.266-1.187c0-.258.07-.485.218-.672q.217-.295.61-.453c.27-.102.578-.157.922-.157.195 0 .406.024.625.063q.326.047.593.14v-.359c0-.344-.105-.617-.312-.828q-.315-.312-.86-.313-.344.001-.671.125-.316.127-.672.36l-.203-.39q.405-.266.797-.407.386-.14.796-.14.763.002 1.204.437.451.44.453 1.203v1.922q0 .112.046.172.047.045.157.046V0c-.063.008-.117.016-.156.016a.2.2 0 0 1-.094 0q-.206.001-.313-.125a.4.4 0 0 1-.094-.25l-.015-.313a1.86 1.86 0 0 1-.735.563 2.25 2.25 0 0 1-.89.187c-.274 0-.516-.058-.734-.172a1.4 1.4 0 0 1-.5-.453 1.2 1.2 0 0 1-.172-.64m2.78.312q.079-.107.126-.203.06-.107.062-.203v-.594a3 3 0 0 0-.578-.156 3 3 0 0 0-.578-.063q-.581 0-.937.235a.69.69 0 0 0-.36.625q-.001.236.11.437.124.204.359.344.232.127.547.125.389.002.719-.156c.226-.102.406-.235.53-.391m0 0"/><path id="j" d="M4.094 0h-.547v-2.312q0-.733-.219-1.079-.221-.341-.672-.343-.329.001-.64.156a1.9 1.9 0 0 0-.532.422c-.156.18-.273.383-.343.61V0H.594v-4.156h.5v.937q.169-.293.437-.515c.176-.157.38-.274.61-.36.226-.082.468-.125.718-.125q.342.001.579.125a1 1 0 0 1 .374.36q.14.234.204.562.077.33.078.735Zm0 0"/><path id="k" d="M2.625.078q-.485.001-.906-.25a1.8 1.8 0 0 1-.64-.64V0H.593v-5.812h.547v2.53q.28-.42.672-.671c.257-.176.562-.266.906-.266q.434 0 .781.188.341.174.594.484.246.3.375.688.124.392.125.797-.002.44-.157.828-.14.376-.406.672-.268.299-.625.468-.361.172-.781.172M2.5-.39c.227 0 .438-.046.625-.14q.281-.141.484-.375.217-.233.329-.531.107-.311.109-.625 0-.436-.188-.829a1.6 1.6 0 0 0-.515-.625 1.3 1.3 0 0 0-.781-.234 1.23 1.23 0 0 0-.594.156q-.269.141-.485.375-.204.234-.343.516v1.281a.9.9 0 0 0 .156.406q.14.188.344.329.198.126.422.218c.156.055.3.078.437.078m0 0"/><path id="l" d="M2.406.078q-.469 0-.844-.172a2.1 2.1 0 0 1-.656-.468 2.26 2.26 0 0 1-.593-1.532c0-.383.085-.738.265-1.062q.265-.5.735-.781A2.06 2.06 0 0 1 2.39-4.22q.574.001 1.015.266.45.269.672.719l-.531.172a1.2 1.2 0 0 0-.485-.5 1.35 1.35 0 0 0-.703-.188q-.41 0-.75.219a1.57 1.57 0 0 0-.546.594q-.205.374-.204.843 0 .471.204.86.217.375.546.609.343.234.766.234.264 0 .516-.093.248-.106.437-.266a.9.9 0 0 0 .25-.36l.547.157q-.112.298-.375.531-.27.234-.61.375a2.2 2.2 0 0 1-.734.125m0 0"/><clipPath id="a"><path d="M0 0h202.266v187.3H0Zm0 0"/></clipPath><clipPath id="m"><path d="M199 12h3.266v4H199Zm0 0"/></clipPath><clipPath id="n"><path d="M193 6h9.266v15H193Zm0 0"/></clipPath><clipPath id="p"><path d="M199 140h3.266v3H199Zm0 0"/></clipPath><clipPath id="q"><path d="M193 134h9.266v15H193Zm0 0"/></clipPath><clipPath id="r"><path d="M199 168h3.266v4H199Zm0 0"/></clipPath><clipPath id="s"><path d="M193 162h9.266v15H193Zm0 0"/></clipPath><clipPath id="t"><path d="M199 97h3.266v4H199Zm0 0"/></clipPath><clipPath id="u"><path d="M193 91h9.266v15H193Zm0 0"/></clipPath></defs><g clip-path="url(#a)"><path fill="#fff" d="M0 187.3V0h202.27v187.3Zm0 0"/></g><use xlink:href="#b" x="83.954" y="10.394"/><use xlink:href="#c" x="157.65" y="152.066"/><use xlink:href="#d" x="3.321" y="144.999"/><use xlink:href="#e" x="76.11" y="95.433"/><path fill="none" stroke="#000" stroke-miterlimit="10" stroke-width=".399" d="M87.32 13.914v32.313m0 20.41v32.316"/><path fill="none" stroke="#000" stroke-miterlimit="10" stroke-width=".797" d="M97.527 56.434c0-5.637-4.57-10.207-10.207-10.207-5.636 0-10.203 4.57-10.203 10.207A10.2 10.2 0 0 0 87.32 66.637c5.637 0 10.207-4.567 10.207-10.203Zm0 0"/><path fill="none" stroke="#000" stroke-miterlimit="10" stroke-width=".797" d="M82.219 56.434c.832-1.309 1.629-2.551 2.55-2.551.922 0 1.72 1.242 2.551 2.55.832 1.305 1.63 2.551 2.551 2.551.926 0 1.719-1.246 2.55-2.55"/><path stroke="#000" stroke-miterlimit="10" stroke-width=".399" d="M88.68 98.953a1.36 1.36 0 1 0-2.717.002 1.36 1.36 0 0 0 2.717-.002Zm0 0"/><use xlink:href="#f" x="98.724" y="51.236"/><use xlink:href="#g" x="97.952" y="66.791"/><use xlink:href="#h" x="105.024" y="58.186"/><use xlink:href="#i" x="112.546" y="59.681"/><use xlink:href="#j" x="116.89" y="59.681"/><path fill="none" stroke="#000" stroke-miterlimit="10" stroke-width=".398" d="M105.023 61.156h17.012"/><path fill="none" stroke="#000" stroke-miterlimit="10" stroke-width=".399" d="m160.969 141.473-27.989-16.157m-17.67-10.206L87.32 98.953"/><path fill="none" stroke="#000" stroke-miterlimit="10" stroke-width=".797" d="M119.043 129.05c4.879 2.817 11.121 1.145 13.937-3.734 2.82-4.882 1.149-11.12-3.734-13.941-4.879-2.816-11.121-1.145-13.937 3.734-2.82 4.883-1.149 11.125 3.734 13.942Zm0 0"/><path fill="none" stroke="#000" stroke-miterlimit="10" stroke-width=".797" d="M126.695 115.793c.715 1.375 1.395 2.687.934 3.484-.461.801-1.938.868-3.484.938-1.547.066-3.024.133-3.485.933-.46.797.219 2.11.934 3.485"/><path stroke="#000" stroke-miterlimit="10" stroke-width=".399" d="M88.68 98.953a1.36 1.36 0 1 0-2.717.002 1.36 1.36 0 0 0 2.717-.002Zm0 0"/><use xlink:href="#f" x="122.077" y="138.347"/><use xlink:href="#g" x="107.835" y="130.57"/><use xlink:href="#h" x="96.613" y="142.911"/><use xlink:href="#k" x="104.135" y="145.297"/><use xlink:href="#j" x="109.053" y="145.297"/><path fill="none" stroke="#000" stroke-miterlimit="10" stroke-width=".398" d="M96.613 146.773h17.582"/><path fill="none" stroke="#000" stroke-miterlimit="10" stroke-width=".399" d="m13.672 141.473 27.988-16.157m17.676-10.207L87.32 98.953"/><path fill="none" stroke="#000" stroke-miterlimit="10" stroke-width=".797" d="M45.395 111.375c-4.88 2.82-6.551 9.059-3.735 13.941 2.817 4.88 9.059 6.551 13.942 3.735 4.878-2.817 6.55-9.059 3.734-13.942-2.82-4.879-9.059-6.55-13.941-3.734Zm0 0"/><path fill="none" stroke="#000" stroke-miterlimit="10" stroke-width=".797" d="M53.047 124.633c-1.547-.067-3.024-.137-3.484-.934-.461-.8.218-2.113.933-3.484.715-1.375 1.399-2.688.934-3.488-.461-.797-1.938-.864-3.485-.934"/><path stroke="#000" stroke-miterlimit="10" stroke-width=".399" d="M88.68 98.953a1.36 1.36 0 1 0-2.717.002 1.36 1.36 0 0 0 2.717-.002Zm0 0"/><use xlink:href="#f" x="34.96" y="115.016"/><use xlink:href="#g" x="47.659" y="107.239"/><use xlink:href="#h" x="23.509" y="101.021"/><use xlink:href="#l" x="31.03" y="102.516"/><use xlink:href="#j" x="35.406" y="102.516"/><path fill="none" stroke="#000" stroke-miterlimit="10" stroke-width=".398" d="M23.508 103.988H40.55"/><path fill="none" stroke="#000" stroke-miterlimit="10" stroke-width=".399" d="M200.707 13.914h-56.691m0 0H87.32"/><g clip-path="url(#m)"><path d="M202.07 13.914a1.362 1.362 0 1 0-2.724-.002 1.362 1.362 0 0 0 2.724.002m0 0"/></g><g clip-path="url(#n)"><path fill="none" stroke="#000" stroke-miterlimit="10" stroke-width=".399" d="M202.07 13.914a1.362 1.362 0 1 0-2.724-.002 1.362 1.362 0 0 0 2.724.002Zm0 0"/></g><path stroke="#000" stroke-miterlimit="10" stroke-width=".399" d="M88.68 13.914a1.359 1.359 0 1 0-2.72 0 1.36 1.36 0 0 0 2.72 0Zm56.824 0v-1.703l-3.617 1.703 3.617 1.7Zm0 0"/><use xlink:href="#o" x="140.358" y="24.507"/><use xlink:href="#i" x="142.828" y="26.001"/><path fill="none" stroke="#000" stroke-miterlimit="10" stroke-width=".398" d="M140.36 27.477h7.312"/><path fill="none" stroke="#000" stroke-miterlimit="10" stroke-width=".399" d="M200.707 141.473H180.84m0 0h-19.871"/><g clip-path="url(#p)"><path d="M202.07 141.473a1.361 1.361 0 0 0-2.722 0 1.36 1.36 0 0 0 2.722 0m0 0"/></g><g clip-path="url(#q)"><path fill="none" stroke="#000" stroke-miterlimit="10" stroke-width=".399" d="M202.07 141.473a1.361 1.361 0 0 0-2.722 0 1.36 1.36 0 0 0 2.722 0Zm0 0"/></g><path stroke="#000" stroke-miterlimit="10" stroke-width=".399" d="M162.328 141.473a1.36 1.36 0 0 0-2.719 0 1.36 1.36 0 0 0 2.72 0Zm20 0v-1.7l-3.617 1.7 3.617 1.703Zm0 0"/><use xlink:href="#o" x="176.894" y="152.066"/><use xlink:href="#k" x="179.365" y="154.452"/><path fill="none" stroke="#000" stroke-miterlimit="10" stroke-width=".398" d="M176.895 155.926h7.886"/><path fill="none" stroke="#000" stroke-miterlimit="10" stroke-width=".399" d="M200.707 169.82h-93.516m0 0h-93.52"/><g clip-path="url(#r)"><path d="M202.07 169.82a1.361 1.361 0 0 0-2.722 0 1.36 1.36 0 0 0 2.722 0m0 0"/></g><g clip-path="url(#s)"><path fill="none" stroke="#000" stroke-miterlimit="10" stroke-width=".399" d="M202.07 169.82a1.361 1.361 0 0 0-2.722 0 1.36 1.36 0 0 0 2.722 0Zm0 0"/></g><path stroke="#000" stroke-miterlimit="10" stroke-width=".399" d="M108.68 169.82v-1.699l-3.614 1.7 3.614 1.699Zm0 0"/><use xlink:href="#o" x="103.519" y="180.412"/><use xlink:href="#l" x="105.989" y="181.906"/><path fill="none" stroke="#000" stroke-miterlimit="10" stroke-width=".398" d="M103.52 183.383h7.343"/><path fill="none" stroke="#000" stroke-miterlimit="10" stroke-width=".399" d="M13.672 169.82v-28.347m187.035-42.52h-56.691m0 0H87.32"/><g clip-path="url(#t)"><path d="M202.07 98.953a1.361 1.361 0 0 0-2.722 0 1.36 1.36 0 0 0 2.722 0m0 0"/></g><g clip-path="url(#u)"><path fill="none" stroke="#000" stroke-miterlimit="10" stroke-width=".399" d="M202.07 98.953a1.361 1.361 0 0 0-2.722 0 1.36 1.36 0 0 0 2.722 0Zm0 0"/></g><path stroke="#000" stroke-miterlimit="10" stroke-width=".399" d="M145.504 98.953v-1.7l-3.617 1.7 3.617 1.7Zm0 0"/><use xlink:href="#o" x="140.206" y="109.546"/><use xlink:href="#j" x="142.677" y="111.04"/><path fill="none" stroke="#000" stroke-miterlimit="10" stroke-width=".398" d="M140.207 112.434h7.613"/></svg>
