<svg xmlns="http://www.w3.org/2000/svg" xmlns:xlink="http://www.w3.org/1999/xlink" width="269.688" height="259.181" viewBox="0 0 202.266 194.386"><defs><path id="b" d="M3.078-7.078h.594L6.609 0h-.734l-.922-2.219H1.781L.875 0h-.75Zm1.719 4.312-1.422-3.5-1.453 3.5Zm0 0"/><path id="c" d="M6.203-1.828q-.001.532-.266.953a1.87 1.87 0 0 1-.718.64A2.1 2.1 0 0 1 4.234 0H.891v-7.078h3.406q.497.001.86.266c.238.18.421.406.546.687a1.92 1.92 0 0 1-.062 1.828q-.27.456-.75.672.608.175.953.672.359.487.36 1.125m-.687-.11q-.001-.357-.172-.656a1.3 1.3 0 0 0-.438-.5 1 1 0 0 0-.61-.203H1.579v2.688h2.656q.343 0 .625-.188.293-.186.47-.484a1.25 1.25 0 0 0 .187-.657m-3.938-4.53v2.609h2.438q.34 0 .609-.188.28-.187.438-.484c.101-.196.156-.407.156-.625q-.002-.358-.157-.657a1.16 1.16 0 0 0-.406-.468.94.94 0 0 0-.578-.188Zm0 0"/><path id="d" d="M.422-3.594c0-.426.07-.847.219-1.265Q.875-5.482 1.297-6a3 3 0 0 1 1.047-.812 3.25 3.25 0 0 1 1.437-.313q.936.002 1.61.438.684.44 1 1.109l-.547.344a2.14 2.14 0 0 0-.578-.735 2 2 0 0 0-.75-.39 2.6 2.6 0 0 0-.782-.125q-.644.002-1.125.25-.487.25-.828.672a3.1 3.1 0 0 0-.5.953q-.174.516-.172 1.062 0 .598.204 1.125.199.533.562.953.358.41.844.657c.32.167.672.25 1.047.25q.404 0 .812-.141a2.6 2.6 0 0 0 .781-.422c.25-.195.446-.453.594-.766l.578.313q-.22.515-.687.89a3.2 3.2 0 0 1-1.016.563 3.5 3.5 0 0 1-1.094.188Q2.998.065 2.391-.25a3.5 3.5 0 0 1-1.063-.828 3.9 3.9 0 0 1-.672-1.188 3.9 3.9 0 0 1-.234-1.328m0 0"/><path id="e" d="M3.766.047q-.832 0-1.407-.297a2.4 2.4 0 0 1-.921-.797 3.5 3.5 0 0 1-.5-1.14A5.5 5.5 0 0 1 .78-3.516v-3.562h.688v3.562c0 .375.035.743.11 1.094q.122.516.374.938c.176.28.41.507.703.672q.435.234 1.11.234.668.001 1.109-.25.45-.263.703-.672a3.2 3.2 0 0 0 .36-.937q.107-.527.109-1.079v-3.562h.703v3.562c0 .48-.055.938-.156 1.375q-.159.645-.516 1.125a2.66 2.66 0 0 1-.937.782c-.375.187-.836.28-1.375.28m0 0"/><path id="h" d="M.89 0v-7.078h.688V0Zm0 0"/><path id="f" d="M.266-1.187c0-.258.07-.485.218-.672q.217-.295.61-.453c.27-.102.578-.157.922-.157.195 0 .406.024.625.063q.326.047.593.14v-.359c0-.344-.105-.617-.312-.828q-.315-.312-.86-.313-.344.001-.671.125-.316.127-.672.36l-.203-.39q.405-.266.797-.407.386-.14.796-.14.763.002 1.204.437.451.44.453 1.203v1.922q0 .112.046.172.047.045.157.046V0c-.063.008-.117.016-.156.016a.2.2 0 0 1-.094 0q-.206.001-.313-.125a.4.4 0 0 1-.094-.25l-.015-.313a1.86 1.86 0 0 1-.735.563 2.25 2.25 0 0 1-.89.187c-.274 0-.516-.058-.734-.172a1.4 1.4 0 0 1-.5-.453 1.2 1.2 0 0 1-.172-.64m2.78.312q.079-.107.126-.203.06-.107.062-.203v-.594a3 3 0 0 0-.578-.156 3 3 0 0 0-.578-.063q-.581 0-.937.235a.69.69 0 0 0-.36.625q-.001.236.11.437.124.204.359.344.232.127.547.125.389.002.719-.156c.226-.102.406-.235.53-.391m0 0"/><path id="g" d="M2.625.078q-.485.001-.906-.25a1.8 1.8 0 0 1-.64-.64V0H.593v-5.812h.547v2.53q.28-.42.672-.671c.257-.176.562-.266.906-.266q.434 0 .781.188.341.174.594.484.246.3.375.688.124.392.125.797-.002.44-.157.828-.14.376-.406.672-.268.299-.625.468-.361.172-.781.172M2.5-.39c.227 0 .438-.046.625-.14q.281-.141.484-.375.217-.233.329-.531.107-.311.109-.625 0-.436-.188-.829a1.6 1.6 0 0 0-.515-.625 1.3 1.3 0 0 0-.781-.234 1.23 1.23 0 0 0-.594.156q-.269.141-.485.375-.204.234-.343.516v1.281a.9.9 0 0 0 .156.406q.14.188.344.329.198.126.422.218c.156.055.3.078.437.078m0 0"/><path id="i" d="M2.406.078q-.469 0-.844-.172a2.1 2.1 0 0 1-.656-.468 2.26 2.26 0 0 1-.593-1.532c0-.383.085-.738.265-1.062q.265-.5.735-.781A2.06 2.06 0 0 1 2.39-4.22q.574.001 1.015.266.45.269.672.719l-.531.172a1.2 1.2 0 0 0-.485-.5 1.35 1.35 0 0 0-.703-.188q-.41 0-.75.219a1.57 1.57 0 0 0-.546.594q-.205.374-.204.843 0 .471.204.86.217.375.546.609.343.234.766.234.264 0 .516-.093.248-.106.437-.266a.9.9 0 0 0 .25-.36l.547.157q-.112.298-.375.531-.27.234-.61.375a2.2 2.2 0 0 1-.734.125m0 0"/><clipPath id="a"><path d="M0 0h202.266v194.387H0Zm0 0"/></clipPath><clipPath id="j"><path d="M199 12h3.266v4H199Zm0 0"/></clipPath><clipPath id="k"><path d="M193 6h9.266v15H193Zm0 0"/></clipPath><clipPath id="l"><path d="M199 140h3.266v3H199Zm0 0"/></clipPath><clipPath id="m"><path d="M193 134h9.266v15H193Zm0 0"/></clipPath><clipPath id="n"><path d="M199 175h3.266v4H199Zm0 0"/></clipPath><clipPath id="o"><path d="M193 169h9.266v15H193Zm0 0"/></clipPath></defs><g clip-path="url(#a)"><path fill="#fff" d="M0 194.387V0h202.27v194.387Zm0 0"/></g><use xlink:href="#b" x="83.954" y="10.394"/><use xlink:href="#c" x="164.487" y="137.953"/><use xlink:href="#d" x="3.321" y="144.999"/><path fill="none" stroke="#000" stroke-miterlimit="10" stroke-width=".399" d="m87.32 13.914 31.723 54.941m20.656 8.836-7.777-13.468m-2.676 22.308 31.723 54.942H97.527m-17.984 13.472h15.555m-17.98-13.472H13.671L45.395 86.53m-2.676-22.308L34.94 77.69m20.66-8.836 31.72-54.94"/><path fill="none" stroke="#000" stroke-miterlimit="10" stroke-width=".797" d="M132.98 72.59c-2.816-4.88-9.058-6.55-13.937-3.735-4.883 2.817-6.555 9.06-3.734 13.942 2.816 4.879 9.058 6.55 13.937 3.734 4.883-2.82 6.555-9.058 3.734-13.941Zm0 0"/><path fill="none" stroke="#000" stroke-miterlimit="10" stroke-width=".797" d="M119.727 80.242c.066-1.547.132-3.02.933-3.484.8-.461 2.11.219 3.485.933 1.375.72 2.683 1.399 3.484.934.8-.46.867-1.937.933-3.484"/><path stroke="#000" stroke-miterlimit="10" stroke-width=".399" d="M88.68 13.914a1.359 1.359 0 1 0-2.72 0 1.36 1.36 0 0 0 2.72 0Zm73.648 127.559a1.36 1.36 0 0 0-2.719 0 1.36 1.36 0 0 0 2.72 0ZM133.73 67.352l1.473-.852-3.281-2.277.332 3.98Zm0 0"/><use xlink:href="#e" x="139.769" y="63.287"/><use xlink:href="#f" x="147.291" y="65.674"/><use xlink:href="#g" x="151.635" y="65.674"/><path fill="none" stroke="#000" stroke-miterlimit="10" stroke-width=".398" d="M139.77 67.148h17.28"/><path stroke="#000" stroke-miterlimit="10" stroke-width=".399" d="m144.363 112.715-1.472.847 3.28 2.282-.335-3.98Zm0 0"/><use xlink:href="#h" x="129.357" y="124.595"/><use xlink:href="#f" x="131.828" y="126.982"/><use xlink:href="#g" x="136.172" y="126.982"/><path fill="none" stroke="#000" stroke-miterlimit="10" stroke-width=".398" d="M129.355 128.457h12.23"/><path fill="none" stroke="#000" stroke-miterlimit="10" stroke-width=".797" d="M87.32 151.68c5.637 0 10.207-4.57 10.207-10.207s-4.57-10.203-10.207-10.203a10.2 10.2 0 0 0-10.203 10.203c0 5.636 4.567 10.207 10.203 10.207Zm0 0"/><path fill="none" stroke="#000" stroke-miterlimit="10" stroke-width=".797" d="M87.32 136.371c1.309.832 2.551 1.629 2.551 2.55 0 .923-1.242 1.72-2.55 2.552-1.305.832-2.551 1.629-2.551 2.55 0 .926 1.246 1.72 2.55 2.551"/><path stroke="#000" stroke-miterlimit="10" stroke-width=".399" d="M162.328 141.473a1.36 1.36 0 0 0-2.719 0 1.36 1.36 0 0 0 2.72 0Zm-147.293 0a1.361 1.361 0 0 0-2.722 0 1.36 1.36 0 0 0 2.722 0Zm76.449 13.472v1.7l3.614-1.7-3.614-1.703Zm0 0"/><use xlink:href="#e" x="78.665" y="166.249"/><use xlink:href="#g" x="86.186" y="168.636"/><use xlink:href="#i" x="91.104" y="168.636"/><path fill="none" stroke="#000" stroke-miterlimit="10" stroke-width=".398" d="M78.664 170.11h17.313"/><path stroke="#000" stroke-miterlimit="10" stroke-width=".399" d="M46.883 141.473v-1.7l-3.613 1.7 3.613 1.703Zm0 0"/><use xlink:href="#h" x="39.264" y="133.494"/><use xlink:href="#g" x="41.735" y="135.881"/><use xlink:href="#i" x="46.653" y="135.881"/><path fill="none" stroke="#000" stroke-miterlimit="10" stroke-width=".398" d="M39.266 137.355h12.261"/><path fill="none" stroke="#000" stroke-miterlimit="10" stroke-width=".797" d="M41.66 72.59c-2.816 4.883-1.144 11.12 3.735 13.941 4.882 2.817 11.12 1.145 13.94-3.734 2.817-4.883 1.145-11.125-3.733-13.942-4.883-2.816-11.125-1.144-13.942 3.735Zm0 0"/><path fill="none" stroke="#000" stroke-miterlimit="10" stroke-width=".797" d="M54.918 80.242c-1.375.719-2.688 1.399-3.488.938-.797-.465-.864-1.942-.934-3.489-.066-1.546-.133-3.023-.934-3.484-.796-.46-2.109.219-3.484.934"/><path stroke="#000" stroke-miterlimit="10" stroke-width=".399" d="M15.035 141.473a1.361 1.361 0 0 0-2.722 0 1.36 1.36 0 0 0 2.722 0ZM88.68 13.914a1.359 1.359 0 1 0-2.72 0 1.36 1.36 0 0 0 2.72 0ZM36.75 74.563l-1.473-.848-.336 3.976 3.282-2.277Zm0 0"/><use xlink:href="#e" x="18.134" y="64.18"/><use xlink:href="#i" x="25.656" y="65.674"/><use xlink:href="#f" x="30.032" y="65.674"/><path fill="none" stroke="#000" stroke-miterlimit="10" stroke-width=".398" d="M18.133 67.148H34.87"/><path stroke="#000" stroke-miterlimit="10" stroke-width=".399" d="m70.715 42.672 1.472.851.336-3.98-3.28 2.281Zm0 0"/><use xlink:href="#h" x="74.98" y="51.978"/><use xlink:href="#i" x="77.451" y="53.472"/><use xlink:href="#f" x="81.827" y="53.472"/><path fill="none" stroke="#000" stroke-miterlimit="10" stroke-width=".398" d="M74.98 54.945h11.688"/><path fill="none" stroke="#000" stroke-miterlimit="10" stroke-width=".399" d="M200.707 13.914h-56.691m0 0H87.32"/><g clip-path="url(#j)"><path d="M202.07 13.914a1.362 1.362 0 1 0-2.724-.002 1.362 1.362 0 0 0 2.724.002m0 0"/></g><g clip-path="url(#k)"><path fill="none" stroke="#000" stroke-miterlimit="10" stroke-width=".399" d="M202.07 13.914a1.362 1.362 0 1 0-2.724-.002 1.362 1.362 0 0 0 2.724.002Zm0 0"/></g><path stroke="#000" stroke-miterlimit="10" stroke-width=".399" d="M88.68 13.914a1.359 1.359 0 1 0-2.72 0 1.36 1.36 0 0 0 2.72 0Zm56.824 0v-1.703l-3.617 1.703 3.617 1.7Zm0 0"/><use xlink:href="#h" x="140.358" y="24.507"/><use xlink:href="#f" x="142.828" y="26.001"/><path fill="none" stroke="#000" stroke-miterlimit="10" stroke-width=".398" d="M140.36 27.477h7.312"/><path fill="none" stroke="#000" stroke-miterlimit="10" stroke-width=".399" d="M13.672 141.473v35.433m187.035-35.433H180.84m0 0h-19.871"/><g clip-path="url(#l)"><path d="M202.07 141.473a1.361 1.361 0 0 0-2.722 0 1.36 1.36 0 0 0 2.722 0m0 0"/></g><g clip-path="url(#m)"><path fill="none" stroke="#000" stroke-miterlimit="10" stroke-width=".399" d="M202.07 141.473a1.361 1.361 0 0 0-2.722 0 1.36 1.36 0 0 0 2.722 0Zm0 0"/></g><path stroke="#000" stroke-miterlimit="10" stroke-width=".399" d="M182.328 141.473v-1.7l-3.617 1.7 3.617 1.703Zm0 0"/><use xlink:href="#h" x="176.894" y="152.066"/><use xlink:href="#g" x="179.365" y="154.453"/><path fill="none" stroke="#000" stroke-miterlimit="10" stroke-width=".398" d="M176.895 155.926h7.886"/><path fill="none" stroke="#000" stroke-miterlimit="10" stroke-width=".399" d="M200.707 176.906h-93.516m0 0h-93.52"/><g clip-path="url(#n)"><path d="M202.07 176.906a1.361 1.361 0 0 0-2.722 0 1.36 1.36 0 0 0 2.722 0m0 0"/></g><g clip-path="url(#o)"><path fill="none" stroke="#000" stroke-miterlimit="10" stroke-width=".399" d="M202.07 176.906a1.361 1.361 0 0 0-2.722 0 1.36 1.36 0 0 0 2.722 0Zm0 0"/></g><path stroke="#000" stroke-miterlimit="10" stroke-width=".399" d="M108.68 176.906v-1.699l-3.614 1.7 3.614 1.702Zm0 0"/><use xlink:href="#h" x="103.519" y="187.499"/><use xlink:href="#i" x="105.989" y="188.993"/><path fill="none" stroke="#000" stroke-miterlimit="10" stroke-width=".398" d="M103.52 190.469h7.343"/></svg>
