<svg xmlns="http://www.w3.org/2000/svg" xmlns:xlink="http://www.w3.org/1999/xlink" width="387.541" height="279.219" viewBox="0 0 290.656 209.414"><defs><symbol overflow="visible" id="b"><path style="stroke:none" d="M2.094.094c-.375 0-.703-.098-.985-.297A1.826 1.826 0 0 1 .47-1a2.609 2.609 0 0 1-.22-1.078c0-.406.078-.8.234-1.188.157-.382.368-.726.641-1.03.27-.302.578-.54.922-.72a2.34 2.34 0 0 1 1.078-.265c.426 0 .773.117 1.047.343.27.231.46.508.578.829l.234-1.079h.672L4.75-.89a.362.362 0 0 0-.031.079v.062c0 .105.066.156.203.156L4.782 0c-.055.008-.102.016-.141.016-.043.007-.086.015-.125.015-.157-.011-.274-.05-.344-.125a.368.368 0 0 1-.11-.281v-.11c.008-.05.02-.117.032-.203L4.172-1a3.062 3.062 0 0 1-.969.797c-.375.2-.746.297-1.11.297ZM2.375-.5c.164 0 .344-.031.531-.094a2.78 2.78 0 0 0 .547-.281c.188-.113.348-.25.485-.406.144-.164.25-.332.312-.5l.328-1.61a1.313 1.313 0 0 0-.234-.64 1.631 1.631 0 0 0-.5-.469 1.21 1.21 0 0 0-.656-.188c-.305 0-.59.075-.86.22a2.521 2.521 0 0 0-.703.593 2.94 2.94 0 0 0-.5.813c-.117.292-.172.59-.172.89 0 .305.055.586.172.844.125.25.29.453.5.61.207.148.457.218.75.218Zm0 0"/></symbol><symbol overflow="visible" id="c"><path style="stroke:none" d="M2.531.094c-.418 0-.765-.102-1.047-.313A1.68 1.68 0 0 1 .906-1L.687 0H.095L1.64-7.281h.671l-.67 3.171a3.7 3.7 0 0 1 .968-.844 2.093 2.093 0 0 1 1.125-.328c.395 0 .723.105.985.312.258.2.453.461.578.782.133.324.203.667.203 1.03 0 .438-.086.856-.25 1.25a3.465 3.465 0 0 1-.688 1.032 3.297 3.297 0 0 1-.953.719c-.343.164-.703.25-1.078.25ZM2.516-.5c.28 0 .554-.066.828-.203.281-.145.523-.336.734-.578.207-.239.375-.508.5-.813.133-.3.203-.617.203-.953a1.91 1.91 0 0 0-.172-.797 1.424 1.424 0 0 0-.453-.61c-.187-.155-.433-.234-.734-.234a1.7 1.7 0 0 0-.735.172 2.53 2.53 0 0 0-.64.47c-.2.187-.387.398-.563.624l-.359 1.735c.008.218.078.421.203.609.133.18.3.32.5.422.207.105.438.156.688.156Zm0 0"/></symbol><symbol overflow="visible" id="d"><path style="stroke:none" d="M4.094-1.078c-.313.387-.653.68-1.016.875a2.24 2.24 0 0 1-1.11.297c-.366 0-.679-.094-.937-.281A1.81 1.81 0 0 1 .438-.97a2.683 2.683 0 0 1-.204-1.06c0-.426.082-.832.25-1.219.164-.395.395-.742.688-1.047.289-.3.61-.539.953-.719a2.455 2.455 0 0 1 1.11-.265c.382 0 .71.105.984.312.281.211.484.477.61.797l.202-1.016h.61L4.094 2.125h-.672ZM2.312-.5c.25 0 .489-.05.72-.156.238-.114.456-.266.655-.453.208-.188.391-.391.547-.61l.344-1.656c0-.227-.062-.441-.187-.64a1.255 1.255 0 0 0-.485-.485 1.21 1.21 0 0 0-.656-.188 1.88 1.88 0 0 0-.875.22 2.643 2.643 0 0 0-.734.593 2.94 2.94 0 0 0-.5.813 2.4 2.4 0 0 0-.188.921c0 .305.05.579.156.829.114.25.27.449.47.593.206.149.452.219.734.219Zm0 0"/></symbol><symbol overflow="visible" id="m"><path style="stroke:none" d="M1.188-5.188h.625l-.25 1.172c.269-.394.593-.703.968-.921.383-.227.77-.344 1.156-.344.258 0 .477.054.657.156.176.105.312.262.406.469.094.199.133.445.125.734.195-.3.41-.55.64-.75a2.89 2.89 0 0 1 .75-.453c.27-.102.536-.156.798-.156.28 0 .5.054.656.156.164.105.289.258.375.453.082.188.125.414.125.672 0 .148-.012.297-.031.453a7.332 7.332 0 0 1-.094.5L7.454 0h-.688l.609-2.906c.07-.313.11-.578.11-.797 0-.332-.07-.578-.204-.735-.136-.156-.336-.234-.593-.234a1.5 1.5 0 0 0-.735.203 2.63 2.63 0 0 0-.656.516c-.211.219-.383.48-.516.781L4.11 0h-.687l.61-2.906a3.27 3.27 0 0 0 .077-.438 2.65 2.65 0 0 0 .032-.39c0-.313-.07-.547-.204-.704-.124-.156-.32-.234-.578-.234-.367 0-.726.14-1.078.422a3.104 3.104 0 0 0-.844 1.063L.766 0H.094Zm0 0"/></symbol><symbol overflow="visible" id="q"><path style="stroke:none" d="M.484-.688v-.125c.008-.039.02-.082.032-.125l.78-3.718H.61l.125-.532h.672l.375-1.765h.688l-.39 1.766h1.14l-.125.53H1.969L1.25-1.28c-.023.074-.04.133-.047.172V-1c0 .148.047.258.14.328a.54.54 0 0 0 .345.11 1.2 1.2 0 0 0 .343-.047c.102-.04.196-.079.281-.11a.825.825 0 0 0 .172-.078l.063.547a4.086 4.086 0 0 1-.281.125A1.802 1.802 0 0 1 1.844 0a2.02 2.02 0 0 1-.5.063.976.976 0 0 1-.61-.188C.566-.25.484-.438.484-.688Zm0 0"/></symbol><symbol overflow="visible" id="e"><path style="stroke:none" d="M.438-3.453c0-.676.132-1.332.406-1.969.27-.644.597-1.289.984-1.937l.531.234c-.136.21-.28.46-.437.75-.149.293-.29.605-.422.938a8.68 8.68 0 0 0-.313 1.03 4.66 4.66 0 0 0-.109.985c0 .524.11 1.09.328 1.703.227.606.54 1.211.938 1.813l-.516.281a16.455 16.455 0 0 1-.734-1.266 6.76 6.76 0 0 1-.485-1.28 4.925 4.925 0 0 1-.171-1.282Zm0 0"/></symbol><symbol overflow="visible" id="f"><path style="stroke:none" d="M5.547-2.922c0 .586-.11 1.106-.328 1.563-.211.46-.508.82-.89 1.078-.376.25-.806.375-1.282.375-.48 0-.906-.125-1.281-.375A2.654 2.654 0 0 1 .875-1.36C.656-1.816.547-2.336.547-2.922c0-.582.11-1.098.328-1.547.219-.457.516-.816.89-1.078.376-.27.801-.406 1.282-.406.476 0 .906.137 1.281.406.383.262.68.621.89 1.078.22.45.329.965.329 1.547Zm-.688 0c0-.469-.078-.879-.234-1.234C4.477-4.52 4.27-4.801 4-5a1.534 1.534 0 0 0-.953-.313c-.356 0-.672.106-.953.313-.274.2-.485.48-.64.844-.157.355-.235.765-.235 1.234s.078.887.234 1.25c.156.356.367.637.64.844.282.2.598.297.954.297.363 0 .68-.098.953-.297.27-.207.477-.488.625-.844.156-.363.234-.781.234-1.25Zm0 0"/></symbol><symbol overflow="visible" id="g"><path style="stroke:none" d="M2.234-3.453c0 .418-.058.844-.171 1.281-.118.43-.282.856-.5 1.281-.211.418-.45.84-.72 1.266l-.5-.281a10.04 10.04 0 0 0 .923-1.813c.226-.613.343-1.18.343-1.703 0-.312-.043-.64-.125-.984a7.91 7.91 0 0 0-.328-1.032 10.404 10.404 0 0 0-.406-.937 6.964 6.964 0 0 0-.438-.75l.532-.234c.383.648.71 1.293.984 1.937.27.637.406 1.293.406 1.969Zm0 0"/></symbol><symbol overflow="visible" id="n"><path style="stroke:none" d="M.344 0c0-.176.015-.36.047-.547.039-.187.101-.367.187-.547.094-.176.227-.347.406-.515.176-.164.407-.329.688-.485l.484-.219c.164-.082.32-.171.469-.265.145-.094.258-.195.344-.313a.765.765 0 0 0 .016-.813.748.748 0 0 0-.344-.312 1.274 1.274 0 0 0-.594-.125c-.168 0-.324.028-.469.079a1.333 1.333 0 0 0-.36.171 2.037 2.037 0 0 0-.265.22 2.11 2.11 0 0 1-.187.171l-.344-.375.172-.172a2.27 2.27 0 0 1 .36-.25 2.06 2.06 0 0 1 .515-.234c.207-.063.43-.094.672-.094.32 0 .597.059.828.172.226.117.406.266.531.453.125.188.188.398.188.625 0 .219-.047.406-.141.563a1.487 1.487 0 0 1-.36.406 3.516 3.516 0 0 1-.89.5 3.41 3.41 0 0 0-.625.36 1.97 1.97 0 0 0-.406.359A1.345 1.345 0 0 0 .922-.5h2.844V0Zm0 0"/></symbol><symbol overflow="visible" id="p"><path style="stroke:none" d="M3.234-.5V0H.531v-.5h1.14v-3.406a1.14 1.14 0 0 1-.218.219c-.105.074-.226.14-.36.203-.124.062-.25.117-.374.156a1.106 1.106 0 0 1-.36.062v-.53c.125 0 .258-.032.407-.095a3.207 3.207 0 0 0 .75-.5.874.874 0 0 0 .156-.156h.547V-.5Zm0 0"/></symbol><symbol overflow="visible" id="o"><path style="stroke:none" d="M2.11-3.781c.046-.094.078-.156.078-.235 0-.265-.25-.437-.47-.437-.312 0-.405.281-.437.39L.266-.624C.234-.531.234-.515.234-.5c0 .063.047.078.125.11.157.062.172.062.188.062.015 0 .062 0 .125-.14Zm0 0"/></symbol><clipPath id="a"><path d="M287 152h3.656v4H287Zm0 0"/></clipPath><clipPath id="h"><path d="M25.953.2h264.508v153.59H25.953Zm0 0"/></clipPath><clipPath id="i"><path d="M25.953 19h264.508v134.79H25.953Zm0 0"/></clipPath><clipPath id="j"><path d="M25.953.2h264.508v153.59H25.953Zm0 0"/></clipPath><clipPath id="k"><path d="M68 125h1v28.79h-1Zm0 0"/></clipPath><clipPath id="l"><path d="M216 108h1v45.79h-1Zm0 0"/></clipPath><clipPath id="r"><path d="M136 192h44v17.414h-44Zm0 0"/></clipPath></defs><path style="stroke:none;fill-rule:nonzero;fill:#fff;fill-opacity:1" d="M0 209.414V0h290.66v209.414Zm0 0"/><path style="fill:none;stroke-width:.3985;stroke-linecap:butt;stroke-linejoin:miter;stroke:#000;stroke-opacity:1;stroke-miterlimit:10" d="M0 .002h262.516" transform="matrix(1 0 0 -1 25.953 153.791)"/><g clip-path="url(#a)"><path style="stroke:none;fill-rule:nonzero;fill:#000;fill-opacity:1" d="m290.46 153.79-3.187-1.595 1.196 1.594-1.196 1.598"/></g><path style="fill:none;stroke-width:.3985;stroke-linecap:butt;stroke-linejoin:miter;stroke:#000;stroke-opacity:1;stroke-miterlimit:10" d="M0 .002V151.6" transform="matrix(1 0 0 -1 25.953 153.791)"/><path style="stroke:none;fill-rule:nonzero;fill:#000;fill-opacity:1" d="M25.953.2 24.36 3.386l1.594-1.196 1.594 1.196"/><use xlink:href="#b" x="65.292" y="164.717" style="fill:#000;fill-opacity:1"/><use xlink:href="#c" x="213.443" y="166.709" style="fill:#000;fill-opacity:1"/><use xlink:href="#d" x="3.321" y="88.831" style="fill:#000;fill-opacity:1"/><use xlink:href="#e" x="9.218" y="88.831" style="fill:#000;fill-opacity:1"/><use xlink:href="#f" x="11.719" y="88.831" style="fill:#000;fill-opacity:1"/><use xlink:href="#g" x="17.636" y="88.831" style="fill:#000;fill-opacity:1"/><g clip-path="url(#h)"><path style="fill:none;stroke-width:.85039;stroke-linecap:butt;stroke-linejoin:miter;stroke:red;stroke-opacity:1;stroke-miterlimit:10" d="m0 67.58 3.574-4.078L7.15 59.56l3.574-3.801 3.574-3.66 3.574-3.52 3.574-3.379 3.575-3.238 3.574-3.102 3.57-2.957 3.574-2.82 3.575-2.68 3.574-2.535 3.574-2.398 3.574-2.258 3.575-2.117 3.574-1.98 3.574-1.837 3.574-1.695 3.574-1.559 3.575-1.418 3.574-1.273 3.574-1.137 3.574-.996 3.574-.855 3.575-.715 3.574-.578 3.574-.434 3.57-.297 3.575-.152 3.574-.016 3.574.125 3.574.266 3.575.406 3.574.547 3.574.688 3.574.828 3.574.965 3.575 1.109 3.574 1.246 3.574 1.387 3.574 1.527 3.575 1.668 3.574 1.809 3.574 1.949 3.574 2.09 3.574 2.226 3.57 2.371 3.575 2.508 3.574 2.652 3.574 2.79 3.575 2.93 3.574 3.07 3.574 3.21 3.574 3.348 3.574 3.492 3.575 3.633 3.574 3.77 3.574 3.91 3.574 4.05 3.575 4.196 3.574 4.332 3.574 4.473 3.574 4.609 3.574 4.754 3.575 4.894 3.57 5.032 3.574 5.172 3.574 5.316 3.575 5.453 3.574 5.594 3.574 5.734 3.574 5.875 3.574 6.012 3.575 6.156" transform="matrix(1 0 0 -1 25.953 153.791)"/></g><g clip-path="url(#i)"><path style="fill:none;stroke-width:.3985;stroke-linecap:butt;stroke-linejoin:miter;stroke:#000;stroke-opacity:1;stroke-miterlimit:10" d="m-529.012 129.018 44.082-5.118 44.082-5.12 44.086-5.122 44.082-5.117 44.086-5.121 44.082-5.121 44.086-5.117 44.082-5.121 44.086-5.122 44.082-5.117 44.082-5.12 44.086-5.118 44.082-5.121 44.086-5.121 44.082-5.117 44.086-5.122 44.082-5.12 44.082-5.118 44.086-5.12 44.082-5.122 44.086-5.117 44.082-5.121 44.086-5.121 44.082-5.118" transform="matrix(1 0 0 -1 25.953 153.791)"/></g><g clip-path="url(#j)"><path style="fill:none;stroke-width:.3985;stroke-linecap:butt;stroke-linejoin:miter;stroke:#000;stroke-opacity:1;stroke-miterlimit:10" d="m-529.012 559.08 88.164-81.914 44.086-40.957 44.082-40.961 44.086-40.957 44.082-40.957 44.086-40.957 44.082-40.957 44.086-40.957 44.082-40.957 44.082-40.961L-.008 67.588 44.074 26.63 88.16-14.326l44.082-40.957 44.086-40.957 44.082-40.957 44.082-40.961 44.086-40.957 44.082-40.957 44.086-40.957 44.082-40.957 44.086-40.957 44.082-40.957" transform="matrix(1 0 0 -1 25.953 153.791)"/></g><g clip-path="url(#k)"><path style="fill:none;stroke-width:.3985;stroke-linecap:butt;stroke-linejoin:miter;stroke:#000;stroke-opacity:1;stroke-dasharray:.3985,1.99255;stroke-miterlimit:10" d="M42.32.002v28.262" transform="matrix(1 0 0 -1 25.953 153.791)"/></g><g clip-path="url(#l)"><path style="fill:none;stroke-width:.3985;stroke-linecap:butt;stroke-linejoin:miter;stroke:#000;stroke-opacity:1;stroke-dasharray:.3985,1.99255;stroke-miterlimit:10" d="M190.442.002v45.46" transform="matrix(1 0 0 -1 25.953 153.791)"/></g><use xlink:href="#m" x="57.914" y="113.746" style="fill:#000;fill-opacity:1"/><use xlink:href="#n" x="66.662" y="115.24" style="fill:#000;fill-opacity:1"/><use xlink:href="#d" x="71.312" y="113.746" style="fill:#000;fill-opacity:1"/><use xlink:href="#o" x="77.445" y="110.131" style="fill:#000;fill-opacity:1"/><use xlink:href="#e" x="80.24" y="113.746" style="fill:#000;fill-opacity:1"/><use xlink:href="#f" x="82.741" y="113.746" style="fill:#000;fill-opacity:1"/><use xlink:href="#g" x="88.658" y="113.746" style="fill:#000;fill-opacity:1"/><use xlink:href="#m" x="252.959" y="110.674" style="fill:#000;fill-opacity:1"/><use xlink:href="#p" x="261.707" y="112.168" style="fill:#000;fill-opacity:1"/><use xlink:href="#d" x="265.616" y="110.674" style="fill:#000;fill-opacity:1"/><use xlink:href="#o" x="271.749" y="107.059" style="fill:#000;fill-opacity:1"/><use xlink:href="#e" x="274.544" y="110.674" style="fill:#000;fill-opacity:1"/><use xlink:href="#f" x="277.045" y="110.674" style="fill:#000;fill-opacity:1"/><use xlink:href="#g" x="282.962" y="110.674" style="fill:#000;fill-opacity:1"/><use xlink:href="#q" x="156.496" y="180.593" style="fill:#000;fill-opacity:1"/><g clip-path="url(#r)"><path style="fill-rule:nonzero;fill:#fff;fill-opacity:1;stroke-width:.3985;stroke-linecap:butt;stroke-linejoin:miter;stroke:#000;stroke-opacity:1;stroke-miterlimit:10" d="M111.012-55.424h42.484v16.828h-42.484Zm0 0" transform="matrix(1 0 0 -1 25.953 153.791)"/></g><path style="fill:none;stroke-width:.85039;stroke-linecap:butt;stroke-linejoin:miter;stroke:red;stroke-opacity:1;stroke-miterlimit:10" d="M-.001 0h17.008" transform="matrix(1 0 0 -1 140.376 200.801)"/><use xlink:href="#d" x="159.801" y="203.735" style="fill:#000;fill-opacity:1"/><use xlink:href="#e" x="165.699" y="203.735" style="fill:#000;fill-opacity:1"/><use xlink:href="#q" x="168.379" y="203.735" style="fill:#000;fill-opacity:1"/><use xlink:href="#g" x="171.796" y="203.735" style="fill:#000;fill-opacity:1"/></svg>
