<svg xmlns="http://www.w3.org/2000/svg" xmlns:xlink="http://www.w3.org/1999/xlink" width="387.541" height="279.219" viewBox="0 0 290.656 209.414"><defs><path id="b" d="M2.094.094q-.562 0-.985-.297A1.83 1.83 0 0 1 .47-1a2.6 2.6 0 0 1-.22-1.078q0-.607.234-1.188c.157-.382.368-.726.641-1.03q.406-.452.922-.72a2.34 2.34 0 0 1 1.078-.265q.638.002 1.047.343.403.347.578.829l.234-1.078h.672L4.75-.891a.4.4 0 0 0-.031.079v.062q-.001.157.203.156L4.782 0c-.055.008-.102.016-.141.016-.043.007-.086.015-.125.015q-.237-.015-.344-.125a.37.37 0 0 1-.11-.281v-.11q.013-.075.032-.202L4.172-1a3.1 3.1 0 0 1-.969.797q-.563.299-1.11.297M2.375-.5c.164 0 .344-.031.531-.094a2.8 2.8 0 0 0 .547-.281q.28-.17.485-.406.217-.247.312-.5l.328-1.61a1.3 1.3 0 0 0-.234-.64 1.6 1.6 0 0 0-.5-.469 1.2 1.2 0 0 0-.656-.187q-.456.001-.86.218a2.5 2.5 0 0 0-.703.594 3 3 0 0 0-.5.813q-.174.439-.172.89-.002.457.172.844.186.375.5.61.31.22.75.218m0 0"/><path id="c" d="M2.531.094Q1.905.096 1.484-.22A1.7 1.7 0 0 1 .906-1L.687 0H.095L1.64-7.281h.672L1.64-4.11q.434-.528.968-.844a2.1 2.1 0 0 1 1.125-.328q.592 0 .985.312.389.3.578.782.201.486.203 1.03-.002.658-.25 1.25-.253.58-.687 1.032a3.3 3.3 0 0 1-.954.719q-.515.248-1.078.25M2.516-.5q.419.001.828-.203.42-.216.734-.578.311-.357.5-.813.201-.45.203-.953a1.9 1.9 0 0 0-.172-.797 1.4 1.4 0 0 0-.453-.61q-.281-.233-.734-.234a1.7 1.7 0 0 0-.735.172q-.346.177-.64.47c-.2.187-.387.398-.563.624l-.359 1.735q.014.327.203.609.2.27.5.422.312.157.688.156m0 0"/><path id="d" d="M4.094-1.078q-.47.582-1.016.875a2.24 2.24 0 0 1-1.11.297q-.55 0-.937-.281A1.8 1.8 0 0 1 .438-.97a2.7 2.7 0 0 1-.204-1.06q-.001-.64.25-1.22.247-.591.688-1.047c.289-.3.61-.539.953-.719a2.46 2.46 0 0 1 1.11-.265q.573 0 .984.312.421.317.61.797l.202-1.016h.61L4.094 2.125h-.672ZM2.312-.5q.374.001.72-.156.357-.172.656-.453.311-.282.546-.61l.344-1.656q0-.341-.187-.64a1.25 1.25 0 0 0-.485-.485 1.2 1.2 0 0 0-.656-.187 1.9 1.9 0 0 0-.875.218 2.6 2.6 0 0 0-.734.594 3 3 0 0 0-.5.813 2.4 2.4 0 0 0-.188.921q-.001.456.156.829.17.376.47.593c.206.149.452.219.734.219m0 0"/><path id="m" d="M1.188-5.187h.625l-.25 1.171q.405-.593.968-.921.576-.342 1.156-.344.387.002.657.156.264.158.406.469.139.3.125.734.294-.45.64-.75a2.9 2.9 0 0 1 .75-.453q.405-.155.798-.156.421.002.656.156.246.159.375.453.124.284.125.672-.001.22-.031.453a7 7 0 0 1-.094.5L7.454 0h-.688l.609-2.906c.07-.313.11-.578.11-.797q-.002-.499-.204-.735-.206-.234-.593-.234a1.5 1.5 0 0 0-.735.203q-.346.188-.656.516-.317.329-.516.781L4.11 0h-.687l.61-2.906a3 3 0 0 0 .077-.438q.031-.201.032-.39-.002-.47-.203-.703-.19-.235-.579-.235-.55 0-1.078.422a3.1 3.1 0 0 0-.844 1.063L.767 0H.094Zm0 0"/><path id="q" d="M.484-.687v-.125q.013-.061.032-.125l.78-3.72H.61l.125-.53h.672l.375-1.766h.688l-.39 1.766h1.14l-.125.53H1.969L1.25-1.28q-.036.112-.047.172V-1q0 .222.14.328.141.11.345.11.187 0 .343-.047.153-.062.281-.11a1 1 0 0 0 .172-.078l.063.547a4 4 0 0 1-.281.125A1.8 1.8 0 0 1 1.844 0q-.236.062-.5.063a.98.98 0 0 1-.61-.188Q.483-.312.484-.687m0 0"/><path id="e" d="M.438-3.453c0-.676.132-1.332.406-1.969q.404-.965.984-1.937l.531.234q-.203.315-.437.75-.224.439-.422.938-.188.504-.312 1.03a4.7 4.7 0 0 0-.11.985q0 .785.328 1.703.34.91.938 1.813l-.516.281a17 17 0 0 1-.734-1.266 7 7 0 0 1-.485-1.28 5 5 0 0 1-.171-1.282m0 0"/><path id="f" d="M5.547-2.922q0 .878-.328 1.563-.317.69-.89 1.078-.566.375-1.282.375-.72 0-1.281-.375A2.65 2.65 0 0 1 .875-1.36Q.547-2.044.547-2.922q0-.873.328-1.547.329-.685.89-1.078.562-.405 1.282-.406c.476 0 .906.137 1.281.406q.575.393.89 1.078.33.675.329 1.547m-.688 0q0-.703-.234-1.234Q4.404-4.702 4-5a1.53 1.53 0 0 0-.953-.312q-.533 0-.953.312-.41.299-.64.844-.235.531-.235 1.234 0 .704.234 1.25.232.534.64.844.422.299.954.297.544 0 .953-.297.404-.31.625-.844.234-.546.234-1.25m0 0"/><path id="g" d="M2.234-3.453q0 .626-.171 1.281-.175.644-.5 1.281-.316.627-.72 1.266l-.5-.281a10 10 0 0 0 .923-1.813c.226-.613.343-1.18.343-1.703q-.001-.468-.125-.984a8 8 0 0 0-.328-1.032 10 10 0 0 0-.406-.937 7 7 0 0 0-.437-.75l.53-.234q.576.971.985 1.937.406.955.406 1.969m0 0"/><path id="n" d="M.344 0q0-.265.047-.547.058-.279.187-.547.14-.264.406-.515.265-.248.688-.485l.484-.219q.246-.123.469-.265c.145-.094.258-.195.344-.313a.77.77 0 0 0 .016-.812.75.75 0 0 0-.344-.313 1.3 1.3 0 0 0-.594-.125q-.252.001-.469.079a1.3 1.3 0 0 0-.36.171 2 2 0 0 0-.265.22 2 2 0 0 1-.187.171l-.344-.375.172-.172a2.3 2.3 0 0 1 .36-.25q.216-.141.515-.234.31-.094.672-.094.48.001.828.172c.226.117.406.266.531.453q.188.283.188.625 0 .328-.141.563a1.5 1.5 0 0 1-.36.406 3.5 3.5 0 0 1-.89.5 3.4 3.4 0 0 0-.625.36 2 2 0 0 0-.406.359A1.35 1.35 0 0 0 .922-.5h2.844V0Zm0 0"/><path id="p" d="M3.234-.5V0H.531v-.5h1.14v-3.406a1.1 1.1 0 0 1-.218.219q-.158.11-.36.203c-.124.062-.25.117-.374.156a1.1 1.1 0 0 1-.36.062v-.53c.125 0 .258-.032.407-.095q.216-.105.406-.234c.133-.094.25-.18.344-.266a1 1 0 0 0 .156-.156h.547V-.5Zm0 0"/><path id="o" d="M2.11-3.781c.046-.094.078-.156.078-.235 0-.265-.25-.437-.47-.437-.312 0-.405.281-.437.39L.266-.624C.234-.531.234-.515.234-.5c0 .063.047.078.125.11.157.062.172.062.188.062.015 0 .062 0 .125-.14Zm0 0"/><clipPath id="a"><path d="M287 152h3.656v4H287Zm0 0"/></clipPath><clipPath id="h"><path d="M25.953.2h264.508v153.59H25.953Zm0 0"/></clipPath><clipPath id="i"><path d="M25.953 19h264.508v134.79H25.953Zm0 0"/></clipPath><clipPath id="j"><path d="M25.953.2h264.508v153.59H25.953Zm0 0"/></clipPath><clipPath id="k"><path d="M68 125h1v28.79h-1Zm0 0"/></clipPath><clipPath id="l"><path d="M216 108h1v45.79h-1Zm0 0"/></clipPath><clipPath id="r"><path d="M136 192h44v17.414h-44Zm0 0"/></clipPath></defs><path fill="#fff" d="M0 209.414V0h290.66v209.414Zm0 0"/><path fill="none" stroke="#000" stroke-miterlimit="10" stroke-width=".399" d="M25.953 153.79H288.47"/><g clip-path="url(#a)"><path d="m290.46 153.79-3.187-1.595 1.196 1.594-1.196 1.598"/></g><path fill="none" stroke="#000" stroke-miterlimit="10" stroke-width=".399" d="M25.953 153.79V2.19"/><path d="M25.953.2 24.36 3.386l1.594-1.196 1.594 1.196"/><use xlink:href="#b" x="65.292" y="164.717"/><use xlink:href="#c" x="213.443" y="166.709"/><use xlink:href="#d" x="3.321" y="88.831"/><use xlink:href="#e" x="9.218" y="88.831"/><use xlink:href="#f" x="11.719" y="88.831"/><use xlink:href="#g" x="17.636" y="88.831"/><g clip-path="url(#h)"><path fill="none" stroke="red" stroke-miterlimit="10" stroke-width=".85" d="m25.953 86.21 3.574 4.08 3.575 3.94 3.574 3.801 3.574 3.66 3.574 3.52 3.574 3.383 3.575 3.238 3.574 3.098 3.574 2.96 3.574 2.82 3.578 2.677 3.575 2.539 3.574 2.398 3.574 2.258 3.574 2.117 3.575 1.977 3.574 1.84 3.574 1.695 3.574 1.559 3.574 1.414 3.575 1.277 3.574 1.137 3.574.996 3.574.855 3.575.715 3.574.574 3.574.434 3.574.297 3.574.152 3.575.016 3.578-.125 3.574-.27 3.574-.406 3.574-.547 3.575-.687 3.574-.829 3.574-.964 3.574-1.11 3.574-1.246 3.575-1.39 3.574-1.528 3.574-1.668 3.574-1.812 3.575-1.95 3.574-2.09 3.574-2.226 3.574-2.371 3.574-2.512 3.575-2.648 3.574-2.793 3.574-2.93 3.578-3.07 3.574-3.215 3.575-3.352 3.574-3.492 3.574-3.629 3.574-3.773 3.575-3.914 3.574-4.05 3.574-4.196 3.574-4.332 3.574-4.477 3.575-4.613 3.574-4.754 3.574-4.895 3.574-5.035 3.575-5.172 3.574-5.316 3.574-5.457 3.574-5.594 3.574-5.738 3.579-5.875 3.574-6.016 3.574-6.156"/></g><g clip-path="url(#i)"><path fill="none" stroke="#000" stroke-miterlimit="10" stroke-width=".399" d="m-503.059 24.773 44.082 5.118 44.082 5.12 44.086 5.122 44.082 5.117 44.086 5.121 44.082 5.121 44.086 5.117 44.082 5.121 44.086 5.122 44.082 5.117 44.082 5.12 44.086 5.118 44.082 5.121 44.086 5.121 44.082 5.117 44.086 5.121 44.082 5.122 44.082 5.117 44.086 5.12 44.082 5.122 44.086 5.117 44.082 5.121 44.086 5.121 44.082 5.118"/></g><g clip-path="url(#j)"><path fill="none" stroke="#000" stroke-miterlimit="10" stroke-width=".399" d="m-503.059-405.29 88.164 81.915 44.086 40.957 44.082 40.961 44.086 40.957 44.082 40.957 44.086 40.957 44.082 40.957 44.086 40.957 44.082 40.957 44.082 40.961 44.086 40.957 44.082 40.957 44.086 40.957 44.082 40.957 44.086 40.957 44.082 40.957 44.082 40.961 44.086 40.957 44.082 40.957L422.7 454.82l44.082 40.957 44.086 40.957 44.082 40.957"/></g><g clip-path="url(#k)"><path fill="none" stroke="#000" stroke-dasharray="0.3985 1.99255" stroke-miterlimit="10" stroke-width=".399" d="M68.273 153.79v-28.263"/></g><g clip-path="url(#l)"><path fill="none" stroke="#000" stroke-dasharray="0.3985 1.99255" stroke-miterlimit="10" stroke-width=".399" d="M216.395 153.79v-45.462"/></g><use xlink:href="#m" x="57.914" y="113.746"/><use xlink:href="#n" x="66.662" y="115.24"/><use xlink:href="#d" x="71.312" y="113.746"/><use xlink:href="#o" x="77.445" y="110.131"/><use xlink:href="#e" x="80.24" y="113.746"/><use xlink:href="#f" x="82.741" y="113.746"/><use xlink:href="#g" x="88.658" y="113.746"/><use xlink:href="#m" x="252.959" y="110.674"/><use xlink:href="#p" x="261.707" y="112.168"/><use xlink:href="#d" x="265.616" y="110.674"/><use xlink:href="#o" x="271.749" y="107.059"/><use xlink:href="#e" x="274.544" y="110.674"/><use xlink:href="#f" x="277.045" y="110.674"/><use xlink:href="#g" x="282.962" y="110.674"/><use xlink:href="#q" x="156.496" y="180.593"/><g clip-path="url(#r)"><path fill="#fff" stroke="#000" stroke-miterlimit="10" stroke-width=".399" d="M136.965 209.215h42.484v-16.828h-42.484Zm0 0"/></g><path fill="none" stroke="red" stroke-miterlimit="10" stroke-width=".85" d="M140.375 200.8h17.008"/><use xlink:href="#d" x="159.801" y="203.735"/><use xlink:href="#e" x="165.699" y="203.735"/><use xlink:href="#q" x="168.379" y="203.735"/><use xlink:href="#g" x="171.796" y="203.735"/></svg>
