<svg xmlns="http://www.w3.org/2000/svg" xmlns:xlink="http://www.w3.org/1999/xlink" width="983.208" height="1474.333" viewBox="0 0 737.406 1105.75"><defs><path id="a" d="M.625 0c0-.32.023-.648.078-.984q.093-.498.344-.985.248-.48.719-.937c.312-.301.726-.586 1.25-.86q.404-.2.843-.406.451-.216.844-.469.406-.246.64-.562.235-.327.235-.781 0-.358-.219-.703a1.44 1.44 0 0 0-.625-.547c-.28-.145-.632-.22-1.046-.22q-.456.001-.829.126-.377.129-.671.328a3 3 0 0 0-.485.39q-.205.19-.328.313l-.61-.672q.06-.091.313-.312.247-.218.64-.453.405-.246.938-.422a4 4 0 0 1 1.188-.172q.873 0 1.5.312.623.3.953.813.328.516.328 1.125c0 .387-.086.726-.25 1.016a2.6 2.6 0 0 1-.656.734q-.392.299-.813.531c-.281.149-.539.274-.765.375q-.673.316-1.141.625-.456.315-.719.64-.27.317-.422.626-.156.314-.203.64h5.125V0Zm0 0"/><path id="l" d="M5.11 1.828V-.734H.327v-.86l5.094-6.593h.656v6.562h1.266v.89H6.078v2.563ZM1.36-1.625h3.843v-5.031Zm0 0"/><path id="n" d="M5.984-7.453h-5.5v-.906h7.047L2.375 1.828h-1.11Zm0 0"/><path id="r" d="M7.781-2.828q-.001.893-.5 1.562A3.2 3.2 0 0 1 5.984-.25 4.3 4.3 0 0 1 4.22.11Q3.2.111 2.406-.298a3.2 3.2 0 0 1-1.234-1.078 2.6 2.6 0 0 1-.453-1.516q-.002-.639.297-1.156.311-.527.78-.89.469-.358.954-.516a3.8 3.8 0 0 1-.828-.484 2.5 2.5 0 0 1-.625-.72 2 2 0 0 1-.219-.937q0-.622.281-1.11c.188-.32.43-.593.735-.812q.451-.34 1.015-.5.576-.17 1.157-.171.545 0 1.109.171a3.2 3.2 0 0 1 1.047.5q.467.332.734.813c.188.312.282.68.282 1.094q0 .515-.235.937a2.5 2.5 0 0 1-.625.734q-.375.299-.844.485.563.19 1.032.578c.312.25.554.547.734.89q.282.517.281 1.157m-.984-.063q0-.514-.219-.906a2 2 0 0 0-.61-.672 2.7 2.7 0 0 0-.827-.422 3 3 0 0 0-.907-.14q-.628.001-1.203.265a2.55 2.55 0 0 0-.953.75q-.361.47-.36 1.125c0 .344.071.649.22.907A2.5 2.5 0 0 0 3.359-.906q.453.14.922.14.609.002 1.188-.265.576-.264.953-.75.375-.481.375-1.11m-4.75-4.656q0 .55.328.953.342.394.86.594.526.188 1.015.188c.344 0 .68-.067 1.016-.204q.515-.2.843-.593.342-.405.344-.97 0-.544-.312-.921a2 2 0 0 0-.828-.594 2.9 2.9 0 0 0-1.079-.203 2.7 2.7 0 0 0-1.062.219 2 2 0 0 0-.813.594q-.314.392-.312.937m0 0"/><path id="t" d="M5.828-.89V0H.968v-.89H3v-6.141a1.4 1.4 0 0 1-.39.375q-.269.204-.626.375-.346.175-.687.297a2.1 2.1 0 0 1-.64.109v-.953q.326 0 .718-.188a7 7 0 0 0 .75-.421q.359-.246.594-.47.246-.216.281-.28h1v7.296Zm0 0"/><path id="u" d="M7.984-4.203q0 1.266-.468 2.25Q7.06-.97 6.234-.406A3.2 3.2 0 0 1 4.391.14Q3.357.143 2.547-.406 1.73-.968 1.25-1.953q-.468-.984-.469-2.25t.469-2.25Q1.731-7.437 2.547-8a3.16 3.16 0 0 1 1.844-.562q1.03 0 1.843.562.825.562 1.282 1.547.468.984.468 2.25m-.984 0q0-1.014-.328-1.781-.329-.78-.922-1.22a2.26 2.26 0 0 0-1.36-.437c-.523 0-.98.149-1.374.438q-.582.44-.922 1.219-.328.767-.328 1.78 0 1.019.328 1.798.34.768.922 1.203.59.422 1.375.422.76 0 1.359-.438.593-.434.922-1.203Q7-3.184 7-4.203m0 0"/><path id="b" d="M3.078-7.078h.594L6.609 0h-.734l-.922-2.219H1.781L.875 0h-.75Zm1.719 4.312-1.422-3.5-1.453 3.5Zm0 0"/><path id="c" d="M6.203-1.828q-.001.532-.266.953a1.87 1.87 0 0 1-.718.64A2.1 2.1 0 0 1 4.234 0H.891v-7.078h3.406q.497.001.86.266c.238.18.421.406.546.687a1.92 1.92 0 0 1-.062 1.828q-.27.456-.75.672.608.175.953.672.359.487.36 1.125m-.687-.11q-.001-.357-.172-.656a1.3 1.3 0 0 0-.438-.5 1 1 0 0 0-.61-.203H1.579v2.688h2.656q.343 0 .625-.188.293-.186.47-.484a1.25 1.25 0 0 0 .187-.657m-3.938-4.53v2.609h2.438q.34 0 .609-.188.28-.187.438-.484c.101-.196.156-.407.156-.625q-.002-.358-.157-.657a1.16 1.16 0 0 0-.406-.468.94.94 0 0 0-.578-.188Zm0 0"/><path id="d" d="M.422-3.594c0-.426.07-.847.219-1.265Q.875-5.482 1.297-6a3 3 0 0 1 1.047-.812 3.25 3.25 0 0 1 1.437-.313q.936.002 1.61.438.684.44 1 1.109l-.547.344a2.14 2.14 0 0 0-.578-.735 2 2 0 0 0-.75-.39 2.6 2.6 0 0 0-.782-.125q-.644.002-1.125.25-.487.25-.828.672a3.1 3.1 0 0 0-.5.953q-.174.516-.172 1.062 0 .598.204 1.125.199.533.562.953.358.41.844.657c.32.167.672.25 1.047.25q.404 0 .812-.141a2.6 2.6 0 0 0 .781-.422c.25-.195.446-.453.594-.766l.578.313q-.22.515-.687.89a3.2 3.2 0 0 1-1.016.563 3.5 3.5 0 0 1-1.094.188Q2.998.065 2.391-.25a3.5 3.5 0 0 1-1.063-.828 3.9 3.9 0 0 1-.672-1.188 3.9 3.9 0 0 1-.234-1.328m0 0"/><path id="e" d="M.328-1.5q0-.482.281-.828a1.75 1.75 0 0 1 .766-.547q.497-.201 1.14-.203.387.002.797.062.404.066.72.172v-.437c0-.438-.134-.785-.391-1.047q-.376-.388-1.063-.39a2.3 2.3 0 0 0-.828.155 4.3 4.3 0 0 0-.844.454l-.265-.47a4.4 4.4 0 0 1 1-.53 3.1 3.1 0 0 1 1-.172c.632 0 1.14.183 1.515.547q.563.549.563 1.515v2.407c0 .093.015.164.047.203q.06.065.203.078V0c-.074.008-.14.016-.203.016a.24.24 0 0 1-.11 0 .48.48 0 0 1-.516-.469l-.015-.39q-.344.456-.906.702a3 3 0 0 1-1.14.235 2 2 0 0 1-.907-.203 1.7 1.7 0 0 1-.625-.578A1.56 1.56 0 0 1 .328-1.5m3.485.406q.106-.139.156-.265a.7.7 0 0 0 .062-.235v-.765a4 4 0 0 0-.703-.188 3.5 3.5 0 0 0-.719-.078c-.492 0-.886.102-1.187.297q-.439.282-.438.781 0 .3.141.547.155.252.438.422.293.157.687.156c.32 0 .625-.062.906-.187q.422-.187.656-.485m0 0"/><path id="f" d="M3.297.094a2.2 2.2 0 0 1-1.14-.313A2.3 2.3 0 0 1 1.358-1v1H.75v-7.281h.672v3.172a3 3 0 0 1 .844-.844c.32-.219.703-.328 1.14-.328q.547 0 .969.234.435.223.75.61.31.377.469.859c.101.324.156.656.156 1q0 .55-.187 1.031A2.6 2.6 0 0 1 4.25-.109a2.3 2.3 0 0 1-.953.203M3.125-.5q.42.002.781-.172.358-.17.61-.469.264-.294.406-.671.14-.374.14-.766 0-.545-.234-1.031a2.03 2.03 0 0 0-.656-.782 1.62 1.62 0 0 0-.969-.296 1.5 1.5 0 0 0-.734.187q-.345.175-.61.469-.269.3-.437.64v1.61q.046.281.203.515.17.236.422.407.265.159.547.265.28.094.531.094m0 0"/><path id="g" d="M3 .094c-.375 0-.727-.07-1.047-.203a2.7 2.7 0 0 1-.828-.594 3 3 0 0 1-.547-.875A2.8 2.8 0 0 1 .391-2.61q0-.734.328-1.344.328-.607.906-.969.592-.359 1.36-.36c.488 0 .913.118 1.28.345q.564.327.844.89l-.656.203a1.6 1.6 0 0 0-.625-.61 1.7 1.7 0 0 0-.875-.234q-.518 0-.953.282c-.281.18-.508.422-.672.734q-.251.47-.25 1.063-.001.58.25 1.062.264.485.688.766.435.28.953.281.34.001.656-.11a1.9 1.9 0 0 0 .547-.327 1 1 0 0 0 .312-.454l.672.204q-.14.377-.468.671-.331.283-.766.454C3.64.039 3.332.094 3 .094m0 0"/><path id="h" d="M.89 0v-7.078h2.407q1.125.002 1.875.484.75.47 1.125 1.266.375.797.375 1.781-.001 1.079-.406 1.875A2.93 2.93 0 0 1 5.094-.437Q4.327 0 3.297 0Zm5.094-3.547q0-.843-.312-1.5a2.3 2.3 0 0 0-.922-1.031q-.598-.375-1.453-.375H1.578v5.828h1.719q.872 0 1.469-.375a2.54 2.54 0 0 0 .906-1.047q.311-.667.312-1.5m0 0"/><path id="i" d="M.406-2.578q0-.734.297-1.344.294-.621.828-.984.545-.375 1.235-.375.656.002 1.172.343.515.347.796.829v-3.172h.672v6.469c0 .093.02.164.063.203q.058.065.187.078V0q-.205.028-.312.016A.537.537 0 0 1 4.812-.5V-1q-.316.504-.843.797-.518.299-1.094.297-.533 0-.984-.219a2.5 2.5 0 0 1-.797-.594 2.9 2.9 0 0 1-.516-.86 2.9 2.9 0 0 1-.172-1m4.328.797v-1.61a1.8 1.8 0 0 0-.421-.656 2.2 2.2 0 0 0-.657-.469 1.69 1.69 0 0 0-1.484 0 1.8 1.8 0 0 0-.578.485q-.236.298-.375.672c-.086.25-.125.511-.125.78q0 .423.14.798.153.377.422.672.264.3.61.453.356.157.765.156.263 0 .531-.094.281-.105.532-.281.264-.17.422-.406.17-.247.218-.5m0 0"/><path id="j" d="M.438 0Q.437-.341.5-.687a2.6 2.6 0 0 1 .219-.672q.17-.34.5-.657.34-.311.875-.593.279-.154.594-.297.31-.14.578-.313.28-.186.437-.406a.83.83 0 0 0 .172-.531.94.94 0 0 0-.14-.485 1 1 0 0 0-.438-.39 1.6 1.6 0 0 0-.735-.157q-.314 0-.578.094-.27.093-.468.235a2.3 2.3 0 0 0-.328.265q-.14.127-.235.219l-.422-.469q.045-.06.219-.218a2.7 2.7 0 0 1 .438-.313q.28-.168.656-.297a2.6 2.6 0 0 1 .828-.125q.61 0 1.031.219.437.221.672.578.234.362.234.766c0 .28-.062.523-.187.718a1.9 1.9 0 0 1-.453.5q-.27.223-.563.375l-.531.266a5.5 5.5 0 0 0-.781.438q-.316.22-.516.437a2.2 2.2 0 0 0-.297.438 2.5 2.5 0 0 0-.14.437h3.578V0Zm0 0"/><path id="k" d="M.313-.453 3.78-4.687H.391v-.5h4.172v.453L1.092-.516h3.454V0H.313Zm0 0"/><path id="m" d="M3.547 1.266V-.516H.234v-.593l3.532-4.578h.468v4.562h.875v.61h-.875v1.78ZM.953-1.125h2.672v-3.5Zm0 0"/><path id="o" d="m.922-7.078 2.312 3.812 2.344-3.812h.75L3.594-2.625V0H2.89v-2.656L.156-7.078Zm0 0"/><path id="p" d="M4.156-5.187H.344v-.625h4.89L1.656 1.266H.875Zm0 0"/><path id="q" d="M1.047 1.594c.094.008.18.015.266.015a1 1 0 0 0 .187-.015.4.4 0 0 0 .234-.14c.07-.087.157-.243.25-.47Q2.137.657 2.406 0L.156-5.187h.719l1.89 4.484 1.766-4.484h.672L2.516 1.5a1.6 1.6 0 0 1-.22.36 1 1 0 0 1-.343.265 1.2 1.2 0 0 1-.5.094.8.8 0 0 1-.187 0c-.063 0-.137-.008-.22-.016Zm0 0"/><path id="s" d="M5.406-1.969q-.002.626-.343 1.094-.345.458-.907.703-.562.251-1.218.25-.721 0-1.266-.281a2.2 2.2 0 0 1-.86-.75A1.8 1.8 0 0 1 .5-2q-.001-.45.203-.812.218-.376.547-.61.329-.247.656-.36a3.5 3.5 0 0 1-.578-.343 1.7 1.7 0 0 1-.422-.5 1.36 1.36 0 0 1-.156-.656q0-.436.188-.766.198-.328.515-.562.327-.234.719-.344.388-.124.781-.125.388.001.781.125.404.11.72.344.327.223.515.562.201.33.203.766-.001.346-.172.64-.158.3-.422.516c-.18.137-.375.25-.594.344q.389.128.72.39.327.269.515.625.187.364.187.797m-.687-.047q-.002-.356-.157-.625a1.26 1.26 0 0 0-.406-.468 2 2 0 0 0-.578-.282 2 2 0 0 0-.64-.109q-.424 0-.829.188a1.7 1.7 0 0 0-.656.515q-.251.329-.25.797 0 .345.14.625c.102.18.243.328.423.453.175.125.367.227.578.297q.31.094.625.094.434.002.828-.172.404-.186.656-.531.265-.341.266-.782M1.422-5.25q0 .392.234.672c.157.18.352.312.594.406q.358.14.703.14.358 0 .703-.14a1.6 1.6 0 0 0 .594-.422q.234-.28.234-.672c0-.25-.074-.46-.218-.64a1.26 1.26 0 0 0-.578-.407q-.346-.14-.75-.14-.377 0-.735.14-.345.141-.562.422a.97.97 0 0 0-.22.641m0 0"/><path id="v" d="M4.047-.625V0H.672v-.625h1.406v-4.266a1.1 1.1 0 0 1-.265.266 2.9 2.9 0 0 1-.922.453 1.3 1.3 0 0 1-.438.078v-.656c.156 0 .32-.04.5-.125a3.4 3.4 0 0 0 .516-.297q.246-.171.422-.312.17-.155.187-.203h.703v5.062Zm0 0"/><path id="w" d="M5.547-2.922q0 .878-.328 1.563-.317.69-.89 1.078-.566.375-1.282.375-.72 0-1.281-.375A2.65 2.65 0 0 1 .875-1.36Q.547-2.044.547-2.922q0-.873.328-1.547.329-.685.89-1.078.562-.405 1.282-.406c.476 0 .906.137 1.281.406q.575.393.89 1.078.33.675.329 1.547m-.688 0q0-.703-.234-1.234Q4.404-4.702 4-5a1.53 1.53 0 0 0-.953-.312q-.533 0-.953.312-.41.299-.64.844-.235.531-.235 1.234 0 .704.234 1.25.232.534.64.844.422.299.954.297.544 0 .953-.297.404-.31.625-.844.234-.546.234-1.25m0 0"/><clipPath id="x"><path d="M604 1014h111v91.75H604Zm0 0"/></clipPath><clipPath id="y"><path d="M0 207h737.406v12H0Zm0 0"/></clipPath><clipPath id="z"><path d="M0 433h737.406v13H0Zm0 0"/></clipPath><clipPath id="A"><path d="M0 660h737.406v12H0Zm0 0"/></clipPath><clipPath id="B"><path d="M0 887h737.406v12H0Zm0 0"/></clipPath><clipPath id="C"><path d="M99 0h1v1105.75h-1Zm0 0"/></clipPath><clipPath id="D"><path d="M311 0h2v1105.75h-2Zm0 0"/></clipPath><clipPath id="E"><path d="M538 0h1v1105.75h-1Zm0 0"/></clipPath></defs><path fill="#fff" d="M0 1105.766V0h737.418v1105.766Zm0 0"/><use xlink:href="#a" x="44.437" y="103.549"/><path fill="none" stroke="red" stroke-miterlimit="10" stroke-width=".399" d="M382.883 14.21v21.688m0 20.41v21.684m42.52-63.781v21.687m0 20.41v21.684m42.519-63.781v21.687m0 20.41v21.684m-85.04-56.691h7.087m0 0h7.086l7.086 28.344m0 0 7.09 28.347h7.085m0 0h7.086m0-56.691h7.086m0 0h7.086l7.086 28.344m0 0 7.09 28.347h7.086m0 0h7.086m0-56.691h7.086m0 0h7.086v35.433m0 0v35.43h-49.606m0 0h-49.605v-7.086m0 0v-7.086"/><path stroke="#000" stroke-miterlimit="10" stroke-width=".399" d="M384.242 14.21a1.36 1.36 0 1 0-2.72.003 1.36 1.36 0 0 0 2.72-.002Zm0 0"/><use xlink:href="#b" x="379.509" y="10.693"/><path fill="none" stroke="red" stroke-linejoin="bevel" stroke-miterlimit="10" stroke-width=".797" d="M382.723 35.5c2.816 0 5.101 1.406 5.101 3.14s-2.285 3.141-5.101 3.141c-1.41 0-2.551-.57-2.551-1.277 0-.703 1.14-1.274 2.55-1.274 2.817 0 5.102 1.407 5.102 3.141s-2.285 3.14-5.101 3.14c-1.41 0-2.551-.57-2.551-1.273 0-.707 1.14-1.277 2.55-1.277 2.817 0 5.102 1.406 5.102 3.14s-2.285 3.141-5.101 3.141c-1.41 0-2.551-.57-2.551-1.273 0-.707 1.14-1.278 2.55-1.278 2.817 0 5.102 1.407 5.102 3.141 0 1.738-2.285 3.145-5.101 3.145-1.41 0-2.551-.575-2.551-1.278s1.14-1.277 2.55-1.277c2.817 0 5.102 1.406 5.102 3.144 0 1.735-2.285 3.141-5.101 3.141"/><path stroke="#000" stroke-miterlimit="10" stroke-width=".399" d="M426.762 14.21a1.36 1.36 0 1 0-2.721.003 1.36 1.36 0 0 0 2.72-.002Zm0 0"/><use xlink:href="#c" x="422.078" y="10.693"/><path fill="none" stroke="red" stroke-linejoin="bevel" stroke-miterlimit="10" stroke-width=".797" d="M425.242 35.5c2.82 0 5.102 1.406 5.102 3.14s-2.281 3.141-5.102 3.141c-1.41 0-2.55-.57-2.55-1.277 0-.703 1.14-1.274 2.55-1.274 2.82 0 5.102 1.407 5.102 3.141s-2.281 3.14-5.102 3.14c-1.41 0-2.55-.57-2.55-1.273 0-.707 1.14-1.277 2.55-1.277 2.82 0 5.102 1.406 5.102 3.14s-2.281 3.141-5.102 3.141c-1.41 0-2.55-.57-2.55-1.273 0-.707 1.14-1.278 2.55-1.278 2.82 0 5.102 1.407 5.102 3.141 0 1.738-2.281 3.145-5.102 3.145-1.41 0-2.55-.575-2.55-1.278s1.14-1.277 2.55-1.277c2.82 0 5.102 1.406 5.102 3.144 0 1.735-2.281 3.141-5.102 3.141"/><path stroke="#000" stroke-miterlimit="10" stroke-width=".399" d="M469.281 14.21a1.36 1.36 0 1 0-2.72.003 1.36 1.36 0 0 0 2.72-.002Zm0 0"/><use xlink:href="#d" x="464.498" y="10.633"/><path fill="none" stroke="red" stroke-linejoin="bevel" stroke-miterlimit="10" stroke-width=".797" d="M467.762 35.5c2.82 0 5.101 1.406 5.101 3.14s-2.281 3.141-5.101 3.141c-1.407 0-2.551-.57-2.551-1.277 0-.703 1.144-1.274 2.55-1.274 2.821 0 5.102 1.407 5.102 3.141s-2.281 3.14-5.101 3.14c-1.407 0-2.551-.57-2.551-1.273 0-.707 1.144-1.277 2.55-1.277 2.821 0 5.102 1.406 5.102 3.14s-2.281 3.141-5.101 3.141c-1.407 0-2.551-.57-2.551-1.273 0-.707 1.144-1.278 2.55-1.278 2.821 0 5.102 1.407 5.102 3.141 0 1.738-2.281 3.145-5.101 3.145-1.407 0-2.551-.575-2.551-1.278s1.144-1.277 2.55-1.277c2.821 0 5.102 1.406 5.102 3.144 0 1.735-2.281 3.141-5.101 3.141"/><path fill="red" stroke="red" stroke-miterlimit="10" stroke-width=".399" d="M390.852 30.89a1.36 1.36 0 1 0-2.721.003 1.36 1.36 0 0 0 2.72-.002Zm42.519 0a1.36 1.36 0 1 0-2.72.003 1.36 1.36 0 0 0 2.72-.002Zm42.519 0a1.36 1.36 0 1 0-2.72.003 1.36 1.36 0 0 0 2.72-.002Zm0 0"/><path fill="none" stroke="red" stroke-miterlimit="10" stroke-width=".399" d="M382.883 113.426v21.687m0 20.407v21.687m42.52-63.781v21.687m0 20.407v21.687m42.519-63.781v21.687m0 20.407v21.687m-85.04 0h7.087m0 0h7.086l7.086-28.348m0 0 7.09-28.347h7.085m0 0h7.086m0 56.695h7.086m0 0h7.086l7.086-28.348m0 0 7.09-28.347h7.086m0 0h7.086m0 56.695v7.086m0 0v7.086h-49.606m0 0h-49.609v-35.434m0 0v-35.433h7.09m0 0h7.086"/><path stroke="#000" stroke-miterlimit="10" stroke-width=".399" d="M384.242 113.426a1.36 1.36 0 1 0-2.72.002 1.36 1.36 0 0 0 2.72-.002Zm0 0"/><use xlink:href="#e" x="380.161" y="109.806"/><path fill="none" stroke="red" stroke-linejoin="bevel" stroke-miterlimit="10" stroke-width=".797" d="M382.723 134.71c2.816 0 5.101 1.411 5.101 3.145 0 1.735-2.285 3.141-5.101 3.141-1.41 0-2.551-.57-2.551-1.277 0-.703 1.14-1.274 2.55-1.274 2.817 0 5.102 1.407 5.102 3.14 0 1.735-2.285 3.142-5.101 3.142-1.41 0-2.551-.57-2.551-1.278 0-.703 1.14-1.273 2.55-1.273 2.817 0 5.102 1.406 5.102 3.14s-2.285 3.141-5.101 3.141c-1.41 0-2.551-.57-2.551-1.273 0-.707 1.14-1.278 2.55-1.278 2.817 0 5.102 1.406 5.102 3.14s-2.285 3.142-5.101 3.142c-1.41 0-2.551-.57-2.551-1.274 0-.707 1.14-1.277 2.55-1.277 2.817 0 5.102 1.406 5.102 3.14s-2.285 3.141-5.101 3.141"/><path stroke="#000" stroke-miterlimit="10" stroke-width=".399" d="M426.762 113.426a1.36 1.36 0 0 0-2.719 0 1.36 1.36 0 0 0 2.719 0Zm0 0"/><use xlink:href="#f" x="422.322" y="109.806"/><path fill="none" stroke="red" stroke-linejoin="bevel" stroke-miterlimit="10" stroke-width=".797" d="M425.242 134.71c2.82 0 5.102 1.411 5.102 3.145 0 1.735-2.281 3.141-5.102 3.141-1.41 0-2.55-.57-2.55-1.277 0-.703 1.14-1.274 2.55-1.274 2.82 0 5.102 1.407 5.102 3.14 0 1.735-2.281 3.142-5.102 3.142-1.41 0-2.55-.57-2.55-1.278 0-.703 1.14-1.273 2.55-1.273 2.82 0 5.102 1.406 5.102 3.14s-2.281 3.141-5.102 3.141c-1.41 0-2.55-.57-2.55-1.273 0-.707 1.14-1.278 2.55-1.278 2.82 0 5.102 1.406 5.102 3.14s-2.281 3.142-5.102 3.142c-1.41 0-2.55-.57-2.55-1.274 0-.707 1.14-1.277 2.55-1.277 2.82 0 5.102 1.406 5.102 3.14s-2.281 3.141-5.102 3.141"/><path stroke="#000" stroke-miterlimit="10" stroke-width=".399" d="M469.281 113.426a1.36 1.36 0 0 0-2.719 0 1.36 1.36 0 0 0 2.72 0Zm0 0"/><use xlink:href="#g" x="465.181" y="109.806"/><path fill="none" stroke="red" stroke-linejoin="bevel" stroke-miterlimit="10" stroke-width=".797" d="M467.762 134.71c2.82 0 5.101 1.411 5.101 3.145 0 1.735-2.281 3.141-5.101 3.141-1.407 0-2.551-.57-2.551-1.277 0-.703 1.144-1.274 2.55-1.274 2.821 0 5.102 1.407 5.102 3.14 0 1.735-2.281 3.142-5.101 3.142-1.407 0-2.551-.57-2.551-1.278 0-.703 1.144-1.273 2.55-1.273 2.821 0 5.102 1.406 5.102 3.14s-2.281 3.141-5.101 3.141c-1.407 0-2.551-.57-2.551-1.273 0-.707 1.144-1.278 2.55-1.278 2.821 0 5.102 1.406 5.102 3.14s-2.281 3.142-5.101 3.142c-1.407 0-2.551-.57-2.551-1.274 0-.707 1.144-1.277 2.55-1.277 2.821 0 5.102 1.406 5.102 3.14s-2.281 3.141-5.101 3.141"/><path fill="red" stroke="red" stroke-miterlimit="10" stroke-width=".399" d="M390.852 130.105a1.36 1.36 0 1 0-2.721.002 1.36 1.36 0 0 0 2.72-.002Zm42.519 0a1.36 1.36 0 1 0-2.72.002 1.36 1.36 0 0 0 2.72-.002Zm42.519 0a1.36 1.36 0 0 0-2.718 0 1.36 1.36 0 0 0 2.719 0Zm0 0"/><g fill="red"><use xlink:href="#h" x="343.838" y="102.918"/><use xlink:href="#i" x="350.961" y="102.918"/></g><use xlink:href="#j" x="357.158" y="102.918"/><path fill="none" stroke="red" stroke-miterlimit="10" stroke-width=".399" d="M609.656 14.21v21.688m0 20.41v21.684m42.52-63.781v21.687m0 20.41v21.684m42.52-63.781v21.687m0 20.41v21.684m-85.04-56.691h7.086m0 0h7.086l7.09 28.344m0 0 7.086 28.347h7.086m0 0h7.086m0-56.691h7.086m0 0h7.09l7.086 28.344m0 0 7.085 28.347h7.086m0 0h7.086m0-56.691h7.09m0 0h7.086v35.433m0 0v35.43h-49.61m0 0h-49.605v-7.086m0 0v-7.086"/><path stroke="#000" stroke-miterlimit="10" stroke-width=".399" d="M611.016 14.21a1.36 1.36 0 1 0-2.721.003 1.36 1.36 0 0 0 2.72-.002Zm0 0"/><use xlink:href="#b" x="606.28" y="10.693"/><path fill="none" stroke="red" stroke-linejoin="bevel" stroke-miterlimit="10" stroke-width=".797" d="M609.496 35.5c2.82 0 5.102 1.406 5.102 3.14s-2.282 3.141-5.102 3.141c-1.41 0-2.55-.57-2.55-1.277 0-.703 1.14-1.274 2.55-1.274 2.82 0 5.102 1.407 5.102 3.141s-2.282 3.14-5.102 3.14c-1.41 0-2.55-.57-2.55-1.273 0-.707 1.14-1.277 2.55-1.277 2.82 0 5.102 1.406 5.102 3.14s-2.282 3.141-5.102 3.141c-1.41 0-2.55-.57-2.55-1.273 0-.707 1.14-1.278 2.55-1.278 2.82 0 5.102 1.407 5.102 3.141 0 1.738-2.282 3.145-5.102 3.145-1.41 0-2.55-.575-2.55-1.278s1.14-1.277 2.55-1.277c2.82 0 5.102 1.406 5.102 3.144 0 1.735-2.282 3.141-5.102 3.141"/><path stroke="#000" stroke-miterlimit="10" stroke-width=".399" d="M653.535 14.21Zm0 0"/><use xlink:href="#c" x="648.85" y="10.693"/><path fill="none" stroke="red" stroke-linejoin="bevel" stroke-miterlimit="10" stroke-width=".797" d="M652.016 35.5c2.82 0 5.105 1.406 5.105 3.14s-2.285 3.141-5.105 3.141c-1.407 0-2.551-.57-2.551-1.277 0-.703 1.144-1.274 2.55-1.274 2.82 0 5.106 1.407 5.106 3.141s-2.285 3.14-5.105 3.14c-1.407 0-2.551-.57-2.551-1.273 0-.707 1.144-1.277 2.55-1.277 2.82 0 5.106 1.406 5.106 3.14s-2.285 3.141-5.105 3.141c-1.407 0-2.551-.57-2.551-1.273 0-.707 1.144-1.278 2.55-1.278 2.82 0 5.106 1.407 5.106 3.141 0 1.738-2.285 3.145-5.105 3.145-1.407 0-2.551-.575-2.551-1.278s1.144-1.277 2.55-1.277c2.82 0 5.106 1.406 5.106 3.144 0 1.735-2.285 3.141-5.105 3.141"/><path stroke="#000" stroke-miterlimit="10" stroke-width=".399" d="M696.059 14.21a1.361 1.361 0 1 0-2.723.005 1.361 1.361 0 0 0 2.723-.004Zm0 0"/><use xlink:href="#d" x="691.27" y="10.633"/><path fill="none" stroke="red" stroke-linejoin="bevel" stroke-miterlimit="10" stroke-width=".797" d="M694.54 35.5c2.815 0 5.1 1.406 5.1 3.14s-2.285 3.141-5.1 3.141c-1.411 0-2.556-.57-2.556-1.277 0-.703 1.145-1.274 2.555-1.274 2.816 0 5.102 1.407 5.102 3.141s-2.286 3.14-5.102 3.14c-1.41 0-2.555-.57-2.555-1.273 0-.707 1.145-1.277 2.555-1.277 2.816 0 5.102 1.406 5.102 3.14s-2.286 3.141-5.102 3.141c-1.41 0-2.555-.57-2.555-1.273 0-.707 1.145-1.278 2.555-1.278 2.816 0 5.102 1.407 5.102 3.141 0 1.738-2.286 3.145-5.102 3.145-1.41 0-2.555-.575-2.555-1.278s1.145-1.277 2.555-1.277c2.816 0 5.102 1.406 5.102 3.144 0 1.735-2.286 3.141-5.102 3.141"/><path fill="red" stroke="red" stroke-miterlimit="10" stroke-width=".399" d="M617.625 30.89a1.36 1.36 0 1 0-2.72.003 1.36 1.36 0 0 0 2.72-.002Zm42.52 0a1.36 1.36 0 1 0-2.721.003 1.36 1.36 0 0 0 2.72-.002Zm42.523 0a1.361 1.361 0 1 0-2.722.004 1.361 1.361 0 0 0 2.722-.003Zm0 0"/><path fill="none" stroke="#cad40e" stroke-miterlimit="10" stroke-width=".399" d="M609.656 113.426v3.543m0 0v7.511m0 20.41v3.97h-7.086m0 0h-7.086v24.804m0 0v24.8h49.606m0 0h49.605v-3.542m0 0v-11.055m0-20.41v-7.512"/><path stroke="#000" stroke-miterlimit="10" stroke-width=".399" d="M611.016 113.426a1.36 1.36 0 0 0-2.72 0 1.36 1.36 0 0 0 2.72 0Zm0 0"/><use xlink:href="#e" x="606.933" y="109.806"/><path fill="none" stroke="#cad40e" stroke-linejoin="bevel" stroke-miterlimit="10" stroke-width=".797" d="M609.496 124.082c2.82 0 5.102 1.406 5.102 3.14s-2.282 3.141-5.102 3.141c-1.41 0-2.55-.57-2.55-1.273s1.14-1.278 2.55-1.278c2.82 0 5.102 1.407 5.102 3.141 0 1.738-2.282 3.145-5.102 3.145-1.41 0-2.55-.575-2.55-1.278s1.14-1.273 2.55-1.273c2.82 0 5.102 1.406 5.102 3.14s-2.282 3.141-5.102 3.141c-1.41 0-2.55-.57-2.55-1.277 0-.703 1.14-1.274 2.55-1.274 2.82 0 5.102 1.407 5.102 3.141s-2.282 3.14-5.102 3.14c-1.41 0-2.55-.57-2.55-1.277 0-.703 1.14-1.273 2.55-1.273 2.82 0 5.102 1.406 5.102 3.14s-2.282 3.141-5.102 3.141m85.044 38.977c2.815 0 5.1-1.407 5.1-3.141s-2.285-3.14-5.1-3.14c-1.411 0-2.556.57-2.556 1.277 0 .703 1.145 1.273 2.555 1.273 2.816 0 5.102-1.406 5.102-3.14s-2.286-3.141-5.102-3.141c-1.41 0-2.555.57-2.555 1.273 0 .707 1.145 1.278 2.555 1.278 2.816 0 5.102-1.407 5.102-3.14 0-1.735-2.286-3.142-5.102-3.142-1.41 0-2.555.57-2.555 1.274 0 .707 1.145 1.277 2.555 1.277 2.816 0 5.102-1.406 5.102-3.14 0-1.739-2.286-3.145-5.102-3.145-1.41 0-2.555.574-2.555 1.277 0 .704 1.145 1.278 2.555 1.278 2.816 0 5.102-1.406 5.102-3.145 0-1.734-2.286-3.14-5.102-3.14"/><path fill="none" stroke="#cad40e" stroke-miterlimit="10" stroke-width=".399" d="M652.176 113.426v3.543m0 0v7.511m0 20.41v3.97h-7.086m0 0h-7.086l-7.086 21.261m0 0-7.09 21.258h-7.086m0 0h-7.086v-7.512m0-20.41v-7.512"/><path stroke="#000" stroke-miterlimit="10" stroke-width=".399" d="M653.535 113.426a1.36 1.36 0 1 0-2.717.002 1.36 1.36 0 0 0 2.717-.002Zm0 0"/><use xlink:href="#f" x="649.094" y="109.806"/><path fill="none" stroke="#cad40e" stroke-linejoin="bevel" stroke-miterlimit="10" stroke-width=".797" d="M652.016 124.082c2.82 0 5.105 1.406 5.105 3.14s-2.285 3.141-5.105 3.141c-1.407 0-2.551-.57-2.551-1.273s1.144-1.278 2.55-1.278c2.82 0 5.106 1.407 5.106 3.141 0 1.738-2.285 3.145-5.105 3.145-1.407 0-2.551-.575-2.551-1.278s1.144-1.273 2.55-1.273c2.82 0 5.106 1.406 5.106 3.14s-2.285 3.141-5.105 3.141c-1.407 0-2.551-.57-2.551-1.277 0-.703 1.144-1.274 2.55-1.274 2.82 0 5.106 1.407 5.106 3.141s-2.285 3.14-5.105 3.14c-1.407 0-2.551-.57-2.551-1.277 0-.703 1.144-1.273 2.55-1.273 2.82 0 5.106 1.406 5.106 3.14s-2.285 3.141-5.105 3.141m-42.52 38.977c2.82 0 5.102-1.407 5.102-3.141s-2.282-3.14-5.102-3.14c-1.41 0-2.55.57-2.55 1.277 0 .703 1.14 1.273 2.55 1.273 2.82 0 5.102-1.406 5.102-3.14s-2.282-3.141-5.102-3.141c-1.41 0-2.55.57-2.55 1.273 0 .707 1.14 1.278 2.55 1.278 2.82 0 5.102-1.407 5.102-3.14 0-1.735-2.282-3.142-5.102-3.142-1.41 0-2.55.57-2.55 1.274 0 .707 1.14 1.277 2.55 1.277 2.82 0 5.102-1.406 5.102-3.14 0-1.739-2.282-3.145-5.102-3.145-1.41 0-2.55.574-2.55 1.277 0 .704 1.14 1.278 2.55 1.278 2.82 0 5.102-1.406 5.102-3.145 0-1.734-2.282-3.14-5.102-3.14"/><path fill="none" stroke="#cad40e" stroke-miterlimit="10" stroke-width=".399" d="M694.695 113.426v3.543m0 0v7.511m0 20.41v3.97h-7.086m0 0h-7.086l-7.086 21.261m0 0-7.085 21.258h-7.09m0 0h-7.086v-7.512m0-20.41v-7.512"/><path stroke="#000" stroke-miterlimit="10" stroke-width=".399" d="M696.059 113.426a1.361 1.361 0 0 0-2.723 0 1.36 1.36 0 0 0 2.723 0Zm0 0"/><use xlink:href="#g" x="691.952" y="109.806"/><path fill="none" stroke="#cad40e" stroke-linejoin="bevel" stroke-miterlimit="10" stroke-width=".797" d="M694.54 124.082c2.815 0 5.1 1.406 5.1 3.14s-2.285 3.141-5.1 3.141c-1.411 0-2.556-.57-2.556-1.273s1.145-1.278 2.555-1.278c2.816 0 5.102 1.407 5.102 3.141 0 1.738-2.286 3.145-5.102 3.145-1.41 0-2.555-.575-2.555-1.278s1.145-1.273 2.555-1.273c2.816 0 5.102 1.406 5.102 3.14s-2.286 3.141-5.102 3.141c-1.41 0-2.555-.57-2.555-1.277 0-.703 1.145-1.274 2.555-1.274 2.816 0 5.102 1.407 5.102 3.141s-2.286 3.14-5.102 3.14c-1.41 0-2.555-.57-2.555-1.277 0-.703 1.145-1.273 2.555-1.273 2.816 0 5.102 1.406 5.102 3.14s-2.286 3.141-5.102 3.141m-42.523 38.977c2.82 0 5.105-1.407 5.105-3.141s-2.285-3.14-5.105-3.14c-1.407 0-2.551.57-2.551 1.277 0 .703 1.144 1.273 2.55 1.273 2.82 0 5.106-1.406 5.106-3.14s-2.285-3.141-5.105-3.141c-1.407 0-2.551.57-2.551 1.273 0 .707 1.144 1.278 2.55 1.278 2.82 0 5.106-1.407 5.106-3.14 0-1.735-2.285-3.142-5.105-3.142-1.407 0-2.551.57-2.551 1.274 0 .707 1.144 1.277 2.55 1.277 2.82 0 5.106-1.406 5.106-3.14 0-1.739-2.285-3.145-5.105-3.145-1.407 0-2.551.574-2.551 1.277 0 .704 1.144 1.278 2.55 1.278 2.82 0 5.106-1.406 5.106-3.145 0-1.734-2.285-3.14-5.105-3.14"/><path fill="none" stroke="#cad40e" stroke-miterlimit="10" stroke-width=".399" d="M609.656 155.945h42.52m0 0h42.52"/><path fill="#cad40e" stroke="#cad40e" stroke-miterlimit="10" stroke-width=".399" d="M617.625 119.477a1.359 1.359 0 1 0-2.719 0 1.36 1.36 0 0 0 2.719 0Zm0 38.976a1.359 1.359 0 1 0-2.719 0 1.36 1.36 0 0 0 2.719 0Zm42.52-38.976a1.359 1.359 0 1 0-2.72 0 1.36 1.36 0 0 0 2.72 0Zm0 38.976a1.359 1.359 0 1 0-2.72 0 1.36 1.36 0 0 0 2.72 0Zm42.523-38.976c0-.754-.61-1.36-1.363-1.36a1.36 1.36 0 1 0 1.363 1.36Zm0 38.976c0-.754-.61-1.36-1.363-1.36a1.36 1.36 0 1 0 1.363 1.36Zm0 0"/><use xlink:href="#h" x="571.905" y="102.869" fill="red"/><use xlink:href="#k" x="579.028" y="102.869" fill="#cad40e"/><use xlink:href="#j" x="583.929" y="102.869"/><use xlink:href="#l" x="44.078" y="329.338"/><path fill="none" stroke="red" stroke-miterlimit="10" stroke-width=".399" d="M382.883 240.988v21.684m0 20.41v21.684m42.52-63.778v21.684m0 20.41v21.684m42.519-63.778v21.684m0 20.41v21.684m-85.04 0h7.087m0 0h7.086l7.086-28.344m0 0 7.09-28.348h7.085m0 0h7.086m0 56.692h7.086m0 0h7.086l7.086-28.344m0 0 7.09-28.348h7.086m0 0h7.086m0 56.692v7.09m0 0v7.085h-49.606m0 0h-49.609v-35.433m0 0v-35.434h7.09m0 0h7.086"/><path stroke="#000" stroke-miterlimit="10" stroke-width=".399" d="M384.242 240.988a1.361 1.361 0 1 0-2.722-.004 1.361 1.361 0 0 0 2.722.004Zm0 0"/><use xlink:href="#b" x="379.509" y="237.464"/><path fill="none" stroke="red" stroke-linejoin="bevel" stroke-miterlimit="10" stroke-width=".797" d="M382.723 262.273c2.816 0 5.101 1.407 5.101 3.141s-2.285 3.14-5.101 3.14c-1.41 0-2.551-.57-2.551-1.273 0-.707 1.14-1.277 2.55-1.277 2.817 0 5.102 1.406 5.102 3.14s-2.285 3.141-5.101 3.141c-1.41 0-2.551-.57-2.551-1.273s1.14-1.278 2.55-1.278c2.817 0 5.102 1.407 5.102 3.141 0 1.738-2.285 3.145-5.101 3.145-1.41 0-2.551-.575-2.551-1.278s1.14-1.273 2.55-1.273c2.817 0 5.102 1.406 5.102 3.14s-2.285 3.141-5.101 3.141c-1.41 0-2.551-.57-2.551-1.277 0-.703 1.14-1.274 2.55-1.274 2.817 0 5.102 1.406 5.102 3.14s-2.285 3.141-5.101 3.141"/><path stroke="#000" stroke-miterlimit="10" stroke-width=".399" d="M426.762 240.988c0-.754-.61-1.363-1.36-1.363a1.361 1.361 0 0 0 0 2.723c.75 0 1.36-.61 1.36-1.36Zm0 0"/><use xlink:href="#c" x="422.078" y="237.464"/><path fill="none" stroke="red" stroke-linejoin="bevel" stroke-miterlimit="10" stroke-width=".797" d="M425.242 262.273c2.82 0 5.102 1.407 5.102 3.141s-2.281 3.14-5.102 3.14c-1.41 0-2.55-.57-2.55-1.273 0-.707 1.14-1.277 2.55-1.277 2.82 0 5.102 1.406 5.102 3.14s-2.281 3.141-5.102 3.141c-1.41 0-2.55-.57-2.55-1.273s1.14-1.278 2.55-1.278c2.82 0 5.102 1.407 5.102 3.141 0 1.738-2.281 3.145-5.102 3.145-1.41 0-2.55-.575-2.55-1.278s1.14-1.273 2.55-1.273c2.82 0 5.102 1.406 5.102 3.14s-2.281 3.141-5.102 3.141c-1.41 0-2.55-.57-2.55-1.277 0-.703 1.14-1.274 2.55-1.274 2.82 0 5.102 1.406 5.102 3.14s-2.281 3.141-5.102 3.141"/><path stroke="#000" stroke-miterlimit="10" stroke-width=".399" d="M469.281 240.988c0-.754-.61-1.363-1.36-1.363a1.361 1.361 0 0 0 0 2.723c.75 0 1.36-.61 1.36-1.36Zm0 0"/><use xlink:href="#d" x="464.498" y="237.405"/><path fill="none" stroke="red" stroke-linejoin="bevel" stroke-miterlimit="10" stroke-width=".797" d="M467.762 262.273c2.82 0 5.101 1.407 5.101 3.141s-2.281 3.14-5.101 3.14c-1.407 0-2.551-.57-2.551-1.273 0-.707 1.144-1.277 2.55-1.277 2.821 0 5.102 1.406 5.102 3.14s-2.281 3.141-5.101 3.141c-1.407 0-2.551-.57-2.551-1.273s1.144-1.278 2.55-1.278c2.821 0 5.102 1.407 5.102 3.141 0 1.738-2.281 3.145-5.101 3.145-1.407 0-2.551-.575-2.551-1.278s1.144-1.273 2.55-1.273c2.821 0 5.102 1.406 5.102 3.14s-2.281 3.141-5.101 3.141c-1.407 0-2.551-.57-2.551-1.277 0-.703 1.144-1.274 2.55-1.274 2.821 0 5.102 1.406 5.102 3.14s-2.281 3.141-5.101 3.141"/><path fill="red" stroke="red" stroke-miterlimit="10" stroke-width=".399" d="M390.852 257.668a1.361 1.361 0 1 0-2.723-.004 1.361 1.361 0 0 0 2.723.004Zm42.519 0a1.359 1.359 0 1 0-2.719 0 1.36 1.36 0 0 0 2.719 0Zm42.519 0a1.36 1.36 0 0 0-1.359-1.363 1.361 1.361 0 0 0 0 2.722c.75 0 1.36-.609 1.36-1.359Zm0 0"/><path fill="none" stroke="red" stroke-miterlimit="10" stroke-width=".399" d="M382.883 340.2v21.687m0 20.41v21.683m42.52-63.78v21.687m0 20.41v21.683m42.519-63.78v21.687m0 20.41v21.683m-85.04-56.69h7.087m0 0h7.086l7.086 28.343m0 0 7.09 28.347h7.085m0 0h7.086m0-56.69h7.086m0 0h7.086l7.086 28.343m0 0 7.09 28.347h7.086m0 0h7.086m0-56.69h7.086m0 0h7.086v35.433m0 0v35.433h-49.606m0 0h-49.605v-7.09m0 0v-7.086"/><path stroke="#000" stroke-miterlimit="10" stroke-width=".399" d="M384.242 340.2a1.36 1.36 0 1 0-2.72.001 1.36 1.36 0 0 0 2.72-.002Zm0 0"/><use xlink:href="#e" x="380.161" y="336.577"/><path fill="none" stroke="red" stroke-linejoin="bevel" stroke-miterlimit="10" stroke-width=".797" d="M382.723 361.488c2.816 0 5.101 1.407 5.101 3.14 0 1.735-2.285 3.142-5.101 3.142-1.41 0-2.551-.57-2.551-1.278 0-.703 1.14-1.273 2.55-1.273 2.817 0 5.102 1.406 5.102 3.14s-2.285 3.141-5.101 3.141c-1.41 0-2.551-.57-2.551-1.273 0-.707 1.14-1.278 2.55-1.278 2.817 0 5.102 1.406 5.102 3.14s-2.285 3.141-5.101 3.141c-1.41 0-2.551-.57-2.551-1.273 0-.707 1.14-1.277 2.55-1.277 2.817 0 5.102 1.406 5.102 3.14 0 1.739-2.285 3.145-5.101 3.145-1.41 0-2.551-.574-2.551-1.277 0-.704 1.14-1.278 2.55-1.278 2.817 0 5.102 1.406 5.102 3.145 0 1.734-2.285 3.14-5.101 3.14"/><path stroke="#000" stroke-miterlimit="10" stroke-width=".399" d="M426.762 340.2a1.36 1.36 0 1 0-2.721.001 1.36 1.36 0 0 0 2.72-.002Zm0 0"/><use xlink:href="#f" x="422.322" y="336.577"/><path fill="none" stroke="red" stroke-linejoin="bevel" stroke-miterlimit="10" stroke-width=".797" d="M425.242 361.488c2.82 0 5.102 1.407 5.102 3.14 0 1.735-2.281 3.142-5.102 3.142-1.41 0-2.55-.57-2.55-1.278 0-.703 1.14-1.273 2.55-1.273 2.82 0 5.102 1.406 5.102 3.14s-2.281 3.141-5.102 3.141c-1.41 0-2.55-.57-2.55-1.273 0-.707 1.14-1.278 2.55-1.278 2.82 0 5.102 1.406 5.102 3.14s-2.281 3.141-5.102 3.141c-1.41 0-2.55-.57-2.55-1.273 0-.707 1.14-1.277 2.55-1.277 2.82 0 5.102 1.406 5.102 3.14 0 1.739-2.281 3.145-5.102 3.145-1.41 0-2.55-.574-2.55-1.277 0-.704 1.14-1.278 2.55-1.278 2.82 0 5.102 1.406 5.102 3.145 0 1.734-2.281 3.14-5.102 3.14"/><path stroke="#000" stroke-miterlimit="10" stroke-width=".399" d="M469.281 340.2a1.36 1.36 0 1 0-2.72.001 1.36 1.36 0 0 0 2.72-.002Zm0 0"/><use xlink:href="#g" x="465.181" y="336.577"/><path fill="none" stroke="red" stroke-linejoin="bevel" stroke-miterlimit="10" stroke-width=".797" d="M467.762 361.488c2.82 0 5.101 1.407 5.101 3.14 0 1.735-2.281 3.142-5.101 3.142-1.407 0-2.551-.57-2.551-1.278 0-.703 1.144-1.273 2.55-1.273 2.821 0 5.102 1.406 5.102 3.14s-2.281 3.141-5.101 3.141c-1.407 0-2.551-.57-2.551-1.273 0-.707 1.144-1.278 2.55-1.278 2.821 0 5.102 1.406 5.102 3.14s-2.281 3.141-5.101 3.141c-1.407 0-2.551-.57-2.551-1.273 0-.707 1.144-1.277 2.55-1.277 2.821 0 5.102 1.406 5.102 3.14 0 1.739-2.281 3.145-5.101 3.145-1.407 0-2.551-.574-2.551-1.277 0-.704 1.144-1.278 2.55-1.278 2.821 0 5.102 1.406 5.102 3.145 0 1.734-2.281 3.14-5.101 3.14"/><path fill="red" stroke="red" stroke-miterlimit="10" stroke-width=".399" d="M390.852 387.3a1.36 1.36 0 1 0-2.721.003 1.36 1.36 0 0 0 2.72-.002Zm42.519 0a1.36 1.36 0 1 0-2.72.003 1.36 1.36 0 0 0 2.72-.002Zm42.519 0a1.36 1.36 0 0 0-2.718 0 1.36 1.36 0 0 0 2.719 0Zm0 0"/><g fill="red"><use xlink:href="#h" x="343.589" y="329.107"/><use xlink:href="#i" x="350.712" y="329.107"/></g><use xlink:href="#m" x="356.909" y="329.107"/><path fill="none" stroke="red" stroke-miterlimit="10" stroke-width=".399" d="M609.656 240.988v21.684m0 20.41v21.684m42.52-63.778v21.684m0 20.41v21.684m42.52-63.778v21.684m0 20.41v21.684m-85.04 0h7.086m0 0h7.086l7.09-28.344m0 0 7.086-28.348h7.086m0 0h7.086m0 56.692h7.086m0 0h7.09l7.086-28.344m0 0 7.085-28.348h7.086m0 0h7.086m0 56.692v7.09m0 0v7.085H645.09m0 0h-49.606v-35.433m0 0v-35.434h7.086m0 0h7.086"/><path stroke="#000" stroke-miterlimit="10" stroke-width=".399" d="M611.016 240.988c0-.754-.61-1.363-1.36-1.363a1.361 1.361 0 0 0 0 2.723c.75 0 1.36-.61 1.36-1.36Zm0 0"/><use xlink:href="#b" x="606.28" y="237.464"/><path fill="none" stroke="red" stroke-linejoin="bevel" stroke-miterlimit="10" stroke-width=".797" d="M609.496 262.273c2.82 0 5.102 1.407 5.102 3.141s-2.282 3.14-5.102 3.14c-1.41 0-2.55-.57-2.55-1.273 0-.707 1.14-1.277 2.55-1.277 2.82 0 5.102 1.406 5.102 3.14s-2.282 3.141-5.102 3.141c-1.41 0-2.55-.57-2.55-1.273s1.14-1.278 2.55-1.278c2.82 0 5.102 1.407 5.102 3.141 0 1.738-2.282 3.145-5.102 3.145-1.41 0-2.55-.575-2.55-1.278s1.14-1.273 2.55-1.273c2.82 0 5.102 1.406 5.102 3.14s-2.282 3.141-5.102 3.141c-1.41 0-2.55-.57-2.55-1.277 0-.703 1.14-1.274 2.55-1.274 2.82 0 5.102 1.406 5.102 3.14s-2.282 3.141-5.102 3.141"/><path stroke="#000" stroke-miterlimit="10" stroke-width=".399" d="M653.535 240.988a1.359 1.359 0 1 0-2.719 0 1.36 1.36 0 0 0 2.72 0Zm0 0"/><use xlink:href="#c" x="648.85" y="237.464"/><path fill="none" stroke="red" stroke-linejoin="bevel" stroke-miterlimit="10" stroke-width=".797" d="M652.016 262.273c2.82 0 5.105 1.407 5.105 3.141s-2.285 3.14-5.105 3.14c-1.407 0-2.551-.57-2.551-1.273 0-.707 1.144-1.277 2.55-1.277 2.82 0 5.106 1.406 5.106 3.14s-2.285 3.141-5.105 3.141c-1.407 0-2.551-.57-2.551-1.273s1.144-1.278 2.55-1.278c2.82 0 5.106 1.407 5.106 3.141 0 1.738-2.285 3.145-5.105 3.145-1.407 0-2.551-.575-2.551-1.278s1.144-1.273 2.55-1.273c2.82 0 5.106 1.406 5.106 3.14s-2.285 3.141-5.105 3.141c-1.407 0-2.551-.57-2.551-1.277 0-.703 1.144-1.274 2.55-1.274 2.82 0 5.106 1.406 5.106 3.14s-2.285 3.141-5.105 3.141"/><path stroke="#000" stroke-miterlimit="10" stroke-width=".399" d="M696.059 240.988a1.362 1.362 0 1 0-2.724-.002 1.362 1.362 0 0 0 2.724.002Zm0 0"/><use xlink:href="#d" x="691.27" y="237.405"/><path fill="none" stroke="red" stroke-linejoin="bevel" stroke-miterlimit="10" stroke-width=".797" d="M694.54 262.273c2.815 0 5.1 1.407 5.1 3.141s-2.285 3.14-5.1 3.14c-1.411 0-2.556-.57-2.556-1.273 0-.707 1.145-1.277 2.555-1.277 2.816 0 5.102 1.406 5.102 3.14s-2.286 3.141-5.102 3.141c-1.41 0-2.555-.57-2.555-1.273s1.145-1.278 2.555-1.278c2.816 0 5.102 1.407 5.102 3.141 0 1.738-2.286 3.145-5.102 3.145-1.41 0-2.555-.575-2.555-1.278s1.145-1.273 2.555-1.273c2.816 0 5.102 1.406 5.102 3.14s-2.286 3.141-5.102 3.141c-1.41 0-2.555-.57-2.555-1.277 0-.703 1.145-1.274 2.555-1.274 2.816 0 5.102 1.406 5.102 3.14s-2.286 3.141-5.102 3.141"/><path fill="red" stroke="red" stroke-miterlimit="10" stroke-width=".399" d="M617.625 257.668c0-.754-.61-1.363-1.36-1.363a1.361 1.361 0 0 0 0 2.722c.75 0 1.36-.609 1.36-1.359Zm42.52 0c0-.754-.61-1.363-1.36-1.363a1.361 1.361 0 0 0 0 2.722c.75 0 1.36-.609 1.36-1.359Zm42.523 0a1.362 1.362 0 1 0-2.724-.003 1.362 1.362 0 0 0 2.724.003Zm0 0"/><path fill="none" stroke="#cad40e" stroke-miterlimit="10" stroke-width=".399" d="M609.656 340.2v3.542m0 0v7.512m0 20.41v3.969h7.086m0 0h7.086l7.09 21.262m0 0 7.086 21.261h7.086m0 0h7.086v-7.515m0-20.407v-7.511"/><path stroke="#000" stroke-miterlimit="10" stroke-width=".399" d="M611.016 340.2a1.36 1.36 0 1 0-2.721.001 1.36 1.36 0 0 0 2.72-.002Zm0 0"/><use xlink:href="#e" x="606.933" y="336.577"/><path fill="none" stroke="#cad40e" stroke-linejoin="bevel" stroke-miterlimit="10" stroke-width=".797" d="M609.496 350.855c2.82 0 5.102 1.407 5.102 3.145 0 1.734-2.282 3.14-5.102 3.14-1.41 0-2.55-.57-2.55-1.277 0-.703 1.14-1.273 2.55-1.273 2.82 0 5.102 1.406 5.102 3.14s-2.282 3.141-5.102 3.141c-1.41 0-2.55-.57-2.55-1.277 0-.703 1.14-1.274 2.55-1.274 2.82 0 5.102 1.407 5.102 3.14 0 1.735-2.282 3.142-5.102 3.142-1.41 0-2.55-.57-2.55-1.274 0-.707 1.14-1.277 2.55-1.277 2.82 0 5.102 1.406 5.102 3.14s-2.282 3.141-5.102 3.141c-1.41 0-2.55-.57-2.55-1.273 0-.707 1.14-1.278 2.55-1.278 2.82 0 5.102 1.406 5.102 3.14s-2.282 3.142-5.102 3.142m42.52 38.977c2.82 0 5.105-1.407 5.105-3.142s-2.285-3.14-5.105-3.14c-1.407 0-2.551.57-2.551 1.277 0 .703 1.144 1.274 2.55 1.274 2.82 0 5.106-1.407 5.106-3.141s-2.285-3.14-5.105-3.14c-1.407 0-2.551.57-2.551 1.277 0 .703 1.144 1.273 2.55 1.273 2.82 0 5.106-1.406 5.106-3.14s-2.285-3.141-5.105-3.141c-1.407 0-2.551.57-2.551 1.273 0 .707 1.144 1.278 2.55 1.278 2.82 0 5.106-1.407 5.106-3.141s-2.285-3.14-5.105-3.14c-1.407 0-2.551.57-2.551 1.273 0 .707 1.144 1.277 2.55 1.277 2.82 0 5.106-1.406 5.106-3.14s-2.285-3.141-5.105-3.141"/><path fill="none" stroke="#cad40e" stroke-miterlimit="10" stroke-width=".399" d="M652.176 340.2v3.542m0 0v7.512m0 20.41v3.969h7.086m0 0h7.09l7.086 21.262m0 0 7.085 21.261h7.086m0 0h7.086v-7.515m0-20.407v-7.511"/><path stroke="#000" stroke-miterlimit="10" stroke-width=".399" d="M653.535 340.2a1.36 1.36 0 1 0-2.717.002 1.36 1.36 0 0 0 2.717-.003Zm0 0"/><use xlink:href="#f" x="649.094" y="336.577"/><path fill="none" stroke="#cad40e" stroke-linejoin="bevel" stroke-miterlimit="10" stroke-width=".797" d="M652.016 350.855c2.82 0 5.105 1.407 5.105 3.145 0 1.734-2.285 3.14-5.105 3.14-1.407 0-2.551-.57-2.551-1.277 0-.703 1.144-1.273 2.55-1.273 2.82 0 5.106 1.406 5.106 3.14s-2.285 3.141-5.105 3.141c-1.407 0-2.551-.57-2.551-1.277 0-.703 1.144-1.274 2.55-1.274 2.82 0 5.106 1.407 5.106 3.14 0 1.735-2.285 3.142-5.105 3.142-1.407 0-2.551-.57-2.551-1.274 0-.707 1.144-1.277 2.55-1.277 2.82 0 5.106 1.406 5.106 3.14s-2.285 3.141-5.105 3.141c-1.407 0-2.551-.57-2.551-1.273 0-.707 1.144-1.278 2.55-1.278 2.82 0 5.106 1.406 5.106 3.14s-2.285 3.142-5.105 3.142m42.524 38.977c2.815 0 5.1-1.407 5.1-3.142s-2.285-3.14-5.1-3.14c-1.411 0-2.556.57-2.556 1.277 0 .703 1.145 1.274 2.555 1.274 2.816 0 5.102-1.407 5.102-3.141s-2.286-3.14-5.102-3.14c-1.41 0-2.555.57-2.555 1.277 0 .703 1.145 1.273 2.555 1.273 2.816 0 5.102-1.406 5.102-3.14s-2.286-3.141-5.102-3.141c-1.41 0-2.555.57-2.555 1.273 0 .707 1.145 1.278 2.555 1.278 2.816 0 5.102-1.407 5.102-3.141s-2.286-3.14-5.102-3.14c-1.41 0-2.555.57-2.555 1.273 0 .707 1.145 1.277 2.555 1.277 2.816 0 5.102-1.406 5.102-3.14s-2.286-3.141-5.102-3.141"/><path fill="none" stroke="#cad40e" stroke-miterlimit="10" stroke-width=".399" d="M694.695 340.2v3.542m0 0v7.512m0 20.41v3.969h7.09m0 0h7.086v24.805m0 0v24.804h-49.61m0 0h-49.605V421.7m0 0v-11.058m0-20.407v-7.511"/><path stroke="#000" stroke-miterlimit="10" stroke-width=".399" d="M696.059 340.2a1.361 1.361 0 1 0-2.723.003 1.361 1.361 0 0 0 2.723-.004Zm0 0"/><use xlink:href="#g" x="691.952" y="336.577"/><path fill="none" stroke="#cad40e" stroke-linejoin="bevel" stroke-miterlimit="10" stroke-width=".797" d="M694.54 350.855c2.815 0 5.1 1.407 5.1 3.145 0 1.734-2.285 3.14-5.1 3.14-1.411 0-2.556-.57-2.556-1.277 0-.703 1.145-1.273 2.555-1.273 2.816 0 5.102 1.406 5.102 3.14s-2.286 3.141-5.102 3.141c-1.41 0-2.555-.57-2.555-1.277 0-.703 1.145-1.274 2.555-1.274 2.816 0 5.102 1.407 5.102 3.14 0 1.735-2.286 3.142-5.102 3.142-1.41 0-2.555-.57-2.555-1.274 0-.707 1.145-1.277 2.555-1.277 2.816 0 5.102 1.406 5.102 3.14s-2.286 3.141-5.102 3.141c-1.41 0-2.555-.57-2.555-1.273 0-.707 1.145-1.278 2.555-1.278 2.816 0 5.102 1.406 5.102 3.14s-2.286 3.142-5.102 3.142m-85.043 38.977c2.82 0 5.102-1.407 5.102-3.142s-2.282-3.14-5.102-3.14c-1.41 0-2.55.57-2.55 1.277 0 .703 1.14 1.274 2.55 1.274 2.82 0 5.102-1.407 5.102-3.141s-2.282-3.14-5.102-3.14c-1.41 0-2.55.57-2.55 1.277 0 .703 1.14 1.273 2.55 1.273 2.82 0 5.102-1.406 5.102-3.14s-2.282-3.141-5.102-3.141c-1.41 0-2.55.57-2.55 1.273 0 .707 1.14 1.278 2.55 1.278 2.82 0 5.102-1.407 5.102-3.141s-2.282-3.14-5.102-3.14c-1.41 0-2.55.57-2.55 1.273 0 .707 1.14 1.277 2.55 1.277 2.82 0 5.102-1.406 5.102-3.14s-2.282-3.141-5.102-3.141"/><path fill="none" stroke="#cad40e" stroke-miterlimit="10" stroke-width=".399" d="M609.656 382.723h42.52m0 0h42.52"/><path fill="#cad40e" stroke="#cad40e" stroke-miterlimit="10" stroke-width=".399" d="M617.625 376.672a1.36 1.36 0 0 0-2.719 0 1.36 1.36 0 0 0 2.719 0Zm0 38.976a1.36 1.36 0 0 0-2.719 0 1.36 1.36 0 0 0 2.719 0Zm42.52-38.976a1.36 1.36 0 0 0-2.72 0 1.36 1.36 0 0 0 2.72 0Zm0 38.976a1.36 1.36 0 0 0-2.72 0 1.36 1.36 0 0 0 2.72 0Zm42.523-38.976a1.361 1.361 0 0 0-2.723 0 1.36 1.36 0 0 0 2.723 0Zm0 38.976a1.361 1.361 0 0 0-2.723 0 1.36 1.36 0 0 0 2.723 0Zm0 0"/><use xlink:href="#h" x="571.655" y="329.008" fill="red"/><use xlink:href="#k" x="578.779" y="329.008" fill="#cad40e"/><use xlink:href="#m" x="583.68" y="329.008"/><use xlink:href="#n" x="44.236" y="556.196"/><path fill="none" stroke="#234e83" stroke-miterlimit="10" stroke-width=".399" d="M156.105 467.762v21.683m0 20.41v28.774m0 0v7.086m42.524-77.953v21.683m0 20.41v28.774m0 0v7.086m42.52-77.953v21.683m0 20.41v28.774m0 0v7.086m-85.044 0h42.524m0 0h42.52"/><path stroke="#000" stroke-miterlimit="10" stroke-width=".399" d="M157.469 467.762a1.361 1.361 0 0 0-2.723 0 1.36 1.36 0 0 0 2.723 0Zm0 0"/><use xlink:href="#b" x="152.737" y="464.236"/><path fill="none" stroke="#234e83" stroke-linejoin="bevel" stroke-miterlimit="10" stroke-width=".797" d="M155.95 489.047c2.816 0 5.1 1.406 5.1 3.14 0 1.739-2.284 3.145-5.1 3.145-1.41 0-2.552-.574-2.552-1.277s1.141-1.278 2.551-1.278c2.817 0 5.102 1.407 5.102 3.145 0 1.734-2.285 3.14-5.102 3.14-1.41 0-2.55-.57-2.55-1.277 0-.703 1.14-1.273 2.55-1.273 2.817 0 5.102 1.406 5.102 3.14s-2.285 3.141-5.102 3.141c-1.41 0-2.55-.57-2.55-1.277 0-.704 1.14-1.274 2.55-1.274 2.817 0 5.102 1.406 5.102 3.14s-2.285 3.141-5.102 3.141c-1.41 0-2.55-.57-2.55-1.273 0-.707 1.14-1.277 2.55-1.277 2.817 0 5.102 1.406 5.102 3.14s-2.285 3.14-5.102 3.14"/><path stroke="#000" stroke-miterlimit="10" stroke-width=".399" d="M199.988 467.762a1.36 1.36 0 1 0-2.72.002 1.36 1.36 0 0 0 2.72-.002Zm0 0"/><use xlink:href="#c" x="195.307" y="464.236"/><path fill="none" stroke="#234e83" stroke-linejoin="bevel" stroke-miterlimit="10" stroke-width=".797" d="M198.469 489.047c2.816 0 5.101 1.406 5.101 3.14 0 1.739-2.285 3.145-5.101 3.145-1.41 0-2.551-.574-2.551-1.277s1.14-1.278 2.55-1.278c2.817 0 5.102 1.407 5.102 3.145 0 1.734-2.285 3.14-5.101 3.14-1.41 0-2.551-.57-2.551-1.277 0-.703 1.14-1.273 2.55-1.273 2.817 0 5.102 1.406 5.102 3.14s-2.285 3.141-5.101 3.141c-1.41 0-2.551-.57-2.551-1.277 0-.704 1.14-1.274 2.55-1.274 2.817 0 5.102 1.406 5.102 3.14s-2.285 3.141-5.101 3.141c-1.41 0-2.551-.57-2.551-1.273 0-.707 1.14-1.277 2.55-1.277 2.817 0 5.102 1.406 5.102 3.14s-2.285 3.14-5.101 3.14"/><path stroke="#000" stroke-miterlimit="10" stroke-width=".399" d="M242.508 467.762a1.36 1.36 0 1 0-2.72.002 1.36 1.36 0 0 0 2.72-.002Zm0 0"/><use xlink:href="#d" x="237.727" y="464.176"/><path fill="none" stroke="#234e83" stroke-linejoin="bevel" stroke-miterlimit="10" stroke-width=".797" d="M240.988 489.047c2.817 0 5.102 1.406 5.102 3.14 0 1.739-2.285 3.145-5.102 3.145-1.41 0-2.55-.574-2.55-1.277s1.14-1.278 2.55-1.278c2.817 0 5.102 1.407 5.102 3.145 0 1.734-2.285 3.14-5.102 3.14-1.41 0-2.55-.57-2.55-1.277 0-.703 1.14-1.273 2.55-1.273 2.817 0 5.102 1.406 5.102 3.14s-2.285 3.141-5.102 3.141c-1.41 0-2.55-.57-2.55-1.277 0-.704 1.14-1.274 2.55-1.274 2.817 0 5.102 1.406 5.102 3.14s-2.285 3.141-5.102 3.141c-1.41 0-2.55-.57-2.55-1.273 0-.707 1.14-1.277 2.55-1.277 2.817 0 5.102 1.406 5.102 3.14s-2.285 3.14-5.102 3.14"/><path fill="#234e83" stroke="#234e83" stroke-miterlimit="10" stroke-width=".399" d="M164.078 484.441a1.361 1.361 0 0 0-2.723 0 1.36 1.36 0 0 0 2.723 0Zm42.52 0a1.36 1.36 0 1 0-2.721.002 1.36 1.36 0 0 0 2.72-.002Zm42.519 0a1.36 1.36 0 1 0-2.72.002 1.36 1.36 0 0 0 2.72-.002Zm0 0"/><path fill="none" stroke="red" stroke-miterlimit="10" stroke-width=".399" d="M156.105 566.977v21.683m0 20.41v21.684m42.524-63.777v21.683m0 20.41v21.684m42.52-63.777v21.683m0 20.41v21.684m-85.044 0h7.09m0 0h7.086l7.086-28.344m0 0 7.086-28.347h7.086m0 0h7.09m0 56.69h7.086m0 0h7.086l7.086-28.343m0 0 7.086-28.347h7.09m0 0h7.085m0 56.69v7.09m0 0v7.087H191.54m0 0h-49.605v-35.434m0 0v-35.433h7.086m0 0h7.085"/><path stroke="#000" stroke-miterlimit="10" stroke-width=".399" d="M157.469 566.977a1.362 1.362 0 1 0-2.724-.003 1.362 1.362 0 0 0 2.724.003Zm0 0"/><use xlink:href="#e" x="153.39" y="563.349"/><path fill="none" stroke="red" stroke-linejoin="bevel" stroke-miterlimit="10" stroke-width=".797" d="M155.95 588.262c2.816 0 5.1 1.406 5.1 3.14s-2.284 3.141-5.1 3.141c-1.41 0-2.552-.57-2.552-1.273 0-.707 1.141-1.278 2.551-1.278 2.817 0 5.102 1.406 5.102 3.14s-2.285 3.141-5.102 3.141c-1.41 0-2.55-.57-2.55-1.273s1.14-1.277 2.55-1.277c2.817 0 5.102 1.406 5.102 3.14 0 1.739-2.285 3.145-5.102 3.145-1.41 0-2.55-.574-2.55-1.278 0-.703 1.14-1.273 2.55-1.273 2.817 0 5.102 1.406 5.102 3.14s-2.285 3.141-5.102 3.141c-1.41 0-2.55-.57-2.55-1.277 0-.703 1.14-1.274 2.55-1.274 2.817 0 5.102 1.407 5.102 3.141 0 1.735-2.285 3.14-5.102 3.14"/><path stroke="#000" stroke-miterlimit="10" stroke-width=".399" d="M199.988 566.977a1.361 1.361 0 1 0-2.722-.005 1.361 1.361 0 0 0 2.722.005Zm0 0"/><use xlink:href="#f" x="195.551" y="563.349"/><path fill="none" stroke="red" stroke-linejoin="bevel" stroke-miterlimit="10" stroke-width=".797" d="M198.469 588.262c2.816 0 5.101 1.406 5.101 3.14s-2.285 3.141-5.101 3.141c-1.41 0-2.551-.57-2.551-1.273 0-.707 1.14-1.278 2.55-1.278 2.817 0 5.102 1.406 5.102 3.14s-2.285 3.141-5.101 3.141c-1.41 0-2.551-.57-2.551-1.273s1.14-1.277 2.55-1.277c2.817 0 5.102 1.406 5.102 3.14 0 1.739-2.285 3.145-5.101 3.145-1.41 0-2.551-.574-2.551-1.278 0-.703 1.14-1.273 2.55-1.273 2.817 0 5.102 1.406 5.102 3.14s-2.285 3.141-5.101 3.141c-1.41 0-2.551-.57-2.551-1.277 0-.703 1.14-1.274 2.55-1.274 2.817 0 5.102 1.407 5.102 3.141 0 1.735-2.285 3.14-5.101 3.14"/><path stroke="#000" stroke-miterlimit="10" stroke-width=".399" d="M242.508 566.977a1.359 1.359 0 1 0-2.719 0 1.36 1.36 0 0 0 2.719 0Zm0 0"/><use xlink:href="#g" x="238.409" y="563.349"/><path fill="none" stroke="red" stroke-linejoin="bevel" stroke-miterlimit="10" stroke-width=".797" d="M240.988 588.262c2.817 0 5.102 1.406 5.102 3.14s-2.285 3.141-5.102 3.141c-1.41 0-2.55-.57-2.55-1.273 0-.707 1.14-1.278 2.55-1.278 2.817 0 5.102 1.406 5.102 3.14s-2.285 3.141-5.102 3.141c-1.41 0-2.55-.57-2.55-1.273s1.14-1.277 2.55-1.277c2.817 0 5.102 1.406 5.102 3.14 0 1.739-2.285 3.145-5.102 3.145-1.41 0-2.55-.574-2.55-1.278 0-.703 1.14-1.273 2.55-1.273 2.817 0 5.102 1.406 5.102 3.14s-2.285 3.141-5.102 3.141c-1.41 0-2.55-.57-2.55-1.277 0-.703 1.14-1.274 2.55-1.274 2.817 0 5.102 1.407 5.102 3.141 0 1.735-2.285 3.14-5.102 3.14"/><path fill="red" stroke="red" stroke-miterlimit="10" stroke-width=".399" d="M164.078 614.074a1.361 1.361 0 1 0-2.722.004 1.361 1.361 0 0 0 2.722-.004Zm42.52 0a1.36 1.36 0 1 0-2.721.002 1.36 1.36 0 0 0 2.72-.002Zm42.519 0a1.36 1.36 0 1 0-2.72.002 1.36 1.36 0 0 0 2.72-.002Zm0 0"/><use xlink:href="#o" x="117.564" y="555.879" fill="#234e83"/><use xlink:href="#i" x="124.05" y="555.879" fill="red"/><use xlink:href="#p" x="130.247" y="555.879"/><path fill="none" stroke="red" stroke-miterlimit="10" stroke-width=".399" d="M382.883 467.762v21.683m0 20.41v21.688m42.52-63.781v21.683m0 20.41v21.688m42.519-63.781v21.683m0 20.41v21.688m-85.04-56.695h7.087m0 0h7.086l7.086 28.347m0 0 7.09 28.348h7.085m0 0h7.086m0-56.695h7.086m0 0h7.086l7.086 28.347m0 0 7.09 28.348h7.086m0 0h7.086m0-56.695h7.086m0 0h7.086v35.433m0 0v35.434h-49.606m0 0h-49.605v-7.086m0 0v-7.086"/><path stroke="#000" stroke-miterlimit="10" stroke-width=".399" d="M384.242 467.762a1.36 1.36 0 1 0-2.72.002 1.36 1.36 0 0 0 2.72-.002Zm0 0"/><use xlink:href="#b" x="379.509" y="464.236"/><path fill="none" stroke="red" stroke-linejoin="bevel" stroke-miterlimit="10" stroke-width=".797" d="M382.723 489.047c2.816 0 5.101 1.406 5.101 3.14 0 1.739-2.285 3.145-5.101 3.145-1.41 0-2.551-.574-2.551-1.277s1.14-1.278 2.55-1.278c2.817 0 5.102 1.407 5.102 3.145 0 1.734-2.285 3.14-5.101 3.14-1.41 0-2.551-.57-2.551-1.277 0-.703 1.14-1.273 2.55-1.273 2.817 0 5.102 1.406 5.102 3.14s-2.285 3.141-5.101 3.141c-1.41 0-2.551-.57-2.551-1.277 0-.704 1.14-1.274 2.55-1.274 2.817 0 5.102 1.406 5.102 3.14s-2.285 3.141-5.101 3.141c-1.41 0-2.551-.57-2.551-1.273 0-.707 1.14-1.277 2.55-1.277 2.817 0 5.102 1.406 5.102 3.14s-2.285 3.14-5.101 3.14"/><path stroke="#000" stroke-miterlimit="10" stroke-width=".399" d="M426.762 467.762a1.36 1.36 0 0 0-2.719 0 1.36 1.36 0 0 0 2.719 0Zm0 0"/><use xlink:href="#c" x="422.078" y="464.236"/><path fill="none" stroke="red" stroke-linejoin="bevel" stroke-miterlimit="10" stroke-width=".797" d="M425.242 489.047c2.82 0 5.102 1.406 5.102 3.14 0 1.739-2.281 3.145-5.102 3.145-1.41 0-2.55-.574-2.55-1.277s1.14-1.278 2.55-1.278c2.82 0 5.102 1.407 5.102 3.145 0 1.734-2.281 3.14-5.102 3.14-1.41 0-2.55-.57-2.55-1.277 0-.703 1.14-1.273 2.55-1.273 2.82 0 5.102 1.406 5.102 3.14s-2.281 3.141-5.102 3.141c-1.41 0-2.55-.57-2.55-1.277 0-.704 1.14-1.274 2.55-1.274 2.82 0 5.102 1.406 5.102 3.14s-2.281 3.141-5.102 3.141c-1.41 0-2.55-.57-2.55-1.273 0-.707 1.14-1.277 2.55-1.277 2.82 0 5.102 1.406 5.102 3.14s-2.281 3.14-5.102 3.14"/><path stroke="#000" stroke-miterlimit="10" stroke-width=".399" d="M469.281 467.762a1.36 1.36 0 0 0-2.719 0 1.36 1.36 0 0 0 2.72 0Zm0 0"/><use xlink:href="#d" x="464.498" y="464.176"/><path fill="none" stroke="red" stroke-linejoin="bevel" stroke-miterlimit="10" stroke-width=".797" d="M467.762 489.047c2.82 0 5.101 1.406 5.101 3.14 0 1.739-2.281 3.145-5.101 3.145-1.407 0-2.551-.574-2.551-1.277s1.144-1.278 2.55-1.278c2.821 0 5.102 1.407 5.102 3.145 0 1.734-2.281 3.14-5.101 3.14-1.407 0-2.551-.57-2.551-1.277 0-.703 1.144-1.273 2.55-1.273 2.821 0 5.102 1.406 5.102 3.14s-2.281 3.141-5.101 3.141c-1.407 0-2.551-.57-2.551-1.277 0-.704 1.144-1.274 2.55-1.274 2.821 0 5.102 1.406 5.102 3.14s-2.281 3.141-5.101 3.141c-1.407 0-2.551-.57-2.551-1.273 0-.707 1.144-1.277 2.55-1.277 2.821 0 5.102 1.406 5.102 3.14s-2.281 3.14-5.101 3.14"/><path fill="red" stroke="red" stroke-miterlimit="10" stroke-width=".399" d="M390.852 484.441a1.36 1.36 0 1 0-2.721.002 1.36 1.36 0 0 0 2.72-.002Zm42.519 0a1.36 1.36 0 1 0-2.72.002 1.36 1.36 0 0 0 2.72-.002Zm42.519 0a1.36 1.36 0 0 0-2.718 0 1.36 1.36 0 0 0 2.719 0Zm0 0"/><path fill="none" stroke="#234e83" stroke-miterlimit="10" stroke-width=".399" d="M382.883 566.977v21.683m0 20.41v28.774m0 0v7.086m42.52-77.953v21.683m0 20.41v28.774m0 0v7.086m42.519-77.953v21.683m0 20.41v28.774m0 0v7.086m-85.04 0h42.52m0 0h42.52"/><path stroke="#000" stroke-miterlimit="10" stroke-width=".399" d="M384.242 566.977a1.361 1.361 0 1 0-2.722-.005 1.361 1.361 0 0 0 2.722.005Zm0 0"/><use xlink:href="#e" x="380.161" y="563.349"/><path fill="none" stroke="#234e83" stroke-linejoin="bevel" stroke-miterlimit="10" stroke-width=".797" d="M382.723 588.262c2.816 0 5.101 1.406 5.101 3.14s-2.285 3.141-5.101 3.141c-1.41 0-2.551-.57-2.551-1.273 0-.707 1.14-1.278 2.55-1.278 2.817 0 5.102 1.406 5.102 3.14s-2.285 3.141-5.101 3.141c-1.41 0-2.551-.57-2.551-1.273s1.14-1.277 2.55-1.277c2.817 0 5.102 1.406 5.102 3.14 0 1.739-2.285 3.145-5.101 3.145-1.41 0-2.551-.574-2.551-1.278 0-.703 1.14-1.273 2.55-1.273 2.817 0 5.102 1.406 5.102 3.14s-2.285 3.141-5.101 3.141c-1.41 0-2.551-.57-2.551-1.277 0-.703 1.14-1.274 2.55-1.274 2.817 0 5.102 1.407 5.102 3.141 0 1.735-2.285 3.14-5.101 3.14"/><path stroke="#000" stroke-miterlimit="10" stroke-width=".399" d="M426.762 566.977c0-.754-.61-1.364-1.36-1.364a1.361 1.361 0 0 0 0 2.723c.75 0 1.36-.61 1.36-1.36Zm0 0"/><use xlink:href="#f" x="422.322" y="563.349"/><path fill="none" stroke="#234e83" stroke-linejoin="bevel" stroke-miterlimit="10" stroke-width=".797" d="M425.242 588.262c2.82 0 5.102 1.406 5.102 3.14s-2.281 3.141-5.102 3.141c-1.41 0-2.55-.57-2.55-1.273 0-.707 1.14-1.278 2.55-1.278 2.82 0 5.102 1.406 5.102 3.14s-2.281 3.141-5.102 3.141c-1.41 0-2.55-.57-2.55-1.273s1.14-1.277 2.55-1.277c2.82 0 5.102 1.406 5.102 3.14 0 1.739-2.281 3.145-5.102 3.145-1.41 0-2.55-.574-2.55-1.278 0-.703 1.14-1.273 2.55-1.273 2.82 0 5.102 1.406 5.102 3.14s-2.281 3.141-5.102 3.141c-1.41 0-2.55-.57-2.55-1.277 0-.703 1.14-1.274 2.55-1.274 2.82 0 5.102 1.407 5.102 3.141 0 1.735-2.281 3.14-5.102 3.14"/><path stroke="#000" stroke-miterlimit="10" stroke-width=".399" d="M469.281 566.977c0-.754-.61-1.364-1.36-1.364a1.361 1.361 0 0 0 0 2.723c.75 0 1.36-.61 1.36-1.36Zm0 0"/><use xlink:href="#g" x="465.181" y="563.349"/><path fill="none" stroke="#234e83" stroke-linejoin="bevel" stroke-miterlimit="10" stroke-width=".797" d="M467.762 588.262c2.82 0 5.101 1.406 5.101 3.14s-2.281 3.141-5.101 3.141c-1.407 0-2.551-.57-2.551-1.273 0-.707 1.144-1.278 2.55-1.278 2.821 0 5.102 1.406 5.102 3.14s-2.281 3.141-5.101 3.141c-1.407 0-2.551-.57-2.551-1.273s1.144-1.277 2.55-1.277c2.821 0 5.102 1.406 5.102 3.14 0 1.739-2.281 3.145-5.101 3.145-1.407 0-2.551-.574-2.551-1.278 0-.703 1.144-1.273 2.55-1.273 2.821 0 5.102 1.406 5.102 3.14s-2.281 3.141-5.101 3.141c-1.407 0-2.551-.57-2.551-1.277 0-.703 1.144-1.274 2.55-1.274 2.821 0 5.102 1.407 5.102 3.141 0 1.735-2.281 3.14-5.101 3.14"/><path fill="#234e83" stroke="#234e83" stroke-miterlimit="10" stroke-width=".399" d="M390.852 614.074a1.36 1.36 0 1 0-2.721.002 1.36 1.36 0 0 0 2.72-.002Zm42.519 0a1.36 1.36 0 1 0-2.72.002 1.36 1.36 0 0 0 2.72-.002Zm42.519 0a1.36 1.36 0 1 0-2.72.002 1.36 1.36 0 0 0 2.72-.002Zm0 0"/><use xlink:href="#h" x="344.495" y="555.296" fill="red"/><use xlink:href="#q" x="351.619" y="555.296" fill="#234e83"/><use xlink:href="#p" x="357.018" y="555.296"/><path fill="none" stroke="#234e83" stroke-miterlimit="10" stroke-width=".399" d="M609.656 467.762v21.683m0 20.41v28.774m0 0v7.086m42.52-77.953v21.683m0 20.41v28.774m0 0v7.086m42.52-77.953v21.683m0 20.41v28.774m0 0v7.086m-85.04 0h42.52m0 0h42.52"/><path stroke="#000" stroke-miterlimit="10" stroke-width=".399" d="M611.016 467.762a1.36 1.36 0 0 0-2.72 0 1.36 1.36 0 0 0 2.72 0Zm0 0"/><use xlink:href="#b" x="606.28" y="464.236"/><path fill="none" stroke="#234e83" stroke-linejoin="bevel" stroke-miterlimit="10" stroke-width=".797" d="M609.496 489.047c2.82 0 5.102 1.406 5.102 3.14 0 1.739-2.282 3.145-5.102 3.145-1.41 0-2.55-.574-2.55-1.277s1.14-1.278 2.55-1.278c2.82 0 5.102 1.407 5.102 3.145 0 1.734-2.282 3.14-5.102 3.14-1.41 0-2.55-.57-2.55-1.277 0-.703 1.14-1.273 2.55-1.273 2.82 0 5.102 1.406 5.102 3.14s-2.282 3.141-5.102 3.141c-1.41 0-2.55-.57-2.55-1.277 0-.704 1.14-1.274 2.55-1.274 2.82 0 5.102 1.406 5.102 3.14s-2.282 3.141-5.102 3.141c-1.41 0-2.55-.57-2.55-1.273 0-.707 1.14-1.277 2.55-1.277 2.82 0 5.102 1.406 5.102 3.14s-2.282 3.14-5.102 3.14"/><path stroke="#000" stroke-miterlimit="10" stroke-width=".399" d="M653.535 467.762a1.36 1.36 0 1 0-2.717.002 1.36 1.36 0 0 0 2.717-.002Zm0 0"/><use xlink:href="#c" x="648.85" y="464.236"/><path fill="none" stroke="#234e83" stroke-linejoin="bevel" stroke-miterlimit="10" stroke-width=".797" d="M652.016 489.047c2.82 0 5.105 1.406 5.105 3.14 0 1.739-2.285 3.145-5.105 3.145-1.407 0-2.551-.574-2.551-1.277s1.144-1.278 2.55-1.278c2.82 0 5.106 1.407 5.106 3.145 0 1.734-2.285 3.14-5.105 3.14-1.407 0-2.551-.57-2.551-1.277 0-.703 1.144-1.273 2.55-1.273 2.82 0 5.106 1.406 5.106 3.14s-2.285 3.141-5.105 3.141c-1.407 0-2.551-.57-2.551-1.277 0-.704 1.144-1.274 2.55-1.274 2.82 0 5.106 1.406 5.106 3.14s-2.285 3.141-5.105 3.141c-1.407 0-2.551-.57-2.551-1.273 0-.707 1.144-1.277 2.55-1.277 2.82 0 5.106 1.406 5.106 3.14s-2.285 3.14-5.105 3.14"/><path stroke="#000" stroke-miterlimit="10" stroke-width=".399" d="M696.059 467.762a1.361 1.361 0 0 0-2.723 0 1.36 1.36 0 0 0 2.723 0Zm0 0"/><use xlink:href="#d" x="691.27" y="464.176"/><path fill="none" stroke="#234e83" stroke-linejoin="bevel" stroke-miterlimit="10" stroke-width=".797" d="M694.54 489.047c2.815 0 5.1 1.406 5.1 3.14 0 1.739-2.285 3.145-5.1 3.145-1.411 0-2.556-.574-2.556-1.277s1.145-1.278 2.555-1.278c2.816 0 5.102 1.407 5.102 3.145 0 1.734-2.286 3.14-5.102 3.14-1.41 0-2.555-.57-2.555-1.277 0-.703 1.145-1.273 2.555-1.273 2.816 0 5.102 1.406 5.102 3.14s-2.286 3.141-5.102 3.141c-1.41 0-2.555-.57-2.555-1.277 0-.704 1.145-1.274 2.555-1.274 2.816 0 5.102 1.406 5.102 3.14s-2.286 3.141-5.102 3.141c-1.41 0-2.555-.57-2.555-1.273 0-.707 1.145-1.277 2.555-1.277 2.816 0 5.102 1.406 5.102 3.14s-2.286 3.14-5.102 3.14"/><path fill="#234e83" stroke="#234e83" stroke-miterlimit="10" stroke-width=".399" d="M617.625 484.441a1.36 1.36 0 0 0-2.719 0 1.36 1.36 0 0 0 2.719 0Zm42.52 0a1.36 1.36 0 0 0-2.72 0 1.36 1.36 0 0 0 2.72 0Zm42.523 0a1.361 1.361 0 0 0-2.723 0 1.36 1.36 0 0 0 2.723 0Zm0 0"/><path fill="none" stroke="#cad40e" stroke-miterlimit="10" stroke-width=".399" d="M609.656 566.977v3.543m0 0v7.511m0 20.41v3.97h-7.086m0 0h-7.086v24.8m0 0v24.805h49.606m0 0h49.605v-3.543m0 0v-11.055m0-20.41v-7.512"/><path stroke="#000" stroke-miterlimit="10" stroke-width=".399" d="M611.016 566.977c0-.754-.61-1.364-1.36-1.364a1.361 1.361 0 0 0 0 2.723c.75 0 1.36-.61 1.36-1.36Zm0 0"/><use xlink:href="#e" x="606.933" y="563.349"/><path fill="none" stroke="#cad40e" stroke-linejoin="bevel" stroke-miterlimit="10" stroke-width=".797" d="M609.496 577.633c2.82 0 5.102 1.406 5.102 3.14s-2.282 3.141-5.102 3.141c-1.41 0-2.55-.57-2.55-1.277 0-.703 1.14-1.274 2.55-1.274 2.82 0 5.102 1.407 5.102 3.14 0 1.735-2.282 3.142-5.102 3.142-1.41 0-2.55-.57-2.55-1.274 0-.707 1.14-1.277 2.55-1.277 2.82 0 5.102 1.406 5.102 3.14s-2.282 3.141-5.102 3.141c-1.41 0-2.55-.57-2.55-1.273 0-.707 1.14-1.278 2.55-1.278 2.82 0 5.102 1.406 5.102 3.14s-2.282 3.141-5.102 3.141c-1.41 0-2.55-.57-2.55-1.273s1.14-1.277 2.55-1.277c2.82 0 5.102 1.406 5.102 3.144 0 1.735-2.282 3.14-5.102 3.14m85.044 38.977c2.815 0 5.1-1.406 5.1-3.14s-2.285-3.14-5.1-3.14c-1.411 0-2.556.57-2.556 1.273s1.145 1.277 2.555 1.277c2.816 0 5.102-1.406 5.102-3.145 0-1.734-2.286-3.14-5.102-3.14-1.41 0-2.555.574-2.555 1.277s1.145 1.274 2.555 1.274c2.816 0 5.102-1.407 5.102-3.141s-2.286-3.14-5.102-3.14c-1.41 0-2.555.57-2.555 1.277 0 .703 1.145 1.273 2.555 1.273 2.816 0 5.102-1.406 5.102-3.14s-2.286-3.141-5.102-3.141c-1.41 0-2.555.57-2.555 1.277 0 .703 1.145 1.274 2.555 1.274 2.816 0 5.102-1.407 5.102-3.141s-2.286-3.14-5.102-3.14"/><path fill="none" stroke="#cad40e" stroke-miterlimit="10" stroke-width=".399" d="M652.176 566.977v3.543m0 0v7.511m0 20.41v3.97h-7.086m0 0h-7.086l-7.086 21.257m0 0-7.09 21.262h-7.086m0 0h-7.086v-7.512m0-20.41v-7.512"/><path stroke="#000" stroke-miterlimit="10" stroke-width=".399" d="M653.535 566.977a1.359 1.359 0 1 0-2.719 0 1.36 1.36 0 0 0 2.72 0Zm0 0"/><use xlink:href="#f" x="649.094" y="563.349"/><path fill="none" stroke="#cad40e" stroke-linejoin="bevel" stroke-miterlimit="10" stroke-width=".797" d="M652.016 577.633c2.82 0 5.105 1.406 5.105 3.14s-2.285 3.141-5.105 3.141c-1.407 0-2.551-.57-2.551-1.277 0-.703 1.144-1.274 2.55-1.274 2.82 0 5.106 1.407 5.106 3.14 0 1.735-2.285 3.142-5.105 3.142-1.407 0-2.551-.57-2.551-1.274 0-.707 1.144-1.277 2.55-1.277 2.82 0 5.106 1.406 5.106 3.14s-2.285 3.141-5.105 3.141c-1.407 0-2.551-.57-2.551-1.273 0-.707 1.144-1.278 2.55-1.278 2.82 0 5.106 1.406 5.106 3.14s-2.285 3.141-5.105 3.141c-1.407 0-2.551-.57-2.551-1.273s1.144-1.277 2.55-1.277c2.82 0 5.106 1.406 5.106 3.144 0 1.735-2.285 3.14-5.105 3.14m-42.52 38.977c2.82 0 5.102-1.406 5.102-3.14s-2.282-3.14-5.102-3.14c-1.41 0-2.55.57-2.55 1.273s1.14 1.277 2.55 1.277c2.82 0 5.102-1.406 5.102-3.145 0-1.734-2.282-3.14-5.102-3.14-1.41 0-2.55.574-2.55 1.277s1.14 1.274 2.55 1.274c2.82 0 5.102-1.407 5.102-3.141s-2.282-3.14-5.102-3.14c-1.41 0-2.55.57-2.55 1.277 0 .703 1.14 1.273 2.55 1.273 2.82 0 5.102-1.406 5.102-3.14s-2.282-3.141-5.102-3.141c-1.41 0-2.55.57-2.55 1.277 0 .703 1.14 1.274 2.55 1.274 2.82 0 5.102-1.407 5.102-3.141s-2.282-3.14-5.102-3.14"/><path fill="none" stroke="#cad40e" stroke-miterlimit="10" stroke-width=".399" d="M694.695 566.977v3.543m0 0v7.511m0 20.41v3.97h-7.086m0 0h-7.086l-7.086 21.257m0 0-7.085 21.262h-7.09m0 0h-7.086v-7.512m0-20.41v-7.512"/><path stroke="#000" stroke-miterlimit="10" stroke-width=".399" d="M696.059 566.977a1.362 1.362 0 1 0-2.724-.003 1.362 1.362 0 0 0 2.724.003Zm0 0"/><use xlink:href="#g" x="691.952" y="563.349"/><path fill="none" stroke="#cad40e" stroke-linejoin="bevel" stroke-miterlimit="10" stroke-width=".797" d="M694.54 577.633c2.815 0 5.1 1.406 5.1 3.14s-2.285 3.141-5.1 3.141c-1.411 0-2.556-.57-2.556-1.277 0-.703 1.145-1.274 2.555-1.274 2.816 0 5.102 1.407 5.102 3.14 0 1.735-2.286 3.142-5.102 3.142-1.41 0-2.555-.57-2.555-1.274 0-.707 1.145-1.277 2.555-1.277 2.816 0 5.102 1.406 5.102 3.14s-2.286 3.141-5.102 3.141c-1.41 0-2.555-.57-2.555-1.273 0-.707 1.145-1.278 2.555-1.278 2.816 0 5.102 1.406 5.102 3.14s-2.286 3.141-5.102 3.141c-1.41 0-2.555-.57-2.555-1.273s1.145-1.277 2.555-1.277c2.816 0 5.102 1.406 5.102 3.144 0 1.735-2.286 3.14-5.102 3.14m-42.523 38.977c2.82 0 5.105-1.406 5.105-3.14s-2.285-3.14-5.105-3.14c-1.407 0-2.551.57-2.551 1.273s1.144 1.277 2.55 1.277c2.82 0 5.106-1.406 5.106-3.145 0-1.734-2.285-3.14-5.105-3.14-1.407 0-2.551.574-2.551 1.277s1.144 1.274 2.55 1.274c2.82 0 5.106-1.407 5.106-3.141s-2.285-3.14-5.105-3.14c-1.407 0-2.551.57-2.551 1.277 0 .703 1.144 1.273 2.55 1.273 2.82 0 5.106-1.406 5.106-3.14s-2.285-3.141-5.105-3.141c-1.407 0-2.551.57-2.551 1.277 0 .703 1.144 1.274 2.55 1.274 2.82 0 5.106-1.407 5.106-3.141s-2.285-3.14-5.105-3.14"/><path fill="none" stroke="#cad40e" stroke-miterlimit="10" stroke-width=".399" d="M609.656 609.496h42.52m0 0h42.52"/><path fill="#cad40e" stroke="#cad40e" stroke-miterlimit="10" stroke-width=".399" d="M617.625 603.445a1.36 1.36 0 0 0-2.719 0 1.36 1.36 0 0 0 2.719 0Zm0 38.977a1.36 1.36 0 1 0-2.72.002 1.36 1.36 0 0 0 2.72-.002Zm42.52-38.977a1.36 1.36 0 0 0-2.72 0 1.36 1.36 0 0 0 2.72 0Zm0 38.977a1.36 1.36 0 1 0-2.721.002 1.36 1.36 0 0 0 2.72-.002Zm42.523-38.977a1.361 1.361 0 0 0-2.723 0 1.36 1.36 0 0 0 2.723 0Zm0 38.977a1.361 1.361 0 0 0-2.723 0c0 .754.61 1.36 1.36 1.36.754 0 1.363-.606 1.363-1.36Zm0 0"/><use xlink:href="#o" x="572.403" y="555.779" fill="#234e83"/><use xlink:href="#k" x="578.888" y="555.779" fill="#cad40e"/><use xlink:href="#p" x="583.79" y="555.779"/><use xlink:href="#r" x="43.404" y="784.732"/><path fill="none" stroke="red" stroke-miterlimit="10" stroke-width=".399" d="M382.883 694.535v21.688m0 20.406v21.687m42.52-63.78v21.687m0 20.406v21.687m42.519-63.78v21.687m0 20.406v21.687m-85.04-56.695h7.087m0 0h7.086l7.086 28.348m0 0 7.09 28.347h7.085m0 0h7.086m0-56.695h7.086m0 0h7.086l7.086 28.348m0 0 7.09 28.347h7.086m0 0h7.086m0-56.695h7.086m0 0h7.086v35.434m0 0v35.433h-49.606m0 0h-49.605v-7.086m0 0v-7.086"/><path stroke="#000" stroke-miterlimit="10" stroke-width=".399" d="M384.242 694.535a1.36 1.36 0 1 0-2.72.002 1.36 1.36 0 0 0 2.72-.002Zm0 0"/><use xlink:href="#b" x="379.509" y="691.008"/><path fill="none" stroke="red" stroke-linejoin="bevel" stroke-miterlimit="10" stroke-width=".797" d="M382.723 715.824c2.816 0 5.101 1.406 5.101 3.14s-2.285 3.141-5.101 3.141c-1.41 0-2.551-.57-2.551-1.277 0-.703 1.14-1.273 2.55-1.273 2.817 0 5.102 1.406 5.102 3.14s-2.285 3.14-5.101 3.14c-1.41 0-2.551-.57-2.551-1.276 0-.704 1.14-1.274 2.55-1.274 2.817 0 5.102 1.406 5.102 3.14s-2.285 3.141-5.101 3.141c-1.41 0-2.551-.57-2.551-1.273 0-.707 1.14-1.277 2.55-1.277 2.817 0 5.102 1.406 5.102 3.14s-2.285 3.14-5.101 3.14c-1.41 0-2.551-.57-2.551-1.273 0-.707 1.14-1.277 2.55-1.277 2.817 0 5.102 1.406 5.102 3.14s-2.285 3.141-5.101 3.141"/><path stroke="#000" stroke-miterlimit="10" stroke-width=".399" d="M426.762 694.535a1.36 1.36 0 0 0-2.719 0 1.36 1.36 0 0 0 2.719 0Zm0 0"/><use xlink:href="#c" x="422.078" y="691.008"/><path fill="none" stroke="red" stroke-linejoin="bevel" stroke-miterlimit="10" stroke-width=".797" d="M425.242 715.824c2.82 0 5.102 1.406 5.102 3.14s-2.281 3.141-5.102 3.141c-1.41 0-2.55-.57-2.55-1.277 0-.703 1.14-1.273 2.55-1.273 2.82 0 5.102 1.406 5.102 3.14s-2.281 3.14-5.102 3.14c-1.41 0-2.55-.57-2.55-1.276 0-.704 1.14-1.274 2.55-1.274 2.82 0 5.102 1.406 5.102 3.14s-2.281 3.141-5.102 3.141c-1.41 0-2.55-.57-2.55-1.273 0-.707 1.14-1.277 2.55-1.277 2.82 0 5.102 1.406 5.102 3.14s-2.281 3.14-5.102 3.14c-1.41 0-2.55-.57-2.55-1.273 0-.707 1.14-1.277 2.55-1.277 2.82 0 5.102 1.406 5.102 3.14s-2.281 3.141-5.102 3.141"/><path stroke="#000" stroke-miterlimit="10" stroke-width=".399" d="M469.281 694.535a1.36 1.36 0 0 0-2.719 0 1.36 1.36 0 0 0 2.72 0Zm0 0"/><use xlink:href="#d" x="464.498" y="690.948"/><path fill="none" stroke="red" stroke-linejoin="bevel" stroke-miterlimit="10" stroke-width=".797" d="M467.762 715.824c2.82 0 5.101 1.406 5.101 3.14s-2.281 3.141-5.101 3.141c-1.407 0-2.551-.57-2.551-1.277 0-.703 1.144-1.273 2.55-1.273 2.821 0 5.102 1.406 5.102 3.14s-2.281 3.14-5.101 3.14c-1.407 0-2.551-.57-2.551-1.276 0-.704 1.144-1.274 2.55-1.274 2.821 0 5.102 1.406 5.102 3.14s-2.281 3.141-5.101 3.141c-1.407 0-2.551-.57-2.551-1.273 0-.707 1.144-1.277 2.55-1.277 2.821 0 5.102 1.406 5.102 3.14s-2.281 3.14-5.101 3.14c-1.407 0-2.551-.57-2.551-1.273 0-.707 1.144-1.277 2.55-1.277 2.821 0 5.102 1.406 5.102 3.14s-2.281 3.141-5.101 3.141"/><path fill="red" stroke="red" stroke-miterlimit="10" stroke-width=".399" d="M390.852 711.215a1.36 1.36 0 1 0-2.721.002 1.36 1.36 0 0 0 2.72-.002Zm42.519 0a1.36 1.36 0 1 0-2.72.002 1.36 1.36 0 0 0 2.72-.002Zm42.519 0a1.36 1.36 0 0 0-2.718 0 1.36 1.36 0 0 0 2.719 0Zm0 0"/><path fill="none" stroke="red" stroke-miterlimit="10" stroke-width=".399" d="M382.883 793.75v21.684m0 20.41v21.687m42.52-63.781v21.684m0 20.41v21.687m42.519-63.781v21.684m0 20.41v21.687m-85.04 0h7.087m0 0h7.086l7.086-28.347m0 0 7.09-28.348h7.085m0 0h7.086m0 56.695h7.086m0 0h7.086l7.086-28.347m0 0 7.09-28.348h7.086m0 0h7.086m0 56.695v7.086m0 0v7.086h-49.606m0 0h-49.609V836.27m0 0v-35.434h7.09m0 0h7.086"/><path stroke="#000" stroke-miterlimit="10" stroke-width=".399" d="M384.242 793.75a1.36 1.36 0 1 0-2.72.002 1.36 1.36 0 0 0 2.72-.002Zm0 0"/><use xlink:href="#e" x="380.161" y="790.12"/><path fill="none" stroke="red" stroke-linejoin="bevel" stroke-miterlimit="10" stroke-width=".797" d="M382.723 815.035c2.816 0 5.101 1.406 5.101 3.14 0 1.74-2.285 3.145-5.101 3.145-1.41 0-2.551-.574-2.551-1.277s1.14-1.277 2.55-1.277c2.817 0 5.102 1.406 5.102 3.144 0 1.735-2.285 3.14-5.101 3.14-1.41 0-2.551-.57-2.551-1.277 0-.703 1.14-1.273 2.55-1.273 2.817 0 5.102 1.406 5.102 3.14s-2.285 3.141-5.101 3.141c-1.41 0-2.551-.57-2.551-1.277 0-.703 1.14-1.274 2.55-1.274 2.817 0 5.102 1.407 5.102 3.141s-2.285 3.14-5.101 3.14c-1.41 0-2.551-.57-2.551-1.273 0-.707 1.14-1.277 2.55-1.277 2.817 0 5.102 1.406 5.102 3.14s-2.285 3.141-5.101 3.141"/><path stroke="#000" stroke-miterlimit="10" stroke-width=".399" d="M426.762 793.75a1.36 1.36 0 0 0-2.719 0 1.36 1.36 0 0 0 2.719 0Zm0 0"/><use xlink:href="#f" x="422.322" y="790.12"/><path fill="none" stroke="red" stroke-linejoin="bevel" stroke-miterlimit="10" stroke-width=".797" d="M425.242 815.035c2.82 0 5.102 1.406 5.102 3.14 0 1.74-2.281 3.145-5.102 3.145-1.41 0-2.55-.574-2.55-1.277s1.14-1.277 2.55-1.277c2.82 0 5.102 1.406 5.102 3.144 0 1.735-2.281 3.14-5.102 3.14-1.41 0-2.55-.57-2.55-1.277 0-.703 1.14-1.273 2.55-1.273 2.82 0 5.102 1.406 5.102 3.14s-2.281 3.141-5.102 3.141c-1.41 0-2.55-.57-2.55-1.277 0-.703 1.14-1.274 2.55-1.274 2.82 0 5.102 1.407 5.102 3.141s-2.281 3.14-5.102 3.14c-1.41 0-2.55-.57-2.55-1.273 0-.707 1.14-1.277 2.55-1.277 2.82 0 5.102 1.406 5.102 3.14s-2.281 3.141-5.102 3.141"/><path stroke="#000" stroke-miterlimit="10" stroke-width=".399" d="M469.281 793.75a1.36 1.36 0 0 0-2.719 0 1.36 1.36 0 0 0 2.72 0Zm0 0"/><use xlink:href="#g" x="465.181" y="790.12"/><path fill="none" stroke="red" stroke-linejoin="bevel" stroke-miterlimit="10" stroke-width=".797" d="M467.762 815.035c2.82 0 5.101 1.406 5.101 3.14 0 1.74-2.281 3.145-5.101 3.145-1.407 0-2.551-.574-2.551-1.277s1.144-1.277 2.55-1.277c2.821 0 5.102 1.406 5.102 3.144 0 1.735-2.281 3.14-5.101 3.14-1.407 0-2.551-.57-2.551-1.277 0-.703 1.144-1.273 2.55-1.273 2.821 0 5.102 1.406 5.102 3.14s-2.281 3.141-5.101 3.141c-1.407 0-2.551-.57-2.551-1.277 0-.703 1.144-1.274 2.55-1.274 2.821 0 5.102 1.407 5.102 3.141s-2.281 3.14-5.101 3.14c-1.407 0-2.551-.57-2.551-1.273 0-.707 1.144-1.277 2.55-1.277 2.821 0 5.102 1.406 5.102 3.14s-2.281 3.141-5.101 3.141"/><path fill="red" stroke="red" stroke-miterlimit="10" stroke-width=".399" d="M390.852 840.852a1.361 1.361 0 1 0-2.723-.005 1.361 1.361 0 0 0 2.723.005Zm42.519 0a1.359 1.359 0 1 0-2.719 0 1.36 1.36 0 0 0 2.719 0Zm42.519 0c0-.754-.609-1.364-1.359-1.364a1.361 1.361 0 0 0 0 2.723c.75 0 1.36-.61 1.36-1.36Zm0 0"/><g fill="red"><use xlink:href="#h" x="343.121" y="783.233"/><use xlink:href="#i" x="350.244" y="783.233"/></g><use xlink:href="#s" x="356.441" y="783.233"/><path fill="none" stroke="red" stroke-miterlimit="10" stroke-width=".399" d="M609.656 694.535v21.688m0 20.406v21.687m42.52-63.78v21.687m0 20.406v21.687m42.52-63.78v21.687m0 20.406v21.687m-85.04-56.695h7.086m0 0h7.086l7.09 28.348m0 0 7.086 28.347h7.086m0 0h7.086m0-56.695h7.086m0 0h7.09l7.086 28.348m0 0 7.085 28.347h7.086m0 0h7.086m0-56.695h7.09m0 0h7.086v35.434m0 0v35.433h-49.61m0 0h-49.605v-7.086m0 0v-7.086"/><path stroke="#000" stroke-miterlimit="10" stroke-width=".399" d="M611.016 694.535a1.36 1.36 0 0 0-2.72 0 1.36 1.36 0 0 0 2.72 0Zm0 0"/><use xlink:href="#b" x="606.28" y="691.008"/><path fill="none" stroke="red" stroke-linejoin="bevel" stroke-miterlimit="10" stroke-width=".797" d="M609.496 715.824c2.82 0 5.102 1.406 5.102 3.14s-2.282 3.141-5.102 3.141c-1.41 0-2.55-.57-2.55-1.277 0-.703 1.14-1.273 2.55-1.273 2.82 0 5.102 1.406 5.102 3.14s-2.282 3.14-5.102 3.14c-1.41 0-2.55-.57-2.55-1.276 0-.704 1.14-1.274 2.55-1.274 2.82 0 5.102 1.406 5.102 3.14s-2.282 3.141-5.102 3.141c-1.41 0-2.55-.57-2.55-1.273 0-.707 1.14-1.277 2.55-1.277 2.82 0 5.102 1.406 5.102 3.14s-2.282 3.14-5.102 3.14c-1.41 0-2.55-.57-2.55-1.273 0-.707 1.14-1.277 2.55-1.277 2.82 0 5.102 1.406 5.102 3.14s-2.282 3.141-5.102 3.141"/><path stroke="#000" stroke-miterlimit="10" stroke-width=".399" d="M653.535 694.535a1.36 1.36 0 1 0-2.717.002 1.36 1.36 0 0 0 2.717-.002Zm0 0"/><use xlink:href="#c" x="648.85" y="691.008"/><path fill="none" stroke="red" stroke-linejoin="bevel" stroke-miterlimit="10" stroke-width=".797" d="M652.016 715.824c2.82 0 5.105 1.406 5.105 3.14s-2.285 3.141-5.105 3.141c-1.407 0-2.551-.57-2.551-1.277 0-.703 1.144-1.273 2.55-1.273 2.82 0 5.106 1.406 5.106 3.14s-2.285 3.14-5.105 3.14c-1.407 0-2.551-.57-2.551-1.276 0-.704 1.144-1.274 2.55-1.274 2.82 0 5.106 1.406 5.106 3.14s-2.285 3.141-5.105 3.141c-1.407 0-2.551-.57-2.551-1.273 0-.707 1.144-1.277 2.55-1.277 2.82 0 5.106 1.406 5.106 3.14s-2.285 3.14-5.105 3.14c-1.407 0-2.551-.57-2.551-1.273 0-.707 1.144-1.277 2.55-1.277 2.82 0 5.106 1.406 5.106 3.14s-2.285 3.141-5.105 3.141"/><path stroke="#000" stroke-miterlimit="10" stroke-width=".399" d="M696.059 694.535a1.361 1.361 0 0 0-2.723 0 1.36 1.36 0 0 0 2.723 0Zm0 0"/><use xlink:href="#d" x="691.27" y="690.948"/><path fill="none" stroke="red" stroke-linejoin="bevel" stroke-miterlimit="10" stroke-width=".797" d="M694.54 715.824c2.815 0 5.1 1.406 5.1 3.14s-2.285 3.141-5.1 3.141c-1.411 0-2.556-.57-2.556-1.277 0-.703 1.145-1.273 2.555-1.273 2.816 0 5.102 1.406 5.102 3.14s-2.286 3.14-5.102 3.14c-1.41 0-2.555-.57-2.555-1.276 0-.704 1.145-1.274 2.555-1.274 2.816 0 5.102 1.406 5.102 3.14s-2.286 3.141-5.102 3.141c-1.41 0-2.555-.57-2.555-1.273 0-.707 1.145-1.277 2.555-1.277 2.816 0 5.102 1.406 5.102 3.14s-2.286 3.14-5.102 3.14c-1.41 0-2.555-.57-2.555-1.273 0-.707 1.145-1.277 2.555-1.277 2.816 0 5.102 1.406 5.102 3.14s-2.286 3.141-5.102 3.141"/><path fill="red" stroke="red" stroke-miterlimit="10" stroke-width=".399" d="M617.625 711.215a1.36 1.36 0 0 0-2.719 0 1.36 1.36 0 0 0 2.719 0Zm42.52 0a1.36 1.36 0 0 0-2.72 0 1.36 1.36 0 0 0 2.72 0Zm42.523 0a1.361 1.361 0 0 0-2.723 0 1.36 1.36 0 0 0 2.723 0Zm0 0"/><path fill="none" stroke="#cad40e" stroke-miterlimit="10" stroke-width=".399" d="M609.656 793.75v3.543m0 0v7.512m0 20.41v3.969h-7.086m0 0h-7.086v24.804m0 0v24.801h49.606m0 0h49.605v-3.543m0 0v-11.055m0-20.41v-7.511"/><path stroke="#000" stroke-miterlimit="10" stroke-width=".399" d="M611.016 793.75a1.36 1.36 0 0 0-2.72 0 1.36 1.36 0 0 0 2.72 0Zm0 0"/><use xlink:href="#e" x="606.933" y="790.12"/><path fill="none" stroke="#cad40e" stroke-linejoin="bevel" stroke-miterlimit="10" stroke-width=".797" d="M609.496 804.406c2.82 0 5.102 1.407 5.102 3.14 0 1.735-2.282 3.141-5.102 3.141-1.41 0-2.55-.57-2.55-1.273 0-.707 1.14-1.277 2.55-1.277 2.82 0 5.102 1.406 5.102 3.14s-2.282 3.141-5.102 3.141c-1.41 0-2.55-.57-2.55-1.273 0-.704 1.14-1.278 2.55-1.278 2.82 0 5.102 1.406 5.102 3.14 0 1.74-2.282 3.145-5.102 3.145-1.41 0-2.55-.574-2.55-1.277s1.14-1.273 2.55-1.273c2.82 0 5.102 1.406 5.102 3.14s-2.282 3.14-5.102 3.14c-1.41 0-2.55-.57-2.55-1.277 0-.703 1.14-1.273 2.55-1.273 2.82 0 5.102 1.406 5.102 3.14s-2.282 3.141-5.102 3.141m85.044 38.977c2.815 0 5.1-1.406 5.1-3.14s-2.285-3.141-5.1-3.141c-1.411 0-2.556.57-2.556 1.273 0 .707 1.145 1.277 2.555 1.277 2.816 0 5.102-1.406 5.102-3.14s-2.286-3.14-5.102-3.14c-1.41 0-2.555.57-2.555 1.273s1.145 1.277 2.555 1.277c2.816 0 5.102-1.406 5.102-3.14 0-1.739-2.286-3.145-5.102-3.145-1.41 0-2.555.574-2.555 1.277s1.145 1.277 2.555 1.277c2.816 0 5.102-1.41 5.102-3.144s-2.286-3.14-5.102-3.14c-1.41 0-2.555.57-2.555 1.277 0 .703 1.145 1.273 2.555 1.273 2.816 0 5.102-1.406 5.102-3.14s-2.286-3.141-5.102-3.141"/><path fill="none" stroke="#cad40e" stroke-miterlimit="10" stroke-width=".399" d="M652.176 793.75v3.543m0 0v7.512m0 20.41v3.969h-7.086m0 0h-7.086l-7.086 21.257m0 0-7.09 21.262h-7.086m0 0h-7.086v-7.512m0-20.41v-7.511"/><path stroke="#000" stroke-miterlimit="10" stroke-width=".399" d="M653.535 793.75a1.36 1.36 0 1 0-2.717.002 1.36 1.36 0 0 0 2.717-.002Zm0 0"/><use xlink:href="#f" x="649.094" y="790.12"/><path fill="none" stroke="#cad40e" stroke-linejoin="bevel" stroke-miterlimit="10" stroke-width=".797" d="M652.016 804.406c2.82 0 5.105 1.407 5.105 3.14 0 1.735-2.285 3.141-5.105 3.141-1.407 0-2.551-.57-2.551-1.273 0-.707 1.144-1.277 2.55-1.277 2.82 0 5.106 1.406 5.106 3.14s-2.285 3.141-5.105 3.141c-1.407 0-2.551-.57-2.551-1.273 0-.704 1.144-1.278 2.55-1.278 2.82 0 5.106 1.406 5.106 3.14 0 1.74-2.285 3.145-5.105 3.145-1.407 0-2.551-.574-2.551-1.277s1.144-1.273 2.55-1.273c2.82 0 5.106 1.406 5.106 3.14s-2.285 3.14-5.105 3.14c-1.407 0-2.551-.57-2.551-1.277 0-.703 1.144-1.273 2.55-1.273 2.82 0 5.106 1.406 5.106 3.14s-2.285 3.141-5.105 3.141m-42.52 38.977c2.82 0 5.102-1.406 5.102-3.14s-2.282-3.141-5.102-3.141c-1.41 0-2.55.57-2.55 1.273 0 .707 1.14 1.277 2.55 1.277 2.82 0 5.102-1.406 5.102-3.14s-2.282-3.14-5.102-3.14c-1.41 0-2.55.57-2.55 1.273s1.14 1.277 2.55 1.277c2.82 0 5.102-1.406 5.102-3.14 0-1.739-2.282-3.145-5.102-3.145-1.41 0-2.55.574-2.55 1.277s1.14 1.277 2.55 1.277c2.82 0 5.102-1.41 5.102-3.144s-2.282-3.14-5.102-3.14c-1.41 0-2.55.57-2.55 1.277 0 .703 1.14 1.273 2.55 1.273 2.82 0 5.102-1.406 5.102-3.14s-2.282-3.141-5.102-3.141"/><path fill="none" stroke="#cad40e" stroke-miterlimit="10" stroke-width=".399" d="M694.695 793.75v3.543m0 0v7.512m0 20.41v3.969h-7.086m0 0h-7.086l-7.086 21.257m0 0-7.085 21.262h-7.09m0 0h-7.086v-7.512m0-20.41v-7.511"/><path stroke="#000" stroke-miterlimit="10" stroke-width=".399" d="M696.059 793.75a1.361 1.361 0 0 0-2.723 0 1.36 1.36 0 0 0 2.723 0Zm0 0"/><use xlink:href="#g" x="691.952" y="790.12"/><path fill="none" stroke="#cad40e" stroke-linejoin="bevel" stroke-miterlimit="10" stroke-width=".797" d="M694.54 804.406c2.815 0 5.1 1.407 5.1 3.14 0 1.735-2.285 3.141-5.1 3.141-1.411 0-2.556-.57-2.556-1.273 0-.707 1.145-1.277 2.555-1.277 2.816 0 5.102 1.406 5.102 3.14s-2.286 3.141-5.102 3.141c-1.41 0-2.555-.57-2.555-1.273 0-.704 1.145-1.278 2.555-1.278 2.816 0 5.102 1.406 5.102 3.14 0 1.74-2.286 3.145-5.102 3.145-1.41 0-2.555-.574-2.555-1.277s1.145-1.273 2.555-1.273c2.816 0 5.102 1.406 5.102 3.14s-2.286 3.14-5.102 3.14c-1.41 0-2.555-.57-2.555-1.277 0-.703 1.145-1.273 2.555-1.273 2.816 0 5.102 1.406 5.102 3.14s-2.286 3.141-5.102 3.141m-42.523 38.977c2.82 0 5.105-1.406 5.105-3.14s-2.285-3.141-5.105-3.141c-1.407 0-2.551.57-2.551 1.273 0 .707 1.144 1.277 2.55 1.277 2.82 0 5.106-1.406 5.106-3.14s-2.285-3.14-5.105-3.14c-1.407 0-2.551.57-2.551 1.273s1.144 1.277 2.55 1.277c2.82 0 5.106-1.406 5.106-3.14 0-1.739-2.285-3.145-5.105-3.145-1.407 0-2.551.574-2.551 1.277s1.144 1.277 2.55 1.277c2.82 0 5.106-1.41 5.106-3.144s-2.285-3.14-5.105-3.14c-1.407 0-2.551.57-2.551 1.277 0 .703 1.144 1.273 2.55 1.273 2.82 0 5.106-1.406 5.106-3.14s-2.285-3.141-5.105-3.141"/><path fill="none" stroke="#cad40e" stroke-miterlimit="10" stroke-width=".399" d="M609.656 836.27h42.52m0 0h42.52"/><path fill="#cad40e" stroke="#cad40e" stroke-miterlimit="10" stroke-width=".399" d="M617.625 830.219a1.36 1.36 0 1 0-2.72.002 1.36 1.36 0 0 0 2.72-.002Zm0 38.976a1.36 1.36 0 1 0-2.72.002 1.36 1.36 0 0 0 2.72-.002Zm42.52-38.976a1.36 1.36 0 1 0-2.721.002 1.36 1.36 0 0 0 2.72-.002Zm0 38.976a1.36 1.36 0 1 0-2.721.002 1.36 1.36 0 0 0 2.72-.002Zm42.523-38.976a1.361 1.361 0 1 0-2.722.003 1.361 1.361 0 0 0 2.722-.003Zm0 38.976a1.361 1.361 0 1 0-2.722.004 1.361 1.361 0 0 0 2.722-.004Zm0 0"/><use xlink:href="#h" x="571.187" y="783.143" fill="red"/><use xlink:href="#k" x="578.311" y="783.143" fill="#cad40e"/><use xlink:href="#s" x="583.212" y="783.143"/><use xlink:href="#t" x="36.991" y="1010.679"/><use xlink:href="#u" x="43.131" y="1010.679"/><path fill="none" stroke="red" stroke-miterlimit="10" stroke-width=".399" d="M382.883 921.309v21.687m0 20.41v21.684m42.52-63.781v21.687m0 20.41v21.684m42.519-63.781v21.687m0 20.41v21.684m-85.04 0h7.087m0 0h7.086l7.086-28.348m0 0 7.09-28.344h7.085m0 0h7.086m0 56.692h7.086m0 0h7.086l7.086-28.348m0 0 7.09-28.344h7.086m0 0h7.086m0 56.692v7.086m0 0v7.09h-49.606m0 0h-49.609v-35.434m0 0v-35.434h7.09m0 0h7.086"/><path stroke="#000" stroke-miterlimit="10" stroke-width=".399" d="M384.242 921.309a1.36 1.36 0 1 0-2.72.002 1.36 1.36 0 0 0 2.72-.002Zm0 0"/><use xlink:href="#b" x="379.509" y="917.779"/><path fill="none" stroke="red" stroke-linejoin="bevel" stroke-miterlimit="10" stroke-width=".797" d="M382.723 942.598c2.816 0 5.101 1.406 5.101 3.14s-2.285 3.14-5.101 3.14c-1.41 0-2.551-.57-2.551-1.273 0-.707 1.14-1.277 2.55-1.277 2.817 0 5.102 1.406 5.102 3.14s-2.285 3.141-5.101 3.141c-1.41 0-2.551-.57-2.551-1.273 0-.707 1.14-1.277 2.55-1.277 2.817 0 5.102 1.406 5.102 3.14s-2.285 3.14-5.101 3.14c-1.41 0-2.551-.57-2.551-1.273s1.14-1.277 2.55-1.277c2.817 0 5.102 1.406 5.102 3.14 0 1.739-2.285 3.145-5.101 3.145-1.41 0-2.551-.574-2.551-1.277s1.14-1.274 2.55-1.274c2.817 0 5.102 1.407 5.102 3.141s-2.285 3.14-5.101 3.14"/><path stroke="#000" stroke-miterlimit="10" stroke-width=".399" d="M426.762 921.309a1.36 1.36 0 1 0-2.721.002 1.36 1.36 0 0 0 2.72-.002Zm0 0"/><use xlink:href="#c" x="422.078" y="917.779"/><path fill="none" stroke="red" stroke-linejoin="bevel" stroke-miterlimit="10" stroke-width=".797" d="M425.242 942.598c2.82 0 5.102 1.406 5.102 3.14s-2.281 3.14-5.102 3.14c-1.41 0-2.55-.57-2.55-1.273 0-.707 1.14-1.277 2.55-1.277 2.82 0 5.102 1.406 5.102 3.14s-2.281 3.141-5.102 3.141c-1.41 0-2.55-.57-2.55-1.273 0-.707 1.14-1.277 2.55-1.277 2.82 0 5.102 1.406 5.102 3.14s-2.281 3.14-5.102 3.14c-1.41 0-2.55-.57-2.55-1.273s1.14-1.277 2.55-1.277c2.82 0 5.102 1.406 5.102 3.14 0 1.739-2.281 3.145-5.102 3.145-1.41 0-2.55-.574-2.55-1.277s1.14-1.274 2.55-1.274c2.82 0 5.102 1.407 5.102 3.141s-2.281 3.14-5.102 3.14"/><path stroke="#000" stroke-miterlimit="10" stroke-width=".399" d="M469.281 921.309a1.36 1.36 0 1 0-2.72.002 1.36 1.36 0 0 0 2.72-.002Zm0 0"/><use xlink:href="#d" x="464.498" y="917.719"/><path fill="none" stroke="red" stroke-linejoin="bevel" stroke-miterlimit="10" stroke-width=".797" d="M467.762 942.598c2.82 0 5.101 1.406 5.101 3.14s-2.281 3.14-5.101 3.14c-1.407 0-2.551-.57-2.551-1.273 0-.707 1.144-1.277 2.55-1.277 2.821 0 5.102 1.406 5.102 3.14s-2.281 3.141-5.101 3.141c-1.407 0-2.551-.57-2.551-1.273 0-.707 1.144-1.277 2.55-1.277 2.821 0 5.102 1.406 5.102 3.14s-2.281 3.14-5.101 3.14c-1.407 0-2.551-.57-2.551-1.273s1.144-1.277 2.55-1.277c2.821 0 5.102 1.406 5.102 3.14 0 1.739-2.281 3.145-5.101 3.145-1.407 0-2.551-.574-2.551-1.277s1.144-1.274 2.55-1.274c2.821 0 5.102 1.407 5.102 3.141s-2.281 3.14-5.101 3.14"/><path fill="red" stroke="red" stroke-miterlimit="10" stroke-width=".399" d="M390.852 937.988a1.36 1.36 0 1 0-2.721.002 1.36 1.36 0 0 0 2.72-.002Zm42.519 0a1.36 1.36 0 1 0-2.72.002 1.36 1.36 0 0 0 2.72-.002Zm42.519 0a1.36 1.36 0 1 0-2.72.002 1.36 1.36 0 0 0 2.72-.002Zm0 0"/><path fill="none" stroke="red" stroke-miterlimit="10" stroke-width=".399" d="M382.883 1020.523v21.688m0 20.406v21.688m42.52-63.782v21.688m0 20.406v21.688m42.519-63.782v21.688m0 20.406v21.688m-85.04-56.696h7.087m0 0h7.086l7.086 28.348m0 0 7.09 28.348h7.085m0 0h7.086m0-56.696h7.086m0 0h7.086l7.086 28.348m0 0 7.09 28.348h7.086m0 0h7.086m0-56.696h7.086m0 0h7.086v35.434m0 0v35.434h-49.606m0 0h-49.605v-7.086m0 0v-7.086"/><path stroke="#000" stroke-miterlimit="10" stroke-width=".399" d="M384.242 1020.523a1.36 1.36 0 1 0-2.72.002 1.36 1.36 0 0 0 2.72-.002Zm0 0"/><use xlink:href="#e" x="380.161" y="1016.892"/><path fill="none" stroke="red" stroke-linejoin="bevel" stroke-miterlimit="10" stroke-width=".797" d="M382.723 1041.813c2.816 0 5.101 1.406 5.101 3.14s-2.285 3.14-5.101 3.14c-1.41 0-2.551-.57-2.551-1.277 0-.703 1.14-1.273 2.55-1.273 2.817 0 5.102 1.406 5.102 3.14s-2.285 3.141-5.101 3.141c-1.41 0-2.551-.57-2.551-1.277 0-.703 1.14-1.274 2.55-1.274 2.817 0 5.102 1.407 5.102 3.141s-2.285 3.14-5.101 3.14c-1.41 0-2.551-.57-2.551-1.273 0-.707 1.14-1.277 2.55-1.277 2.817 0 5.102 1.406 5.102 3.14s-2.285 3.141-5.101 3.141c-1.41 0-2.551-.57-2.551-1.273 0-.707 1.14-1.278 2.55-1.278 2.817 0 5.102 1.407 5.102 3.141s-2.285 3.14-5.101 3.14"/><path stroke="#000" stroke-miterlimit="10" stroke-width=".399" d="M426.762 1020.523a1.36 1.36 0 0 0-2.719 0 1.36 1.36 0 0 0 2.719 0Zm0 0"/><use xlink:href="#f" x="422.322" y="1016.892"/><path fill="none" stroke="red" stroke-linejoin="bevel" stroke-miterlimit="10" stroke-width=".797" d="M425.242 1041.813c2.82 0 5.102 1.406 5.102 3.14s-2.281 3.14-5.102 3.14c-1.41 0-2.55-.57-2.55-1.277 0-.703 1.14-1.273 2.55-1.273 2.82 0 5.102 1.406 5.102 3.14s-2.281 3.141-5.102 3.141c-1.41 0-2.55-.57-2.55-1.277 0-.703 1.14-1.274 2.55-1.274 2.82 0 5.102 1.407 5.102 3.141s-2.281 3.14-5.102 3.14c-1.41 0-2.55-.57-2.55-1.273 0-.707 1.14-1.277 2.55-1.277 2.82 0 5.102 1.406 5.102 3.14s-2.281 3.141-5.102 3.141c-1.41 0-2.55-.57-2.55-1.273 0-.707 1.14-1.278 2.55-1.278 2.82 0 5.102 1.407 5.102 3.141s-2.281 3.14-5.102 3.14"/><path stroke="#000" stroke-miterlimit="10" stroke-width=".399" d="M469.281 1020.523a1.36 1.36 0 0 0-2.719 0 1.36 1.36 0 0 0 2.72 0Zm0 0"/><use xlink:href="#g" x="465.181" y="1016.892"/><path fill="none" stroke="red" stroke-linejoin="bevel" stroke-miterlimit="10" stroke-width=".797" d="M467.762 1041.813c2.82 0 5.101 1.406 5.101 3.14s-2.281 3.14-5.101 3.14c-1.407 0-2.551-.57-2.551-1.277 0-.703 1.144-1.273 2.55-1.273 2.821 0 5.102 1.406 5.102 3.14s-2.281 3.141-5.101 3.141c-1.407 0-2.551-.57-2.551-1.277 0-.703 1.144-1.274 2.55-1.274 2.821 0 5.102 1.407 5.102 3.141s-2.281 3.14-5.101 3.14c-1.407 0-2.551-.57-2.551-1.273 0-.707 1.144-1.277 2.55-1.277 2.821 0 5.102 1.406 5.102 3.14s-2.281 3.141-5.101 3.141c-1.407 0-2.551-.57-2.551-1.273 0-.707 1.144-1.278 2.55-1.278 2.821 0 5.102 1.407 5.102 3.141s-2.281 3.14-5.101 3.14"/><path fill="red" stroke="red" stroke-miterlimit="10" stroke-width=".399" d="M390.852 1037.203a1.36 1.36 0 1 0-2.721.002 1.36 1.36 0 0 0 2.72-.002Zm42.519 0a1.36 1.36 0 1 0-2.72.002 1.36 1.36 0 0 0 2.72-.002Zm42.519 0a1.36 1.36 0 0 0-2.718 0 1.36 1.36 0 0 0 2.719 0Zm0 0"/><g fill="red"><use xlink:href="#h" x="338.667" y="1010.005"/><use xlink:href="#i" x="345.79" y="1010.005"/></g><use xlink:href="#v" x="351.987" y="1010.005"/><use xlink:href="#w" x="356.251" y="1010.005"/><path fill="none" stroke="red" stroke-miterlimit="10" stroke-width=".399" d="M609.656 921.309v21.687m0 20.41v21.684m42.52-63.781v21.687m0 20.41v21.684m42.52-63.781v21.687m0 20.41v21.684m-85.04 0h7.086m0 0h7.086l7.09-28.348m0 0 7.086-28.344h7.086m0 0h7.086m0 56.692h7.086m0 0h7.09l7.086-28.348m0 0 7.085-28.344h7.086m0 0h7.086m0 56.692v7.086m0 0v7.09H645.09m0 0h-49.606v-35.434m0 0v-35.434h7.086m0 0h7.086"/><path stroke="#000" stroke-miterlimit="10" stroke-width=".399" d="M611.016 921.309a1.36 1.36 0 1 0-2.721.002 1.36 1.36 0 0 0 2.72-.002Zm0 0"/><use xlink:href="#b" x="606.28" y="917.779"/><path fill="none" stroke="red" stroke-linejoin="bevel" stroke-miterlimit="10" stroke-width=".797" d="M609.496 942.598c2.82 0 5.102 1.406 5.102 3.14s-2.282 3.14-5.102 3.14c-1.41 0-2.55-.57-2.55-1.273 0-.707 1.14-1.277 2.55-1.277 2.82 0 5.102 1.406 5.102 3.14s-2.282 3.141-5.102 3.141c-1.41 0-2.55-.57-2.55-1.273 0-.707 1.14-1.277 2.55-1.277 2.82 0 5.102 1.406 5.102 3.14s-2.282 3.14-5.102 3.14c-1.41 0-2.55-.57-2.55-1.273s1.14-1.277 2.55-1.277c2.82 0 5.102 1.406 5.102 3.14 0 1.739-2.282 3.145-5.102 3.145-1.41 0-2.55-.574-2.55-1.277s1.14-1.274 2.55-1.274c2.82 0 5.102 1.407 5.102 3.141s-2.282 3.14-5.102 3.14"/><path stroke="#000" stroke-miterlimit="10" stroke-width=".399" d="M653.535 921.309a1.36 1.36 0 1 0-2.717.002 1.36 1.36 0 0 0 2.717-.002Zm0 0"/><use xlink:href="#c" x="648.85" y="917.779"/><path fill="none" stroke="red" stroke-linejoin="bevel" stroke-miterlimit="10" stroke-width=".797" d="M652.016 942.598c2.82 0 5.105 1.406 5.105 3.14s-2.285 3.14-5.105 3.14c-1.407 0-2.551-.57-2.551-1.273 0-.707 1.144-1.277 2.55-1.277 2.82 0 5.106 1.406 5.106 3.14s-2.285 3.141-5.105 3.141c-1.407 0-2.551-.57-2.551-1.273 0-.707 1.144-1.277 2.55-1.277 2.82 0 5.106 1.406 5.106 3.14s-2.285 3.14-5.105 3.14c-1.407 0-2.551-.57-2.551-1.273s1.144-1.277 2.55-1.277c2.82 0 5.106 1.406 5.106 3.14 0 1.739-2.285 3.145-5.105 3.145-1.407 0-2.551-.574-2.551-1.277s1.144-1.274 2.55-1.274c2.82 0 5.106 1.407 5.106 3.141s-2.285 3.14-5.105 3.14"/><path stroke="#000" stroke-miterlimit="10" stroke-width=".399" d="M696.059 921.309a1.361 1.361 0 1 0-2.723.003 1.361 1.361 0 0 0 2.723-.003Zm0 0"/><use xlink:href="#d" x="691.27" y="917.719"/><path fill="none" stroke="red" stroke-linejoin="bevel" stroke-miterlimit="10" stroke-width=".797" d="M694.54 942.598c2.815 0 5.1 1.406 5.1 3.14s-2.285 3.14-5.1 3.14c-1.411 0-2.556-.57-2.556-1.273 0-.707 1.145-1.277 2.555-1.277 2.816 0 5.102 1.406 5.102 3.14s-2.286 3.141-5.102 3.141c-1.41 0-2.555-.57-2.555-1.273 0-.707 1.145-1.277 2.555-1.277 2.816 0 5.102 1.406 5.102 3.14s-2.286 3.14-5.102 3.14c-1.41 0-2.555-.57-2.555-1.273s1.145-1.277 2.555-1.277c2.816 0 5.102 1.406 5.102 3.14 0 1.739-2.286 3.145-5.102 3.145-1.41 0-2.555-.574-2.555-1.277s1.145-1.274 2.555-1.274c2.816 0 5.102 1.407 5.102 3.141s-2.286 3.14-5.102 3.14"/><path fill="red" stroke="red" stroke-miterlimit="10" stroke-width=".399" d="M617.625 937.988a1.36 1.36 0 1 0-2.72.002 1.36 1.36 0 0 0 2.72-.002Zm42.52 0a1.36 1.36 0 1 0-2.721.002 1.36 1.36 0 0 0 2.72-.002Zm42.523 0a1.361 1.361 0 1 0-2.722.004 1.361 1.361 0 0 0 2.722-.004Zm0 0"/><path fill="none" stroke="#cad40e" stroke-miterlimit="10" stroke-width=".399" d="M609.656 1020.523v3.543m0 0v7.512m0 20.41v3.969h7.086m0 0h7.086l7.09 21.262m0 0 7.086 21.258h7.086m0 0h7.086v-7.512m0-20.41v-7.512"/><path stroke="#000" stroke-miterlimit="10" stroke-width=".399" d="M611.016 1020.523a1.36 1.36 0 0 0-2.72 0 1.36 1.36 0 0 0 2.72 0Zm0 0"/><use xlink:href="#e" x="606.933" y="1016.892"/><path fill="none" stroke="#cad40e" stroke-linejoin="bevel" stroke-miterlimit="10" stroke-width=".797" d="M609.496 1031.18c2.82 0 5.102 1.406 5.102 3.14s-2.282 3.145-5.102 3.145c-1.41 0-2.55-.574-2.55-1.277 0-.704 1.14-1.278 2.55-1.278 2.82 0 5.102 1.406 5.102 3.145 0 1.734-2.282 3.14-5.102 3.14-1.41 0-2.55-.574-2.55-1.277s1.14-1.273 2.55-1.273c2.82 0 5.102 1.406 5.102 3.14s-2.282 3.14-5.102 3.14c-1.41 0-2.55-.57-2.55-1.277 0-.703 1.14-1.273 2.55-1.273 2.82 0 5.102 1.406 5.102 3.14s-2.282 3.141-5.102 3.141c-1.41 0-2.55-.57-2.55-1.277 0-.703 1.14-1.274 2.55-1.274 2.82 0 5.102 1.407 5.102 3.141s-2.282 3.14-5.102 3.14m42.52 38.977c2.82 0 5.105-1.406 5.105-3.14s-2.285-3.141-5.105-3.141c-1.407 0-2.551.57-2.551 1.277 0 .704 1.144 1.274 2.55 1.274 2.82 0 5.106-1.406 5.106-3.14s-2.285-3.141-5.105-3.141c-1.407 0-2.551.57-2.551 1.273 0 .707 1.144 1.277 2.55 1.277 2.82 0 5.106-1.406 5.106-3.14s-2.285-3.14-5.105-3.14c-1.407 0-2.551.57-2.551 1.273 0 .707 1.144 1.277 2.55 1.277 2.82 0 5.106-1.406 5.106-3.14s-2.285-3.141-5.105-3.141c-1.407 0-2.551.57-2.551 1.273s1.144 1.277 2.55 1.277c2.82 0 5.106-1.406 5.106-3.144 0-1.735-2.285-3.14-5.105-3.14"/><path fill="none" stroke="#cad40e" stroke-miterlimit="10" stroke-width=".399" d="M652.176 1020.523v3.543m0 0v7.512m0 20.41v3.969h7.086m0 0h7.09l7.086 21.262m0 0 7.085 21.258h7.086m0 0h7.086v-7.512m0-20.41v-7.512"/><path stroke="#000" stroke-miterlimit="10" stroke-width=".399" d="M653.535 1020.523a1.36 1.36 0 1 0-2.717.002 1.36 1.36 0 0 0 2.717-.002Zm0 0"/><use xlink:href="#f" x="649.094" y="1016.892"/><path fill="none" stroke="#cad40e" stroke-linejoin="bevel" stroke-miterlimit="10" stroke-width=".797" d="M652.016 1031.18c2.82 0 5.105 1.406 5.105 3.14s-2.285 3.145-5.105 3.145c-1.407 0-2.551-.574-2.551-1.277 0-.704 1.144-1.278 2.55-1.278 2.82 0 5.106 1.406 5.106 3.145 0 1.734-2.285 3.14-5.105 3.14-1.407 0-2.551-.574-2.551-1.277s1.144-1.273 2.55-1.273c2.82 0 5.106 1.406 5.106 3.14s-2.285 3.14-5.105 3.14c-1.407 0-2.551-.57-2.551-1.277 0-.703 1.144-1.273 2.55-1.273 2.82 0 5.106 1.406 5.106 3.14s-2.285 3.141-5.105 3.141c-1.407 0-2.551-.57-2.551-1.277 0-.703 1.144-1.274 2.55-1.274 2.82 0 5.106 1.407 5.106 3.141s-2.285 3.14-5.105 3.14m42.524 38.977c2.815 0 5.1-1.406 5.1-3.14s-2.285-3.141-5.1-3.141c-1.411 0-2.556.57-2.556 1.277 0 .704 1.145 1.274 2.555 1.274 2.816 0 5.102-1.406 5.102-3.14s-2.286-3.141-5.102-3.141c-1.41 0-2.555.57-2.555 1.273 0 .707 1.145 1.277 2.555 1.277 2.816 0 5.102-1.406 5.102-3.14s-2.286-3.14-5.102-3.14c-1.41 0-2.555.57-2.555 1.273 0 .707 1.145 1.277 2.555 1.277 2.816 0 5.102-1.406 5.102-3.14s-2.286-3.141-5.102-3.141c-1.41 0-2.555.57-2.555 1.273s1.145 1.277 2.555 1.277c2.816 0 5.102-1.406 5.102-3.144 0-1.735-2.286-3.14-5.102-3.14"/><g clip-path="url(#x)"><path fill="none" stroke="#cad40e" stroke-miterlimit="10" stroke-width=".399" d="M694.695 1020.523v3.543m0 0v7.512m0 20.41v3.969h7.09m0 0h7.086v24.805m0 0v24.804l-49.61-.004m0 0-49.605.004v-3.546m0 0v-11.055m0-20.41v-7.512"/></g><path stroke="#000" stroke-miterlimit="10" stroke-width=".399" d="M696.059 1020.523a1.361 1.361 0 0 0-2.723 0 1.36 1.36 0 0 0 2.723 0Zm0 0"/><use xlink:href="#g" x="691.952" y="1016.892"/><path fill="none" stroke="#cad40e" stroke-linejoin="bevel" stroke-miterlimit="10" stroke-width=".797" d="M694.54 1031.18c2.815 0 5.1 1.406 5.1 3.14s-2.285 3.145-5.1 3.145c-1.411 0-2.556-.574-2.556-1.277 0-.704 1.145-1.278 2.555-1.278 2.816 0 5.102 1.406 5.102 3.145 0 1.734-2.286 3.14-5.102 3.14-1.41 0-2.555-.574-2.555-1.277s1.145-1.273 2.555-1.273c2.816 0 5.102 1.406 5.102 3.14s-2.286 3.14-5.102 3.14c-1.41 0-2.555-.57-2.555-1.277 0-.703 1.145-1.273 2.555-1.273 2.816 0 5.102 1.406 5.102 3.14s-2.286 3.141-5.102 3.141c-1.41 0-2.555-.57-2.555-1.277 0-.703 1.145-1.274 2.555-1.274 2.816 0 5.102 1.407 5.102 3.141s-2.286 3.14-5.102 3.14m-85.043 38.977c2.82 0 5.102-1.406 5.102-3.14s-2.282-3.141-5.102-3.141c-1.41 0-2.55.57-2.55 1.277 0 .704 1.14 1.274 2.55 1.274 2.82 0 5.102-1.406 5.102-3.14s-2.282-3.141-5.102-3.141c-1.41 0-2.55.57-2.55 1.273 0 .707 1.14 1.277 2.55 1.277 2.82 0 5.102-1.406 5.102-3.14s-2.282-3.14-5.102-3.14c-1.41 0-2.55.57-2.55 1.273 0 .707 1.14 1.277 2.55 1.277 2.82 0 5.102-1.406 5.102-3.14s-2.282-3.141-5.102-3.141c-1.41 0-2.55.57-2.55 1.273s1.14 1.277 2.55 1.277c2.82 0 5.102-1.406 5.102-3.144 0-1.735-2.282-3.14-5.102-3.14"/><path fill="none" stroke="#cad40e" stroke-miterlimit="10" stroke-width=".399" d="M609.656 1063.043h42.52m0 0h42.52"/><path fill="#cad40e" stroke="#cad40e" stroke-miterlimit="10" stroke-width=".399" d="M617.625 1026.574a1.359 1.359 0 1 0-2.719 0 1.36 1.36 0 0 0 2.719 0Zm0 38.976a1.36 1.36 0 0 0-2.719 0 1.36 1.36 0 0 0 2.719 0Zm42.52-38.976a1.359 1.359 0 1 0-2.72 0 1.36 1.36 0 0 0 2.72 0Zm0 38.976a1.36 1.36 0 0 0-2.72 0 1.36 1.36 0 0 0 2.72 0Zm42.523-38.976c0-.754-.61-1.36-1.363-1.36a1.36 1.36 0 1 0 1.363 1.36Zm0 38.976a1.361 1.361 0 0 0-2.723 0 1.36 1.36 0 0 0 2.723 0Zm0 0"/><use xlink:href="#h" x="566.734" y="1009.905" fill="red"/><use xlink:href="#k" x="573.857" y="1009.905" fill="#cad40e"/><use xlink:href="#v" x="578.759" y="1009.905"/><use xlink:href="#w" x="583.023" y="1009.905"/><g clip-path="url(#y)"><path fill="none" stroke="#000" stroke-miterlimit="10" stroke-width=".399" d="m.2 212.77 737.019-.051"/></g><g clip-path="url(#z)"><path fill="none" stroke="#000" stroke-miterlimit="10" stroke-width=".399" d="m.2 439.543 737.019-.047"/></g><g clip-path="url(#A)"><path fill="none" stroke="#000" stroke-miterlimit="10" stroke-width=".399" d="m.2 666.32 737.019-.05"/></g><g clip-path="url(#B)"><path fill="none" stroke="#000" stroke-miterlimit="10" stroke-width=".399" d="m.2 893.094 737.019-.051"/></g><g clip-path="url(#C)"><path fill="none" stroke="#000" stroke-miterlimit="10" stroke-width=".399" d="M99.414.25v1105.313"/></g><g clip-path="url(#D)"><path fill="none" stroke="#000" stroke-miterlimit="10" stroke-width=".399" d="M312.016.2v1105.363"/></g><g clip-path="url(#E)"><path fill="none" stroke="#000" stroke-miterlimit="10" stroke-width=".399" d="M538.79.2v1105.363"/></g></svg>
