<svg xmlns="http://www.w3.org/2000/svg" xmlns:xlink="http://www.w3.org/1999/xlink" width="367.951" height="236.169" viewBox="0 0 275.963 177.127"><defs><symbol overflow="visible" id="a"><path style="stroke:none" d="M2.453-2.547c.664-.133 1.164-.351 1.5-.656.344-.3.516-.617.516-.953 0-.196-.059-.344-.172-.438a.698.698 0 0 0-.453-.14c-.305 0-.617.101-.938.296a3.84 3.84 0 0 0-.922.813 5.51 5.51 0 0 0-.765 1.203l.203-1.094a5.89 5.89 0 0 1 .766-.906c.269-.27.554-.484.859-.64.312-.157.629-.235.953-.235.375 0 .648.102.828.297.188.188.281.438.281.75 0 .438-.164.836-.484 1.188-.313.343-.766.617-1.36.812L4.423 0h-.734ZM1.641-7.28h.671L.766 0H.094Zm0 0"/></symbol><symbol overflow="visible" id="b"><path style="stroke:none" d="M.86-7.078 3.39-.875l2.516-6.203h.735L3.703 0h-.625L.125-7.078Zm0 0"/></symbol><symbol overflow="visible" id="i"><path style="stroke:none" d="M.89 0v-7.078h.688V0Zm0 0"/></symbol><symbol overflow="visible" id="j"><path style="stroke:none" d="m.313-.547 4.812-5.906H.391v-.625h5.546v.547L1.173-.625h4.75V0H.312Zm0 0"/></symbol><symbol overflow="visible" id="k"><path style="stroke:none" d="M.438 0c0-.227.019-.457.062-.688a2.55 2.55 0 0 1 .219-.671c.113-.227.281-.446.5-.657.226-.207.52-.406.875-.593.187-.102.383-.204.594-.297.207-.094.398-.196.578-.313a1.64 1.64 0 0 0 .437-.406.833.833 0 0 0 .172-.531.936.936 0 0 0-.14-.485.976.976 0 0 0-.438-.39 1.607 1.607 0 0 0-.735-.157 1.83 1.83 0 0 0-1.046.329 2.31 2.31 0 0 0-.329.265c-.093.086-.171.157-.234.219l-.422-.469a2.71 2.71 0 0 1 .656-.531c.188-.113.407-.21.657-.297a2.63 2.63 0 0 1 .828-.125c.406 0 .75.074 1.031.219.29.148.516.34.672.578.156.242.234.496.234.766 0 .28-.062.523-.187.718a1.89 1.89 0 0 1-.453.5c-.18.149-.367.274-.563.375l-.531.266a5.528 5.528 0 0 0-.781.438 3.162 3.162 0 0 0-.516.437 2.167 2.167 0 0 0-.297.438 2.47 2.47 0 0 0-.14.437h3.578V0Zm0 0"/></symbol><symbol overflow="visible" id="l"><path style="stroke:none" d="m.922-7.078 2.312 3.812 2.344-3.812h.75L3.594-2.625V0H2.89v-2.656L.156-7.078Zm0 0"/></symbol><symbol overflow="visible" id="n"><path style="stroke:none" d="M3.625-3.813v.547h-1.25v1.36H1.75v-1.36H.516v-.546H1.75v-1.344h.625v1.343Zm0 0"/></symbol><symbol overflow="visible" id="o"><path style="stroke:none" d="M.64-2.406v-.625h4.391v.625Zm0 0"/></symbol><symbol overflow="visible" id="p"><path style="stroke:none" d="M3.766.047c-.555 0-1.024-.098-1.407-.297a2.383 2.383 0 0 1-.921-.797 3.524 3.524 0 0 1-.5-1.14A5.496 5.496 0 0 1 .78-3.516v-3.562h.688v3.562c0 .375.035.743.11 1.094.081.344.206.656.374.938.176.28.41.507.703.671.29.157.66.235 1.11.235.445 0 .816-.082 1.109-.25.3-.176.535-.399.703-.672a3.18 3.18 0 0 0 .36-.938c.07-.351.109-.71.109-1.078v-3.562h.703v3.562c0 .48-.055.938-.156 1.375-.106.43-.278.805-.516 1.125a2.66 2.66 0 0 1-.937.782c-.375.187-.836.28-1.375.28Zm0 0"/></symbol><symbol overflow="visible" id="c"><path style="stroke:none" d="M3.234-.5V0H.531v-.5h1.14v-3.406a1.14 1.14 0 0 1-.218.219c-.105.074-.226.14-.36.203-.124.062-.25.117-.374.156a1.106 1.106 0 0 1-.36.062v-.53c.125 0 .258-.032.407-.095a3.207 3.207 0 0 0 .75-.5.874.874 0 0 0 .156-.156h.547V-.5Zm0 0"/></symbol><symbol overflow="visible" id="d"><path style="stroke:none" d="m.688.64.14-.671H.641v-.75h.515v.75L.97.64Zm0 0"/></symbol><symbol overflow="visible" id="e"><path style="stroke:none" d="M.266-1.188c0-.257.07-.484.218-.671.145-.196.348-.348.61-.454a2.62 2.62 0 0 1 .922-.156c.195 0 .406.024.625.063.218.031.414.078.593.14v-.359c0-.344-.105-.617-.312-.828-.211-.207-.496-.313-.86-.313-.23 0-.453.043-.671.125a3.954 3.954 0 0 0-.672.36l-.203-.39c.27-.177.535-.313.796-.407.258-.094.524-.14.797-.14.508 0 .91.148 1.204.437.3.293.453.695.453 1.203v1.922c0 .074.015.133.046.172.032.03.083.046.157.046V0c-.063.008-.117.016-.156.016a.184.184 0 0 1-.094 0c-.137 0-.242-.04-.313-.125a.407.407 0 0 1-.094-.25l-.015-.313a1.86 1.86 0 0 1-.735.563 2.25 2.25 0 0 1-.89.187c-.274 0-.516-.058-.734-.172a1.367 1.367 0 0 1-.5-.453 1.222 1.222 0 0 1-.172-.64Zm2.78.313c.052-.07.095-.14.126-.203a.43.43 0 0 0 .062-.203v-.594a3.015 3.015 0 0 0-.578-.156 2.848 2.848 0 0 0-.578-.063c-.387 0-.7.078-.937.235a.691.691 0 0 0-.36.625c0 .156.035.304.11.437.082.137.203.25.359.344.156.086.336.125.547.125.258 0 .5-.05.719-.156.226-.102.406-.235.53-.391Zm0 0"/></symbol><symbol overflow="visible" id="f"><path style="stroke:none" d="M2.625.078a1.73 1.73 0 0 1-.906-.25 1.83 1.83 0 0 1-.64-.64V0H.593v-5.813h.547v2.532c.187-.281.41-.504.671-.672.258-.176.563-.266.907-.266.289 0 .55.063.781.188.227.117.426.277.594.484.164.2.289.43.375.688.082.261.125.527.125.796 0 .293-.055.57-.157.829A2.08 2.08 0 0 1 3.405-.093c-.242.113-.5.171-.781.171ZM2.5-.39c.227 0 .438-.046.625-.14a1.56 1.56 0 0 0 .484-.375c.145-.156.254-.332.329-.531A1.902 1.902 0 0 0 3.86-2.89a1.623 1.623 0 0 0-.516-.626 1.311 1.311 0 0 0-.781-.234 1.23 1.23 0 0 0-.594.156c-.18.094-.34.219-.485.375a2.4 2.4 0 0 0-.343.516v1.281a.91.91 0 0 0 .156.406c.094.125.207.235.344.329.132.085.273.156.421.218.157.055.301.078.438.078Zm0 0"/></symbol><symbol overflow="visible" id="g"><path style="stroke:none" d="M.344 0c0-.176.015-.36.047-.547.039-.187.101-.367.187-.547.094-.176.227-.347.406-.515.176-.164.407-.329.688-.485l.484-.219c.164-.082.32-.171.469-.265.145-.094.258-.195.344-.313a.765.765 0 0 0 .016-.813.748.748 0 0 0-.344-.312 1.274 1.274 0 0 0-.594-.125c-.168 0-.324.028-.469.079a1.333 1.333 0 0 0-.36.171 2.037 2.037 0 0 0-.265.22 2.11 2.11 0 0 1-.187.171l-.344-.375.172-.172a2.27 2.27 0 0 1 .36-.25 2.06 2.06 0 0 1 .515-.234c.207-.063.43-.094.672-.094.32 0 .597.059.828.172.226.117.406.266.531.453.125.188.188.398.188.625 0 .219-.047.406-.141.563a1.487 1.487 0 0 1-.36.406 3.516 3.516 0 0 1-.89.5 3.41 3.41 0 0 0-.625.36 1.97 1.97 0 0 0-.406.359A1.345 1.345 0 0 0 .922-.5h2.844V0Zm0 0"/></symbol><symbol overflow="visible" id="h"><path style="stroke:none" d="M4.094 0h-.547v-2.313c0-.488-.074-.847-.219-1.078-.148-.226-.371-.343-.672-.343-.219 0-.433.054-.64.156a1.89 1.89 0 0 0-.532.422c-.156.18-.273.383-.343.61V0H.594v-4.156h.5v.937c.113-.195.258-.367.437-.515.176-.157.38-.274.61-.36.226-.082.468-.125.718-.125.227 0 .422.043.579.125a.974.974 0 0 1 .374.36c.094.156.16.343.204.562.05.219.078.465.078.735Zm0 0"/></symbol><symbol overflow="visible" id="m"><path style="stroke:none" d="M6.766 0h-.532v-2.313c0-.488-.078-.847-.234-1.078-.156-.226-.387-.343-.688-.343a1.23 1.23 0 0 0-.843.343 1.806 1.806 0 0 0-.516.86V0h-.547v-2.313c0-.488-.074-.847-.219-1.078-.148-.226-.374-.343-.687-.343-.305 0-.578.109-.828.328a1.77 1.77 0 0 0-.531.86V0H.594v-4.156h.5v.937c.176-.32.398-.566.672-.734.27-.176.57-.266.906-.266.351 0 .633.102.844.297.207.188.336.445.39.766.188-.352.414-.617.688-.797.27-.176.57-.266.906-.266.238 0 .438.043.594.125a.964.964 0 0 1 .39.36c.102.156.176.343.22.562a4.3 4.3 0 0 1 .062.735Zm0 0"/></symbol><symbol overflow="visible" id="q"><path style="stroke:none" d="M4.438-2.328c0 .46-.09.871-.266 1.234a2.05 2.05 0 0 1-.703.86c-.305.21-.649.312-1.031.312a1.75 1.75 0 0 1-1.032-.312 2.173 2.173 0 0 1-.703-.86 2.742 2.742 0 0 1-.265-1.234c0-.469.085-.883.265-1.25.176-.363.41-.649.703-.86a1.779 1.779 0 0 1 1.032-.312c.382 0 .726.105 1.03.313.302.21.536.496.704.859.176.367.266.781.266 1.25Zm-.547 0c0-.383-.063-.719-.188-1A1.567 1.567 0 0 0 3.188-4a1.19 1.19 0 0 0-.75-.25 1.22 1.22 0 0 0-.75.25c-.22.156-.391.383-.516.672a2.456 2.456 0 0 0-.188 1c0 .375.063.71.188 1 .125.281.297.5.516.656.218.156.468.235.75.235.289 0 .539-.079.75-.235.218-.164.39-.39.515-.672.125-.281.188-.61.188-.984Zm0 0"/></symbol></defs><path style="stroke:none;fill-rule:nonzero;fill:#fff;fill-opacity:1" d="M0 177.129V0h275.965v177.129Zm0 0"/><path style="fill:none;stroke-width:.797;stroke-linecap:butt;stroke-linejoin:bevel;stroke:#000;stroke-opacity:1;stroke-miterlimit:10" d="M90.552 68.433c2.348 0 4.25-1.317 4.25-2.938 0-1.621-1.902-2.933-4.25-2.933 2.348 0 4.25-1.313 4.25-2.934 0-1.621-1.902-2.934-4.25-2.934 2.348 0 4.25-1.316 4.25-2.933 0-1.621-1.902-2.938-4.25-2.938 2.348 0 4.25-1.312 4.25-2.933 0-1.621-1.902-2.934-4.25-2.934m17.325 0c-2.348 0-4.25 1.313-4.25 2.934 0 1.62 1.902 2.933 4.25 2.933-2.348 0-4.25 1.317-4.25 2.938 0 1.617 1.902 2.933 4.25 2.933-2.348 0-4.25 1.313-4.25 2.934 0 1.621 1.902 2.934 4.25 2.934-2.348 0-4.25 1.312-4.25 2.933 0 1.621 1.902 2.938 4.25 2.938" transform="matrix(1 0 0 -1 24.225 147.292)"/><path style="fill:none;stroke-width:.3985;stroke-linecap:butt;stroke-linejoin:miter;stroke:#000;stroke-opacity:1;stroke-miterlimit:10" d="M77.955 113.386h12.754V68.034m0-22.68V0H77.955m42.52 113.387h-12.759V68.034m0-22.68V0h12.758" transform="matrix(1 0 0 -1 24.225 147.292)"/><use xlink:href="#a" x="120.768" y="36.056" style="fill:#000;fill-opacity:1"/><path style="fill-rule:nonzero;fill:#000;fill-opacity:1;stroke-width:.3985;stroke-linecap:butt;stroke-linejoin:miter;stroke:#000;stroke-opacity:1;stroke-miterlimit:10" d="M96.095 70.866a1.134 1.134 0 1 1-2.267-.001 1.134 1.134 0 0 1 2.267.001Zm8.505 0a1.134 1.134 0 1 1-2.268-.001 1.134 1.134 0 0 1 2.267.001Zm0 0" transform="matrix(1 0 0 -1 24.225 147.292)"/><use xlink:href="#b" x="3.894" y="35.377" style="fill:#000;fill-opacity:1"/><g style="fill:#000;fill-opacity:1"><use xlink:href="#c" x="10.659" y="36.871"/><use xlink:href="#d" x="14.07" y="36.871"/><use xlink:href="#e" x="15.863" y="36.871"/></g><path style="fill:none;stroke-width:.398;stroke-linecap:butt;stroke-linejoin:miter;stroke:#000;stroke-opacity:1;stroke-miterlimit:10" d="M0 .002h16.81" transform="matrix(1 0 0 -1 3.894 38.912)"/><use xlink:href="#b" x="3.321" y="148.317" style="fill:#000;fill-opacity:1"/><g style="fill:#000;fill-opacity:1"><use xlink:href="#c" x="10.085" y="150.703"/><use xlink:href="#d" x="13.496" y="150.703"/><use xlink:href="#f" x="15.289" y="150.703"/></g><path style="fill:none;stroke-width:.398;stroke-linecap:butt;stroke-linejoin:miter;stroke:#000;stroke-opacity:1;stroke-miterlimit:10" d="M0 .002h17.386" transform="matrix(1 0 0 -1 3.321 152.744)"/><use xlink:href="#b" x="254.516" y="35.377" style="fill:#000;fill-opacity:1"/><g style="fill:#000;fill-opacity:1"><use xlink:href="#g" x="261.281" y="36.871"/><use xlink:href="#d" x="265.433" y="36.871"/><use xlink:href="#e" x="267.227" y="36.871"/></g><path style="fill:none;stroke-width:.398;stroke-linecap:butt;stroke-linejoin:miter;stroke:#000;stroke-opacity:1;stroke-miterlimit:10" d="M0 .002h17.55" transform="matrix(1 0 0 -1 254.516 38.912)"/><use xlink:href="#b" x="254.516" y="148.317" style="fill:#000;fill-opacity:1"/><g style="fill:#000;fill-opacity:1"><use xlink:href="#g" x="261.281" y="150.703"/><use xlink:href="#d" x="265.433" y="150.703"/><use xlink:href="#f" x="267.227" y="150.703"/></g><path style="fill:none;stroke-width:.398;stroke-linecap:butt;stroke-linejoin:miter;stroke:#000;stroke-opacity:1;stroke-miterlimit:10" d="M0 .002h18.125" transform="matrix(1 0 0 -1 254.516 152.744)"/><use xlink:href="#b" x="254.516" y="92.07" style="fill:#000;fill-opacity:1"/><g style="fill:#000;fill-opacity:1"><use xlink:href="#g" x="261.281" y="93.564"/><use xlink:href="#d" x="265.433" y="93.564"/><use xlink:href="#h" x="267.227" y="93.564"/></g><path style="fill:none;stroke-width:.398;stroke-linecap:butt;stroke-linejoin:miter;stroke:#000;stroke-opacity:1;stroke-miterlimit:10" d="M0 0h17.855" transform="matrix(1 0 0 -1 254.516 95.605)"/><path style="fill:none;stroke-width:.3985;stroke-linecap:butt;stroke-linejoin:miter;stroke:#000;stroke-opacity:1;stroke-miterlimit:10" d="M.002 113.386h24.8m0 0H63.78m0 0h14.176" transform="matrix(1 0 0 -1 24.225 147.292)"/><path style="fill-rule:nonzero;fill:#000;fill-opacity:1;stroke-width:.3985;stroke-linecap:butt;stroke-linejoin:miter;stroke:#000;stroke-opacity:1;stroke-miterlimit:10" d="M1.134 113.386a1.134 1.134 0 1 1-2.269.004 1.134 1.134 0 0 1 2.27-.004Zm49.606 0c0 .629-.508 1.136-1.133 1.136a1.134 1.134 0 0 1 0-2.27c.625 0 1.133.509 1.133 1.134Zm-27.176 0v-1.414l3.012 1.414-3.012 1.418Zm0 0" transform="matrix(1 0 0 -1 24.225 147.292)"/><use xlink:href="#i" x="42.77" y="26.254" style="fill:#000;fill-opacity:1"/><g style="fill:#000;fill-opacity:1"><use xlink:href="#c" x="45.24" y="27.749"/><use xlink:href="#d" x="48.651" y="27.749"/><use xlink:href="#e" x="50.444" y="27.749"/></g><path style="fill:none;stroke-width:.398;stroke-linecap:butt;stroke-linejoin:miter;stroke:#000;stroke-opacity:1;stroke-miterlimit:10" d="M0 0h12.515" transform="matrix(1 0 0 -1 42.77 29.789)"/><path style="fill:none;stroke-width:.3985;stroke-linecap:butt;stroke-linejoin:miter;stroke:#000;stroke-opacity:1;stroke-miterlimit:10" d="M120.474 113.386h24.094m22.68 0h38.265m0 0h21.262" transform="matrix(1 0 0 -1 24.225 147.292)"/><path style="fill:none;stroke-width:.797;stroke-linecap:butt;stroke-linejoin:miter;stroke:#000;stroke-opacity:1;stroke-miterlimit:10" d="M144.568 117.64h22.68v-8.504h-22.68Zm0 0" transform="matrix(1 0 0 -1 24.225 147.292)"/><use xlink:href="#j" x="174.672" y="12.002" style="fill:#000;fill-opacity:1"/><use xlink:href="#g" x="180.938" y="13.496" style="fill:#000;fill-opacity:1"/><path style="fill:none;stroke-width:.398;stroke-linecap:butt;stroke-linejoin:miter;stroke:#000;stroke-opacity:1;stroke-miterlimit:10" d="M0 0h10.918" transform="matrix(1 0 0 -1 174.672 14.891)"/><path style="fill:none;stroke-width:.398;stroke-linecap:butt;stroke-linejoin:miter;stroke:#000;stroke-opacity:1;stroke-miterlimit:10" d="M0 0h10.918" transform="matrix(1 0 0 -1 174.672 16.883)"/><use xlink:href="#k" x="177.535" y="26.208" style="fill:#000;fill-opacity:1"/><path style="fill-rule:nonzero;fill:#000;fill-opacity:1;stroke-width:.3985;stroke-linecap:butt;stroke-linejoin:miter;stroke:#000;stroke-opacity:1;stroke-miterlimit:10" d="M227.908 113.386c0 .629-.508 1.136-1.133 1.136a1.134 1.134 0 0 1 0-2.27c.625 0 1.133.509 1.133 1.134Zm-21.153 0v1.418l-3.011-1.418 3.011-1.414Zm0 0" transform="matrix(1 0 0 -1 24.225 147.292)"/><use xlink:href="#i" x="223.108" y="26.254" style="fill:#000;fill-opacity:1"/><g style="fill:#000;fill-opacity:1"><use xlink:href="#g" x="225.578" y="27.749"/><use xlink:href="#d" x="229.73" y="27.749"/><use xlink:href="#e" x="231.524" y="27.749"/></g><path style="fill:none;stroke-width:.398;stroke-linecap:butt;stroke-linejoin:miter;stroke:#000;stroke-opacity:1;stroke-miterlimit:10" d="M.001 0H13.26" transform="matrix(1 0 0 -1 223.108 29.789)"/><path style="fill:none;stroke-width:.3985;stroke-linecap:butt;stroke-linejoin:miter;stroke:#000;stroke-opacity:1;stroke-miterlimit:10" d="M.002-.001h24.8m0 0H63.78m0 0h14.176" transform="matrix(1 0 0 -1 24.225 147.292)"/><path style="fill-rule:nonzero;fill:#000;fill-opacity:1;stroke-width:.3985;stroke-linecap:butt;stroke-linejoin:miter;stroke:#000;stroke-opacity:1;stroke-miterlimit:10" d="M1.134-.001A1.13 1.13 0 0 1 .002 1.132a1.132 1.132 0 1 1 0-2.266c.625 0 1.132.508 1.132 1.133Zm49.606 0c0 .629-.508 1.133-1.133 1.133A1.134 1.134 0 1 1 50.74-.001Zm-27.176 0v-1.418L26.576 0l-3.012 1.418Zm0 0" transform="matrix(1 0 0 -1 24.225 147.292)"/><use xlink:href="#i" x="42.483" y="138.748" style="fill:#000;fill-opacity:1"/><g style="fill:#000;fill-opacity:1"><use xlink:href="#c" x="44.953" y="141.135"/><use xlink:href="#d" x="48.364" y="141.135"/><use xlink:href="#f" x="50.157" y="141.135"/></g><path style="fill:none;stroke-width:.398;stroke-linecap:butt;stroke-linejoin:miter;stroke:#000;stroke-opacity:1;stroke-miterlimit:10" d="M.001 0h13.09" transform="matrix(1 0 0 -1 42.483 143.175)"/><path style="fill:none;stroke-width:.3985;stroke-linecap:butt;stroke-linejoin:miter;stroke:#000;stroke-opacity:1;stroke-miterlimit:10" d="M120.474-.001h24.094m22.68 0h38.265m0 0h21.262" transform="matrix(1 0 0 -1 24.225 147.292)"/><path style="fill:none;stroke-width:.797;stroke-linecap:butt;stroke-linejoin:miter;stroke:#000;stroke-opacity:1;stroke-miterlimit:10" d="M144.568 4.253h22.68v-8.504h-22.68Zm0 0" transform="matrix(1 0 0 -1 24.225 147.292)"/><use xlink:href="#j" x="174.672" y="160.982" style="fill:#000;fill-opacity:1"/><use xlink:href="#g" x="180.938" y="162.476" style="fill:#000;fill-opacity:1"/><path style="fill:none;stroke-width:.398;stroke-linecap:butt;stroke-linejoin:miter;stroke:#000;stroke-opacity:1;stroke-miterlimit:10" d="M0 0h10.918" transform="matrix(1 0 0 -1 174.672 163.871)"/><path style="fill:none;stroke-width:.398;stroke-linecap:butt;stroke-linejoin:miter;stroke:#000;stroke-opacity:1;stroke-miterlimit:10" d="M0 0h10.918" transform="matrix(1 0 0 -1 174.672 165.863)"/><use xlink:href="#k" x="177.535" y="175.188" style="fill:#000;fill-opacity:1"/><path style="fill-rule:nonzero;fill:#000;fill-opacity:1;stroke-width:.3985;stroke-linecap:butt;stroke-linejoin:miter;stroke:#000;stroke-opacity:1;stroke-miterlimit:10" d="M227.908-.001c0 .629-.508 1.133-1.133 1.133a1.134 1.134 0 1 1 1.133-1.133Zm-21.153 0v1.418l-3.011-1.418 3.011-1.418Zm0 0" transform="matrix(1 0 0 -1 24.225 147.292)"/><use xlink:href="#i" x="222.821" y="138.748" style="fill:#000;fill-opacity:1"/><g style="fill:#000;fill-opacity:1"><use xlink:href="#g" x="225.291" y="141.135"/><use xlink:href="#d" x="229.443" y="141.135"/><use xlink:href="#f" x="231.237" y="141.135"/></g><path style="fill:none;stroke-width:.398;stroke-linecap:butt;stroke-linejoin:miter;stroke:#000;stroke-opacity:1;stroke-miterlimit:10" d="M0 0h13.83" transform="matrix(1 0 0 -1 222.821 143.175)"/><path style="fill:none;stroke-width:.3985;stroke-linecap:butt;stroke-linejoin:miter;stroke:#000;stroke-opacity:1;stroke-miterlimit:10" d="M107.716 56.694h97.797m0 0h21.262" transform="matrix(1 0 0 -1 24.225 147.292)"/><path style="fill-rule:nonzero;fill:#000;fill-opacity:1;stroke-width:.3985;stroke-linecap:butt;stroke-linejoin:miter;stroke:#000;stroke-opacity:1;stroke-miterlimit:10" d="M227.908 56.694a1.134 1.134 0 1 1-2.267-.001 1.134 1.134 0 0 1 2.267.001Zm-21.153 0v1.418l-3.011-1.418 3.011-1.418Zm0 0" transform="matrix(1 0 0 -1 24.225 147.292)"/><use xlink:href="#i" x="222.956" y="82.947" style="fill:#000;fill-opacity:1"/><g style="fill:#000;fill-opacity:1"><use xlink:href="#g" x="225.427" y="84.442"/><use xlink:href="#d" x="229.579" y="84.442"/><use xlink:href="#h" x="231.373" y="84.442"/></g><path style="fill:none;stroke-width:.398;stroke-linecap:butt;stroke-linejoin:miter;stroke:#000;stroke-opacity:1;stroke-miterlimit:10" d="M.001.002H13.56" transform="matrix(1 0 0 -1 222.956 86.482)"/><path style="fill:none;stroke-width:.3985;stroke-linecap:butt;stroke-linejoin:miter;stroke:#000;stroke-opacity:1;stroke-miterlimit:10" d="M49.607 113.386V68.034m0-22.68V0" transform="matrix(1 0 0 -1 24.225 147.292)"/><path style="fill:none;stroke-width:.797;stroke-linecap:butt;stroke-linejoin:miter;stroke:#000;stroke-opacity:1;stroke-miterlimit:10" d="M45.353 45.355v22.68h8.504v-22.68Zm0 0" transform="matrix(1 0 0 -1 24.225 147.292)"/><use xlink:href="#l" x="80.448" y="93.185" style="fill:#000;fill-opacity:1"/><use xlink:href="#m" x="86.933" y="94.679" style="fill:#000;fill-opacity:1"/><path style="fill:none;stroke-width:.398;stroke-linecap:butt;stroke-linejoin:miter;stroke:#000;stroke-opacity:1;stroke-miterlimit:10" d="M.001 0H14.31" transform="matrix(1 0 0 -1 80.448 96.074)"/><use xlink:href="#n" x="67.23" y="55.691" style="fill:#000;fill-opacity:1"/><use xlink:href="#o" x="65.686" y="130.668" style="fill:#000;fill-opacity:1"/><use xlink:href="#p" x="42.209" y="91.624" style="fill:#000;fill-opacity:1"/><g style="fill:#000;fill-opacity:1"><use xlink:href="#c" x="49.731" y="94.01"/><use xlink:href="#d" x="53.142" y="94.01"/><use xlink:href="#e" x="54.935" y="94.01"/><use xlink:href="#f" x="59.279" y="94.01"/></g><path style="fill:none;stroke-width:.398;stroke-linecap:butt;stroke-linejoin:miter;stroke:#000;stroke-opacity:1;stroke-miterlimit:10" d="M.002 0h22.484" transform="matrix(1 0 0 -1 42.209 96.051)"/><use xlink:href="#n" x="206.41" y="44.955" style="fill:#000;fill-opacity:1"/><use xlink:href="#o" x="205.638" y="84.711" style="fill:#000;fill-opacity:1"/><use xlink:href="#p" x="199.322" y="63.724" style="fill:#000;fill-opacity:1"/><g style="fill:#000;fill-opacity:1"><use xlink:href="#g" x="206.844" y="65.218"/><use xlink:href="#d" x="210.996" y="65.218"/><use xlink:href="#e" x="212.79" y="65.218"/></g><path style="fill:none;stroke-width:.398;stroke-linecap:butt;stroke-linejoin:miter;stroke:#000;stroke-opacity:1;stroke-miterlimit:10" d="M-.002 0h18.313" transform="matrix(1 0 0 -1 199.322 67.258)"/><use xlink:href="#n" x="206.41" y="141.404" style="fill:#000;fill-opacity:1"/><use xlink:href="#o" x="205.638" y="101.648" style="fill:#000;fill-opacity:1"/><use xlink:href="#p" x="199.035" y="119.97" style="fill:#000;fill-opacity:1"/><g style="fill:#000;fill-opacity:1"><use xlink:href="#g" x="206.557" y="122.357"/><use xlink:href="#d" x="210.709" y="122.357"/><use xlink:href="#f" x="212.503" y="122.357"/></g><path style="fill:none;stroke-width:.398;stroke-linecap:butt;stroke-linejoin:miter;stroke:#000;stroke-opacity:1;stroke-miterlimit:10" d="M0-.001h18.883" transform="matrix(1 0 0 -1 199.035 124.397)"/><use xlink:href="#n" x="156.803" y="44.955" style="fill:#000;fill-opacity:1"/><use xlink:href="#o" x="156.031" y="84.711" style="fill:#000;fill-opacity:1"/><use xlink:href="#p" x="149.716" y="64.041" style="fill:#000;fill-opacity:1"/><use xlink:href="#q" x="157.238" y="60.122" style="fill:#000;fill-opacity:1"/><g style="fill:#000;fill-opacity:1"><use xlink:href="#g" x="157.238" y="66.504"/><use xlink:href="#d" x="161.39" y="66.504"/><use xlink:href="#e" x="163.184" y="66.504"/></g><path style="fill:none;stroke-width:.398;stroke-linecap:butt;stroke-linejoin:miter;stroke:#000;stroke-opacity:1;stroke-miterlimit:10" d="M-.001.001h18.308" transform="matrix(1 0 0 -1 149.716 68.544)"/><use xlink:href="#n" x="156.803" y="141.404" style="fill:#000;fill-opacity:1"/><use xlink:href="#o" x="156.031" y="101.648" style="fill:#000;fill-opacity:1"/><use xlink:href="#p" x="149.429" y="120.179" style="fill:#000;fill-opacity:1"/><use xlink:href="#q" x="156.951" y="116.26" style="fill:#000;fill-opacity:1"/><g style="fill:#000;fill-opacity:1"><use xlink:href="#g" x="156.951" y="123.752"/><use xlink:href="#d" x="161.103" y="123.752"/><use xlink:href="#f" x="162.897" y="123.752"/></g><path style="fill:none;stroke-width:.398;stroke-linecap:butt;stroke-linejoin:miter;stroke:#000;stroke-opacity:1;stroke-miterlimit:10" d="M0-.001h18.884" transform="matrix(1 0 0 -1 149.429 125.792)"/></svg>
