<svg xmlns="http://www.w3.org/2000/svg" xmlns:xlink="http://www.w3.org/1999/xlink" width="756.436" height="359.587" viewBox="0 0 567.327 269.69"><defs><symbol overflow="visible" id="f"><path style="stroke:none" d="M.86-7.078 3.39-.875l2.516-6.203h.735L3.703 0h-.625L.125-7.078Zm0 0"/></symbol><symbol overflow="visible" id="j"><path style="stroke:none" d="M.89 0v-7.078h.688V0Zm0 0"/></symbol><symbol overflow="visible" id="p"><path style="stroke:none" d="m.922-7.078 2.312 3.812 2.344-3.812h.75L3.594-2.625V0H2.89v-2.656L.156-7.078Zm0 0"/></symbol><symbol overflow="visible" id="r"><path style="stroke:none" d="M3.625-3.813v.547h-1.25v1.36H1.75v-1.36H.516v-.546H1.75v-1.344h.625v1.343Zm0 0"/></symbol><symbol overflow="visible" id="s"><path style="stroke:none" d="M.64-2.406v-.625h4.391v.625Zm0 0"/></symbol><symbol overflow="visible" id="t"><path style="stroke:none" d="M3.766.047c-.555 0-1.024-.098-1.407-.297a2.383 2.383 0 0 1-.921-.797 3.524 3.524 0 0 1-.5-1.14A5.496 5.496 0 0 1 .78-3.516v-3.562h.688v3.562c0 .375.035.743.11 1.094.081.344.206.656.374.938.176.28.41.507.703.671.29.157.66.235 1.11.235.445 0 .816-.082 1.109-.25.3-.176.535-.399.703-.672a3.18 3.18 0 0 0 .36-.938c.07-.351.109-.71.109-1.078v-3.562h.703v3.562c0 .48-.055.938-.156 1.375-.106.43-.278.805-.516 1.125a2.66 2.66 0 0 1-.937.782c-.375.187-.836.28-1.375.28Zm0 0"/></symbol><symbol overflow="visible" id="x"><path style="stroke:none" d="m.313-.547 4.812-5.906H.391v-.625h5.546v.547L1.173-.625h4.75V0H.312Zm0 0"/></symbol><symbol overflow="visible" id="g"><path style="stroke:none" d="M3.234-.5V0H.531v-.5h1.14v-3.406a1.14 1.14 0 0 1-.218.219c-.105.074-.226.14-.36.203-.124.062-.25.117-.374.156a1.106 1.106 0 0 1-.36.062v-.53c.125 0 .258-.032.407-.095a3.207 3.207 0 0 0 .75-.5.874.874 0 0 0 .156-.156h.547V-.5Zm0 0"/></symbol><symbol overflow="visible" id="h"><path style="stroke:none" d="m.688.64.14-.671H.641v-.75h.515v.75L.97.64Zm0 0"/></symbol><symbol overflow="visible" id="i"><path style="stroke:none" d="M.266-1.188c0-.257.07-.484.218-.671.145-.196.348-.348.61-.454a2.62 2.62 0 0 1 .922-.156c.195 0 .406.024.625.063.218.031.414.078.593.14v-.359c0-.344-.105-.617-.312-.828-.211-.207-.496-.313-.86-.313-.23 0-.453.043-.671.125a3.954 3.954 0 0 0-.672.36l-.203-.39c.27-.177.535-.313.796-.407.258-.094.524-.14.797-.14.508 0 .91.148 1.204.437.3.293.453.695.453 1.203v1.922c0 .074.015.133.046.172.032.03.083.046.157.046V0c-.063.008-.117.016-.156.016a.184.184 0 0 1-.094 0c-.137 0-.242-.04-.313-.125a.407.407 0 0 1-.094-.25l-.015-.313a1.86 1.86 0 0 1-.735.563 2.25 2.25 0 0 1-.89.187c-.274 0-.516-.058-.734-.172a1.367 1.367 0 0 1-.5-.453 1.222 1.222 0 0 1-.172-.64Zm2.78.313c.052-.07.095-.14.126-.203a.43.43 0 0 0 .062-.203v-.594a3.015 3.015 0 0 0-.578-.156 2.848 2.848 0 0 0-.578-.063c-.387 0-.7.078-.937.235a.691.691 0 0 0-.36.625c0 .156.035.304.11.437.082.137.203.25.359.344.156.086.336.125.547.125.258 0 .5-.05.719-.156.226-.102.406-.235.53-.391Zm0 0"/></symbol><symbol overflow="visible" id="k"><path style="stroke:none" d="m.672-5.656 1.86 2.453 1.827-2.453H5L2.828-2.781 4.938 0h-.641L2.53-2.375.734 0H.11l2.094-2.781L.047-5.656Zm0 0"/></symbol><symbol overflow="visible" id="l"><path style="stroke:none" d="M2.625.078a1.73 1.73 0 0 1-.906-.25 1.83 1.83 0 0 1-.64-.64V0H.593v-5.813h.547v2.532c.187-.281.41-.504.671-.672.258-.176.563-.266.907-.266.289 0 .55.063.781.188.227.117.426.277.594.484.164.2.289.43.375.688.082.261.125.527.125.796 0 .293-.055.57-.157.829A2.08 2.08 0 0 1 3.405-.093c-.242.113-.5.171-.781.171ZM2.5-.39c.227 0 .438-.046.625-.14a1.56 1.56 0 0 0 .484-.375c.145-.156.254-.332.329-.531A1.902 1.902 0 0 0 3.86-2.89a1.623 1.623 0 0 0-.516-.626 1.311 1.311 0 0 0-.781-.234 1.23 1.23 0 0 0-.594.156c-.18.094-.34.219-.485.375a2.4 2.4 0 0 0-.343.516v1.281a.91.91 0 0 0 .156.406c.094.125.207.235.344.329.132.085.273.156.421.218.157.055.301.078.438.078Zm0 0"/></symbol><symbol overflow="visible" id="m"><path style="stroke:none" d="m.734-5.656 1.86 3.047 1.86-3.047h.609L2.874-2.11V0h-.563v-2.125L.126-5.656Zm0 0"/></symbol><symbol overflow="visible" id="n"><path style="stroke:none" d="M2.406.078c-.312 0-.594-.058-.844-.172a2.06 2.06 0 0 1-.656-.469 2.263 2.263 0 0 1-.594-1.53c0-.384.086-.739.266-1.063.176-.332.422-.594.735-.781A2.055 2.055 0 0 1 2.39-4.22c.382 0 .722.09 1.015.266.301.18.524.418.672.719l-.531.171a1.22 1.22 0 0 0-.485-.5 1.353 1.353 0 0 0-.703-.187c-.273 0-.523.074-.75.219a1.57 1.57 0 0 0-.546.594c-.137.25-.204.53-.204.843 0 .313.067.602.204.86.144.25.328.453.546.609.227.156.485.234.766.234.176 0 .348-.03.516-.093.164-.07.312-.16.437-.266a.873.873 0 0 0 .25-.36l.547.157c-.074.2-.2.375-.375.531-.18.156-.383.281-.61.375a2.18 2.18 0 0 1-.734.125Zm0 0"/></symbol><symbol overflow="visible" id="o"><path style="stroke:none" d="m.25-.438 3.844-4.718H.312v-.5h4.422v.437L.938-.5h3.796V0H.25Zm0 0"/></symbol><symbol overflow="visible" id="q"><path style="stroke:none" d="M6.766 0h-.532v-2.313c0-.488-.078-.847-.234-1.078-.156-.226-.387-.343-.688-.343a1.23 1.23 0 0 0-.843.343 1.806 1.806 0 0 0-.516.86V0h-.547v-2.313c0-.488-.074-.847-.219-1.078-.148-.226-.374-.343-.687-.343-.305 0-.578.109-.828.328a1.77 1.77 0 0 0-.531.86V0H.594v-4.156h.5v.937c.176-.32.398-.566.672-.734.27-.176.57-.266.906-.266.351 0 .633.102.844.297.207.188.336.445.39.766.188-.352.414-.617.688-.797.27-.176.57-.266.906-.266.238 0 .438.043.594.125a.964.964 0 0 1 .39.36c.102.156.176.343.22.562a4.3 4.3 0 0 1 .062.735Zm0 0"/></symbol><symbol overflow="visible" id="v"><path style="stroke:none" d="M.344 0c0-.176.015-.36.047-.547.039-.187.101-.367.187-.547.094-.176.227-.347.406-.515.176-.164.407-.329.688-.485l.484-.219c.164-.082.32-.171.469-.265.145-.094.258-.195.344-.313a.765.765 0 0 0 .016-.813.748.748 0 0 0-.344-.312 1.274 1.274 0 0 0-.594-.125c-.168 0-.324.028-.469.079a1.333 1.333 0 0 0-.36.171 2.037 2.037 0 0 0-.265.22 2.11 2.11 0 0 1-.187.171l-.344-.375.172-.172a2.27 2.27 0 0 1 .36-.25 2.06 2.06 0 0 1 .515-.234c.207-.063.43-.094.672-.094.32 0 .597.059.828.172.226.117.406.266.531.453.125.188.188.398.188.625 0 .219-.047.406-.141.563a1.487 1.487 0 0 1-.36.406 3.516 3.516 0 0 1-.89.5 3.41 3.41 0 0 0-.625.36 1.97 1.97 0 0 0-.406.359A1.345 1.345 0 0 0 .922-.5h2.844V0Zm0 0"/></symbol><symbol overflow="visible" id="w"><path style="stroke:none" d="m.719-4.156 1.219 1.625.078.125.062-.125 1.203-1.625h.61L2.312-2.063 3.891 0h-.61L2.078-1.625l-.062-.11-.079.11L.734 0H.125l1.563-2.063L.125-4.155Zm0 0"/></symbol><symbol overflow="visible" id="y"><path style="stroke:none" d="M4.438-2.328c0 .46-.09.871-.266 1.234a2.05 2.05 0 0 1-.703.86c-.305.21-.649.312-1.031.312a1.75 1.75 0 0 1-1.032-.312 2.173 2.173 0 0 1-.703-.86 2.742 2.742 0 0 1-.265-1.234c0-.469.085-.883.265-1.25.176-.363.41-.649.703-.86a1.779 1.779 0 0 1 1.032-.312c.382 0 .726.105 1.03.313.302.21.536.496.704.859.176.367.266.781.266 1.25Zm-.547 0c0-.383-.063-.719-.188-1A1.567 1.567 0 0 0 3.188-4a1.19 1.19 0 0 0-.75-.25 1.22 1.22 0 0 0-.75.25c-.22.156-.391.383-.516.672a2.456 2.456 0 0 0-.188 1c0 .375.063.71.188 1 .125.281.297.5.516.656.218.156.468.235.75.235.289 0 .539-.079.75-.235.218-.164.39-.39.515-.672.125-.281.188-.61.188-.984Zm0 0"/></symbol><symbol overflow="visible" id="z"><path style="stroke:none" d="M.844 1.281h.203c.07.008.125.008.156 0 .063-.011.117-.054.172-.125.063-.062.133-.183.219-.36.082-.179.191-.444.328-.796L.125-4.156h.563l1.53 3.593 1.407-3.593h.531l-2.14 5.36a1.156 1.156 0 0 1-.172.28.639.639 0 0 1-.282.204 1.13 1.13 0 0 1-.406.093h-.14c-.055 0-.11-.008-.172-.015Zm0 0"/></symbol><symbol overflow="visible" id="A"><path style="stroke:none" d="m.25-.36 2.781-3.39H.312v-.406h3.329v.375L.875-.406h2.766V0H.25Zm0 0"/></symbol><symbol overflow="visible" id="B"><path style="stroke:none" d="M4.094 0h-.547v-2.313c0-.488-.074-.847-.219-1.078-.148-.226-.371-.343-.672-.343-.219 0-.433.054-.64.156a1.89 1.89 0 0 0-.532.422c-.156.18-.273.383-.343.61V0H.594v-4.156h.5v.937c.113-.195.258-.367.437-.515.176-.157.38-.274.61-.36.226-.082.468-.125.718-.125.227 0 .422.043.579.125a.974.974 0 0 1 .374.36c.094.156.16.343.204.562.05.219.078.465.078.735Zm0 0"/></symbol><symbol overflow="visible" id="u"><path style="stroke:none" d="M2.453-2.547c.664-.133 1.164-.351 1.5-.656.344-.3.516-.617.516-.953 0-.196-.059-.344-.172-.438a.698.698 0 0 0-.453-.14c-.305 0-.617.101-.938.296a3.84 3.84 0 0 0-.922.813 5.51 5.51 0 0 0-.765 1.203l.203-1.094a5.89 5.89 0 0 1 .766-.906c.269-.27.554-.484.859-.64.312-.157.629-.235.953-.235.375 0 .648.102.828.297.188.188.281.438.281.75 0 .438-.164.836-.484 1.188-.313.343-.766.617-1.36.812L4.423 0h-.734ZM1.641-7.28h.671L.766 0H.094Zm0 0"/></symbol><clipPath id="a"><path d="M0 0h72v269.691H0Zm0 0"/></clipPath><clipPath id="b"><path d="M85 0h58v269.691H85Zm0 0"/></clipPath><clipPath id="c"><path d="M425 0h58v269.691h-58Zm0 0"/></clipPath><clipPath id="d"><path d="M496 0h71.328v269.691H496Zm0 0"/></clipPath><clipPath id="e"><path d="M155 0h257v269.691H155Zm0 0"/></clipPath></defs><path style="stroke:none;fill-rule:nonzero;fill:#fff;fill-opacity:1" d="M0 269.691V-.004h567.336v269.695Zm0 0"/><g clip-path="url(#a)"><path style="fill:none;stroke-width:.3985;stroke-linecap:butt;stroke-linejoin:miter;stroke:#00f;stroke-opacity:1;stroke-dasharray:2.98883,2.98883;stroke-miterlimit:10" d="M0-28.348v269.297h70.867V-28.348Zm0 0" transform="matrix(1 0 0 -1 .199 241.144)"/></g><g clip-path="url(#b)"><path style="fill:none;stroke-width:.3985;stroke-linecap:butt;stroke-linejoin:miter;stroke:#00f;stroke-opacity:1;stroke-miterlimit:10" d="M85.04-28.348v269.297h56.695V-28.348Zm0 0" transform="matrix(1 0 0 -1 .199 241.144)"/></g><g clip-path="url(#c)"><path style="fill:none;stroke-width:.3985;stroke-linecap:butt;stroke-linejoin:miter;stroke:#00f;stroke-opacity:1;stroke-miterlimit:10" d="M425.203-28.348v269.297h56.692V-28.348Zm0 0" transform="matrix(1 0 0 -1 .199 241.144)"/></g><g clip-path="url(#d)"><path style="fill:none;stroke-width:.3985;stroke-linecap:butt;stroke-linejoin:miter;stroke:#00f;stroke-opacity:1;stroke-dasharray:2.98883,2.98883;stroke-miterlimit:10" d="M496.07-28.348v269.297h70.868V-28.348Zm0 0" transform="matrix(1 0 0 -1 .199 241.144)"/></g><g clip-path="url(#e)"><path style="fill:none;stroke-width:.3985;stroke-linecap:butt;stroke-linejoin:miter;stroke:#00f;stroke-opacity:1;stroke-dasharray:2.98883,2.98883;stroke-miterlimit:10" d="M155.906-28.348v269.297h255.122V-28.348Zm0 0" transform="matrix(1 0 0 -1 .199 241.144)"/></g><path style="fill:none;stroke-width:.3985;stroke-linecap:butt;stroke-linejoin:bevel;stroke:#000;stroke-opacity:1;stroke-miterlimit:10" d="M99.215 138.898v1.703c-.629 0-1.137.508-1.137 1.133s.508 1.133 1.137 1.133v1.703m-2.835-2.836h1.417m.567 0h3.683M99.215 68.03v1.704c-.629 0-1.137.508-1.137 1.133s.508 1.132 1.137 1.132v1.704m-2.835-2.836h1.417m.567 0h3.683" transform="matrix(1 0 0 -1 .199 241.144)"/><path style="fill:none;stroke-width:.3985;stroke-linecap:butt;stroke-linejoin:miter;stroke:#000;stroke-opacity:1;stroke-miterlimit:10" d="M28.348 212.601h28.348m0 0h56.69m0 0h56.696m0 0h56.692m0 0h28.347" transform="matrix(1 0 0 -1 .199 241.144)"/><use xlink:href="#f" x="8.215" y="30.017" style="fill:#000;fill-opacity:1"/><g style="fill:#000;fill-opacity:1"><use xlink:href="#g" x="14.98" y="31.511"/><use xlink:href="#h" x="18.391" y="31.511"/><use xlink:href="#i" x="20.184" y="31.511"/></g><path style="fill:none;stroke-width:.398;stroke-linecap:butt;stroke-linejoin:miter;stroke:#000;stroke-opacity:1;stroke-miterlimit:10" d="M0 0h16.812" transform="matrix(1 0 0 -1 8.215 33.551)"/><path style="fill-rule:nonzero;fill:#000;fill-opacity:1;stroke-width:.3985;stroke-linecap:butt;stroke-linejoin:miter;stroke:#000;stroke-opacity:1;stroke-miterlimit:10" d="M55.453 212.601v-1.418l3.012 1.418-3.012 1.418Zm0 0" transform="matrix(1 0 0 -1 .199 241.144)"/><use xlink:href="#j" x="50.634" y="20.894" style="fill:#000;fill-opacity:1"/><g style="fill:#000;fill-opacity:1"><use xlink:href="#g" x="53.104" y="22.388"/><use xlink:href="#h" x="56.515" y="22.388"/><use xlink:href="#i" x="58.308" y="22.388"/></g><path style="fill:none;stroke-width:.398;stroke-linecap:butt;stroke-linejoin:miter;stroke:#000;stroke-opacity:1;stroke-miterlimit:10" d="M-.001-.002h12.52" transform="matrix(1 0 0 -1 50.634 24.428)"/><path style="fill-rule:nonzero;fill:#000;fill-opacity:1;stroke-width:.3985;stroke-linecap:butt;stroke-linejoin:miter;stroke:#000;stroke-opacity:1;stroke-miterlimit:10" d="M168.84 212.601v-1.418l3.012 1.418-3.012 1.418Zm0 0" transform="matrix(1 0 0 -1 .199 241.144)"/><use xlink:href="#j" x="166.275" y="20.807" style="fill:#000;fill-opacity:1"/><use xlink:href="#k" x="168.746" y="23.034" style="fill:#000;fill-opacity:1"/><path style="fill:none;stroke-width:.398;stroke-linecap:butt;stroke-linejoin:miter;stroke:#000;stroke-opacity:1;stroke-miterlimit:10" d="M-.002-.002h8.008" transform="matrix(1 0 0 -1 166.275 24.428)"/><path style="fill:none;stroke-width:.3985;stroke-linecap:butt;stroke-linejoin:miter;stroke:#000;stroke-opacity:1;stroke-miterlimit:10" d="M28.348 141.734h28.348m0 0H90.71m0 0h5.668m5.668 0h19.844m0 0h48.191m0 0h56.692m0 0h28.347" transform="matrix(1 0 0 -1 .199 241.144)"/><use xlink:href="#f" x="7.641" y="100.437" style="fill:#000;fill-opacity:1"/><g style="fill:#000;fill-opacity:1"><use xlink:href="#g" x="14.406" y="102.823"/><use xlink:href="#h" x="17.817" y="102.823"/><use xlink:href="#l" x="19.61" y="102.823"/></g><path style="fill:none;stroke-width:.398;stroke-linecap:butt;stroke-linejoin:miter;stroke:#000;stroke-opacity:1;stroke-miterlimit:10" d="M0 0h17.386" transform="matrix(1 0 0 -1 7.641 104.863)"/><path style="fill-rule:nonzero;fill:#000;fill-opacity:1;stroke-width:.3985;stroke-linecap:butt;stroke-linejoin:miter;stroke:#000;stroke-opacity:1;stroke-miterlimit:10" d="M55.453 141.734v-1.418l3.012 1.418-3.012 1.418Zm0 0" transform="matrix(1 0 0 -1 .199 241.144)"/><use xlink:href="#j" x="50.347" y="90.868" style="fill:#000;fill-opacity:1"/><g style="fill:#000;fill-opacity:1"><use xlink:href="#g" x="52.817" y="93.254"/><use xlink:href="#h" x="56.228" y="93.254"/><use xlink:href="#l" x="58.021" y="93.254"/></g><path style="fill:none;stroke-width:.398;stroke-linecap:butt;stroke-linejoin:miter;stroke:#000;stroke-opacity:1;stroke-miterlimit:10" d="M0-.002h13.09" transform="matrix(1 0 0 -1 50.347 95.295)"/><path style="fill-rule:nonzero;fill:#000;fill-opacity:1;stroke-width:.3985;stroke-linecap:butt;stroke-linejoin:miter;stroke:#000;stroke-opacity:1;stroke-miterlimit:10" d="M168.84 141.734v-1.418l3.012 1.418-3.012 1.418Zm0 0" transform="matrix(1 0 0 -1 .199 241.144)"/><use xlink:href="#j" x="166.199" y="91.673" style="fill:#000;fill-opacity:1"/><use xlink:href="#m" x="168.67" y="93.9" style="fill:#000;fill-opacity:1"/><path style="fill:none;stroke-width:.398;stroke-linecap:butt;stroke-linejoin:miter;stroke:#000;stroke-opacity:1;stroke-miterlimit:10" d="M0-.002h8.156" transform="matrix(1 0 0 -1 166.199 95.295)"/><path style="fill:none;stroke-width:.3985;stroke-linecap:butt;stroke-linejoin:miter;stroke:#000;stroke-opacity:1;stroke-miterlimit:10" d="M28.348 70.867h28.348m0 0H90.71m0 0h5.668m5.668 0h19.844m0 0h48.191m0 0h56.692m0 0h28.347" transform="matrix(1 0 0 -1 .199 241.144)"/><use xlink:href="#f" x="8.183" y="171.749" style="fill:#000;fill-opacity:1"/><g style="fill:#000;fill-opacity:1"><use xlink:href="#g" x="14.948" y="173.243"/><use xlink:href="#h" x="18.359" y="173.243"/><use xlink:href="#n" x="20.152" y="173.243"/></g><path style="fill:none;stroke-width:.398;stroke-linecap:butt;stroke-linejoin:miter;stroke:#000;stroke-opacity:1;stroke-miterlimit:10" d="M0 .002h16.844" transform="matrix(1 0 0 -1 8.183 175.283)"/><path style="fill-rule:nonzero;fill:#000;fill-opacity:1;stroke-width:.3985;stroke-linecap:butt;stroke-linejoin:miter;stroke:#000;stroke-opacity:1;stroke-miterlimit:10" d="M55.453 70.867v-1.418l3.012 1.418-3.012 1.418Zm0 0" transform="matrix(1 0 0 -1 .199 241.144)"/><use xlink:href="#j" x="50.618" y="162.626" style="fill:#000;fill-opacity:1"/><g style="fill:#000;fill-opacity:1"><use xlink:href="#g" x="53.088" y="164.12"/><use xlink:href="#h" x="56.499" y="164.12"/><use xlink:href="#n" x="58.292" y="164.12"/></g><path style="fill:none;stroke-width:.398;stroke-linecap:butt;stroke-linejoin:miter;stroke:#000;stroke-opacity:1;stroke-miterlimit:10" d="M0 0h12.55" transform="matrix(1 0 0 -1 50.618 166.161)"/><path style="fill-rule:nonzero;fill:#000;fill-opacity:1;stroke-width:.3985;stroke-linecap:butt;stroke-linejoin:miter;stroke:#000;stroke-opacity:1;stroke-miterlimit:10" d="M168.84 70.867v-1.418l3.012 1.418-3.012 1.418Zm0 0" transform="matrix(1 0 0 -1 .199 241.144)"/><use xlink:href="#j" x="166.287" y="162.539" style="fill:#000;fill-opacity:1"/><use xlink:href="#o" x="168.758" y="164.766" style="fill:#000;fill-opacity:1"/><path style="fill:none;stroke-width:.398;stroke-linecap:butt;stroke-linejoin:miter;stroke:#000;stroke-opacity:1;stroke-miterlimit:10" d="M-.002 0h7.985" transform="matrix(1 0 0 -1 166.287 166.161)"/><path style="fill:none;stroke-width:.797;stroke-linecap:butt;stroke-linejoin:bevel;stroke:#000;stroke-opacity:1;stroke-miterlimit:10" d="M274.805 197.41c2.348 0 4.25-1.313 4.25-2.934 0-1.621-1.902-2.937-4.25-2.937 2.348 0 4.25-1.313 4.25-2.934 0-1.621-1.902-2.934-4.25-2.934 2.348 0 4.25-1.312 4.25-2.933 0-1.621-1.902-2.934-4.25-2.934 2.348 0 4.25-1.316 4.25-2.933 0-1.622-1.902-2.938-4.25-2.938m17.328 0c-2.352 0-4.254 1.316-4.254 2.938 0 1.617 1.902 2.933 4.254 2.933-2.352 0-4.254 1.313-4.254 2.934 0 1.62 1.902 2.933 4.254 2.933-2.352 0-4.254 1.313-4.254 2.934 0 1.621 1.902 2.934 4.254 2.934-2.352 0-4.254 1.316-4.254 2.937 0 1.621 1.902 2.934 4.254 2.934" transform="matrix(1 0 0 -1 .199 241.144)"/><path style="fill:none;stroke-width:.3985;stroke-linecap:butt;stroke-linejoin:miter;stroke:#000;stroke-opacity:1;stroke-miterlimit:10" d="M262.207 212.601h12.758v-15.59m0-22.68v-15.59h-12.758m42.52 53.86h-12.754v-15.59m0-22.68v-15.59h12.754m-49.606 53.86h3.543m0 0h3.543m-134.648-70.867v8.504m0 0v8.504h35.433m0 0h63.782m0 0h31.89m0 0h3.543" transform="matrix(1 0 0 -1 .199 241.144)"/><path style="fill-rule:nonzero;fill:#000;fill-opacity:1;stroke-width:.3985;stroke-linecap:butt;stroke-linejoin:miter;stroke:#000;stroke-opacity:1;stroke-miterlimit:10" d="M128.696 141.734a1.134 1.134 0 0 1-2.27 0 1.134 1.134 0 0 1 2.27 0Zm0 0" transform="matrix(1 0 0 -1 .199 241.144)"/><path style="fill:none;stroke-width:.3985;stroke-linecap:butt;stroke-linejoin:miter;stroke:#000;stroke-opacity:1;stroke-miterlimit:10" d="M198.426 212.601v-15.59m0-22.68v-15.59" transform="matrix(1 0 0 -1 .199 241.144)"/><path style="fill:none;stroke-width:.797;stroke-linecap:butt;stroke-linejoin:miter;stroke:#000;stroke-opacity:1;stroke-miterlimit:10" d="M194.176 174.332v22.68h8.504v-22.68Zm0 0" transform="matrix(1 0 0 -1 .199 241.144)"/><use xlink:href="#p" x="205.241" y="58.06" style="fill:#000;fill-opacity:1"/><g style="fill:#000;fill-opacity:1"><use xlink:href="#q" x="211.726" y="59.555"/><use xlink:href="#h" x="219.051" y="59.555"/><use xlink:href="#i" x="220.844" y="59.555"/></g><path style="fill:none;stroke-width:.398;stroke-linecap:butt;stroke-linejoin:miter;stroke:#000;stroke-opacity:1;stroke-miterlimit:10" d="M.001.001h20.445" transform="matrix(1 0 0 -1 205.241 61.595)"/><use xlink:href="#r" x="192.023" y="38.425" style="fill:#000;fill-opacity:1"/><use xlink:href="#s" x="190.479" y="77.685" style="fill:#000;fill-opacity:1"/><use xlink:href="#t" x="176.431" y="56.902" style="fill:#000;fill-opacity:1"/><use xlink:href="#k" x="183.952" y="59.129" style="fill:#000;fill-opacity:1"/><path style="fill:none;stroke-width:.398;stroke-linecap:butt;stroke-linejoin:miter;stroke:#000;stroke-opacity:1;stroke-miterlimit:10" d="M-.001 0h13.058" transform="matrix(1 0 0 -1 176.431 60.524)"/><path style="fill-rule:nonzero;fill:#000;fill-opacity:1;stroke-width:.3985;stroke-linecap:butt;stroke-linejoin:miter;stroke:#000;stroke-opacity:1;stroke-miterlimit:10" d="M198.426 206.046h-1.414l1.414-3.011 1.418 3.011Zm0 0" transform="matrix(1 0 0 -1 .199 241.144)"/><use xlink:href="#j" x="202.144" y="37.812" style="fill:#000;fill-opacity:1"/><g style="fill:#000;fill-opacity:1"><use xlink:href="#q" x="204.615" y="39.306"/><use xlink:href="#h" x="211.94" y="39.306"/><use xlink:href="#i" x="213.733" y="39.306"/></g><path style="fill:none;stroke-width:.398;stroke-linecap:butt;stroke-linejoin:miter;stroke:#000;stroke-opacity:1;stroke-miterlimit:10" d="M0-.002h16.43" transform="matrix(1 0 0 -1 202.144 41.346)"/><use xlink:href="#u" x="280.994" y="30.695" style="fill:#000;fill-opacity:1"/><path style="fill-rule:nonzero;fill:#000;fill-opacity:1;stroke-width:.3985;stroke-linecap:butt;stroke-linejoin:miter;stroke:#000;stroke-opacity:1;stroke-miterlimit:10" d="M280.352 199.843a1.135 1.135 0 1 1-2.27.003 1.135 1.135 0 0 1 2.27-.003Zm8.5 0a1.132 1.132 0 1 1-2.266 0 1.134 1.134 0 0 1 2.266 0Zm0 0" transform="matrix(1 0 0 -1 .199 241.144)"/><path style="fill:none;stroke-width:.797;stroke-linecap:butt;stroke-linejoin:bevel;stroke:#000;stroke-opacity:1;stroke-miterlimit:10" d="M274.805 126.542c2.348 0 4.25-1.312 4.25-2.933 0-1.621-1.902-2.938-4.25-2.938 2.348 0 4.25-1.312 4.25-2.933 0-1.621-1.902-2.934-4.25-2.934 2.348 0 4.25-1.312 4.25-2.933 0-1.622-1.902-2.934-4.25-2.934 2.348 0 4.25-1.316 4.25-2.934 0-1.62-1.902-2.937-4.25-2.937m17.328 0c-2.352 0-4.254 1.316-4.254 2.937 0 1.618 1.902 2.934 4.254 2.934-2.352 0-4.254 1.312-4.254 2.934 0 1.62 1.902 2.933 4.254 2.933-2.352 0-4.254 1.313-4.254 2.934 0 1.62 1.902 2.933 4.254 2.933-2.352 0-4.254 1.317-4.254 2.938 0 1.62 1.902 2.933 4.254 2.933" transform="matrix(1 0 0 -1 .199 241.144)"/><path style="fill:none;stroke-width:.3985;stroke-linecap:butt;stroke-linejoin:miter;stroke:#000;stroke-opacity:1;stroke-miterlimit:10" d="M262.207 141.734h12.758v-15.59m0-22.68v-15.59h-12.758m42.52 53.86h-12.754v-15.59m0-22.68v-15.59h12.754m-49.606 53.86h3.543m0 0h3.543M127.559 70.867v8.504m0 0v8.503h35.433m0 0h63.782m0 0h31.89m0 0h3.543" transform="matrix(1 0 0 -1 .199 241.144)"/><path style="fill-rule:nonzero;fill:#000;fill-opacity:1;stroke-width:.3985;stroke-linecap:butt;stroke-linejoin:miter;stroke:#000;stroke-opacity:1;stroke-miterlimit:10" d="M128.696 70.867a1.134 1.134 0 0 1-2.27 0 1.134 1.134 0 0 1 2.27 0Zm0 0" transform="matrix(1 0 0 -1 .199 241.144)"/><path style="fill:none;stroke-width:.3985;stroke-linecap:butt;stroke-linejoin:miter;stroke:#000;stroke-opacity:1;stroke-miterlimit:10" d="M198.426 141.734v-15.59m0-22.68v-15.59" transform="matrix(1 0 0 -1 .199 241.144)"/><path style="fill:none;stroke-width:.797;stroke-linecap:butt;stroke-linejoin:miter;stroke:#000;stroke-opacity:1;stroke-miterlimit:10" d="M194.176 103.464v22.68h8.504v-22.68Zm0 0" transform="matrix(1 0 0 -1 .199 241.144)"/><use xlink:href="#p" x="205.241" y="128.926" style="fill:#000;fill-opacity:1"/><g style="fill:#000;fill-opacity:1"><use xlink:href="#q" x="211.726" y="131.313"/><use xlink:href="#h" x="219.051" y="131.313"/><use xlink:href="#l" x="220.844" y="131.313"/></g><path style="fill:none;stroke-width:.398;stroke-linecap:butt;stroke-linejoin:miter;stroke:#000;stroke-opacity:1;stroke-miterlimit:10" d="M.001.001h21.02" transform="matrix(1 0 0 -1 205.241 133.353)"/><use xlink:href="#r" x="192.023" y="109.291" style="fill:#000;fill-opacity:1"/><use xlink:href="#s" x="190.479" y="148.551" style="fill:#000;fill-opacity:1"/><use xlink:href="#t" x="176.279" y="127.768" style="fill:#000;fill-opacity:1"/><use xlink:href="#m" x="183.801" y="129.995" style="fill:#000;fill-opacity:1"/><path style="fill:none;stroke-width:.398;stroke-linecap:butt;stroke-linejoin:miter;stroke:#000;stroke-opacity:1;stroke-miterlimit:10" d="M-.002 0H13.21" transform="matrix(1 0 0 -1 176.279 131.39)"/><path style="fill-rule:nonzero;fill:#000;fill-opacity:1;stroke-width:.3985;stroke-linecap:butt;stroke-linejoin:miter;stroke:#000;stroke-opacity:1;stroke-miterlimit:10" d="M198.426 135.18h-1.414l1.414-3.013 1.418 3.012Zm0 0" transform="matrix(1 0 0 -1 .199 241.144)"/><use xlink:href="#j" x="202.144" y="108.232" style="fill:#000;fill-opacity:1"/><g style="fill:#000;fill-opacity:1"><use xlink:href="#q" x="204.615" y="110.618"/><use xlink:href="#h" x="211.94" y="110.618"/><use xlink:href="#l" x="213.733" y="110.618"/></g><path style="fill:none;stroke-width:.398;stroke-linecap:butt;stroke-linejoin:miter;stroke:#000;stroke-opacity:1;stroke-miterlimit:10" d="M0-.001h17.004" transform="matrix(1 0 0 -1 202.144 112.659)"/><use xlink:href="#u" x="280.994" y="101.562" style="fill:#000;fill-opacity:1"/><path style="fill-rule:nonzero;fill:#000;fill-opacity:1;stroke-width:.3985;stroke-linecap:butt;stroke-linejoin:miter;stroke:#000;stroke-opacity:1;stroke-miterlimit:10" d="M280.352 128.98a1.134 1.134 0 1 1-2.27-.003 1.134 1.134 0 0 1 2.27.003Zm8.5 0a1.134 1.134 0 1 1-2.264-.002 1.134 1.134 0 0 1 2.264.002Zm0 0" transform="matrix(1 0 0 -1 .199 241.144)"/><path style="fill:none;stroke-width:.797;stroke-linecap:butt;stroke-linejoin:bevel;stroke:#000;stroke-opacity:1;stroke-miterlimit:10" d="M274.805 55.675c2.348 0 4.25-1.312 4.25-2.933 0-1.621-1.902-2.934-4.25-2.934 2.348 0 4.25-1.316 4.25-2.937 0-1.622-1.902-2.934-4.25-2.934 2.348 0 4.25-1.313 4.25-2.934 0-1.62-1.902-2.933-4.25-2.933 2.348 0 4.25-1.317 4.25-2.934 0-1.62-1.902-2.937-4.25-2.937m17.328 0c-2.352 0-4.254 1.316-4.254 2.937 0 1.617 1.902 2.934 4.254 2.934-2.352 0-4.254 1.312-4.254 2.933 0 1.621 1.902 2.934 4.254 2.934-2.352 0-4.254 1.312-4.254 2.934 0 1.62 1.902 2.937 4.254 2.937-2.352 0-4.254 1.313-4.254 2.934 0 1.62 1.902 2.933 4.254 2.933" transform="matrix(1 0 0 -1 .199 241.144)"/><path style="fill:none;stroke-width:.3985;stroke-linecap:butt;stroke-linejoin:miter;stroke:#000;stroke-opacity:1;stroke-miterlimit:10" d="M262.207 70.867h12.758v-15.59m0-22.68v-15.59h-12.758m42.52 53.86h-12.754v-15.59m0-22.68v-15.59h12.754m-49.606 53.86h3.543m0 0h3.543M99.215 212.601v-34.016m0 0V144.57m0-5.672V106.3m0 0V73.703m0-5.672V42.519m0 0V17.007h49.606m0 0h77.953m0 0h31.89m0 0h3.543" transform="matrix(1 0 0 -1 .199 241.144)"/><path style="fill-rule:nonzero;fill:#000;fill-opacity:1;stroke-width:.3985;stroke-linecap:butt;stroke-linejoin:miter;stroke:#000;stroke-opacity:1;stroke-miterlimit:10" d="M100.348 212.601a1.134 1.134 0 1 1-2.267-.002 1.134 1.134 0 0 1 2.267.002Zm0 0" transform="matrix(1 0 0 -1 .199 241.144)"/><path style="fill:none;stroke-width:.3985;stroke-linecap:butt;stroke-linejoin:miter;stroke:#000;stroke-opacity:1;stroke-miterlimit:10" d="M198.426 70.867v-15.59m0-22.68v-15.59" transform="matrix(1 0 0 -1 .199 241.144)"/><path style="fill:none;stroke-width:.797;stroke-linecap:butt;stroke-linejoin:miter;stroke:#000;stroke-opacity:1;stroke-miterlimit:10" d="M194.176 32.597v22.68h8.504v-22.68Zm0 0" transform="matrix(1 0 0 -1 .199 241.144)"/><use xlink:href="#p" x="205.241" y="199.793" style="fill:#000;fill-opacity:1"/><g style="fill:#000;fill-opacity:1"><use xlink:href="#q" x="211.726" y="201.287"/><use xlink:href="#h" x="219.051" y="201.287"/><use xlink:href="#n" x="220.844" y="201.287"/></g><path style="fill:none;stroke-width:.398;stroke-linecap:butt;stroke-linejoin:miter;stroke:#000;stroke-opacity:1;stroke-miterlimit:10" d="M.001-.001h20.477" transform="matrix(1 0 0 -1 205.241 203.327)"/><use xlink:href="#r" x="192.023" y="180.158" style="fill:#000;fill-opacity:1"/><use xlink:href="#s" x="190.479" y="219.418" style="fill:#000;fill-opacity:1"/><use xlink:href="#t" x="176.454" y="198.634" style="fill:#000;fill-opacity:1"/><use xlink:href="#o" x="183.976" y="200.861" style="fill:#000;fill-opacity:1"/><path style="fill:none;stroke-width:.398;stroke-linecap:butt;stroke-linejoin:miter;stroke:#000;stroke-opacity:1;stroke-miterlimit:10" d="M0-.002h13.034" transform="matrix(1 0 0 -1 176.454 202.256)"/><path style="fill-rule:nonzero;fill:#000;fill-opacity:1;stroke-width:.3985;stroke-linecap:butt;stroke-linejoin:miter;stroke:#000;stroke-opacity:1;stroke-miterlimit:10" d="M198.426 64.312h-1.414l1.414-3.012 1.418 3.012Zm0 0" transform="matrix(1 0 0 -1 .199 241.144)"/><use xlink:href="#j" x="202.144" y="179.544" style="fill:#000;fill-opacity:1"/><g style="fill:#000;fill-opacity:1"><use xlink:href="#q" x="204.615" y="181.038"/><use xlink:href="#h" x="211.94" y="181.038"/><use xlink:href="#n" x="213.733" y="181.038"/></g><path style="fill:none;stroke-width:.398;stroke-linecap:butt;stroke-linejoin:miter;stroke:#000;stroke-opacity:1;stroke-miterlimit:10" d="M0 0h16.461" transform="matrix(1 0 0 -1 202.144 183.079)"/><use xlink:href="#u" x="280.994" y="172.428" style="fill:#000;fill-opacity:1"/><path style="fill-rule:nonzero;fill:#000;fill-opacity:1;stroke-width:.3985;stroke-linecap:butt;stroke-linejoin:miter;stroke:#000;stroke-opacity:1;stroke-miterlimit:10" d="M280.352 58.113a1.134 1.134 0 1 1-2.27-.004 1.134 1.134 0 0 1 2.27.004Zm8.5 0a1.134 1.134 0 1 1-2.264-.002 1.134 1.134 0 0 1 2.264.002Zm0 0" transform="matrix(1 0 0 -1 .199 241.144)"/><path style="fill:none;stroke-width:.3985;stroke-linecap:butt;stroke-linejoin:miter;stroke:#000;stroke-opacity:1;stroke-miterlimit:10" d="M538.59 212.601h-28.348m0 0h-56.695m0 0h-49.605m0 0h-38.27m-22.676 0h-24.093m0 0H308.27m0 0h-3.543" transform="matrix(1 0 0 -1 .199 241.144)"/><use xlink:href="#f" x="542.301" y="30.017" style="fill:#000;fill-opacity:1"/><g style="fill:#000;fill-opacity:1"><use xlink:href="#v" x="549.066" y="31.511"/><use xlink:href="#h" x="553.218" y="31.511"/><use xlink:href="#i" x="555.012" y="31.511"/></g><path style="fill:none;stroke-width:.398;stroke-linecap:butt;stroke-linejoin:miter;stroke:#000;stroke-opacity:1;stroke-miterlimit:10" d="M0 0h17.55" transform="matrix(1 0 0 -1 542.301 33.551)"/><path style="fill-rule:nonzero;fill:#000;fill-opacity:1;stroke-width:.3985;stroke-linecap:butt;stroke-linejoin:miter;stroke:#000;stroke-opacity:1;stroke-miterlimit:10" d="M511.485 212.601v1.418l-3.016-1.418 3.016-1.418Zm0 0" transform="matrix(1 0 0 -1 .199 241.144)"/><use xlink:href="#j" x="503.806" y="20.894" style="fill:#000;fill-opacity:1"/><g style="fill:#000;fill-opacity:1"><use xlink:href="#v" x="506.277" y="22.388"/><use xlink:href="#h" x="510.429" y="22.388"/><use xlink:href="#i" x="512.223" y="22.388"/></g><path style="fill:none;stroke-width:.398;stroke-linecap:butt;stroke-linejoin:miter;stroke:#000;stroke-opacity:1;stroke-miterlimit:10" d="M-.001-.002h13.258" transform="matrix(1 0 0 -1 503.806 24.428)"/><path style="fill-rule:nonzero;fill:#000;fill-opacity:1;stroke-width:.3985;stroke-linecap:butt;stroke-linejoin:miter;stroke:#000;stroke-opacity:1;stroke-miterlimit:10" d="M405.184 212.601v1.418l-3.012-1.418 3.012-1.418Zm0 0" transform="matrix(1 0 0 -1 .199 241.144)"/><use xlink:href="#j" x="400.643" y="21.539" style="fill:#000;fill-opacity:1"/><use xlink:href="#w" x="403.114" y="23.034" style="fill:#000;fill-opacity:1"/><path style="fill:none;stroke-width:.398;stroke-linecap:butt;stroke-linejoin:miter;stroke:#000;stroke-opacity:1;stroke-miterlimit:10" d="M.002-.002h6.984" transform="matrix(1 0 0 -1 400.643 24.428)"/><path style="fill:none;stroke-width:.797;stroke-linecap:butt;stroke-linejoin:miter;stroke:#000;stroke-opacity:1;stroke-miterlimit:10" d="M342.996 216.855h22.676v-8.508h-22.676Zm0 0" transform="matrix(1 0 0 -1 .199 241.144)"/><use xlink:href="#x" x="346.003" y="43.531" style="fill:#000;fill-opacity:1"/><g style="fill:#000;fill-opacity:1"><use xlink:href="#v" x="352.269" y="45.025"/><use xlink:href="#h" x="356.421" y="45.025"/><use xlink:href="#i" x="358.215" y="45.025"/></g><path style="fill:none;stroke-width:.398;stroke-linecap:butt;stroke-linejoin:miter;stroke:#000;stroke-opacity:1;stroke-miterlimit:10" d="M0-.001h17.056" transform="matrix(1 0 0 -1 346.003 47.065)"/><use xlink:href="#s" x="380.037" y="76.941" style="fill:#000;fill-opacity:1"/><use xlink:href="#r" x="380.809" y="39.17" style="fill:#000;fill-opacity:1"/><use xlink:href="#t" x="376.858" y="57.268" style="fill:#000;fill-opacity:1"/><use xlink:href="#w" x="384.38" y="58.763" style="fill:#000;fill-opacity:1"/><path style="fill:none;stroke-width:.398;stroke-linecap:butt;stroke-linejoin:miter;stroke:#000;stroke-opacity:1;stroke-miterlimit:10" d="M.001 0h12.036" transform="matrix(1 0 0 -1 376.858 60.157)"/><use xlink:href="#s" x="323.344" y="76.941" style="fill:#000;fill-opacity:1"/><use xlink:href="#r" x="324.116" y="39.17" style="fill:#000;fill-opacity:1"/><use xlink:href="#t" x="316.829" y="56.946" style="fill:#000;fill-opacity:1"/><g style="fill:#000;fill-opacity:1"><use xlink:href="#y" x="324.351" y="58.44"/><use xlink:href="#h" x="329.229" y="58.44"/><use xlink:href="#w" x="331.022" y="58.44"/></g><path style="fill:none;stroke-width:.398;stroke-linecap:butt;stroke-linejoin:miter;stroke:#000;stroke-opacity:1;stroke-miterlimit:10" d="M0 0h18.706" transform="matrix(1 0 0 -1 316.829 60.48)"/><path style="fill:none;stroke-width:.3985;stroke-linecap:butt;stroke-linejoin:bevel;stroke:#000;stroke-opacity:1;stroke-miterlimit:10" d="M453.547 138.898v1.703a1.134 1.134 0 0 0 0 2.266v1.703m-2.832-2.836h1.418m.566 0h3.684" transform="matrix(1 0 0 -1 .199 241.144)"/><path style="fill:none;stroke-width:.3985;stroke-linecap:butt;stroke-linejoin:miter;stroke:#000;stroke-opacity:1;stroke-miterlimit:10" d="M538.59 141.734h-28.348m0 0h-41.101m0 0h-12.758m-5.668 0h-12.758m0 0h-34.015m0 0h-38.27m-22.676 0h-24.093m0 0H308.27m0 0h-3.543" transform="matrix(1 0 0 -1 .199 241.144)"/><use xlink:href="#f" x="542.301" y="100.437" style="fill:#000;fill-opacity:1"/><g style="fill:#000;fill-opacity:1"><use xlink:href="#v" x="549.066" y="102.823"/><use xlink:href="#h" x="553.218" y="102.823"/><use xlink:href="#l" x="555.012" y="102.823"/></g><path style="fill:none;stroke-width:.398;stroke-linecap:butt;stroke-linejoin:miter;stroke:#000;stroke-opacity:1;stroke-miterlimit:10" d="M0 0h18.125" transform="matrix(1 0 0 -1 542.301 104.863)"/><path style="fill-rule:nonzero;fill:#000;fill-opacity:1;stroke-width:.3985;stroke-linecap:butt;stroke-linejoin:miter;stroke:#000;stroke-opacity:1;stroke-miterlimit:10" d="M511.485 141.734v1.418l-3.016-1.418 3.016-1.418Zm0 0" transform="matrix(1 0 0 -1 .199 241.144)"/><use xlink:href="#j" x="503.519" y="90.868" style="fill:#000;fill-opacity:1"/><g style="fill:#000;fill-opacity:1"><use xlink:href="#v" x="505.99" y="93.254"/><use xlink:href="#h" x="510.142" y="93.254"/><use xlink:href="#l" x="511.936" y="93.254"/></g><path style="fill:none;stroke-width:.398;stroke-linecap:butt;stroke-linejoin:miter;stroke:#000;stroke-opacity:1;stroke-miterlimit:10" d="M0-.002h13.833" transform="matrix(1 0 0 -1 503.519 95.295)"/><path style="fill-rule:nonzero;fill:#000;fill-opacity:1;stroke-width:.3985;stroke-linecap:butt;stroke-linejoin:miter;stroke:#000;stroke-opacity:1;stroke-miterlimit:10" d="M405.184 141.734v1.418l-3.012-1.418 3.012-1.418Zm0 0" transform="matrix(1 0 0 -1 .199 241.144)"/><use xlink:href="#j" x="400.492" y="90.62" style="fill:#000;fill-opacity:1"/><use xlink:href="#z" x="402.962" y="92.115" style="fill:#000;fill-opacity:1"/><path style="fill:none;stroke-width:.398;stroke-linecap:butt;stroke-linejoin:miter;stroke:#000;stroke-opacity:1;stroke-miterlimit:10" d="M0-.002h7.29" transform="matrix(1 0 0 -1 400.492 95.295)"/><path style="fill:none;stroke-width:.797;stroke-linecap:butt;stroke-linejoin:miter;stroke:#000;stroke-opacity:1;stroke-miterlimit:10" d="M342.996 145.988h22.676v-8.504h-22.676Zm0 0" transform="matrix(1 0 0 -1 .199 241.144)"/><use xlink:href="#x" x="345.716" y="114.397" style="fill:#000;fill-opacity:1"/><g style="fill:#000;fill-opacity:1"><use xlink:href="#v" x="351.982" y="116.783"/><use xlink:href="#h" x="356.134" y="116.783"/><use xlink:href="#l" x="357.928" y="116.783"/></g><path style="fill:none;stroke-width:.398;stroke-linecap:butt;stroke-linejoin:miter;stroke:#000;stroke-opacity:1;stroke-miterlimit:10" d="M-.001 0h17.629" transform="matrix(1 0 0 -1 345.716 118.824)"/><path style="fill:none;stroke-width:.3985;stroke-linecap:butt;stroke-linejoin:miter;stroke:#000;stroke-opacity:1;stroke-miterlimit:10" d="M453.547 87.874h-70.863m0 0H308.27m0 0h-3.543" transform="matrix(1 0 0 -1 .199 241.144)"/><path style="fill-rule:nonzero;fill:#000;fill-opacity:1;stroke-width:.3985;stroke-linecap:butt;stroke-linejoin:miter;stroke:#000;stroke-opacity:1;stroke-miterlimit:10" d="M454.684 87.874a1.134 1.134 0 0 1-2.27 0 1.134 1.134 0 0 1 2.27 0Zm0 0" transform="matrix(1 0 0 -1 .199 241.144)"/><use xlink:href="#s" x="380.037" y="147.807" style="fill:#000;fill-opacity:1"/><use xlink:href="#r" x="380.809" y="110.036" style="fill:#000;fill-opacity:1"/><use xlink:href="#t" x="376.706" y="127.242" style="fill:#000;fill-opacity:1"/><use xlink:href="#z" x="384.228" y="128.736" style="fill:#000;fill-opacity:1"/><path style="fill:none;stroke-width:.398;stroke-linecap:butt;stroke-linejoin:miter;stroke:#000;stroke-opacity:1;stroke-miterlimit:10" d="M.001.002h12.34" transform="matrix(1 0 0 -1 376.706 131.916)"/><use xlink:href="#s" x="323.344" y="147.807" style="fill:#000;fill-opacity:1"/><use xlink:href="#r" x="324.116" y="110.036" style="fill:#000;fill-opacity:1"/><use xlink:href="#t" x="316.678" y="127.242" style="fill:#000;fill-opacity:1"/><g style="fill:#000;fill-opacity:1"><use xlink:href="#y" x="324.2" y="128.736"/><use xlink:href="#h" x="329.078" y="128.736"/><use xlink:href="#z" x="330.871" y="128.736"/></g><path style="fill:none;stroke-width:.398;stroke-linecap:butt;stroke-linejoin:miter;stroke:#000;stroke-opacity:1;stroke-miterlimit:10" d="M.002.002H19.01" transform="matrix(1 0 0 -1 316.678 131.916)"/><path style="fill:none;stroke-width:.3985;stroke-linecap:butt;stroke-linejoin:bevel;stroke:#000;stroke-opacity:1;stroke-miterlimit:10" d="M453.547 68.03v1.704a1.134 1.134 0 0 0 0 2.265v1.704m-2.832-2.836h1.418m.566 0h3.684" transform="matrix(1 0 0 -1 .199 241.144)"/><path style="fill:none;stroke-width:.3985;stroke-linecap:butt;stroke-linejoin:miter;stroke:#000;stroke-opacity:1;stroke-miterlimit:10" d="M538.59 70.867h-28.348m0 0h-41.101m0 0h-12.758m-5.668 0h-12.758m0 0h-34.015m0 0h-38.27m-22.676 0h-24.093m0 0H308.27m0 0h-3.543" transform="matrix(1 0 0 -1 .199 241.144)"/><use xlink:href="#f" x="542.301" y="171.749" style="fill:#000;fill-opacity:1"/><g style="fill:#000;fill-opacity:1"><use xlink:href="#v" x="549.066" y="173.243"/><use xlink:href="#h" x="553.218" y="173.243"/><use xlink:href="#n" x="555.012" y="173.243"/></g><path style="fill:none;stroke-width:.398;stroke-linecap:butt;stroke-linejoin:miter;stroke:#000;stroke-opacity:1;stroke-miterlimit:10" d="M0 .002h17.586" transform="matrix(1 0 0 -1 542.301 175.283)"/><path style="fill-rule:nonzero;fill:#000;fill-opacity:1;stroke-width:.3985;stroke-linecap:butt;stroke-linejoin:miter;stroke:#000;stroke-opacity:1;stroke-miterlimit:10" d="M511.485 70.867v1.418l-3.016-1.418 3.016-1.418Zm0 0" transform="matrix(1 0 0 -1 .199 241.144)"/><use xlink:href="#j" x="503.79" y="162.626" style="fill:#000;fill-opacity:1"/><g style="fill:#000;fill-opacity:1"><use xlink:href="#v" x="506.261" y="164.12"/><use xlink:href="#h" x="510.413" y="164.12"/><use xlink:href="#n" x="512.207" y="164.12"/></g><path style="fill:none;stroke-width:.398;stroke-linecap:butt;stroke-linejoin:miter;stroke:#000;stroke-opacity:1;stroke-miterlimit:10" d="M0 0h13.288" transform="matrix(1 0 0 -1 503.79 166.161)"/><path style="fill-rule:nonzero;fill:#000;fill-opacity:1;stroke-width:.3985;stroke-linecap:butt;stroke-linejoin:miter;stroke:#000;stroke-opacity:1;stroke-miterlimit:10" d="M405.184 70.867v1.418l-3.012-1.418 3.012-1.418Zm0 0" transform="matrix(1 0 0 -1 .199 241.144)"/><use xlink:href="#j" x="400.691" y="163.272" style="fill:#000;fill-opacity:1"/><use xlink:href="#A" x="403.162" y="164.766" style="fill:#000;fill-opacity:1"/><path style="fill:none;stroke-width:.398;stroke-linecap:butt;stroke-linejoin:miter;stroke:#000;stroke-opacity:1;stroke-miterlimit:10" d="M0 0h6.891" transform="matrix(1 0 0 -1 400.691 166.161)"/><path style="fill:none;stroke-width:.797;stroke-linecap:butt;stroke-linejoin:miter;stroke:#000;stroke-opacity:1;stroke-miterlimit:10" d="M342.996 75.12h22.676v-8.503h-22.676Zm0 0" transform="matrix(1 0 0 -1 .199 241.144)"/><use xlink:href="#x" x="345.987" y="185.263" style="fill:#000;fill-opacity:1"/><g style="fill:#000;fill-opacity:1"><use xlink:href="#v" x="352.253" y="186.757"/><use xlink:href="#h" x="356.405" y="186.757"/><use xlink:href="#n" x="358.199" y="186.757"/></g><path style="fill:none;stroke-width:.398;stroke-linecap:butt;stroke-linejoin:miter;stroke:#000;stroke-opacity:1;stroke-miterlimit:10" d="M.001.001h17.086" transform="matrix(1 0 0 -1 345.987 188.798)"/><path style="fill:none;stroke-width:.3985;stroke-linecap:butt;stroke-linejoin:miter;stroke:#000;stroke-opacity:1;stroke-miterlimit:10" d="M453.547 17.007h-70.863m0 0H308.27m0 0h-3.543" transform="matrix(1 0 0 -1 .199 241.144)"/><path style="fill-rule:nonzero;fill:#000;fill-opacity:1;stroke-width:.3985;stroke-linecap:butt;stroke-linejoin:miter;stroke:#000;stroke-opacity:1;stroke-miterlimit:10" d="M454.684 17.007c0 .63-.508 1.133-1.137 1.133a1.134 1.134 0 1 1 1.137-1.133Zm0 0" transform="matrix(1 0 0 -1 .199 241.144)"/><use xlink:href="#s" x="380.037" y="218.673" style="fill:#000;fill-opacity:1"/><use xlink:href="#r" x="380.809" y="180.902" style="fill:#000;fill-opacity:1"/><use xlink:href="#t" x="376.906" y="199.001" style="fill:#000;fill-opacity:1"/><use xlink:href="#A" x="384.427" y="200.495" style="fill:#000;fill-opacity:1"/><path style="fill:none;stroke-width:.398;stroke-linecap:butt;stroke-linejoin:miter;stroke:#000;stroke-opacity:1;stroke-miterlimit:10" d="M0 0h11.942" transform="matrix(1 0 0 -1 376.906 201.89)"/><use xlink:href="#s" x="323.344" y="218.673" style="fill:#000;fill-opacity:1"/><use xlink:href="#r" x="324.116" y="180.902" style="fill:#000;fill-opacity:1"/><use xlink:href="#t" x="316.877" y="198.678" style="fill:#000;fill-opacity:1"/><g style="fill:#000;fill-opacity:1"><use xlink:href="#y" x="324.399" y="200.172"/><use xlink:href="#h" x="329.277" y="200.172"/><use xlink:href="#A" x="331.07" y="200.172"/></g><path style="fill:none;stroke-width:.398;stroke-linecap:butt;stroke-linejoin:miter;stroke:#000;stroke-opacity:1;stroke-miterlimit:10" d="M.002.001h18.61" transform="matrix(1 0 0 -1 316.877 202.212)"/><path style="fill:none;stroke-width:.3985;stroke-linecap:butt;stroke-linejoin:miter;stroke:#000;stroke-opacity:1;stroke-miterlimit:10" d="M538.59 0h-28.348m0 0h-42.52m0 0h-14.175v8.503m0 0V42.52m0 0v25.512m0 5.672v7.086m0 0v32.597m0 0v25.512m0 5.672v7.086m0 0v7.086h-70.863m0 0H308.27m0 0h-3.543" transform="matrix(1 0 0 -1 .199 241.144)"/><use xlink:href="#f" x="542.301" y="242.615" style="fill:#000;fill-opacity:1"/><g style="fill:#000;fill-opacity:1"><use xlink:href="#v" x="549.066" y="244.109"/><use xlink:href="#h" x="553.218" y="244.109"/><use xlink:href="#B" x="555.012" y="244.109"/></g><path style="fill:none;stroke-width:.398;stroke-linecap:butt;stroke-linejoin:miter;stroke:#000;stroke-opacity:1;stroke-miterlimit:10" d="M0 0h17.855" transform="matrix(1 0 0 -1 542.301 246.149)"/><path style="fill-rule:nonzero;fill:#000;fill-opacity:1;stroke-width:.3985;stroke-linecap:butt;stroke-linejoin:miter;stroke:#000;stroke-opacity:1;stroke-miterlimit:10" d="M511.485 0v1.417L508.469 0l3.016-1.418Zm0 0" transform="matrix(1 0 0 -1 .199 241.144)"/><use xlink:href="#j" x="503.655" y="233.492" style="fill:#000;fill-opacity:1"/><g style="fill:#000;fill-opacity:1"><use xlink:href="#v" x="506.125" y="234.987"/><use xlink:href="#h" x="510.277" y="234.987"/><use xlink:href="#B" x="512.071" y="234.987"/></g><path style="fill:none;stroke-width:.398;stroke-linecap:butt;stroke-linejoin:miter;stroke:#000;stroke-opacity:1;stroke-miterlimit:10" d="M.001 0H13.56" transform="matrix(1 0 0 -1 503.655 237.027)"/></svg>
