<svg xmlns="http://www.w3.org/2000/svg" xmlns:xlink="http://www.w3.org/1999/xlink" width="756.436" height="359.587" viewBox="0 0 567.327 269.69"><defs><path id="f" d="M.86-7.078 3.39-.875l2.516-6.203h.735L3.703 0h-.625L.125-7.078Zm0 0"/><path id="j" d="M.89 0v-7.078h.688V0Zm0 0"/><path id="p" d="m.922-7.078 2.312 3.812 2.344-3.812h.75L3.594-2.625V0H2.89v-2.656L.156-7.078Zm0 0"/><path id="r" d="M3.625-3.812v.546h-1.25v1.36H1.75v-1.36H.516v-.546H1.75v-1.344h.625v1.343Zm0 0"/><path id="s" d="M.64-2.406v-.625h4.391v.625Zm0 0"/><path id="t" d="M3.766.047q-.832 0-1.407-.297a2.4 2.4 0 0 1-.921-.797 3.5 3.5 0 0 1-.5-1.14A5.5 5.5 0 0 1 .78-3.516v-3.562h.688v3.562c0 .375.035.743.11 1.094q.122.516.374.938c.176.28.41.507.703.672q.435.234 1.11.234.668.001 1.109-.25.45-.263.703-.672a3.2 3.2 0 0 0 .36-.937q.107-.527.109-1.079v-3.562h.703v3.562c0 .48-.055.938-.156 1.375q-.159.645-.516 1.125a2.66 2.66 0 0 1-.937.782c-.375.187-.836.28-1.375.28m0 0"/><path id="x" d="m.313-.547 4.812-5.906H.391v-.625h5.547v.547L1.172-.625h4.75V0H.312Zm0 0"/><path id="g" d="M3.234-.5V0H.531v-.5h1.14v-3.406a1.1 1.1 0 0 1-.218.219q-.158.11-.36.203c-.124.062-.25.117-.374.156a1.1 1.1 0 0 1-.36.062v-.53c.125 0 .258-.032.407-.095q.216-.105.406-.234c.133-.094.25-.18.344-.266a1 1 0 0 0 .156-.156h.547V-.5Zm0 0"/><path id="h" d="m.688.64.14-.671H.641v-.75h.515v.75L.97.64Zm0 0"/><path id="i" d="M.266-1.187c0-.258.07-.485.218-.672q.217-.295.61-.453c.27-.102.578-.157.922-.157.195 0 .406.024.625.063q.326.047.593.14v-.359c0-.344-.105-.617-.312-.828q-.315-.312-.86-.313-.344.001-.671.125-.316.127-.672.36l-.203-.39q.405-.266.797-.407.386-.14.796-.14.763.002 1.204.437.451.44.453 1.203v1.922q0 .112.046.172.047.045.157.046V0c-.063.008-.117.016-.156.016a.2.2 0 0 1-.094 0q-.206.001-.313-.125a.4.4 0 0 1-.094-.25l-.015-.313a1.86 1.86 0 0 1-.735.563 2.25 2.25 0 0 1-.89.187c-.274 0-.516-.058-.734-.172a1.4 1.4 0 0 1-.5-.453 1.2 1.2 0 0 1-.172-.64m2.78.312q.079-.107.126-.203.06-.107.062-.203v-.594a3 3 0 0 0-.578-.156 3 3 0 0 0-.578-.063q-.581 0-.937.235a.69.69 0 0 0-.36.625q-.001.236.11.437.124.204.359.344.232.127.547.125.389.002.719-.156c.226-.102.406-.235.53-.391m0 0"/><path id="k" d="m.672-5.656 1.86 2.453 1.827-2.453H5L2.828-2.781 4.938 0h-.641L2.53-2.375.734 0H.11l2.094-2.781L.047-5.656Zm0 0"/><path id="l" d="M2.625.078q-.485.001-.906-.25a1.8 1.8 0 0 1-.64-.64V0H.593v-5.812h.547v2.53q.28-.42.672-.671c.257-.176.562-.266.906-.266q.434 0 .781.188.341.174.594.484.246.3.375.688.124.392.125.797-.002.44-.157.828-.14.376-.406.672-.268.299-.625.468-.361.172-.781.172M2.5-.39c.227 0 .438-.046.625-.14q.281-.141.484-.375.217-.233.329-.531.107-.311.109-.625 0-.436-.188-.829a1.6 1.6 0 0 0-.515-.625 1.3 1.3 0 0 0-.781-.234 1.23 1.23 0 0 0-.594.156q-.269.141-.485.375-.204.234-.343.516v1.281a.9.9 0 0 0 .156.406q.14.188.344.329.198.126.422.218c.156.055.3.078.437.078m0 0"/><path id="m" d="m.734-5.656 1.86 3.047 1.86-3.047h.609L2.875-2.11V0h-.562v-2.125L.124-5.656Zm0 0"/><path id="n" d="M2.406.078q-.469 0-.844-.172a2.1 2.1 0 0 1-.656-.468 2.26 2.26 0 0 1-.593-1.532c0-.383.085-.738.265-1.062q.265-.5.735-.781A2.06 2.06 0 0 1 2.39-4.22q.574.001 1.015.266.45.269.672.719l-.531.172a1.2 1.2 0 0 0-.485-.5 1.35 1.35 0 0 0-.703-.188q-.41 0-.75.219a1.57 1.57 0 0 0-.546.594q-.205.374-.204.843 0 .471.204.86.217.375.546.609.343.234.766.234.264 0 .516-.093.248-.106.437-.266a.9.9 0 0 0 .25-.36l.547.157q-.112.298-.375.531-.27.234-.61.375a2.2 2.2 0 0 1-.734.125m0 0"/><path id="o" d="m.25-.437 3.844-4.72H.312v-.5h4.422v.438L.938-.5h3.796V0H.25Zm0 0"/><path id="q" d="M6.766 0h-.532v-2.312q0-.733-.234-1.079-.236-.341-.687-.343-.47.002-.844.343a1.8 1.8 0 0 0-.516.86V0h-.547v-2.312q0-.733-.219-1.079c-.148-.226-.374-.343-.687-.343-.305 0-.578.109-.828.328a1.77 1.77 0 0 0-.531.86V0H.594v-4.156h.5v.937q.263-.481.672-.734.403-.265.906-.266c.351 0 .633.102.844.297q.31.283.39.766c.188-.352.414-.617.688-.797q.404-.265.906-.266.358.001.594.125a.96.96 0 0 1 .39.36q.154.234.22.562a4.3 4.3 0 0 1 .062.735Zm0 0"/><path id="v" d="M.344 0q0-.265.047-.547.058-.279.187-.547.14-.264.406-.515.265-.248.688-.485l.484-.219q.246-.123.469-.265c.145-.094.258-.195.344-.313a.77.77 0 0 0 .016-.812.75.75 0 0 0-.344-.313 1.3 1.3 0 0 0-.594-.125q-.252.001-.469.079a1.3 1.3 0 0 0-.36.171 2 2 0 0 0-.265.22 2 2 0 0 1-.187.171l-.344-.375.172-.172a2.3 2.3 0 0 1 .36-.25q.216-.141.515-.234.31-.094.672-.094.48.001.828.172c.226.117.406.266.531.453q.188.283.188.625 0 .328-.141.563a1.5 1.5 0 0 1-.36.406 3.5 3.5 0 0 1-.89.5 3.4 3.4 0 0 0-.625.36 2 2 0 0 0-.406.359A1.35 1.35 0 0 0 .922-.5h2.844V0Zm0 0"/><path id="w" d="m.719-4.156 1.219 1.625.078.125.062-.125 1.203-1.625h.61L2.313-2.063 3.89 0h-.61L2.078-1.625l-.062-.11-.079.11L.734 0H.125l1.563-2.062L.125-4.156Zm0 0"/><path id="y" d="M4.438-2.328q-.001.69-.266 1.234a2.05 2.05 0 0 1-.703.86Q3.01.08 2.438.078a1.75 1.75 0 0 1-1.032-.312 2.2 2.2 0 0 1-.703-.86 2.74 2.74 0 0 1-.265-1.234c0-.469.085-.883.265-1.25q.264-.544.703-.86.452-.311 1.032-.312.574 0 1.03.313.452.315.704.859.265.548.266 1.25m-.547 0q0-.577-.188-1A1.57 1.57 0 0 0 3.188-4a1.2 1.2 0 0 0-.75-.25 1.22 1.22 0 0 0-.75.25c-.22.156-.391.383-.516.672a2.5 2.5 0 0 0-.188 1q0 .564.188 1 .188.422.516.656.327.235.75.235.434 0 .75-.235.327-.248.515-.672.188-.422.188-.984m0 0"/><path id="z" d="M.844 1.281h.203c.07.008.125.008.156 0 .063-.011.117-.054.172-.125.063-.062.133-.183.219-.36Q1.717.529 1.922 0L.125-4.156h.563l1.53 3.593 1.407-3.593h.531l-2.14 5.36a1.2 1.2 0 0 1-.172.28.64.64 0 0 1-.282.204q-.159.076-.406.093h-.14c-.055 0-.11-.008-.172-.015Zm0 0"/><path id="A" d="m.25-.36 2.781-3.39H.313v-.406H3.64v.375L.875-.406h2.766V0H.25Zm0 0"/><path id="B" d="M4.094 0h-.547v-2.312q0-.733-.219-1.079-.221-.341-.672-.343-.329.001-.64.156a1.9 1.9 0 0 0-.532.422c-.156.18-.273.383-.343.61V0H.594v-4.156h.5v.937q.169-.293.437-.515c.176-.157.38-.274.61-.36.226-.082.468-.125.718-.125q.342.001.579.125a1 1 0 0 1 .374.36q.14.234.204.562.077.33.078.735Zm0 0"/><path id="u" d="M2.453-2.547q.996-.199 1.5-.656.516-.45.516-.953-.001-.296-.172-.438a.7.7 0 0 0-.453-.14q-.457.002-.938.297a3.8 3.8 0 0 0-.922.812 5.5 5.5 0 0 0-.765 1.203l.203-1.094a6 6 0 0 1 .766-.906q.403-.405.859-.64.468-.235.953-.235c.375 0 .648.102.828.297q.282.282.281.75-.002.659-.484 1.188c-.312.343-.766.617-1.36.812L4.423 0h-.734ZM1.641-7.28h.672L.766 0H.094Zm0 0"/><clipPath id="a"><path d="M0 0h72v269.691H0Zm0 0"/></clipPath><clipPath id="b"><path d="M85 0h58v269.691H85Zm0 0"/></clipPath><clipPath id="c"><path d="M425 0h58v269.691h-58Zm0 0"/></clipPath><clipPath id="d"><path d="M496 0h71.328v269.691H496Zm0 0"/></clipPath><clipPath id="e"><path d="M155 0h257v269.691H155Zm0 0"/></clipPath></defs><path fill="#fff" d="M0 269.691V-.004h567.336v269.695Zm0 0"/><g clip-path="url(#a)"><path fill="none" stroke="#00f" stroke-dasharray="2.98883 2.98883" stroke-miterlimit="10" stroke-width=".399" d="M.2 269.492V.195h70.866v269.297Zm0 0"/></g><g clip-path="url(#b)"><path fill="none" stroke="#00f" stroke-miterlimit="10" stroke-width=".399" d="M85.238 269.492V.195h56.696v269.297Zm0 0"/></g><g clip-path="url(#c)"><path fill="none" stroke="#00f" stroke-miterlimit="10" stroke-width=".399" d="M425.402 269.492V.195h56.692v269.297Zm0 0"/></g><g clip-path="url(#d)"><path fill="none" stroke="#00f" stroke-dasharray="2.98883 2.98883" stroke-miterlimit="10" stroke-width=".399" d="M496.27 269.492V.195h70.867v269.297Zm0 0"/></g><g clip-path="url(#e)"><path fill="none" stroke="#00f" stroke-dasharray="2.98883 2.98883" stroke-miterlimit="10" stroke-width=".399" d="M156.105 269.492V.195h255.122v269.297Zm0 0"/></g><path fill="none" stroke="#000" stroke-linejoin="bevel" stroke-miterlimit="10" stroke-width=".399" d="M99.414 102.246v-1.703a1.134 1.134 0 0 1-1.137-1.133c0-.625.508-1.133 1.137-1.133v-1.703m-2.836 2.836h1.418m.567 0h3.683m-2.832 73.703v-1.703a1.134 1.134 0 0 1-1.137-1.133c0-.625.508-1.132 1.137-1.132v-1.704m-2.836 2.836h1.418m.567 0h3.683"/><path fill="none" stroke="#000" stroke-miterlimit="10" stroke-width=".399" d="M28.547 28.543h28.348m0 0h56.69m0 0h56.696m0 0h56.692m0 0h28.347"/><use xlink:href="#f" x="8.215" y="30.017"/><use xlink:href="#g" x="14.98" y="31.511"/><use xlink:href="#h" x="18.391" y="31.511"/><use xlink:href="#i" x="20.184" y="31.511"/><path fill="none" stroke="#000" stroke-miterlimit="10" stroke-width=".398" d="M8.215 33.55h16.812"/><path stroke="#000" stroke-miterlimit="10" stroke-width=".399" d="M55.652 28.543v1.418l3.012-1.418-3.012-1.418Zm0 0"/><use xlink:href="#j" x="50.634" y="20.894"/><use xlink:href="#g" x="53.104" y="22.388"/><use xlink:href="#h" x="56.515" y="22.388"/><use xlink:href="#i" x="58.308" y="22.388"/><path fill="none" stroke="#000" stroke-miterlimit="10" stroke-width=".398" d="M50.633 24.43h12.52"/><path stroke="#000" stroke-miterlimit="10" stroke-width=".399" d="M169.04 28.543v1.418l3.01-1.418-3.01-1.418Zm0 0"/><use xlink:href="#j" x="166.275" y="20.807"/><use xlink:href="#k" x="168.746" y="23.034"/><path fill="none" stroke="#000" stroke-miterlimit="10" stroke-width=".398" d="M166.273 24.43h8.008"/><path fill="none" stroke="#000" stroke-miterlimit="10" stroke-width=".399" d="M28.547 99.41h28.348m0 0H90.91m0 0h5.668m5.668 0h19.844m0 0h48.191m0 0h56.692m0 0h28.347"/><use xlink:href="#f" x="7.641" y="100.437"/><use xlink:href="#g" x="14.406" y="102.823"/><use xlink:href="#h" x="17.817" y="102.823"/><use xlink:href="#l" x="19.61" y="102.823"/><path fill="none" stroke="#000" stroke-miterlimit="10" stroke-width=".398" d="M7.64 104.863h17.387"/><path stroke="#000" stroke-miterlimit="10" stroke-width=".399" d="M55.652 99.41v1.418l3.012-1.418-3.012-1.418Zm0 0"/><use xlink:href="#j" x="50.347" y="90.868"/><use xlink:href="#g" x="52.817" y="93.254"/><use xlink:href="#h" x="56.228" y="93.254"/><use xlink:href="#l" x="58.021" y="93.254"/><path fill="none" stroke="#000" stroke-miterlimit="10" stroke-width=".398" d="M50.348 95.297h13.09"/><path stroke="#000" stroke-miterlimit="10" stroke-width=".399" d="M169.04 99.41v1.418l3.01-1.418-3.01-1.418Zm0 0"/><use xlink:href="#j" x="166.199" y="91.673"/><use xlink:href="#m" x="168.67" y="93.9"/><path fill="none" stroke="#000" stroke-miterlimit="10" stroke-width=".398" d="M166.2 95.297h8.155"/><path fill="none" stroke="#000" stroke-miterlimit="10" stroke-width=".399" d="M28.547 170.277h28.348m0 0H90.91m0 0h5.668m5.668 0h19.844m0 0h48.191m0 0h56.692m0 0h28.347"/><use xlink:href="#f" x="8.183" y="171.749"/><use xlink:href="#g" x="14.948" y="173.243"/><use xlink:href="#h" x="18.359" y="173.243"/><use xlink:href="#n" x="20.152" y="173.243"/><path fill="none" stroke="#000" stroke-miterlimit="10" stroke-width=".398" d="M8.184 175.281h16.843"/><path stroke="#000" stroke-miterlimit="10" stroke-width=".399" d="M55.652 170.277v1.418l3.012-1.418-3.012-1.418Zm0 0"/><use xlink:href="#j" x="50.618" y="162.626"/><use xlink:href="#g" x="53.088" y="164.12"/><use xlink:href="#h" x="56.499" y="164.12"/><use xlink:href="#n" x="58.292" y="164.12"/><path fill="none" stroke="#000" stroke-miterlimit="10" stroke-width=".398" d="M50.617 166.16h12.551"/><path stroke="#000" stroke-miterlimit="10" stroke-width=".399" d="M169.04 170.277v1.418l3.01-1.418-3.01-1.418Zm0 0"/><use xlink:href="#j" x="166.287" y="162.539"/><use xlink:href="#o" x="168.758" y="164.766"/><path fill="none" stroke="#000" stroke-miterlimit="10" stroke-width=".398" d="M166.285 166.16h7.985"/><path fill="none" stroke="#000" stroke-linejoin="bevel" stroke-miterlimit="10" stroke-width=".797" d="M275.004 43.734c2.348 0 4.25 1.313 4.25 2.934s-1.902 2.937-4.25 2.937c2.348 0 4.25 1.313 4.25 2.934s-1.902 2.934-4.25 2.934c2.348 0 4.25 1.312 4.25 2.933s-1.902 2.934-4.25 2.934c2.348 0 4.25 1.316 4.25 2.933 0 1.622-1.902 2.938-4.25 2.938m17.328-.001c-2.352 0-4.254-1.315-4.254-2.937 0-1.617 1.902-2.933 4.254-2.933-2.352 0-4.254-1.313-4.254-2.934 0-1.62 1.902-2.933 4.254-2.933-2.352 0-4.254-1.313-4.254-2.934s1.902-2.934 4.254-2.934c-2.352 0-4.254-1.316-4.254-2.937s1.902-2.934 4.254-2.934"/><path fill="none" stroke="#000" stroke-miterlimit="10" stroke-width=".399" d="M262.406 28.543h12.758v15.59m0 22.68v15.59h-12.758m42.52-53.86h-12.754v15.59m0 22.68v15.59h12.754m-49.606-53.86h3.543m0 0h3.543M127.758 99.41v-8.504m0 0v-8.504h35.433m0 0h63.782m0 0h31.89m0 0h3.543"/><path stroke="#000" stroke-miterlimit="10" stroke-width=".399" d="M128.895 99.41a1.134 1.134 0 0 0-2.27 0 1.134 1.134 0 0 0 2.27 0Zm0 0"/><path fill="none" stroke="#000" stroke-miterlimit="10" stroke-width=".399" d="M198.625 28.543v15.59m0 22.68v15.59"/><path fill="none" stroke="#000" stroke-miterlimit="10" stroke-width=".797" d="M194.375 66.813v-22.68h8.504v22.68Zm0 0"/><use xlink:href="#p" x="205.241" y="58.06"/><use xlink:href="#q" x="211.726" y="59.555"/><use xlink:href="#h" x="219.051" y="59.555"/><use xlink:href="#i" x="220.844" y="59.555"/><path fill="none" stroke="#000" stroke-miterlimit="10" stroke-width=".398" d="M205.242 61.594h20.446"/><use xlink:href="#r" x="192.023" y="38.425"/><use xlink:href="#s" x="190.479" y="77.685"/><use xlink:href="#t" x="176.431" y="56.902"/><use xlink:href="#k" x="183.952" y="59.129"/><path fill="none" stroke="#000" stroke-miterlimit="10" stroke-width=".398" d="M176.43 60.523h13.058"/><path stroke="#000" stroke-miterlimit="10" stroke-width=".399" d="M198.625 35.098h-1.414l1.414 3.011 1.418-3.011Zm0 0"/><use xlink:href="#j" x="202.144" y="37.812"/><use xlink:href="#q" x="204.615" y="39.306"/><use xlink:href="#h" x="211.94" y="39.306"/><use xlink:href="#i" x="213.733" y="39.306"/><path fill="none" stroke="#000" stroke-miterlimit="10" stroke-width=".398" d="M202.145 41.348h16.43"/><use xlink:href="#u" x="280.994" y="30.695"/><path stroke="#000" stroke-miterlimit="10" stroke-width=".399" d="M280.55 41.3a1.135 1.135 0 1 0-2.27-.002 1.135 1.135 0 0 0 2.27.003Zm8.5 0a1.132 1.132 0 1 0-2.265 0 1.134 1.134 0 0 0 2.266 0Zm0 0"/><path fill="none" stroke="#000" stroke-linejoin="bevel" stroke-miterlimit="10" stroke-width=".797" d="M275.004 114.602c2.348 0 4.25 1.312 4.25 2.933s-1.902 2.938-4.25 2.938c2.348 0 4.25 1.312 4.25 2.933s-1.902 2.934-4.25 2.934c2.348 0 4.25 1.312 4.25 2.933 0 1.622-1.902 2.934-4.25 2.934 2.348 0 4.25 1.316 4.25 2.934 0 1.62-1.902 2.937-4.25 2.937m17.328 0c-2.352 0-4.254-1.316-4.254-2.937 0-1.618 1.902-2.934 4.254-2.934-2.352 0-4.254-1.312-4.254-2.934 0-1.62 1.902-2.933 4.254-2.933-2.352 0-4.254-1.313-4.254-2.934 0-1.62 1.902-2.933 4.254-2.933-2.352 0-4.254-1.317-4.254-2.938 0-1.62 1.902-2.933 4.254-2.933"/><path fill="none" stroke="#000" stroke-miterlimit="10" stroke-width=".399" d="M262.406 99.41h12.758V115m0 22.68v15.59h-12.758m42.52-53.86h-12.754V115m0 22.68v15.59h12.754M255.32 99.41h3.543m0 0h3.543m-134.648 70.867v-8.504m0 0v-8.503h35.433m0 0h63.782m0 0h31.89m0 0h3.543"/><path stroke="#000" stroke-miterlimit="10" stroke-width=".399" d="M128.895 170.277a1.134 1.134 0 0 0-2.27 0 1.134 1.134 0 0 0 2.27 0Zm0 0"/><path fill="none" stroke="#000" stroke-miterlimit="10" stroke-width=".399" d="M198.625 99.41V115m0 22.68v15.59"/><path fill="none" stroke="#000" stroke-miterlimit="10" stroke-width=".797" d="M194.375 137.68V115h8.504v22.68Zm0 0"/><use xlink:href="#p" x="205.241" y="128.926"/><use xlink:href="#q" x="211.726" y="131.313"/><use xlink:href="#h" x="219.051" y="131.313"/><use xlink:href="#l" x="220.844" y="131.313"/><path fill="none" stroke="#000" stroke-miterlimit="10" stroke-width=".398" d="M205.242 133.352h21.02"/><use xlink:href="#r" x="192.023" y="109.291"/><use xlink:href="#s" x="190.479" y="148.551"/><use xlink:href="#t" x="176.279" y="127.768"/><use xlink:href="#m" x="183.801" y="129.995"/><path fill="none" stroke="#000" stroke-miterlimit="10" stroke-width=".398" d="M176.277 131.39h13.211"/><path stroke="#000" stroke-miterlimit="10" stroke-width=".399" d="M198.625 105.965h-1.414l1.414 3.012 1.418-3.012Zm0 0"/><use xlink:href="#j" x="202.144" y="108.232"/><use xlink:href="#q" x="204.615" y="110.618"/><use xlink:href="#h" x="211.94" y="110.618"/><use xlink:href="#l" x="213.733" y="110.618"/><path fill="none" stroke="#000" stroke-miterlimit="10" stroke-width=".398" d="M202.145 112.66h17.003"/><use xlink:href="#u" x="280.994" y="101.562"/><path stroke="#000" stroke-miterlimit="10" stroke-width=".399" d="M280.55 112.164a1.134 1.134 0 1 0-2.268.003 1.134 1.134 0 0 0 2.269-.003Zm8.5 0a1.134 1.134 0 1 0-2.264.002 1.134 1.134 0 0 0 2.265-.002Zm0 0"/><path fill="none" stroke="#000" stroke-linejoin="bevel" stroke-miterlimit="10" stroke-width=".797" d="M275.004 185.469c2.348 0 4.25 1.312 4.25 2.933s-1.902 2.934-4.25 2.934c2.348 0 4.25 1.316 4.25 2.937 0 1.622-1.902 2.934-4.25 2.934 2.348 0 4.25 1.313 4.25 2.934 0 1.62-1.902 2.933-4.25 2.933 2.348 0 4.25 1.317 4.25 2.934 0 1.62-1.902 2.937-4.25 2.937m17.328 0c-2.352 0-4.254-1.316-4.254-2.937 0-1.617 1.902-2.934 4.254-2.934-2.352 0-4.254-1.312-4.254-2.933s1.902-2.934 4.254-2.934c-2.352 0-4.254-1.312-4.254-2.934 0-1.62 1.902-2.937 4.254-2.937-2.352 0-4.254-1.313-4.254-2.934 0-1.62 1.902-2.933 4.254-2.933"/><path fill="none" stroke="#000" stroke-miterlimit="10" stroke-width=".399" d="M262.406 170.277h12.758v15.59m0 22.68v15.59h-12.758m42.52-53.86h-12.754v15.59m0 22.68v15.59h12.754m-49.606-53.86h3.543m0 0h3.543M99.414 28.543v34.016m0 0v34.015m0 5.672v32.598m0 0v32.597m0 5.672v25.512m0 0v25.512h49.606m0 0h77.953m0 0h31.89m0 0h3.543"/><path stroke="#000" stroke-miterlimit="10" stroke-width=".399" d="M100.547 28.543a1.134 1.134 0 1 0-2.267.002 1.134 1.134 0 0 0 2.267-.002Zm0 0"/><path fill="none" stroke="#000" stroke-miterlimit="10" stroke-width=".399" d="M198.625 170.277v15.59m0 22.68v15.59"/><path fill="none" stroke="#000" stroke-miterlimit="10" stroke-width=".797" d="M194.375 208.547v-22.68h8.504v22.68Zm0 0"/><use xlink:href="#p" x="205.241" y="199.793"/><use xlink:href="#q" x="211.726" y="201.287"/><use xlink:href="#h" x="219.051" y="201.287"/><use xlink:href="#n" x="220.844" y="201.287"/><path fill="none" stroke="#000" stroke-miterlimit="10" stroke-width=".398" d="M205.242 203.328h20.477"/><use xlink:href="#r" x="192.023" y="180.158"/><use xlink:href="#s" x="190.479" y="219.418"/><use xlink:href="#t" x="176.454" y="198.634"/><use xlink:href="#o" x="183.976" y="200.861"/><path fill="none" stroke="#000" stroke-miterlimit="10" stroke-width=".398" d="M176.453 202.258h13.035"/><path stroke="#000" stroke-miterlimit="10" stroke-width=".399" d="M198.625 176.832h-1.414l1.414 3.012 1.418-3.012Zm0 0"/><use xlink:href="#j" x="202.144" y="179.544"/><use xlink:href="#q" x="204.615" y="181.038"/><use xlink:href="#h" x="211.94" y="181.038"/><use xlink:href="#n" x="213.733" y="181.038"/><path fill="none" stroke="#000" stroke-miterlimit="10" stroke-width=".398" d="M202.145 183.078h16.46"/><use xlink:href="#u" x="280.994" y="172.428"/><path stroke="#000" stroke-miterlimit="10" stroke-width=".399" d="M280.55 183.031a1.134 1.134 0 1 0-2.268.004 1.134 1.134 0 0 0 2.269-.004Zm8.5 0a1.134 1.134 0 1 0-2.264.002 1.134 1.134 0 0 0 2.265-.002Zm0 0"/><path fill="none" stroke="#000" stroke-miterlimit="10" stroke-width=".399" d="M538.79 28.543h-28.35m0 0h-56.695m0 0H404.14m0 0h-38.27m-22.676 0h-24.093m0 0h-10.633m0 0h-3.543"/><use xlink:href="#f" x="542.301" y="30.017"/><use xlink:href="#v" x="549.066" y="31.511"/><use xlink:href="#h" x="553.218" y="31.511"/><use xlink:href="#i" x="555.012" y="31.511"/><path fill="none" stroke="#000" stroke-miterlimit="10" stroke-width=".398" d="M542.3 33.55h17.552"/><path stroke="#000" stroke-miterlimit="10" stroke-width=".399" d="M511.684 28.543v-1.418l-3.016 1.418 3.016 1.418Zm0 0"/><use xlink:href="#j" x="503.806" y="20.894"/><use xlink:href="#v" x="506.277" y="22.388"/><use xlink:href="#h" x="510.429" y="22.388"/><use xlink:href="#i" x="512.223" y="22.388"/><path fill="none" stroke="#000" stroke-miterlimit="10" stroke-width=".398" d="M503.805 24.43h13.257"/><path stroke="#000" stroke-miterlimit="10" stroke-width=".399" d="M405.383 28.543v-1.418l-3.012 1.418 3.012 1.418Zm0 0"/><use xlink:href="#j" x="400.643" y="21.539"/><use xlink:href="#w" x="403.114" y="23.034"/><path fill="none" stroke="#000" stroke-miterlimit="10" stroke-width=".398" d="M400.645 24.43h6.984"/><path fill="none" stroke="#000" stroke-miterlimit="10" stroke-width=".797" d="M343.195 24.29h22.676v8.507h-22.676Zm0 0"/><use xlink:href="#x" x="346.003" y="43.531"/><use xlink:href="#v" x="352.269" y="45.025"/><use xlink:href="#h" x="356.421" y="45.025"/><use xlink:href="#i" x="358.215" y="45.025"/><path fill="none" stroke="#000" stroke-miterlimit="10" stroke-width=".398" d="M346.004 47.066h17.055"/><use xlink:href="#s" x="380.037" y="76.941"/><use xlink:href="#r" x="380.809" y="39.17"/><use xlink:href="#t" x="376.858" y="57.268"/><use xlink:href="#w" x="384.38" y="58.763"/><path fill="none" stroke="#000" stroke-miterlimit="10" stroke-width=".398" d="M376.86 60.156h12.035"/><use xlink:href="#s" x="323.344" y="76.941"/><use xlink:href="#r" x="324.116" y="39.17"/><use xlink:href="#t" x="316.829" y="56.946"/><use xlink:href="#y" x="324.351" y="58.44"/><use xlink:href="#h" x="329.229" y="58.44"/><use xlink:href="#w" x="331.022" y="58.44"/><path fill="none" stroke="#000" stroke-miterlimit="10" stroke-width=".398" d="M316.828 60.48h18.707"/><path fill="none" stroke="#000" stroke-linejoin="bevel" stroke-miterlimit="10" stroke-width=".399" d="M453.746 102.246v-1.703a1.134 1.134 0 0 1 0-2.266v-1.703m-2.832 2.836h1.418m.566 0h3.684"/><path fill="none" stroke="#000" stroke-miterlimit="10" stroke-width=".399" d="M538.79 99.41h-28.35m0 0h-41.1m0 0h-12.758m-5.668 0h-12.758m0 0h-34.015m0 0h-38.27m-22.676 0h-24.093m0 0h-10.633m0 0h-3.543"/><use xlink:href="#f" x="542.301" y="100.437"/><use xlink:href="#v" x="549.066" y="102.823"/><use xlink:href="#h" x="553.218" y="102.823"/><use xlink:href="#l" x="555.012" y="102.823"/><path fill="none" stroke="#000" stroke-miterlimit="10" stroke-width=".398" d="M542.3 104.863h18.126"/><path stroke="#000" stroke-miterlimit="10" stroke-width=".399" d="M511.684 99.41v-1.418l-3.016 1.418 3.016 1.418Zm0 0"/><use xlink:href="#j" x="503.519" y="90.868"/><use xlink:href="#v" x="505.99" y="93.254"/><use xlink:href="#h" x="510.142" y="93.254"/><use xlink:href="#l" x="511.936" y="93.254"/><path fill="none" stroke="#000" stroke-miterlimit="10" stroke-width=".398" d="M503.52 95.297h13.832"/><path stroke="#000" stroke-miterlimit="10" stroke-width=".399" d="M405.383 99.41v-1.418l-3.012 1.418 3.012 1.418Zm0 0"/><use xlink:href="#j" x="400.492" y="90.62"/><use xlink:href="#z" x="402.962" y="92.115"/><path fill="none" stroke="#000" stroke-miterlimit="10" stroke-width=".398" d="M400.492 95.297h7.29"/><path fill="none" stroke="#000" stroke-miterlimit="10" stroke-width=".797" d="M343.195 95.156h22.676v8.504h-22.676Zm0 0"/><use xlink:href="#x" x="345.716" y="114.397"/><use xlink:href="#v" x="351.982" y="116.783"/><use xlink:href="#h" x="356.134" y="116.783"/><use xlink:href="#l" x="357.928" y="116.783"/><path fill="none" stroke="#000" stroke-miterlimit="10" stroke-width=".398" d="M345.715 118.824h17.629"/><path fill="none" stroke="#000" stroke-miterlimit="10" stroke-width=".399" d="M453.746 153.27h-70.863m0 0h-74.414m0 0h-3.543"/><path stroke="#000" stroke-miterlimit="10" stroke-width=".399" d="M454.883 153.27a1.134 1.134 0 0 0-2.27 0 1.134 1.134 0 0 0 2.27 0Zm0 0"/><use xlink:href="#s" x="380.037" y="147.807"/><use xlink:href="#r" x="380.809" y="110.036"/><use xlink:href="#t" x="376.706" y="127.242"/><use xlink:href="#z" x="384.228" y="128.736"/><path fill="none" stroke="#000" stroke-miterlimit="10" stroke-width=".398" d="M376.707 131.914h12.34"/><use xlink:href="#s" x="323.344" y="147.807"/><use xlink:href="#r" x="324.116" y="110.036"/><use xlink:href="#t" x="316.678" y="127.242"/><use xlink:href="#y" x="324.2" y="128.736"/><use xlink:href="#h" x="329.078" y="128.736"/><use xlink:href="#z" x="330.871" y="128.736"/><path fill="none" stroke="#000" stroke-miterlimit="10" stroke-width=".398" d="M316.68 131.914h19.007"/><path fill="none" stroke="#000" stroke-linejoin="bevel" stroke-miterlimit="10" stroke-width=".399" d="M453.746 173.113v-1.703a1.134 1.134 0 0 1 0-2.265v-1.704m-2.832 2.836h1.418m.566 0h3.684"/><path fill="none" stroke="#000" stroke-miterlimit="10" stroke-width=".399" d="M538.79 170.277h-28.35m0 0h-41.1m0 0h-12.758m-5.668 0h-12.758m0 0h-34.015m0 0h-38.27m-22.676 0h-24.093m0 0h-10.633m0 0h-3.543"/><use xlink:href="#f" x="542.301" y="171.749"/><use xlink:href="#v" x="549.066" y="173.243"/><use xlink:href="#h" x="553.218" y="173.243"/><use xlink:href="#n" x="555.012" y="173.243"/><path fill="none" stroke="#000" stroke-miterlimit="10" stroke-width=".398" d="M542.3 175.281h17.587"/><path stroke="#000" stroke-miterlimit="10" stroke-width=".399" d="M511.684 170.277v-1.418l-3.016 1.418 3.016 1.418Zm0 0"/><use xlink:href="#j" x="503.79" y="162.626"/><use xlink:href="#v" x="506.261" y="164.12"/><use xlink:href="#h" x="510.413" y="164.12"/><use xlink:href="#n" x="512.207" y="164.12"/><path fill="none" stroke="#000" stroke-miterlimit="10" stroke-width=".398" d="M503.79 166.16h13.288"/><path stroke="#000" stroke-miterlimit="10" stroke-width=".399" d="M405.383 170.277v-1.418l-3.012 1.418 3.012 1.418Zm0 0"/><use xlink:href="#j" x="400.691" y="163.272"/><use xlink:href="#A" x="403.162" y="164.766"/><path fill="none" stroke="#000" stroke-miterlimit="10" stroke-width=".398" d="M400.691 166.16h6.891"/><path fill="none" stroke="#000" stroke-miterlimit="10" stroke-width=".797" d="M343.195 166.023h22.676v8.504h-22.676Zm0 0"/><use xlink:href="#x" x="345.987" y="185.263"/><use xlink:href="#v" x="352.253" y="186.757"/><use xlink:href="#h" x="356.405" y="186.757"/><use xlink:href="#n" x="358.199" y="186.757"/><path fill="none" stroke="#000" stroke-miterlimit="10" stroke-width=".398" d="M345.988 188.797h17.086"/><path fill="none" stroke="#000" stroke-miterlimit="10" stroke-width=".399" d="M453.746 224.137h-70.863m0 0h-74.414m0 0h-3.543"/><path stroke="#000" stroke-miterlimit="10" stroke-width=".399" d="M454.883 224.137c0-.63-.508-1.133-1.137-1.133a1.134 1.134 0 1 0 1.137 1.133Zm0 0"/><use xlink:href="#s" x="380.037" y="218.673"/><use xlink:href="#r" x="380.809" y="180.902"/><use xlink:href="#t" x="376.906" y="199.001"/><use xlink:href="#A" x="384.427" y="200.495"/><path fill="none" stroke="#000" stroke-miterlimit="10" stroke-width=".398" d="M376.906 201.89h11.942"/><use xlink:href="#s" x="323.344" y="218.673"/><use xlink:href="#r" x="324.116" y="180.902"/><use xlink:href="#t" x="316.877" y="198.678"/><use xlink:href="#y" x="324.399" y="200.172"/><use xlink:href="#h" x="329.277" y="200.172"/><use xlink:href="#A" x="331.07" y="200.172"/><path fill="none" stroke="#000" stroke-miterlimit="10" stroke-width=".398" d="M316.879 202.21h18.61"/><path fill="none" stroke="#000" stroke-miterlimit="10" stroke-width=".399" d="M538.79 241.145h-28.35m0 0h-42.52m0 0h-14.175v-8.504m0 0v-34.016m0 0v-25.512m0-5.672v-7.086m0 0v-32.597m0 0v-25.512m0-5.672v-7.086m0 0v-7.086h-70.863m0 0h-74.414m0 0h-3.543"/><use xlink:href="#f" x="542.301" y="242.615"/><use xlink:href="#v" x="549.066" y="244.109"/><use xlink:href="#h" x="553.218" y="244.109"/><use xlink:href="#B" x="555.012" y="244.109"/><path fill="none" stroke="#000" stroke-miterlimit="10" stroke-width=".398" d="M542.3 246.148h17.856"/><path stroke="#000" stroke-miterlimit="10" stroke-width=".399" d="M511.684 241.145v-1.418l-3.016 1.418 3.016 1.417Zm0 0"/><use xlink:href="#j" x="503.655" y="233.492"/><use xlink:href="#v" x="506.125" y="234.987"/><use xlink:href="#h" x="510.277" y="234.987"/><use xlink:href="#B" x="512.071" y="234.987"/><path fill="none" stroke="#000" stroke-miterlimit="10" stroke-width=".398" d="M503.656 237.027h13.559"/></svg>
