<svg xmlns="http://www.w3.org/2000/svg" xmlns:xlink="http://www.w3.org/1999/xlink" width="367.951" height="236.169" viewBox="0 0 275.963 177.127"><defs><path id="a" d="M2.453-2.547q.996-.199 1.5-.656.516-.45.516-.953-.001-.296-.172-.438a.7.7 0 0 0-.453-.14q-.457.002-.938.297a3.8 3.8 0 0 0-.922.812 5.5 5.5 0 0 0-.765 1.203l.203-1.094a6 6 0 0 1 .766-.906q.403-.405.859-.64.468-.235.953-.235c.375 0 .648.102.828.297q.282.282.281.75-.002.659-.484 1.188c-.312.343-.766.617-1.36.812L4.423 0h-.734ZM1.641-7.28h.672L.766 0H.094Zm0 0"/><path id="b" d="M.86-7.078 3.39-.875l2.516-6.203h.735L3.703 0h-.625L.125-7.078Zm0 0"/><path id="i" d="M.89 0v-7.078h.688V0Zm0 0"/><path id="j" d="m.313-.547 4.812-5.906H.391v-.625h5.547v.547L1.172-.625h4.75V0H.312Zm0 0"/><path id="k" d="M.438 0Q.437-.341.5-.687a2.6 2.6 0 0 1 .219-.672q.17-.34.5-.657.34-.311.875-.593.279-.154.594-.297.31-.14.578-.313.28-.186.437-.406a.83.83 0 0 0 .172-.531.94.94 0 0 0-.14-.485 1 1 0 0 0-.438-.39 1.6 1.6 0 0 0-.735-.157q-.314 0-.578.094-.27.093-.468.235a2.3 2.3 0 0 0-.328.265q-.14.127-.235.219l-.422-.469q.045-.06.219-.218a2.7 2.7 0 0 1 .438-.313q.28-.168.656-.297a2.6 2.6 0 0 1 .828-.125q.61 0 1.031.219.437.221.672.578.234.362.234.766c0 .28-.062.523-.187.718a1.9 1.9 0 0 1-.453.5q-.27.223-.563.375l-.531.266a5.5 5.5 0 0 0-.781.438q-.316.22-.516.437a2.2 2.2 0 0 0-.297.438 2.5 2.5 0 0 0-.14.437h3.578V0Zm0 0"/><path id="l" d="m.922-7.078 2.312 3.812 2.344-3.812h.75L3.594-2.625V0H2.89v-2.656L.156-7.078Zm0 0"/><path id="n" d="M3.625-3.812v.546h-1.25v1.36H1.75v-1.36H.516v-.546H1.75v-1.344h.625v1.343Zm0 0"/><path id="o" d="M.64-2.406v-.625h4.391v.625Zm0 0"/><path id="p" d="M3.766.047q-.832 0-1.407-.297a2.4 2.4 0 0 1-.921-.797 3.5 3.5 0 0 1-.5-1.14A5.5 5.5 0 0 1 .78-3.516v-3.562h.688v3.562c0 .375.035.743.11 1.094q.122.516.374.938c.176.28.41.507.703.672q.435.234 1.11.234.668.001 1.109-.25.45-.263.703-.672a3.2 3.2 0 0 0 .36-.937q.107-.527.109-1.079v-3.562h.703v3.562c0 .48-.055.938-.156 1.375q-.159.645-.516 1.125a2.66 2.66 0 0 1-.937.782c-.375.187-.836.28-1.375.28m0 0"/><path id="c" d="M3.234-.5V0H.531v-.5h1.14v-3.406a1.1 1.1 0 0 1-.218.219q-.158.11-.36.203c-.124.062-.25.117-.374.156a1.1 1.1 0 0 1-.36.062v-.53c.125 0 .258-.032.407-.095q.216-.105.406-.234c.133-.094.25-.18.344-.266a1 1 0 0 0 .156-.156h.547V-.5Zm0 0"/><path id="d" d="m.688.64.14-.671H.641v-.75h.515v.75L.97.64Zm0 0"/><path id="e" d="M.266-1.187c0-.258.07-.485.218-.672q.217-.295.61-.453c.27-.102.578-.157.922-.157.195 0 .406.024.625.063q.326.047.593.14v-.359c0-.344-.105-.617-.312-.828q-.315-.312-.86-.313-.344.001-.671.125-.316.127-.672.36l-.203-.39q.405-.266.797-.407.386-.14.796-.14.763.002 1.204.437.451.44.453 1.203v1.922q0 .112.046.172.047.045.157.046V0c-.063.008-.117.016-.156.016a.2.2 0 0 1-.094 0q-.206.001-.313-.125a.4.4 0 0 1-.094-.25l-.015-.313a1.86 1.86 0 0 1-.735.563 2.25 2.25 0 0 1-.89.187c-.274 0-.516-.058-.734-.172a1.4 1.4 0 0 1-.5-.453 1.2 1.2 0 0 1-.172-.64m2.78.312q.079-.107.126-.203.06-.107.062-.203v-.594a3 3 0 0 0-.578-.156 3 3 0 0 0-.578-.063q-.581 0-.937.235a.69.69 0 0 0-.36.625q-.001.236.11.437.124.204.359.344.232.127.547.125.389.002.719-.156c.226-.102.406-.235.53-.391m0 0"/><path id="f" d="M2.625.078q-.485.001-.906-.25a1.8 1.8 0 0 1-.64-.64V0H.593v-5.812h.547v2.53q.28-.42.672-.671c.257-.176.562-.266.906-.266q.434 0 .781.188.341.174.594.484.246.3.375.688.124.392.125.797-.002.44-.157.828-.14.376-.406.672-.268.299-.625.468-.361.172-.781.172M2.5-.39c.227 0 .438-.046.625-.14q.281-.141.484-.375.217-.233.329-.531.107-.311.109-.625 0-.436-.188-.829a1.6 1.6 0 0 0-.515-.625 1.3 1.3 0 0 0-.781-.234 1.23 1.23 0 0 0-.594.156q-.269.141-.485.375-.204.234-.343.516v1.281a.9.9 0 0 0 .156.406q.14.188.344.329.198.126.422.218c.156.055.3.078.437.078m0 0"/><path id="g" d="M.344 0q0-.265.047-.547.058-.279.187-.547.14-.264.406-.515.265-.248.688-.485l.484-.219q.246-.123.469-.265c.145-.094.258-.195.344-.313a.77.77 0 0 0 .016-.812.75.75 0 0 0-.344-.313 1.3 1.3 0 0 0-.594-.125q-.252.001-.469.079a1.3 1.3 0 0 0-.36.171 2 2 0 0 0-.265.22 2 2 0 0 1-.187.171l-.344-.375.172-.172a2.3 2.3 0 0 1 .36-.25q.216-.141.515-.234.31-.094.672-.094.48.001.828.172c.226.117.406.266.531.453q.188.283.188.625 0 .328-.141.563a1.5 1.5 0 0 1-.36.406 3.5 3.5 0 0 1-.89.5 3.4 3.4 0 0 0-.625.36 2 2 0 0 0-.406.359A1.35 1.35 0 0 0 .922-.5h2.844V0Zm0 0"/><path id="h" d="M4.094 0h-.547v-2.312q0-.733-.219-1.079-.221-.341-.672-.343-.329.001-.64.156a1.9 1.9 0 0 0-.532.422c-.156.18-.273.383-.343.61V0H.594v-4.156h.5v.937q.169-.293.437-.515c.176-.157.38-.274.61-.36.226-.082.468-.125.718-.125q.342.001.579.125a1 1 0 0 1 .374.36q.14.234.204.562.077.33.078.735Zm0 0"/><path id="m" d="M6.766 0h-.532v-2.312q0-.733-.234-1.079-.236-.341-.687-.343-.47.002-.844.343a1.8 1.8 0 0 0-.516.86V0h-.547v-2.312q0-.733-.219-1.079c-.148-.226-.374-.343-.687-.343-.305 0-.578.109-.828.328a1.77 1.77 0 0 0-.531.86V0H.594v-4.156h.5v.937q.263-.481.672-.734.403-.265.906-.266c.351 0 .633.102.844.297q.31.283.39.766c.188-.352.414-.617.688-.797q.404-.265.906-.266.358.001.594.125a.96.96 0 0 1 .39.36q.154.234.22.562a4.3 4.3 0 0 1 .062.735Zm0 0"/><path id="q" d="M4.438-2.328q-.001.69-.266 1.234a2.05 2.05 0 0 1-.703.86Q3.01.08 2.438.078a1.75 1.75 0 0 1-1.032-.312 2.2 2.2 0 0 1-.703-.86 2.74 2.74 0 0 1-.265-1.234c0-.469.085-.883.265-1.25q.264-.544.703-.86.452-.311 1.032-.312.574 0 1.03.313.452.315.704.859.265.548.266 1.25m-.547 0q0-.577-.188-1A1.57 1.57 0 0 0 3.188-4a1.2 1.2 0 0 0-.75-.25 1.22 1.22 0 0 0-.75.25c-.22.156-.391.383-.516.672a2.5 2.5 0 0 0-.188 1q0 .564.188 1 .188.422.516.656.327.235.75.235.434 0 .75-.235.327-.248.515-.672.188-.422.188-.984m0 0"/></defs><path fill="#fff" d="M0 177.129V0h275.965v177.129Zm0 0"/><path fill="none" stroke="#000" stroke-linejoin="bevel" stroke-miterlimit="10" stroke-width=".797" d="M114.777 78.86c2.348 0 4.25 1.316 4.25 2.937s-1.902 2.933-4.25 2.933c2.348 0 4.25 1.313 4.25 2.934s-1.902 2.934-4.25 2.934c2.348 0 4.25 1.316 4.25 2.933 0 1.621-1.902 2.938-4.25 2.938 2.348 0 4.25 1.312 4.25 2.933s-1.902 2.934-4.25 2.934m17.325 0c-2.348 0-4.25-1.313-4.25-2.934 0-1.62 1.902-2.933 4.25-2.933-2.348 0-4.25-1.317-4.25-2.938 0-1.617 1.902-2.933 4.25-2.933-2.348 0-4.25-1.313-4.25-2.934s1.902-2.934 4.25-2.934c-2.348 0-4.25-1.312-4.25-2.933s1.902-2.938 4.25-2.938"/><path fill="none" stroke="#000" stroke-miterlimit="10" stroke-width=".399" d="M102.18 33.906h12.754v45.352m0 22.68v45.355H102.18M144.7 33.906h-12.76v45.352m0 22.68v45.355h12.76"/><use xlink:href="#a" x="120.768" y="36.056"/><path stroke="#000" stroke-miterlimit="10" stroke-width=".399" d="M120.32 76.426a1.134 1.134 0 1 0-2.267.001 1.134 1.134 0 0 0 2.267-.001Zm8.504 0a1.134 1.134 0 1 0-2.267.001 1.134 1.134 0 0 0 2.267-.001Zm0 0"/><use xlink:href="#b" x="3.894" y="35.377"/><use xlink:href="#c" x="10.659" y="36.871"/><use xlink:href="#d" x="14.07" y="36.871"/><use xlink:href="#e" x="15.863" y="36.871"/><path fill="none" stroke="#000" stroke-miterlimit="10" stroke-width=".398" d="M3.895 38.91h16.808"/><use xlink:href="#b" x="3.321" y="148.317"/><use xlink:href="#c" x="10.085" y="150.703"/><use xlink:href="#d" x="13.496" y="150.703"/><use xlink:href="#f" x="15.289" y="150.703"/><path fill="none" stroke="#000" stroke-miterlimit="10" stroke-width=".398" d="M3.32 152.742h17.387"/><use xlink:href="#b" x="254.516" y="35.377"/><use xlink:href="#g" x="261.281" y="36.871"/><use xlink:href="#d" x="265.433" y="36.871"/><use xlink:href="#e" x="267.227" y="36.871"/><path fill="none" stroke="#000" stroke-miterlimit="10" stroke-width=".398" d="M254.516 38.91h17.55"/><use xlink:href="#b" x="254.516" y="148.317"/><use xlink:href="#g" x="261.281" y="150.703"/><use xlink:href="#d" x="265.433" y="150.703"/><use xlink:href="#f" x="267.227" y="150.703"/><path fill="none" stroke="#000" stroke-miterlimit="10" stroke-width=".398" d="M254.516 152.742h18.125"/><use xlink:href="#b" x="254.516" y="92.07"/><use xlink:href="#g" x="261.281" y="93.564"/><use xlink:href="#d" x="265.433" y="93.564"/><use xlink:href="#h" x="267.227" y="93.564"/><path fill="none" stroke="#000" stroke-miterlimit="10" stroke-width=".398" d="M254.516 95.605h17.855"/><path fill="none" stroke="#000" stroke-miterlimit="10" stroke-width=".399" d="M24.227 33.906h24.8m0 0h38.977m0 0h14.176"/><path stroke="#000" stroke-miterlimit="10" stroke-width=".399" d="M25.36 33.906a1.134 1.134 0 1 0-2.27-.004 1.134 1.134 0 0 0 2.27.004Zm49.605 0c0-.629-.508-1.136-1.133-1.136a1.134 1.134 0 0 0 0 2.27c.625 0 1.133-.509 1.133-1.134Zm-27.175 0v1.414l3.01-1.414-3.01-1.418Zm0 0"/><use xlink:href="#i" x="42.77" y="26.254"/><use xlink:href="#c" x="45.24" y="27.749"/><use xlink:href="#d" x="48.651" y="27.749"/><use xlink:href="#e" x="50.444" y="27.749"/><path fill="none" stroke="#000" stroke-miterlimit="10" stroke-width=".398" d="M42.77 29.79h12.515"/><path fill="none" stroke="#000" stroke-miterlimit="10" stroke-width=".399" d="M144.7 33.906h24.093m22.68 0h38.265m0 0H251"/><path fill="none" stroke="#000" stroke-miterlimit="10" stroke-width=".797" d="M168.793 29.652h22.68v8.504h-22.68Zm0 0"/><use xlink:href="#j" x="174.672" y="12.002"/><use xlink:href="#g" x="180.938" y="13.496"/><path fill="none" stroke="#000" stroke-miterlimit="10" stroke-width=".398" d="M174.672 14.89h10.918m-10.918 1.993h10.918"/><use xlink:href="#k" x="177.535" y="26.208"/><path stroke="#000" stroke-miterlimit="10" stroke-width=".399" d="M252.133 33.906c0-.629-.508-1.136-1.133-1.136a1.134 1.134 0 0 0 0 2.27c.625 0 1.133-.509 1.133-1.134Zm-21.153 0v-1.418l-3.011 1.418 3.011 1.414Zm0 0"/><use xlink:href="#i" x="223.108" y="26.254"/><use xlink:href="#g" x="225.578" y="27.749"/><use xlink:href="#d" x="229.73" y="27.749"/><use xlink:href="#e" x="231.524" y="27.749"/><path fill="none" stroke="#000" stroke-miterlimit="10" stroke-width=".398" d="M223.11 29.79h13.257"/><path fill="none" stroke="#000" stroke-miterlimit="10" stroke-width=".399" d="M24.227 147.293h24.8m0 0h38.977m0 0h14.176"/><path stroke="#000" stroke-miterlimit="10" stroke-width=".399" d="M25.36 147.293c0-.629-.508-1.133-1.133-1.133a1.132 1.132 0 1 0 0 2.266c.625 0 1.132-.508 1.132-1.133Zm49.605 0c0-.629-.508-1.133-1.133-1.133s-1.133.504-1.133 1.133a1.134 1.134 0 0 0 2.266 0Zm-27.175 0v1.418l3.01-1.418-3.01-1.418Zm0 0"/><use xlink:href="#i" x="42.483" y="138.748"/><use xlink:href="#c" x="44.953" y="141.135"/><use xlink:href="#d" x="48.364" y="141.135"/><use xlink:href="#f" x="50.157" y="141.135"/><path fill="none" stroke="#000" stroke-miterlimit="10" stroke-width=".398" d="M42.484 143.176h13.09"/><path fill="none" stroke="#000" stroke-miterlimit="10" stroke-width=".399" d="M144.7 147.293h24.093m22.68 0h38.265m0 0H251"/><path fill="none" stroke="#000" stroke-miterlimit="10" stroke-width=".797" d="M168.793 143.04h22.68v8.503h-22.68Zm0 0"/><use xlink:href="#j" x="174.672" y="160.982"/><use xlink:href="#g" x="180.938" y="162.476"/><path fill="none" stroke="#000" stroke-miterlimit="10" stroke-width=".398" d="M174.672 163.871h10.918m-10.918 1.992h10.918"/><use xlink:href="#k" x="177.535" y="175.188"/><path stroke="#000" stroke-miterlimit="10" stroke-width=".399" d="M252.133 147.293c0-.629-.508-1.133-1.133-1.133s-1.133.504-1.133 1.133a1.134 1.134 0 0 0 2.266 0Zm-21.153 0v-1.418l-3.011 1.418 3.011 1.418Zm0 0"/><use xlink:href="#i" x="222.821" y="138.748"/><use xlink:href="#g" x="225.291" y="141.135"/><use xlink:href="#d" x="229.443" y="141.135"/><use xlink:href="#f" x="231.237" y="141.135"/><path fill="none" stroke="#000" stroke-miterlimit="10" stroke-width=".398" d="M222.82 143.176h13.832"/><path fill="none" stroke="#000" stroke-miterlimit="10" stroke-width=".399" d="M131.941 90.598h97.797m0 0H251"/><path stroke="#000" stroke-miterlimit="10" stroke-width=".399" d="M252.133 90.598a1.134 1.134 0 1 0-2.267.001 1.134 1.134 0 0 0 2.267-.001Zm-21.153 0V89.18l-3.011 1.418 3.011 1.418Zm0 0"/><use xlink:href="#i" x="222.956" y="82.947"/><use xlink:href="#g" x="225.427" y="84.442"/><use xlink:href="#d" x="229.579" y="84.442"/><use xlink:href="#h" x="231.373" y="84.442"/><path fill="none" stroke="#000" stroke-miterlimit="10" stroke-width=".398" d="M222.957 86.48h13.559"/><path fill="none" stroke="#000" stroke-miterlimit="10" stroke-width=".399" d="M73.832 33.906v45.352m0 22.68v45.355"/><path fill="none" stroke="#000" stroke-miterlimit="10" stroke-width=".797" d="M69.578 101.938v-22.68h8.504v22.68Zm0 0"/><use xlink:href="#l" x="80.448" y="93.185"/><use xlink:href="#m" x="86.933" y="94.679"/><path fill="none" stroke="#000" stroke-miterlimit="10" stroke-width=".398" d="M80.45 96.074h14.308"/><use xlink:href="#n" x="67.23" y="55.691"/><use xlink:href="#o" x="65.686" y="130.668"/><use xlink:href="#p" x="42.209" y="91.624"/><use xlink:href="#c" x="49.731" y="94.01"/><use xlink:href="#d" x="53.142" y="94.01"/><use xlink:href="#e" x="54.935" y="94.01"/><use xlink:href="#f" x="59.279" y="94.01"/><path fill="none" stroke="#000" stroke-miterlimit="10" stroke-width=".398" d="M42.21 96.05h22.485"/><use xlink:href="#n" x="206.41" y="44.955"/><use xlink:href="#o" x="205.638" y="84.711"/><use xlink:href="#p" x="199.322" y="63.724"/><use xlink:href="#g" x="206.844" y="65.218"/><use xlink:href="#d" x="210.996" y="65.218"/><use xlink:href="#e" x="212.79" y="65.218"/><path fill="none" stroke="#000" stroke-miterlimit="10" stroke-width=".398" d="M199.32 67.258h18.313"/><use xlink:href="#n" x="206.41" y="141.404"/><use xlink:href="#o" x="205.638" y="101.648"/><use xlink:href="#p" x="199.035" y="119.97"/><use xlink:href="#g" x="206.557" y="122.357"/><use xlink:href="#d" x="210.709" y="122.357"/><use xlink:href="#f" x="212.503" y="122.357"/><path fill="none" stroke="#000" stroke-miterlimit="10" stroke-width=".398" d="M199.035 124.398h18.883"/><use xlink:href="#n" x="156.803" y="44.955"/><use xlink:href="#o" x="156.031" y="84.711"/><use xlink:href="#p" x="149.716" y="64.041"/><use xlink:href="#q" x="157.238" y="60.122"/><use xlink:href="#g" x="157.238" y="66.504"/><use xlink:href="#d" x="161.39" y="66.504"/><use xlink:href="#e" x="163.184" y="66.504"/><path fill="none" stroke="#000" stroke-miterlimit="10" stroke-width=".398" d="M149.715 68.543h18.308"/><use xlink:href="#n" x="156.803" y="141.404"/><use xlink:href="#o" x="156.031" y="101.648"/><use xlink:href="#p" x="149.429" y="120.179"/><use xlink:href="#q" x="156.951" y="116.26"/><use xlink:href="#g" x="156.951" y="123.752"/><use xlink:href="#d" x="161.103" y="123.752"/><use xlink:href="#f" x="162.897" y="123.752"/><path fill="none" stroke="#000" stroke-miterlimit="10" stroke-width=".398" d="M149.43 125.793h18.882"/></svg>
