<svg xmlns="http://www.w3.org/2000/svg" xmlns:xlink="http://www.w3.org/1999/xlink" width="756.436" height="359.587" viewBox="0 0 567.327 269.69"><defs><symbol overflow="visible" id="f"><path style="stroke:none" d="M.86-7.078 3.39-.875l2.516-6.203h.735L3.703 0h-.625L.125-7.078Zm0 0"/></symbol><symbol overflow="visible" id="j"><path style="stroke:none" d="M.89 0v-7.078h.688V0Zm0 0"/></symbol><symbol overflow="visible" id="k"><path style="stroke:none" d="M3.078-7.078h.594L6.609 0h-.734l-.922-2.219H1.781L.875 0h-.75Zm1.719 4.312-1.422-3.5-1.453 3.5Zm0 0"/></symbol><symbol overflow="visible" id="m"><path style="stroke:none" d="M6.203-1.828c0 .355-.09.672-.266.953a1.87 1.87 0 0 1-.718.64A2.126 2.126 0 0 1 4.234 0H.891v-7.078h3.406c.332 0 .617.09.86.266.238.18.421.406.546.687a1.915 1.915 0 0 1-.062 1.828 1.63 1.63 0 0 1-.75.672c.406.117.722.34.953.672.238.324.36.7.36 1.125Zm-.687-.11c0-.238-.059-.457-.172-.656a1.293 1.293 0 0 0-.438-.5 1.003 1.003 0 0 0-.61-.203H1.579v2.688h2.656c.227 0 .438-.063.625-.188.196-.125.352-.285.47-.484a1.25 1.25 0 0 0 .187-.657Zm-3.938-4.53v2.609h2.438c.226 0 .43-.063.609-.188.188-.125.332-.285.438-.484.101-.196.156-.407.156-.625 0-.239-.055-.457-.157-.657a1.155 1.155 0 0 0-.406-.468.94.94 0 0 0-.578-.188Zm0 0"/></symbol><symbol overflow="visible" id="o"><path style="stroke:none" d="M.422-3.594c0-.426.07-.847.219-1.265.156-.414.375-.797.656-1.141a2.993 2.993 0 0 1 1.047-.813 3.25 3.25 0 0 1 1.437-.312c.625 0 1.16.148 1.61.438.457.292.789.664 1 1.109l-.547.344a2.14 2.14 0 0 0-.578-.735 2.033 2.033 0 0 0-.75-.39 2.61 2.61 0 0 0-.782-.125c-.43 0-.804.086-1.125.25-.324.168-.601.39-.828.671a3.087 3.087 0 0 0-.5.954 3.273 3.273 0 0 0-.172 1.062c0 .399.067.774.204 1.125.132.356.32.672.562.953.238.274.52.492.844.657.32.167.672.25 1.047.25.27 0 .539-.047.812-.141a2.62 2.62 0 0 0 .781-.422c.25-.195.446-.453.594-.766l.578.313c-.148.344-.375.64-.687.89a3.16 3.16 0 0 1-1.016.563 3.462 3.462 0 0 1-1.094.188c-.492 0-.937-.102-1.343-.313a3.536 3.536 0 0 1-1.063-.828 3.877 3.877 0 0 1-.672-1.188 3.918 3.918 0 0 1-.234-1.328Zm0 0"/></symbol><symbol overflow="visible" id="q"><path style="stroke:none" d="M1.578-5.797V0H.891v-7.078h.578l4.64 5.906v-5.89h.704V0h-.657Zm0 0"/></symbol><symbol overflow="visible" id="r"><path style="stroke:none" d="M.844-7.078 3.156-4 5.47-7.078h.781l-2.72 3.594L6.171 0h-.78L3.156-2.984.922 0H.125l2.64-3.484L.048-7.078Zm0 0"/></symbol><symbol overflow="visible" id="v"><path style="stroke:none" d="m.922-7.078 2.312 3.812 2.344-3.812h.75L3.594-2.625V0H2.89v-2.656L.156-7.078Zm0 0"/></symbol><symbol overflow="visible" id="x"><path style="stroke:none" d="M3.625-3.813v.547h-1.25v1.36H1.75v-1.36H.516v-.546H1.75v-1.344h.625v1.343Zm0 0"/></symbol><symbol overflow="visible" id="y"><path style="stroke:none" d="M.64-2.406v-.625h4.391v.625Zm0 0"/></symbol><symbol overflow="visible" id="z"><path style="stroke:none" d="M3.766.047c-.555 0-1.024-.098-1.407-.297a2.383 2.383 0 0 1-.921-.797 3.524 3.524 0 0 1-.5-1.14A5.496 5.496 0 0 1 .78-3.516v-3.562h.688v3.562c0 .375.035.743.11 1.094.081.344.206.656.374.938.176.28.41.507.703.671.29.157.66.235 1.11.235.445 0 .816-.082 1.109-.25.3-.176.535-.399.703-.672a3.18 3.18 0 0 0 .36-.938c.07-.351.109-.71.109-1.078v-3.562h.703v3.562c0 .48-.055.938-.156 1.375-.106.43-.278.805-.516 1.125a2.66 2.66 0 0 1-.937.782c-.375.187-.836.28-1.375.28Zm0 0"/></symbol><symbol overflow="visible" id="C"><path style="stroke:none" d="m.313-.547 4.812-5.906H.391v-.625h5.546v.547L1.173-.625h4.75V0H.312Zm0 0"/></symbol><symbol overflow="visible" id="E"><path style="stroke:none" d="m.906-5.188 1.531 2.032.079.14.078-.14 1.515-2.031h.766L2.906-2.579 4.875 0h-.766L2.594-2.031l-.078-.125-.079.125L.923 0H.156L2.11-2.578.156-5.188Zm0 0"/></symbol><symbol overflow="visible" id="I"><path style="stroke:none" d="M1.047 1.594c.094.008.18.015.266.015a.857.857 0 0 0 .187-.015.397.397 0 0 0 .234-.14c.07-.087.157-.243.25-.47.102-.218.243-.546.422-.984L.156-5.188h.719l1.89 4.485 1.766-4.484h.672L2.516 1.5a1.582 1.582 0 0 1-.22.36.994.994 0 0 1-.343.265 1.202 1.202 0 0 1-.5.094.753.753 0 0 1-.187 0c-.063 0-.137-.008-.22-.016Zm0 0"/></symbol><symbol overflow="visible" id="K"><path style="stroke:none" d="M.313-.453 3.78-4.687H.391v-.5h4.171v.453L1.095-.516h3.453V0H.313Zm0 0"/></symbol><symbol overflow="visible" id="M"><path style="stroke:none" d="M.328-1.5c0-.32.094-.598.281-.828a1.75 1.75 0 0 1 .766-.547c.332-.133.71-.203 1.14-.203.258 0 .524.023.797.062.27.043.508.102.72.172v-.437c0-.438-.134-.785-.391-1.047-.25-.258-.606-.39-1.063-.39a2.34 2.34 0 0 0-.828.155 4.266 4.266 0 0 0-.844.454l-.265-.47a4.38 4.38 0 0 1 1-.53 3.076 3.076 0 0 1 1-.172c.632 0 1.14.183 1.515.547.375.367.563.87.563 1.515v2.406c0 .094.015.165.047.204.039.043.109.07.203.078V0c-.074.008-.14.016-.203.016a.244.244 0 0 1-.11 0 .478.478 0 0 1-.516-.469l-.015-.39c-.23.304-.531.538-.906.702a2.951 2.951 0 0 1-1.14.235 2.02 2.02 0 0 1-.907-.203 1.713 1.713 0 0 1-.625-.579A1.556 1.556 0 0 1 .328-1.5Zm3.485.406a1.1 1.1 0 0 0 .156-.265.656.656 0 0 0 .062-.235v-.765a3.861 3.861 0 0 0-.703-.188 3.49 3.49 0 0 0-.719-.078c-.492 0-.886.102-1.187.297-.293.187-.438.45-.438.781 0 .2.047.383.141.547.102.168.25.309.438.422.195.105.425.156.687.156.32 0 .625-.062.906-.187s.5-.286.656-.485Zm0 0"/></symbol><symbol overflow="visible" id="N"><path style="stroke:none" d="M3.297.094a2.18 2.18 0 0 1-1.14-.313A2.28 2.28 0 0 1 1.358-1v1H.75v-7.281h.672v3.172a2.99 2.99 0 0 1 .844-.844c.32-.219.703-.328 1.14-.328.364 0 .688.078.969.234.29.149.54.352.75.61.207.25.363.539.469.859.101.324.156.656.156 1 0 .367-.063.71-.188 1.031A2.612 2.612 0 0 1 4.25-.109a2.28 2.28 0 0 1-.953.203ZM3.125-.5a1.796 1.796 0 0 0 1.39-.64 2.159 2.159 0 0 0 .547-1.438c0-.363-.078-.707-.234-1.031a2.031 2.031 0 0 0-.656-.782 1.62 1.62 0 0 0-.969-.296 1.5 1.5 0 0 0-.734.187c-.23.117-.434.273-.61.469a2.85 2.85 0 0 0-.437.64v1.61c.031.187.098.36.203.515.113.157.254.293.422.407a3.4 3.4 0 0 0 .547.265c.187.063.363.094.531.094Zm0 0"/></symbol><symbol overflow="visible" id="O"><path style="stroke:none" d="M3 .094c-.375 0-.727-.07-1.047-.203a2.708 2.708 0 0 1-.828-.594 3.03 3.03 0 0 1-.547-.875A2.811 2.811 0 0 1 .391-2.61c0-.489.109-.938.328-1.344a2.55 2.55 0 0 1 .906-.969c.395-.238.848-.36 1.36-.36.488 0 .913.118 1.28.345.376.218.657.515.844.89l-.656.203a1.59 1.59 0 0 0-.625-.61 1.678 1.678 0 0 0-.875-.234c-.344 0-.664.094-.953.282-.281.18-.508.422-.672.734-.168.313-.25.668-.25 1.063 0 .386.082.742.25 1.062.176.324.406.578.688.766.289.187.609.281.953.281.226 0 .445-.035.656-.11a1.87 1.87 0 0 0 .547-.328.993.993 0 0 0 .312-.453l.672.204a1.69 1.69 0 0 1-.468.671c-.22.188-.477.34-.766.454-.281.101-.59.156-.922.156Zm0 0"/></symbol><symbol overflow="visible" id="P"><path style="stroke:none" d="M5.11 0h-.673v-2.906c0-.602-.093-1.047-.28-1.328-.18-.29-.462-.438-.845-.438a1.7 1.7 0 0 0-.78.203 2.103 2.103 0 0 0-.688.532 2.218 2.218 0 0 0-.422.75V0H.75v-5.188h.61v1.172c.144-.25.327-.468.546-.656.227-.195.485-.348.766-.453a2.66 2.66 0 0 1 .89-.156c.29 0 .536.054.735.156.195.105.351.258.469.453.125.2.21.438.265.719.051.273.078.574.078.906Zm0 0"/></symbol><symbol overflow="visible" id="g"><path style="stroke:none" d="M3.234-.5V0H.531v-.5h1.14v-3.406a1.14 1.14 0 0 1-.218.219c-.105.074-.226.14-.36.203-.124.062-.25.117-.374.156a1.106 1.106 0 0 1-.36.062v-.53c.125 0 .258-.032.407-.095a3.207 3.207 0 0 0 .75-.5.874.874 0 0 0 .156-.156h.547V-.5Zm0 0"/></symbol><symbol overflow="visible" id="h"><path style="stroke:none" d="m.688.64.14-.671H.641v-.75h.515v.75L.97.64Zm0 0"/></symbol><symbol overflow="visible" id="i"><path style="stroke:none" d="M.266-1.188c0-.257.07-.484.218-.671.145-.196.348-.348.61-.454a2.62 2.62 0 0 1 .922-.156c.195 0 .406.024.625.063.218.031.414.078.593.14v-.359c0-.344-.105-.617-.312-.828-.211-.207-.496-.313-.86-.313-.23 0-.453.043-.671.125a3.954 3.954 0 0 0-.672.36l-.203-.39c.27-.177.535-.313.796-.407.258-.094.524-.14.797-.14.508 0 .91.148 1.204.437.3.293.453.695.453 1.203v1.922c0 .074.015.133.046.172.032.03.083.046.157.046V0c-.063.008-.117.016-.156.016a.184.184 0 0 1-.094 0c-.137 0-.242-.04-.313-.125a.407.407 0 0 1-.094-.25l-.015-.313a1.86 1.86 0 0 1-.735.563 2.25 2.25 0 0 1-.89.187c-.274 0-.516-.058-.734-.172a1.367 1.367 0 0 1-.5-.453 1.222 1.222 0 0 1-.172-.64Zm2.78.313c.052-.07.095-.14.126-.203a.43.43 0 0 0 .062-.203v-.594a3.015 3.015 0 0 0-.578-.156 2.848 2.848 0 0 0-.578-.063c-.387 0-.7.078-.937.235a.691.691 0 0 0-.36.625c0 .156.035.304.11.437.082.137.203.25.359.344.156.086.336.125.547.125.258 0 .5-.05.719-.156.226-.102.406-.235.53-.391Zm0 0"/></symbol><symbol overflow="visible" id="l"><path style="stroke:none" d="M2.625.078a1.73 1.73 0 0 1-.906-.25 1.83 1.83 0 0 1-.64-.64V0H.593v-5.813h.547v2.532c.187-.281.41-.504.671-.672.258-.176.563-.266.907-.266.289 0 .55.063.781.188.227.117.426.277.594.484.164.2.289.43.375.688.082.261.125.527.125.796 0 .293-.055.57-.157.829A2.08 2.08 0 0 1 3.405-.093c-.242.113-.5.171-.781.171ZM2.5-.39c.227 0 .438-.046.625-.14a1.56 1.56 0 0 0 .484-.375c.145-.156.254-.332.329-.531A1.902 1.902 0 0 0 3.86-2.89a1.623 1.623 0 0 0-.516-.626 1.311 1.311 0 0 0-.781-.234 1.23 1.23 0 0 0-.594.156c-.18.094-.34.219-.485.375a2.4 2.4 0 0 0-.343.516v1.281a.91.91 0 0 0 .156.406c.094.125.207.235.344.329.132.085.273.156.421.218.157.055.301.078.438.078Zm0 0"/></symbol><symbol overflow="visible" id="n"><path style="stroke:none" d="M2.406.078c-.312 0-.594-.058-.844-.172a2.06 2.06 0 0 1-.656-.469 2.263 2.263 0 0 1-.594-1.53c0-.384.086-.739.266-1.063.176-.332.422-.594.735-.781A2.055 2.055 0 0 1 2.39-4.22c.382 0 .722.09 1.015.266.301.18.524.418.672.719l-.531.171a1.22 1.22 0 0 0-.485-.5 1.353 1.353 0 0 0-.703-.187c-.273 0-.523.074-.75.219a1.57 1.57 0 0 0-.546.594c-.137.25-.204.53-.204.843 0 .313.067.602.204.86.144.25.328.453.546.609.227.156.485.234.766.234.176 0 .348-.03.516-.093.164-.07.312-.16.437-.266a.873.873 0 0 0 .25-.36l.547.157c-.074.2-.2.375-.375.531-.18.156-.383.281-.61.375a2.18 2.18 0 0 1-.734.125Zm0 0"/></symbol><symbol overflow="visible" id="p"><path style="stroke:none" d="M4.094 0h-.547v-2.313c0-.488-.074-.847-.219-1.078-.148-.226-.371-.343-.672-.343-.219 0-.433.054-.64.156a1.89 1.89 0 0 0-.532.422c-.156.18-.273.383-.343.61V0H.594v-4.156h.5v.937c.113-.195.258-.367.437-.515.176-.157.38-.274.61-.36.226-.082.468-.125.718-.125.227 0 .422.043.579.125a.974.974 0 0 1 .374.36c.094.156.16.343.204.562.05.219.078.465.078.735Zm0 0"/></symbol><symbol overflow="visible" id="s"><path style="stroke:none" d="M2.89-3.047v.438h-.984v1.078h-.5V-2.61H.422v-.438h.984v-1.078h.5v1.078Zm0 0"/></symbol><symbol overflow="visible" id="t"><path style="stroke:none" d="m.672-5.656 1.86 2.453 1.827-2.453H5L2.828-2.781 4.938 0h-.641L2.53-2.375.734 0H.11l2.094-2.781L.047-5.656Zm0 0"/></symbol><symbol overflow="visible" id="u"><path style="stroke:none" d="M.516-1.922v-.5h3.5v.5Zm0 0"/></symbol><symbol overflow="visible" id="w"><path style="stroke:none" d="M6.766 0h-.532v-2.313c0-.488-.078-.847-.234-1.078-.156-.226-.387-.343-.688-.343a1.23 1.23 0 0 0-.843.343 1.806 1.806 0 0 0-.516.86V0h-.547v-2.313c0-.488-.074-.847-.219-1.078-.148-.226-.374-.343-.687-.343-.305 0-.578.109-.828.328a1.77 1.77 0 0 0-.531.86V0H.594v-4.156h.5v.937c.176-.32.398-.566.672-.734.27-.176.57-.266.906-.266.351 0 .633.102.844.297.207.188.336.445.39.766.188-.352.414-.617.688-.797.27-.176.57-.266.906-.266.238 0 .438.043.594.125a.964.964 0 0 1 .39.36c.102.156.176.343.22.562a4.3 4.3 0 0 1 .062.735Zm0 0"/></symbol><symbol overflow="visible" id="B"><path style="stroke:none" d="m.734-5.656 1.86 3.047 1.86-3.047h.609L2.874-2.11V0h-.563v-2.125L.126-5.656Zm0 0"/></symbol><symbol overflow="visible" id="D"><path style="stroke:none" d="m.25-.438 3.844-4.718H.312v-.5h4.422v.437L.938-.5h3.796V0H.25Zm0 0"/></symbol><symbol overflow="visible" id="F"><path style="stroke:none" d="m.719-4.156 1.219 1.625.078.125.062-.125 1.203-1.625h.61L2.312-2.063 3.891 0h-.61L2.078-1.625l-.062-.11-.079.11L.734 0H.125l1.563-2.063L.125-4.155Zm0 0"/></symbol><symbol overflow="visible" id="G"><path style="stroke:none" d="M.344 0c0-.176.015-.36.047-.547.039-.187.101-.367.187-.547.094-.176.227-.347.406-.515.176-.164.407-.329.688-.485l.484-.219c.164-.082.32-.171.469-.265.145-.094.258-.195.344-.313a.765.765 0 0 0 .016-.813.748.748 0 0 0-.344-.312 1.274 1.274 0 0 0-.594-.125c-.168 0-.324.028-.469.079a1.333 1.333 0 0 0-.36.171 2.037 2.037 0 0 0-.265.22 2.11 2.11 0 0 1-.187.171l-.344-.375.172-.172a2.27 2.27 0 0 1 .36-.25 2.06 2.06 0 0 1 .515-.234c.207-.063.43-.094.672-.094.32 0 .597.059.828.172.226.117.406.266.531.453.125.188.188.398.188.625 0 .219-.047.406-.141.563a1.487 1.487 0 0 1-.36.406 3.516 3.516 0 0 1-.89.5 3.41 3.41 0 0 0-.625.36 1.97 1.97 0 0 0-.406.359A1.345 1.345 0 0 0 .922-.5h2.844V0Zm0 0"/></symbol><symbol overflow="visible" id="H"><path style="stroke:none" d="M4.438-2.328c0 .46-.09.871-.266 1.234a2.05 2.05 0 0 1-.703.86c-.305.21-.649.312-1.031.312a1.75 1.75 0 0 1-1.032-.312 2.173 2.173 0 0 1-.703-.86 2.742 2.742 0 0 1-.265-1.234c0-.469.085-.883.265-1.25.176-.363.41-.649.703-.86a1.779 1.779 0 0 1 1.032-.312c.382 0 .726.105 1.03.313.302.21.536.496.704.859.176.367.266.781.266 1.25Zm-.547 0c0-.383-.063-.719-.188-1A1.567 1.567 0 0 0 3.188-4a1.19 1.19 0 0 0-.75-.25 1.22 1.22 0 0 0-.75.25c-.22.156-.391.383-.516.672a2.456 2.456 0 0 0-.188 1c0 .375.063.71.188 1 .125.281.297.5.516.656.218.156.468.235.75.235.289 0 .539-.079.75-.235.218-.164.39-.39.515-.672.125-.281.188-.61.188-.984Zm0 0"/></symbol><symbol overflow="visible" id="J"><path style="stroke:none" d="M.844 1.281h.203c.07.008.125.008.156 0 .063-.011.117-.054.172-.125.063-.062.133-.183.219-.36.082-.179.191-.444.328-.796L.125-4.156h.563l1.53 3.593 1.407-3.593h.531l-2.14 5.36a1.156 1.156 0 0 1-.172.28.639.639 0 0 1-.282.204 1.13 1.13 0 0 1-.406.093h-.14c-.055 0-.11-.008-.172-.015Zm0 0"/></symbol><symbol overflow="visible" id="L"><path style="stroke:none" d="m.25-.36 2.781-3.39H.312v-.406h3.329v.375L.875-.406h2.766V0H.25Zm0 0"/></symbol><symbol overflow="visible" id="A"><path style="stroke:none" d="M2.453-2.547c.664-.133 1.164-.351 1.5-.656.344-.3.516-.617.516-.953 0-.196-.059-.344-.172-.438a.698.698 0 0 0-.453-.14c-.305 0-.617.101-.938.296a3.84 3.84 0 0 0-.922.813 5.51 5.51 0 0 0-.765 1.203l.203-1.094a5.89 5.89 0 0 1 .766-.906c.269-.27.554-.484.859-.64.312-.157.629-.235.953-.235.375 0 .648.102.828.297.188.188.281.438.281.75 0 .438-.164.836-.484 1.188-.313.343-.766.617-1.36.812L4.423 0h-.734ZM1.641-7.28h.671L.766 0H.094Zm0 0"/></symbol><clipPath id="a"><path d="M0 0h72v269.691H0Zm0 0"/></clipPath><clipPath id="b"><path d="M85 0h58v269.691H85Zm0 0"/></clipPath><clipPath id="c"><path d="M425 0h58v269.691h-58Zm0 0"/></clipPath><clipPath id="d"><path d="M496 0h71.328v269.691H496Zm0 0"/></clipPath><clipPath id="e"><path d="M155 0h257v269.691H155Zm0 0"/></clipPath></defs><path style="stroke:none;fill-rule:nonzero;fill:#fff;fill-opacity:1" d="M0 269.691V-.004h567.336v269.695Zm0 0"/><g clip-path="url(#a)"><path style="fill:none;stroke-width:.3985;stroke-linecap:butt;stroke-linejoin:miter;stroke:#00f;stroke-opacity:1;stroke-dasharray:2.98883,2.98883;stroke-miterlimit:10" d="M0-28.348v269.297h70.867V-28.348Zm0 0" transform="matrix(1 0 0 -1 .199 241.144)"/></g><g clip-path="url(#b)"><path style="fill:none;stroke-width:.3985;stroke-linecap:butt;stroke-linejoin:miter;stroke:#00f;stroke-opacity:1;stroke-miterlimit:10" d="M85.04-28.348v269.297h56.695V-28.348Zm0 0" transform="matrix(1 0 0 -1 .199 241.144)"/></g><g clip-path="url(#c)"><path style="fill:none;stroke-width:.3985;stroke-linecap:butt;stroke-linejoin:miter;stroke:#00f;stroke-opacity:1;stroke-miterlimit:10" d="M425.203-28.348v269.297h56.692V-28.348Zm0 0" transform="matrix(1 0 0 -1 .199 241.144)"/></g><g clip-path="url(#d)"><path style="fill:none;stroke-width:.3985;stroke-linecap:butt;stroke-linejoin:miter;stroke:#00f;stroke-opacity:1;stroke-dasharray:2.98883,2.98883;stroke-miterlimit:10" d="M496.07-28.348v269.297h70.868V-28.348Zm0 0" transform="matrix(1 0 0 -1 .199 241.144)"/></g><g clip-path="url(#e)"><path style="fill:none;stroke-width:.3985;stroke-linecap:butt;stroke-linejoin:miter;stroke:#00f;stroke-opacity:1;stroke-dasharray:2.98883,2.98883;stroke-miterlimit:10" d="M155.906-28.348v269.297h255.122V-28.348Zm0 0" transform="matrix(1 0 0 -1 .199 241.144)"/></g><path style="fill:none;stroke-width:.3985;stroke-linecap:butt;stroke-linejoin:miter;stroke:#000;stroke-opacity:1;stroke-miterlimit:10" d="M28.348 212.601h28.348m0 0h28.343" transform="matrix(1 0 0 -1 .199 241.144)"/><use xlink:href="#f" x="8.215" y="30.017" style="fill:#000;fill-opacity:1"/><g style="fill:#000;fill-opacity:1"><use xlink:href="#g" x="14.98" y="31.511"/><use xlink:href="#h" x="18.391" y="31.511"/><use xlink:href="#i" x="20.184" y="31.511"/></g><path style="fill:none;stroke-width:.398;stroke-linecap:butt;stroke-linejoin:miter;stroke:#000;stroke-opacity:1;stroke-miterlimit:10" d="M0 0h16.812" transform="matrix(1 0 0 -1 8.215 33.551)"/><path style="fill-rule:nonzero;fill:#000;fill-opacity:1;stroke-width:.3985;stroke-linecap:butt;stroke-linejoin:miter;stroke:#000;stroke-opacity:1;stroke-miterlimit:10" d="M86.176 212.601a1.134 1.134 0 0 1-2.27 0 1.134 1.134 0 0 1 2.27 0Zm-30.723 0v-1.418l3.012 1.418-3.012 1.418Zm0 0" transform="matrix(1 0 0 -1 .199 241.144)"/><use xlink:href="#j" x="50.634" y="20.894" style="fill:#000;fill-opacity:1"/><g style="fill:#000;fill-opacity:1"><use xlink:href="#g" x="53.104" y="22.388"/><use xlink:href="#h" x="56.515" y="22.388"/><use xlink:href="#i" x="58.308" y="22.388"/></g><path style="fill:none;stroke-width:.398;stroke-linecap:butt;stroke-linejoin:miter;stroke:#000;stroke-opacity:1;stroke-miterlimit:10" d="M-.001-.002h12.52" transform="matrix(1 0 0 -1 50.634 24.428)"/><use xlink:href="#k" x="88.758" y="32.083" style="fill:#000;fill-opacity:1"/><path style="fill:none;stroke-width:.3985;stroke-linecap:butt;stroke-linejoin:miter;stroke:#000;stroke-opacity:1;stroke-miterlimit:10" d="M28.348 141.734h28.348m0 0h28.343" transform="matrix(1 0 0 -1 .199 241.144)"/><use xlink:href="#f" x="7.641" y="100.437" style="fill:#000;fill-opacity:1"/><g style="fill:#000;fill-opacity:1"><use xlink:href="#g" x="14.406" y="102.823"/><use xlink:href="#h" x="17.817" y="102.823"/><use xlink:href="#l" x="19.61" y="102.823"/></g><path style="fill:none;stroke-width:.398;stroke-linecap:butt;stroke-linejoin:miter;stroke:#000;stroke-opacity:1;stroke-miterlimit:10" d="M0 0h17.386" transform="matrix(1 0 0 -1 7.641 104.863)"/><path style="fill-rule:nonzero;fill:#000;fill-opacity:1;stroke-width:.3985;stroke-linecap:butt;stroke-linejoin:miter;stroke:#000;stroke-opacity:1;stroke-miterlimit:10" d="M86.176 141.734a1.134 1.134 0 0 1-2.27 0 1.134 1.134 0 0 1 2.27 0Zm-30.723 0v-1.418l3.012 1.418-3.012 1.418Zm0 0" transform="matrix(1 0 0 -1 .199 241.144)"/><use xlink:href="#j" x="50.347" y="90.868" style="fill:#000;fill-opacity:1"/><g style="fill:#000;fill-opacity:1"><use xlink:href="#g" x="52.817" y="93.254"/><use xlink:href="#h" x="56.228" y="93.254"/><use xlink:href="#l" x="58.021" y="93.254"/></g><path style="fill:none;stroke-width:.398;stroke-linecap:butt;stroke-linejoin:miter;stroke:#000;stroke-opacity:1;stroke-miterlimit:10" d="M0-.002h13.09" transform="matrix(1 0 0 -1 50.347 95.295)"/><use xlink:href="#m" x="88.758" y="102.949" style="fill:#000;fill-opacity:1"/><path style="fill:none;stroke-width:.3985;stroke-linecap:butt;stroke-linejoin:miter;stroke:#000;stroke-opacity:1;stroke-miterlimit:10" d="M28.348 70.867h28.348m0 0h28.343" transform="matrix(1 0 0 -1 .199 241.144)"/><use xlink:href="#f" x="8.183" y="171.749" style="fill:#000;fill-opacity:1"/><g style="fill:#000;fill-opacity:1"><use xlink:href="#g" x="14.948" y="173.243"/><use xlink:href="#h" x="18.359" y="173.243"/><use xlink:href="#n" x="20.152" y="173.243"/></g><path style="fill:none;stroke-width:.398;stroke-linecap:butt;stroke-linejoin:miter;stroke:#000;stroke-opacity:1;stroke-miterlimit:10" d="M0 .002h16.844" transform="matrix(1 0 0 -1 8.183 175.283)"/><path style="fill-rule:nonzero;fill:#000;fill-opacity:1;stroke-width:.3985;stroke-linecap:butt;stroke-linejoin:miter;stroke:#000;stroke-opacity:1;stroke-miterlimit:10" d="M86.176 70.867a1.134 1.134 0 0 1-2.27 0 1.134 1.134 0 0 1 2.27 0Zm-30.723 0v-1.418l3.012 1.418-3.012 1.418Zm0 0" transform="matrix(1 0 0 -1 .199 241.144)"/><use xlink:href="#j" x="50.618" y="162.626" style="fill:#000;fill-opacity:1"/><g style="fill:#000;fill-opacity:1"><use xlink:href="#g" x="53.088" y="164.12"/><use xlink:href="#h" x="56.499" y="164.12"/><use xlink:href="#n" x="58.292" y="164.12"/></g><path style="fill:none;stroke-width:.398;stroke-linecap:butt;stroke-linejoin:miter;stroke:#000;stroke-opacity:1;stroke-miterlimit:10" d="M0 0h12.55" transform="matrix(1 0 0 -1 50.618 166.161)"/><use xlink:href="#o" x="88.758" y="173.805" style="fill:#000;fill-opacity:1"/><path style="fill:none;stroke-width:.3985;stroke-linecap:butt;stroke-linejoin:miter;stroke:#000;stroke-opacity:1;stroke-miterlimit:10" d="M28.348 0h28.348m0 0h28.343" transform="matrix(1 0 0 -1 .199 241.144)"/><use xlink:href="#f" x="7.912" y="242.615" style="fill:#000;fill-opacity:1"/><g style="fill:#000;fill-opacity:1"><use xlink:href="#g" x="14.677" y="244.109"/><use xlink:href="#h" x="18.088" y="244.109"/><use xlink:href="#p" x="19.881" y="244.109"/></g><path style="fill:none;stroke-width:.398;stroke-linecap:butt;stroke-linejoin:miter;stroke:#000;stroke-opacity:1;stroke-miterlimit:10" d="M-.002 0h17.117" transform="matrix(1 0 0 -1 7.912 246.149)"/><path style="fill-rule:nonzero;fill:#000;fill-opacity:1;stroke-width:.3985;stroke-linecap:butt;stroke-linejoin:miter;stroke:#000;stroke-opacity:1;stroke-miterlimit:10" d="M86.176 0a1.134 1.134 0 0 1-2.27 0 1.134 1.134 0 0 1 2.27 0ZM55.453 0v-1.42L58.465 0l-3.012 1.418Zm0 0" transform="matrix(1 0 0 -1 .199 241.144)"/><use xlink:href="#j" x="50.482" y="233.492" style="fill:#000;fill-opacity:1"/><g style="fill:#000;fill-opacity:1"><use xlink:href="#g" x="52.953" y="234.987"/><use xlink:href="#h" x="56.364" y="234.987"/><use xlink:href="#p" x="58.157" y="234.987"/></g><path style="fill:none;stroke-width:.398;stroke-linecap:butt;stroke-linejoin:miter;stroke:#000;stroke-opacity:1;stroke-miterlimit:10" d="M-.002 0h12.82" transform="matrix(1 0 0 -1 50.482 237.027)"/><use xlink:href="#q" x="88.758" y="244.681" style="fill:#000;fill-opacity:1"/><path style="fill:none;stroke-width:.797;stroke-linecap:butt;stroke-linejoin:bevel;stroke:#000;stroke-opacity:1;stroke-miterlimit:10" d="M274.805 203.078c2.348 0 4.25-1.313 4.25-2.934 0-1.621-1.902-2.934-4.25-2.934 2.348 0 4.25-1.316 4.25-2.933 0-1.621-1.902-2.938-4.25-2.938 2.348 0 4.25-1.312 4.25-2.933 0-1.621-1.902-2.934-4.25-2.934 2.348 0 4.25-1.312 4.25-2.933 0-1.622-1.902-2.934-4.25-2.934m17.328 0c-2.352 0-4.254 1.312-4.254 2.934 0 1.62 1.902 2.933 4.254 2.933-2.352 0-4.254 1.313-4.254 2.934 0 1.62 1.902 2.933 4.254 2.933-2.352 0-4.254 1.317-4.254 2.938 0 1.617 1.902 2.933 4.254 2.933-2.352 0-4.254 1.313-4.254 2.934 0 1.621 1.902 2.934 4.254 2.934" transform="matrix(1 0 0 -1 .199 241.144)"/><path style="fill:none;stroke-width:.3985;stroke-linecap:butt;stroke-linejoin:miter;stroke:#000;stroke-opacity:1;stroke-miterlimit:10" d="M262.207 219.687h12.758v-17.008m0-22.676v-17.007h-12.758m42.52 56.691h-12.754v-17.008m0-22.676v-17.007h12.754m-162.992 56.691h28.347m0 0h60.235m0 0h31.89" transform="matrix(1 0 0 -1 .199 241.144)"/><use xlink:href="#r" x="128.31" y="25.331" style="fill:#000;fill-opacity:1"/><use xlink:href="#s" x="134.606" y="21.716" style="fill:#000;fill-opacity:1"/><path style="fill-rule:nonzero;fill:#000;fill-opacity:1;stroke-width:.3985;stroke-linecap:butt;stroke-linejoin:miter;stroke:#000;stroke-opacity:1;stroke-miterlimit:10" d="M142.867 219.687a1.134 1.134 0 1 1-2.267-.002 1.134 1.134 0 0 1 2.267.002Zm25.973 0v-1.418l3.012 1.418-3.012 1.418Zm0 0" transform="matrix(1 0 0 -1 .199 241.144)"/><use xlink:href="#j" x="166.275" y="13.72" style="fill:#000;fill-opacity:1"/><use xlink:href="#t" x="168.746" y="15.947" style="fill:#000;fill-opacity:1"/><path style="fill:none;stroke-width:.398;stroke-linecap:butt;stroke-linejoin:miter;stroke:#000;stroke-opacity:1;stroke-miterlimit:10" d="M-.002-.002h8.008" transform="matrix(1 0 0 -1 166.275 17.342)"/><path style="fill:none;stroke-width:.3985;stroke-linecap:butt;stroke-linejoin:miter;stroke:#000;stroke-opacity:1;stroke-miterlimit:10" d="M141.735 162.996h28.347m0 0h60.235m0 0h31.89" transform="matrix(1 0 0 -1 .199 241.144)"/><use xlink:href="#r" x="127.074" y="81.689" style="fill:#000;fill-opacity:1"/><use xlink:href="#u" x="133.371" y="78.074" style="fill:#000;fill-opacity:1"/><path style="fill-rule:nonzero;fill:#000;fill-opacity:1;stroke-width:.3985;stroke-linecap:butt;stroke-linejoin:miter;stroke:#000;stroke-opacity:1;stroke-miterlimit:10" d="M142.867 162.996a1.134 1.134 0 1 1-2.267-.002 1.134 1.134 0 0 1 2.267.002Zm0 0" transform="matrix(1 0 0 -1 .199 241.144)"/><path style="fill:none;stroke-width:.3985;stroke-linecap:butt;stroke-linejoin:miter;stroke:#000;stroke-opacity:1;stroke-miterlimit:10" d="M198.426 219.687v-17.008m0-22.676v-17.007" transform="matrix(1 0 0 -1 .199 241.144)"/><path style="fill:none;stroke-width:.797;stroke-linecap:butt;stroke-linejoin:miter;stroke:#000;stroke-opacity:1;stroke-miterlimit:10" d="M194.176 180.003v22.676h8.504v-22.676Zm0 0" transform="matrix(1 0 0 -1 .199 241.144)"/><use xlink:href="#v" x="205.241" y="52.391" style="fill:#000;fill-opacity:1"/><g style="fill:#000;fill-opacity:1"><use xlink:href="#w" x="211.726" y="53.885"/><use xlink:href="#h" x="219.051" y="53.885"/><use xlink:href="#i" x="220.844" y="53.885"/></g><path style="fill:none;stroke-width:.398;stroke-linecap:butt;stroke-linejoin:miter;stroke:#000;stroke-opacity:1;stroke-miterlimit:10" d="M.001 0h20.445" transform="matrix(1 0 0 -1 205.241 55.926)"/><use xlink:href="#x" x="192.023" y="31.906" style="fill:#000;fill-opacity:1"/><use xlink:href="#y" x="190.479" y="72.867" style="fill:#000;fill-opacity:1"/><use xlink:href="#z" x="176.431" y="51.233" style="fill:#000;fill-opacity:1"/><use xlink:href="#t" x="183.952" y="53.46" style="fill:#000;fill-opacity:1"/><path style="fill:none;stroke-width:.398;stroke-linecap:butt;stroke-linejoin:miter;stroke:#000;stroke-opacity:1;stroke-miterlimit:10" d="M-.001 0h13.058" transform="matrix(1 0 0 -1 176.431 54.855)"/><path style="fill-rule:nonzero;fill:#000;fill-opacity:1;stroke-width:.3985;stroke-linecap:butt;stroke-linejoin:miter;stroke:#000;stroke-opacity:1;stroke-miterlimit:10" d="M198.426 212.425h-1.414l1.414-3.011 1.418 3.011Zm0 0" transform="matrix(1 0 0 -1 .199 241.144)"/><use xlink:href="#j" x="202.144" y="31.434" style="fill:#000;fill-opacity:1"/><g style="fill:#000;fill-opacity:1"><use xlink:href="#w" x="204.615" y="32.928"/><use xlink:href="#h" x="211.94" y="32.928"/><use xlink:href="#i" x="213.733" y="32.928"/></g><path style="fill:none;stroke-width:.398;stroke-linecap:butt;stroke-linejoin:miter;stroke:#000;stroke-opacity:1;stroke-miterlimit:10" d="M0 0h16.43" transform="matrix(1 0 0 -1 202.144 34.968)"/><use xlink:href="#A" x="280.994" y="23.609" style="fill:#000;fill-opacity:1"/><path style="fill-rule:nonzero;fill:#000;fill-opacity:1;stroke-width:.3985;stroke-linecap:butt;stroke-linejoin:miter;stroke:#000;stroke-opacity:1;stroke-miterlimit:10" d="M280.352 205.515a1.134 1.134 0 0 1-2.27 0 1.134 1.134 0 0 1 2.27 0Zm8.5 0a1.134 1.134 0 1 1-2.264-.002 1.134 1.134 0 0 1 2.264.002Zm0 0" transform="matrix(1 0 0 -1 .199 241.144)"/><path style="fill:none;stroke-width:.797;stroke-linecap:butt;stroke-linejoin:bevel;stroke:#000;stroke-opacity:1;stroke-miterlimit:10" d="M274.805 118.039c2.348 0 4.25-1.317 4.25-2.934 0-1.621-1.902-2.938-4.25-2.938 2.348 0 4.25-1.312 4.25-2.933 0-1.621-1.902-2.934-4.25-2.934 2.348 0 4.25-1.312 4.25-2.933 0-1.621-1.902-2.934-4.25-2.934 2.348 0 4.25-1.316 4.25-2.934 0-1.62-1.902-2.937-4.25-2.937m17.328 0c-2.352 0-4.254 1.316-4.254 2.937 0 1.618 1.902 2.934 4.254 2.934-2.352 0-4.254 1.313-4.254 2.934 0 1.62 1.902 2.933 4.254 2.933-2.352 0-4.254 1.313-4.254 2.934 0 1.62 1.902 2.933 4.254 2.933-2.352 0-4.254 1.317-4.254 2.938 0 1.617 1.902 2.934 4.254 2.934" transform="matrix(1 0 0 -1 .199 241.144)"/><path style="fill:none;stroke-width:.3985;stroke-linecap:butt;stroke-linejoin:miter;stroke:#000;stroke-opacity:1;stroke-miterlimit:10" d="M262.207 134.648h12.758V117.64m0-22.68V77.953h-12.758m42.52 56.695h-12.754V117.64m0-22.68V77.953h12.754m-162.992 56.695h28.347m0 0h60.235m0 0h31.89" transform="matrix(1 0 0 -1 .199 241.144)"/><use xlink:href="#v" x="128.12" y="110.371" style="fill:#000;fill-opacity:1"/><use xlink:href="#s" x="134.606" y="106.755" style="fill:#000;fill-opacity:1"/><path style="fill-rule:nonzero;fill:#000;fill-opacity:1;stroke-width:.3985;stroke-linecap:butt;stroke-linejoin:miter;stroke:#000;stroke-opacity:1;stroke-miterlimit:10" d="M142.867 134.648a1.134 1.134 0 1 1-2.267-.002 1.134 1.134 0 0 1 2.267.002Zm25.973 0v-1.418l3.012 1.418-3.012 1.418Zm0 0" transform="matrix(1 0 0 -1 .199 241.144)"/><use xlink:href="#j" x="166.199" y="98.759" style="fill:#000;fill-opacity:1"/><use xlink:href="#B" x="168.67" y="100.987" style="fill:#000;fill-opacity:1"/><path style="fill:none;stroke-width:.398;stroke-linecap:butt;stroke-linejoin:miter;stroke:#000;stroke-opacity:1;stroke-miterlimit:10" d="M0-.002h8.156" transform="matrix(1 0 0 -1 166.199 102.381)"/><path style="fill:none;stroke-width:.3985;stroke-linecap:butt;stroke-linejoin:miter;stroke:#000;stroke-opacity:1;stroke-miterlimit:10" d="M141.735 77.953h28.347m0 0h60.235m0 0h31.89" transform="matrix(1 0 0 -1 .199 241.144)"/><use xlink:href="#v" x="126.885" y="166.728" style="fill:#000;fill-opacity:1"/><use xlink:href="#u" x="133.371" y="163.113" style="fill:#000;fill-opacity:1"/><path style="fill-rule:nonzero;fill:#000;fill-opacity:1;stroke-width:.3985;stroke-linecap:butt;stroke-linejoin:miter;stroke:#000;stroke-opacity:1;stroke-miterlimit:10" d="M142.867 77.953c0 .629-.507 1.136-1.132 1.136a1.134 1.134 0 0 1 0-2.27c.625 0 1.132.509 1.132 1.134Zm0 0" transform="matrix(1 0 0 -1 .199 241.144)"/><path style="fill:none;stroke-width:.3985;stroke-linecap:butt;stroke-linejoin:miter;stroke:#000;stroke-opacity:1;stroke-miterlimit:10" d="M198.426 134.648V117.64m0-22.68V77.953" transform="matrix(1 0 0 -1 .199 241.144)"/><path style="fill:none;stroke-width:.797;stroke-linecap:butt;stroke-linejoin:miter;stroke:#000;stroke-opacity:1;stroke-miterlimit:10" d="M194.176 94.96v22.68h8.504V94.96Zm0 0" transform="matrix(1 0 0 -1 .199 241.144)"/><use xlink:href="#v" x="205.241" y="137.43" style="fill:#000;fill-opacity:1"/><g style="fill:#000;fill-opacity:1"><use xlink:href="#w" x="211.726" y="139.817"/><use xlink:href="#h" x="219.051" y="139.817"/><use xlink:href="#l" x="220.844" y="139.817"/></g><path style="fill:none;stroke-width:.398;stroke-linecap:butt;stroke-linejoin:miter;stroke:#000;stroke-opacity:1;stroke-miterlimit:10" d="M.001.002h21.02" transform="matrix(1 0 0 -1 205.241 141.857)"/><use xlink:href="#x" x="192.023" y="116.945" style="fill:#000;fill-opacity:1"/><use xlink:href="#y" x="190.479" y="157.906" style="fill:#000;fill-opacity:1"/><use xlink:href="#z" x="176.279" y="136.272" style="fill:#000;fill-opacity:1"/><use xlink:href="#B" x="183.801" y="138.499" style="fill:#000;fill-opacity:1"/><path style="fill:none;stroke-width:.398;stroke-linecap:butt;stroke-linejoin:miter;stroke:#000;stroke-opacity:1;stroke-miterlimit:10" d="M-.002 0H13.21" transform="matrix(1 0 0 -1 176.279 139.894)"/><path style="fill-rule:nonzero;fill:#000;fill-opacity:1;stroke-width:.3985;stroke-linecap:butt;stroke-linejoin:miter;stroke:#000;stroke-opacity:1;stroke-miterlimit:10" d="M198.426 127.382h-1.414l1.414-3.011 1.418 3.011Zm0 0" transform="matrix(1 0 0 -1 .199 241.144)"/><use xlink:href="#j" x="202.144" y="116.027" style="fill:#000;fill-opacity:1"/><g style="fill:#000;fill-opacity:1"><use xlink:href="#w" x="204.615" y="118.414"/><use xlink:href="#h" x="211.94" y="118.414"/><use xlink:href="#l" x="213.733" y="118.414"/></g><path style="fill:none;stroke-width:.398;stroke-linecap:butt;stroke-linejoin:miter;stroke:#000;stroke-opacity:1;stroke-miterlimit:10" d="M0 0h17.004" transform="matrix(1 0 0 -1 202.144 120.454)"/><use xlink:href="#A" x="280.994" y="108.648" style="fill:#000;fill-opacity:1"/><path style="fill-rule:nonzero;fill:#000;fill-opacity:1;stroke-width:.3985;stroke-linecap:butt;stroke-linejoin:miter;stroke:#000;stroke-opacity:1;stroke-miterlimit:10" d="M280.352 120.472a1.135 1.135 0 1 1-2.27.003 1.135 1.135 0 0 1 2.27-.003Zm8.5 0a1.132 1.132 0 1 1-2.266 0 1.134 1.134 0 0 1 2.266 0Zm0 0" transform="matrix(1 0 0 -1 .199 241.144)"/><path style="fill:none;stroke-width:.797;stroke-linecap:butt;stroke-linejoin:bevel;stroke:#000;stroke-opacity:1;stroke-miterlimit:10" d="M274.805 32.996c2.348 0 4.25-1.313 4.25-2.934 0-1.621-1.902-2.934-4.25-2.934 2.348 0 4.25-1.312 4.25-2.933 0-1.621-1.902-2.934-4.25-2.934 2.348 0 4.25-1.316 4.25-2.933 0-1.622-1.902-2.938-4.25-2.938 2.348 0 4.25-1.312 4.25-2.934 0-1.62-1.902-2.933-4.25-2.933m17.328 0c-2.352 0-4.254 1.312-4.254 2.934 0 1.62 1.902 2.933 4.254 2.933-2.352 0-4.254 1.316-4.254 2.938 0 1.617 1.902 2.933 4.254 2.933-2.352 0-4.254 1.313-4.254 2.934 0 1.62 1.902 2.933 4.254 2.933-2.352 0-4.254 1.313-4.254 2.934 0 1.621 1.902 2.934 4.254 2.934" transform="matrix(1 0 0 -1 .199 241.144)"/><path style="fill:none;stroke-width:.3985;stroke-linecap:butt;stroke-linejoin:miter;stroke:#000;stroke-opacity:1;stroke-miterlimit:10" d="M262.207 49.609h12.758V32.597m0-22.676V-7.086h-12.758m42.52 56.695h-12.754V32.597m0-22.676V-7.086h12.754M141.735 49.609h28.347m0 0h60.235m0 0h31.89" transform="matrix(1 0 0 -1 .199 241.144)"/><use xlink:href="#C" x="128.339" y="195.41" style="fill:#000;fill-opacity:1"/><use xlink:href="#s" x="134.606" y="191.795" style="fill:#000;fill-opacity:1"/><path style="fill-rule:nonzero;fill:#000;fill-opacity:1;stroke-width:.3985;stroke-linecap:butt;stroke-linejoin:miter;stroke:#000;stroke-opacity:1;stroke-miterlimit:10" d="M142.867 49.609a1.134 1.134 0 1 1-2.267-.002 1.134 1.134 0 0 1 2.267.002Zm25.973 0V48.19l3.012 1.418-3.012 1.414Zm0 0" transform="matrix(1 0 0 -1 .199 241.144)"/><use xlink:href="#j" x="166.287" y="183.799" style="fill:#000;fill-opacity:1"/><use xlink:href="#D" x="168.758" y="186.026" style="fill:#000;fill-opacity:1"/><path style="fill:none;stroke-width:.398;stroke-linecap:butt;stroke-linejoin:miter;stroke:#000;stroke-opacity:1;stroke-miterlimit:10" d="M-.002 0h7.985" transform="matrix(1 0 0 -1 166.287 187.421)"/><path style="fill:none;stroke-width:.3985;stroke-linecap:butt;stroke-linejoin:miter;stroke:#000;stroke-opacity:1;stroke-miterlimit:10" d="M141.735-7.086h28.347m0 0h60.235m0 0h31.89" transform="matrix(1 0 0 -1 .199 241.144)"/><use xlink:href="#C" x="127.104" y="251.768" style="fill:#000;fill-opacity:1"/><use xlink:href="#u" x="133.371" y="248.152" style="fill:#000;fill-opacity:1"/><path style="fill-rule:nonzero;fill:#000;fill-opacity:1;stroke-width:.3985;stroke-linecap:butt;stroke-linejoin:miter;stroke:#000;stroke-opacity:1;stroke-miterlimit:10" d="M142.867-7.086a1.134 1.134 0 1 1-2.267-.002 1.134 1.134 0 0 1 2.267.002Zm0 0" transform="matrix(1 0 0 -1 .199 241.144)"/><path style="fill:none;stroke-width:.3985;stroke-linecap:butt;stroke-linejoin:miter;stroke:#000;stroke-opacity:1;stroke-miterlimit:10" d="M198.426 49.609V32.597m0-22.676V-7.086" transform="matrix(1 0 0 -1 .199 241.144)"/><path style="fill:none;stroke-width:.797;stroke-linecap:butt;stroke-linejoin:miter;stroke:#000;stroke-opacity:1;stroke-miterlimit:10" d="M194.176 9.921v22.676h8.504V9.921Zm0 0" transform="matrix(1 0 0 -1 .199 241.144)"/><use xlink:href="#v" x="205.241" y="222.47" style="fill:#000;fill-opacity:1"/><g style="fill:#000;fill-opacity:1"><use xlink:href="#w" x="211.726" y="223.964"/><use xlink:href="#h" x="219.051" y="223.964"/><use xlink:href="#n" x="220.844" y="223.964"/></g><path style="fill:none;stroke-width:.398;stroke-linecap:butt;stroke-linejoin:miter;stroke:#000;stroke-opacity:1;stroke-miterlimit:10" d="M.001 0h20.477" transform="matrix(1 0 0 -1 205.241 226.004)"/><use xlink:href="#x" x="192.023" y="201.984" style="fill:#000;fill-opacity:1"/><use xlink:href="#y" x="190.479" y="242.945" style="fill:#000;fill-opacity:1"/><use xlink:href="#z" x="176.454" y="221.311" style="fill:#000;fill-opacity:1"/><use xlink:href="#D" x="183.976" y="223.539" style="fill:#000;fill-opacity:1"/><path style="fill:none;stroke-width:.398;stroke-linecap:butt;stroke-linejoin:miter;stroke:#000;stroke-opacity:1;stroke-miterlimit:10" d="M0 0h13.034" transform="matrix(1 0 0 -1 176.454 224.933)"/><path style="fill-rule:nonzero;fill:#000;fill-opacity:1;stroke-width:.3985;stroke-linecap:butt;stroke-linejoin:miter;stroke:#000;stroke-opacity:1;stroke-miterlimit:10" d="M198.426 42.343h-1.414l1.414-3.012 1.418 3.012Zm0 0" transform="matrix(1 0 0 -1 .199 241.144)"/><use xlink:href="#j" x="202.144" y="201.512" style="fill:#000;fill-opacity:1"/><g style="fill:#000;fill-opacity:1"><use xlink:href="#w" x="204.615" y="203.007"/><use xlink:href="#h" x="211.94" y="203.007"/><use xlink:href="#n" x="213.733" y="203.007"/></g><path style="fill:none;stroke-width:.398;stroke-linecap:butt;stroke-linejoin:miter;stroke:#000;stroke-opacity:1;stroke-miterlimit:10" d="M0 0h16.461" transform="matrix(1 0 0 -1 202.144 205.047)"/><use xlink:href="#A" x="280.994" y="193.687" style="fill:#000;fill-opacity:1"/><path style="fill-rule:nonzero;fill:#000;fill-opacity:1;stroke-width:.3985;stroke-linecap:butt;stroke-linejoin:miter;stroke:#000;stroke-opacity:1;stroke-miterlimit:10" d="M280.352 35.433a1.134 1.134 0 0 1-2.27 0 1.134 1.134 0 0 1 2.27 0Zm8.5 0a1.134 1.134 0 1 1-2.264-.002 1.134 1.134 0 0 1 2.264.002Zm0 0" transform="matrix(1 0 0 -1 .199 241.144)"/><path style="fill:none;stroke-width:.3985;stroke-linecap:butt;stroke-linejoin:miter;stroke:#000;stroke-opacity:1;stroke-miterlimit:10" d="M425.203 219.687h-21.261m0 0h-38.27m-22.676 0H315.36m0 0h-10.633" transform="matrix(1 0 0 -1 .199 241.144)"/><use xlink:href="#E" x="428.916" y="25.331" style="fill:#000;fill-opacity:1"/><use xlink:href="#s" x="433.937" y="21.716" style="fill:#000;fill-opacity:1"/><path style="fill-rule:nonzero;fill:#000;fill-opacity:1;stroke-width:.3985;stroke-linecap:butt;stroke-linejoin:miter;stroke:#000;stroke-opacity:1;stroke-miterlimit:10" d="M426.336 219.687a1.134 1.134 0 1 1-2.267-.002 1.134 1.134 0 0 1 2.267.002Zm-21.152 0v1.418l-3.012-1.418 3.012-1.418Zm0 0" transform="matrix(1 0 0 -1 .199 241.144)"/><use xlink:href="#j" x="400.643" y="14.453" style="fill:#000;fill-opacity:1"/><use xlink:href="#F" x="403.114" y="15.947" style="fill:#000;fill-opacity:1"/><path style="fill:none;stroke-width:.398;stroke-linecap:butt;stroke-linejoin:miter;stroke:#000;stroke-opacity:1;stroke-miterlimit:10" d="M.002-.002h6.984" transform="matrix(1 0 0 -1 400.643 17.342)"/><path style="fill:none;stroke-width:.797;stroke-linecap:butt;stroke-linejoin:miter;stroke:#000;stroke-opacity:1;stroke-miterlimit:10" d="M342.996 223.94h22.676v-8.503h-22.676Zm0 0" transform="matrix(1 0 0 -1 .199 241.144)"/><use xlink:href="#C" x="346.003" y="36.444" style="fill:#000;fill-opacity:1"/><g style="fill:#000;fill-opacity:1"><use xlink:href="#G" x="352.269" y="37.939"/><use xlink:href="#h" x="356.421" y="37.939"/><use xlink:href="#i" x="358.215" y="37.939"/></g><path style="fill:none;stroke-width:.398;stroke-linecap:butt;stroke-linejoin:miter;stroke:#000;stroke-opacity:1;stroke-miterlimit:10" d="M0-.001h17.056" transform="matrix(1 0 0 -1 346.003 39.979)"/><path style="fill:none;stroke-width:.3985;stroke-linecap:butt;stroke-linejoin:miter;stroke:#000;stroke-opacity:1;stroke-miterlimit:10" d="M425.203 162.996h-60.238m0 0h-60.238" transform="matrix(1 0 0 -1 .199 241.144)"/><use xlink:href="#E" x="428.916" y="81.171" style="fill:#000;fill-opacity:1"/><use xlink:href="#u" x="433.937" y="77.556" style="fill:#000;fill-opacity:1"/><path style="fill-rule:nonzero;fill:#000;fill-opacity:1;stroke-width:.3985;stroke-linecap:butt;stroke-linejoin:miter;stroke:#000;stroke-opacity:1;stroke-miterlimit:10" d="M426.336 162.996a1.134 1.134 0 0 1-2.27 0 1.135 1.135 0 1 1 2.27 0Zm0 0" transform="matrix(1 0 0 -1 .199 241.144)"/><use xlink:href="#y" x="380.037" y="72.264" style="fill:#000;fill-opacity:1"/><use xlink:href="#x" x="380.809" y="32.508" style="fill:#000;fill-opacity:1"/><use xlink:href="#z" x="376.858" y="51.599" style="fill:#000;fill-opacity:1"/><use xlink:href="#F" x="384.38" y="53.094" style="fill:#000;fill-opacity:1"/><path style="fill:none;stroke-width:.398;stroke-linecap:butt;stroke-linejoin:miter;stroke:#000;stroke-opacity:1;stroke-miterlimit:10" d="M.001 0h12.036" transform="matrix(1 0 0 -1 376.858 54.488)"/><use xlink:href="#y" x="323.344" y="72.264" style="fill:#000;fill-opacity:1"/><use xlink:href="#x" x="324.116" y="32.508" style="fill:#000;fill-opacity:1"/><use xlink:href="#z" x="316.829" y="51.276" style="fill:#000;fill-opacity:1"/><g style="fill:#000;fill-opacity:1"><use xlink:href="#H" x="324.351" y="52.771"/><use xlink:href="#h" x="329.229" y="52.771"/><use xlink:href="#F" x="331.022" y="52.771"/></g><path style="fill:none;stroke-width:.398;stroke-linecap:butt;stroke-linejoin:miter;stroke:#000;stroke-opacity:1;stroke-miterlimit:10" d="M0-.002h18.706" transform="matrix(1 0 0 -1 316.829 54.811)"/><path style="fill:none;stroke-width:.3985;stroke-linecap:butt;stroke-linejoin:miter;stroke:#000;stroke-opacity:1;stroke-miterlimit:10" d="M425.203 134.648h-21.261m0 0h-38.27m-22.676 0H315.36m0 0h-10.633" transform="matrix(1 0 0 -1 .199 241.144)"/><use xlink:href="#I" x="428.916" y="109.255" style="fill:#000;fill-opacity:1"/><use xlink:href="#s" x="434.315" y="105.639" style="fill:#000;fill-opacity:1"/><path style="fill-rule:nonzero;fill:#000;fill-opacity:1;stroke-width:.3985;stroke-linecap:butt;stroke-linejoin:miter;stroke:#000;stroke-opacity:1;stroke-miterlimit:10" d="M426.336 134.648a1.134 1.134 0 1 1-2.267-.002 1.134 1.134 0 0 1 2.267.002Zm-21.152 0v1.418l-3.012-1.418 3.012-1.418Zm0 0" transform="matrix(1 0 0 -1 .199 241.144)"/><use xlink:href="#j" x="400.492" y="97.707" style="fill:#000;fill-opacity:1"/><use xlink:href="#J" x="402.962" y="99.201" style="fill:#000;fill-opacity:1"/><path style="fill:none;stroke-width:.398;stroke-linecap:butt;stroke-linejoin:miter;stroke:#000;stroke-opacity:1;stroke-miterlimit:10" d="M0-.002h7.29" transform="matrix(1 0 0 -1 400.492 102.381)"/><path style="fill:none;stroke-width:.797;stroke-linecap:butt;stroke-linejoin:miter;stroke:#000;stroke-opacity:1;stroke-miterlimit:10" d="M342.996 138.898h22.676v-8.504h-22.676Zm0 0" transform="matrix(1 0 0 -1 .199 241.144)"/><use xlink:href="#C" x="345.716" y="121.483" style="fill:#000;fill-opacity:1"/><g style="fill:#000;fill-opacity:1"><use xlink:href="#G" x="351.982" y="123.87"/><use xlink:href="#h" x="356.134" y="123.87"/><use xlink:href="#l" x="357.928" y="123.87"/></g><path style="fill:none;stroke-width:.398;stroke-linecap:butt;stroke-linejoin:miter;stroke:#000;stroke-opacity:1;stroke-miterlimit:10" d="M-.001 0h17.629" transform="matrix(1 0 0 -1 345.716 125.91)"/><path style="fill:none;stroke-width:.3985;stroke-linecap:butt;stroke-linejoin:miter;stroke:#000;stroke-opacity:1;stroke-miterlimit:10" d="M425.203 77.953h-60.238m0 0h-60.238" transform="matrix(1 0 0 -1 .199 241.144)"/><use xlink:href="#I" x="428.916" y="165.095" style="fill:#000;fill-opacity:1"/><use xlink:href="#u" x="434.315" y="161.48" style="fill:#000;fill-opacity:1"/><path style="fill-rule:nonzero;fill:#000;fill-opacity:1;stroke-width:.3985;stroke-linecap:butt;stroke-linejoin:miter;stroke:#000;stroke-opacity:1;stroke-miterlimit:10" d="M426.336 77.953a1.134 1.134 0 1 1-2.269.004 1.134 1.134 0 0 1 2.27-.004Zm0 0" transform="matrix(1 0 0 -1 .199 241.144)"/><use xlink:href="#y" x="380.037" y="157.303" style="fill:#000;fill-opacity:1"/><use xlink:href="#x" x="380.809" y="117.548" style="fill:#000;fill-opacity:1"/><use xlink:href="#z" x="376.706" y="135.746" style="fill:#000;fill-opacity:1"/><use xlink:href="#J" x="384.228" y="137.24" style="fill:#000;fill-opacity:1"/><path style="fill:none;stroke-width:.398;stroke-linecap:butt;stroke-linejoin:miter;stroke:#000;stroke-opacity:1;stroke-miterlimit:10" d="M.001-.002h12.34" transform="matrix(1 0 0 -1 376.706 140.42)"/><use xlink:href="#y" x="323.344" y="157.303" style="fill:#000;fill-opacity:1"/><use xlink:href="#x" x="324.116" y="117.548" style="fill:#000;fill-opacity:1"/><use xlink:href="#z" x="316.678" y="135.746" style="fill:#000;fill-opacity:1"/><g style="fill:#000;fill-opacity:1"><use xlink:href="#H" x="324.2" y="137.24"/><use xlink:href="#h" x="329.078" y="137.24"/><use xlink:href="#J" x="330.871" y="137.24"/></g><path style="fill:none;stroke-width:.398;stroke-linecap:butt;stroke-linejoin:miter;stroke:#000;stroke-opacity:1;stroke-miterlimit:10" d="M.002-.002H19.01" transform="matrix(1 0 0 -1 316.678 140.42)"/><path style="fill:none;stroke-width:.3985;stroke-linecap:butt;stroke-linejoin:miter;stroke:#000;stroke-opacity:1;stroke-miterlimit:10" d="M425.203 49.609h-21.261m0 0h-38.27m-22.676 0H315.36m0 0h-10.633" transform="matrix(1 0 0 -1 .199 241.144)"/><use xlink:href="#K" x="428.916" y="195.41" style="fill:#000;fill-opacity:1"/><use xlink:href="#s" x="433.817" y="191.795" style="fill:#000;fill-opacity:1"/><path style="fill-rule:nonzero;fill:#000;fill-opacity:1;stroke-width:.3985;stroke-linecap:butt;stroke-linejoin:miter;stroke:#000;stroke-opacity:1;stroke-miterlimit:10" d="M426.336 49.609a1.134 1.134 0 0 1-2.27 0 1.135 1.135 0 1 1 2.27 0Zm-21.152 0v1.414l-3.012-1.414 3.012-1.418Zm0 0" transform="matrix(1 0 0 -1 .199 241.144)"/><use xlink:href="#j" x="400.691" y="184.531" style="fill:#000;fill-opacity:1"/><use xlink:href="#L" x="403.162" y="186.026" style="fill:#000;fill-opacity:1"/><path style="fill:none;stroke-width:.398;stroke-linecap:butt;stroke-linejoin:miter;stroke:#000;stroke-opacity:1;stroke-miterlimit:10" d="M0 0h6.891" transform="matrix(1 0 0 -1 400.691 187.421)"/><path style="fill:none;stroke-width:.797;stroke-linecap:butt;stroke-linejoin:miter;stroke:#000;stroke-opacity:1;stroke-miterlimit:10" d="M342.996 53.859h22.676v-8.504h-22.676Zm0 0" transform="matrix(1 0 0 -1 .199 241.144)"/><use xlink:href="#C" x="345.987" y="206.523" style="fill:#000;fill-opacity:1"/><g style="fill:#000;fill-opacity:1"><use xlink:href="#G" x="352.253" y="208.017"/><use xlink:href="#h" x="356.405" y="208.017"/><use xlink:href="#n" x="358.199" y="208.017"/></g><path style="fill:none;stroke-width:.398;stroke-linecap:butt;stroke-linejoin:miter;stroke:#000;stroke-opacity:1;stroke-miterlimit:10" d="M.001-.002h17.086" transform="matrix(1 0 0 -1 345.987 210.057)"/><path style="fill:none;stroke-width:.3985;stroke-linecap:butt;stroke-linejoin:miter;stroke:#000;stroke-opacity:1;stroke-miterlimit:10" d="M425.203-7.086h-60.238m0 0h-60.238" transform="matrix(1 0 0 -1 .199 241.144)"/><use xlink:href="#K" x="428.916" y="251.25" style="fill:#000;fill-opacity:1"/><use xlink:href="#u" x="433.817" y="247.635" style="fill:#000;fill-opacity:1"/><path style="fill-rule:nonzero;fill:#000;fill-opacity:1;stroke-width:.3985;stroke-linecap:butt;stroke-linejoin:miter;stroke:#000;stroke-opacity:1;stroke-miterlimit:10" d="M426.336-7.086a1.134 1.134 0 1 1-2.267-.002 1.134 1.134 0 0 1 2.267.002Zm0 0" transform="matrix(1 0 0 -1 .199 241.144)"/><use xlink:href="#y" x="380.037" y="242.343" style="fill:#000;fill-opacity:1"/><use xlink:href="#x" x="380.809" y="202.587" style="fill:#000;fill-opacity:1"/><use xlink:href="#z" x="376.906" y="221.678" style="fill:#000;fill-opacity:1"/><use xlink:href="#L" x="384.427" y="223.172" style="fill:#000;fill-opacity:1"/><path style="fill:none;stroke-width:.398;stroke-linecap:butt;stroke-linejoin:miter;stroke:#000;stroke-opacity:1;stroke-miterlimit:10" d="M0 0h11.942" transform="matrix(1 0 0 -1 376.906 224.567)"/><use xlink:href="#y" x="323.344" y="242.343" style="fill:#000;fill-opacity:1"/><use xlink:href="#x" x="324.116" y="202.587" style="fill:#000;fill-opacity:1"/><use xlink:href="#z" x="316.877" y="221.355" style="fill:#000;fill-opacity:1"/><g style="fill:#000;fill-opacity:1"><use xlink:href="#H" x="324.399" y="222.849"/><use xlink:href="#h" x="329.277" y="222.849"/><use xlink:href="#L" x="331.07" y="222.849"/></g><path style="fill:none;stroke-width:.398;stroke-linecap:butt;stroke-linejoin:miter;stroke:#000;stroke-opacity:1;stroke-miterlimit:10" d="M.002 0h18.61" transform="matrix(1 0 0 -1 316.877 224.89)"/><path style="fill:none;stroke-width:.3985;stroke-linecap:butt;stroke-linejoin:miter;stroke:#000;stroke-opacity:1;stroke-miterlimit:10" d="M538.59 212.601h-28.348m0 0h-28.347" transform="matrix(1 0 0 -1 .199 241.144)"/><use xlink:href="#f" x="542.301" y="30.017" style="fill:#000;fill-opacity:1"/><g style="fill:#000;fill-opacity:1"><use xlink:href="#G" x="549.066" y="31.511"/><use xlink:href="#h" x="553.218" y="31.511"/><use xlink:href="#i" x="555.012" y="31.511"/></g><path style="fill:none;stroke-width:.398;stroke-linecap:butt;stroke-linejoin:miter;stroke:#000;stroke-opacity:1;stroke-miterlimit:10" d="M0 0h17.55" transform="matrix(1 0 0 -1 542.301 33.551)"/><path style="fill-rule:nonzero;fill:#000;fill-opacity:1;stroke-width:.3985;stroke-linecap:butt;stroke-linejoin:miter;stroke:#000;stroke-opacity:1;stroke-miterlimit:10" d="M483.028 212.601a1.134 1.134 0 1 1-2.264-.002 1.134 1.134 0 0 1 2.264.002Zm28.457 0v1.418l-3.016-1.418 3.016-1.418Zm0 0" transform="matrix(1 0 0 -1 .199 241.144)"/><use xlink:href="#j" x="503.806" y="20.894" style="fill:#000;fill-opacity:1"/><g style="fill:#000;fill-opacity:1"><use xlink:href="#G" x="506.277" y="22.388"/><use xlink:href="#h" x="510.429" y="22.388"/><use xlink:href="#i" x="512.223" y="22.388"/></g><path style="fill:none;stroke-width:.398;stroke-linecap:butt;stroke-linejoin:miter;stroke:#000;stroke-opacity:1;stroke-miterlimit:10" d="M-.001-.002h13.258" transform="matrix(1 0 0 -1 503.806 24.428)"/><use xlink:href="#M" x="473.139" y="31.136" style="fill:#000;fill-opacity:1"/><path style="fill:none;stroke-width:.3985;stroke-linecap:butt;stroke-linejoin:miter;stroke:#000;stroke-opacity:1;stroke-miterlimit:10" d="M538.59 141.734h-28.348m0 0h-28.347" transform="matrix(1 0 0 -1 .199 241.144)"/><use xlink:href="#f" x="542.301" y="100.437" style="fill:#000;fill-opacity:1"/><g style="fill:#000;fill-opacity:1"><use xlink:href="#G" x="549.066" y="102.823"/><use xlink:href="#h" x="553.218" y="102.823"/><use xlink:href="#l" x="555.012" y="102.823"/></g><path style="fill:none;stroke-width:.398;stroke-linecap:butt;stroke-linejoin:miter;stroke:#000;stroke-opacity:1;stroke-miterlimit:10" d="M0 0h18.125" transform="matrix(1 0 0 -1 542.301 104.863)"/><path style="fill-rule:nonzero;fill:#000;fill-opacity:1;stroke-width:.3985;stroke-linecap:butt;stroke-linejoin:miter;stroke:#000;stroke-opacity:1;stroke-miterlimit:10" d="M483.028 141.734a1.134 1.134 0 1 1-2.264-.002 1.134 1.134 0 0 1 2.264.002Zm28.457 0v1.418l-3.016-1.418 3.016-1.418Zm0 0" transform="matrix(1 0 0 -1 .199 241.144)"/><use xlink:href="#j" x="503.519" y="90.868" style="fill:#000;fill-opacity:1"/><g style="fill:#000;fill-opacity:1"><use xlink:href="#G" x="505.99" y="93.254"/><use xlink:href="#h" x="510.142" y="93.254"/><use xlink:href="#l" x="511.936" y="93.254"/></g><path style="fill:none;stroke-width:.398;stroke-linecap:butt;stroke-linejoin:miter;stroke:#000;stroke-opacity:1;stroke-miterlimit:10" d="M0-.002h13.833" transform="matrix(1 0 0 -1 503.519 95.295)"/><use xlink:href="#N" x="472.422" y="102.999" style="fill:#000;fill-opacity:1"/><path style="fill:none;stroke-width:.3985;stroke-linecap:butt;stroke-linejoin:miter;stroke:#000;stroke-opacity:1;stroke-miterlimit:10" d="M538.59 70.867h-28.348m0 0h-28.347" transform="matrix(1 0 0 -1 .199 241.144)"/><use xlink:href="#f" x="542.301" y="171.749" style="fill:#000;fill-opacity:1"/><g style="fill:#000;fill-opacity:1"><use xlink:href="#G" x="549.066" y="173.243"/><use xlink:href="#h" x="553.218" y="173.243"/><use xlink:href="#n" x="555.012" y="173.243"/></g><path style="fill:none;stroke-width:.398;stroke-linecap:butt;stroke-linejoin:miter;stroke:#000;stroke-opacity:1;stroke-miterlimit:10" d="M0 .002h17.586" transform="matrix(1 0 0 -1 542.301 175.283)"/><path style="fill-rule:nonzero;fill:#000;fill-opacity:1;stroke-width:.3985;stroke-linecap:butt;stroke-linejoin:miter;stroke:#000;stroke-opacity:1;stroke-miterlimit:10" d="M483.028 70.867a1.134 1.134 0 1 1-2.264-.002 1.134 1.134 0 0 1 2.264.002Zm28.457 0v1.418l-3.016-1.418 3.016-1.418Zm0 0" transform="matrix(1 0 0 -1 .199 241.144)"/><use xlink:href="#j" x="503.79" y="162.626" style="fill:#000;fill-opacity:1"/><g style="fill:#000;fill-opacity:1"><use xlink:href="#G" x="506.261" y="164.12"/><use xlink:href="#h" x="510.413" y="164.12"/><use xlink:href="#n" x="512.207" y="164.12"/></g><path style="fill:none;stroke-width:.398;stroke-linecap:butt;stroke-linejoin:miter;stroke:#000;stroke-opacity:1;stroke-miterlimit:10" d="M0 0h13.288" transform="matrix(1 0 0 -1 503.79 166.161)"/><use xlink:href="#O" x="473.1" y="172.868" style="fill:#000;fill-opacity:1"/><path style="fill:none;stroke-width:.3985;stroke-linecap:butt;stroke-linejoin:miter;stroke:#000;stroke-opacity:1;stroke-miterlimit:10" d="M538.59 0h-28.348m0 0h-28.347" transform="matrix(1 0 0 -1 .199 241.144)"/><use xlink:href="#f" x="542.301" y="242.615" style="fill:#000;fill-opacity:1"/><g style="fill:#000;fill-opacity:1"><use xlink:href="#G" x="549.066" y="244.109"/><use xlink:href="#h" x="553.218" y="244.109"/><use xlink:href="#p" x="555.012" y="244.109"/></g><path style="fill:none;stroke-width:.398;stroke-linecap:butt;stroke-linejoin:miter;stroke:#000;stroke-opacity:1;stroke-miterlimit:10" d="M0 0h17.855" transform="matrix(1 0 0 -1 542.301 246.149)"/><path style="fill-rule:nonzero;fill:#000;fill-opacity:1;stroke-width:.3985;stroke-linecap:butt;stroke-linejoin:miter;stroke:#000;stroke-opacity:1;stroke-miterlimit:10" d="M483.028 0a1.134 1.134 0 1 1-2.264-.002 1.134 1.134 0 0 1 2.264.001Zm28.457 0v1.417L508.469 0l3.016-1.418Zm0 0" transform="matrix(1 0 0 -1 .199 241.144)"/><use xlink:href="#j" x="503.655" y="233.492" style="fill:#000;fill-opacity:1"/><g style="fill:#000;fill-opacity:1"><use xlink:href="#G" x="506.125" y="234.987"/><use xlink:href="#h" x="510.277" y="234.987"/><use xlink:href="#p" x="512.071" y="234.987"/></g><path style="fill:none;stroke-width:.398;stroke-linecap:butt;stroke-linejoin:miter;stroke:#000;stroke-opacity:1;stroke-miterlimit:10" d="M.001 0H13.56" transform="matrix(1 0 0 -1 503.655 237.027)"/><use xlink:href="#P" x="472.761" y="243.784" style="fill:#000;fill-opacity:1"/></svg>
