<svg xmlns="http://www.w3.org/2000/svg" xmlns:xlink="http://www.w3.org/1999/xlink" width="756.436" height="359.587" viewBox="0 0 567.327 269.69"><defs><path id="f" d="M.86-7.078 3.39-.875l2.516-6.203h.735L3.703 0h-.625L.125-7.078Zm0 0"/><path id="j" d="M.89 0v-7.078h.688V0Zm0 0"/><path id="k" d="M3.078-7.078h.594L6.609 0h-.734l-.922-2.219H1.781L.875 0h-.75Zm1.719 4.312-1.422-3.5-1.453 3.5Zm0 0"/><path id="m" d="M6.203-1.828q-.001.532-.266.953a1.87 1.87 0 0 1-.718.64A2.1 2.1 0 0 1 4.234 0H.891v-7.078h3.406q.497.001.86.266c.238.18.421.406.546.687a1.92 1.92 0 0 1-.062 1.828q-.27.456-.75.672.608.175.953.672.359.487.36 1.125m-.687-.11q-.001-.357-.172-.656a1.3 1.3 0 0 0-.438-.5 1 1 0 0 0-.61-.203H1.579v2.688h2.656q.343 0 .625-.188.293-.186.47-.484a1.25 1.25 0 0 0 .187-.657m-3.938-4.53v2.609h2.438q.34 0 .609-.188.28-.187.438-.484c.101-.196.156-.407.156-.625q-.002-.358-.157-.657a1.16 1.16 0 0 0-.406-.468.94.94 0 0 0-.578-.188Zm0 0"/><path id="o" d="M.422-3.594c0-.426.07-.847.219-1.265Q.875-5.482 1.297-6a3 3 0 0 1 1.047-.812 3.25 3.25 0 0 1 1.437-.313q.936.002 1.61.438.684.44 1 1.109l-.547.344a2.14 2.14 0 0 0-.578-.735 2 2 0 0 0-.75-.39 2.6 2.6 0 0 0-.782-.125q-.644.002-1.125.25-.487.25-.828.672a3.1 3.1 0 0 0-.5.953q-.174.516-.172 1.062 0 .598.204 1.125.199.533.562.953.358.41.844.657c.32.167.672.25 1.047.25q.404 0 .812-.141a2.6 2.6 0 0 0 .781-.422c.25-.195.446-.453.594-.766l.578.313q-.22.515-.687.89a3.2 3.2 0 0 1-1.016.563 3.5 3.5 0 0 1-1.094.188Q2.998.065 2.391-.25a3.5 3.5 0 0 1-1.063-.828 3.9 3.9 0 0 1-.672-1.188 3.9 3.9 0 0 1-.234-1.328m0 0"/><path id="q" d="M1.578-5.797V0H.891v-7.078h.578l4.64 5.906v-5.89h.704V0h-.657Zm0 0"/><path id="r" d="M.844-7.078 3.156-4 5.47-7.078h.781l-2.72 3.594L6.171 0h-.78L3.156-2.984.922 0H.125l2.64-3.484L.048-7.078Zm0 0"/><path id="v" d="m.922-7.078 2.312 3.812 2.344-3.812h.75L3.594-2.625V0H2.89v-2.656L.156-7.078Zm0 0"/><path id="x" d="M3.625-3.812v.546h-1.25v1.36H1.75v-1.36H.516v-.546H1.75v-1.344h.625v1.343Zm0 0"/><path id="y" d="M.64-2.406v-.625h4.391v.625Zm0 0"/><path id="z" d="M3.766.047q-.832 0-1.407-.297a2.4 2.4 0 0 1-.921-.797 3.5 3.5 0 0 1-.5-1.14A5.5 5.5 0 0 1 .78-3.516v-3.562h.688v3.562c0 .375.035.743.11 1.094q.122.516.374.938c.176.28.41.507.703.672q.435.234 1.11.234.668.001 1.109-.25.45-.263.703-.672a3.2 3.2 0 0 0 .36-.937q.107-.527.109-1.079v-3.562h.703v3.562c0 .48-.055.938-.156 1.375q-.159.645-.516 1.125a2.66 2.66 0 0 1-.937.782c-.375.187-.836.28-1.375.28m0 0"/><path id="C" d="m.313-.547 4.812-5.906H.391v-.625h5.547v.547L1.172-.625h4.75V0H.312Zm0 0"/><path id="E" d="m.906-5.187 1.531 2.03.079.141.078-.14 1.515-2.031h.766L2.906-2.578 4.875 0h-.766L2.594-2.031l-.078-.125-.079.125L.923 0H.156L2.11-2.578.156-5.188Zm0 0"/><path id="I" d="M1.047 1.594c.094.008.18.015.266.015a1 1 0 0 0 .187-.015.4.4 0 0 0 .234-.14c.07-.087.157-.243.25-.47Q2.137.657 2.406 0L.156-5.187h.719l1.89 4.484 1.766-4.484h.672L2.516 1.5a1.6 1.6 0 0 1-.22.36 1 1 0 0 1-.343.265 1.2 1.2 0 0 1-.5.094.8.8 0 0 1-.187 0c-.063 0-.137-.008-.22-.016Zm0 0"/><path id="K" d="M.313-.453 3.78-4.687H.391v-.5h4.172v.453L1.092-.516h3.454V0H.313Zm0 0"/><path id="M" d="M.328-1.5q0-.482.281-.828a1.75 1.75 0 0 1 .766-.547q.497-.201 1.14-.203.387.002.797.062.404.066.72.172v-.437c0-.438-.134-.785-.391-1.047q-.376-.388-1.063-.39a2.3 2.3 0 0 0-.828.155 4.3 4.3 0 0 0-.844.454l-.265-.47a4.4 4.4 0 0 1 1-.53 3.1 3.1 0 0 1 1-.172c.632 0 1.14.183 1.515.547q.563.549.563 1.515v2.407c0 .093.015.164.047.203q.06.065.203.078V0c-.074.008-.14.016-.203.016a.24.24 0 0 1-.11 0 .48.48 0 0 1-.516-.469l-.015-.39q-.344.456-.906.702a3 3 0 0 1-1.14.235 2 2 0 0 1-.907-.203 1.7 1.7 0 0 1-.625-.578A1.56 1.56 0 0 1 .328-1.5m3.485.406q.106-.139.156-.265a.7.7 0 0 0 .062-.235v-.765a4 4 0 0 0-.703-.188 3.5 3.5 0 0 0-.719-.078c-.492 0-.886.102-1.187.297q-.439.282-.438.781 0 .3.141.547.155.252.438.422.293.157.687.156c.32 0 .625-.062.906-.187q.422-.187.656-.485m0 0"/><path id="N" d="M3.297.094a2.2 2.2 0 0 1-1.14-.313A2.3 2.3 0 0 1 1.358-1v1H.75v-7.281h.672v3.172a3 3 0 0 1 .844-.844c.32-.219.703-.328 1.14-.328q.547 0 .969.234.435.223.75.61.31.377.469.859c.101.324.156.656.156 1q0 .55-.187 1.031A2.6 2.6 0 0 1 4.25-.109a2.3 2.3 0 0 1-.953.203M3.125-.5q.42.002.781-.172.358-.17.61-.469.264-.294.406-.671.14-.374.14-.766 0-.545-.234-1.031a2.03 2.03 0 0 0-.656-.782 1.62 1.62 0 0 0-.969-.296 1.5 1.5 0 0 0-.734.187q-.345.175-.61.469-.269.3-.437.64v1.61q.046.281.203.515.17.236.422.407.265.159.547.265.28.094.531.094m0 0"/><path id="O" d="M3 .094c-.375 0-.727-.07-1.047-.203a2.7 2.7 0 0 1-.828-.594 3 3 0 0 1-.547-.875A2.8 2.8 0 0 1 .391-2.61q0-.734.328-1.344.328-.607.906-.969.592-.359 1.36-.36c.488 0 .913.118 1.28.345q.564.327.844.89l-.656.203a1.6 1.6 0 0 0-.625-.61 1.7 1.7 0 0 0-.875-.234q-.518 0-.953.282c-.281.18-.508.422-.672.734q-.251.47-.25 1.063-.001.58.25 1.062.264.485.688.766.435.28.953.281.34.001.656-.11a1.9 1.9 0 0 0 .547-.327 1 1 0 0 0 .312-.454l.672.204q-.14.377-.468.671-.331.283-.766.454C3.64.039 3.332.094 3 .094m0 0"/><path id="P" d="M5.11 0h-.673v-2.906q0-.905-.28-1.328-.27-.437-.844-.438a1.7 1.7 0 0 0-.782.203 2.1 2.1 0 0 0-.687.532 2.2 2.2 0 0 0-.422.75V0H.75v-5.187h.61v1.171q.217-.375.546-.656c.227-.195.485-.348.766-.453q.434-.155.89-.156.436.002.735.156.292.159.469.453c.125.2.21.438.265.719q.077.409.078.906Zm0 0"/><path id="g" d="M3.234-.5V0H.531v-.5h1.14v-3.406a1.1 1.1 0 0 1-.218.219q-.158.11-.36.203c-.124.062-.25.117-.374.156a1.1 1.1 0 0 1-.36.062v-.53c.125 0 .258-.032.407-.095q.216-.105.406-.234c.133-.094.25-.18.344-.266a1 1 0 0 0 .156-.156h.547V-.5Zm0 0"/><path id="h" d="m.688.64.14-.671H.641v-.75h.515v.75L.97.64Zm0 0"/><path id="i" d="M.266-1.187c0-.258.07-.485.218-.672q.217-.295.61-.453c.27-.102.578-.157.922-.157.195 0 .406.024.625.063q.326.047.593.14v-.359c0-.344-.105-.617-.312-.828q-.315-.312-.86-.313-.344.001-.671.125-.316.127-.672.36l-.203-.39q.405-.266.797-.407.386-.14.796-.14.763.002 1.204.437.451.44.453 1.203v1.922q0 .112.046.172.047.045.157.046V0c-.063.008-.117.016-.156.016a.2.2 0 0 1-.094 0q-.206.001-.313-.125a.4.4 0 0 1-.094-.25l-.015-.313a1.86 1.86 0 0 1-.735.563 2.25 2.25 0 0 1-.89.187c-.274 0-.516-.058-.734-.172a1.4 1.4 0 0 1-.5-.453 1.2 1.2 0 0 1-.172-.64m2.78.312q.079-.107.126-.203.06-.107.062-.203v-.594a3 3 0 0 0-.578-.156 3 3 0 0 0-.578-.063q-.581 0-.937.235a.69.69 0 0 0-.36.625q-.001.236.11.437.124.204.359.344.232.127.547.125.389.002.719-.156c.226-.102.406-.235.53-.391m0 0"/><path id="l" d="M2.625.078q-.485.001-.906-.25a1.8 1.8 0 0 1-.64-.64V0H.593v-5.812h.547v2.53q.28-.42.672-.671c.257-.176.562-.266.906-.266q.434 0 .781.188.341.174.594.484.246.3.375.688.124.392.125.797-.002.44-.157.828-.14.376-.406.672-.268.299-.625.468-.361.172-.781.172M2.5-.39c.227 0 .438-.046.625-.14q.281-.141.484-.375.217-.233.329-.531.107-.311.109-.625 0-.436-.188-.829a1.6 1.6 0 0 0-.515-.625 1.3 1.3 0 0 0-.781-.234 1.23 1.23 0 0 0-.594.156q-.269.141-.485.375-.204.234-.343.516v1.281a.9.9 0 0 0 .156.406q.14.188.344.329.198.126.422.218c.156.055.3.078.437.078m0 0"/><path id="n" d="M2.406.078q-.469 0-.844-.172a2.1 2.1 0 0 1-.656-.468 2.26 2.26 0 0 1-.593-1.532c0-.383.085-.738.265-1.062q.265-.5.735-.781A2.06 2.06 0 0 1 2.39-4.22q.574.001 1.015.266.45.269.672.719l-.531.172a1.2 1.2 0 0 0-.485-.5 1.35 1.35 0 0 0-.703-.188q-.41 0-.75.219a1.57 1.57 0 0 0-.546.594q-.205.374-.204.843 0 .471.204.86.217.375.546.609.343.234.766.234.264 0 .516-.093.248-.106.437-.266a.9.9 0 0 0 .25-.36l.547.157q-.112.298-.375.531-.27.234-.61.375a2.2 2.2 0 0 1-.734.125m0 0"/><path id="p" d="M4.094 0h-.547v-2.312q0-.733-.219-1.079-.221-.341-.672-.343-.329.001-.64.156a1.9 1.9 0 0 0-.532.422c-.156.18-.273.383-.343.61V0H.594v-4.156h.5v.937q.169-.293.437-.515c.176-.157.38-.274.61-.36.226-.082.468-.125.718-.125q.342.001.579.125a1 1 0 0 1 .374.36q.14.234.204.562.077.33.078.735Zm0 0"/><path id="s" d="M2.89-3.047v.438h-.984v1.078h-.5V-2.61H.422v-.438h.984v-1.078h.5v1.078Zm0 0"/><path id="t" d="m.672-5.656 1.86 2.453 1.827-2.453H5L2.828-2.781 4.938 0h-.641L2.53-2.375.734 0H.11l2.094-2.781L.047-5.656Zm0 0"/><path id="u" d="M.516-1.922v-.5h3.5v.5Zm0 0"/><path id="w" d="M6.766 0h-.532v-2.312q0-.733-.234-1.079-.236-.341-.687-.343-.47.002-.844.343a1.8 1.8 0 0 0-.516.86V0h-.547v-2.312q0-.733-.219-1.079c-.148-.226-.374-.343-.687-.343-.305 0-.578.109-.828.328a1.77 1.77 0 0 0-.531.86V0H.594v-4.156h.5v.937q.263-.481.672-.734.403-.265.906-.266c.351 0 .633.102.844.297q.31.283.39.766c.188-.352.414-.617.688-.797q.404-.265.906-.266.358.001.594.125a.96.96 0 0 1 .39.36q.154.234.22.562a4.3 4.3 0 0 1 .062.735Zm0 0"/><path id="B" d="m.734-5.656 1.86 3.047 1.86-3.047h.609L2.875-2.11V0h-.562v-2.125L.124-5.656Zm0 0"/><path id="D" d="m.25-.437 3.844-4.72H.312v-.5h4.422v.438L.938-.5h3.796V0H.25Zm0 0"/><path id="F" d="m.719-4.156 1.219 1.625.078.125.062-.125 1.203-1.625h.61L2.313-2.063 3.89 0h-.61L2.078-1.625l-.062-.11-.079.11L.734 0H.125l1.563-2.062L.125-4.156Zm0 0"/><path id="G" d="M.344 0q0-.265.047-.547.058-.279.187-.547.14-.264.406-.515.265-.248.688-.485l.484-.219q.246-.123.469-.265c.145-.094.258-.195.344-.313a.77.77 0 0 0 .016-.812.75.75 0 0 0-.344-.313 1.3 1.3 0 0 0-.594-.125q-.252.001-.469.079a1.3 1.3 0 0 0-.36.171 2 2 0 0 0-.265.22 2 2 0 0 1-.187.171l-.344-.375.172-.172a2.3 2.3 0 0 1 .36-.25q.216-.141.515-.234.31-.094.672-.094.48.001.828.172c.226.117.406.266.531.453q.188.283.188.625 0 .328-.141.563a1.5 1.5 0 0 1-.36.406 3.5 3.5 0 0 1-.89.5 3.4 3.4 0 0 0-.625.36 2 2 0 0 0-.406.359A1.35 1.35 0 0 0 .922-.5h2.844V0Zm0 0"/><path id="H" d="M4.438-2.328q-.001.69-.266 1.234a2.05 2.05 0 0 1-.703.86Q3.01.08 2.438.078a1.75 1.75 0 0 1-1.032-.312 2.2 2.2 0 0 1-.703-.86 2.74 2.74 0 0 1-.265-1.234c0-.469.085-.883.265-1.25q.264-.544.703-.86.452-.311 1.032-.312.574 0 1.03.313.452.315.704.859.265.548.266 1.25m-.547 0q0-.577-.188-1A1.57 1.57 0 0 0 3.188-4a1.2 1.2 0 0 0-.75-.25 1.22 1.22 0 0 0-.75.25c-.22.156-.391.383-.516.672a2.5 2.5 0 0 0-.188 1q0 .564.188 1 .188.422.516.656.327.235.75.235.434 0 .75-.235.327-.248.515-.672.188-.422.188-.984m0 0"/><path id="J" d="M.844 1.281h.203c.07.008.125.008.156 0 .063-.011.117-.054.172-.125.063-.062.133-.183.219-.36Q1.717.529 1.922 0L.125-4.156h.563l1.53 3.593 1.407-3.593h.531l-2.14 5.36a1.2 1.2 0 0 1-.172.28.64.64 0 0 1-.282.204q-.159.076-.406.093h-.14c-.055 0-.11-.008-.172-.015Zm0 0"/><path id="L" d="m.25-.36 2.781-3.39H.313v-.406H3.64v.375L.875-.406h2.766V0H.25Zm0 0"/><path id="A" d="M2.453-2.547q.996-.199 1.5-.656.516-.45.516-.953-.001-.296-.172-.438a.7.7 0 0 0-.453-.14q-.457.002-.938.297a3.8 3.8 0 0 0-.922.812 5.5 5.5 0 0 0-.765 1.203l.203-1.094a6 6 0 0 1 .766-.906q.403-.405.859-.64.468-.235.953-.235c.375 0 .648.102.828.297q.282.282.281.75-.002.659-.484 1.188c-.312.343-.766.617-1.36.812L4.423 0h-.734ZM1.641-7.28h.672L.766 0H.094Zm0 0"/><clipPath id="a"><path d="M0 0h72v269.691H0Zm0 0"/></clipPath><clipPath id="b"><path d="M85 0h58v269.691H85Zm0 0"/></clipPath><clipPath id="c"><path d="M425 0h58v269.691h-58Zm0 0"/></clipPath><clipPath id="d"><path d="M496 0h71.328v269.691H496Zm0 0"/></clipPath><clipPath id="e"><path d="M155 0h257v269.691H155Zm0 0"/></clipPath></defs><path fill="#fff" d="M0 269.691V-.004h567.336v269.695Zm0 0"/><g clip-path="url(#a)"><path fill="none" stroke="#00f" stroke-dasharray="2.98883 2.98883" stroke-miterlimit="10" stroke-width=".399" d="M.2 269.492V.195h70.866v269.297Zm0 0"/></g><g clip-path="url(#b)"><path fill="none" stroke="#00f" stroke-miterlimit="10" stroke-width=".399" d="M85.238 269.492V.195h56.696v269.297Zm0 0"/></g><g clip-path="url(#c)"><path fill="none" stroke="#00f" stroke-miterlimit="10" stroke-width=".399" d="M425.402 269.492V.195h56.692v269.297Zm0 0"/></g><g clip-path="url(#d)"><path fill="none" stroke="#00f" stroke-dasharray="2.98883 2.98883" stroke-miterlimit="10" stroke-width=".399" d="M496.27 269.492V.195h70.867v269.297Zm0 0"/></g><g clip-path="url(#e)"><path fill="none" stroke="#00f" stroke-dasharray="2.98883 2.98883" stroke-miterlimit="10" stroke-width=".399" d="M156.105 269.492V.195h255.122v269.297Zm0 0"/></g><path fill="none" stroke="#000" stroke-miterlimit="10" stroke-width=".399" d="M28.547 28.543h28.348m0 0h28.343"/><use xlink:href="#f" x="8.215" y="30.017"/><use xlink:href="#g" x="14.98" y="31.511"/><use xlink:href="#h" x="18.391" y="31.511"/><use xlink:href="#i" x="20.184" y="31.511"/><path fill="none" stroke="#000" stroke-miterlimit="10" stroke-width=".398" d="M8.215 33.55h16.812"/><path stroke="#000" stroke-miterlimit="10" stroke-width=".399" d="M86.375 28.543a1.134 1.134 0 0 0-2.27 0 1.134 1.134 0 0 0 2.27 0Zm-30.723 0v1.418l3.012-1.418-3.012-1.418Zm0 0"/><use xlink:href="#j" x="50.634" y="20.894"/><use xlink:href="#g" x="53.104" y="22.388"/><use xlink:href="#h" x="56.515" y="22.388"/><use xlink:href="#i" x="58.308" y="22.388"/><path fill="none" stroke="#000" stroke-miterlimit="10" stroke-width=".398" d="M50.633 24.43h12.52"/><use xlink:href="#k" x="88.758" y="32.083"/><path fill="none" stroke="#000" stroke-miterlimit="10" stroke-width=".399" d="M28.547 99.41h28.348m0 0h28.343"/><use xlink:href="#f" x="7.641" y="100.437"/><use xlink:href="#g" x="14.406" y="102.823"/><use xlink:href="#h" x="17.817" y="102.823"/><use xlink:href="#l" x="19.61" y="102.823"/><path fill="none" stroke="#000" stroke-miterlimit="10" stroke-width=".398" d="M7.64 104.863h17.387"/><path stroke="#000" stroke-miterlimit="10" stroke-width=".399" d="M86.375 99.41a1.134 1.134 0 0 0-2.27 0 1.134 1.134 0 0 0 2.27 0Zm-30.723 0v1.418l3.012-1.418-3.012-1.418Zm0 0"/><use xlink:href="#j" x="50.347" y="90.868"/><use xlink:href="#g" x="52.817" y="93.254"/><use xlink:href="#h" x="56.228" y="93.254"/><use xlink:href="#l" x="58.021" y="93.254"/><path fill="none" stroke="#000" stroke-miterlimit="10" stroke-width=".398" d="M50.348 95.297h13.09"/><use xlink:href="#m" x="88.758" y="102.949"/><path fill="none" stroke="#000" stroke-miterlimit="10" stroke-width=".399" d="M28.547 170.277h28.348m0 0h28.343"/><use xlink:href="#f" x="8.183" y="171.749"/><use xlink:href="#g" x="14.948" y="173.243"/><use xlink:href="#h" x="18.359" y="173.243"/><use xlink:href="#n" x="20.152" y="173.243"/><path fill="none" stroke="#000" stroke-miterlimit="10" stroke-width=".398" d="M8.184 175.281h16.843"/><path stroke="#000" stroke-miterlimit="10" stroke-width=".399" d="M86.375 170.277a1.134 1.134 0 0 0-2.27 0 1.134 1.134 0 0 0 2.27 0Zm-30.723 0v1.418l3.012-1.418-3.012-1.418Zm0 0"/><use xlink:href="#j" x="50.618" y="162.626"/><use xlink:href="#g" x="53.088" y="164.12"/><use xlink:href="#h" x="56.499" y="164.12"/><use xlink:href="#n" x="58.292" y="164.12"/><path fill="none" stroke="#000" stroke-miterlimit="10" stroke-width=".398" d="M50.617 166.16h12.551"/><use xlink:href="#o" x="88.758" y="173.805"/><path fill="none" stroke="#000" stroke-miterlimit="10" stroke-width=".399" d="M28.547 241.145h28.348m0 0h28.343"/><use xlink:href="#f" x="7.912" y="242.615"/><use xlink:href="#g" x="14.677" y="244.109"/><use xlink:href="#h" x="18.088" y="244.109"/><use xlink:href="#p" x="19.881" y="244.109"/><path fill="none" stroke="#000" stroke-miterlimit="10" stroke-width=".398" d="M7.91 246.148h17.117"/><path stroke="#000" stroke-miterlimit="10" stroke-width=".399" d="M86.375 241.145a1.134 1.134 0 0 0-2.27 0 1.134 1.134 0 0 0 2.27 0Zm-30.723 0v1.417l3.012-1.417-3.012-1.418Zm0 0"/><use xlink:href="#j" x="50.482" y="233.492"/><use xlink:href="#g" x="52.953" y="234.987"/><use xlink:href="#h" x="56.364" y="234.987"/><use xlink:href="#p" x="58.157" y="234.987"/><path fill="none" stroke="#000" stroke-miterlimit="10" stroke-width=".398" d="M50.48 237.027H63.3"/><use xlink:href="#q" x="88.758" y="244.681"/><path fill="none" stroke="#000" stroke-linejoin="bevel" stroke-miterlimit="10" stroke-width=".797" d="M275.004 38.066c2.348 0 4.25 1.313 4.25 2.934s-1.902 2.934-4.25 2.934c2.348 0 4.25 1.316 4.25 2.933 0 1.621-1.902 2.938-4.25 2.938 2.348 0 4.25 1.312 4.25 2.933s-1.902 2.934-4.25 2.934c2.348 0 4.25 1.312 4.25 2.933 0 1.622-1.902 2.934-4.25 2.934m17.328.001c-2.352 0-4.254-1.313-4.254-2.935 0-1.62 1.902-2.933 4.254-2.933-2.352 0-4.254-1.313-4.254-2.934 0-1.62 1.902-2.933 4.254-2.933-2.352 0-4.254-1.317-4.254-2.938 0-1.617 1.902-2.933 4.254-2.933-2.352 0-4.254-1.313-4.254-2.934s1.902-2.934 4.254-2.934"/><path fill="none" stroke="#000" stroke-miterlimit="10" stroke-width=".399" d="M262.406 21.457h12.758v17.008m0 22.676v17.007h-12.758m42.52-56.691h-12.754v17.008m0 22.676v17.007h12.754M141.934 21.457h28.347m0 0h60.235m0 0h31.89"/><use xlink:href="#r" x="128.31" y="25.331"/><use xlink:href="#s" x="134.606" y="21.716"/><path stroke="#000" stroke-miterlimit="10" stroke-width=".399" d="M143.066 21.457a1.134 1.134 0 1 0-2.267.002 1.134 1.134 0 0 0 2.267-.002Zm25.974 0v1.418l3.01-1.418-3.01-1.418Zm0 0"/><use xlink:href="#j" x="166.275" y="13.72"/><use xlink:href="#t" x="168.746" y="15.947"/><path fill="none" stroke="#000" stroke-miterlimit="10" stroke-width=".398" d="M166.273 17.344h8.008"/><path fill="none" stroke="#000" stroke-miterlimit="10" stroke-width=".399" d="M141.934 78.148h28.347m0 0h60.235m0 0h31.89"/><use xlink:href="#r" x="127.074" y="81.689"/><use xlink:href="#u" x="133.371" y="78.074"/><path stroke="#000" stroke-miterlimit="10" stroke-width=".399" d="M143.066 78.148a1.134 1.134 0 1 0-2.267.002 1.134 1.134 0 0 0 2.267-.002Zm0 0"/><path fill="none" stroke="#000" stroke-miterlimit="10" stroke-width=".399" d="M198.625 21.457v17.008m0 22.676v17.007"/><path fill="none" stroke="#000" stroke-miterlimit="10" stroke-width=".797" d="M194.375 61.14V38.466h8.504V61.14Zm0 0"/><use xlink:href="#v" x="205.241" y="52.391"/><use xlink:href="#w" x="211.726" y="53.885"/><use xlink:href="#h" x="219.051" y="53.885"/><use xlink:href="#i" x="220.844" y="53.885"/><path fill="none" stroke="#000" stroke-miterlimit="10" stroke-width=".398" d="M205.242 55.926h20.446"/><use xlink:href="#x" x="192.023" y="31.906"/><use xlink:href="#y" x="190.479" y="72.867"/><use xlink:href="#z" x="176.431" y="51.233"/><use xlink:href="#t" x="183.952" y="53.46"/><path fill="none" stroke="#000" stroke-miterlimit="10" stroke-width=".398" d="M176.43 54.855h13.058"/><path stroke="#000" stroke-miterlimit="10" stroke-width=".399" d="M198.625 28.719h-1.414l1.414 3.011 1.418-3.011Zm0 0"/><use xlink:href="#j" x="202.144" y="31.434"/><use xlink:href="#w" x="204.615" y="32.928"/><use xlink:href="#h" x="211.94" y="32.928"/><use xlink:href="#i" x="213.733" y="32.928"/><path fill="none" stroke="#000" stroke-miterlimit="10" stroke-width=".398" d="M202.145 34.969h16.43"/><use xlink:href="#A" x="280.994" y="23.609"/><path stroke="#000" stroke-miterlimit="10" stroke-width=".399" d="M280.55 35.629a1.134 1.134 0 0 0-2.269 0 1.134 1.134 0 0 0 2.27 0Zm8.5 0a1.134 1.134 0 1 0-2.264.002 1.134 1.134 0 0 0 2.265-.002Zm0 0"/><path fill="none" stroke="#000" stroke-linejoin="bevel" stroke-miterlimit="10" stroke-width=".797" d="M275.004 123.105c2.348 0 4.25 1.317 4.25 2.934 0 1.621-1.902 2.938-4.25 2.938 2.348 0 4.25 1.312 4.25 2.933s-1.902 2.934-4.25 2.934c2.348 0 4.25 1.312 4.25 2.933s-1.902 2.934-4.25 2.934c2.348 0 4.25 1.316 4.25 2.934 0 1.62-1.902 2.937-4.25 2.937m17.328 0c-2.352 0-4.254-1.316-4.254-2.937 0-1.618 1.902-2.934 4.254-2.934-2.352 0-4.254-1.313-4.254-2.934 0-1.62 1.902-2.933 4.254-2.933-2.352 0-4.254-1.313-4.254-2.934 0-1.62 1.902-2.933 4.254-2.933-2.352 0-4.254-1.317-4.254-2.938 0-1.617 1.902-2.934 4.254-2.934"/><path fill="none" stroke="#000" stroke-miterlimit="10" stroke-width=".399" d="M262.406 106.496h12.758v17.008m0 22.68v17.007h-12.758m42.52-56.695h-12.754v17.008m0 22.68v17.007h12.754m-162.992-56.695h28.347m0 0h60.235m0 0h31.89"/><use xlink:href="#v" x="128.12" y="110.371"/><use xlink:href="#s" x="134.606" y="106.755"/><path stroke="#000" stroke-miterlimit="10" stroke-width=".399" d="M143.066 106.496a1.134 1.134 0 1 0-2.267.002 1.134 1.134 0 0 0 2.267-.002Zm25.974 0v1.418l3.01-1.418-3.01-1.418Zm0 0"/><use xlink:href="#j" x="166.199" y="98.759"/><use xlink:href="#B" x="168.67" y="100.987"/><path fill="none" stroke="#000" stroke-miterlimit="10" stroke-width=".398" d="M166.2 102.383h8.155"/><path fill="none" stroke="#000" stroke-miterlimit="10" stroke-width=".399" d="M141.934 163.191h28.347m0 0h60.235m0 0h31.89"/><use xlink:href="#v" x="126.885" y="166.728"/><use xlink:href="#u" x="133.371" y="163.113"/><path stroke="#000" stroke-miterlimit="10" stroke-width=".399" d="M143.066 163.191c0-.629-.507-1.136-1.132-1.136a1.134 1.134 0 0 0 0 2.27c.625 0 1.132-.509 1.132-1.134Zm0 0"/><path fill="none" stroke="#000" stroke-miterlimit="10" stroke-width=".399" d="M198.625 106.496v17.008m0 22.68v17.007"/><path fill="none" stroke="#000" stroke-miterlimit="10" stroke-width=".797" d="M194.375 146.184v-22.68h8.504v22.68Zm0 0"/><use xlink:href="#v" x="205.241" y="137.43"/><use xlink:href="#w" x="211.726" y="139.817"/><use xlink:href="#h" x="219.051" y="139.817"/><use xlink:href="#l" x="220.844" y="139.817"/><path fill="none" stroke="#000" stroke-miterlimit="10" stroke-width=".398" d="M205.242 141.855h21.02"/><use xlink:href="#x" x="192.023" y="116.945"/><use xlink:href="#y" x="190.479" y="157.906"/><use xlink:href="#z" x="176.279" y="136.272"/><use xlink:href="#B" x="183.801" y="138.499"/><path fill="none" stroke="#000" stroke-miterlimit="10" stroke-width=".398" d="M176.277 139.895h13.211"/><path stroke="#000" stroke-miterlimit="10" stroke-width=".399" d="M198.625 113.762h-1.414l1.414 3.011 1.418-3.011Zm0 0"/><use xlink:href="#j" x="202.144" y="116.027"/><use xlink:href="#w" x="204.615" y="118.414"/><use xlink:href="#h" x="211.94" y="118.414"/><use xlink:href="#l" x="213.733" y="118.414"/><path fill="none" stroke="#000" stroke-miterlimit="10" stroke-width=".398" d="M202.145 120.453h17.003"/><use xlink:href="#A" x="280.994" y="108.648"/><path stroke="#000" stroke-miterlimit="10" stroke-width=".399" d="M280.55 120.672a1.135 1.135 0 1 0-2.27-.003 1.135 1.135 0 0 0 2.27.003Zm8.5 0a1.132 1.132 0 1 0-2.265 0 1.134 1.134 0 0 0 2.266 0Zm0 0"/><path fill="none" stroke="#000" stroke-linejoin="bevel" stroke-miterlimit="10" stroke-width=".797" d="M275.004 208.148c2.348 0 4.25 1.313 4.25 2.934s-1.902 2.934-4.25 2.934c2.348 0 4.25 1.312 4.25 2.933s-1.902 2.934-4.25 2.934c2.348 0 4.25 1.316 4.25 2.933 0 1.621-1.902 2.938-4.25 2.938 2.348 0 4.25 1.312 4.25 2.934 0 1.62-1.902 2.933-4.25 2.933m17.328 0c-2.352 0-4.254-1.312-4.254-2.934 0-1.62 1.902-2.933 4.254-2.933-2.352 0-4.254-1.316-4.254-2.938 0-1.617 1.902-2.933 4.254-2.933-2.352 0-4.254-1.313-4.254-2.934 0-1.62 1.902-2.933 4.254-2.933-2.352 0-4.254-1.313-4.254-2.934s1.902-2.934 4.254-2.934"/><path fill="none" stroke="#000" stroke-miterlimit="10" stroke-width=".399" d="M262.406 191.535h12.758v17.012m0 22.676v17.007h-12.758m42.52-56.695h-12.754v17.012m0 22.676v17.007h12.754m-162.992-56.695h28.347m0 0h60.235m0 0h31.89"/><use xlink:href="#C" x="128.339" y="195.41"/><use xlink:href="#s" x="134.606" y="191.795"/><path stroke="#000" stroke-miterlimit="10" stroke-width=".399" d="M143.066 191.535a1.134 1.134 0 1 0-2.267.002 1.134 1.134 0 0 0 2.267-.002Zm25.974 0v1.418l3.01-1.418-3.01-1.414Zm0 0"/><use xlink:href="#j" x="166.287" y="183.799"/><use xlink:href="#D" x="168.758" y="186.026"/><path fill="none" stroke="#000" stroke-miterlimit="10" stroke-width=".398" d="M166.285 187.422h7.985"/><path fill="none" stroke="#000" stroke-miterlimit="10" stroke-width=".399" d="M141.934 248.23h28.347m0 0h60.235m0 0h31.89"/><use xlink:href="#C" x="127.104" y="251.768"/><use xlink:href="#u" x="133.371" y="248.152"/><path stroke="#000" stroke-miterlimit="10" stroke-width=".399" d="M143.066 248.23a1.134 1.134 0 1 0-2.267.002 1.134 1.134 0 0 0 2.267-.002Zm0 0"/><path fill="none" stroke="#000" stroke-miterlimit="10" stroke-width=".399" d="M198.625 191.535v17.012m0 22.676v17.007"/><path fill="none" stroke="#000" stroke-miterlimit="10" stroke-width=".797" d="M194.375 231.223v-22.676h8.504v22.676Zm0 0"/><use xlink:href="#v" x="205.241" y="222.47"/><use xlink:href="#w" x="211.726" y="223.964"/><use xlink:href="#h" x="219.051" y="223.964"/><use xlink:href="#n" x="220.844" y="223.964"/><path fill="none" stroke="#000" stroke-miterlimit="10" stroke-width=".398" d="M205.242 226.004h20.477"/><use xlink:href="#x" x="192.023" y="201.984"/><use xlink:href="#y" x="190.479" y="242.945"/><use xlink:href="#z" x="176.454" y="221.311"/><use xlink:href="#D" x="183.976" y="223.539"/><path fill="none" stroke="#000" stroke-miterlimit="10" stroke-width=".398" d="M176.453 224.934h13.035"/><path stroke="#000" stroke-miterlimit="10" stroke-width=".399" d="M198.625 198.8h-1.414l1.414 3.012 1.418-3.011Zm0 0"/><use xlink:href="#j" x="202.144" y="201.512"/><use xlink:href="#w" x="204.615" y="203.007"/><use xlink:href="#h" x="211.94" y="203.007"/><use xlink:href="#n" x="213.733" y="203.007"/><path fill="none" stroke="#000" stroke-miterlimit="10" stroke-width=".398" d="M202.145 205.047h16.46"/><use xlink:href="#A" x="280.994" y="193.687"/><path stroke="#000" stroke-miterlimit="10" stroke-width=".399" d="M280.55 205.71a1.134 1.134 0 0 0-2.269 0 1.134 1.134 0 0 0 2.27 0Zm8.5 0a1.134 1.134 0 1 0-2.264.002 1.134 1.134 0 0 0 2.265-.001Zm0 0"/><path fill="none" stroke="#000" stroke-miterlimit="10" stroke-width=".399" d="M425.402 21.457h-21.261m0 0h-38.27m-22.676 0H315.56m0 0h-10.633"/><use xlink:href="#E" x="428.916" y="25.331"/><use xlink:href="#s" x="433.937" y="21.716"/><path stroke="#000" stroke-miterlimit="10" stroke-width=".399" d="M426.535 21.457a1.134 1.134 0 1 0-2.267.002 1.134 1.134 0 0 0 2.267-.002Zm-21.152 0v-1.418l-3.012 1.418 3.012 1.418Zm0 0"/><use xlink:href="#j" x="400.643" y="14.453"/><use xlink:href="#F" x="403.114" y="15.947"/><path fill="none" stroke="#000" stroke-miterlimit="10" stroke-width=".398" d="M400.645 17.344h6.984"/><path fill="none" stroke="#000" stroke-miterlimit="10" stroke-width=".797" d="M343.195 17.203h22.676v8.504h-22.676Zm0 0"/><use xlink:href="#C" x="346.003" y="36.444"/><use xlink:href="#G" x="352.269" y="37.939"/><use xlink:href="#h" x="356.421" y="37.939"/><use xlink:href="#i" x="358.215" y="37.939"/><path fill="none" stroke="#000" stroke-miterlimit="10" stroke-width=".398" d="M346.004 39.98h17.055"/><path fill="none" stroke="#000" stroke-miterlimit="10" stroke-width=".399" d="M425.402 78.148h-60.238m0 0h-60.238"/><use xlink:href="#E" x="428.916" y="81.171"/><use xlink:href="#u" x="433.937" y="77.556"/><path stroke="#000" stroke-miterlimit="10" stroke-width=".399" d="M426.535 78.148a1.134 1.134 0 0 0-2.27 0 1.135 1.135 0 1 0 2.27 0Zm0 0"/><use xlink:href="#y" x="380.037" y="72.264"/><use xlink:href="#x" x="380.809" y="32.508"/><use xlink:href="#z" x="376.858" y="51.599"/><use xlink:href="#F" x="384.38" y="53.094"/><path fill="none" stroke="#000" stroke-miterlimit="10" stroke-width=".398" d="M376.86 54.488h12.035"/><use xlink:href="#y" x="323.344" y="72.264"/><use xlink:href="#x" x="324.116" y="32.508"/><use xlink:href="#z" x="316.829" y="51.276"/><use xlink:href="#H" x="324.351" y="52.771"/><use xlink:href="#h" x="329.229" y="52.771"/><use xlink:href="#F" x="331.022" y="52.771"/><path fill="none" stroke="#000" stroke-miterlimit="10" stroke-width=".398" d="M316.828 54.813h18.707"/><path fill="none" stroke="#000" stroke-miterlimit="10" stroke-width=".399" d="M425.402 106.496h-21.261m0 0h-38.27m-22.676 0H315.56m0 0h-10.633"/><use xlink:href="#I" x="428.916" y="109.255"/><use xlink:href="#s" x="434.315" y="105.639"/><path stroke="#000" stroke-miterlimit="10" stroke-width=".399" d="M426.535 106.496a1.134 1.134 0 1 0-2.267.002 1.134 1.134 0 0 0 2.267-.002Zm-21.152 0v-1.418l-3.012 1.418 3.012 1.418Zm0 0"/><use xlink:href="#j" x="400.492" y="97.707"/><use xlink:href="#J" x="402.962" y="99.201"/><path fill="none" stroke="#000" stroke-miterlimit="10" stroke-width=".398" d="M400.492 102.383h7.29"/><path fill="none" stroke="#000" stroke-miterlimit="10" stroke-width=".797" d="M343.195 102.246h22.676v8.504h-22.676Zm0 0"/><use xlink:href="#C" x="345.716" y="121.483"/><use xlink:href="#G" x="351.982" y="123.87"/><use xlink:href="#h" x="356.134" y="123.87"/><use xlink:href="#l" x="357.928" y="123.87"/><path fill="none" stroke="#000" stroke-miterlimit="10" stroke-width=".398" d="M345.715 125.91h17.629"/><path fill="none" stroke="#000" stroke-miterlimit="10" stroke-width=".399" d="M425.402 163.191h-60.238m0 0h-60.238"/><use xlink:href="#I" x="428.916" y="165.095"/><use xlink:href="#u" x="434.315" y="161.48"/><path stroke="#000" stroke-miterlimit="10" stroke-width=".399" d="M426.535 163.191a1.134 1.134 0 1 0-2.269-.004 1.134 1.134 0 0 0 2.27.004Zm0 0"/><use xlink:href="#y" x="380.037" y="157.303"/><use xlink:href="#x" x="380.809" y="117.548"/><use xlink:href="#z" x="376.706" y="135.746"/><use xlink:href="#J" x="384.228" y="137.24"/><path fill="none" stroke="#000" stroke-miterlimit="10" stroke-width=".398" d="M376.707 140.422h12.34"/><use xlink:href="#y" x="323.344" y="157.303"/><use xlink:href="#x" x="324.116" y="117.548"/><use xlink:href="#z" x="316.678" y="135.746"/><use xlink:href="#H" x="324.2" y="137.24"/><use xlink:href="#h" x="329.078" y="137.24"/><use xlink:href="#J" x="330.871" y="137.24"/><path fill="none" stroke="#000" stroke-miterlimit="10" stroke-width=".398" d="M316.68 140.422h19.007"/><path fill="none" stroke="#000" stroke-miterlimit="10" stroke-width=".399" d="M425.402 191.535h-21.261m0 0h-38.27m-22.676 0H315.56m0 0h-10.633"/><use xlink:href="#K" x="428.916" y="195.41"/><use xlink:href="#s" x="433.817" y="191.795"/><path stroke="#000" stroke-miterlimit="10" stroke-width=".399" d="M426.535 191.535a1.134 1.134 0 0 0-2.27 0 1.135 1.135 0 1 0 2.27 0Zm-21.152 0v-1.414l-3.012 1.414 3.012 1.418Zm0 0"/><use xlink:href="#j" x="400.691" y="184.531"/><use xlink:href="#L" x="403.162" y="186.026"/><path fill="none" stroke="#000" stroke-miterlimit="10" stroke-width=".398" d="M400.691 187.422h6.891"/><path fill="none" stroke="#000" stroke-miterlimit="10" stroke-width=".797" d="M343.195 187.285h22.676v8.504h-22.676Zm0 0"/><use xlink:href="#C" x="345.987" y="206.523"/><use xlink:href="#G" x="352.253" y="208.017"/><use xlink:href="#h" x="356.405" y="208.017"/><use xlink:href="#n" x="358.199" y="208.017"/><path fill="none" stroke="#000" stroke-miterlimit="10" stroke-width=".398" d="M345.988 210.059h17.086"/><path fill="none" stroke="#000" stroke-miterlimit="10" stroke-width=".399" d="M425.402 248.23h-60.238m0 0h-60.238"/><use xlink:href="#K" x="428.916" y="251.25"/><use xlink:href="#u" x="433.817" y="247.635"/><path stroke="#000" stroke-miterlimit="10" stroke-width=".399" d="M426.535 248.23a1.134 1.134 0 1 0-2.267.002 1.134 1.134 0 0 0 2.267-.002Zm0 0"/><use xlink:href="#y" x="380.037" y="242.343"/><use xlink:href="#x" x="380.809" y="202.587"/><use xlink:href="#z" x="376.906" y="221.678"/><use xlink:href="#L" x="384.427" y="223.172"/><path fill="none" stroke="#000" stroke-miterlimit="10" stroke-width=".398" d="M376.906 224.566h11.942"/><use xlink:href="#y" x="323.344" y="242.343"/><use xlink:href="#x" x="324.116" y="202.587"/><use xlink:href="#z" x="316.877" y="221.355"/><use xlink:href="#H" x="324.399" y="222.849"/><use xlink:href="#h" x="329.277" y="222.849"/><use xlink:href="#L" x="331.07" y="222.849"/><path fill="none" stroke="#000" stroke-miterlimit="10" stroke-width=".398" d="M316.879 224.89h18.61"/><path fill="none" stroke="#000" stroke-miterlimit="10" stroke-width=".399" d="M538.79 28.543h-28.35m0 0h-28.347"/><use xlink:href="#f" x="542.301" y="30.017"/><use xlink:href="#G" x="549.066" y="31.511"/><use xlink:href="#h" x="553.218" y="31.511"/><use xlink:href="#i" x="555.012" y="31.511"/><path fill="none" stroke="#000" stroke-miterlimit="10" stroke-width=".398" d="M542.3 33.55h17.552"/><path stroke="#000" stroke-miterlimit="10" stroke-width=".399" d="M483.227 28.543a1.134 1.134 0 1 0-2.264.002 1.134 1.134 0 0 0 2.264-.002Zm28.457 0v-1.418l-3.016 1.418 3.016 1.418Zm0 0"/><use xlink:href="#j" x="503.806" y="20.894"/><use xlink:href="#G" x="506.277" y="22.388"/><use xlink:href="#h" x="510.429" y="22.388"/><use xlink:href="#i" x="512.223" y="22.388"/><path fill="none" stroke="#000" stroke-miterlimit="10" stroke-width=".398" d="M503.805 24.43h13.257"/><use xlink:href="#M" x="473.139" y="31.136"/><path fill="none" stroke="#000" stroke-miterlimit="10" stroke-width=".399" d="M538.79 99.41h-28.35m0 0h-28.347"/><use xlink:href="#f" x="542.301" y="100.437"/><use xlink:href="#G" x="549.066" y="102.823"/><use xlink:href="#h" x="553.218" y="102.823"/><use xlink:href="#l" x="555.012" y="102.823"/><path fill="none" stroke="#000" stroke-miterlimit="10" stroke-width=".398" d="M542.3 104.863h18.126"/><path stroke="#000" stroke-miterlimit="10" stroke-width=".399" d="M483.227 99.41a1.134 1.134 0 1 0-2.264.002 1.134 1.134 0 0 0 2.264-.002Zm28.457 0v-1.418l-3.016 1.418 3.016 1.418Zm0 0"/><use xlink:href="#j" x="503.519" y="90.868"/><use xlink:href="#G" x="505.99" y="93.254"/><use xlink:href="#h" x="510.142" y="93.254"/><use xlink:href="#l" x="511.936" y="93.254"/><path fill="none" stroke="#000" stroke-miterlimit="10" stroke-width=".398" d="M503.52 95.297h13.832"/><use xlink:href="#N" x="472.422" y="102.999"/><path fill="none" stroke="#000" stroke-miterlimit="10" stroke-width=".399" d="M538.79 170.277h-28.35m0 0h-28.347"/><use xlink:href="#f" x="542.301" y="171.749"/><use xlink:href="#G" x="549.066" y="173.243"/><use xlink:href="#h" x="553.218" y="173.243"/><use xlink:href="#n" x="555.012" y="173.243"/><path fill="none" stroke="#000" stroke-miterlimit="10" stroke-width=".398" d="M542.3 175.281h17.587"/><path stroke="#000" stroke-miterlimit="10" stroke-width=".399" d="M483.227 170.277a1.134 1.134 0 1 0-2.264.002 1.134 1.134 0 0 0 2.264-.002Zm28.457 0v-1.418l-3.016 1.418 3.016 1.418Zm0 0"/><use xlink:href="#j" x="503.79" y="162.626"/><use xlink:href="#G" x="506.261" y="164.12"/><use xlink:href="#h" x="510.413" y="164.12"/><use xlink:href="#n" x="512.207" y="164.12"/><path fill="none" stroke="#000" stroke-miterlimit="10" stroke-width=".398" d="M503.79 166.16h13.288"/><use xlink:href="#O" x="473.1" y="172.868"/><path fill="none" stroke="#000" stroke-miterlimit="10" stroke-width=".399" d="M538.79 241.145h-28.35m0 0h-28.347"/><use xlink:href="#f" x="542.301" y="242.615"/><use xlink:href="#G" x="549.066" y="244.109"/><use xlink:href="#h" x="553.218" y="244.109"/><use xlink:href="#p" x="555.012" y="244.109"/><path fill="none" stroke="#000" stroke-miterlimit="10" stroke-width=".398" d="M542.3 246.148h17.856"/><path stroke="#000" stroke-miterlimit="10" stroke-width=".399" d="M483.227 241.145a1.134 1.134 0 1 0-2.264.002 1.134 1.134 0 0 0 2.264-.002Zm28.457 0v-1.418l-3.016 1.418 3.016 1.417Zm0 0"/><use xlink:href="#j" x="503.655" y="233.492"/><use xlink:href="#G" x="506.125" y="234.987"/><use xlink:href="#h" x="510.277" y="234.987"/><use xlink:href="#p" x="512.071" y="234.987"/><path fill="none" stroke="#000" stroke-miterlimit="10" stroke-width=".398" d="M503.656 237.027h13.559"/><use xlink:href="#P" x="472.761" y="243.784"/></svg>
