<svg xmlns="http://www.w3.org/2000/svg" xmlns:xlink="http://www.w3.org/1999/xlink" width="348.331" height="112.639" viewBox="0 0 261.248 84.479"><defs><symbol overflow="visible" id="b"><path style="stroke:none" d="M2.453-2.547c.664-.133 1.164-.351 1.5-.656.344-.3.516-.617.516-.953 0-.196-.059-.344-.172-.438a.698.698 0 0 0-.453-.14c-.305 0-.617.101-.938.296a3.84 3.84 0 0 0-.922.813 5.51 5.51 0 0 0-.765 1.203l.203-1.094a5.89 5.89 0 0 1 .766-.906c.269-.27.554-.484.859-.64.312-.157.629-.235.953-.235.375 0 .648.102.828.297.188.188.281.438.281.75 0 .438-.164.836-.484 1.188-.313.343-.766.617-1.36.812L4.423 0h-.734ZM1.641-7.28h.671L.766 0H.094Zm0 0"/></symbol><symbol overflow="visible" id="c"><path style="stroke:none" d="M.86-7.078 3.39-.875l2.516-6.203h.735L3.703 0h-.625L.125-7.078Zm0 0"/></symbol><symbol overflow="visible" id="i"><path style="stroke:none" d="M.89 0v-7.078h.688V0Zm0 0"/></symbol><symbol overflow="visible" id="j"><path style="stroke:none" d="m.313-.547 4.812-5.906H.391v-.625h5.546v.547L1.173-.625h4.75V0H.312Zm0 0"/></symbol><symbol overflow="visible" id="k"><path style="stroke:none" d="m.922-7.078 2.312 3.812 2.344-3.812h.75L3.594-2.625V0H2.89v-2.656L.156-7.078Zm0 0"/></symbol><symbol overflow="visible" id="m"><path style="stroke:none" d="M3.766.047c-.555 0-1.024-.098-1.407-.297a2.383 2.383 0 0 1-.921-.797 3.524 3.524 0 0 1-.5-1.14A5.496 5.496 0 0 1 .78-3.516v-3.562h.688v3.562c0 .375.035.743.11 1.094.081.344.206.656.374.938.176.28.41.507.703.671.29.157.66.235 1.11.235.445 0 .816-.082 1.109-.25.3-.176.535-.399.703-.672a3.18 3.18 0 0 0 .36-.938c.07-.351.109-.71.109-1.078v-3.562h.703v3.562c0 .48-.055.938-.156 1.375-.106.43-.278.805-.516 1.125a2.66 2.66 0 0 1-.937.782c-.375.187-.836.28-1.375.28Zm0 0"/></symbol><symbol overflow="visible" id="d"><path style="stroke:none" d="M3.234-.5V0H.531v-.5h1.14v-3.406a1.14 1.14 0 0 1-.218.219c-.105.074-.226.14-.36.203-.124.062-.25.117-.374.156a1.106 1.106 0 0 1-.36.062v-.53c.125 0 .258-.032.407-.095a3.207 3.207 0 0 0 .75-.5.874.874 0 0 0 .156-.156h.547V-.5Zm0 0"/></symbol><symbol overflow="visible" id="e"><path style="stroke:none" d="m.688.64.14-.671H.641v-.75h.515v.75L.97.64Zm0 0"/></symbol><symbol overflow="visible" id="f"><path style="stroke:none" d="M.266-1.188c0-.257.07-.484.218-.671.145-.196.348-.348.61-.454a2.62 2.62 0 0 1 .922-.156c.195 0 .406.024.625.063.218.031.414.078.593.14v-.359c0-.344-.105-.617-.312-.828-.211-.207-.496-.313-.86-.313-.23 0-.453.043-.671.125a3.954 3.954 0 0 0-.672.36l-.203-.39c.27-.177.535-.313.796-.407.258-.094.524-.14.797-.14.508 0 .91.148 1.204.437.3.293.453.695.453 1.203v1.922c0 .074.015.133.046.172.032.03.083.046.157.046V0c-.063.008-.117.016-.156.016a.184.184 0 0 1-.094 0c-.137 0-.242-.04-.313-.125a.407.407 0 0 1-.094-.25l-.015-.313a1.86 1.86 0 0 1-.735.563 2.25 2.25 0 0 1-.89.187c-.274 0-.516-.058-.734-.172a1.367 1.367 0 0 1-.5-.453 1.222 1.222 0 0 1-.172-.64Zm2.78.313c.052-.07.095-.14.126-.203a.43.43 0 0 0 .062-.203v-.594a3.015 3.015 0 0 0-.578-.156 2.848 2.848 0 0 0-.578-.063c-.387 0-.7.078-.937.235a.691.691 0 0 0-.36.625c0 .156.035.304.11.437.082.137.203.25.359.344.156.086.336.125.547.125.258 0 .5-.05.719-.156.226-.102.406-.235.53-.391Zm0 0"/></symbol><symbol overflow="visible" id="g"><path style="stroke:none" d="M4.094 0h-.547v-2.313c0-.488-.074-.847-.219-1.078-.148-.226-.371-.343-.672-.343-.219 0-.433.054-.64.156a1.89 1.89 0 0 0-.532.422c-.156.18-.273.383-.343.61V0H.594v-4.156h.5v.937c.113-.195.258-.367.437-.515.176-.157.38-.274.61-.36.226-.082.468-.125.718-.125.227 0 .422.043.579.125a.974.974 0 0 1 .374.36c.094.156.16.343.204.562.05.219.078.465.078.735Zm0 0"/></symbol><symbol overflow="visible" id="h"><path style="stroke:none" d="M.344 0c0-.176.015-.36.047-.547.039-.187.101-.367.187-.547.094-.176.227-.347.406-.515.176-.164.407-.329.688-.485l.484-.219c.164-.082.32-.171.469-.265.145-.094.258-.195.344-.313a.765.765 0 0 0 .016-.813.748.748 0 0 0-.344-.312 1.274 1.274 0 0 0-.594-.125c-.168 0-.324.028-.469.079a1.333 1.333 0 0 0-.36.171 2.037 2.037 0 0 0-.265.22 2.11 2.11 0 0 1-.187.171l-.344-.375.172-.172a2.27 2.27 0 0 1 .36-.25 2.06 2.06 0 0 1 .515-.234c.207-.063.43-.094.672-.094.32 0 .597.059.828.172.226.117.406.266.531.453.125.188.188.398.188.625 0 .219-.047.406-.141.563a1.487 1.487 0 0 1-.36.406 3.516 3.516 0 0 1-.89.5 3.41 3.41 0 0 0-.625.36 1.97 1.97 0 0 0-.406.359A1.345 1.345 0 0 0 .922-.5h2.844V0Zm0 0"/></symbol><symbol overflow="visible" id="l"><path style="stroke:none" d="M6.766 0h-.532v-2.313c0-.488-.078-.847-.234-1.078-.156-.226-.387-.343-.688-.343a1.23 1.23 0 0 0-.843.343 1.806 1.806 0 0 0-.516.86V0h-.547v-2.313c0-.488-.074-.847-.219-1.078-.148-.226-.374-.343-.687-.343-.305 0-.578.109-.828.328a1.77 1.77 0 0 0-.531.86V0H.594v-4.156h.5v.937c.176-.32.398-.566.672-.734.27-.176.57-.266.906-.266.351 0 .633.102.844.297.207.188.336.445.39.766.188-.352.414-.617.688-.797.27-.176.57-.266.906-.266.238 0 .438.043.594.125a.964.964 0 0 1 .39.36c.102.156.176.343.22.562a4.3 4.3 0 0 1 .062.735Zm0 0"/></symbol><clipPath id="a"><path d="M0 0h261.246v84.48H0Zm0 0"/></clipPath></defs><g clip-path="url(#a)"><path style="stroke:none;fill-rule:nonzero;fill:#fff;fill-opacity:1" d="M0 84.48V0h261.25v84.48Zm0 0"/></g><path style="fill:none;stroke-width:.3985;stroke-linecap:butt;stroke-linejoin:miter;stroke:#000;stroke-opacity:1;stroke-miterlimit:10" d="M104.882 28.345c0 6.266-5.074 11.34-11.336 11.34-6.262 0-11.34-5.074-11.34-11.34 0-6.262 5.078-11.336 11.34-11.336s11.336 5.074 11.336 11.336Zm11.34 0c0 6.266-5.078 11.34-11.34 11.34s-11.336-5.074-11.336-11.34c0-6.262 5.074-11.336 11.336-11.336 6.262 0 11.34 5.074 11.34 11.336Zm0 0" transform="matrix(1 0 0 -1 23.954 75.556)"/><use xlink:href="#b" x="120.497" y="32.351" style="fill:#000;fill-opacity:1"/><use xlink:href="#c" x="3.623" y="20.333" style="fill:#000;fill-opacity:1"/><g style="fill:#000;fill-opacity:1"><use xlink:href="#d" x="10.388" y="21.828"/><use xlink:href="#e" x="13.799" y="21.828"/><use xlink:href="#f" x="15.592" y="21.828"/></g><path style="fill:none;stroke-width:.398;stroke-linecap:butt;stroke-linejoin:miter;stroke:#000;stroke-opacity:1;stroke-miterlimit:10" d="M-.002 0h16.813" transform="matrix(1 0 0 -1 3.623 23.868)"/><use xlink:href="#c" x="3.321" y="77.026" style="fill:#000;fill-opacity:1"/><g style="fill:#000;fill-opacity:1"><use xlink:href="#d" x="10.085" y="78.52"/><use xlink:href="#e" x="13.496" y="78.52"/><use xlink:href="#g" x="15.289" y="78.52"/></g><path style="fill:none;stroke-width:.398;stroke-linecap:butt;stroke-linejoin:miter;stroke:#000;stroke-opacity:1;stroke-miterlimit:10" d="M0-.002h17.113" transform="matrix(1 0 0 -1 3.321 80.561)"/><use xlink:href="#c" x="240.072" y="20.333" style="fill:#000;fill-opacity:1"/><g style="fill:#000;fill-opacity:1"><use xlink:href="#h" x="246.837" y="21.828"/><use xlink:href="#e" x="250.989" y="21.828"/><use xlink:href="#f" x="252.783" y="21.828"/></g><path style="fill:none;stroke-width:.398;stroke-linecap:butt;stroke-linejoin:miter;stroke:#000;stroke-opacity:1;stroke-miterlimit:10" d="M-.002 0h17.555" transform="matrix(1 0 0 -1 240.072 23.868)"/><use xlink:href="#c" x="240.072" y="77.026" style="fill:#000;fill-opacity:1"/><g style="fill:#000;fill-opacity:1"><use xlink:href="#h" x="246.837" y="78.52"/><use xlink:href="#e" x="250.989" y="78.52"/><use xlink:href="#g" x="252.783" y="78.52"/></g><path style="fill:none;stroke-width:.398;stroke-linecap:butt;stroke-linejoin:miter;stroke:#000;stroke-opacity:1;stroke-miterlimit:10" d="M-.002-.002h17.856" transform="matrix(1 0 0 -1 240.072 80.561)"/><path style="fill:none;stroke-width:.3985;stroke-linecap:butt;stroke-linejoin:miter;stroke:#000;stroke-opacity:1;stroke-miterlimit:10" d="M0 56.693h24.804m0 0h35.433m0 0h10.63L85.041 42.52m0 0 2.836-2.836" transform="matrix(1 0 0 -1 23.954 75.556)"/><path style="fill-rule:nonzero;fill:#000;fill-opacity:1;stroke-width:.3985;stroke-linecap:butt;stroke-linejoin:miter;stroke:#000;stroke-opacity:1;stroke-miterlimit:10" d="M1.132 56.693c0 .629-.504 1.133-1.133 1.133a1.134 1.134 0 1 1 1.133-1.133Zm49.609 0c0 .629-.508 1.133-1.133 1.133a1.132 1.132 0 1 1 0-2.266c.626 0 1.133.508 1.133 1.133Zm-27.179 0v-1.418l3.011 1.418-3.011 1.418Zm0 0" transform="matrix(1 0 0 -1 23.954 75.556)"/><use xlink:href="#i" x="42.499" y="11.211" style="fill:#000;fill-opacity:1"/><g style="fill:#000;fill-opacity:1"><use xlink:href="#d" x="44.969" y="12.705"/><use xlink:href="#e" x="48.38" y="12.705"/><use xlink:href="#f" x="50.173" y="12.705"/></g><path style="fill:none;stroke-width:.398;stroke-linecap:butt;stroke-linejoin:miter;stroke:#000;stroke-opacity:1;stroke-miterlimit:10" d="M.001-.001h12.516" transform="matrix(1 0 0 -1 42.499 14.745)"/><path style="fill-rule:nonzero;fill:#000;fill-opacity:1;stroke-width:.3985;stroke-linecap:butt;stroke-linejoin:miter;stroke:#000;stroke-opacity:1;stroke-miterlimit:10" d="M86.882 50.033a1.134 1.134 0 1 1-2.267-.002 1.134 1.134 0 0 1 2.267.002Zm0 0" transform="matrix(1 0 0 -1 23.954 75.556)"/><path style="fill:none;stroke-width:.3985;stroke-linecap:butt;stroke-linejoin:miter;stroke:#000;stroke-opacity:1;stroke-miterlimit:10" d="M127.562 56.693 113.386 42.52m0 0-2.836-2.836" transform="matrix(1 0 0 -1 23.954 75.556)"/><path style="fill-rule:nonzero;fill:#000;fill-opacity:1;stroke-width:.3985;stroke-linecap:butt;stroke-linejoin:miter;stroke:#000;stroke-opacity:1;stroke-miterlimit:10" d="M113.812 50.033a1.134 1.134 0 1 1-2.268-.002 1.134 1.134 0 0 1 2.268.002Zm0 0" transform="matrix(1 0 0 -1 23.954 75.556)"/><path style="fill:none;stroke-width:.3985;stroke-linecap:butt;stroke-linejoin:miter;stroke:#000;stroke-opacity:1;stroke-miterlimit:10" d="M127.562 56.693h9.921m22.676 0h31.184m0 0H212.6" transform="matrix(1 0 0 -1 23.954 75.556)"/><path style="fill:none;stroke-width:.797;stroke-linecap:butt;stroke-linejoin:miter;stroke:#000;stroke-opacity:1;stroke-miterlimit:10" d="M137.483 60.947h22.676v-8.504h-22.675Zm0 0" transform="matrix(1 0 0 -1 23.954 75.556)"/><use xlink:href="#j" x="167.314" y="10.307" style="fill:#000;fill-opacity:1"/><use xlink:href="#h" x="173.581" y="11.802" style="fill:#000;fill-opacity:1"/><path style="fill:none;stroke-width:.398;stroke-linecap:butt;stroke-linejoin:miter;stroke:#000;stroke-opacity:1;stroke-miterlimit:10" d="M-.002.002h10.918" transform="matrix(1 0 0 -1 167.314 13.197)"/><path style="fill-rule:nonzero;fill:#000;fill-opacity:1;stroke-width:.3985;stroke-linecap:butt;stroke-linejoin:miter;stroke:#000;stroke-opacity:1;stroke-miterlimit:10" d="M213.733 56.693a1.13 1.13 0 0 1-1.132 1.133 1.134 1.134 0 1 1 1.133-1.133Zm-21.152 0v1.418l-3.012-1.418 3.012-1.418Zm0 0" transform="matrix(1 0 0 -1 23.954 75.556)"/><use xlink:href="#i" x="208.663" y="11.211" style="fill:#000;fill-opacity:1"/><g style="fill:#000;fill-opacity:1"><use xlink:href="#h" x="211.134" y="12.705"/><use xlink:href="#e" x="215.286" y="12.705"/><use xlink:href="#f" x="217.08" y="12.705"/></g><path style="fill:none;stroke-width:.398;stroke-linecap:butt;stroke-linejoin:miter;stroke:#000;stroke-opacity:1;stroke-miterlimit:10" d="M.001-.001H13.26" transform="matrix(1 0 0 -1 208.663 14.745)"/><path style="fill:none;stroke-width:.3985;stroke-linecap:butt;stroke-linejoin:miter;stroke:#000;stroke-opacity:1;stroke-miterlimit:10" d="M0 .001h24.804m0 0h35.433m0 0h10.63l14.175 14.172m0 0 2.836 2.836" transform="matrix(1 0 0 -1 23.954 75.556)"/><path style="fill-rule:nonzero;fill:#000;fill-opacity:1;stroke-width:.3985;stroke-linecap:butt;stroke-linejoin:miter;stroke:#000;stroke-opacity:1;stroke-miterlimit:10" d="M1.132.001A1.134 1.134 0 1 1-1.132 0a1.134 1.134 0 0 1 2.264.002Zm49.609 0a1.134 1.134 0 0 1-2.27 0 1.135 1.135 0 1 1 2.27 0Zm-27.179 0v-1.418L26.573.001l-3.011 1.414Zm0 0" transform="matrix(1 0 0 -1 23.954 75.556)"/><use xlink:href="#i" x="42.347" y="67.903" style="fill:#000;fill-opacity:1"/><g style="fill:#000;fill-opacity:1"><use xlink:href="#d" x="44.818" y="69.398"/><use xlink:href="#e" x="48.229" y="69.398"/><use xlink:href="#g" x="50.022" y="69.398"/></g><path style="fill:none;stroke-width:.398;stroke-linecap:butt;stroke-linejoin:miter;stroke:#000;stroke-opacity:1;stroke-miterlimit:10" d="M0 0h12.821" transform="matrix(1 0 0 -1 42.347 71.438)"/><path style="fill:none;stroke-width:.3985;stroke-linecap:butt;stroke-linejoin:miter;stroke:#000;stroke-opacity:1;stroke-miterlimit:10" d="m127.562.001-14.176 14.172m0 0-2.836 2.836M127.562.001h63.78m0 0h21.259" transform="matrix(1 0 0 -1 23.954 75.556)"/><path style="fill-rule:nonzero;fill:#000;fill-opacity:1;stroke-width:.3985;stroke-linecap:butt;stroke-linejoin:miter;stroke:#000;stroke-opacity:1;stroke-miterlimit:10" d="M213.733.001A1.134 1.134 0 1 1 211.466 0a1.134 1.134 0 0 1 2.267.001Zm-21.152 0v1.414L189.57.001l3.012-1.418Zm0 0" transform="matrix(1 0 0 -1 23.954 75.556)"/><use xlink:href="#i" x="208.512" y="67.903" style="fill:#000;fill-opacity:1"/><g style="fill:#000;fill-opacity:1"><use xlink:href="#h" x="210.983" y="69.398"/><use xlink:href="#e" x="215.135" y="69.398"/><use xlink:href="#g" x="216.929" y="69.398"/></g><path style="fill:none;stroke-width:.398;stroke-linecap:butt;stroke-linejoin:miter;stroke:#000;stroke-opacity:1;stroke-miterlimit:10" d="M0 0h13.562" transform="matrix(1 0 0 -1 208.512 71.438)"/><path style="fill:none;stroke-width:.3985;stroke-linecap:butt;stroke-linejoin:miter;stroke:#000;stroke-opacity:1;stroke-miterlimit:10" d="M49.608 56.693V39.685m-10.17-31.82v40.96M49.609 17.01V.001" transform="matrix(1 0 0 -1 23.954 75.556)"/><path style="fill:none;stroke-width:.797;stroke-linecap:butt;stroke-linejoin:miter;stroke:#000;stroke-opacity:1;stroke-miterlimit:10" d="M45.355 17.01v22.675h8.504V17.009Zm0 0" transform="matrix(1 0 0 -1 23.954 75.556)"/><use xlink:href="#k" x="80.177" y="49.794" style="fill:#000;fill-opacity:1"/><use xlink:href="#l" x="86.662" y="51.289" style="fill:#000;fill-opacity:1"/><path style="fill:none;stroke-width:.398;stroke-linecap:butt;stroke-linejoin:miter;stroke:#000;stroke-opacity:1;stroke-miterlimit:10" d="M-.001 0h14.308" transform="matrix(1 0 0 -1 80.177 52.683)"/><path style="fill-rule:nonzero;fill:#000;fill-opacity:1;stroke-width:.3985;stroke-linecap:butt;stroke-linejoin:miter;stroke:#000;stroke-opacity:1;stroke-miterlimit:10" d="M39.437 45.814h1.418l-1.418 3.012-1.418-3.012Zm0 0" transform="matrix(1 0 0 -1 23.954 75.556)"/><use xlink:href="#m" x="43.629" y="48.68" style="fill:#000;fill-opacity:1"/><g style="fill:#000;fill-opacity:1"><use xlink:href="#d" x="51.151" y="50.174"/><use xlink:href="#e" x="54.562" y="50.174"/><use xlink:href="#f" x="56.355" y="50.174"/></g><path style="fill:none;stroke-width:.398;stroke-linecap:butt;stroke-linejoin:miter;stroke:#000;stroke-opacity:1;stroke-miterlimit:10" d="M0 0h17.566" transform="matrix(1 0 0 -1 43.629 52.214)"/><path style="fill:none;stroke-width:.3985;stroke-linecap:butt;stroke-linejoin:miter;stroke:#000;stroke-opacity:1;stroke-miterlimit:10" d="M170.081 8.47v39.754" transform="matrix(1 0 0 -1 23.954 75.556)"/><path style="fill-rule:nonzero;fill:#000;fill-opacity:1;stroke-width:.3985;stroke-linecap:butt;stroke-linejoin:miter;stroke:#000;stroke-opacity:1;stroke-miterlimit:10" d="M170.081 45.212h1.418l-1.418 3.012-1.418-3.012Zm0 0" transform="matrix(1 0 0 -1 23.954 75.556)"/><use xlink:href="#m" x="173.536" y="48.68" style="fill:#000;fill-opacity:1"/><g style="fill:#000;fill-opacity:1"><use xlink:href="#h" x="181.058" y="50.174"/><use xlink:href="#e" x="185.21" y="50.174"/><use xlink:href="#f" x="187.004" y="50.174"/></g><path style="fill:none;stroke-width:.398;stroke-linecap:butt;stroke-linejoin:miter;stroke:#000;stroke-opacity:1;stroke-miterlimit:10" d="M0 0h18.308" transform="matrix(1 0 0 -1 173.536 52.214)"/></svg>
