<svg xmlns="http://www.w3.org/2000/svg" xmlns:xlink="http://www.w3.org/1999/xlink" width="348.331" height="112.639" viewBox="0 0 261.248 84.479"><defs><path id="b" d="M2.453-2.547q.996-.199 1.5-.656.516-.45.516-.953-.001-.296-.172-.438a.7.7 0 0 0-.453-.14q-.457.002-.938.297a3.8 3.8 0 0 0-.922.812 5.5 5.5 0 0 0-.765 1.203l.203-1.094a6 6 0 0 1 .766-.906q.403-.405.859-.64.468-.235.953-.235c.375 0 .648.102.828.297q.282.282.281.75-.002.659-.484 1.188c-.312.343-.766.617-1.36.812L4.423 0h-.734ZM1.641-7.28h.672L.766 0H.094Zm0 0"/><path id="c" d="M.86-7.078 3.39-.875l2.516-6.203h.735L3.703 0h-.625L.125-7.078Zm0 0"/><path id="i" d="M.89 0v-7.078h.688V0Zm0 0"/><path id="j" d="m.313-.547 4.812-5.906H.391v-.625h5.547v.547L1.172-.625h4.75V0H.312Zm0 0"/><path id="k" d="m.922-7.078 2.312 3.812 2.344-3.812h.75L3.594-2.625V0H2.89v-2.656L.156-7.078Zm0 0"/><path id="m" d="M3.766.047q-.832 0-1.407-.297a2.4 2.4 0 0 1-.921-.797 3.5 3.5 0 0 1-.5-1.14A5.5 5.5 0 0 1 .78-3.516v-3.562h.688v3.562c0 .375.035.743.11 1.094q.122.516.374.938c.176.28.41.507.703.672q.435.234 1.11.234.668.001 1.109-.25.45-.263.703-.672a3.2 3.2 0 0 0 .36-.937q.107-.527.109-1.079v-3.562h.703v3.562c0 .48-.055.938-.156 1.375q-.159.645-.516 1.125a2.66 2.66 0 0 1-.937.782c-.375.187-.836.28-1.375.28m0 0"/><path id="d" d="M3.234-.5V0H.531v-.5h1.14v-3.406a1.1 1.1 0 0 1-.218.219q-.158.11-.36.203c-.124.062-.25.117-.374.156a1.1 1.1 0 0 1-.36.062v-.53c.125 0 .258-.032.407-.095q.216-.105.406-.234c.133-.094.25-.18.344-.266a1 1 0 0 0 .156-.156h.547V-.5Zm0 0"/><path id="e" d="m.688.64.14-.671H.641v-.75h.515v.75L.97.64Zm0 0"/><path id="f" d="M.266-1.187c0-.258.07-.485.218-.672q.217-.295.61-.453c.27-.102.578-.157.922-.157.195 0 .406.024.625.063q.326.047.593.14v-.359c0-.344-.105-.617-.312-.828q-.315-.312-.86-.313-.344.001-.671.125-.316.127-.672.36l-.203-.39q.405-.266.797-.407.386-.14.796-.14.763.002 1.204.437.451.44.453 1.203v1.922q0 .112.046.172.047.045.157.046V0c-.063.008-.117.016-.156.016a.2.2 0 0 1-.094 0q-.206.001-.313-.125a.4.4 0 0 1-.094-.25l-.015-.313a1.86 1.86 0 0 1-.735.563 2.25 2.25 0 0 1-.89.187c-.274 0-.516-.058-.734-.172a1.4 1.4 0 0 1-.5-.453 1.2 1.2 0 0 1-.172-.64m2.78.312q.079-.107.126-.203.06-.107.062-.203v-.594a3 3 0 0 0-.578-.156 3 3 0 0 0-.578-.063q-.581 0-.937.235a.69.69 0 0 0-.36.625q-.001.236.11.437.124.204.359.344.232.127.547.125.389.002.719-.156c.226-.102.406-.235.53-.391m0 0"/><path id="g" d="M4.094 0h-.547v-2.312q0-.733-.219-1.079-.221-.341-.672-.343-.329.001-.64.156a1.9 1.9 0 0 0-.532.422c-.156.18-.273.383-.343.61V0H.594v-4.156h.5v.937q.169-.293.437-.515c.176-.157.38-.274.61-.36.226-.082.468-.125.718-.125q.342.001.579.125a1 1 0 0 1 .374.36q.14.234.204.562.077.33.078.735Zm0 0"/><path id="h" d="M.344 0q0-.265.047-.547.058-.279.187-.547.14-.264.406-.515.265-.248.688-.485l.484-.219q.246-.123.469-.265c.145-.094.258-.195.344-.313a.77.77 0 0 0 .016-.812.75.75 0 0 0-.344-.313 1.3 1.3 0 0 0-.594-.125q-.252.001-.469.079a1.3 1.3 0 0 0-.36.171 2 2 0 0 0-.265.22 2 2 0 0 1-.187.171l-.344-.375.172-.172a2.3 2.3 0 0 1 .36-.25q.216-.141.515-.234.31-.094.672-.094.48.001.828.172c.226.117.406.266.531.453q.188.283.188.625 0 .328-.141.563a1.5 1.5 0 0 1-.36.406 3.5 3.5 0 0 1-.89.5 3.4 3.4 0 0 0-.625.36 2 2 0 0 0-.406.359A1.35 1.35 0 0 0 .922-.5h2.844V0Zm0 0"/><path id="l" d="M6.766 0h-.532v-2.312q0-.733-.234-1.079-.236-.341-.687-.343-.47.002-.844.343a1.8 1.8 0 0 0-.516.86V0h-.547v-2.312q0-.733-.219-1.079c-.148-.226-.374-.343-.687-.343-.305 0-.578.109-.828.328a1.77 1.77 0 0 0-.531.86V0H.594v-4.156h.5v.937q.263-.481.672-.734.403-.265.906-.266c.351 0 .633.102.844.297q.31.283.39.766c.188-.352.414-.617.688-.797q.404-.265.906-.266.358.001.594.125a.96.96 0 0 1 .39.36q.154.234.22.562a4.3 4.3 0 0 1 .062.735Zm0 0"/><clipPath id="a"><path d="M0 0h261.246v84.48H0Zm0 0"/></clipPath></defs><g clip-path="url(#a)"><path fill="#fff" d="M0 84.48V0h261.25v84.48Zm0 0"/></g><path fill="none" stroke="#000" stroke-miterlimit="10" stroke-width=".399" d="M128.836 47.21c0-6.265-5.074-11.339-11.336-11.339s-11.34 5.074-11.34 11.34c0 6.262 5.078 11.336 11.34 11.336s11.336-5.074 11.336-11.336Zm11.34 0c0-6.265-5.078-11.339-11.34-11.339S117.5 40.945 117.5 47.211c0 6.262 5.074 11.336 11.336 11.336s11.34-5.074 11.34-11.336Zm0 0"/><use xlink:href="#b" x="120.497" y="32.351"/><use xlink:href="#c" x="3.623" y="20.333"/><use xlink:href="#d" x="10.388" y="21.828"/><use xlink:href="#e" x="13.799" y="21.828"/><use xlink:href="#f" x="15.592" y="21.828"/><path fill="none" stroke="#000" stroke-miterlimit="10" stroke-width=".398" d="M3.621 23.867h16.813"/><use xlink:href="#c" x="3.321" y="77.026"/><use xlink:href="#d" x="10.085" y="78.52"/><use xlink:href="#e" x="13.496" y="78.52"/><use xlink:href="#g" x="15.289" y="78.52"/><path fill="none" stroke="#000" stroke-miterlimit="10" stroke-width=".398" d="M3.32 80.563h17.114"/><use xlink:href="#c" x="240.072" y="20.333"/><use xlink:href="#h" x="246.837" y="21.828"/><use xlink:href="#e" x="250.989" y="21.828"/><use xlink:href="#f" x="252.783" y="21.828"/><path fill="none" stroke="#000" stroke-miterlimit="10" stroke-width=".398" d="M240.07 23.867h17.555"/><use xlink:href="#c" x="240.072" y="77.026"/><use xlink:href="#h" x="246.837" y="78.52"/><use xlink:href="#e" x="250.989" y="78.52"/><use xlink:href="#g" x="252.783" y="78.52"/><path fill="none" stroke="#000" stroke-miterlimit="10" stroke-width=".398" d="M240.07 80.563h17.856"/><path fill="none" stroke="#000" stroke-miterlimit="10" stroke-width=".399" d="M23.953 18.863h24.805m0 0H84.19m0 0h10.63l14.175 14.172m0 0 2.836 2.836"/><path stroke="#000" stroke-miterlimit="10" stroke-width=".399" d="M25.086 18.863c0-.629-.504-1.133-1.133-1.133a1.134 1.134 0 1 0 1.133 1.133Zm49.609 0a1.13 1.13 0 0 0-1.132-1.133 1.132 1.132 0 1 0 0 2.266c.624 0 1.132-.508 1.132-1.133Zm-27.179 0v1.418l3.011-1.418-3.011-1.418Zm0 0"/><use xlink:href="#i" x="42.499" y="11.211"/><use xlink:href="#d" x="44.969" y="12.705"/><use xlink:href="#e" x="48.38" y="12.705"/><use xlink:href="#f" x="50.173" y="12.705"/><path fill="none" stroke="#000" stroke-miterlimit="10" stroke-width=".398" d="M42.5 14.746h12.516"/><path stroke="#000" stroke-miterlimit="10" stroke-width=".399" d="M110.836 25.523a1.134 1.134 0 1 0-2.267.002 1.134 1.134 0 0 0 2.267-.002Zm0 0"/><path fill="none" stroke="#000" stroke-miterlimit="10" stroke-width=".399" d="M151.516 18.863 137.34 33.035m0 0-2.836 2.836"/><path stroke="#000" stroke-miterlimit="10" stroke-width=".399" d="M137.766 25.523a1.134 1.134 0 1 0-2.268.002 1.134 1.134 0 0 0 2.268-.002Zm0 0"/><path fill="none" stroke="#000" stroke-miterlimit="10" stroke-width=".399" d="M151.516 18.863h9.922m22.675 0h31.184m0 0h21.258"/><path fill="none" stroke="#000" stroke-miterlimit="10" stroke-width=".797" d="M161.438 14.61h22.675v8.503h-22.675Zm0 0"/><use xlink:href="#j" x="167.314" y="10.307"/><use xlink:href="#h" x="173.581" y="11.802"/><path fill="none" stroke="#000" stroke-miterlimit="10" stroke-width=".398" d="M167.313 13.195h10.917"/><path stroke="#000" stroke-miterlimit="10" stroke-width=".399" d="M237.688 18.863c0-.629-.508-1.133-1.133-1.133s-1.133.504-1.133 1.133a1.134 1.134 0 0 0 2.266 0Zm-21.153 0v-1.418l-3.012 1.418 3.012 1.418Zm0 0"/><use xlink:href="#i" x="208.663" y="11.211"/><use xlink:href="#h" x="211.134" y="12.705"/><use xlink:href="#e" x="215.286" y="12.705"/><use xlink:href="#f" x="217.08" y="12.705"/><path fill="none" stroke="#000" stroke-miterlimit="10" stroke-width=".398" d="M208.664 14.746h13.258"/><path fill="none" stroke="#000" stroke-miterlimit="10" stroke-width=".399" d="M23.953 75.555h24.805m0 0H84.19m0 0h10.63l14.175-14.172m0 0 2.836-2.836"/><path stroke="#000" stroke-miterlimit="10" stroke-width=".399" d="M25.086 75.555a1.134 1.134 0 1 0-2.264.002 1.134 1.134 0 0 0 2.264-.002Zm49.609 0a1.134 1.134 0 0 0-2.27 0 1.135 1.135 0 1 0 2.27 0Zm-27.179 0v1.418l3.011-1.418-3.011-1.414Zm0 0"/><use xlink:href="#i" x="42.347" y="67.903"/><use xlink:href="#d" x="44.818" y="69.398"/><use xlink:href="#e" x="48.229" y="69.398"/><use xlink:href="#g" x="50.022" y="69.398"/><path fill="none" stroke="#000" stroke-miterlimit="10" stroke-width=".398" d="M42.348 71.438h12.82"/><path fill="none" stroke="#000" stroke-miterlimit="10" stroke-width=".399" d="M151.516 75.555 137.34 61.383m0 0-2.836-2.836m17.012 17.008h63.78m0 0h21.259"/><path stroke="#000" stroke-miterlimit="10" stroke-width=".399" d="M237.688 75.555a1.134 1.134 0 1 0-2.268.001 1.134 1.134 0 0 0 2.268-.001Zm-21.153 0V74.14l-3.012 1.414 3.012 1.418Zm0 0"/><use xlink:href="#i" x="208.512" y="67.903"/><use xlink:href="#h" x="210.983" y="69.398"/><use xlink:href="#e" x="215.135" y="69.398"/><use xlink:href="#g" x="216.929" y="69.398"/><path fill="none" stroke="#000" stroke-miterlimit="10" stroke-width=".398" d="M208.512 71.438h13.562"/><path fill="none" stroke="#000" stroke-miterlimit="10" stroke-width=".399" d="M73.563 18.863v17.008M63.39 67.691v-40.96m10.172 31.816v17.008"/><path fill="none" stroke="#000" stroke-miterlimit="10" stroke-width=".797" d="M69.309 58.547V35.87h8.504v22.676Zm0 0"/><use xlink:href="#k" x="80.177" y="49.794"/><use xlink:href="#l" x="86.662" y="51.289"/><path fill="none" stroke="#000" stroke-miterlimit="10" stroke-width=".398" d="M80.176 52.684h14.308"/><path stroke="#000" stroke-miterlimit="10" stroke-width=".399" d="M63.39 29.742h1.419L63.39 26.73l-1.418 3.012Zm0 0"/><use xlink:href="#m" x="43.629" y="48.68"/><use xlink:href="#d" x="51.151" y="50.174"/><use xlink:href="#e" x="54.562" y="50.174"/><use xlink:href="#f" x="56.355" y="50.174"/><path fill="none" stroke="#000" stroke-miterlimit="10" stroke-width=".398" d="M43.629 52.215h17.566"/><path fill="none" stroke="#000" stroke-miterlimit="10" stroke-width=".399" d="M194.035 67.086V27.332"/><path stroke="#000" stroke-miterlimit="10" stroke-width=".399" d="M194.035 30.344h1.418l-1.418-3.012-1.418 3.012Zm0 0"/><use xlink:href="#m" x="169.313" y="48.68"/><use xlink:href="#h" x="176.835" y="50.174"/><use xlink:href="#e" x="180.987" y="50.174"/><use xlink:href="#f" x="182.781" y="50.174"/><path fill="none" stroke="#000" stroke-miterlimit="10" stroke-width=".398" d="M169.313 52.215h18.308"/></svg>
