<svg xmlns="http://www.w3.org/2000/svg" xmlns:xlink="http://www.w3.org/1999/xlink" width="379.877" height="143.44" viewBox="0 0 284.908 107.58"><defs><symbol overflow="visible" id="b"><path style="stroke:none" d="M3.078-7.078h.594L6.609 0h-.734l-.922-2.219H1.781L.875 0h-.75Zm1.719 4.312-1.422-3.5-1.453 3.5Zm0 0"/></symbol><symbol overflow="visible" id="c"><path style="stroke:none" d="M6.203-1.828c0 .355-.09.672-.266.953a1.87 1.87 0 0 1-.718.64A2.126 2.126 0 0 1 4.234 0H.891v-7.078h3.406c.332 0 .617.09.86.266.238.18.421.406.546.687a1.915 1.915 0 0 1-.062 1.828 1.63 1.63 0 0 1-.75.672c.406.117.722.34.953.672.238.324.36.7.36 1.125Zm-.687-.11c0-.238-.059-.457-.172-.656a1.293 1.293 0 0 0-.438-.5 1.003 1.003 0 0 0-.61-.203H1.579v2.688h2.656c.227 0 .438-.063.625-.188.196-.125.352-.285.47-.484a1.25 1.25 0 0 0 .187-.657Zm-3.938-4.53v2.609h2.438c.226 0 .43-.063.609-.188.188-.125.332-.285.438-.484.101-.196.156-.407.156-.625 0-.239-.055-.457-.157-.657a1.155 1.155 0 0 0-.406-.468.94.94 0 0 0-.578-.188Zm0 0"/></symbol><symbol overflow="visible" id="d"><path style="stroke:none" d="M.422-3.594c0-.426.07-.847.219-1.265.156-.414.375-.797.656-1.141a2.993 2.993 0 0 1 1.047-.813 3.25 3.25 0 0 1 1.437-.312c.625 0 1.16.148 1.61.438.457.292.789.664 1 1.109l-.547.344a2.14 2.14 0 0 0-.578-.735 2.033 2.033 0 0 0-.75-.39 2.61 2.61 0 0 0-.782-.125c-.43 0-.804.086-1.125.25-.324.168-.601.39-.828.671a3.087 3.087 0 0 0-.5.954 3.273 3.273 0 0 0-.172 1.062c0 .399.067.774.204 1.125.132.356.32.672.562.953.238.274.52.492.844.657.32.167.672.25 1.047.25.27 0 .539-.047.812-.141a2.62 2.62 0 0 0 .781-.422c.25-.195.446-.453.594-.766l.578.313c-.148.344-.375.64-.687.89a3.16 3.16 0 0 1-1.016.563 3.462 3.462 0 0 1-1.094.188c-.492 0-.937-.102-1.343-.313a3.536 3.536 0 0 1-1.063-.828 3.877 3.877 0 0 1-.672-1.188 3.918 3.918 0 0 1-.234-1.328Zm0 0"/></symbol><symbol overflow="visible" id="e"><path style="stroke:none" d="M.328-1.5c0-.32.094-.598.281-.828a1.75 1.75 0 0 1 .766-.547c.332-.133.71-.203 1.14-.203.258 0 .524.023.797.062.27.043.508.102.72.172v-.437c0-.438-.134-.785-.391-1.047-.25-.258-.606-.39-1.063-.39a2.34 2.34 0 0 0-.828.155 4.266 4.266 0 0 0-.844.454l-.265-.47a4.38 4.38 0 0 1 1-.53 3.076 3.076 0 0 1 1-.172c.632 0 1.14.183 1.515.547.375.367.563.87.563 1.515v2.406c0 .094.015.165.047.204.039.043.109.07.203.078V0c-.074.008-.14.016-.203.016a.244.244 0 0 1-.11 0 .478.478 0 0 1-.516-.469l-.015-.39c-.23.304-.531.538-.906.702a2.951 2.951 0 0 1-1.14.235 2.02 2.02 0 0 1-.907-.203 1.713 1.713 0 0 1-.625-.579A1.556 1.556 0 0 1 .328-1.5Zm3.485.406a1.1 1.1 0 0 0 .156-.265.656.656 0 0 0 .062-.235v-.765a3.861 3.861 0 0 0-.703-.188 3.49 3.49 0 0 0-.719-.078c-.492 0-.886.102-1.187.297-.293.187-.438.45-.438.781 0 .2.047.383.141.547.102.168.25.309.438.422.195.105.425.156.687.156.32 0 .625-.062.906-.187s.5-.286.656-.485Zm0 0"/></symbol><symbol overflow="visible" id="f"><path style="stroke:none" d="M3.297.094a2.18 2.18 0 0 1-1.14-.313A2.28 2.28 0 0 1 1.358-1v1H.75v-7.281h.672v3.172a2.99 2.99 0 0 1 .844-.844c.32-.219.703-.328 1.14-.328.364 0 .688.078.969.234.29.149.54.352.75.61.207.25.363.539.469.859.101.324.156.656.156 1 0 .367-.063.71-.188 1.031A2.612 2.612 0 0 1 4.25-.109a2.28 2.28 0 0 1-.953.203ZM3.125-.5a1.796 1.796 0 0 0 1.39-.64 2.159 2.159 0 0 0 .547-1.438c0-.363-.078-.707-.234-1.031a2.031 2.031 0 0 0-.656-.782 1.62 1.62 0 0 0-.969-.296 1.5 1.5 0 0 0-.734.187c-.23.117-.434.273-.61.469a2.85 2.85 0 0 0-.437.64v1.61c.031.187.098.36.203.515.113.157.254.293.422.407a3.4 3.4 0 0 0 .547.265c.187.063.363.094.531.094Zm0 0"/></symbol><symbol overflow="visible" id="h"><path style="stroke:none" d="M3 .094c-.375 0-.727-.07-1.047-.203a2.708 2.708 0 0 1-.828-.594 3.03 3.03 0 0 1-.547-.875A2.811 2.811 0 0 1 .391-2.61c0-.489.109-.938.328-1.344a2.55 2.55 0 0 1 .906-.969c.395-.238.848-.36 1.36-.36.488 0 .913.118 1.28.345.376.218.657.515.844.89l-.656.203a1.59 1.59 0 0 0-.625-.61 1.678 1.678 0 0 0-.875-.234c-.344 0-.664.094-.953.282-.281.18-.508.422-.672.734-.168.313-.25.668-.25 1.063 0 .386.082.742.25 1.062.176.324.406.578.688.766.289.187.609.281.953.281.226 0 .445-.035.656-.11a1.87 1.87 0 0 0 .547-.328.993.993 0 0 0 .312-.453l.672.204a1.69 1.69 0 0 1-.468.671c-.22.188-.477.34-.766.454-.281.101-.59.156-.922.156Zm0 0"/></symbol><symbol overflow="visible" id="i"><path style="stroke:none" d="m.922-7.078 2.312 3.812 2.344-3.812h.75L3.594-2.625V0H2.89v-2.656L.156-7.078Zm0 0"/></symbol><symbol overflow="visible" id="j"><path style="stroke:none" d="M.313-.453 3.78-4.687H.391v-.5h4.171v.453L1.095-.516h3.453V0H.313Zm0 0"/></symbol><symbol overflow="visible" id="k"><path style="stroke:none" d="M4.047-.625V0H.672v-.625h1.406v-4.266a1.06 1.06 0 0 1-.265.266 2.884 2.884 0 0 1-.922.453 1.33 1.33 0 0 1-.438.078v-.656c.156 0 .32-.04.5-.125a3.44 3.44 0 0 0 .516-.297c.164-.113.304-.219.422-.312.113-.102.175-.172.187-.204h.703v5.063Zm0 0"/></symbol><clipPath id="a"><path d="M0 0h284.906v107.578H0Zm0 0"/></clipPath><clipPath id="g"><path d="M171 7h113.906v100.578H171Zm0 0"/></clipPath></defs><g clip-path="url(#a)"><path style="stroke:none;fill-rule:nonzero;fill:#fff;fill-opacity:1" d="M0 107.582V0h284.91v107.582Zm0 0"/></g><path style="fill:none;stroke-width:.3985;stroke-linecap:butt;stroke-linejoin:miter;stroke:#234e83;stroke-opacity:1;stroke-miterlimit:10" d="M0-14.173h7.086m0 0H50.03m20.41 0h35.86M0-56.693h7.086m0 0H50.03m20.41 0h35.86M0-99.212h7.086m0 0H50.03m20.41 0h35.86M0-14.173v-42.52m0 0v-42.519" transform="matrix(1 0 0 -1 29.59 -6.005)"/><path style="fill:none;stroke-width:.797;stroke-linecap:butt;stroke-linejoin:bevel;stroke:#234e83;stroke-opacity:1;stroke-miterlimit:10" d="M49.633-14.333c0 2.82 1.406 5.101 3.14 5.101 1.735 0 3.14-2.28 3.14-5.101 0-1.41-.57-2.55-1.273-2.55s-1.277 1.14-1.277 2.55c0 2.82 1.406 5.101 3.145 5.101 1.734 0 3.14-2.28 3.14-5.101 0-1.41-.574-2.55-1.277-2.55s-1.274 1.14-1.274 2.55c0 2.82 1.407 5.101 3.141 5.101s3.14-2.28 3.14-5.101c0-1.41-.57-2.55-1.277-2.55-.703 0-1.273 1.14-1.273 2.55 0 2.82 1.406 5.101 3.14 5.101 1.735 0 3.141-2.28 3.141-5.101 0-1.41-.57-2.55-1.277-2.55-.703 0-1.274 1.14-1.274 2.55 0 2.82 1.407 5.101 3.141 5.101s3.14-2.28 3.14-5.101" transform="matrix(1 0 0 -1 29.59 -6.005)"/><use xlink:href="#b" x="139.409" y="11.705" style="fill:#000;fill-opacity:1"/><path style="fill:none;stroke-width:.797;stroke-linecap:butt;stroke-linejoin:bevel;stroke:#234e83;stroke-opacity:1;stroke-miterlimit:10" d="M49.633-56.853c0 2.817 1.406 5.102 3.14 5.102 1.735 0 3.14-2.285 3.14-5.102 0-1.41-.57-2.55-1.273-2.55s-1.277 1.14-1.277 2.55c0 2.817 1.406 5.102 3.145 5.102 1.734 0 3.14-2.285 3.14-5.102 0-1.41-.574-2.55-1.277-2.55s-1.274 1.14-1.274 2.55c0 2.817 1.407 5.102 3.141 5.102s3.14-2.285 3.14-5.102c0-1.41-.57-2.55-1.277-2.55-.703 0-1.273 1.14-1.273 2.55 0 2.817 1.406 5.102 3.14 5.102 1.735 0 3.141-2.285 3.141-5.102 0-1.41-.57-2.55-1.277-2.55-.703 0-1.274 1.14-1.274 2.55 0 2.817 1.407 5.102 3.141 5.102s3.14-2.285 3.14-5.102" transform="matrix(1 0 0 -1 29.59 -6.005)"/><use xlink:href="#c" x="139.409" y="54.225" style="fill:#000;fill-opacity:1"/><path style="fill:none;stroke-width:.797;stroke-linecap:butt;stroke-linejoin:bevel;stroke:#234e83;stroke-opacity:1;stroke-miterlimit:10" d="M49.633-99.372c0 2.816 1.406 5.101 3.14 5.101 1.735 0 3.14-2.285 3.14-5.101 0-1.41-.57-2.551-1.273-2.551s-1.277 1.14-1.277 2.55c0 2.817 1.406 5.102 3.145 5.102 1.734 0 3.14-2.285 3.14-5.101 0-1.41-.574-2.551-1.277-2.551s-1.274 1.14-1.274 2.55c0 2.817 1.407 5.102 3.141 5.102s3.14-2.285 3.14-5.101c0-1.41-.57-2.551-1.277-2.551-.703 0-1.273 1.14-1.273 2.55 0 2.817 1.406 5.102 3.14 5.102 1.735 0 3.141-2.285 3.141-5.101 0-1.41-.57-2.551-1.277-2.551-.703 0-1.274 1.14-1.274 2.55 0 2.817 1.407 5.102 3.141 5.102s3.14-2.285 3.14-5.101" transform="matrix(1 0 0 -1 29.59 -6.005)"/><use xlink:href="#d" x="139.409" y="96.734" style="fill:#000;fill-opacity:1"/><path style="fill-rule:nonzero;fill:#234e83;fill-opacity:1;stroke-width:.3985;stroke-linecap:butt;stroke-linejoin:miter;stroke:#234e83;stroke-opacity:1;stroke-miterlimit:10" d="M76.808-7.564a1.36 1.36 0 1 1-2.72-.002 1.36 1.36 0 0 1 2.72.002Zm0-42.519a1.36 1.36 0 1 1-2.72-.002 1.36 1.36 0 0 1 2.72.002Zm0-42.524a1.361 1.361 0 1 1-2.722.005 1.361 1.361 0 0 1 2.722-.005Zm0 0" transform="matrix(1 0 0 -1 29.59 -6.005)"/><path style="fill:none;stroke-width:.3985;stroke-linecap:butt;stroke-linejoin:miter;stroke:#cad40e;stroke-opacity:1;stroke-miterlimit:10" d="M141.734-14.173h15.309m20.41 0h15.305l27.64-21.262m0 0 27.637-21.258h-11.766m-20.41 0h-11.762" transform="matrix(1 0 0 -1 29.59 -6.005)"/><use xlink:href="#e" x="162.373" y="10.758" style="fill:#000;fill-opacity:1"/><path style="fill:none;stroke-width:.797;stroke-linecap:butt;stroke-linejoin:bevel;stroke:#cad40e;stroke-opacity:1;stroke-miterlimit:10" d="M156.644-14.333c0 2.82 1.407 5.101 3.141 5.101s3.14-2.28 3.14-5.101c0-1.41-.57-2.55-1.277-2.55-.703 0-1.273 1.14-1.273 2.55 0 2.82 1.406 5.101 3.14 5.101 1.735 0 3.141-2.28 3.141-5.101 0-1.41-.57-2.55-1.277-2.55-.703 0-1.274 1.14-1.274 2.55 0 2.82 1.407 5.101 3.14 5.101 1.735 0 3.142-2.28 3.142-5.101 0-1.41-.57-2.55-1.274-2.55-.707 0-1.277 1.14-1.277 2.55 0 2.82 1.406 5.101 3.14 5.101 1.735 0 3.141-2.28 3.141-5.101 0-1.41-.57-2.55-1.273-2.55-.707 0-1.278 1.14-1.278 2.55 0 2.82 1.406 5.101 3.14 5.101 1.74 0 3.145-2.28 3.145-5.101m58.817-42.52c0 2.817-1.406 5.102-3.14 5.102-1.735 0-3.141-2.285-3.141-5.102 0-1.41.57-2.55 1.277-2.55.703 0 1.273 1.14 1.273 2.55 0 2.817-1.406 5.102-3.14 5.102-1.735 0-3.14-2.285-3.14-5.102 0-1.41.57-2.55 1.273-2.55.707 0 1.277 1.14 1.277 2.55 0 2.817-1.406 5.102-3.14 5.102-1.735 0-3.141-2.285-3.141-5.102 0-1.41.57-2.55 1.273-2.55.707 0 1.277 1.14 1.277 2.55 0 2.817-1.406 5.102-3.14 5.102-1.735 0-3.14-2.285-3.14-5.102 0-1.41.57-2.55 1.273-2.55s1.277 1.14 1.277 2.55c0 2.817-1.406 5.102-3.14 5.102-1.739 0-3.145-2.285-3.145-5.102" transform="matrix(1 0 0 -1 29.59 -6.005)"/><path style="fill:none;stroke-width:.3985;stroke-linecap:butt;stroke-linejoin:miter;stroke:#cad40e;stroke-opacity:1;stroke-miterlimit:10" d="M141.734-56.693h15.309m20.41 0h15.305l27.64-21.261m0 0 27.637-21.258h-11.766m-20.41 0h-11.762" transform="matrix(1 0 0 -1 29.59 -6.005)"/><use xlink:href="#f" x="161.656" y="54.274" style="fill:#000;fill-opacity:1"/><path style="fill:none;stroke-width:.797;stroke-linecap:butt;stroke-linejoin:bevel;stroke:#cad40e;stroke-opacity:1;stroke-miterlimit:10" d="M156.644-56.853c0 2.817 1.407 5.102 3.141 5.102s3.14-2.285 3.14-5.102c0-1.41-.57-2.55-1.277-2.55-.703 0-1.273 1.14-1.273 2.55 0 2.817 1.406 5.102 3.14 5.102 1.735 0 3.141-2.285 3.141-5.102 0-1.41-.57-2.55-1.277-2.55-.703 0-1.274 1.14-1.274 2.55 0 2.817 1.407 5.102 3.14 5.102 1.735 0 3.142-2.285 3.142-5.102 0-1.41-.57-2.55-1.274-2.55-.707 0-1.277 1.14-1.277 2.55 0 2.817 1.406 5.102 3.14 5.102 1.735 0 3.141-2.285 3.141-5.102 0-1.41-.57-2.55-1.273-2.55-.707 0-1.278 1.14-1.278 2.55 0 2.817 1.406 5.102 3.14 5.102 1.74 0 3.145-2.285 3.145-5.102m58.817-42.519c0 2.816-1.406 5.101-3.14 5.101-1.735 0-3.141-2.285-3.141-5.101 0-1.41.57-2.551 1.277-2.551.703 0 1.273 1.14 1.273 2.55 0 2.817-1.406 5.102-3.14 5.102-1.735 0-3.14-2.285-3.14-5.101 0-1.41.57-2.551 1.273-2.551.707 0 1.277 1.14 1.277 2.55 0 2.817-1.406 5.102-3.14 5.102-1.735 0-3.141-2.285-3.141-5.101 0-1.41.57-2.551 1.273-2.551.707 0 1.277 1.14 1.277 2.55 0 2.817-1.406 5.102-3.14 5.102-1.735 0-3.14-2.285-3.14-5.101 0-1.41.57-2.551 1.273-2.551s1.277 1.14 1.277 2.55c0 2.817-1.406 5.102-3.14 5.102-1.739 0-3.145-2.285-3.145-5.101" transform="matrix(1 0 0 -1 29.59 -6.005)"/><g clip-path="url(#g)"><path style="fill:none;stroke-width:.3985;stroke-linecap:butt;stroke-linejoin:miter;stroke:#cad40e;stroke-opacity:1;stroke-miterlimit:10" d="M141.734-99.212h15.309m20.41 0h15.305v-7.09m0 0v-7.086h31.183m0 0h31.18v49.61m0 0v49.605h-15.309m-20.406 0h-15.309" transform="matrix(1 0 0 -1 29.59 -6.005)"/></g><use xlink:href="#h" x="162.333" y="95.798" style="fill:#000;fill-opacity:1"/><path style="fill:none;stroke-width:.797;stroke-linecap:butt;stroke-linejoin:bevel;stroke:#cad40e;stroke-opacity:1;stroke-miterlimit:10" d="M156.644-99.372c0 2.816 1.407 5.101 3.141 5.101s3.14-2.285 3.14-5.101c0-1.41-.57-2.551-1.277-2.551-.703 0-1.273 1.14-1.273 2.55 0 2.817 1.406 5.102 3.14 5.102 1.735 0 3.141-2.285 3.141-5.101 0-1.41-.57-2.551-1.277-2.551-.703 0-1.274 1.14-1.274 2.55 0 2.817 1.407 5.102 3.14 5.102 1.735 0 3.142-2.285 3.142-5.101 0-1.41-.57-2.551-1.274-2.551-.707 0-1.277 1.14-1.277 2.55 0 2.817 1.406 5.102 3.14 5.102 1.735 0 3.141-2.285 3.141-5.101 0-1.41-.57-2.551-1.273-2.551-.707 0-1.278 1.14-1.278 2.55 0 2.817 1.406 5.102 3.14 5.102 1.74 0 3.145-2.285 3.145-5.101m62.359 85.039c0 2.82-1.405 5.101-3.14 5.101-1.734 0-3.14-2.28-3.14-5.101 0-1.41.57-2.55 1.277-2.55.703 0 1.273 1.14 1.273 2.55 0 2.82-1.406 5.101-3.14 5.101-1.735 0-3.14-2.28-3.14-5.101 0-1.41.57-2.55 1.276-2.55.704 0 1.274 1.14 1.274 2.55 0 2.82-1.406 5.101-3.14 5.101-1.735 0-3.141-2.28-3.141-5.101 0-1.41.57-2.55 1.273-2.55.707 0 1.277 1.14 1.277 2.55 0 2.82-1.406 5.101-3.14 5.101-1.735 0-3.14-2.28-3.14-5.101 0-1.41.57-2.55 1.273-2.55.707 0 1.277 1.14 1.277 2.55 0 2.82-1.406 5.101-3.14 5.101-1.735 0-3.141-2.28-3.141-5.101" transform="matrix(1 0 0 -1 29.59 -6.005)"/><path style="fill:none;stroke-width:.3985;stroke-linecap:butt;stroke-linejoin:miter;stroke:#cad40e;stroke-opacity:1;stroke-miterlimit:10" d="M204.097-14.173v-21.262m0 0v-42.52m0 0v-21.257" transform="matrix(1 0 0 -1 29.59 -6.005)"/><path style="fill-rule:nonzero;fill:#cad40e;fill-opacity:1;stroke-width:.3985;stroke-linecap:butt;stroke-linejoin:miter;stroke:#cad40e;stroke-opacity:1;stroke-miterlimit:10" d="M153.394-7.564a1.36 1.36 0 1 1-2.717-.002 1.36 1.36 0 0 1 2.717.002Zm62.364 0a1.36 1.36 0 1 1-2.721-.002 1.36 1.36 0 0 1 2.72.002Zm-62.364-42.519a1.36 1.36 0 1 1-2.717-.002 1.36 1.36 0 0 1 2.717.002Zm58.821 0a1.36 1.36 0 1 1-2.721-.002 1.36 1.36 0 0 1 2.72.002Zm-58.821-42.524a1.359 1.359 0 1 1-2.718 0 1.36 1.36 0 0 1 2.718 0Zm58.821 0c0 .754-.61 1.364-1.36 1.364a1.361 1.361 0 0 1 0-2.723c.75 0 1.36.61 1.36 1.36Zm0 0" transform="matrix(1 0 0 -1 29.59 -6.005)"/><use xlink:href="#i" x="3.321" y="57.327" style="fill:#234e83;fill-opacity:1"/><use xlink:href="#j" x="9.806" y="57.327" style="fill:#cad40e;fill-opacity:1"/><g style="fill:#000;fill-opacity:1"><use xlink:href="#k" x="14.708" y="57.327"/><use xlink:href="#k" x="18.972" y="57.327"/></g></svg>
