<svg xmlns="http://www.w3.org/2000/svg" xmlns:xlink="http://www.w3.org/1999/xlink" width="1212.887" height="718.641" viewBox="0 0 909.665 538.981"><defs><path id="b" d="M3.078-7.078h.594L6.609 0h-.734l-.922-2.219H1.781L.875 0h-.75Zm1.719 4.312-1.422-3.5-1.453 3.5Zm0 0"/><path id="c" d="M6.203-1.828q-.001.532-.266.953a1.87 1.87 0 0 1-.718.64A2.1 2.1 0 0 1 4.234 0H.891v-7.078h3.406q.497.001.86.266c.238.18.421.406.546.687a1.92 1.92 0 0 1-.062 1.828q-.27.456-.75.672.608.175.953.672.359.487.36 1.125m-.687-.11q-.001-.357-.172-.656a1.3 1.3 0 0 0-.438-.5 1 1 0 0 0-.61-.203H1.579v2.688h2.656q.343 0 .625-.188.293-.186.47-.484a1.25 1.25 0 0 0 .187-.657m-3.938-4.53v2.609h2.438q.34 0 .609-.188.28-.187.438-.484c.101-.196.156-.407.156-.625q-.002-.358-.157-.657a1.16 1.16 0 0 0-.406-.468.94.94 0 0 0-.578-.188Zm0 0"/><path id="d" d="M.422-3.594c0-.426.07-.847.219-1.265Q.875-5.482 1.297-6a3 3 0 0 1 1.047-.812 3.25 3.25 0 0 1 1.437-.313q.936.002 1.61.438.684.44 1 1.109l-.547.344a2.14 2.14 0 0 0-.578-.735 2 2 0 0 0-.75-.39 2.6 2.6 0 0 0-.782-.125q-.644.002-1.125.25-.487.25-.828.672a3.1 3.1 0 0 0-.5.953q-.174.516-.172 1.062 0 .598.204 1.125.199.533.562.953.358.41.844.657c.32.167.672.25 1.047.25q.404 0 .812-.141a2.6 2.6 0 0 0 .781-.422c.25-.195.446-.453.594-.766l.578.313q-.22.515-.687.89a3.2 3.2 0 0 1-1.016.563 3.5 3.5 0 0 1-1.094.188Q2.998.065 2.391-.25a3.5 3.5 0 0 1-1.063-.828 3.9 3.9 0 0 1-.672-1.188 3.9 3.9 0 0 1-.234-1.328m0 0"/><path id="e" d="M3 .094c-.375 0-.727-.07-1.047-.203a2.7 2.7 0 0 1-.828-.594 3 3 0 0 1-.547-.875A2.8 2.8 0 0 1 .391-2.61q0-.734.328-1.344.328-.607.906-.969.592-.359 1.36-.36c.488 0 .913.118 1.28.345q.564.327.844.89l-.656.203a1.6 1.6 0 0 0-.625-.61 1.7 1.7 0 0 0-.875-.234q-.518 0-.953.282c-.281.18-.508.422-.672.734q-.251.47-.25 1.063-.001.58.25 1.062.264.485.688.766.435.28.953.281.34.001.656-.11a1.9 1.9 0 0 0 .547-.327 1 1 0 0 0 .312-.454l.672.204q-.14.377-.468.671-.331.283-.766.454C3.64.039 3.332.094 3 .094m0 0"/><path id="f" d="M3.297.094a2.2 2.2 0 0 1-1.14-.313A2.3 2.3 0 0 1 1.358-1v1H.75v-7.281h.672v3.172a3 3 0 0 1 .844-.844c.32-.219.703-.328 1.14-.328q.547 0 .969.234.435.223.75.61.31.377.469.859c.101.324.156.656.156 1q0 .55-.187 1.031A2.6 2.6 0 0 1 4.25-.109a2.3 2.3 0 0 1-.953.203M3.125-.5q.42.002.781-.172.358-.17.61-.469.264-.294.406-.671.14-.374.14-.766 0-.545-.234-1.031a2.03 2.03 0 0 0-.656-.782 1.62 1.62 0 0 0-.969-.296 1.5 1.5 0 0 0-.734.187q-.345.175-.61.469-.269.3-.437.64v1.61q.046.281.203.515.17.236.422.407.265.159.547.265.28.094.531.094m0 0"/><path id="g" d="M.328-1.5q0-.482.281-.828a1.75 1.75 0 0 1 .766-.547q.497-.201 1.14-.203.387.002.797.062.404.066.72.172v-.437c0-.438-.134-.785-.391-1.047q-.376-.388-1.063-.39a2.3 2.3 0 0 0-.828.155 4.3 4.3 0 0 0-.844.454l-.265-.47a4.4 4.4 0 0 1 1-.53 3.1 3.1 0 0 1 1-.172c.632 0 1.14.183 1.515.547q.563.549.563 1.515v2.407c0 .093.015.164.047.203q.06.065.203.078V0c-.074.008-.14.016-.203.016a.24.24 0 0 1-.11 0 .48.48 0 0 1-.516-.469l-.015-.39q-.344.456-.906.702a3 3 0 0 1-1.14.235 2 2 0 0 1-.907-.203 1.7 1.7 0 0 1-.625-.578A1.56 1.56 0 0 1 .328-1.5m3.485.406q.106-.139.156-.265a.7.7 0 0 0 .062-.235v-.765a4 4 0 0 0-.703-.188 3.5 3.5 0 0 0-.719-.078c-.492 0-.886.102-1.187.297q-.439.282-.438.781 0 .3.141.547.155.252.438.422.293.157.687.156c.32 0 .625-.062.906-.187q.422-.187.656-.485m0 0"/><path id="h" d="M.89 0v-7.078h2.407q1.125.002 1.875.484.75.47 1.125 1.266.375.797.375 1.781-.001 1.079-.406 1.875A2.93 2.93 0 0 1 5.094-.437Q4.327 0 3.297 0Zm5.094-3.547q0-.843-.312-1.5a2.3 2.3 0 0 0-.922-1.031q-.598-.375-1.453-.375H1.578v5.828h1.719q.872 0 1.469-.375a2.54 2.54 0 0 0 .906-1.047q.311-.667.312-1.5m0 0"/><path id="i" d="M.406-2.578q0-.734.297-1.344.294-.621.828-.984.545-.375 1.235-.375.656.002 1.172.343.515.347.796.829v-3.172h.672v6.469c0 .093.02.164.063.203q.058.065.187.078V0q-.205.028-.312.016A.537.537 0 0 1 4.812-.5V-1q-.316.504-.843.797-.518.299-1.094.297-.533 0-.984-.219a2.5 2.5 0 0 1-.797-.594 2.9 2.9 0 0 1-.516-.86 2.9 2.9 0 0 1-.172-1m4.328.797v-1.61a1.8 1.8 0 0 0-.421-.656 2.2 2.2 0 0 0-.657-.469 1.69 1.69 0 0 0-1.484 0 1.8 1.8 0 0 0-.578.485q-.236.298-.375.672c-.086.25-.125.511-.125.78q0 .423.14.798.153.377.422.672.264.3.61.453.356.157.765.156.263 0 .531-.094.281-.105.532-.281.264-.17.422-.406.17-.247.218-.5m0 0"/><path id="j" d="M5.547-2.922q0 .878-.328 1.563-.317.69-.89 1.078-.566.375-1.282.375-.72 0-1.281-.375A2.65 2.65 0 0 1 .875-1.36Q.547-2.044.547-2.922q0-.873.328-1.547.329-.685.89-1.078.562-.405 1.282-.406c.476 0 .906.137 1.281.406q.575.393.89 1.078.33.675.329 1.547m-.688 0q0-.703-.234-1.234Q4.404-4.702 4-5a1.53 1.53 0 0 0-.953-.312q-.533 0-.953.312-.41.299-.64.844-.235.531-.235 1.234 0 .704.234 1.25.232.534.64.844.422.299.954.297.544 0 .953-.297.404-.31.625-.844.234-.546.234-1.25m0 0"/><path id="k" d="m.922-7.078 2.312 3.812 2.344-3.812h.75L3.594-2.625V0H2.89v-2.656L.156-7.078Zm0 0"/><path id="l" d="M1.047 1.594c.094.008.18.015.266.015a1 1 0 0 0 .187-.015.4.4 0 0 0 .234-.14c.07-.087.157-.243.25-.47Q2.137.657 2.406 0L.156-5.187h.719l1.89 4.484 1.766-4.484h.672L2.516 1.5a1.6 1.6 0 0 1-.22.36 1 1 0 0 1-.343.265 1.2 1.2 0 0 1-.5.094.8.8 0 0 1-.187 0c-.063 0-.137-.008-.22-.016Zm0 0"/><path id="n" d="M.313-.453 3.78-4.687H.391v-.5h4.172v.453L1.092-.516h3.454V0H.313Zm0 0"/><path id="o" d="M5.578-2.328A2.34 2.34 0 0 0 4.36-4.406a2.44 2.44 0 0 0-1.218-.313q-.457.002-.844.157a2.05 2.05 0 0 0-.688.453 2 2 0 0 0-.437.672c0-.657.082-1.211.25-1.672q.247-.685.687-1.047.436-.375 1.016-.375c.375 0 .71.105 1.016.312q.45.299.672.813l.437-.407a2.26 2.26 0 0 0-.86-.953 2.27 2.27 0 0 0-1.265-.359q-.768 0-1.36.469c-.398.312-.702.781-.921 1.406q-.328.938-.328 2.39 0 .927.328 1.594.328.658.906 1.016.574.345 1.313.344.702 0 1.265-.328a2.44 2.44 0 0 0 .906-.875q.342-.563.344-1.22M3.078-.5c-.336 0-.64-.082-.922-.25a2 2 0 0 1-.687-.656 1.76 1.76 0 0 1-.25-.922q-.001-.514.25-.922.248-.42.672-.672a1.87 1.87 0 0 1 .937-.25c.332 0 .64.086.922.25q.42.25.672.672.248.423.25.922c0 .336-.086.64-.25.922q-.25.41-.672.656-.423.251-.922.25m0 0"/><path id="q" d="M4.047-.625V0H.672v-.625h1.406v-4.266a1.1 1.1 0 0 1-.265.266 2.9 2.9 0 0 1-.922.453 1.3 1.3 0 0 1-.438.078v-.656c.156 0 .32-.04.5-.125a3.4 3.4 0 0 0 .516-.297q.246-.171.422-.312.17-.155.187-.203h.703v5.062Zm0 0"/><path id="t" d="M2.61 1.484q-.75 0-1.36-.375A2.34 2.34 0 0 1 .344.125l.453-.328q.28.481.766.781c.32.195.675.297 1.062.297q.498 0 .89-.219a1.73 1.73 0 0 0 .626-.61q.234-.386.234-.89c0-.32-.078-.61-.234-.86a1.5 1.5 0 0 0-.61-.577 1.66 1.66 0 0 0-.844-.219q-.468.002-.89.203a1.75 1.75 0 0 0-.672.594H.5l.781-3.984h3.422v.625H1.797l-.484 2.546c.164-.187.375-.332.625-.437q.387-.154.828-.156.639.002 1.156.297A2.18 2.18 0 0 1 5.078-.86q-.002.703-.344 1.218a2.3 2.3 0 0 1-.89.829 2.6 2.6 0 0 1-1.235.296m0 0"/><clipPath id="a"><path d="M0 0h909.664v538.98H0Zm0 0"/></clipPath><clipPath id="m"><path d="M795 0h114.664v100H795Zm0 0"/></clipPath><clipPath id="p"><path d="M795 141h114.664v108H795Zm0 0"/></clipPath><clipPath id="r"><path d="M795 297h114.664v101H795Zm0 0"/></clipPath><clipPath id="s"><path d="M172 524h115v14.98H172Zm0 0"/></clipPath><clipPath id="u"><path d="M478 490h119v48.98H478Zm0 0"/></clipPath><clipPath id="v"><path d="M795 425h114.664v113.98H795Zm0 0"/></clipPath></defs><g clip-path="url(#a)"><path fill="#fff" d="M0 538.988V0h909.676v538.988Zm0 0"/></g><path fill="none" stroke="red" stroke-miterlimit="10" stroke-width=".399" d="M30.727.2h56.691m0 0h56.695v7.085m0 0v7.086h-3.543m0 0h-39.402m-20.41 0h-35.86l49.61 21.262m0 0 49.605 21.262h-3.543m0 0h-39.402m-20.41 0h-35.86l49.61 21.257m0 0 49.605 21.262h-3.543m0 0h-39.402m-20.41 0H37.813m0 0h-7.086v-49.61m0 0V.2"/><use xlink:href="#b" x="147.632" y="17.909"/><path fill="none" stroke="red" stroke-linejoin="bevel" stroke-miterlimit="10" stroke-width=".797" d="M101.566 14.531c0-2.816-1.406-5.101-3.14-5.101s-3.14 2.285-3.14 5.101c0 1.41.57 2.551 1.273 2.551.707 0 1.277-1.14 1.277-2.55 0-2.817-1.406-5.102-3.14-5.102s-3.141 2.285-3.141 5.101c0 1.41.57 2.551 1.273 2.551s1.277-1.14 1.277-2.55c0-2.817-1.406-5.102-3.14-5.102-1.738 0-3.145 2.285-3.145 5.101 0 1.41.575 2.551 1.278 2.551s1.273-1.14 1.273-2.55c0-2.817-1.406-5.102-3.14-5.102s-3.141 2.285-3.141 5.101c0 1.41.57 2.551 1.277 2.551.703 0 1.274-1.14 1.274-2.55 0-2.817-1.407-5.102-3.141-5.102s-3.14 2.285-3.14 5.101"/><use xlink:href="#c" x="147.632" y="60.429"/><path fill="none" stroke="red" stroke-linejoin="bevel" stroke-miterlimit="10" stroke-width=".797" d="M101.566 57.05c0-2.816-1.406-5.1-3.14-5.1s-3.14 2.284-3.14 5.1c0 1.41.57 2.552 1.273 2.552.707 0 1.277-1.141 1.277-2.551 0-2.817-1.406-5.102-3.14-5.102s-3.141 2.285-3.141 5.102c0 1.41.57 2.55 1.273 2.55s1.277-1.14 1.277-2.55c0-2.817-1.406-5.102-3.14-5.102-1.738 0-3.145 2.285-3.145 5.102 0 1.41.575 2.55 1.278 2.55s1.273-1.14 1.273-2.55c0-2.817-1.406-5.102-3.14-5.102s-3.141 2.285-3.141 5.102c0 1.41.57 2.55 1.277 2.55.703 0 1.274-1.14 1.274-2.55 0-2.817-1.407-5.102-3.141-5.102s-3.14 2.285-3.14 5.102"/><use xlink:href="#d" x="147.632" y="102.939"/><path fill="none" stroke="red" stroke-linejoin="bevel" stroke-miterlimit="10" stroke-width=".797" d="M101.566 99.57c0-2.816-1.406-5.101-3.14-5.101s-3.14 2.285-3.14 5.101c0 1.41.57 2.555 1.273 2.555.707 0 1.277-1.145 1.277-2.555 0-2.816-1.406-5.101-3.14-5.101s-3.141 2.285-3.141 5.101c0 1.41.57 2.555 1.273 2.555s1.277-1.145 1.277-2.555c0-2.816-1.406-5.101-3.14-5.101-1.738 0-3.145 2.285-3.145 5.101 0 1.41.575 2.555 1.278 2.555s1.273-1.145 1.273-2.555c0-2.816-1.406-5.101-3.14-5.101s-3.141 2.285-3.141 5.101c0 1.41.57 2.555 1.277 2.555.703 0 1.274-1.145 1.274-2.555 0-2.816-1.407-5.101-3.141-5.101s-3.14 2.285-3.14 5.101"/><path fill="red" stroke="red" stroke-miterlimit="10" stroke-width=".399" d="M107.535 7.762a1.361 1.361 0 1 0-2.722.003 1.361 1.361 0 0 0 2.722-.003Zm0 42.523a1.362 1.362 0 1 0-2.724-.002 1.362 1.362 0 0 0 2.724.002Zm0 42.52c0-.754-.61-1.36-1.363-1.36a1.36 1.36 0 1 0 1.363 1.36Zm0 0"/><path fill="none" stroke="red" stroke-miterlimit="10" stroke-width=".399" d="M172.46.2h56.692m0 0h56.696v49.605m0 0v49.61h-3.543m0 0h-39.403m-20.41 0h-42.945m0 0h-7.086m0 0 53.148-21.263m0 0 53.153-21.257h-35.86m-20.41 0h-42.945m0 0h-7.086l53.148-21.262m0 0 53.153-21.262h-35.86m-20.41 0h-42.945m0 0h-7.086V7.285m0 0V.2"/><path fill="none" stroke="red" stroke-linejoin="bevel" stroke-miterlimit="10" stroke-width=".797" d="M243.3 99.57c0-2.816-1.405-5.101-3.14-5.101-1.734 0-3.14 2.285-3.14 5.101 0 1.41.57 2.555 1.273 2.555.707 0 1.277-1.145 1.277-2.555 0-2.816-1.406-5.101-3.14-5.101s-3.145 2.285-3.145 5.101c0 1.41.574 2.555 1.278 2.555.703 0 1.277-1.145 1.277-2.555 0-2.816-1.406-5.101-3.145-5.101-1.734 0-3.14 2.285-3.14 5.101 0 1.41.574 2.555 1.277 2.555s1.273-1.145 1.273-2.555c0-2.816-1.406-5.101-3.14-5.101s-3.14 2.285-3.14 5.101c0 1.41.57 2.555 1.277 2.555.703 0 1.273-1.145 1.273-2.555 0-2.816-1.406-5.101-3.14-5.101s-3.141 2.285-3.141 5.101"/><use xlink:href="#e" x="163.469" y="102.002"/><path fill="none" stroke="red" stroke-linejoin="bevel" stroke-miterlimit="10" stroke-width=".797" d="M243.3 57.05c0-2.816-1.405-5.1-3.14-5.1-1.734 0-3.14 2.284-3.14 5.1 0 1.41.57 2.552 1.273 2.552.707 0 1.277-1.141 1.277-2.551 0-2.817-1.406-5.102-3.14-5.102s-3.145 2.285-3.145 5.102c0 1.41.574 2.55 1.278 2.55.703 0 1.277-1.14 1.277-2.55 0-2.817-1.406-5.102-3.145-5.102-1.734 0-3.14 2.285-3.14 5.102 0 1.41.574 2.55 1.277 2.55s1.273-1.14 1.273-2.55c0-2.817-1.406-5.102-3.14-5.102s-3.14 2.285-3.14 5.102c0 1.41.57 2.55 1.277 2.55.703 0 1.273-1.14 1.273-2.55 0-2.817-1.406-5.102-3.14-5.102s-3.141 2.285-3.141 5.102"/><use xlink:href="#f" x="162.792" y="60.479"/><path fill="none" stroke="red" stroke-linejoin="bevel" stroke-miterlimit="10" stroke-width=".797" d="M243.3 14.531c0-2.816-1.405-5.101-3.14-5.101-1.734 0-3.14 2.285-3.14 5.101 0 1.41.57 2.551 1.273 2.551.707 0 1.277-1.14 1.277-2.55 0-2.817-1.406-5.102-3.14-5.102s-3.145 2.285-3.145 5.101c0 1.41.574 2.551 1.278 2.551.703 0 1.277-1.14 1.277-2.55 0-2.817-1.406-5.102-3.145-5.102-1.734 0-3.14 2.285-3.14 5.101 0 1.41.574 2.551 1.277 2.551s1.273-1.14 1.273-2.55c0-2.817-1.406-5.102-3.14-5.102s-3.14 2.285-3.14 5.101c0 1.41.57 2.551 1.277 2.551.703 0 1.273-1.14 1.273-2.55 0-2.817-1.406-5.102-3.14-5.102s-3.141 2.285-3.141 5.101"/><use xlink:href="#g" x="163.509" y="16.963"/><path fill="red" stroke="red" stroke-miterlimit="10" stroke-width=".399" d="M218.848 7.762a1.36 1.36 0 1 0-2.721.002 1.36 1.36 0 0 0 2.72-.002Zm0 42.523a1.361 1.361 0 1 0-2.723-.004 1.361 1.361 0 0 0 2.723.004Zm0 42.52c0-.754-.61-1.36-1.36-1.36a1.359 1.359 0 1 0 0 2.72c.75 0 1.36-.61 1.36-1.36Zm0 0"/><g fill="red"><use xlink:href="#h" x="4.954" y="56.846"/><use xlink:href="#i" x="12.077" y="56.846"/></g><use xlink:href="#j" x="18.274" y="56.846"/><path fill="none" stroke="#234e83" stroke-miterlimit="10" stroke-width=".399" d="M342.54 14.371h7.089m0 0h42.945m20.41 0h35.856m-106.3 42.524h7.089m0 0h42.945m20.41 0h35.856m-106.3 42.52h7.089m0 0h42.945m20.41 0h35.856M342.54 14.37v42.524m0 0v42.52"/><path fill="none" stroke="#234e83" stroke-linejoin="bevel" stroke-miterlimit="10" stroke-width=".797" d="M392.176 14.531c0-2.816 1.406-5.101 3.14-5.101s3.141 2.285 3.141 5.101c0 1.41-.57 2.551-1.277 2.551-.703 0-1.274-1.14-1.274-2.55 0-2.817 1.406-5.102 3.14-5.102s3.142 2.285 3.142 5.101c0 1.41-.57 2.551-1.274 2.551-.707 0-1.277-1.14-1.277-2.55 0-2.817 1.406-5.102 3.14-5.102s3.141 2.285 3.141 5.101c0 1.41-.57 2.551-1.273 2.551-.707 0-1.278-1.14-1.278-2.55 0-2.817 1.406-5.102 3.14-5.102s3.141 2.285 3.141 5.101c0 1.41-.57 2.551-1.273 2.551s-1.277-1.14-1.277-2.55c0-2.817 1.406-5.102 3.14-5.102 1.739 0 3.145 2.285 3.145 5.101"/><use xlink:href="#b" x="452.356" y="17.909"/><path fill="none" stroke="#234e83" stroke-linejoin="bevel" stroke-miterlimit="10" stroke-width=".797" d="M392.176 57.05c0-2.816 1.406-5.1 3.14-5.1s3.141 2.284 3.141 5.1c0 1.41-.57 2.552-1.277 2.552-.703 0-1.274-1.141-1.274-2.551 0-2.817 1.406-5.102 3.14-5.102s3.142 2.285 3.142 5.102c0 1.41-.57 2.55-1.274 2.55-.707 0-1.277-1.14-1.277-2.55 0-2.817 1.406-5.102 3.14-5.102s3.141 2.285 3.141 5.102c0 1.41-.57 2.55-1.273 2.55-.707 0-1.278-1.14-1.278-2.55 0-2.817 1.406-5.102 3.14-5.102s3.141 2.285 3.141 5.102c0 1.41-.57 2.55-1.273 2.55s-1.277-1.14-1.277-2.55c0-2.817 1.406-5.102 3.14-5.102 1.739 0 3.145 2.285 3.145 5.102"/><use xlink:href="#c" x="452.356" y="60.429"/><path fill="none" stroke="#234e83" stroke-linejoin="bevel" stroke-miterlimit="10" stroke-width=".797" d="M392.176 99.57c0-2.816 1.406-5.101 3.14-5.101s3.141 2.285 3.141 5.101c0 1.41-.57 2.555-1.277 2.555-.703 0-1.274-1.145-1.274-2.555 0-2.816 1.406-5.101 3.14-5.101s3.142 2.285 3.142 5.101c0 1.41-.57 2.555-1.274 2.555-.707 0-1.277-1.145-1.277-2.555 0-2.816 1.406-5.101 3.14-5.101s3.141 2.285 3.141 5.101c0 1.41-.57 2.555-1.273 2.555-.707 0-1.278-1.145-1.278-2.555 0-2.816 1.406-5.101 3.14-5.101s3.141 2.285 3.141 5.101c0 1.41-.57 2.555-1.273 2.555s-1.277-1.145-1.277-2.555c0-2.816 1.406-5.101 3.14-5.101 1.739 0 3.145 2.285 3.145 5.101"/><use xlink:href="#d" x="452.356" y="102.939"/><path fill="#234e83" stroke="#234e83" stroke-miterlimit="10" stroke-width=".399" d="M419.348 7.762a1.36 1.36 0 1 0-2.721.002 1.36 1.36 0 0 0 2.72-.002Zm0 42.523c0-.754-.61-1.363-1.36-1.363a1.361 1.361 0 0 0 0 2.723c.75 0 1.36-.61 1.36-1.36Zm0 42.52a1.359 1.359 0 1 0-2.72 0 1.36 1.36 0 0 0 2.72 0Zm0 0"/><path fill="none" stroke="#234e83" stroke-miterlimit="10" stroke-width=".399" d="M597.664 14.371h-3.547m0 0H547.63m-20.41 0h-42.946m113.391 42.524h-3.547m0 0H547.63m-20.41 0h-42.946m113.391 42.52h-3.547m0 0H547.63m-20.41 0h-42.946m113.39-85.045v42.524m0 0v42.52"/><path fill="none" stroke="#234e83" stroke-linejoin="bevel" stroke-miterlimit="10" stroke-width=".797" d="M548.027 14.531c0-2.816-1.406-5.101-3.14-5.101s-3.14 2.285-3.14 5.101c0 1.41.57 2.551 1.276 2.551.704 0 1.274-1.14 1.274-2.55 0-2.817-1.406-5.102-3.14-5.102s-3.141 2.285-3.141 5.101c0 1.41.57 2.551 1.273 2.551.707 0 1.277-1.14 1.277-2.55 0-2.817-1.406-5.102-3.14-5.102s-3.14 2.285-3.14 5.101c0 1.41.57 2.551 1.273 2.551.707 0 1.277-1.14 1.277-2.55 0-2.817-1.406-5.102-3.14-5.102s-3.141 2.285-3.141 5.101c0 1.41.57 2.551 1.273 2.551s1.277-1.14 1.277-2.55c0-2.817-1.406-5.102-3.14-5.102-1.738 0-3.145 2.285-3.145 5.101"/><use xlink:href="#g" x="475.32" y="16.963"/><path fill="none" stroke="#234e83" stroke-linejoin="bevel" stroke-miterlimit="10" stroke-width=".797" d="M548.027 57.05c0-2.816-1.406-5.1-3.14-5.1s-3.14 2.284-3.14 5.1c0 1.41.57 2.552 1.276 2.552.704 0 1.274-1.141 1.274-2.551 0-2.817-1.406-5.102-3.14-5.102s-3.141 2.285-3.141 5.102c0 1.41.57 2.55 1.273 2.55.707 0 1.277-1.14 1.277-2.55 0-2.817-1.406-5.102-3.14-5.102s-3.14 2.285-3.14 5.102c0 1.41.57 2.55 1.273 2.55.707 0 1.277-1.14 1.277-2.55 0-2.817-1.406-5.102-3.14-5.102s-3.141 2.285-3.141 5.102c0 1.41.57 2.55 1.273 2.55s1.277-1.14 1.277-2.55c0-2.817-1.406-5.102-3.14-5.102-1.738 0-3.145 2.285-3.145 5.102"/><use xlink:href="#f" x="474.603" y="60.479"/><path fill="none" stroke="#234e83" stroke-linejoin="bevel" stroke-miterlimit="10" stroke-width=".797" d="M548.027 99.57c0-2.816-1.406-5.101-3.14-5.101s-3.14 2.285-3.14 5.101c0 1.41.57 2.555 1.276 2.555.704 0 1.274-1.145 1.274-2.555 0-2.816-1.406-5.101-3.14-5.101s-3.141 2.285-3.141 5.101c0 1.41.57 2.555 1.273 2.555.707 0 1.277-1.145 1.277-2.555 0-2.816-1.406-5.101-3.14-5.101s-3.14 2.285-3.14 5.101c0 1.41.57 2.555 1.273 2.555.707 0 1.277-1.145 1.277-2.555 0-2.816-1.406-5.101-3.14-5.101s-3.141 2.285-3.141 5.101c0 1.41.57 2.555 1.273 2.555s1.277-1.145 1.277-2.555c0-2.816-1.406-5.101-3.14-5.101-1.738 0-3.145 2.285-3.145 5.101"/><use xlink:href="#e" x="475.28" y="102.002"/><path fill="#234e83" stroke="#234e83" stroke-miterlimit="10" stroke-width=".399" d="M523.574 7.762a1.36 1.36 0 1 0-2.72.002 1.36 1.36 0 0 0 2.72-.002Zm0 42.523c0-.754-.61-1.363-1.36-1.363a1.361 1.361 0 0 0 0 2.723c.75 0 1.36-.61 1.36-1.36Zm0 42.52a1.359 1.359 0 1 0-2.719 0 1.36 1.36 0 0 0 2.72 0Zm0 0"/><use xlink:href="#k" x="318.549" y="58.782" fill="#234e83"/><use xlink:href="#l" x="324.686" y="58.782" fill="#234e83"/><use xlink:href="#j" x="330.085" y="58.782"/><path fill="none" stroke="red" stroke-miterlimit="10" stroke-width=".399" d="M654.355.2h56.696m0 0h56.691v7.085m0 0v7.086H764.2m0 0h-39.402m-20.41 0h-35.86l49.61 21.262m0 0 49.605 21.262H764.2m0 0h-39.402m-20.41 0h-35.86l49.61 21.257m0 0 49.605 21.262H764.2m0 0h-39.402m-20.41 0H661.44m0 0h-7.086v-49.61m0 0V.2"/><use xlink:href="#b" x="771.253" y="17.909"/><path fill="none" stroke="red" stroke-linejoin="bevel" stroke-miterlimit="10" stroke-width=".797" d="M725.195 14.531c0-2.816-1.406-5.101-3.14-5.101s-3.14 2.285-3.14 5.101c0 1.41.57 2.551 1.276 2.551.704 0 1.274-1.14 1.274-2.55 0-2.817-1.406-5.102-3.14-5.102s-3.141 2.285-3.141 5.101c0 1.41.57 2.551 1.273 2.551.707 0 1.277-1.14 1.277-2.55 0-2.817-1.406-5.102-3.14-5.102s-3.14 2.285-3.14 5.101c0 1.41.57 2.551 1.273 2.551.707 0 1.277-1.14 1.277-2.55 0-2.817-1.406-5.102-3.14-5.102-1.739 0-3.145 2.285-3.145 5.101 0 1.41.574 2.551 1.277 2.551s1.277-1.14 1.277-2.55c0-2.817-1.406-5.102-3.144-5.102-1.734 0-3.14 2.285-3.14 5.101"/><use xlink:href="#c" x="771.253" y="60.429"/><path fill="none" stroke="red" stroke-linejoin="bevel" stroke-miterlimit="10" stroke-width=".797" d="M725.195 57.05c0-2.816-1.406-5.1-3.14-5.1s-3.14 2.284-3.14 5.1c0 1.41.57 2.552 1.276 2.552.704 0 1.274-1.141 1.274-2.551 0-2.817-1.406-5.102-3.14-5.102s-3.141 2.285-3.141 5.102c0 1.41.57 2.55 1.273 2.55.707 0 1.277-1.14 1.277-2.55 0-2.817-1.406-5.102-3.14-5.102s-3.14 2.285-3.14 5.102c0 1.41.57 2.55 1.273 2.55.707 0 1.277-1.14 1.277-2.55 0-2.817-1.406-5.102-3.14-5.102-1.739 0-3.145 2.285-3.145 5.102 0 1.41.574 2.55 1.277 2.55s1.277-1.14 1.277-2.55c0-2.817-1.406-5.102-3.144-5.102-1.734 0-3.14 2.285-3.14 5.102"/><use xlink:href="#d" x="771.253" y="102.939"/><path fill="none" stroke="red" stroke-linejoin="bevel" stroke-miterlimit="10" stroke-width=".797" d="M725.195 99.57c0-2.816-1.406-5.101-3.14-5.101s-3.14 2.285-3.14 5.101c0 1.41.57 2.555 1.276 2.555.704 0 1.274-1.145 1.274-2.555 0-2.816-1.406-5.101-3.14-5.101s-3.141 2.285-3.141 5.101c0 1.41.57 2.555 1.273 2.555.707 0 1.277-1.145 1.277-2.555 0-2.816-1.406-5.101-3.14-5.101s-3.14 2.285-3.14 5.101c0 1.41.57 2.555 1.273 2.555.707 0 1.277-1.145 1.277-2.555 0-2.816-1.406-5.101-3.14-5.101-1.739 0-3.145 2.285-3.145 5.101 0 1.41.574 2.555 1.277 2.555s1.277-1.145 1.277-2.555c0-2.816-1.406-5.101-3.144-5.101-1.734 0-3.14 2.285-3.14 5.101"/><path fill="red" stroke="red" stroke-miterlimit="10" stroke-width=".399" d="M731.164 7.762a1.36 1.36 0 1 0-2.72.002 1.36 1.36 0 0 0 2.72-.002Zm0 42.523a1.361 1.361 0 1 0-2.722-.004 1.361 1.361 0 0 0 2.722.004Zm0 42.52c0-.754-.61-1.36-1.36-1.36a1.359 1.359 0 1 0 0 2.72c.75 0 1.36-.61 1.36-1.36Zm0 0"/><g clip-path="url(#m)"><path fill="none" stroke="#cad40e" stroke-miterlimit="10" stroke-width=".399" d="M796.09 14.371h15.308m20.41 0h15.305V7.285m0 0V.2h31.184m0 0h31.18v49.606m0 0v49.61h-3.543m0 0h-15.309m-20.41 0h-11.762"/></g><use xlink:href="#g" x="787.131" y="16.963"/><path fill="none" stroke="#cad40e" stroke-linejoin="bevel" stroke-miterlimit="10" stroke-width=".797" d="M811 14.531c0-2.816 1.406-5.101 3.14-5.101s3.141 2.285 3.141 5.101c0 1.41-.57 2.551-1.277 2.551-.703 0-1.274-1.14-1.274-2.55 0-2.817 1.407-5.102 3.141-5.102s3.14 2.285 3.14 5.101c0 1.41-.57 2.551-1.273 2.551-.707 0-1.277-1.14-1.277-2.55 0-2.817 1.406-5.102 3.14-5.102s3.141 2.285 3.141 5.101c0 1.41-.57 2.551-1.273 2.551-.707 0-1.278-1.14-1.278-2.55 0-2.817 1.407-5.102 3.141-5.102s3.14 2.285 3.14 5.101c0 1.41-.57 2.551-1.273 2.551s-1.277-1.14-1.277-2.55c0-2.817 1.406-5.102 3.14-5.102 1.739 0 3.145 2.285 3.145 5.101m58.816 85.039c0-2.816-1.406-5.101-3.14-5.101s-3.14 2.285-3.14 5.101c0 1.41.57 2.555 1.277 2.555.703 0 1.273-1.145 1.273-2.555 0-2.816-1.406-5.101-3.14-5.101s-3.141 2.285-3.141 5.101c0 1.41.57 2.555 1.277 2.555.703 0 1.274-1.145 1.274-2.555 0-2.816-1.407-5.101-3.141-5.101-1.735 0-3.14 2.285-3.14 5.101 0 1.41.57 2.555 1.273 2.555.707 0 1.277-1.145 1.277-2.555 0-2.816-1.406-5.101-3.14-5.101s-3.141 2.285-3.141 5.101c0 1.41.57 2.555 1.273 2.555.707 0 1.278-1.145 1.278-2.555 0-2.816-1.407-5.101-3.141-5.101-1.738 0-3.145 2.285-3.145 5.101"/><path fill="none" stroke="#cad40e" stroke-miterlimit="10" stroke-width=".399" d="M796.09 56.895h15.308m20.41 0h15.305l27.64-21.262m0 0 27.638-21.262h-11.766m-20.41 0h-11.762"/><use xlink:href="#f" x="786.413" y="60.479"/><path fill="none" stroke="#cad40e" stroke-linejoin="bevel" stroke-miterlimit="10" stroke-width=".797" d="M811 57.05c0-2.816 1.406-5.1 3.14-5.1s3.141 2.284 3.141 5.1c0 1.41-.57 2.552-1.277 2.552-.703 0-1.274-1.141-1.274-2.551 0-2.817 1.407-5.102 3.141-5.102s3.14 2.285 3.14 5.102c0 1.41-.57 2.55-1.273 2.55-.707 0-1.277-1.14-1.277-2.55 0-2.817 1.406-5.102 3.14-5.102s3.141 2.285 3.141 5.102c0 1.41-.57 2.55-1.273 2.55-.707 0-1.278-1.14-1.278-2.55 0-2.817 1.407-5.102 3.141-5.102s3.14 2.285 3.14 5.102c0 1.41-.57 2.55-1.273 2.55s-1.277-1.14-1.277-2.55c0-2.817 1.406-5.102 3.14-5.102 1.739 0 3.145 2.285 3.145 5.102m58.816-42.52c0-2.816-1.406-5.101-3.14-5.101s-3.14 2.285-3.14 5.101c0 1.41.57 2.551 1.277 2.551.703 0 1.273-1.14 1.273-2.55 0-2.817-1.406-5.102-3.14-5.102s-3.141 2.285-3.141 5.101c0 1.41.57 2.551 1.277 2.551.703 0 1.274-1.14 1.274-2.55 0-2.817-1.407-5.102-3.141-5.102-1.735 0-3.14 2.285-3.14 5.101 0 1.41.57 2.551 1.273 2.551.707 0 1.277-1.14 1.277-2.55 0-2.817-1.406-5.102-3.14-5.102s-3.141 2.285-3.141 5.101c0 1.41.57 2.551 1.273 2.551.707 0 1.278-1.14 1.278-2.55 0-2.817-1.407-5.102-3.141-5.102-1.738 0-3.145 2.285-3.145 5.101"/><path fill="none" stroke="#cad40e" stroke-miterlimit="10" stroke-width=".399" d="M796.09 99.414h15.308m20.41 0h15.305l27.64-21.262m0 0 27.638-21.257h-11.766m-20.41 0h-11.762"/><use xlink:href="#e" x="787.091" y="102.002"/><path fill="none" stroke="#cad40e" stroke-linejoin="bevel" stroke-miterlimit="10" stroke-width=".797" d="M811 99.57c0-2.816 1.406-5.101 3.14-5.101s3.141 2.285 3.141 5.101c0 1.41-.57 2.555-1.277 2.555-.703 0-1.274-1.145-1.274-2.555 0-2.816 1.407-5.101 3.141-5.101s3.14 2.285 3.14 5.101c0 1.41-.57 2.555-1.273 2.555-.707 0-1.277-1.145-1.277-2.555 0-2.816 1.406-5.101 3.14-5.101s3.141 2.285 3.141 5.101c0 1.41-.57 2.555-1.273 2.555-.707 0-1.278-1.145-1.278-2.555 0-2.816 1.407-5.101 3.141-5.101s3.14 2.285 3.14 5.101c0 1.41-.57 2.555-1.273 2.555s-1.277-1.145-1.277-2.555c0-2.816 1.406-5.101 3.14-5.101 1.739 0 3.145 2.285 3.145 5.101m58.816-42.52c0-2.816-1.406-5.1-3.14-5.1s-3.14 2.284-3.14 5.1c0 1.41.57 2.552 1.277 2.552.703 0 1.273-1.141 1.273-2.551 0-2.817-1.406-5.102-3.14-5.102s-3.141 2.285-3.141 5.102c0 1.41.57 2.55 1.277 2.55.703 0 1.274-1.14 1.274-2.55 0-2.817-1.407-5.102-3.141-5.102-1.735 0-3.14 2.285-3.14 5.102 0 1.41.57 2.55 1.273 2.55.707 0 1.277-1.14 1.277-2.55 0-2.817-1.406-5.102-3.14-5.102s-3.141 2.285-3.141 5.102c0 1.41.57 2.55 1.273 2.55.707 0 1.278-1.14 1.278-2.55 0-2.817-1.407-5.102-3.141-5.102-1.738 0-3.145 2.285-3.145 5.102"/><path fill="none" stroke="#cad40e" stroke-miterlimit="10" stroke-width=".399" d="M858.453 99.414V78.152m0 0v-42.52m0 0v-21.26"/><path fill="#cad40e" stroke="#cad40e" stroke-miterlimit="10" stroke-width=".399" d="M807.75 7.762a1.36 1.36 0 1 0-2.717.002 1.36 1.36 0 0 0 2.717-.002Zm58.82 0a1.36 1.36 0 1 0-2.72.002 1.36 1.36 0 0 0 2.72-.002Zm-58.82 42.523a1.359 1.359 0 1 0-2.719 0 1.36 1.36 0 0 0 2.719 0Zm58.82 0c0-.754-.61-1.363-1.36-1.363a1.361 1.361 0 0 0 0 2.723c.75 0 1.36-.61 1.36-1.36Zm-58.82 42.52c0-.754-.605-1.36-1.36-1.36a1.36 1.36 0 1 0 1.36 1.36Zm58.82 0a1.359 1.359 0 1 0-2.718 0 1.36 1.36 0 0 0 2.718 0Zm0 0"/><use xlink:href="#h" x="629.871" y="56.746" fill="red"/><use xlink:href="#n" x="636.995" y="56.746" fill="#cad40e"/><use xlink:href="#j" x="641.896" y="56.746"/><path fill="none" stroke="red" stroke-miterlimit="10" stroke-width=".399" d="M30.727 141.934h56.691m0 0h56.695v7.086m0 0v7.085h-3.543m0 0h-39.402m-20.41 0h-35.86l49.61 21.262m0 0 49.605 21.258h-3.543m0 0h-39.402m-20.41 0h-35.86l49.61 21.262m0 0 49.605 21.261h-3.543m0 0h-39.402m-20.41 0H37.813m0 0h-7.086V191.54m0 0v-49.605"/><use xlink:href="#b" x="147.632" y="159.641"/><path fill="none" stroke="red" stroke-linejoin="bevel" stroke-miterlimit="10" stroke-width=".797" d="M101.566 156.266c0-2.817-1.406-5.102-3.14-5.102s-3.14 2.285-3.14 5.102c0 1.41.57 2.55 1.273 2.55.707 0 1.277-1.14 1.277-2.55 0-2.817-1.406-5.102-3.14-5.102s-3.141 2.285-3.141 5.102c0 1.41.57 2.55 1.273 2.55s1.277-1.14 1.277-2.55c0-2.817-1.406-5.102-3.14-5.102-1.738 0-3.145 2.285-3.145 5.102 0 1.41.575 2.55 1.278 2.55s1.273-1.14 1.273-2.55c0-2.817-1.406-5.102-3.14-5.102s-3.141 2.285-3.141 5.102c0 1.41.57 2.55 1.277 2.55.703 0 1.274-1.14 1.274-2.55 0-2.817-1.407-5.102-3.141-5.102s-3.14 2.285-3.14 5.102"/><use xlink:href="#c" x="147.632" y="202.161"/><path fill="none" stroke="red" stroke-linejoin="bevel" stroke-miterlimit="10" stroke-width=".797" d="M101.566 198.785c0-2.816-1.406-5.101-3.14-5.101s-3.14 2.285-3.14 5.101c0 1.41.57 2.55 1.273 2.55.707 0 1.277-1.14 1.277-2.55 0-2.816-1.406-5.101-3.14-5.101s-3.141 2.285-3.141 5.101c0 1.41.57 2.55 1.273 2.55s1.277-1.14 1.277-2.55c0-2.816-1.406-5.101-3.14-5.101-1.738 0-3.145 2.285-3.145 5.101 0 1.41.575 2.55 1.278 2.55s1.273-1.14 1.273-2.55c0-2.816-1.406-5.101-3.14-5.101s-3.141 2.285-3.141 5.101c0 1.41.57 2.55 1.277 2.55.703 0 1.274-1.14 1.274-2.55 0-2.816-1.407-5.101-3.141-5.101s-3.14 2.285-3.14 5.101"/><use xlink:href="#d" x="147.632" y="244.671"/><path fill="none" stroke="red" stroke-linejoin="bevel" stroke-miterlimit="10" stroke-width=".797" d="M101.566 241.305c0-2.817-1.406-5.102-3.14-5.102s-3.14 2.285-3.14 5.102c0 1.41.57 2.55 1.273 2.55.707 0 1.277-1.14 1.277-2.55 0-2.817-1.406-5.102-3.14-5.102s-3.141 2.285-3.141 5.102c0 1.41.57 2.55 1.273 2.55s1.277-1.14 1.277-2.55c0-2.817-1.406-5.102-3.14-5.102-1.738 0-3.145 2.285-3.145 5.102 0 1.41.575 2.55 1.278 2.55s1.273-1.14 1.273-2.55c0-2.817-1.406-5.102-3.14-5.102s-3.141 2.285-3.141 5.102c0 1.41.57 2.55 1.277 2.55.703 0 1.274-1.14 1.274-2.55 0-2.817-1.407-5.102-3.141-5.102s-3.14 2.285-3.14 5.102"/><path fill="red" stroke="red" stroke-miterlimit="10" stroke-width=".399" d="M107.535 149.496a1.361 1.361 0 1 0-2.722.004 1.361 1.361 0 0 0 2.722-.004Zm0 42.524a1.362 1.362 0 1 0-2.724-.003 1.362 1.362 0 0 0 2.724.003Zm0 42.52a1.362 1.362 0 1 0-2.724-.003 1.362 1.362 0 0 0 2.724.002Zm0 0"/><path fill="none" stroke="red" stroke-miterlimit="10" stroke-width=".399" d="M172.46 156.105v-7.085m0 0v-7.086h53.15m0 0h53.152v7.086m0 0v7.085h-35.86m-20.41 0h-35.86l46.063 14.176m0 0 46.067 14.172h-53.153m0 0h-53.148v7.086m0 0v7.086"/><use xlink:href="#g" x="163.509" y="158.695"/><path fill="none" stroke="red" stroke-linejoin="bevel" stroke-miterlimit="10" stroke-width=".797" d="M243.3 156.266c0-2.817-1.405-5.102-3.14-5.102-1.734 0-3.14 2.285-3.14 5.102 0 1.41.57 2.55 1.273 2.55.707 0 1.277-1.14 1.277-2.55 0-2.817-1.406-5.102-3.14-5.102s-3.145 2.285-3.145 5.102c0 1.41.574 2.55 1.278 2.55.703 0 1.277-1.14 1.277-2.55 0-2.817-1.406-5.102-3.145-5.102-1.734 0-3.14 2.285-3.14 5.102 0 1.41.574 2.55 1.277 2.55s1.273-1.14 1.273-2.55c0-2.817-1.406-5.102-3.14-5.102s-3.14 2.285-3.14 5.102c0 1.41.57 2.55 1.277 2.55.703 0 1.273-1.14 1.273-2.55 0-2.817-1.406-5.102-3.14-5.102s-3.141 2.285-3.141 5.102"/><use xlink:href="#f" x="162.792" y="202.211"/><path fill="none" stroke="red" stroke-miterlimit="10" stroke-width=".399" d="M278.762 184.453v7.086m0 0v7.086h-35.86m-20.41 0h-35.86l46.063 14.176m0 0 46.067 14.172h-53.153m0 0h-53.148v7.086m0 0v7.09"/><path fill="none" stroke="red" stroke-linejoin="bevel" stroke-miterlimit="10" stroke-width=".797" d="M243.3 198.785c0-2.816-1.405-5.101-3.14-5.101-1.734 0-3.14 2.285-3.14 5.101 0 1.41.57 2.55 1.273 2.55.707 0 1.277-1.14 1.277-2.55 0-2.816-1.406-5.101-3.14-5.101s-3.145 2.285-3.145 5.101c0 1.41.574 2.55 1.278 2.55.703 0 1.277-1.14 1.277-2.55 0-2.816-1.406-5.101-3.145-5.101-1.734 0-3.14 2.285-3.14 5.101 0 1.41.574 2.55 1.277 2.55s1.273-1.14 1.273-2.55c0-2.816-1.406-5.101-3.14-5.101s-3.14 2.285-3.14 5.101c0 1.41.57 2.55 1.277 2.55.703 0 1.273-1.14 1.273-2.55 0-2.816-1.406-5.101-3.14-5.101s-3.141 2.285-3.141 5.101"/><use xlink:href="#e" x="163.469" y="243.734"/><path fill="none" stroke="red" stroke-miterlimit="10" stroke-width=".399" d="M278.762 226.973v7.086m0 0v7.09h-35.86m-20.41 0h-35.86v7.085m0 0v7.086h49.61m0 0h49.606v-49.605m0 0v-49.61h-3.543m0 0h-3.543"/><path fill="none" stroke="red" stroke-linejoin="bevel" stroke-miterlimit="10" stroke-width=".797" d="M243.3 241.305c0-2.817-1.405-5.102-3.14-5.102-1.734 0-3.14 2.285-3.14 5.102 0 1.41.57 2.55 1.273 2.55.707 0 1.277-1.14 1.277-2.55 0-2.817-1.406-5.102-3.14-5.102s-3.145 2.285-3.145 5.102c0 1.41.574 2.55 1.278 2.55.703 0 1.277-1.14 1.277-2.55 0-2.817-1.406-5.102-3.145-5.102-1.734 0-3.14 2.285-3.14 5.102 0 1.41.574 2.55 1.277 2.55s1.273-1.14 1.273-2.55c0-2.817-1.406-5.102-3.14-5.102s-3.14 2.285-3.14 5.102c0 1.41.57 2.55 1.277 2.55.703 0 1.273-1.14 1.273-2.55 0-2.817-1.406-5.102-3.14-5.102s-3.141 2.285-3.141 5.102"/><path fill="red" stroke="red" stroke-miterlimit="10" stroke-width=".399" d="M218.848 149.496a1.36 1.36 0 1 0-2.721.002 1.36 1.36 0 0 0 2.72-.002Zm0 42.524a1.361 1.361 0 1 0-2.723-.005 1.361 1.361 0 0 0 2.723.005Zm0 42.52a1.361 1.361 0 1 0-2.723-.005 1.361 1.361 0 0 0 2.723.004Zm0 0"/><g fill="red"><use xlink:href="#h" x="5.044" y="202.211"/><use xlink:href="#i" x="12.167" y="202.211"/></g><use xlink:href="#o" x="18.364" y="202.211"/><path fill="none" stroke="#234e83" stroke-miterlimit="10" stroke-width=".399" d="M342.54 156.105h7.089m0 0h42.945m20.41 0h35.856m-106.3 42.52h7.089m0 0h42.945m20.41 0h35.856m-106.3 42.523h7.089m0 0h42.945m20.41 0h35.856m-106.3-85.043v42.52m0 0v42.523"/><path fill="none" stroke="#234e83" stroke-linejoin="bevel" stroke-miterlimit="10" stroke-width=".797" d="M392.176 156.266c0-2.817 1.406-5.102 3.14-5.102s3.141 2.285 3.141 5.102c0 1.41-.57 2.55-1.277 2.55-.703 0-1.274-1.14-1.274-2.55 0-2.817 1.406-5.102 3.14-5.102s3.142 2.285 3.142 5.102c0 1.41-.57 2.55-1.274 2.55-.707 0-1.277-1.14-1.277-2.55 0-2.817 1.406-5.102 3.14-5.102s3.141 2.285 3.141 5.102c0 1.41-.57 2.55-1.273 2.55-.707 0-1.278-1.14-1.278-2.55 0-2.817 1.406-5.102 3.14-5.102s3.141 2.285 3.141 5.102c0 1.41-.57 2.55-1.273 2.55s-1.277-1.14-1.277-2.55c0-2.817 1.406-5.102 3.14-5.102 1.739 0 3.145 2.285 3.145 5.102"/><use xlink:href="#b" x="452.356" y="159.641"/><path fill="none" stroke="#234e83" stroke-linejoin="bevel" stroke-miterlimit="10" stroke-width=".797" d="M392.176 198.785c0-2.816 1.406-5.101 3.14-5.101s3.141 2.285 3.141 5.101c0 1.41-.57 2.55-1.277 2.55-.703 0-1.274-1.14-1.274-2.55 0-2.816 1.406-5.101 3.14-5.101s3.142 2.285 3.142 5.101c0 1.41-.57 2.55-1.274 2.55-.707 0-1.277-1.14-1.277-2.55 0-2.816 1.406-5.101 3.14-5.101s3.141 2.285 3.141 5.101c0 1.41-.57 2.55-1.273 2.55-.707 0-1.278-1.14-1.278-2.55 0-2.816 1.406-5.101 3.14-5.101s3.141 2.285 3.141 5.101c0 1.41-.57 2.55-1.273 2.55s-1.277-1.14-1.277-2.55c0-2.816 1.406-5.101 3.14-5.101 1.739 0 3.145 2.285 3.145 5.101"/><use xlink:href="#c" x="452.356" y="202.161"/><path fill="none" stroke="#234e83" stroke-linejoin="bevel" stroke-miterlimit="10" stroke-width=".797" d="M392.176 241.305c0-2.817 1.406-5.102 3.14-5.102s3.141 2.285 3.141 5.102c0 1.41-.57 2.55-1.277 2.55-.703 0-1.274-1.14-1.274-2.55 0-2.817 1.406-5.102 3.14-5.102s3.142 2.285 3.142 5.102c0 1.41-.57 2.55-1.274 2.55-.707 0-1.277-1.14-1.277-2.55 0-2.817 1.406-5.102 3.14-5.102s3.141 2.285 3.141 5.102c0 1.41-.57 2.55-1.273 2.55-.707 0-1.278-1.14-1.278-2.55 0-2.817 1.406-5.102 3.14-5.102s3.141 2.285 3.141 5.102c0 1.41-.57 2.55-1.273 2.55s-1.277-1.14-1.277-2.55c0-2.817 1.406-5.102 3.14-5.102 1.739 0 3.145 2.285 3.145 5.102"/><use xlink:href="#d" x="452.356" y="244.671"/><path fill="#234e83" stroke="#234e83" stroke-miterlimit="10" stroke-width=".399" d="M419.348 149.496a1.36 1.36 0 1 0-2.721.002 1.36 1.36 0 0 0 2.72-.002Zm0 42.524c0-.754-.61-1.364-1.36-1.364a1.361 1.361 0 0 0 0 2.723c.75 0 1.36-.61 1.36-1.36Zm0 42.52c0-.755-.61-1.364-1.36-1.364a1.361 1.361 0 0 0 0 2.722c.75 0 1.36-.609 1.36-1.359Zm0 0"/><path fill="none" stroke="#234e83" stroke-miterlimit="10" stroke-width=".399" d="M484.273 156.105v7.086m0 0v7.09h56.696m0 0h56.695v-7.09m0 0v-7.086h-3.547m0 0H554.72m-20.41 0h-35.86"/><use xlink:href="#g" x="475.32" y="158.695"/><path fill="none" stroke="#234e83" stroke-linejoin="bevel" stroke-miterlimit="10" stroke-width=".797" d="M555.117 156.266c0-2.817-1.406-5.102-3.144-5.102-1.735 0-3.141 2.285-3.141 5.102 0 1.41.57 2.55 1.277 2.55.703 0 1.274-1.14 1.274-2.55 0-2.817-1.406-5.102-3.14-5.102s-3.141 2.285-3.141 5.102c0 1.41.57 2.55 1.277 2.55.703 0 1.273-1.14 1.273-2.55 0-2.817-1.406-5.102-3.14-5.102s-3.14 2.285-3.14 5.102c0 1.41.57 2.55 1.273 2.55.707 0 1.277-1.14 1.277-2.55 0-2.817-1.406-5.102-3.14-5.102s-3.141 2.285-3.141 5.102c0 1.41.57 2.55 1.273 2.55.707 0 1.277-1.14 1.277-2.55 0-2.817-1.406-5.102-3.14-5.102s-3.14 2.285-3.14 5.102"/><path fill="none" stroke="#234e83" stroke-miterlimit="10" stroke-width=".399" d="M484.273 198.625v7.09m0 0v7.086h56.696m0 0h56.695v-7.086m0 0v-7.09h-3.547m0 0H554.72m-20.41 0h-35.86"/><use xlink:href="#f" x="474.603" y="202.211"/><path fill="none" stroke="#234e83" stroke-linejoin="bevel" stroke-miterlimit="10" stroke-width=".797" d="M555.117 198.785c0-2.816-1.406-5.101-3.144-5.101-1.735 0-3.141 2.285-3.141 5.101 0 1.41.57 2.55 1.277 2.55.703 0 1.274-1.14 1.274-2.55 0-2.816-1.406-5.101-3.14-5.101s-3.141 2.285-3.141 5.101c0 1.41.57 2.55 1.277 2.55.703 0 1.273-1.14 1.273-2.55 0-2.816-1.406-5.101-3.14-5.101s-3.14 2.285-3.14 5.101c0 1.41.57 2.55 1.273 2.55.707 0 1.277-1.14 1.277-2.55 0-2.816-1.406-5.101-3.14-5.101s-3.141 2.285-3.141 5.101c0 1.41.57 2.55 1.273 2.55.707 0 1.277-1.14 1.277-2.55 0-2.816-1.406-5.101-3.14-5.101s-3.14 2.285-3.14 5.101"/><path fill="none" stroke="#234e83" stroke-miterlimit="10" stroke-width=".399" d="M484.273 241.148v7.086m0 0v7.086h56.696m0 0h56.695v-7.086m0 0v-7.086h-3.547m0 0H554.72m-20.41 0h-35.86"/><use xlink:href="#e" x="475.28" y="243.734"/><path fill="none" stroke="#234e83" stroke-linejoin="bevel" stroke-miterlimit="10" stroke-width=".797" d="M555.117 241.305c0-2.817-1.406-5.102-3.144-5.102-1.735 0-3.141 2.285-3.141 5.102 0 1.41.57 2.55 1.277 2.55.703 0 1.274-1.14 1.274-2.55 0-2.817-1.406-5.102-3.14-5.102s-3.141 2.285-3.141 5.102c0 1.41.57 2.55 1.277 2.55.703 0 1.273-1.14 1.273-2.55 0-2.817-1.406-5.102-3.14-5.102s-3.14 2.285-3.14 5.102c0 1.41.57 2.55 1.273 2.55.707 0 1.277-1.14 1.277-2.55 0-2.817-1.406-5.102-3.14-5.102s-3.141 2.285-3.141 5.102c0 1.41.57 2.55 1.273 2.55.707 0 1.277-1.14 1.277-2.55 0-2.817-1.406-5.102-3.14-5.102s-3.14 2.285-3.14 5.102"/><path fill="none" stroke="#234e83" stroke-miterlimit="10" stroke-width=".399" d="M498.45 156.105v10.774m0 6.8v17.86m0 0v17.86m0 6.804v17.856m0 0v7.09"/><path fill="none" stroke="#234e83" stroke-linejoin="bevel" stroke-miterlimit="10" stroke-width=".399" d="M498.45 166.879v2.039a1.361 1.361 0 0 1 0 2.723v2.039m0 35.718v2.043a1.36 1.36 0 0 1 0 2.719v2.043"/><path fill="#234e83" stroke="#234e83" stroke-miterlimit="10" stroke-width=".399" d="M530.66 149.496a1.36 1.36 0 1 0-2.72.002 1.36 1.36 0 0 0 2.72-.002Zm0 42.524c0-.754-.61-1.364-1.36-1.364a1.361 1.361 0 0 0 0 2.723c.75 0 1.36-.61 1.36-1.36Zm0 42.52c0-.755-.61-1.364-1.36-1.364a1.361 1.361 0 0 0 0 2.722c.75 0 1.36-.609 1.36-1.359Zm0 0"/><use xlink:href="#k" x="318.638" y="204.172" fill="#234e83"/><use xlink:href="#l" x="324.775" y="204.172" fill="#234e83"/><use xlink:href="#o" x="330.175" y="204.172"/><path fill="none" stroke="red" stroke-miterlimit="10" stroke-width=".399" d="M654.355 141.934h56.696m0 0h56.691v7.086m0 0v7.085H764.2m0 0h-39.402m-20.41 0h-35.86l49.61 21.262m0 0 49.605 21.258H764.2m0 0h-39.402m-20.41 0h-35.86l49.61 21.262m0 0 49.605 21.261H764.2m0 0h-39.402m-20.41 0H661.44m0 0h-7.086V191.54m0 0v-49.605"/><use xlink:href="#b" x="771.253" y="159.641"/><path fill="none" stroke="red" stroke-linejoin="bevel" stroke-miterlimit="10" stroke-width=".797" d="M725.195 156.266c0-2.817-1.406-5.102-3.14-5.102s-3.14 2.285-3.14 5.102c0 1.41.57 2.55 1.276 2.55.704 0 1.274-1.14 1.274-2.55 0-2.817-1.406-5.102-3.14-5.102s-3.141 2.285-3.141 5.102c0 1.41.57 2.55 1.273 2.55.707 0 1.277-1.14 1.277-2.55 0-2.817-1.406-5.102-3.14-5.102s-3.14 2.285-3.14 5.102c0 1.41.57 2.55 1.273 2.55.707 0 1.277-1.14 1.277-2.55 0-2.817-1.406-5.102-3.14-5.102-1.739 0-3.145 2.285-3.145 5.102 0 1.41.574 2.55 1.277 2.55s1.277-1.14 1.277-2.55c0-2.817-1.406-5.102-3.144-5.102-1.734 0-3.14 2.285-3.14 5.102"/><use xlink:href="#c" x="771.253" y="202.161"/><path fill="none" stroke="red" stroke-linejoin="bevel" stroke-miterlimit="10" stroke-width=".797" d="M725.195 198.785c0-2.816-1.406-5.101-3.14-5.101s-3.14 2.285-3.14 5.101c0 1.41.57 2.55 1.276 2.55.704 0 1.274-1.14 1.274-2.55 0-2.816-1.406-5.101-3.14-5.101s-3.141 2.285-3.141 5.101c0 1.41.57 2.55 1.273 2.55.707 0 1.277-1.14 1.277-2.55 0-2.816-1.406-5.101-3.14-5.101s-3.14 2.285-3.14 5.101c0 1.41.57 2.55 1.273 2.55.707 0 1.277-1.14 1.277-2.55 0-2.816-1.406-5.101-3.14-5.101-1.739 0-3.145 2.285-3.145 5.101 0 1.41.574 2.55 1.277 2.55s1.277-1.14 1.277-2.55c0-2.816-1.406-5.101-3.144-5.101-1.734 0-3.14 2.285-3.14 5.101"/><use xlink:href="#d" x="771.253" y="244.671"/><path fill="none" stroke="red" stroke-linejoin="bevel" stroke-miterlimit="10" stroke-width=".797" d="M725.195 241.305c0-2.817-1.406-5.102-3.14-5.102s-3.14 2.285-3.14 5.102c0 1.41.57 2.55 1.276 2.55.704 0 1.274-1.14 1.274-2.55 0-2.817-1.406-5.102-3.14-5.102s-3.141 2.285-3.141 5.102c0 1.41.57 2.55 1.273 2.55.707 0 1.277-1.14 1.277-2.55 0-2.817-1.406-5.102-3.14-5.102s-3.14 2.285-3.14 5.102c0 1.41.57 2.55 1.273 2.55.707 0 1.277-1.14 1.277-2.55 0-2.817-1.406-5.102-3.14-5.102-1.739 0-3.145 2.285-3.145 5.102 0 1.41.574 2.55 1.277 2.55s1.277-1.14 1.277-2.55c0-2.817-1.406-5.102-3.144-5.102-1.734 0-3.14 2.285-3.14 5.102"/><path fill="red" stroke="red" stroke-miterlimit="10" stroke-width=".399" d="M731.164 149.496a1.36 1.36 0 1 0-2.72.002 1.36 1.36 0 0 0 2.72-.002Zm0 42.524a1.361 1.361 0 1 0-2.722-.005 1.361 1.361 0 0 0 2.722.005Zm0 42.52a1.361 1.361 0 1 0-2.722-.005 1.361 1.361 0 0 0 2.722.004Zm0 0"/><g clip-path="url(#p)"><path fill="none" stroke="#cad40e" stroke-miterlimit="10" stroke-width=".399" d="M796.09 156.105v7.086m0 0v7.09h53.148m0 0h53.153v-7.09m0 0v-7.086h-11.766m-20.41 0h-11.762v-7.085m0 0v-7.086h21.969m0 0h25.512m0 0h3.543v53.148m0 0v53.152h-53.149m0 0h-53.152v-3.543m0 0v-3.543h11.765m20.41 0h11.762"/></g><use xlink:href="#g" x="787.131" y="158.695"/><path fill="none" stroke="#cad40e" stroke-linejoin="bevel" stroke-miterlimit="10" stroke-width=".797" d="M891.023 156.266c0-2.817-1.406-5.102-3.14-5.102s-3.14 2.285-3.14 5.102c0 1.41.57 2.55 1.277 2.55.703 0 1.273-1.14 1.273-2.55 0-2.817-1.406-5.102-3.14-5.102s-3.141 2.285-3.141 5.102c0 1.41.57 2.55 1.277 2.55.703 0 1.274-1.14 1.274-2.55 0-2.817-1.407-5.102-3.141-5.102-1.735 0-3.14 2.285-3.14 5.102 0 1.41.57 2.55 1.273 2.55.707 0 1.277-1.14 1.277-2.55 0-2.817-1.406-5.102-3.14-5.102s-3.141 2.285-3.141 5.102c0 1.41.57 2.55 1.273 2.55.707 0 1.278-1.14 1.278-2.55 0-2.817-1.407-5.102-3.141-5.102-1.738 0-3.145 2.285-3.145 5.102m-55.273 85.039c0-2.817 1.406-5.102 3.14-5.102s3.141 2.285 3.141 5.102c0 1.41-.57 2.55-1.277 2.55-.703 0-1.274-1.14-1.274-2.55 0-2.817 1.407-5.102 3.141-5.102s3.14 2.285 3.14 5.102c0 1.41-.57 2.55-1.273 2.55-.707 0-1.277-1.14-1.277-2.55 0-2.817 1.406-5.102 3.14-5.102s3.141 2.285 3.141 5.102c0 1.41-.57 2.55-1.273 2.55-.707 0-1.278-1.14-1.278-2.55 0-2.817 1.407-5.102 3.141-5.102s3.145 2.285 3.145 5.102c0 1.41-.575 2.55-1.278 2.55s-1.277-1.14-1.277-2.55c0-2.817 1.406-5.102 3.144-5.102 1.735 0 3.141 2.285 3.141 5.102"/><path fill="none" stroke="#cad40e" stroke-miterlimit="10" stroke-width=".399" d="M796.09 198.625v7.09m0 0v7.086h53.148m0 0h53.153v-7.086m0 0v-7.09h-11.766m-20.41 0h-11.762l-27.637-21.258m0 0-27.64-21.262h11.765m20.41 0h11.762"/><use xlink:href="#f" x="786.413" y="202.211"/><path fill="none" stroke="#cad40e" stroke-linejoin="bevel" stroke-miterlimit="10" stroke-width=".797" d="M891.023 198.785c0-2.816-1.406-5.101-3.14-5.101s-3.14 2.285-3.14 5.101c0 1.41.57 2.55 1.277 2.55.703 0 1.273-1.14 1.273-2.55 0-2.816-1.406-5.101-3.14-5.101s-3.141 2.285-3.141 5.101c0 1.41.57 2.55 1.277 2.55.703 0 1.274-1.14 1.274-2.55 0-2.816-1.407-5.101-3.141-5.101-1.735 0-3.14 2.285-3.14 5.101 0 1.41.57 2.55 1.273 2.55.707 0 1.277-1.14 1.277-2.55 0-2.816-1.406-5.101-3.14-5.101s-3.141 2.285-3.141 5.101c0 1.41.57 2.55 1.273 2.55.707 0 1.278-1.14 1.278-2.55 0-2.816-1.407-5.101-3.141-5.101-1.738 0-3.145 2.285-3.145 5.101m-55.273-42.519c0-2.817 1.406-5.102 3.14-5.102s3.141 2.285 3.141 5.102c0 1.41-.57 2.55-1.277 2.55-.703 0-1.274-1.14-1.274-2.55 0-2.817 1.407-5.102 3.141-5.102s3.14 2.285 3.14 5.102c0 1.41-.57 2.55-1.273 2.55-.707 0-1.277-1.14-1.277-2.55 0-2.817 1.406-5.102 3.14-5.102s3.141 2.285 3.141 5.102c0 1.41-.57 2.55-1.273 2.55-.707 0-1.278-1.14-1.278-2.55 0-2.817 1.407-5.102 3.141-5.102s3.145 2.285 3.145 5.102c0 1.41-.575 2.55-1.278 2.55s-1.277-1.14-1.277-2.55c0-2.817 1.406-5.102 3.144-5.102 1.735 0 3.141 2.285 3.141 5.102"/><path fill="none" stroke="#cad40e" stroke-miterlimit="10" stroke-width=".399" d="M796.09 241.148v7.086m0 0v7.086h53.148m0 0h53.153v-3.683m0-6.805v-3.684h-11.766m-20.41 0h-11.762l-27.637-21.261m0 0-27.64-21.262h11.765m20.41 0h11.762"/><use xlink:href="#e" x="787.091" y="243.734"/><path fill="none" stroke="#cad40e" stroke-linejoin="bevel" stroke-miterlimit="10" stroke-width=".399" d="M902.39 251.637v-2.043a1.36 1.36 0 0 1 0-2.723v-2.039"/><path fill="none" stroke="#cad40e" stroke-linejoin="bevel" stroke-miterlimit="10" stroke-width=".797" d="M891.023 241.305c0-2.817-1.406-5.102-3.14-5.102s-3.14 2.285-3.14 5.102c0 1.41.57 2.55 1.277 2.55.703 0 1.273-1.14 1.273-2.55 0-2.817-1.406-5.102-3.14-5.102s-3.141 2.285-3.141 5.102c0 1.41.57 2.55 1.277 2.55.703 0 1.274-1.14 1.274-2.55 0-2.817-1.407-5.102-3.141-5.102-1.735 0-3.14 2.285-3.14 5.102 0 1.41.57 2.55 1.273 2.55.707 0 1.277-1.14 1.277-2.55 0-2.817-1.406-5.102-3.14-5.102s-3.141 2.285-3.141 5.102c0 1.41.57 2.55 1.273 2.55.707 0 1.278-1.14 1.278-2.55 0-2.817-1.407-5.102-3.141-5.102-1.738 0-3.145 2.285-3.145 5.102m-55.273-42.52c0-2.816 1.406-5.101 3.14-5.101s3.141 2.285 3.141 5.101c0 1.41-.57 2.55-1.277 2.55-.703 0-1.274-1.14-1.274-2.55 0-2.816 1.407-5.101 3.141-5.101s3.14 2.285 3.14 5.101c0 1.41-.57 2.55-1.273 2.55-.707 0-1.277-1.14-1.277-2.55 0-2.816 1.406-5.101 3.14-5.101s3.141 2.285 3.141 5.101c0 1.41-.57 2.55-1.273 2.55-.707 0-1.278-1.14-1.278-2.55 0-2.816 1.407-5.101 3.141-5.101s3.145 2.285 3.145 5.101c0 1.41-.575 2.55-1.278 2.55s-1.277-1.14-1.277-2.55c0-2.816 1.406-5.101 3.144-5.101 1.735 0 3.141 2.285 3.141 5.101"/><path fill="none" stroke="#cad40e" stroke-miterlimit="10" stroke-width=".399" d="M847.113 156.105v10.774m0 6.8v17.86m0 0v17.86m0 6.804v17.856m0 0v7.09"/><path fill="none" stroke="#cad40e" stroke-linejoin="bevel" stroke-miterlimit="10" stroke-width=".399" d="M847.113 166.879v2.039a1.362 1.362 0 1 1 0 2.723v2.039m0 35.718v2.043a1.359 1.359 0 1 1 0 2.72v2.042"/><path fill="#cad40e" stroke="#cad40e" stroke-miterlimit="10" stroke-width=".399" d="M811.297 149.496a1.361 1.361 0 1 0-2.723.004 1.361 1.361 0 0 0 2.723-.004Zm55.273 0a1.36 1.36 0 1 0-2.72.002 1.36 1.36 0 0 0 2.72-.002Zm-55.273 42.524a1.362 1.362 0 1 0-2.724-.003 1.362 1.362 0 0 0 2.724.003Zm55.273 0c0-.754-.61-1.364-1.36-1.364a1.361 1.361 0 0 0 0 2.723c.75 0 1.36-.61 1.36-1.36Zm-55.273 42.52a1.362 1.362 0 1 0-2.724-.003 1.362 1.362 0 0 0 2.724.002Zm55.273 0c0-.755-.61-1.364-1.36-1.364a1.361 1.361 0 0 0 0 2.722c.75 0 1.36-.609 1.36-1.359Zm0 0"/><use xlink:href="#h" x="629.961" y="202.136" fill="red"/><use xlink:href="#n" x="637.084" y="202.136" fill="#cad40e"/><use xlink:href="#o" x="641.986" y="202.136"/><path fill="none" stroke="red" stroke-miterlimit="10" stroke-width=".399" d="M30.727 283.668h56.691m0 0h56.695v7.086m0 0v7.086h-3.543m0 0h-39.402m-20.41 0h-35.86l49.61 21.262m0 0 49.605 21.257h-3.543m0 0h-39.402m-20.41 0h-35.86l49.61 21.262m0 0 49.605 21.262h-3.543m0 0h-39.402m-20.41 0H37.813m0 0h-7.086v-49.61m0 0v-49.605"/><use xlink:href="#b" x="147.632" y="301.374"/><path fill="none" stroke="red" stroke-linejoin="bevel" stroke-miterlimit="10" stroke-width=".797" d="M101.566 298c0-2.816-1.406-5.102-3.14-5.102s-3.14 2.286-3.14 5.102c0 1.41.57 2.55 1.273 2.55.707 0 1.277-1.14 1.277-2.55 0-2.816-1.406-5.102-3.14-5.102s-3.141 2.286-3.141 5.102c0 1.41.57 2.55 1.273 2.55s1.277-1.14 1.277-2.55c0-2.816-1.406-5.102-3.14-5.102-1.738 0-3.145 2.286-3.145 5.102 0 1.41.575 2.55 1.278 2.55s1.273-1.14 1.273-2.55c0-2.816-1.406-5.102-3.14-5.102S84.09 295.184 84.09 298c0 1.41.57 2.55 1.277 2.55.703 0 1.274-1.14 1.274-2.55 0-2.816-1.407-5.102-3.141-5.102s-3.14 2.286-3.14 5.102"/><use xlink:href="#c" x="147.632" y="343.893"/><path fill="none" stroke="red" stroke-linejoin="bevel" stroke-miterlimit="10" stroke-width=".797" d="M101.566 340.52c0-2.817-1.406-5.102-3.14-5.102s-3.14 2.285-3.14 5.102c0 1.41.57 2.55 1.273 2.55.707 0 1.277-1.14 1.277-2.55 0-2.817-1.406-5.102-3.14-5.102s-3.141 2.285-3.141 5.102c0 1.41.57 2.55 1.273 2.55s1.277-1.14 1.277-2.55c0-2.817-1.406-5.102-3.14-5.102-1.738 0-3.145 2.285-3.145 5.102 0 1.41.575 2.55 1.278 2.55s1.273-1.14 1.273-2.55c0-2.817-1.406-5.102-3.14-5.102s-3.141 2.285-3.141 5.102c0 1.41.57 2.55 1.277 2.55.703 0 1.274-1.14 1.274-2.55 0-2.817-1.407-5.102-3.141-5.102s-3.14 2.285-3.14 5.102"/><use xlink:href="#d" x="147.632" y="386.403"/><path fill="none" stroke="red" stroke-linejoin="bevel" stroke-miterlimit="10" stroke-width=".797" d="M101.566 383.04c0-2.817-1.406-5.103-3.14-5.103s-3.14 2.286-3.14 5.102c0 1.41.57 2.55 1.273 2.55.707 0 1.277-1.14 1.277-2.55 0-2.816-1.406-5.101-3.14-5.101s-3.141 2.285-3.141 5.101c0 1.41.57 2.55 1.273 2.55s1.277-1.14 1.277-2.55c0-2.816-1.406-5.101-3.14-5.101-1.738 0-3.145 2.285-3.145 5.101 0 1.41.575 2.55 1.278 2.55s1.273-1.14 1.273-2.55c0-2.816-1.406-5.101-3.14-5.101s-3.141 2.285-3.141 5.101c0 1.41.57 2.55 1.277 2.55.703 0 1.274-1.14 1.274-2.55 0-2.816-1.407-5.101-3.141-5.101s-3.14 2.285-3.14 5.101"/><path fill="red" stroke="red" stroke-miterlimit="10" stroke-width=".399" d="M107.535 291.23a1.361 1.361 0 1 0-2.722.004 1.361 1.361 0 0 0 2.722-.004Zm0 42.52a1.361 1.361 0 1 0-2.722.004 1.361 1.361 0 0 0 2.722-.004Zm0 42.523a1.362 1.362 0 1 0-2.724-.002 1.362 1.362 0 0 0 2.724.002Zm0 0"/><path fill="none" stroke="#234e83" stroke-miterlimit="10" stroke-width=".399" d="M285.848 297.84h-3.543m0 0h-46.489m-20.41 0h-42.945m113.387 42.52h-3.543m0 0h-46.489m-20.41 0h-42.945m113.387 42.523h-3.543m0 0h-46.489m-20.41 0h-42.945m113.387-85.043v42.52m0 0v42.523"/><path fill="none" stroke="#234e83" stroke-linejoin="bevel" stroke-miterlimit="10" stroke-width=".797" d="M236.215 298c0-2.816-1.406-5.102-3.14-5.102-1.74 0-3.145 2.286-3.145 5.102 0 1.41.574 2.55 1.277 2.55s1.277-1.14 1.277-2.55c0-2.816-1.406-5.102-3.144-5.102-1.735 0-3.14 2.286-3.14 5.102 0 1.41.57 2.55 1.277 2.55.703 0 1.273-1.14 1.273-2.55 0-2.816-1.406-5.102-3.14-5.102s-3.141 2.286-3.141 5.102c0 1.41.57 2.55 1.277 2.55.703 0 1.274-1.14 1.274-2.55 0-2.816-1.407-5.102-3.141-5.102s-3.14 2.286-3.14 5.102c0 1.41.57 2.55 1.273 2.55.707 0 1.277-1.14 1.277-2.55 0-2.816-1.406-5.102-3.14-5.102s-3.141 2.286-3.141 5.102"/><use xlink:href="#g" x="163.509" y="300.427"/><path fill="none" stroke="#234e83" stroke-linejoin="bevel" stroke-miterlimit="10" stroke-width=".797" d="M236.215 340.52c0-2.817-1.406-5.102-3.14-5.102-1.74 0-3.145 2.285-3.145 5.102 0 1.41.574 2.55 1.277 2.55s1.277-1.14 1.277-2.55c0-2.817-1.406-5.102-3.144-5.102-1.735 0-3.14 2.285-3.14 5.102 0 1.41.57 2.55 1.277 2.55.703 0 1.273-1.14 1.273-2.55 0-2.817-1.406-5.102-3.14-5.102s-3.141 2.285-3.141 5.102c0 1.41.57 2.55 1.277 2.55.703 0 1.274-1.14 1.274-2.55 0-2.817-1.407-5.102-3.141-5.102s-3.14 2.285-3.14 5.102c0 1.41.57 2.55 1.273 2.55.707 0 1.277-1.14 1.277-2.55 0-2.817-1.406-5.102-3.14-5.102s-3.141 2.285-3.141 5.102"/><use xlink:href="#f" x="162.792" y="343.943"/><path fill="none" stroke="#234e83" stroke-linejoin="bevel" stroke-miterlimit="10" stroke-width=".797" d="M236.215 383.04c0-2.817-1.406-5.103-3.14-5.103-1.74 0-3.145 2.286-3.145 5.102 0 1.41.574 2.55 1.277 2.55s1.277-1.14 1.277-2.55c0-2.816-1.406-5.101-3.144-5.101-1.735 0-3.14 2.285-3.14 5.101 0 1.41.57 2.55 1.277 2.55.703 0 1.273-1.14 1.273-2.55 0-2.816-1.406-5.101-3.14-5.101s-3.141 2.285-3.141 5.101c0 1.41.57 2.55 1.277 2.55.703 0 1.274-1.14 1.274-2.55 0-2.816-1.407-5.101-3.141-5.101s-3.14 2.285-3.14 5.101c0 1.41.57 2.55 1.273 2.55.707 0 1.277-1.14 1.277-2.55 0-2.816-1.406-5.101-3.14-5.101s-3.141 2.285-3.141 5.101"/><use xlink:href="#e" x="163.469" y="385.467"/><path fill="#234e83" stroke="#234e83" stroke-miterlimit="10" stroke-width=".399" d="M211.762 291.23a1.361 1.361 0 1 0-2.723.004 1.361 1.361 0 0 0 2.723-.004Zm0 42.52a1.361 1.361 0 1 0-2.723.004 1.361 1.361 0 0 0 2.723-.004Zm0 42.523a1.362 1.362 0 1 0-2.724-.002 1.362 1.362 0 0 0 2.724.002Zm0 0"/><use xlink:href="#h" x="3.321" y="339.144" fill="red"/><use xlink:href="#l" x="10.444" y="339.144" fill="#234e83"/><use xlink:href="#q" x="15.844" y="339.144"/><use xlink:href="#q" x="20.108" y="339.144"/><path fill="none" stroke="#234e83" stroke-miterlimit="10" stroke-width=".399" d="M342.54 297.84h7.089m0 0h42.945m20.41 0h35.856m-106.3 42.52h7.089m0 0h42.945m20.41 0h35.856m-106.3 42.523h7.089m0 0h42.945m20.41 0h35.856m-106.3-85.043v42.52m0 0v42.523"/><path fill="none" stroke="#234e83" stroke-linejoin="bevel" stroke-miterlimit="10" stroke-width=".797" d="M392.176 298c0-2.816 1.406-5.102 3.14-5.102s3.141 2.286 3.141 5.102c0 1.41-.57 2.55-1.277 2.55-.703 0-1.274-1.14-1.274-2.55 0-2.816 1.406-5.102 3.14-5.102s3.142 2.286 3.142 5.102c0 1.41-.57 2.55-1.274 2.55-.707 0-1.277-1.14-1.277-2.55 0-2.816 1.406-5.102 3.14-5.102s3.141 2.286 3.141 5.102c0 1.41-.57 2.55-1.273 2.55-.707 0-1.278-1.14-1.278-2.55 0-2.816 1.406-5.102 3.14-5.102s3.141 2.286 3.141 5.102c0 1.41-.57 2.55-1.273 2.55s-1.277-1.14-1.277-2.55c0-2.816 1.406-5.102 3.14-5.102 1.739 0 3.145 2.286 3.145 5.102"/><use xlink:href="#b" x="452.356" y="301.374"/><path fill="none" stroke="#234e83" stroke-linejoin="bevel" stroke-miterlimit="10" stroke-width=".797" d="M392.176 340.52c0-2.817 1.406-5.102 3.14-5.102s3.141 2.285 3.141 5.102c0 1.41-.57 2.55-1.277 2.55-.703 0-1.274-1.14-1.274-2.55 0-2.817 1.406-5.102 3.14-5.102s3.142 2.285 3.142 5.102c0 1.41-.57 2.55-1.274 2.55-.707 0-1.277-1.14-1.277-2.55 0-2.817 1.406-5.102 3.14-5.102s3.141 2.285 3.141 5.102c0 1.41-.57 2.55-1.273 2.55-.707 0-1.278-1.14-1.278-2.55 0-2.817 1.406-5.102 3.14-5.102s3.141 2.285 3.141 5.102c0 1.41-.57 2.55-1.273 2.55s-1.277-1.14-1.277-2.55c0-2.817 1.406-5.102 3.14-5.102 1.739 0 3.145 2.285 3.145 5.102"/><use xlink:href="#c" x="452.356" y="343.893"/><path fill="none" stroke="#234e83" stroke-linejoin="bevel" stroke-miterlimit="10" stroke-width=".797" d="M392.176 383.04c0-2.817 1.406-5.103 3.14-5.103s3.141 2.286 3.141 5.102c0 1.41-.57 2.55-1.277 2.55-.703 0-1.274-1.14-1.274-2.55 0-2.816 1.406-5.101 3.14-5.101s3.142 2.285 3.142 5.101c0 1.41-.57 2.55-1.274 2.55-.707 0-1.277-1.14-1.277-2.55 0-2.816 1.406-5.101 3.14-5.101s3.141 2.285 3.141 5.101c0 1.41-.57 2.55-1.273 2.55-.707 0-1.278-1.14-1.278-2.55 0-2.816 1.406-5.101 3.14-5.101s3.141 2.285 3.141 5.101c0 1.41-.57 2.55-1.273 2.55s-1.277-1.14-1.277-2.55c0-2.816 1.406-5.101 3.14-5.101 1.739 0 3.145 2.285 3.145 5.101"/><use xlink:href="#d" x="452.356" y="386.403"/><path fill="#234e83" stroke="#234e83" stroke-miterlimit="10" stroke-width=".399" d="M419.348 291.23a1.36 1.36 0 1 0-2.721.002 1.36 1.36 0 0 0 2.72-.002Zm0 42.52a1.36 1.36 0 1 0-2.721.002 1.36 1.36 0 0 0 2.72-.002Zm0 42.523c0-.753-.61-1.363-1.36-1.363a1.361 1.361 0 0 0 0 2.723c.75 0 1.36-.61 1.36-1.36Zm0 0"/><path fill="none" stroke="red" stroke-miterlimit="10" stroke-width=".399" d="M484.273 297.84h42.946m20.41 0h46.488m0 0h3.547v49.61m0 0v49.605H540.97m0 0h-56.696v-7.086m0 0v-7.086h42.946m20.41 0h42.945l-53.148-21.262m0 0-53.153-21.262h42.946m20.41 0h42.945l-53.148-21.257m0 0-53.153-21.262"/><use xlink:href="#g" x="475.32" y="300.427"/><path fill="none" stroke="red" stroke-linejoin="bevel" stroke-miterlimit="10" stroke-width=".797" d="M526.82 298c0-2.816 1.407-5.102 3.145-5.102 1.734 0 3.14 2.286 3.14 5.102 0 1.41-.574 2.55-1.277 2.55s-1.273-1.14-1.273-2.55c0-2.816 1.406-5.102 3.14-5.102s3.14 2.286 3.14 5.102c0 1.41-.57 2.55-1.276 2.55-.704 0-1.274-1.14-1.274-2.55 0-2.816 1.406-5.102 3.14-5.102s3.141 2.286 3.141 5.102c0 1.41-.57 2.55-1.277 2.55-.703 0-1.273-1.14-1.273-2.55 0-2.816 1.406-5.102 3.14-5.102s3.14 2.286 3.14 5.102c0 1.41-.57 2.55-1.273 2.55-.707 0-1.277-1.14-1.277-2.55 0-2.816 1.406-5.102 3.14-5.102s3.141 2.286 3.141 5.102"/><use xlink:href="#e" x="475.28" y="385.467"/><path fill="none" stroke="red" stroke-linejoin="bevel" stroke-miterlimit="10" stroke-width=".797" d="M526.82 383.04c0-2.817 1.407-5.103 3.145-5.103 1.734 0 3.14 2.286 3.14 5.102 0 1.41-.574 2.55-1.277 2.55s-1.273-1.14-1.273-2.55c0-2.816 1.406-5.101 3.14-5.101s3.14 2.285 3.14 5.101c0 1.41-.57 2.55-1.276 2.55-.704 0-1.274-1.14-1.274-2.55 0-2.816 1.406-5.101 3.14-5.101s3.141 2.285 3.141 5.101c0 1.41-.57 2.55-1.277 2.55-.703 0-1.273-1.14-1.273-2.55 0-2.816 1.406-5.101 3.14-5.101s3.14 2.285 3.14 5.101c0 1.41-.57 2.55-1.273 2.55-.707 0-1.277-1.14-1.277-2.55 0-2.816 1.406-5.101 3.14-5.101s3.141 2.285 3.141 5.101"/><use xlink:href="#f" x="474.603" y="343.943"/><path fill="none" stroke="red" stroke-linejoin="bevel" stroke-miterlimit="10" stroke-width=".797" d="M526.82 340.52c0-2.817 1.407-5.102 3.145-5.102 1.734 0 3.14 2.285 3.14 5.102 0 1.41-.574 2.55-1.277 2.55s-1.273-1.14-1.273-2.55c0-2.817 1.406-5.102 3.14-5.102s3.14 2.285 3.14 5.102c0 1.41-.57 2.55-1.276 2.55-.704 0-1.274-1.14-1.274-2.55 0-2.817 1.406-5.102 3.14-5.102s3.141 2.285 3.141 5.102c0 1.41-.57 2.55-1.277 2.55-.703 0-1.273-1.14-1.273-2.55 0-2.817 1.406-5.102 3.14-5.102s3.14 2.285 3.14 5.102c0 1.41-.57 2.55-1.273 2.55-.707 0-1.277-1.14-1.277-2.55 0-2.817 1.406-5.102 3.14-5.102s3.141 2.285 3.141 5.102"/><path fill="red" stroke="red" stroke-miterlimit="10" stroke-width=".399" d="M523.574 291.23a1.36 1.36 0 1 0-2.72.002 1.36 1.36 0 0 0 2.72-.002Zm0 42.52a1.36 1.36 0 1 0-2.72.002 1.36 1.36 0 0 0 2.72-.002Zm0 42.523c0-.753-.61-1.363-1.36-1.363a1.361 1.361 0 0 0 0 2.723c.75 0 1.36-.61 1.36-1.36Zm0 0"/><use xlink:href="#k" x="314.972" y="347.045" fill="#234e83"/><use xlink:href="#i" x="321.458" y="347.045" fill="red"/><use xlink:href="#q" x="327.654" y="347.045"/><use xlink:href="#q" x="331.918" y="347.045"/><path fill="none" stroke="#234e83" stroke-miterlimit="10" stroke-width=".399" d="M654.355 297.84h7.086m0 0h42.946m20.41 0h35.86m-106.302 42.52h7.086m0 0h42.946m20.41 0h35.86m-106.302 42.523h7.086m0 0h42.946m20.41 0h35.86M654.354 297.84v42.52m0 0v42.523"/><path fill="none" stroke="#234e83" stroke-linejoin="bevel" stroke-miterlimit="10" stroke-width=".797" d="M703.988 298c0-2.816 1.407-5.102 3.14-5.102 1.74 0 3.145 2.286 3.145 5.102 0 1.41-.574 2.55-1.277 2.55s-1.277-1.14-1.277-2.55c0-2.816 1.406-5.102 3.144-5.102 1.735 0 3.14 2.286 3.14 5.102 0 1.41-.573 2.55-1.276 2.55s-1.274-1.14-1.274-2.55c0-2.816 1.406-5.102 3.14-5.102s3.141 2.286 3.141 5.102c0 1.41-.57 2.55-1.277 2.55-.703 0-1.273-1.14-1.273-2.55 0-2.816 1.406-5.102 3.14-5.102s3.14 2.286 3.14 5.102c0 1.41-.57 2.55-1.273 2.55-.707 0-1.277-1.14-1.277-2.55 0-2.816 1.406-5.102 3.14-5.102s3.141 2.286 3.141 5.102"/><use xlink:href="#b" x="764.167" y="301.374"/><path fill="none" stroke="#234e83" stroke-linejoin="bevel" stroke-miterlimit="10" stroke-width=".797" d="M703.988 340.52c0-2.817 1.407-5.102 3.14-5.102 1.74 0 3.145 2.285 3.145 5.102 0 1.41-.574 2.55-1.277 2.55s-1.277-1.14-1.277-2.55c0-2.817 1.406-5.102 3.144-5.102 1.735 0 3.14 2.285 3.14 5.102 0 1.41-.573 2.55-1.276 2.55s-1.274-1.14-1.274-2.55c0-2.817 1.406-5.102 3.14-5.102s3.141 2.285 3.141 5.102c0 1.41-.57 2.55-1.277 2.55-.703 0-1.273-1.14-1.273-2.55 0-2.817 1.406-5.102 3.14-5.102s3.14 2.285 3.14 5.102c0 1.41-.57 2.55-1.273 2.55-.707 0-1.277-1.14-1.277-2.55 0-2.817 1.406-5.102 3.14-5.102s3.141 2.285 3.141 5.102"/><use xlink:href="#c" x="764.167" y="343.893"/><path fill="none" stroke="#234e83" stroke-linejoin="bevel" stroke-miterlimit="10" stroke-width=".797" d="M703.988 383.04c0-2.817 1.407-5.103 3.14-5.103 1.74 0 3.145 2.286 3.145 5.102 0 1.41-.574 2.55-1.277 2.55s-1.277-1.14-1.277-2.55c0-2.816 1.406-5.101 3.144-5.101 1.735 0 3.14 2.285 3.14 5.101 0 1.41-.573 2.55-1.276 2.55s-1.274-1.14-1.274-2.55c0-2.816 1.406-5.101 3.14-5.101s3.141 2.285 3.141 5.101c0 1.41-.57 2.55-1.277 2.55-.703 0-1.273-1.14-1.273-2.55 0-2.816 1.406-5.101 3.14-5.101s3.14 2.285 3.14 5.101c0 1.41-.57 2.55-1.273 2.55-.707 0-1.277-1.14-1.277-2.55 0-2.816 1.406-5.101 3.14-5.101s3.141 2.285 3.141 5.101"/><use xlink:href="#d" x="764.167" y="386.403"/><path fill="#234e83" stroke="#234e83" stroke-miterlimit="10" stroke-width=".399" d="M731.164 291.23a1.36 1.36 0 1 0-2.72.002 1.36 1.36 0 0 0 2.72-.002Zm0 42.52a1.36 1.36 0 1 0-2.72.002 1.36 1.36 0 0 0 2.72-.002Zm0 42.523a1.361 1.361 0 1 0-2.722-.004 1.361 1.361 0 0 0 2.722.004Zm0 0"/><path fill="none" stroke="#cad40e" stroke-miterlimit="10" stroke-width=".399" d="M796.09 297.84h15.308m20.41 0h15.305l27.64 21.262m0 0 27.638 21.257h-11.766m-20.41 0h-11.762"/><use xlink:href="#g" x="787.131" y="300.427"/><path fill="none" stroke="#cad40e" stroke-linejoin="bevel" stroke-miterlimit="10" stroke-width=".797" d="M811 298c0-2.816 1.406-5.102 3.14-5.102s3.141 2.286 3.141 5.102c0 1.41-.57 2.55-1.277 2.55-.703 0-1.274-1.14-1.274-2.55 0-2.816 1.407-5.102 3.141-5.102s3.14 2.286 3.14 5.102c0 1.41-.57 2.55-1.273 2.55-.707 0-1.277-1.14-1.277-2.55 0-2.816 1.406-5.102 3.14-5.102s3.141 2.286 3.141 5.102c0 1.41-.57 2.55-1.273 2.55-.707 0-1.278-1.14-1.278-2.55 0-2.816 1.407-5.102 3.141-5.102s3.14 2.286 3.14 5.102c0 1.41-.57 2.55-1.273 2.55s-1.277-1.14-1.277-2.55c0-2.816 1.406-5.102 3.14-5.102 1.739 0 3.145 2.286 3.145 5.102m58.816 42.52c0-2.817-1.406-5.102-3.14-5.102s-3.14 2.285-3.14 5.102c0 1.41.57 2.55 1.277 2.55.703 0 1.273-1.14 1.273-2.55 0-2.817-1.406-5.102-3.14-5.102s-3.141 2.285-3.141 5.102c0 1.41.57 2.55 1.277 2.55.703 0 1.274-1.14 1.274-2.55 0-2.817-1.407-5.102-3.141-5.102-1.735 0-3.14 2.285-3.14 5.102 0 1.41.57 2.55 1.273 2.55.707 0 1.277-1.14 1.277-2.55 0-2.817-1.406-5.102-3.14-5.102s-3.141 2.285-3.141 5.102c0 1.41.57 2.55 1.273 2.55.707 0 1.278-1.14 1.278-2.55 0-2.817-1.407-5.102-3.141-5.102-1.738 0-3.145 2.285-3.145 5.102"/><path fill="none" stroke="#cad40e" stroke-miterlimit="10" stroke-width=".399" d="M796.09 340.36h15.308m20.41 0h15.305l27.64 21.261m0 0 27.638 21.262h-11.766m-20.41 0h-11.762"/><use xlink:href="#f" x="786.413" y="343.943"/><path fill="none" stroke="#cad40e" stroke-linejoin="bevel" stroke-miterlimit="10" stroke-width=".797" d="M811 340.52c0-2.817 1.406-5.102 3.14-5.102s3.141 2.285 3.141 5.102c0 1.41-.57 2.55-1.277 2.55-.703 0-1.274-1.14-1.274-2.55 0-2.817 1.407-5.102 3.141-5.102s3.14 2.285 3.14 5.102c0 1.41-.57 2.55-1.273 2.55-.707 0-1.277-1.14-1.277-2.55 0-2.817 1.406-5.102 3.14-5.102s3.141 2.285 3.141 5.102c0 1.41-.57 2.55-1.273 2.55-.707 0-1.278-1.14-1.278-2.55 0-2.817 1.407-5.102 3.141-5.102s3.14 2.285 3.14 5.102c0 1.41-.57 2.55-1.273 2.55s-1.277-1.14-1.277-2.55c0-2.817 1.406-5.102 3.14-5.102 1.739 0 3.145 2.285 3.145 5.102m58.816 42.52c0-2.817-1.406-5.103-3.14-5.103s-3.14 2.286-3.14 5.102c0 1.41.57 2.55 1.277 2.55.703 0 1.273-1.14 1.273-2.55 0-2.816-1.406-5.101-3.14-5.101s-3.141 2.285-3.141 5.101c0 1.41.57 2.55 1.277 2.55.703 0 1.274-1.14 1.274-2.55 0-2.816-1.407-5.101-3.141-5.101-1.735 0-3.14 2.285-3.14 5.101 0 1.41.57 2.55 1.273 2.55.707 0 1.277-1.14 1.277-2.55 0-2.816-1.406-5.101-3.14-5.101s-3.141 2.285-3.141 5.101c0 1.41.57 2.55 1.273 2.55.707 0 1.278-1.14 1.278-2.55 0-2.816-1.407-5.101-3.141-5.101-1.738 0-3.145 2.285-3.145 5.101"/><g clip-path="url(#r)"><path fill="none" stroke="#cad40e" stroke-miterlimit="10" stroke-width=".399" d="M796.09 382.883h15.308m20.41 0h15.305v7.086m0 0v7.086h31.184m0 0h31.18v-49.606m0 0v-49.61h-15.309m-20.406 0h-15.309"/></g><use xlink:href="#e" x="787.091" y="385.467"/><path fill="none" stroke="#cad40e" stroke-linejoin="bevel" stroke-miterlimit="10" stroke-width=".797" d="M811 383.04c0-2.817 1.406-5.103 3.14-5.103s3.141 2.286 3.141 5.102c0 1.41-.57 2.55-1.277 2.55-.703 0-1.274-1.14-1.274-2.55 0-2.816 1.407-5.101 3.141-5.101s3.14 2.285 3.14 5.101c0 1.41-.57 2.55-1.273 2.55-.707 0-1.277-1.14-1.277-2.55 0-2.816 1.406-5.101 3.14-5.101s3.141 2.285 3.141 5.101c0 1.41-.57 2.55-1.273 2.55-.707 0-1.278-1.14-1.278-2.55 0-2.816 1.407-5.101 3.141-5.101s3.14 2.285 3.14 5.101c0 1.41-.57 2.55-1.273 2.55s-1.277-1.14-1.277-2.55c0-2.816 1.406-5.101 3.14-5.101 1.739 0 3.145 2.285 3.145 5.101M894.566 298c0-2.816-1.406-5.102-3.14-5.102s-3.14 2.286-3.14 5.102c0 1.41.57 2.55 1.277 2.55.703 0 1.273-1.14 1.273-2.55 0-2.816-1.406-5.102-3.14-5.102s-3.141 2.286-3.141 5.102c0 1.41.57 2.55 1.277 2.55.703 0 1.273-1.14 1.273-2.55 0-2.816-1.406-5.102-3.14-5.102s-3.14 2.286-3.14 5.102c0 1.41.57 2.55 1.273 2.55.707 0 1.277-1.14 1.277-2.55 0-2.816-1.406-5.102-3.14-5.102s-3.141 2.286-3.141 5.102c0 1.41.57 2.55 1.273 2.55.707 0 1.278-1.14 1.278-2.55 0-2.816-1.407-5.102-3.141-5.102s-3.14 2.286-3.14 5.102"/><path fill="none" stroke="#cad40e" stroke-miterlimit="10" stroke-width=".399" d="M858.453 297.84v21.262m0 0v42.52m0 0v21.26"/><path fill="#cad40e" stroke="#cad40e" stroke-miterlimit="10" stroke-width=".399" d="M807.75 291.23a1.36 1.36 0 1 0-2.717.002 1.36 1.36 0 0 0 2.717-.002Zm62.363 0a1.36 1.36 0 1 0-2.72.002 1.36 1.36 0 0 0 2.72-.002Zm-62.363 42.52a1.36 1.36 0 1 0-2.717.002 1.36 1.36 0 0 0 2.717-.002Zm58.82 0a1.36 1.36 0 1 0-2.72.002 1.36 1.36 0 0 0 2.72-.002Zm-58.82 42.523a1.359 1.359 0 1 0-2.719 0 1.36 1.36 0 0 0 2.719 0Zm58.82 0c0-.753-.61-1.363-1.36-1.363a1.361 1.361 0 0 0 0 2.723c.75 0 1.36-.61 1.36-1.36Zm0 0"/><use xlink:href="#k" x="628.078" y="346.995" fill="#234e83"/><use xlink:href="#n" x="634.564" y="346.995" fill="#cad40e"/><use xlink:href="#q" x="639.465" y="346.995"/><use xlink:href="#q" x="643.729" y="346.995"/><path fill="none" stroke="red" stroke-miterlimit="10" stroke-width=".399" d="M30.727 425.402h56.691m0 0h56.695v7.086m0 0v7.086h-3.543m0 0h-39.402m-20.41 0h-35.86l49.61 21.262m0 0 49.605 21.258h-3.543m0 0h-39.402m-20.41 0h-35.86l49.61 21.261m0 0 49.605 21.258h-3.543m0 0h-39.402m-20.41 0H37.813m0 0h-7.086v-49.605m0 0v-49.606"/><use xlink:href="#b" x="147.632" y="443.106"/><path fill="none" stroke="red" stroke-linejoin="bevel" stroke-miterlimit="10" stroke-width=".797" d="M101.566 439.734c0-2.82-1.406-5.101-3.14-5.101s-3.14 2.281-3.14 5.101c0 1.41.57 2.551 1.273 2.551.707 0 1.277-1.14 1.277-2.55 0-2.82-1.406-5.102-3.14-5.102s-3.141 2.281-3.141 5.101c0 1.41.57 2.551 1.273 2.551s1.277-1.14 1.277-2.55c0-2.82-1.406-5.102-3.14-5.102-1.738 0-3.145 2.281-3.145 5.101 0 1.41.575 2.551 1.278 2.551s1.273-1.14 1.273-2.55c0-2.82-1.406-5.102-3.14-5.102s-3.141 2.281-3.141 5.101c0 1.41.57 2.551 1.277 2.551.703 0 1.274-1.14 1.274-2.55 0-2.82-1.407-5.102-3.141-5.102s-3.14 2.281-3.14 5.101"/><use xlink:href="#c" x="147.632" y="485.626"/><path fill="none" stroke="red" stroke-linejoin="bevel" stroke-miterlimit="10" stroke-width=".797" d="M101.566 482.254c0-2.817-1.406-5.102-3.14-5.102s-3.14 2.286-3.14 5.102c0 1.41.57 2.55 1.273 2.55.707 0 1.277-1.14 1.277-2.55 0-2.817-1.406-5.102-3.14-5.102s-3.141 2.286-3.141 5.102c0 1.41.57 2.55 1.273 2.55s1.277-1.14 1.277-2.55c0-2.817-1.406-5.102-3.14-5.102-1.738 0-3.145 2.286-3.145 5.102 0 1.41.575 2.55 1.278 2.55s1.273-1.14 1.273-2.55c0-2.817-1.406-5.102-3.14-5.102s-3.141 2.286-3.141 5.102c0 1.41.57 2.55 1.277 2.55.703 0 1.274-1.14 1.274-2.55 0-2.817-1.407-5.102-3.141-5.102s-3.14 2.286-3.14 5.102"/><use xlink:href="#d" x="147.632" y="528.135"/><path fill="none" stroke="red" stroke-linejoin="bevel" stroke-miterlimit="10" stroke-width=".797" d="M101.566 524.773c0-2.816-1.406-5.101-3.14-5.101s-3.14 2.285-3.14 5.101c0 1.41.57 2.551 1.273 2.551.707 0 1.277-1.14 1.277-2.55 0-2.817-1.406-5.102-3.14-5.102s-3.141 2.285-3.141 5.101c0 1.41.57 2.551 1.273 2.551s1.277-1.14 1.277-2.55c0-2.817-1.406-5.102-3.14-5.102-1.738 0-3.145 2.285-3.145 5.101 0 1.41.575 2.551 1.278 2.551s1.273-1.14 1.273-2.55c0-2.817-1.406-5.102-3.14-5.102s-3.141 2.285-3.141 5.101c0 1.41.57 2.551 1.277 2.551.703 0 1.274-1.14 1.274-2.55 0-2.817-1.407-5.102-3.141-5.102s-3.14 2.285-3.14 5.101"/><path fill="red" stroke="red" stroke-miterlimit="10" stroke-width=".399" d="M107.535 432.965a1.361 1.361 0 0 0-2.722 0c0 .754.609 1.36 1.359 1.36.754 0 1.363-.606 1.363-1.36Zm0 42.519a1.361 1.361 0 1 0-2.722.004 1.361 1.361 0 0 0 2.722-.004Zm0 42.524a1.362 1.362 0 1 0-2.724-.003 1.362 1.362 0 0 0 2.724.003Zm0 0"/><path fill="none" stroke="#234e83" stroke-miterlimit="10" stroke-width=".399" d="M172.46 439.574v7.086m0 0v7.086h56.692m0 0h56.696v-7.086m0 0v-7.086h-3.543m0 0h-39.403m-20.41 0h-35.86"/><use xlink:href="#g" x="163.509" y="442.159"/><path fill="none" stroke="#234e83" stroke-linejoin="bevel" stroke-miterlimit="10" stroke-width=".797" d="M243.3 439.734c0-2.82-1.405-5.101-3.14-5.101-1.734 0-3.14 2.281-3.14 5.101 0 1.41.57 2.551 1.273 2.551.707 0 1.277-1.14 1.277-2.55 0-2.82-1.406-5.102-3.14-5.102s-3.145 2.281-3.145 5.101c0 1.41.574 2.551 1.278 2.551.703 0 1.277-1.14 1.277-2.55 0-2.82-1.406-5.102-3.145-5.102-1.734 0-3.14 2.281-3.14 5.101 0 1.41.574 2.551 1.277 2.551s1.273-1.14 1.273-2.55c0-2.82-1.406-5.102-3.14-5.102s-3.14 2.281-3.14 5.101c0 1.41.57 2.551 1.277 2.551.703 0 1.273-1.14 1.273-2.55 0-2.82-1.406-5.102-3.14-5.102s-3.141 2.281-3.141 5.101"/><path fill="none" stroke="#234e83" stroke-miterlimit="10" stroke-width=".399" d="M172.46 482.094v7.086m0 0v7.09h56.692m0 0h56.696v-7.09m0 0v-7.086h-3.543m0 0h-39.403m-20.41 0h-35.86"/><use xlink:href="#f" x="162.792" y="485.675"/><path fill="none" stroke="#234e83" stroke-linejoin="bevel" stroke-miterlimit="10" stroke-width=".797" d="M243.3 482.254c0-2.817-1.405-5.102-3.14-5.102-1.734 0-3.14 2.286-3.14 5.102 0 1.41.57 2.55 1.273 2.55.707 0 1.277-1.14 1.277-2.55 0-2.817-1.406-5.102-3.14-5.102s-3.145 2.286-3.145 5.102c0 1.41.574 2.55 1.278 2.55.703 0 1.277-1.14 1.277-2.55 0-2.817-1.406-5.102-3.145-5.102-1.734 0-3.14 2.286-3.14 5.102 0 1.41.574 2.55 1.277 2.55s1.273-1.14 1.273-2.55c0-2.817-1.406-5.102-3.14-5.102s-3.14 2.286-3.14 5.102c0 1.41.57 2.55 1.277 2.55.703 0 1.273-1.14 1.273-2.55 0-2.817-1.406-5.102-3.14-5.102s-3.141 2.286-3.141 5.102"/><g clip-path="url(#s)"><path fill="none" stroke="#234e83" stroke-miterlimit="10" stroke-width=".399" d="M172.46 524.613v7.09m0 0v7.086h56.692m0 0h56.696v-7.086m0 0v-7.09h-3.543m0 0h-39.403m-20.41 0h-35.86"/></g><use xlink:href="#e" x="163.469" y="527.199"/><path fill="none" stroke="#234e83" stroke-linejoin="bevel" stroke-miterlimit="10" stroke-width=".797" d="M243.3 524.773c0-2.816-1.405-5.101-3.14-5.101-1.734 0-3.14 2.285-3.14 5.101 0 1.41.57 2.551 1.273 2.551.707 0 1.277-1.14 1.277-2.55 0-2.817-1.406-5.102-3.14-5.102s-3.145 2.285-3.145 5.101c0 1.41.574 2.551 1.278 2.551.703 0 1.277-1.14 1.277-2.55 0-2.817-1.406-5.102-3.145-5.102-1.734 0-3.14 2.285-3.14 5.101 0 1.41.574 2.551 1.277 2.551s1.273-1.14 1.273-2.55c0-2.817-1.406-5.102-3.14-5.102s-3.14 2.285-3.14 5.101c0 1.41.57 2.551 1.277 2.551.703 0 1.273-1.14 1.273-2.55 0-2.817-1.406-5.102-3.14-5.102s-3.141 2.285-3.141 5.101"/><path fill="none" stroke="#234e83" stroke-miterlimit="10" stroke-width=".399" d="M186.633 439.574v10.774m0 6.8v17.86m0 0v17.86m0 6.8v17.86m0 0v7.085"/><path fill="none" stroke="#234e83" stroke-linejoin="bevel" stroke-miterlimit="10" stroke-width=".399" d="M186.633 450.348v2.039c.754 0 1.36.61 1.36 1.36 0 .753-.606 1.362-1.36 1.362v2.04m0 35.718v2.04c.754 0 1.36.609 1.36 1.363 0 .75-.606 1.359-1.36 1.359v2.039"/><path fill="#234e83" stroke="#234e83" stroke-miterlimit="10" stroke-width=".399" d="M218.848 432.965a1.36 1.36 0 1 0-2.721.002 1.36 1.36 0 0 0 2.72-.002Zm0 42.519a1.36 1.36 0 1 0-2.721.002 1.36 1.36 0 0 0 2.72-.002Zm0 42.524a1.361 1.361 0 1 0-2.723-.004 1.361 1.361 0 0 0 2.723.004Zm0 0"/><use xlink:href="#h" x="6.419" y="484.51" fill="red"/><use xlink:href="#l" x="13.542" y="484.51" fill="#234e83"/><use xlink:href="#t" x="18.942" y="484.51"/><path fill="none" stroke="#234e83" stroke-miterlimit="10" stroke-width=".399" d="M342.54 439.574h7.089m0 0h42.945m20.41 0h35.856m-106.3 42.52h7.089m0 0h42.945m20.41 0h35.856m-106.3 42.52h7.089m0 0h42.945m20.41 0h35.856m-106.3-85.04v42.52m0 0v42.52"/><path fill="none" stroke="#234e83" stroke-linejoin="bevel" stroke-miterlimit="10" stroke-width=".797" d="M392.176 439.734c0-2.82 1.406-5.101 3.14-5.101s3.141 2.281 3.141 5.101c0 1.41-.57 2.551-1.277 2.551-.703 0-1.274-1.14-1.274-2.55 0-2.82 1.406-5.102 3.14-5.102s3.142 2.281 3.142 5.101c0 1.41-.57 2.551-1.274 2.551-.707 0-1.277-1.14-1.277-2.55 0-2.82 1.406-5.102 3.14-5.102s3.141 2.281 3.141 5.101c0 1.41-.57 2.551-1.273 2.551-.707 0-1.278-1.14-1.278-2.55 0-2.82 1.406-5.102 3.14-5.102s3.141 2.281 3.141 5.101c0 1.41-.57 2.551-1.273 2.551s-1.277-1.14-1.277-2.55c0-2.82 1.406-5.102 3.14-5.102 1.739 0 3.145 2.281 3.145 5.101"/><use xlink:href="#b" x="452.356" y="443.106"/><path fill="none" stroke="#234e83" stroke-linejoin="bevel" stroke-miterlimit="10" stroke-width=".797" d="M392.176 482.254c0-2.817 1.406-5.102 3.14-5.102s3.141 2.286 3.141 5.102c0 1.41-.57 2.55-1.277 2.55-.703 0-1.274-1.14-1.274-2.55 0-2.817 1.406-5.102 3.14-5.102s3.142 2.286 3.142 5.102c0 1.41-.57 2.55-1.274 2.55-.707 0-1.277-1.14-1.277-2.55 0-2.817 1.406-5.102 3.14-5.102s3.141 2.286 3.141 5.102c0 1.41-.57 2.55-1.273 2.55-.707 0-1.278-1.14-1.278-2.55 0-2.817 1.406-5.102 3.14-5.102s3.141 2.286 3.141 5.102c0 1.41-.57 2.55-1.273 2.55s-1.277-1.14-1.277-2.55c0-2.817 1.406-5.102 3.14-5.102 1.739 0 3.145 2.286 3.145 5.102"/><use xlink:href="#c" x="452.356" y="485.626"/><path fill="none" stroke="#234e83" stroke-linejoin="bevel" stroke-miterlimit="10" stroke-width=".797" d="M392.176 524.773c0-2.816 1.406-5.101 3.14-5.101s3.141 2.285 3.141 5.101c0 1.41-.57 2.551-1.277 2.551-.703 0-1.274-1.14-1.274-2.55 0-2.817 1.406-5.102 3.14-5.102s3.142 2.285 3.142 5.101c0 1.41-.57 2.551-1.274 2.551-.707 0-1.277-1.14-1.277-2.55 0-2.817 1.406-5.102 3.14-5.102s3.141 2.285 3.141 5.101c0 1.41-.57 2.551-1.273 2.551-.707 0-1.278-1.14-1.278-2.55 0-2.817 1.406-5.102 3.14-5.102s3.141 2.285 3.141 5.101c0 1.41-.57 2.551-1.273 2.551s-1.277-1.14-1.277-2.55c0-2.817 1.406-5.102 3.14-5.102 1.739 0 3.145 2.285 3.145 5.101"/><use xlink:href="#d" x="452.356" y="528.135"/><path fill="#234e83" stroke="#234e83" stroke-miterlimit="10" stroke-width=".399" d="M419.348 432.965a1.36 1.36 0 1 0-2.721.002 1.36 1.36 0 0 0 2.72-.002Zm0 42.519a1.36 1.36 0 1 0-2.721.002 1.36 1.36 0 0 0 2.72-.002Zm0 42.524c0-.754-.61-1.363-1.36-1.363a1.361 1.361 0 0 0 0 2.722c.75 0 1.36-.61 1.36-1.36Zm0 0"/><path fill="none" stroke="red" stroke-miterlimit="10" stroke-width=".399" d="M484.273 439.574v7.086m0 0v7.086h53.153m0 0h53.148v-7.086m0 0v-7.086H554.72m-20.41 0h-35.86v-7.086m0 0v-7.086h49.606m0 0h49.61v49.606m0 0v49.605h-3.548m0 0h-3.543"/><use xlink:href="#g" x="475.32" y="442.159"/><path fill="none" stroke="red" stroke-linejoin="bevel" stroke-miterlimit="10" stroke-width=".797" d="M555.117 439.734c0-2.82-1.406-5.101-3.144-5.101-1.735 0-3.141 2.281-3.141 5.101 0 1.41.57 2.551 1.277 2.551.703 0 1.274-1.14 1.274-2.55 0-2.82-1.406-5.102-3.14-5.102s-3.141 2.281-3.141 5.101c0 1.41.57 2.551 1.277 2.551.703 0 1.273-1.14 1.273-2.55 0-2.82-1.406-5.102-3.14-5.102s-3.14 2.281-3.14 5.101c0 1.41.57 2.551 1.273 2.551.707 0 1.277-1.14 1.277-2.55 0-2.82-1.406-5.102-3.14-5.102s-3.141 2.281-3.141 5.101c0 1.41.57 2.551 1.273 2.551.707 0 1.277-1.14 1.277-2.55 0-2.82-1.406-5.102-3.14-5.102s-3.14 2.281-3.14 5.101"/><path fill="none" stroke="red" stroke-miterlimit="10" stroke-width=".399" d="M484.273 482.094v7.086m0 0v7.09h53.153m0 0h53.148v-7.09m0 0v-7.086H554.72m-20.41 0h-35.86l46.063-14.172m0 0 46.062-14.176"/><use xlink:href="#f" x="474.603" y="485.675"/><path fill="none" stroke="red" stroke-linejoin="bevel" stroke-miterlimit="10" stroke-width=".797" d="M555.117 482.254c0-2.817-1.406-5.102-3.144-5.102-1.735 0-3.141 2.286-3.141 5.102 0 1.41.57 2.55 1.277 2.55.703 0 1.274-1.14 1.274-2.55 0-2.817-1.406-5.102-3.14-5.102s-3.141 2.286-3.141 5.102c0 1.41.57 2.55 1.277 2.55.703 0 1.273-1.14 1.273-2.55 0-2.817-1.406-5.102-3.14-5.102s-3.14 2.286-3.14 5.102c0 1.41.57 2.55 1.273 2.55.707 0 1.277-1.14 1.277-2.55 0-2.817-1.406-5.102-3.14-5.102s-3.141 2.286-3.141 5.102c0 1.41.57 2.55 1.273 2.55.707 0 1.277-1.14 1.277-2.55 0-2.817-1.406-5.102-3.14-5.102s-3.14 2.286-3.14 5.102"/><g clip-path="url(#u)"><path fill="none" stroke="red" stroke-miterlimit="10" stroke-width=".399" d="M484.273 524.613v7.09m0 0v7.086h53.153m0 0h53.148v-7.086m0 0v-7.09H554.72m-20.41 0h-35.86l46.063-14.172m0 0 46.062-14.171"/></g><use xlink:href="#e" x="475.28" y="527.199"/><path fill="none" stroke="red" stroke-linejoin="bevel" stroke-miterlimit="10" stroke-width=".797" d="M555.117 524.773c0-2.816-1.406-5.101-3.144-5.101-1.735 0-3.141 2.285-3.141 5.101 0 1.41.57 2.551 1.277 2.551.703 0 1.274-1.14 1.274-2.55 0-2.817-1.406-5.102-3.14-5.102s-3.141 2.285-3.141 5.101c0 1.41.57 2.551 1.277 2.551.703 0 1.273-1.14 1.273-2.55 0-2.817-1.406-5.102-3.14-5.102s-3.14 2.285-3.14 5.101c0 1.41.57 2.551 1.273 2.551.707 0 1.277-1.14 1.277-2.55 0-2.817-1.406-5.102-3.14-5.102s-3.141 2.285-3.141 5.101c0 1.41.57 2.551 1.273 2.551.707 0 1.277-1.14 1.277-2.55 0-2.817-1.406-5.102-3.14-5.102s-3.14 2.285-3.14 5.101"/><path fill="red" stroke="red" stroke-miterlimit="10" stroke-width=".399" d="M530.66 432.965a1.36 1.36 0 1 0-2.72.002 1.36 1.36 0 0 0 2.72-.002Zm0 42.519a1.36 1.36 0 1 0-2.72.002 1.36 1.36 0 0 0 2.72-.002Zm0 42.524c0-.754-.61-1.363-1.36-1.363a1.361 1.361 0 0 0 0 2.722c.75 0 1.36-.61 1.36-1.36Zm0 0"/><use xlink:href="#k" x="318.07" y="484.983" fill="#234e83"/><use xlink:href="#i" x="324.556" y="484.983" fill="red"/><use xlink:href="#t" x="330.753" y="484.983"/><path fill="none" stroke="#234e83" stroke-miterlimit="10" stroke-width=".399" d="M654.355 439.574h7.086m0 0h42.946m20.41 0h35.86m-106.302 42.52h7.086m0 0h42.946m20.41 0h35.86m-106.302 42.52h7.086m0 0h42.946m20.41 0h35.86m-106.302-85.04v42.52m0 0v42.52"/><path fill="none" stroke="#234e83" stroke-linejoin="bevel" stroke-miterlimit="10" stroke-width=".797" d="M703.988 439.734c0-2.82 1.407-5.101 3.14-5.101 1.74 0 3.145 2.281 3.145 5.101 0 1.41-.574 2.551-1.277 2.551s-1.277-1.14-1.277-2.55c0-2.82 1.406-5.102 3.144-5.102 1.735 0 3.14 2.281 3.14 5.101 0 1.41-.573 2.551-1.276 2.551s-1.274-1.14-1.274-2.55c0-2.82 1.406-5.102 3.14-5.102s3.141 2.281 3.141 5.101c0 1.41-.57 2.551-1.277 2.551-.703 0-1.273-1.14-1.273-2.55 0-2.82 1.406-5.102 3.14-5.102s3.14 2.281 3.14 5.101c0 1.41-.57 2.551-1.273 2.551-.707 0-1.277-1.14-1.277-2.55 0-2.82 1.406-5.102 3.14-5.102s3.141 2.281 3.141 5.101"/><use xlink:href="#b" x="764.167" y="443.106"/><path fill="none" stroke="#234e83" stroke-linejoin="bevel" stroke-miterlimit="10" stroke-width=".797" d="M703.988 482.254c0-2.817 1.407-5.102 3.14-5.102 1.74 0 3.145 2.286 3.145 5.102 0 1.41-.574 2.55-1.277 2.55s-1.277-1.14-1.277-2.55c0-2.817 1.406-5.102 3.144-5.102 1.735 0 3.14 2.286 3.14 5.102 0 1.41-.573 2.55-1.276 2.55s-1.274-1.14-1.274-2.55c0-2.817 1.406-5.102 3.14-5.102s3.141 2.286 3.141 5.102c0 1.41-.57 2.55-1.277 2.55-.703 0-1.273-1.14-1.273-2.55 0-2.817 1.406-5.102 3.14-5.102s3.14 2.286 3.14 5.102c0 1.41-.57 2.55-1.273 2.55-.707 0-1.277-1.14-1.277-2.55 0-2.817 1.406-5.102 3.14-5.102s3.141 2.286 3.141 5.102"/><use xlink:href="#c" x="764.167" y="485.626"/><path fill="none" stroke="#234e83" stroke-linejoin="bevel" stroke-miterlimit="10" stroke-width=".797" d="M703.988 524.773c0-2.816 1.407-5.101 3.14-5.101 1.74 0 3.145 2.285 3.145 5.101 0 1.41-.574 2.551-1.277 2.551s-1.277-1.14-1.277-2.55c0-2.817 1.406-5.102 3.144-5.102 1.735 0 3.14 2.285 3.14 5.101 0 1.41-.573 2.551-1.276 2.551s-1.274-1.14-1.274-2.55c0-2.817 1.406-5.102 3.14-5.102s3.141 2.285 3.141 5.101c0 1.41-.57 2.551-1.277 2.551-.703 0-1.273-1.14-1.273-2.55 0-2.817 1.406-5.102 3.14-5.102s3.14 2.285 3.14 5.101c0 1.41-.57 2.551-1.273 2.551-.707 0-1.277-1.14-1.277-2.55 0-2.817 1.406-5.102 3.14-5.102s3.141 2.285 3.141 5.101"/><use xlink:href="#d" x="764.167" y="528.135"/><path fill="#234e83" stroke="#234e83" stroke-miterlimit="10" stroke-width=".399" d="M731.164 432.965a1.36 1.36 0 1 0-2.72.002 1.36 1.36 0 0 0 2.72-.002Zm0 42.519a1.36 1.36 0 1 0-2.72.002 1.36 1.36 0 0 0 2.72-.002Zm0 42.524a1.361 1.361 0 1 0-2.722-.004 1.361 1.361 0 0 0 2.722.004Zm0 0"/><path fill="none" stroke="#cad40e" stroke-miterlimit="10" stroke-width=".399" d="M796.09 439.574v7.086m0 0v7.086h53.148m0 0h53.153v-7.086m0 0v-7.086h-11.766m-20.41 0h-11.762l-27.637 17.719m0 0-27.64 17.715v3.543m0 0v3.543h11.765m20.41 0h11.762"/><use xlink:href="#g" x="787.131" y="442.159"/><path fill="none" stroke="#cad40e" stroke-linejoin="bevel" stroke-miterlimit="10" stroke-width=".797" d="M891.023 439.734c0-2.82-1.406-5.101-3.14-5.101s-3.14 2.281-3.14 5.101c0 1.41.57 2.551 1.277 2.551.703 0 1.273-1.14 1.273-2.55 0-2.82-1.406-5.102-3.14-5.102s-3.141 2.281-3.141 5.101c0 1.41.57 2.551 1.277 2.551.703 0 1.274-1.14 1.274-2.55 0-2.82-1.407-5.102-3.141-5.102-1.735 0-3.14 2.281-3.14 5.101 0 1.41.57 2.551 1.273 2.551.707 0 1.277-1.14 1.277-2.55 0-2.82-1.406-5.102-3.14-5.102s-3.141 2.281-3.141 5.101c0 1.41.57 2.551 1.273 2.551.707 0 1.278-1.14 1.278-2.55 0-2.82-1.407-5.102-3.141-5.102-1.738 0-3.145 2.281-3.145 5.101m-55.273 42.52c0-2.817 1.406-5.102 3.14-5.102s3.141 2.286 3.141 5.102c0 1.41-.57 2.55-1.277 2.55-.703 0-1.274-1.14-1.274-2.55 0-2.817 1.407-5.102 3.141-5.102s3.14 2.286 3.14 5.102c0 1.41-.57 2.55-1.273 2.55-.707 0-1.277-1.14-1.277-2.55 0-2.817 1.406-5.102 3.14-5.102s3.141 2.286 3.141 5.102c0 1.41-.57 2.55-1.273 2.55-.707 0-1.278-1.14-1.278-2.55 0-2.817 1.407-5.102 3.141-5.102s3.145 2.286 3.145 5.102c0 1.41-.575 2.55-1.278 2.55s-1.277-1.14-1.277-2.55c0-2.817 1.406-5.102 3.144-5.102 1.735 0 3.141 2.286 3.141 5.102"/><path fill="none" stroke="#cad40e" stroke-miterlimit="10" stroke-width=".399" d="M796.09 482.094v7.086m0 0v7.09h53.148m0 0h53.153v-7.09m0 0v-7.086h-11.766m-20.41 0h-11.762l-27.637 17.719m0 0-27.64 17.714v3.543m0 0v3.543h11.765m20.41 0h11.762"/><use xlink:href="#f" x="786.413" y="485.675"/><path fill="none" stroke="#cad40e" stroke-linejoin="bevel" stroke-miterlimit="10" stroke-width=".797" d="M891.023 482.254c0-2.817-1.406-5.102-3.14-5.102s-3.14 2.286-3.14 5.102c0 1.41.57 2.55 1.277 2.55.703 0 1.273-1.14 1.273-2.55 0-2.817-1.406-5.102-3.14-5.102s-3.141 2.286-3.141 5.102c0 1.41.57 2.55 1.277 2.55.703 0 1.274-1.14 1.274-2.55 0-2.817-1.407-5.102-3.141-5.102-1.735 0-3.14 2.286-3.14 5.102 0 1.41.57 2.55 1.273 2.55.707 0 1.277-1.14 1.277-2.55 0-2.817-1.406-5.102-3.14-5.102s-3.141 2.286-3.141 5.102c0 1.41.57 2.55 1.273 2.55.707 0 1.278-1.14 1.278-2.55 0-2.817-1.407-5.102-3.141-5.102-1.738 0-3.145 2.286-3.145 5.102m-55.273 42.519c0-2.816 1.406-5.101 3.14-5.101s3.141 2.285 3.141 5.101c0 1.41-.57 2.551-1.277 2.551-.703 0-1.274-1.14-1.274-2.55 0-2.817 1.407-5.102 3.141-5.102s3.14 2.285 3.14 5.101c0 1.41-.57 2.551-1.273 2.551-.707 0-1.277-1.14-1.277-2.55 0-2.817 1.406-5.102 3.14-5.102s3.141 2.285 3.141 5.101c0 1.41-.57 2.551-1.273 2.551-.707 0-1.278-1.14-1.278-2.55 0-2.817 1.407-5.102 3.141-5.102s3.145 2.285 3.145 5.101c0 1.41-.575 2.551-1.278 2.551s-1.277-1.14-1.277-2.55c0-2.817 1.406-5.102 3.144-5.102 1.735 0 3.141 2.285 3.141 5.101"/><g clip-path="url(#v)"><path fill="none" stroke="#cad40e" stroke-miterlimit="10" stroke-width=".399" d="M796.09 524.613v3.547m0 0v3.543h53.148m0 0h53.153v-3.543m0 0v-3.547h-11.766m-20.41 0h-11.762v3.688m0 6.8v3.688h25.512m0 0h25.512v-56.695m0 0v-56.692h-53.149m0 0h-53.152v7.086m0 0v7.086h11.765m20.41 0h11.762"/></g><use xlink:href="#e" x="787.091" y="527.199"/><path fill="none" stroke="#cad40e" stroke-linejoin="bevel" stroke-miterlimit="10" stroke-width=".797" d="M891.023 524.773c0-2.816-1.406-5.101-3.14-5.101s-3.14 2.285-3.14 5.101c0 1.41.57 2.551 1.277 2.551.703 0 1.273-1.14 1.273-2.55 0-2.817-1.406-5.102-3.14-5.102s-3.141 2.285-3.141 5.101c0 1.41.57 2.551 1.277 2.551.703 0 1.274-1.14 1.274-2.55 0-2.817-1.407-5.102-3.141-5.102-1.735 0-3.14 2.285-3.14 5.101 0 1.41.57 2.551 1.273 2.551.707 0 1.277-1.14 1.277-2.55 0-2.817-1.406-5.102-3.14-5.102s-3.141 2.285-3.141 5.101c0 1.41.57 2.551 1.273 2.551.707 0 1.278-1.14 1.278-2.55 0-2.817-1.407-5.102-3.141-5.102-1.738 0-3.145 2.285-3.145 5.101"/><path fill="none" stroke="#cad40e" stroke-linejoin="bevel" stroke-miterlimit="10" stroke-width=".399" d="M858.453 528.3v2.04a1.361 1.361 0 0 1 0 2.722v2.04"/><path fill="none" stroke="#cad40e" stroke-linejoin="bevel" stroke-miterlimit="10" stroke-width=".797" d="M814.543 439.734c0-2.82 1.406-5.101 3.14-5.101s3.141 2.281 3.141 5.101c0 1.41-.57 2.551-1.277 2.551-.703 0-1.274-1.14-1.274-2.55 0-2.82 1.407-5.102 3.141-5.102s3.14 2.281 3.14 5.101c0 1.41-.57 2.551-1.273 2.551-.707 0-1.277-1.14-1.277-2.55 0-2.82 1.406-5.102 3.14-5.102s3.141 2.281 3.141 5.101c0 1.41-.57 2.551-1.273 2.551-.707 0-1.278-1.14-1.278-2.55 0-2.82 1.407-5.102 3.141-5.102s3.145 2.281 3.145 5.101c0 1.41-.575 2.551-1.278 2.551s-1.277-1.14-1.277-2.55c0-2.82 1.406-5.102 3.144-5.102 1.735 0 3.141 2.281 3.141 5.101"/><path fill="none" stroke="#cad40e" stroke-miterlimit="10" stroke-width=".399" d="M847.113 439.574v10.774m0 6.8v17.86m0 0v17.86m0 6.8v17.86m0 0v7.085"/><path fill="none" stroke="#cad40e" stroke-linejoin="bevel" stroke-miterlimit="10" stroke-width=".399" d="M847.113 450.348v2.039a1.361 1.361 0 1 1 0 2.722v2.04m0 35.718v2.04a1.362 1.362 0 1 1 0 2.722v2.039"/><path fill="#cad40e" stroke="#cad40e" stroke-miterlimit="10" stroke-width=".399" d="M811.297 432.965a1.361 1.361 0 0 0-2.723 0c0 .754.61 1.36 1.36 1.36.754 0 1.363-.606 1.363-1.36Zm55.273 0a1.36 1.36 0 1 0-2.72.002 1.36 1.36 0 0 0 2.72-.002Zm-55.273 42.519a1.361 1.361 0 1 0-2.723.004 1.361 1.361 0 0 0 2.723-.004Zm55.273 0a1.36 1.36 0 1 0-2.72.002 1.36 1.36 0 0 0 2.72-.002Zm-55.273 42.524a1.362 1.362 0 1 0-2.724-.003 1.362 1.362 0 0 0 2.724.003Zm55.273 0c0-.754-.61-1.363-1.36-1.363a1.361 1.361 0 0 0 0 2.722c.75 0 1.36-.61 1.36-1.36Zm0 0"/><use xlink:href="#k" x="631.176" y="484.883" fill="#234e83"/><use xlink:href="#n" x="637.662" y="484.883" fill="#cad40e"/><use xlink:href="#t" x="642.564" y="484.883"/></svg>
