<svg xmlns="http://www.w3.org/2000/svg" xmlns:xlink="http://www.w3.org/1999/xlink" width="377.485" height="141.759" viewBox="0 0 283.114 106.319"><defs><symbol overflow="visible" id="b"><path style="stroke:none" d="M3.078-7.078h.594L6.609 0h-.734l-.922-2.219H1.781L.875 0h-.75Zm1.719 4.312-1.422-3.5-1.453 3.5Zm0 0"/></symbol><symbol overflow="visible" id="c"><path style="stroke:none" d="M6.203-1.828c0 .355-.09.672-.266.953a1.87 1.87 0 0 1-.718.64A2.126 2.126 0 0 1 4.234 0H.891v-7.078h3.406c.332 0 .617.09.86.266.238.18.421.406.546.687a1.915 1.915 0 0 1-.062 1.828 1.63 1.63 0 0 1-.75.672c.406.117.722.34.953.672.238.324.36.7.36 1.125Zm-.687-.11c0-.238-.059-.457-.172-.656a1.293 1.293 0 0 0-.438-.5 1.003 1.003 0 0 0-.61-.203H1.579v2.688h2.656c.227 0 .438-.063.625-.188.196-.125.352-.285.47-.484a1.25 1.25 0 0 0 .187-.657Zm-3.938-4.53v2.609h2.438c.226 0 .43-.063.609-.188.188-.125.332-.285.438-.484.101-.196.156-.407.156-.625 0-.239-.055-.457-.157-.657a1.155 1.155 0 0 0-.406-.468.94.94 0 0 0-.578-.188Zm0 0"/></symbol><symbol overflow="visible" id="d"><path style="stroke:none" d="M.422-3.594c0-.426.07-.847.219-1.265.156-.414.375-.797.656-1.141a2.993 2.993 0 0 1 1.047-.813 3.25 3.25 0 0 1 1.437-.312c.625 0 1.16.148 1.61.438.457.292.789.664 1 1.109l-.547.344a2.14 2.14 0 0 0-.578-.735 2.033 2.033 0 0 0-.75-.39 2.61 2.61 0 0 0-.782-.125c-.43 0-.804.086-1.125.25-.324.168-.601.39-.828.671a3.087 3.087 0 0 0-.5.954 3.273 3.273 0 0 0-.172 1.062c0 .399.067.774.204 1.125.132.356.32.672.562.953.238.274.52.492.844.657.32.167.672.25 1.047.25.27 0 .539-.047.812-.141a2.62 2.62 0 0 0 .781-.422c.25-.195.446-.453.594-.766l.578.313c-.148.344-.375.64-.687.89a3.16 3.16 0 0 1-1.016.563 3.462 3.462 0 0 1-1.094.188c-.492 0-.937-.102-1.343-.313a3.536 3.536 0 0 1-1.063-.828 3.877 3.877 0 0 1-.672-1.188 3.918 3.918 0 0 1-.234-1.328Zm0 0"/></symbol><symbol overflow="visible" id="f"><path style="stroke:none" d="M.328-1.5c0-.32.094-.598.281-.828a1.75 1.75 0 0 1 .766-.547c.332-.133.71-.203 1.14-.203.258 0 .524.023.797.062.27.043.508.102.72.172v-.437c0-.438-.134-.785-.391-1.047-.25-.258-.606-.39-1.063-.39a2.34 2.34 0 0 0-.828.155 4.266 4.266 0 0 0-.844.454l-.265-.47a4.38 4.38 0 0 1 1-.53 3.076 3.076 0 0 1 1-.172c.632 0 1.14.183 1.515.547.375.367.563.87.563 1.515v2.406c0 .094.015.165.047.204.039.043.109.07.203.078V0c-.074.008-.14.016-.203.016a.244.244 0 0 1-.11 0 .478.478 0 0 1-.516-.469l-.015-.39c-.23.304-.531.538-.906.702a2.951 2.951 0 0 1-1.14.235 2.02 2.02 0 0 1-.907-.203 1.713 1.713 0 0 1-.625-.579A1.556 1.556 0 0 1 .328-1.5Zm3.485.406a1.1 1.1 0 0 0 .156-.265.656.656 0 0 0 .062-.235v-.765a3.861 3.861 0 0 0-.703-.188 3.49 3.49 0 0 0-.719-.078c-.492 0-.886.102-1.187.297-.293.187-.438.45-.438.781 0 .2.047.383.141.547.102.168.25.309.438.422.195.105.425.156.687.156.32 0 .625-.062.906-.187s.5-.286.656-.485Zm0 0"/></symbol><symbol overflow="visible" id="g"><path style="stroke:none" d="M3.297.094a2.18 2.18 0 0 1-1.14-.313A2.28 2.28 0 0 1 1.358-1v1H.75v-7.281h.672v3.172a2.99 2.99 0 0 1 .844-.844c.32-.219.703-.328 1.14-.328.364 0 .688.078.969.234.29.149.54.352.75.61.207.25.363.539.469.859.101.324.156.656.156 1 0 .367-.063.71-.188 1.031A2.612 2.612 0 0 1 4.25-.109a2.28 2.28 0 0 1-.953.203ZM3.125-.5a1.796 1.796 0 0 0 1.39-.64 2.159 2.159 0 0 0 .547-1.438c0-.363-.078-.707-.234-1.031a2.031 2.031 0 0 0-.656-.782 1.62 1.62 0 0 0-.969-.296 1.5 1.5 0 0 0-.734.187c-.23.117-.434.273-.61.469a2.85 2.85 0 0 0-.437.64v1.61c.031.187.098.36.203.515.113.157.254.293.422.407a3.4 3.4 0 0 0 .547.265c.187.063.363.094.531.094Zm0 0"/></symbol><symbol overflow="visible" id="h"><path style="stroke:none" d="M3 .094c-.375 0-.727-.07-1.047-.203a2.708 2.708 0 0 1-.828-.594 3.03 3.03 0 0 1-.547-.875A2.811 2.811 0 0 1 .391-2.61c0-.489.109-.938.328-1.344a2.55 2.55 0 0 1 .906-.969c.395-.238.848-.36 1.36-.36.488 0 .913.118 1.28.345.376.218.657.515.844.89l-.656.203a1.59 1.59 0 0 0-.625-.61 1.678 1.678 0 0 0-.875-.234c-.344 0-.664.094-.953.282-.281.18-.508.422-.672.734-.168.313-.25.668-.25 1.063 0 .386.082.742.25 1.062.176.324.406.578.688.766.289.187.609.281.953.281.226 0 .445-.035.656-.11a1.87 1.87 0 0 0 .547-.328.993.993 0 0 0 .312-.453l.672.204a1.69 1.69 0 0 1-.468.671c-.22.188-.477.34-.766.454-.281.101-.59.156-.922.156Zm0 0"/></symbol><symbol overflow="visible" id="i"><path style="stroke:none" d="M.89 0v-7.078h2.407c.75 0 1.375.164 1.875.484.5.313.875.735 1.125 1.266s.375 1.125.375 1.781c0 .719-.137 1.344-.406 1.875A2.93 2.93 0 0 1 5.094-.438C4.582-.145 3.984 0 3.297 0Zm5.094-3.547c0-.562-.105-1.062-.312-1.5a2.322 2.322 0 0 0-.922-1.031c-.398-.25-.883-.375-1.453-.375H1.578v5.828h1.719c.582 0 1.07-.125 1.469-.375a2.54 2.54 0 0 0 .906-1.047c.207-.445.312-.945.312-1.5Zm0 0"/></symbol><symbol overflow="visible" id="j"><path style="stroke:none" d="M.313-.453 3.78-4.687H.391v-.5h4.171v.453L1.095-.516h3.453V0H.313Zm0 0"/></symbol><symbol overflow="visible" id="k"><path style="stroke:none" d="M5.547-2.922c0 .586-.11 1.106-.328 1.563-.211.46-.508.82-.89 1.078-.376.25-.806.375-1.282.375-.48 0-.906-.125-1.281-.375A2.654 2.654 0 0 1 .875-1.36C.656-1.816.547-2.336.547-2.922c0-.582.11-1.098.328-1.547.219-.457.516-.816.89-1.078.376-.27.801-.406 1.282-.406.476 0 .906.137 1.281.406.383.262.68.621.89 1.078.22.45.329.965.329 1.547Zm-.688 0c0-.469-.078-.879-.234-1.234C4.477-4.52 4.27-4.801 4-5a1.534 1.534 0 0 0-.953-.313c-.356 0-.672.106-.953.313-.274.2-.485.48-.64.844-.157.355-.235.765-.235 1.234s.078.887.234 1.25c.156.356.367.637.64.844.282.2.598.297.954.297.363 0 .68-.098.953-.297.27-.207.477-.488.625-.844.156-.363.234-.781.234-1.25Zm0 0"/></symbol><clipPath id="a"><path d="M0 0h283.113v106.32H0Zm0 0"/></clipPath><clipPath id="e"><path d="M169 0h114.113v100H169Zm0 0"/></clipPath></defs><g clip-path="url(#a)"><path style="stroke:none;fill-rule:nonzero;fill:#fff;fill-opacity:1" d="M0 106.32V0h283.117v106.32Zm0 0"/></g><path style="fill:none;stroke-width:.3985;stroke-linecap:butt;stroke-linejoin:miter;stroke:red;stroke-opacity:1;stroke-miterlimit:10" d="M0 0h56.695m0 0h56.692v-7.086m0 0v-7.086h-3.543m0 0H70.44m-20.41 0H14.17l49.61-21.262m0 0 49.606-21.262h-3.543m0 0H70.44m-20.41 0H14.17l49.61-21.257m0 0 49.606-21.262h-3.543m0 0H70.44m-20.41 0H7.086m0 0H0v49.61m0 0V0" transform="matrix(1 0 0 -1 27.797 .199)"/><use xlink:href="#b" x="144.703" y="17.909" style="fill:#000;fill-opacity:1"/><path style="fill:none;stroke-width:.797;stroke-linecap:butt;stroke-linejoin:bevel;stroke:red;stroke-opacity:1;stroke-miterlimit:10" d="M70.84-14.332c0 2.816-1.407 5.101-3.14 5.101-1.735 0-3.142-2.285-3.142-5.101 0-1.41.57-2.551 1.274-2.551.707 0 1.277 1.14 1.277 2.55 0 2.817-1.406 5.102-3.14 5.102-1.735 0-3.141-2.285-3.141-5.101 0-1.41.57-2.551 1.273-2.551.707 0 1.278 1.14 1.278 2.55 0 2.817-1.406 5.102-3.14 5.102-1.735 0-3.141-2.285-3.141-5.101 0-1.41.57-2.551 1.273-2.551s1.277 1.14 1.277 2.55c0 2.817-1.406 5.102-3.14 5.102-1.739 0-3.145-2.285-3.145-5.101 0-1.41.574-2.551 1.278-2.551.703 0 1.273 1.14 1.273 2.55 0 2.817-1.406 5.102-3.14 5.102-1.735 0-3.141-2.285-3.141-5.101" transform="matrix(1 0 0 -1 27.797 .199)"/><use xlink:href="#c" x="144.703" y="60.429" style="fill:#000;fill-opacity:1"/><path style="fill:none;stroke-width:.797;stroke-linecap:butt;stroke-linejoin:bevel;stroke:red;stroke-opacity:1;stroke-miterlimit:10" d="M70.84-56.852c0 2.817-1.407 5.102-3.14 5.102-1.735 0-3.142-2.285-3.142-5.102 0-1.41.57-2.55 1.274-2.55.707 0 1.277 1.14 1.277 2.55 0 2.817-1.406 5.102-3.14 5.102-1.735 0-3.141-2.285-3.141-5.102 0-1.41.57-2.55 1.273-2.55.707 0 1.278 1.14 1.278 2.55 0 2.817-1.406 5.102-3.14 5.102-1.735 0-3.141-2.285-3.141-5.102 0-1.41.57-2.55 1.273-2.55s1.277 1.14 1.277 2.55c0 2.817-1.406 5.102-3.14 5.102-1.739 0-3.145-2.285-3.145-5.102 0-1.41.574-2.55 1.278-2.55.703 0 1.273 1.14 1.273 2.55 0 2.817-1.406 5.102-3.14 5.102-1.735 0-3.141-2.285-3.141-5.102" transform="matrix(1 0 0 -1 27.797 .199)"/><use xlink:href="#d" x="144.703" y="102.939" style="fill:#000;fill-opacity:1"/><path style="fill:none;stroke-width:.797;stroke-linecap:butt;stroke-linejoin:bevel;stroke:red;stroke-opacity:1;stroke-miterlimit:10" d="M70.84-99.371c0 2.816-1.407 5.101-3.14 5.101-1.735 0-3.142-2.285-3.142-5.101 0-1.41.57-2.555 1.274-2.555.707 0 1.277 1.145 1.277 2.555 0 2.816-1.406 5.101-3.14 5.101-1.735 0-3.141-2.285-3.141-5.101 0-1.41.57-2.555 1.273-2.555.707 0 1.278 1.145 1.278 2.555 0 2.816-1.406 5.101-3.14 5.101-1.735 0-3.141-2.285-3.141-5.101 0-1.41.57-2.555 1.273-2.555s1.277 1.145 1.277 2.555c0 2.816-1.406 5.101-3.14 5.101-1.739 0-3.145-2.285-3.145-5.101 0-1.41.574-2.555 1.278-2.555.703 0 1.273 1.145 1.273 2.555 0 2.816-1.406 5.101-3.14 5.101-1.735 0-3.141-2.285-3.141-5.101" transform="matrix(1 0 0 -1 27.797 .199)"/><path style="fill-rule:nonzero;fill:red;fill-opacity:1;stroke-width:.3985;stroke-linecap:butt;stroke-linejoin:miter;stroke:red;stroke-opacity:1;stroke-miterlimit:10" d="M76.808-7.563a1.36 1.36 0 1 1-2.72-.002 1.36 1.36 0 0 1 2.72.002Zm0-42.523a1.361 1.361 0 1 1-2.722.004 1.361 1.361 0 0 1 2.722-.004Zm0-42.52c0 .754-.609 1.36-1.359 1.36a1.359 1.359 0 1 1 0-2.72c.75 0 1.36.61 1.36 1.36Zm0 0" transform="matrix(1 0 0 -1 27.797 .199)"/><g clip-path="url(#e)"><path style="fill:none;stroke-width:.3985;stroke-linecap:butt;stroke-linejoin:miter;stroke:#cad40e;stroke-opacity:1;stroke-miterlimit:10" d="M141.734-14.172h15.309m20.41 0h15.305v7.086m0 0V0h31.183m0 0h31.18v-49.606m0 0v-49.61h-3.543m0 0h-15.309m-20.41 0h-11.761" transform="matrix(1 0 0 -1 27.797 .199)"/></g><use xlink:href="#f" x="160.58" y="16.963" style="fill:#000;fill-opacity:1"/><path style="fill:none;stroke-width:.797;stroke-linecap:butt;stroke-linejoin:bevel;stroke:#cad40e;stroke-opacity:1;stroke-miterlimit:10" d="M156.644-14.332c0 2.816 1.407 5.101 3.141 5.101s3.14-2.285 3.14-5.101c0-1.41-.57-2.551-1.277-2.551-.703 0-1.273 1.14-1.273 2.55 0 2.817 1.406 5.102 3.14 5.102 1.735 0 3.141-2.285 3.141-5.101 0-1.41-.57-2.551-1.277-2.551-.703 0-1.274 1.14-1.274 2.55 0 2.817 1.407 5.102 3.141 5.102s3.14-2.285 3.14-5.101c0-1.41-.57-2.551-1.273-2.551-.707 0-1.277 1.14-1.277 2.55 0 2.817 1.406 5.102 3.14 5.102 1.735 0 3.141-2.285 3.141-5.101 0-1.41-.57-2.551-1.273-2.551-.707 0-1.278 1.14-1.278 2.55 0 2.817 1.407 5.102 3.14 5.102 1.74 0 3.145-2.285 3.145-5.101m58.817-85.039c0 2.816-1.406 5.101-3.14 5.101-1.735 0-3.141-2.285-3.141-5.101 0-1.41.57-2.555 1.277-2.555.703 0 1.273 1.145 1.273 2.555 0 2.816-1.406 5.101-3.14 5.101-1.735 0-3.14-2.285-3.14-5.101 0-1.41.57-2.555 1.273-2.555.707 0 1.277 1.145 1.277 2.555 0 2.816-1.406 5.101-3.14 5.101-1.735 0-3.141-2.285-3.141-5.101 0-1.41.57-2.555 1.273-2.555.707 0 1.277 1.145 1.277 2.555 0 2.816-1.406 5.101-3.14 5.101-1.735 0-3.14-2.285-3.14-5.101 0-1.41.57-2.555 1.273-2.555s1.277 1.145 1.277 2.555c0 2.816-1.406 5.101-3.14 5.101-1.739 0-3.145-2.285-3.145-5.101" transform="matrix(1 0 0 -1 27.797 .199)"/><path style="fill:none;stroke-width:.3985;stroke-linecap:butt;stroke-linejoin:miter;stroke:#cad40e;stroke-opacity:1;stroke-miterlimit:10" d="M141.734-56.696h15.309m20.41 0h15.305l27.64 21.262m0 0 27.637 21.262h-11.766m-20.41 0h-11.761" transform="matrix(1 0 0 -1 27.797 .199)"/><use xlink:href="#g" x="159.863" y="60.479" style="fill:#000;fill-opacity:1"/><path style="fill:none;stroke-width:.797;stroke-linecap:butt;stroke-linejoin:bevel;stroke:#cad40e;stroke-opacity:1;stroke-miterlimit:10" d="M156.644-56.852c0 2.817 1.407 5.102 3.141 5.102s3.14-2.285 3.14-5.102c0-1.41-.57-2.55-1.277-2.55-.703 0-1.273 1.14-1.273 2.55 0 2.817 1.406 5.102 3.14 5.102 1.735 0 3.141-2.285 3.141-5.102 0-1.41-.57-2.55-1.277-2.55-.703 0-1.274 1.14-1.274 2.55 0 2.817 1.407 5.102 3.141 5.102s3.14-2.285 3.14-5.102c0-1.41-.57-2.55-1.273-2.55-.707 0-1.277 1.14-1.277 2.55 0 2.817 1.406 5.102 3.14 5.102 1.735 0 3.141-2.285 3.141-5.102 0-1.41-.57-2.55-1.273-2.55-.707 0-1.278 1.14-1.278 2.55 0 2.817 1.407 5.102 3.14 5.102 1.74 0 3.145-2.285 3.145-5.102m58.817 42.52c0 2.816-1.406 5.101-3.14 5.101-1.735 0-3.141-2.285-3.141-5.101 0-1.41.57-2.551 1.277-2.551.703 0 1.273 1.14 1.273 2.55 0 2.817-1.406 5.102-3.14 5.102-1.735 0-3.14-2.285-3.14-5.101 0-1.41.57-2.551 1.273-2.551.707 0 1.277 1.14 1.277 2.55 0 2.817-1.406 5.102-3.14 5.102-1.735 0-3.141-2.285-3.141-5.101 0-1.41.57-2.551 1.273-2.551.707 0 1.277 1.14 1.277 2.55 0 2.817-1.406 5.102-3.14 5.102-1.735 0-3.14-2.285-3.14-5.101 0-1.41.57-2.551 1.273-2.551s1.277 1.14 1.277 2.55c0 2.817-1.406 5.102-3.14 5.102-1.739 0-3.145-2.285-3.145-5.101" transform="matrix(1 0 0 -1 27.797 .199)"/><path style="fill:none;stroke-width:.3985;stroke-linecap:butt;stroke-linejoin:miter;stroke:#cad40e;stroke-opacity:1;stroke-miterlimit:10" d="M141.734-99.215h15.309m20.41 0h15.305l27.64 21.262m0 0 27.637 21.257h-11.766m-20.41 0h-11.761" transform="matrix(1 0 0 -1 27.797 .199)"/><use xlink:href="#h" x="160.54" y="102.002" style="fill:#000;fill-opacity:1"/><path style="fill:none;stroke-width:.797;stroke-linecap:butt;stroke-linejoin:bevel;stroke:#cad40e;stroke-opacity:1;stroke-miterlimit:10" d="M156.644-99.371c0 2.816 1.407 5.101 3.141 5.101s3.14-2.285 3.14-5.101c0-1.41-.57-2.555-1.277-2.555-.703 0-1.273 1.145-1.273 2.555 0 2.816 1.406 5.101 3.14 5.101 1.735 0 3.141-2.285 3.141-5.101 0-1.41-.57-2.555-1.277-2.555-.703 0-1.274 1.145-1.274 2.555 0 2.816 1.407 5.101 3.141 5.101s3.14-2.285 3.14-5.101c0-1.41-.57-2.555-1.273-2.555-.707 0-1.277 1.145-1.277 2.555 0 2.816 1.406 5.101 3.14 5.101 1.735 0 3.141-2.285 3.141-5.101 0-1.41-.57-2.555-1.273-2.555-.707 0-1.278 1.145-1.278 2.555 0 2.816 1.407 5.101 3.14 5.101 1.74 0 3.145-2.285 3.145-5.101m58.817 42.519c0 2.817-1.406 5.102-3.14 5.102-1.735 0-3.141-2.285-3.141-5.102 0-1.41.57-2.55 1.277-2.55.703 0 1.273 1.14 1.273 2.55 0 2.817-1.406 5.102-3.14 5.102-1.735 0-3.14-2.285-3.14-5.102 0-1.41.57-2.55 1.273-2.55.707 0 1.277 1.14 1.277 2.55 0 2.817-1.406 5.102-3.14 5.102-1.735 0-3.141-2.285-3.141-5.102 0-1.41.57-2.55 1.273-2.55.707 0 1.277 1.14 1.277 2.55 0 2.817-1.406 5.102-3.14 5.102-1.735 0-3.14-2.285-3.14-5.102 0-1.41.57-2.55 1.273-2.55s1.277 1.14 1.277 2.55c0 2.817-1.406 5.102-3.14 5.102-1.739 0-3.145-2.285-3.145-5.102" transform="matrix(1 0 0 -1 27.797 .199)"/><path style="fill:none;stroke-width:.3985;stroke-linecap:butt;stroke-linejoin:miter;stroke:#cad40e;stroke-opacity:1;stroke-miterlimit:10" d="M204.098-99.215v21.262m0 0v42.52m0 0v21.26" transform="matrix(1 0 0 -1 27.797 .199)"/><path style="fill-rule:nonzero;fill:#cad40e;fill-opacity:1;stroke-width:.3985;stroke-linecap:butt;stroke-linejoin:miter;stroke:#cad40e;stroke-opacity:1;stroke-miterlimit:10" d="M153.394-7.563a1.36 1.36 0 1 1-2.72-.002 1.36 1.36 0 0 1 2.72.002Zm58.821 0a1.36 1.36 0 1 1-2.721-.002 1.36 1.36 0 0 1 2.72.002Zm-58.821-42.523a1.36 1.36 0 0 1-1.359 1.363 1.361 1.361 0 0 1 0-2.723c.75 0 1.36.61 1.36 1.36Zm58.821 0c0 .754-.61 1.363-1.36 1.363a1.361 1.361 0 0 1 0-2.723c.75 0 1.36.61 1.36 1.36Zm-58.821-42.52a1.359 1.359 0 1 1-2.719 0 1.36 1.36 0 0 1 2.72 0Zm58.821 0c0 .754-.61 1.36-1.36 1.36a1.36 1.36 0 1 1 1.36-1.36Zm0 0" transform="matrix(1 0 0 -1 27.797 .199)"/><use xlink:href="#i" x="3.321" y="56.746" style="fill:red;fill-opacity:1"/><use xlink:href="#j" x="10.444" y="56.746" style="fill:#cad40e;fill-opacity:1"/><use xlink:href="#k" x="15.345" y="56.746" style="fill:#000;fill-opacity:1"/></svg>
