<svg xmlns="http://www.w3.org/2000/svg" xmlns:xlink="http://www.w3.org/1999/xlink" width="377.367" height="151.712" viewBox="0 0 283.025 113.784"><defs><path id="b" d="M3.078-7.078h.594L6.609 0h-.734l-.922-2.219H1.781L.875 0h-.75Zm1.719 4.312-1.422-3.5-1.453 3.5Zm0 0"/><path id="c" d="M6.203-1.828q-.001.532-.266.953a1.87 1.87 0 0 1-.718.64A2.1 2.1 0 0 1 4.234 0H.891v-7.078h3.406q.497.001.86.266c.238.18.421.406.546.687a1.92 1.92 0 0 1-.062 1.828q-.27.456-.75.672.608.175.953.672.359.487.36 1.125m-.687-.11q-.001-.357-.172-.656a1.3 1.3 0 0 0-.438-.5 1 1 0 0 0-.61-.203H1.579v2.688h2.656q.343 0 .625-.188.293-.186.47-.484a1.25 1.25 0 0 0 .187-.657m-3.938-4.53v2.609h2.438q.34 0 .609-.188.28-.187.438-.484c.101-.196.156-.407.156-.625q-.002-.358-.157-.657a1.16 1.16 0 0 0-.406-.468.94.94 0 0 0-.578-.188Zm0 0"/><path id="d" d="M.422-3.594c0-.426.07-.847.219-1.265Q.875-5.482 1.297-6a3 3 0 0 1 1.047-.812 3.25 3.25 0 0 1 1.437-.313q.936.002 1.61.438.684.44 1 1.109l-.547.344a2.14 2.14 0 0 0-.578-.735 2 2 0 0 0-.75-.39 2.6 2.6 0 0 0-.782-.125q-.644.002-1.125.25-.487.25-.828.672a3.1 3.1 0 0 0-.5.953q-.174.516-.172 1.062 0 .598.204 1.125.199.533.562.953.358.41.844.657c.32.167.672.25 1.047.25q.404 0 .812-.141a2.6 2.6 0 0 0 .781-.422c.25-.195.446-.453.594-.766l.578.313q-.22.515-.687.89a3.2 3.2 0 0 1-1.016.563 3.5 3.5 0 0 1-1.094.188Q2.998.065 2.391-.25a3.5 3.5 0 0 1-1.063-.828 3.9 3.9 0 0 1-.672-1.188 3.9 3.9 0 0 1-.234-1.328m0 0"/><path id="f" d="M.328-1.5q0-.482.281-.828a1.75 1.75 0 0 1 .766-.547q.497-.201 1.14-.203.387.002.797.062.404.066.72.172v-.437c0-.438-.134-.785-.391-1.047q-.376-.388-1.063-.39a2.3 2.3 0 0 0-.828.155 4.3 4.3 0 0 0-.844.454l-.265-.47a4.4 4.4 0 0 1 1-.53 3.1 3.1 0 0 1 1-.172c.632 0 1.14.183 1.515.547q.563.549.563 1.515v2.407c0 .093.015.164.047.203q.06.065.203.078V0c-.074.008-.14.016-.203.016a.24.24 0 0 1-.11 0 .48.48 0 0 1-.516-.469l-.015-.39q-.344.456-.906.702a3 3 0 0 1-1.14.235 2 2 0 0 1-.907-.203 1.7 1.7 0 0 1-.625-.578A1.56 1.56 0 0 1 .328-1.5m3.485.406q.106-.139.156-.265a.7.7 0 0 0 .062-.235v-.765a4 4 0 0 0-.703-.188 3.5 3.5 0 0 0-.719-.078c-.492 0-.886.102-1.187.297q-.439.282-.438.781 0 .3.141.547.155.252.438.422.293.157.687.156c.32 0 .625-.062.906-.187q.422-.187.656-.485m0 0"/><path id="g" d="M3.297.094a2.2 2.2 0 0 1-1.14-.313A2.3 2.3 0 0 1 1.358-1v1H.75v-7.281h.672v3.172a3 3 0 0 1 .844-.844c.32-.219.703-.328 1.14-.328q.547 0 .969.234.435.223.75.61.31.377.469.859c.101.324.156.656.156 1q0 .55-.187 1.031A2.6 2.6 0 0 1 4.25-.109a2.3 2.3 0 0 1-.953.203M3.125-.5q.42.002.781-.172.358-.17.61-.469.264-.294.406-.671.14-.374.14-.766 0-.545-.234-1.031a2.03 2.03 0 0 0-.656-.782 1.62 1.62 0 0 0-.969-.296 1.5 1.5 0 0 0-.734.187q-.345.175-.61.469-.269.3-.437.64v1.61q.046.281.203.515.17.236.422.407.265.159.547.265.28.094.531.094m0 0"/><path id="i" d="M3 .094c-.375 0-.727-.07-1.047-.203a2.7 2.7 0 0 1-.828-.594 3 3 0 0 1-.547-.875A2.8 2.8 0 0 1 .391-2.61q0-.734.328-1.344.328-.607.906-.969.592-.359 1.36-.36c.488 0 .913.118 1.28.345q.564.327.844.89l-.656.203a1.6 1.6 0 0 0-.625-.61 1.7 1.7 0 0 0-.875-.234q-.518 0-.953.282c-.281.18-.508.422-.672.734q-.251.47-.25 1.063-.001.58.25 1.062.264.485.688.766.435.28.953.281.34.001.656-.11a1.9 1.9 0 0 0 .547-.327 1 1 0 0 0 .312-.454l.672.204q-.14.377-.468.671-.331.283-.766.454C3.64.039 3.332.094 3 .094m0 0"/><path id="j" d="M.89 0v-7.078h2.407q1.125.002 1.875.484.75.47 1.125 1.266.375.797.375 1.781-.001 1.079-.406 1.875A2.93 2.93 0 0 1 5.094-.437Q4.327 0 3.297 0Zm5.094-3.547q0-.843-.312-1.5a2.3 2.3 0 0 0-.922-1.031q-.598-.375-1.453-.375H1.578v5.828h1.719q.872 0 1.469-.375a2.54 2.54 0 0 0 .906-1.047q.311-.667.312-1.5m0 0"/><path id="k" d="M.313-.453 3.78-4.687H.391v-.5h4.172v.453L1.092-.516h3.454V0H.313Zm0 0"/><path id="l" d="M5.578-2.328A2.34 2.34 0 0 0 4.36-4.406a2.44 2.44 0 0 0-1.218-.313q-.457.002-.844.157a2.05 2.05 0 0 0-.688.453 2 2 0 0 0-.437.672c0-.657.082-1.211.25-1.672q.247-.685.687-1.047.436-.375 1.016-.375c.375 0 .71.105 1.016.312q.45.299.672.813l.437-.407a2.26 2.26 0 0 0-.86-.953 2.27 2.27 0 0 0-1.265-.359q-.768 0-1.36.469c-.398.312-.702.781-.921 1.406q-.328.938-.328 2.39 0 .927.328 1.594.328.658.906 1.016.574.345 1.313.344.702 0 1.265-.328a2.44 2.44 0 0 0 .906-.875q.342-.563.344-1.22M3.078-.5c-.336 0-.64-.082-.922-.25a2 2 0 0 1-.687-.656 1.76 1.76 0 0 1-.25-.922q-.001-.514.25-.922.248-.42.672-.672a1.87 1.87 0 0 1 .937-.25c.332 0 .64.086.922.25q.42.25.672.672.248.423.25.922c0 .336-.086.64-.25.922q-.25.41-.672.656-.423.251-.922.25m0 0"/><clipPath id="a"><path d="M0 0h283.023v113.785H0Zm0 0"/></clipPath><clipPath id="e"><path d="M169 0h114.023v107H169Zm0 0"/></clipPath><clipPath id="h"><path d="M163 51h119v62.785H163Zm0 0"/></clipPath></defs><g clip-path="url(#a)"><path fill="#fff" d="M0 113.785V0h283.027v113.785Zm0 0"/></g><path fill="none" stroke="red" stroke-miterlimit="10" stroke-width=".399" d="M27.707.2h56.695m0 0h56.692v7.085m0 0v7.086h-3.543m0 0H98.148m-20.41 0h-35.86l49.61 21.262m0 0 49.606 21.262h-3.543m0 0H98.148m-20.41 0h-35.86l49.61 21.257m0 0 49.606 21.262h-3.543m0 0H98.148m-20.41 0H34.793m0 0h-7.086v-49.61m0 0V.2"/><use xlink:href="#b" x="144.613" y="17.909"/><path fill="none" stroke="red" stroke-linejoin="bevel" stroke-miterlimit="10" stroke-width=".797" d="M98.547 14.531c0-2.816-1.406-5.101-3.14-5.101s-3.141 2.285-3.141 5.101c0 1.41.57 2.551 1.273 2.551.707 0 1.277-1.14 1.277-2.55 0-2.817-1.406-5.102-3.14-5.102s-3.14 2.285-3.14 5.101c0 1.41.57 2.551 1.273 2.551.707 0 1.277-1.14 1.277-2.55 0-2.817-1.406-5.102-3.14-5.102s-3.141 2.285-3.141 5.101c0 1.41.57 2.551 1.273 2.551s1.277-1.14 1.277-2.55c0-2.817-1.406-5.102-3.144-5.102-1.734 0-3.14 2.285-3.14 5.101 0 1.41.574 2.551 1.277 2.551s1.273-1.14 1.273-2.55c0-2.817-1.406-5.102-3.14-5.102s-3.141 2.285-3.141 5.101"/><use xlink:href="#c" x="144.613" y="60.429"/><path fill="none" stroke="red" stroke-linejoin="bevel" stroke-miterlimit="10" stroke-width=".797" d="M98.547 57.05c0-2.816-1.406-5.1-3.14-5.1s-3.141 2.284-3.141 5.1c0 1.41.57 2.552 1.273 2.552.707 0 1.277-1.141 1.277-2.551 0-2.817-1.406-5.102-3.14-5.102s-3.14 2.285-3.14 5.102c0 1.41.57 2.55 1.273 2.55.707 0 1.277-1.14 1.277-2.55 0-2.817-1.406-5.102-3.14-5.102s-3.141 2.285-3.141 5.102c0 1.41.57 2.55 1.273 2.55s1.277-1.14 1.277-2.55c0-2.817-1.406-5.102-3.144-5.102-1.734 0-3.14 2.285-3.14 5.102 0 1.41.574 2.55 1.277 2.55s1.273-1.14 1.273-2.55c0-2.817-1.406-5.102-3.14-5.102s-3.141 2.285-3.141 5.102"/><use xlink:href="#d" x="144.613" y="102.938"/><path fill="none" stroke="red" stroke-linejoin="bevel" stroke-miterlimit="10" stroke-width=".797" d="M98.547 99.57c0-2.816-1.406-5.101-3.14-5.101s-3.141 2.285-3.141 5.101c0 1.41.57 2.555 1.273 2.555.707 0 1.277-1.145 1.277-2.555 0-2.816-1.406-5.101-3.14-5.101s-3.14 2.285-3.14 5.101c0 1.41.57 2.555 1.273 2.555.707 0 1.277-1.145 1.277-2.555 0-2.816-1.406-5.101-3.14-5.101s-3.141 2.285-3.141 5.101c0 1.41.57 2.555 1.273 2.555s1.277-1.145 1.277-2.555c0-2.816-1.406-5.101-3.144-5.101-1.734 0-3.14 2.285-3.14 5.101 0 1.41.574 2.555 1.277 2.555s1.273-1.145 1.273-2.555c0-2.816-1.406-5.101-3.14-5.101s-3.141 2.285-3.141 5.101"/><path fill="red" stroke="red" stroke-miterlimit="10" stroke-width=".399" d="M104.516 7.762a1.36 1.36 0 1 0-2.721.002 1.36 1.36 0 0 0 2.72-.002Zm0 42.523a1.361 1.361 0 1 0-2.723-.004 1.361 1.361 0 0 0 2.723.004Zm0 42.52c0-.754-.61-1.36-1.36-1.36a1.359 1.359 0 1 0 0 2.72c.75 0 1.36-.61 1.36-1.36Zm0 0"/><g clip-path="url(#e)"><path fill="none" stroke="#cad40e" stroke-miterlimit="10" stroke-width=".399" d="M169.441 14.371v7.09m0 0v7.086h53.149m0 0h53.152V21.46m0 0v-7.09h-11.765m-20.41 0h-11.762V7.285m0 0V.2h21.968m0 0h25.512m0 0h3.543v53.149m0 0V106.5H229.68m0 0h-53.153v-3.543m0 0v-3.543h11.766m20.41 0h11.762"/></g><use xlink:href="#f" x="160.49" y="16.962"/><path fill="none" stroke="#cad40e" stroke-linejoin="bevel" stroke-miterlimit="10" stroke-width=".797" d="M264.375 14.531c0-2.816-1.406-5.101-3.14-5.101s-3.141 2.285-3.141 5.101c0 1.41.57 2.551 1.277 2.551.703 0 1.274-1.14 1.274-2.55 0-2.817-1.407-5.102-3.141-5.102s-3.14 2.285-3.14 5.101c0 1.41.57 2.551 1.273 2.551.707 0 1.277-1.14 1.277-2.55 0-2.817-1.406-5.102-3.14-5.102s-3.141 2.285-3.141 5.101c0 1.41.57 2.551 1.273 2.551.707 0 1.278-1.14 1.278-2.55 0-2.817-1.407-5.102-3.141-5.102s-3.14 2.285-3.14 5.101c0 1.41.57 2.551 1.273 2.551s1.277-1.14 1.277-2.55c0-2.817-1.406-5.102-3.144-5.102-1.735 0-3.141 2.285-3.141 5.101M187.895 99.57c0-2.816 1.406-5.101 3.14-5.101s3.14 2.285 3.14 5.101c0 1.41-.57 2.555-1.277 2.555-.703 0-1.273-1.145-1.273-2.555 0-2.816 1.406-5.101 3.14-5.101s3.141 2.285 3.141 5.101c0 1.41-.57 2.555-1.273 2.555-.707 0-1.278-1.145-1.278-2.555 0-2.816 1.407-5.101 3.141-5.101s3.14 2.285 3.14 5.101c0 1.41-.57 2.555-1.273 2.555-.707 0-1.277-1.145-1.277-2.555 0-2.816 1.406-5.101 3.14-5.101s3.141 2.285 3.141 5.101c0 1.41-.57 2.555-1.273 2.555s-1.278-1.145-1.278-2.555c0-2.816 1.407-5.101 3.141-5.101 1.738 0 3.145 2.285 3.145 5.101"/><path fill="none" stroke="#cad40e" stroke-miterlimit="10" stroke-width=".399" d="M169.441 56.895v7.085m0 0v7.086h53.149m0 0h53.152V63.98m0 0v-7.085h-11.765m-20.41 0h-11.762l-27.64-21.262m0 0L176.526 14.37h11.766m20.41 0h11.762"/><use xlink:href="#g" x="159.773" y="60.478"/><path fill="none" stroke="#cad40e" stroke-linejoin="bevel" stroke-miterlimit="10" stroke-width=".797" d="M264.375 57.05c0-2.816-1.406-5.1-3.14-5.1s-3.141 2.284-3.141 5.1c0 1.41.57 2.552 1.277 2.552.703 0 1.274-1.141 1.274-2.551 0-2.817-1.407-5.102-3.141-5.102s-3.14 2.285-3.14 5.102c0 1.41.57 2.55 1.273 2.55.707 0 1.277-1.14 1.277-2.55 0-2.817-1.406-5.102-3.14-5.102s-3.141 2.285-3.141 5.102c0 1.41.57 2.55 1.273 2.55.707 0 1.278-1.14 1.278-2.55 0-2.817-1.407-5.102-3.141-5.102s-3.14 2.285-3.14 5.102c0 1.41.57 2.55 1.273 2.55s1.277-1.14 1.277-2.55c0-2.817-1.406-5.102-3.144-5.102-1.735 0-3.141 2.285-3.141 5.102m-55.273-42.52c0-2.816 1.406-5.101 3.14-5.101s3.14 2.285 3.14 5.101c0 1.41-.57 2.551-1.277 2.551-.703 0-1.273-1.14-1.273-2.55 0-2.817 1.406-5.102 3.14-5.102s3.141 2.285 3.141 5.101c0 1.41-.57 2.551-1.273 2.551-.707 0-1.278-1.14-1.278-2.55 0-2.817 1.407-5.102 3.141-5.102s3.14 2.285 3.14 5.101c0 1.41-.57 2.551-1.273 2.551-.707 0-1.277-1.14-1.277-2.55 0-2.817 1.406-5.102 3.14-5.102s3.141 2.285 3.141 5.101c0 1.41-.57 2.551-1.273 2.551s-1.278-1.14-1.278-2.55c0-2.817 1.407-5.102 3.141-5.102 1.738 0 3.145 2.285 3.145 5.101"/><g clip-path="url(#h)"><path fill="none" stroke="#cad40e" stroke-miterlimit="10" stroke-width=".399" d="M169.441 99.414v7.086m0 0v7.086h53.149m0 0h53.152v-3.684m0-6.804v-3.684h-11.765m-20.41 0h-11.762l-27.64-21.262m0 0-27.638-21.257h11.766m20.41 0h11.762"/></g><use xlink:href="#i" x="160.45" y="102.002"/><path fill="none" stroke="#cad40e" stroke-linejoin="bevel" stroke-miterlimit="10" stroke-width=".399" d="M275.742 109.902v-2.043a1.359 1.359 0 1 1 0-2.719v-2.042"/><path fill="none" stroke="#cad40e" stroke-linejoin="bevel" stroke-miterlimit="10" stroke-width=".797" d="M264.375 99.57c0-2.816-1.406-5.101-3.14-5.101s-3.141 2.285-3.141 5.101c0 1.41.57 2.555 1.277 2.555.703 0 1.274-1.145 1.274-2.555 0-2.816-1.407-5.101-3.141-5.101s-3.14 2.285-3.14 5.101c0 1.41.57 2.555 1.273 2.555.707 0 1.277-1.145 1.277-2.555 0-2.816-1.406-5.101-3.14-5.101s-3.141 2.285-3.141 5.101c0 1.41.57 2.555 1.273 2.555.707 0 1.278-1.145 1.278-2.555 0-2.816-1.407-5.101-3.141-5.101s-3.14 2.285-3.14 5.101c0 1.41.57 2.555 1.273 2.555s1.277-1.145 1.277-2.555c0-2.816-1.406-5.101-3.144-5.101-1.735 0-3.141 2.285-3.141 5.101m-55.273-42.52c0-2.816 1.406-5.1 3.14-5.1s3.14 2.284 3.14 5.1c0 1.41-.57 2.552-1.277 2.552-.703 0-1.273-1.141-1.273-2.551 0-2.817 1.406-5.102 3.14-5.102s3.141 2.285 3.141 5.102c0 1.41-.57 2.55-1.273 2.55-.707 0-1.278-1.14-1.278-2.55 0-2.817 1.407-5.102 3.141-5.102s3.14 2.285 3.14 5.102c0 1.41-.57 2.55-1.273 2.55-.707 0-1.277-1.14-1.277-2.55 0-2.817 1.406-5.102 3.14-5.102s3.141 2.285 3.141 5.102c0 1.41-.57 2.55-1.273 2.55s-1.278-1.14-1.278-2.55c0-2.817 1.407-5.102 3.141-5.102 1.738 0 3.145 2.285 3.145 5.102"/><path fill="none" stroke="#cad40e" stroke-miterlimit="10" stroke-width=".399" d="M220.465 14.371v10.774m0 6.804v17.856m0 0v17.86m0 6.804v17.855m0 0v7.09"/><path fill="none" stroke="#cad40e" stroke-linejoin="bevel" stroke-miterlimit="10" stroke-width=".399" d="M220.465 25.145v2.039c.754 0 1.36.609 1.36 1.363 0 .75-.606 1.36-1.36 1.36v2.042m0 35.715v2.043a1.359 1.359 0 1 1 0 2.719v2.043"/><path fill="#cad40e" stroke="#cad40e" stroke-miterlimit="10" stroke-width=".399" d="M184.645 7.762a1.36 1.36 0 1 0-2.717.002 1.36 1.36 0 0 0 2.717-.002Zm55.277 0a1.36 1.36 0 1 0-2.72.002 1.36 1.36 0 0 0 2.72-.002Zm-55.277 42.523a1.359 1.359 0 1 0-2.72 0 1.36 1.36 0 0 0 2.72 0Zm55.277 0c0-.754-.61-1.363-1.36-1.363a1.361 1.361 0 0 0 0 2.723c.75 0 1.36-.61 1.36-1.36Zm-55.277 42.52c0-.754-.606-1.36-1.36-1.36a1.36 1.36 0 1 0 1.36 1.36Zm55.277 0a1.359 1.359 0 1 0-2.719 0 1.36 1.36 0 0 0 2.719 0Zm0 0"/><use xlink:href="#j" x="3.321" y="60.404" fill="red"/><use xlink:href="#k" x="10.444" y="60.404" fill="#cad40e"/><use xlink:href="#l" x="15.345" y="60.404"/></svg>
