<svg xmlns="http://www.w3.org/2000/svg" xmlns:xlink="http://www.w3.org/1999/xlink" width="379.877" height="143.44" viewBox="0 0 284.908 107.58"><defs><path id="b" d="M3.078-7.078h.594L6.609 0h-.734l-.922-2.219H1.781L.875 0h-.75Zm1.719 4.312-1.422-3.5-1.453 3.5Zm0 0"/><path id="c" d="M6.203-1.828q-.001.532-.266.953a1.87 1.87 0 0 1-.718.64A2.1 2.1 0 0 1 4.234 0H.891v-7.078h3.406q.497.001.86.266c.238.18.421.406.546.687a1.92 1.92 0 0 1-.062 1.828q-.27.456-.75.672.608.175.953.672.359.487.36 1.125m-.687-.11q-.001-.357-.172-.656a1.3 1.3 0 0 0-.438-.5 1 1 0 0 0-.61-.203H1.579v2.688h2.656q.343 0 .625-.188.293-.186.47-.484a1.25 1.25 0 0 0 .187-.657m-3.938-4.53v2.609h2.438q.34 0 .609-.188.28-.187.438-.484c.101-.196.156-.407.156-.625q-.002-.358-.157-.657a1.16 1.16 0 0 0-.406-.468.94.94 0 0 0-.578-.188Zm0 0"/><path id="d" d="M.422-3.594c0-.426.07-.847.219-1.265Q.875-5.482 1.297-6a3 3 0 0 1 1.047-.812 3.25 3.25 0 0 1 1.437-.313q.936.002 1.61.438.684.44 1 1.109l-.547.344a2.14 2.14 0 0 0-.578-.735 2 2 0 0 0-.75-.39 2.6 2.6 0 0 0-.782-.125q-.644.002-1.125.25-.487.25-.828.672a3.1 3.1 0 0 0-.5.953q-.174.516-.172 1.062 0 .598.204 1.125.199.533.562.953.358.41.844.657c.32.167.672.25 1.047.25q.404 0 .812-.141a2.6 2.6 0 0 0 .781-.422c.25-.195.446-.453.594-.766l.578.313q-.22.515-.687.89a3.2 3.2 0 0 1-1.016.563 3.5 3.5 0 0 1-1.094.188Q2.998.065 2.391-.25a3.5 3.5 0 0 1-1.063-.828 3.9 3.9 0 0 1-.672-1.188 3.9 3.9 0 0 1-.234-1.328m0 0"/><path id="e" d="M.328-1.5q0-.482.281-.828a1.75 1.75 0 0 1 .766-.547q.497-.201 1.14-.203.387.002.797.062.404.066.72.172v-.437c0-.438-.134-.785-.391-1.047q-.376-.388-1.063-.39a2.3 2.3 0 0 0-.828.155 4.3 4.3 0 0 0-.844.454l-.265-.47a4.4 4.4 0 0 1 1-.53 3.1 3.1 0 0 1 1-.172c.632 0 1.14.183 1.515.547q.563.549.563 1.515v2.407c0 .093.015.164.047.203q.06.065.203.078V0c-.074.008-.14.016-.203.016a.24.24 0 0 1-.11 0 .48.48 0 0 1-.516-.469l-.015-.39q-.344.456-.906.702a3 3 0 0 1-1.14.235 2 2 0 0 1-.907-.203 1.7 1.7 0 0 1-.625-.578A1.56 1.56 0 0 1 .328-1.5m3.485.406q.106-.139.156-.265a.7.7 0 0 0 .062-.235v-.765a4 4 0 0 0-.703-.188 3.5 3.5 0 0 0-.719-.078c-.492 0-.886.102-1.187.297q-.439.282-.438.781 0 .3.141.547.155.252.438.422.293.157.687.156c.32 0 .625-.062.906-.187q.422-.187.656-.485m0 0"/><path id="f" d="M3.297.094a2.2 2.2 0 0 1-1.14-.313A2.3 2.3 0 0 1 1.358-1v1H.75v-7.281h.672v3.172a3 3 0 0 1 .844-.844c.32-.219.703-.328 1.14-.328q.547 0 .969.234.435.223.75.61.31.377.469.859c.101.324.156.656.156 1q0 .55-.187 1.031A2.6 2.6 0 0 1 4.25-.109a2.3 2.3 0 0 1-.953.203M3.125-.5q.42.002.781-.172.358-.17.61-.469.264-.294.406-.671.14-.374.14-.766 0-.545-.234-1.031a2.03 2.03 0 0 0-.656-.782 1.62 1.62 0 0 0-.969-.296 1.5 1.5 0 0 0-.734.187q-.345.175-.61.469-.269.3-.437.64v1.61q.046.281.203.515.17.236.422.407.265.159.547.265.28.094.531.094m0 0"/><path id="h" d="M3 .094c-.375 0-.727-.07-1.047-.203a2.7 2.7 0 0 1-.828-.594 3 3 0 0 1-.547-.875A2.8 2.8 0 0 1 .391-2.61q0-.734.328-1.344.328-.607.906-.969.592-.359 1.36-.36c.488 0 .913.118 1.28.345q.564.327.844.89l-.656.203a1.6 1.6 0 0 0-.625-.61 1.7 1.7 0 0 0-.875-.234q-.518 0-.953.282c-.281.18-.508.422-.672.734q-.251.47-.25 1.063-.001.58.25 1.062.264.485.688.766.435.28.953.281.34.001.656-.11a1.9 1.9 0 0 0 .547-.327 1 1 0 0 0 .312-.454l.672.204q-.14.377-.468.671-.331.283-.766.454C3.64.039 3.332.094 3 .094m0 0"/><path id="i" d="m.922-7.078 2.312 3.812 2.344-3.812h.75L3.594-2.625V0H2.89v-2.656L.156-7.078Zm0 0"/><path id="j" d="M.313-.453 3.78-4.687H.391v-.5h4.172v.453L1.092-.516h3.454V0H.313Zm0 0"/><path id="k" d="M4.047-.625V0H.672v-.625h1.406v-4.266a1.1 1.1 0 0 1-.265.266 2.9 2.9 0 0 1-.922.453 1.3 1.3 0 0 1-.438.078v-.656c.156 0 .32-.04.5-.125a3.4 3.4 0 0 0 .516-.297q.246-.171.422-.312.17-.155.187-.203h.703v5.062Zm0 0"/><clipPath id="a"><path d="M0 0h284.906v107.578H0Zm0 0"/></clipPath><clipPath id="g"><path d="M171 7h113.906v100.578H171Zm0 0"/></clipPath></defs><g clip-path="url(#a)"><path fill="#fff" d="M0 107.578V0h284.906v107.578Zm0 0"/></g><path fill="none" stroke="#234e83" stroke-miterlimit="10" stroke-width=".399" d="M29.59 8.168h7.086m0 0H79.62m20.41 0h35.86m-106.3 42.52h7.086m0 0H79.62m20.41 0h35.86M29.59 93.207h7.086m0 0H79.62m20.41 0h35.86M29.59 8.168v42.52m0 0v42.519"/><path fill="none" stroke="#234e83" stroke-linejoin="bevel" stroke-miterlimit="10" stroke-width=".797" d="M79.223 8.328c0-2.82 1.406-5.101 3.14-5.101s3.14 2.28 3.14 5.101c0 1.41-.57 2.55-1.273 2.55-.707 0-1.277-1.14-1.277-2.55 0-2.82 1.406-5.101 3.14-5.101s3.141 2.28 3.141 5.101c0 1.41-.57 2.55-1.273 2.55s-1.277-1.14-1.277-2.55c0-2.82 1.406-5.101 3.14-5.101 1.739 0 3.145 2.28 3.145 5.101 0 1.41-.574 2.55-1.278 2.55-.703 0-1.273-1.14-1.273-2.55 0-2.82 1.406-5.101 3.14-5.101S96.7 5.507 96.7 8.328c0 1.41-.57 2.55-1.277 2.55-.703 0-1.274-1.14-1.274-2.55 0-2.82 1.407-5.101 3.141-5.101s3.14 2.28 3.14 5.101"/><use xlink:href="#b" x="139.409" y="11.705"/><path fill="none" stroke="#234e83" stroke-linejoin="bevel" stroke-miterlimit="10" stroke-width=".797" d="M79.223 50.848c0-2.82 1.406-5.102 3.14-5.102s3.14 2.281 3.14 5.102c0 1.41-.57 2.55-1.273 2.55-.707 0-1.277-1.14-1.277-2.55 0-2.82 1.406-5.102 3.14-5.102s3.141 2.281 3.141 5.102c0 1.41-.57 2.55-1.273 2.55s-1.277-1.14-1.277-2.55c0-2.82 1.406-5.102 3.14-5.102 1.739 0 3.145 2.281 3.145 5.102 0 1.41-.574 2.55-1.278 2.55-.703 0-1.273-1.14-1.273-2.55 0-2.82 1.406-5.102 3.14-5.102s3.141 2.281 3.141 5.102c0 1.41-.57 2.55-1.277 2.55-.703 0-1.274-1.14-1.274-2.55 0-2.82 1.407-5.102 3.141-5.102s3.14 2.281 3.14 5.102"/><use xlink:href="#c" x="139.409" y="54.225"/><path fill="none" stroke="#234e83" stroke-linejoin="bevel" stroke-miterlimit="10" stroke-width=".797" d="M79.223 93.367c0-2.816 1.406-5.101 3.14-5.101s3.14 2.285 3.14 5.101c0 1.41-.57 2.551-1.273 2.551-.707 0-1.277-1.14-1.277-2.55 0-2.817 1.406-5.102 3.14-5.102s3.141 2.285 3.141 5.101c0 1.41-.57 2.551-1.273 2.551s-1.277-1.14-1.277-2.55c0-2.817 1.406-5.102 3.14-5.102 1.739 0 3.145 2.285 3.145 5.101 0 1.41-.574 2.551-1.278 2.551-.703 0-1.273-1.14-1.273-2.55 0-2.817 1.406-5.102 3.14-5.102S96.7 90.55 96.7 93.367c0 1.41-.57 2.551-1.277 2.551-.703 0-1.274-1.14-1.274-2.55 0-2.817 1.407-5.102 3.141-5.102s3.14 2.285 3.14 5.101"/><use xlink:href="#d" x="139.409" y="96.734"/><path fill="#234e83" stroke="#234e83" stroke-miterlimit="10" stroke-width=".399" d="M106.398 1.559a1.361 1.361 0 0 0-2.722 0c0 .754.61 1.359 1.36 1.359.753 0 1.362-.605 1.362-1.36Zm0 42.519a1.361 1.361 0 0 0-2.722 0c0 .754.61 1.36 1.36 1.36.753 0 1.362-.606 1.362-1.36Zm0 42.52a1.361 1.361 0 1 0-2.722.003 1.361 1.361 0 0 0 2.722-.003Zm0 0"/><path fill="none" stroke="#cad40e" stroke-miterlimit="10" stroke-width=".399" d="M171.32 8.168h15.309m20.41 0h15.309l27.636 21.262m0 0 27.637 21.258H265.86m-20.41 0h-11.765"/><use xlink:href="#e" x="162.373" y="10.758"/><path fill="none" stroke="#cad40e" stroke-linejoin="bevel" stroke-miterlimit="10" stroke-width=".797" d="M186.23 8.328c0-2.82 1.407-5.101 3.141-5.101s3.14 2.28 3.14 5.101c0 1.41-.57 2.55-1.273 2.55-.707 0-1.277-1.14-1.277-2.55 0-2.82 1.406-5.101 3.14-5.101s3.141 2.28 3.141 5.101c0 1.41-.57 2.55-1.273 2.55s-1.278-1.14-1.278-2.55c0-2.82 1.407-5.101 3.145-5.101 1.734 0 3.14 2.28 3.14 5.101 0 1.41-.574 2.55-1.277 2.55s-1.273-1.14-1.273-2.55c0-2.82 1.406-5.101 3.14-5.101s3.141 2.28 3.141 5.101c0 1.41-.57 2.55-1.277 2.55-.703 0-1.274-1.14-1.274-2.55 0-2.82 1.406-5.101 3.14-5.101s3.142 2.28 3.142 5.101m58.82 42.52c0-2.82-1.406-5.102-3.145-5.102-1.734 0-3.14 2.281-3.14 5.102 0 1.41.574 2.55 1.277 2.55s1.273-1.14 1.273-2.55c0-2.82-1.406-5.102-3.14-5.102s-3.14 2.281-3.14 5.102c0 1.41.57 2.55 1.277 2.55.703 0 1.273-1.14 1.273-2.55 0-2.82-1.406-5.102-3.14-5.102s-3.141 2.281-3.141 5.102c0 1.41.57 2.55 1.277 2.55.703 0 1.274-1.14 1.274-2.55 0-2.82-1.407-5.102-3.141-5.102s-3.14 2.281-3.14 5.102c0 1.41.57 2.55 1.273 2.55.707 0 1.277-1.14 1.277-2.55 0-2.82-1.406-5.102-3.14-5.102s-3.141 2.281-3.141 5.102"/><path fill="none" stroke="#cad40e" stroke-miterlimit="10" stroke-width=".399" d="M171.32 50.688h15.309m20.41 0h15.309l27.636 21.261m0 0 27.637 21.258H265.86m-20.41 0h-11.765"/><use xlink:href="#f" x="161.656" y="54.274"/><path fill="none" stroke="#cad40e" stroke-linejoin="bevel" stroke-miterlimit="10" stroke-width=".797" d="M186.23 50.848c0-2.82 1.407-5.102 3.141-5.102s3.14 2.281 3.14 5.102c0 1.41-.57 2.55-1.273 2.55-.707 0-1.277-1.14-1.277-2.55 0-2.82 1.406-5.102 3.14-5.102s3.141 2.281 3.141 5.102c0 1.41-.57 2.55-1.273 2.55s-1.278-1.14-1.278-2.55c0-2.82 1.407-5.102 3.145-5.102 1.734 0 3.14 2.281 3.14 5.102 0 1.41-.574 2.55-1.277 2.55s-1.273-1.14-1.273-2.55c0-2.82 1.406-5.102 3.14-5.102s3.141 2.281 3.141 5.102c0 1.41-.57 2.55-1.277 2.55-.703 0-1.274-1.14-1.274-2.55 0-2.82 1.406-5.102 3.14-5.102s3.142 2.281 3.142 5.102m58.82 42.519c0-2.816-1.406-5.101-3.145-5.101-1.734 0-3.14 2.285-3.14 5.101 0 1.41.574 2.551 1.277 2.551s1.273-1.14 1.273-2.55c0-2.817-1.406-5.102-3.14-5.102s-3.14 2.285-3.14 5.101c0 1.41.57 2.551 1.277 2.551.703 0 1.273-1.14 1.273-2.55 0-2.817-1.406-5.102-3.14-5.102s-3.141 2.285-3.141 5.101c0 1.41.57 2.551 1.277 2.551.703 0 1.274-1.14 1.274-2.55 0-2.817-1.407-5.102-3.141-5.102s-3.14 2.285-3.14 5.101c0 1.41.57 2.551 1.273 2.551.707 0 1.277-1.14 1.277-2.55 0-2.817-1.406-5.102-3.14-5.102s-3.141 2.285-3.141 5.101"/><g clip-path="url(#g)"><path fill="none" stroke="#cad40e" stroke-miterlimit="10" stroke-width=".399" d="M171.32 93.207h15.309m20.41 0h15.309v7.086m0 0v7.086h31.18m0 0h31.179V57.773m0 0V8.168h-15.305m-20.41 0h-15.308"/></g><use xlink:href="#h" x="162.333" y="95.798"/><path fill="none" stroke="#cad40e" stroke-linejoin="bevel" stroke-miterlimit="10" stroke-width=".797" d="M186.23 93.367c0-2.816 1.407-5.101 3.141-5.101s3.14 2.285 3.14 5.101c0 1.41-.57 2.551-1.273 2.551-.707 0-1.277-1.14-1.277-2.55 0-2.817 1.406-5.102 3.14-5.102s3.141 2.285 3.141 5.101c0 1.41-.57 2.551-1.273 2.551s-1.278-1.14-1.278-2.55c0-2.817 1.407-5.102 3.145-5.102 1.734 0 3.14 2.285 3.14 5.101 0 1.41-.574 2.551-1.277 2.551s-1.273-1.14-1.273-2.55c0-2.817 1.406-5.102 3.14-5.102s3.141 2.285 3.141 5.101c0 1.41-.57 2.551-1.277 2.551-.703 0-1.274-1.14-1.274-2.55 0-2.817 1.406-5.102 3.14-5.102s3.142 2.285 3.142 5.101M269.8 8.328c0-2.82-1.405-5.101-3.14-5.101-1.738 0-3.144 2.28-3.144 5.101 0 1.41.574 2.55 1.277 2.55s1.277-1.14 1.277-2.55c0-2.82-1.41-5.101-3.144-5.101s-3.14 2.28-3.14 5.101c0 1.41.57 2.55 1.276 2.55.704 0 1.274-1.14 1.274-2.55 0-2.82-1.406-5.101-3.14-5.101s-3.141 2.28-3.141 5.101c0 1.41.57 2.55 1.277 2.55.703 0 1.273-1.14 1.273-2.55 0-2.82-1.406-5.101-3.14-5.101s-3.14 2.28-3.14 5.101c0 1.41.57 2.55 1.273 2.55.707 0 1.277-1.14 1.277-2.55 0-2.82-1.406-5.101-3.14-5.101s-3.141 2.28-3.141 5.101"/><path fill="none" stroke="#cad40e" stroke-miterlimit="10" stroke-width=".399" d="M233.684 8.168V29.43m0 0v42.52m0 0v21.257"/><path fill="#cad40e" stroke="#cad40e" stroke-miterlimit="10" stroke-width=".399" d="M182.984 1.559a1.36 1.36 0 1 0-2.72.002 1.36 1.36 0 0 0 2.72-.002Zm62.364 0a1.361 1.361 0 0 0-2.723 0c0 .754.61 1.359 1.36 1.359.753 0 1.363-.605 1.363-1.36Zm-62.364 42.519a1.36 1.36 0 1 0-2.72.002 1.36 1.36 0 0 0 2.72-.002Zm58.821 0a1.361 1.361 0 0 0-2.723 0c0 .754.61 1.36 1.36 1.36a1.36 1.36 0 0 0 1.363-1.36Zm-58.821 42.52a1.36 1.36 0 1 0-2.72.002 1.36 1.36 0 0 0 2.72-.002Zm58.821 0a1.361 1.361 0 1 0-2.723.003 1.361 1.361 0 0 0 2.723-.003Zm0 0"/><use xlink:href="#i" x="3.321" y="57.327" fill="#234e83"/><use xlink:href="#j" x="9.806" y="57.327" fill="#cad40e"/><use xlink:href="#k" x="14.708" y="57.327"/><use xlink:href="#k" x="18.972" y="57.327"/></svg>
