<svg xmlns="http://www.w3.org/2000/svg" xmlns:xlink="http://www.w3.org/1999/xlink" width="377.472" height="151.712" viewBox="0 0 283.104 113.784"><defs><path id="a" d="M3.078-7.078h.594L6.609 0h-.734l-.922-2.219H1.781L.875 0h-.75Zm1.719 4.312-1.422-3.5-1.453 3.5Zm0 0"/><path id="b" d="M6.203-1.828q-.001.532-.266.953a1.87 1.87 0 0 1-.718.64A2.1 2.1 0 0 1 4.234 0H.891v-7.078h3.406q.497.001.86.266c.238.18.421.406.546.687a1.92 1.92 0 0 1-.062 1.828q-.27.456-.75.672.608.175.953.672.359.487.36 1.125m-.687-.11q-.001-.357-.172-.656a1.3 1.3 0 0 0-.438-.5 1 1 0 0 0-.61-.203H1.579v2.688h2.656q.343 0 .625-.188.293-.186.47-.484a1.25 1.25 0 0 0 .187-.657m-3.938-4.53v2.609h2.438q.34 0 .609-.188.28-.187.438-.484c.101-.196.156-.407.156-.625q-.002-.358-.157-.657a1.16 1.16 0 0 0-.406-.468.94.94 0 0 0-.578-.188Zm0 0"/><path id="c" d="M.422-3.594c0-.426.07-.847.219-1.265Q.875-5.482 1.297-6a3 3 0 0 1 1.047-.812 3.25 3.25 0 0 1 1.437-.313q.936.002 1.61.438.684.44 1 1.109l-.547.344a2.14 2.14 0 0 0-.578-.735 2 2 0 0 0-.75-.39 2.6 2.6 0 0 0-.782-.125q-.644.002-1.125.25-.487.25-.828.672a3.1 3.1 0 0 0-.5.953q-.174.516-.172 1.062 0 .598.204 1.125.199.533.562.953.358.41.844.657c.32.167.672.25 1.047.25q.404 0 .812-.141a2.6 2.6 0 0 0 .781-.422c.25-.195.446-.453.594-.766l.578.313q-.22.515-.687.89a3.2 3.2 0 0 1-1.016.563 3.5 3.5 0 0 1-1.094.188Q2.998.065 2.391-.25a3.5 3.5 0 0 1-1.063-.828 3.9 3.9 0 0 1-.672-1.188 3.9 3.9 0 0 1-.234-1.328m0 0"/><path id="e" d="M.328-1.5q0-.482.281-.828a1.75 1.75 0 0 1 .766-.547q.497-.201 1.14-.203.387.002.797.062.404.066.72.172v-.437c0-.438-.134-.785-.391-1.047q-.376-.388-1.063-.39a2.3 2.3 0 0 0-.828.155 4.3 4.3 0 0 0-.844.454l-.265-.47a4.4 4.4 0 0 1 1-.53 3.1 3.1 0 0 1 1-.172c.632 0 1.14.183 1.515.547q.563.549.563 1.515v2.407c0 .093.015.164.047.203q.06.065.203.078V0c-.074.008-.14.016-.203.016a.24.24 0 0 1-.11 0 .48.48 0 0 1-.516-.469l-.015-.39q-.344.456-.906.702a3 3 0 0 1-1.14.235 2 2 0 0 1-.907-.203 1.7 1.7 0 0 1-.625-.578A1.56 1.56 0 0 1 .328-1.5m3.485.406q.106-.139.156-.265a.7.7 0 0 0 .062-.235v-.765a4 4 0 0 0-.703-.188 3.5 3.5 0 0 0-.719-.078c-.492 0-.886.102-1.187.297q-.439.282-.438.781 0 .3.141.547.155.252.438.422.293.157.687.156c.32 0 .625-.062.906-.187q.422-.187.656-.485m0 0"/><path id="f" d="M3.297.094a2.2 2.2 0 0 1-1.14-.313A2.3 2.3 0 0 1 1.358-1v1H.75v-7.281h.672v3.172a3 3 0 0 1 .844-.844c.32-.219.703-.328 1.14-.328q.547 0 .969.234.435.223.75.61.31.377.469.859c.101.324.156.656.156 1q0 .55-.187 1.031A2.6 2.6 0 0 1 4.25-.109a2.3 2.3 0 0 1-.953.203M3.125-.5q.42.002.781-.172.358-.17.61-.469.264-.294.406-.671.14-.374.14-.766 0-.545-.234-1.031a2.03 2.03 0 0 0-.656-.782 1.62 1.62 0 0 0-.969-.296 1.5 1.5 0 0 0-.734.187q-.345.175-.61.469-.269.3-.437.64v1.61q.046.281.203.515.17.236.422.407.265.159.547.265.28.094.531.094m0 0"/><path id="h" d="M3 .094c-.375 0-.727-.07-1.047-.203a2.7 2.7 0 0 1-.828-.594 3 3 0 0 1-.547-.875A2.8 2.8 0 0 1 .391-2.61q0-.734.328-1.344.328-.607.906-.969.592-.359 1.36-.36c.488 0 .913.118 1.28.345q.564.327.844.89l-.656.203a1.6 1.6 0 0 0-.625-.61 1.7 1.7 0 0 0-.875-.234q-.518 0-.953.282c-.281.18-.508.422-.672.734q-.251.47-.25 1.063-.001.58.25 1.062.264.485.688.766.435.28.953.281.34.001.656-.11a1.9 1.9 0 0 0 .547-.327 1 1 0 0 0 .312-.454l.672.204q-.14.377-.468.671-.331.283-.766.454C3.64.039 3.332.094 3 .094m0 0"/><path id="i" d="m.922-7.078 2.312 3.812 2.344-3.812h.75L3.594-2.625V0H2.89v-2.656L.156-7.078Zm0 0"/><path id="j" d="M.406-2.578q0-.734.297-1.344.294-.621.828-.984.545-.375 1.235-.375.656.002 1.172.343.515.347.796.829v-3.172h.672v6.469c0 .093.02.164.063.203q.058.065.187.078V0q-.205.028-.312.016A.537.537 0 0 1 4.812-.5V-1q-.316.504-.843.797-.518.299-1.094.297-.533 0-.984-.219a2.5 2.5 0 0 1-.797-.594 2.9 2.9 0 0 1-.516-.86 2.9 2.9 0 0 1-.172-1m4.328.797v-1.61a1.8 1.8 0 0 0-.421-.656 2.2 2.2 0 0 0-.657-.469 1.69 1.69 0 0 0-1.484 0 1.8 1.8 0 0 0-.578.485q-.236.298-.375.672c-.086.25-.125.511-.125.78q0 .423.14.798.153.377.422.672.264.3.61.453.356.157.765.156.263 0 .531-.094.281-.105.532-.281.264-.17.422-.406.17-.247.218-.5m0 0"/><path id="k" d="M2.61 1.484q-.75 0-1.36-.375A2.34 2.34 0 0 1 .344.125l.453-.328q.28.481.766.781c.32.195.675.297 1.062.297q.498 0 .89-.219a1.73 1.73 0 0 0 .626-.61q.234-.386.234-.89c0-.32-.078-.61-.234-.86a1.5 1.5 0 0 0-.61-.577 1.66 1.66 0 0 0-.844-.219q-.468.002-.89.203a1.75 1.75 0 0 0-.672.594H.5l.781-3.984h3.422v.625H1.797l-.484 2.546c.164-.187.375-.332.625-.437q.387-.154.828-.156.639.002 1.156.297A2.18 2.18 0 0 1 5.078-.86q-.002.703-.344 1.218a2.3 2.3 0 0 1-.89.829 2.6 2.6 0 0 1-1.235.296m0 0"/><clipPath id="d"><path d="M169 0h114.105v100H169Zm0 0"/></clipPath><clipPath id="g"><path d="M163 65h119v48.785H163Zm0 0"/></clipPath></defs><path fill="#fff" d="M0 113.785V0h283.11v113.785Zm0 0"/><path fill="none" stroke="#234e83" stroke-miterlimit="10" stroke-width=".399" d="M27.785 14.371h7.09m0 0H77.82m20.41 0h35.856m-106.3 42.524h7.089m0 0H77.82m20.41 0h35.856m-106.3 42.52h7.089m0 0H77.82m20.41 0h35.856M27.786 14.37v42.524m0 0v42.52"/><path fill="none" stroke="#234e83" stroke-linejoin="bevel" stroke-miterlimit="10" stroke-width=".797" d="M77.422 14.531c0-2.816 1.406-5.101 3.14-5.101s3.141 2.285 3.141 5.101c0 1.41-.57 2.551-1.277 2.551-.703 0-1.274-1.14-1.274-2.55 0-2.817 1.407-5.102 3.141-5.102s3.14 2.285 3.14 5.101c0 1.41-.57 2.551-1.273 2.551-.707 0-1.277-1.14-1.277-2.55 0-2.817 1.406-5.102 3.14-5.102s3.141 2.285 3.141 5.101c0 1.41-.57 2.551-1.273 2.551-.707 0-1.278-1.14-1.278-2.55 0-2.817 1.407-5.102 3.14-5.102 1.735 0 3.142 2.285 3.142 5.101 0 1.41-.57 2.551-1.274 2.551-.703 0-1.277-1.14-1.277-2.55 0-2.817 1.406-5.102 3.14-5.102 1.739 0 3.145 2.285 3.145 5.101"/><use xlink:href="#a" x="137.606" y="17.909"/><path fill="none" stroke="#234e83" stroke-linejoin="bevel" stroke-miterlimit="10" stroke-width=".797" d="M77.422 57.05c0-2.816 1.406-5.1 3.14-5.1s3.141 2.284 3.141 5.1c0 1.41-.57 2.552-1.277 2.552-.703 0-1.274-1.141-1.274-2.551 0-2.817 1.407-5.102 3.141-5.102s3.14 2.285 3.14 5.102c0 1.41-.57 2.55-1.273 2.55-.707 0-1.277-1.14-1.277-2.55 0-2.817 1.406-5.102 3.14-5.102s3.141 2.285 3.141 5.102c0 1.41-.57 2.55-1.273 2.55-.707 0-1.278-1.14-1.278-2.55 0-2.817 1.407-5.102 3.14-5.102 1.735 0 3.142 2.285 3.142 5.102 0 1.41-.57 2.55-1.274 2.55-.703 0-1.277-1.14-1.277-2.55 0-2.817 1.406-5.102 3.14-5.102 1.739 0 3.145 2.285 3.145 5.102"/><use xlink:href="#b" x="137.606" y="60.429"/><path fill="none" stroke="#234e83" stroke-linejoin="bevel" stroke-miterlimit="10" stroke-width=".797" d="M77.422 99.57c0-2.816 1.406-5.101 3.14-5.101s3.141 2.285 3.141 5.101c0 1.41-.57 2.555-1.277 2.555-.703 0-1.274-1.145-1.274-2.555 0-2.816 1.407-5.101 3.141-5.101s3.14 2.285 3.14 5.101c0 1.41-.57 2.555-1.273 2.555-.707 0-1.277-1.145-1.277-2.555 0-2.816 1.406-5.101 3.14-5.101s3.141 2.285 3.141 5.101c0 1.41-.57 2.555-1.273 2.555-.707 0-1.278-1.145-1.278-2.555 0-2.816 1.407-5.101 3.14-5.101 1.735 0 3.142 2.285 3.142 5.101 0 1.41-.57 2.555-1.274 2.555-.703 0-1.277-1.145-1.277-2.555 0-2.816 1.406-5.101 3.14-5.101 1.739 0 3.145 2.285 3.145 5.101"/><use xlink:href="#c" x="137.606" y="102.938"/><path fill="#234e83" stroke="#234e83" stroke-miterlimit="10" stroke-width=".399" d="M104.594 7.762a1.36 1.36 0 1 0-2.721.002 1.36 1.36 0 0 0 2.72-.002Zm0 42.523c0-.754-.61-1.363-1.36-1.363a1.361 1.361 0 0 0 0 2.723c.75 0 1.36-.61 1.36-1.36Zm0 42.52a1.359 1.359 0 1 0-2.719 0 1.36 1.36 0 0 0 2.719 0Zm0 0"/><g clip-path="url(#d)"><path fill="none" stroke="red" stroke-miterlimit="10" stroke-width=".399" d="M169.52 14.371v7.09m0 0v7.086h53.152m0 0h53.148V21.46m0 0v-7.09h-35.855m-20.41 0h-35.86V7.285m0 0V.2h49.606m0 0h49.61v49.606m0 0v49.61h-3.548m0 0h-3.543"/></g><use xlink:href="#e" x="160.57" y="16.962"/><path fill="none" stroke="red" stroke-linejoin="bevel" stroke-miterlimit="10" stroke-width=".797" d="M240.363 14.531c0-2.816-1.406-5.101-3.144-5.101-1.735 0-3.14 2.285-3.14 5.101 0 1.41.57 2.551 1.276 2.551.704 0 1.274-1.14 1.274-2.55 0-2.817-1.406-5.102-3.14-5.102s-3.141 2.285-3.141 5.101c0 1.41.57 2.551 1.277 2.551.703 0 1.273-1.14 1.273-2.55 0-2.817-1.406-5.102-3.14-5.102s-3.14 2.285-3.14 5.101c0 1.41.57 2.551 1.273 2.551.707 0 1.277-1.14 1.277-2.55 0-2.817-1.406-5.102-3.14-5.102s-3.141 2.285-3.141 5.101c0 1.41.57 2.551 1.273 2.551.707 0 1.278-1.14 1.278-2.55 0-2.817-1.407-5.102-3.141-5.102s-3.14 2.285-3.14 5.101"/><path fill="none" stroke="red" stroke-miterlimit="10" stroke-width=".399" d="M169.52 56.895v7.085m0 0v7.086h53.152m0 0h53.148V63.98m0 0v-7.085h-35.855m-20.41 0h-35.86l46.063-14.176m0 0 46.062-14.172"/><use xlink:href="#f" x="159.853" y="60.478"/><path fill="none" stroke="red" stroke-linejoin="bevel" stroke-miterlimit="10" stroke-width=".797" d="M240.363 57.05c0-2.816-1.406-5.1-3.144-5.1-1.735 0-3.14 2.284-3.14 5.1 0 1.41.57 2.552 1.276 2.552.704 0 1.274-1.141 1.274-2.551 0-2.817-1.406-5.102-3.14-5.102s-3.141 2.285-3.141 5.102c0 1.41.57 2.55 1.277 2.55.703 0 1.273-1.14 1.273-2.55 0-2.817-1.406-5.102-3.14-5.102s-3.14 2.285-3.14 5.102c0 1.41.57 2.55 1.273 2.55.707 0 1.277-1.14 1.277-2.55 0-2.817-1.406-5.102-3.14-5.102s-3.141 2.285-3.141 5.102c0 1.41.57 2.55 1.273 2.55.707 0 1.278-1.14 1.278-2.55 0-2.817-1.407-5.102-3.141-5.102s-3.14 2.285-3.14 5.102"/><g clip-path="url(#g)"><path fill="none" stroke="red" stroke-miterlimit="10" stroke-width=".399" d="M169.52 99.414v7.086m0 0v7.086h53.152m0 0h53.148V106.5m0 0v-7.086h-35.855m-20.41 0h-35.86l46.063-14.176m0 0 46.062-14.172"/></g><use xlink:href="#h" x="160.53" y="102.002"/><path fill="none" stroke="red" stroke-linejoin="bevel" stroke-miterlimit="10" stroke-width=".797" d="M240.363 99.57c0-2.816-1.406-5.101-3.144-5.101-1.735 0-3.14 2.285-3.14 5.101 0 1.41.57 2.555 1.276 2.555.704 0 1.274-1.145 1.274-2.555 0-2.816-1.406-5.101-3.14-5.101s-3.141 2.285-3.141 5.101c0 1.41.57 2.555 1.277 2.555.703 0 1.273-1.145 1.273-2.555 0-2.816-1.406-5.101-3.14-5.101s-3.14 2.285-3.14 5.101c0 1.41.57 2.555 1.273 2.555.707 0 1.277-1.145 1.277-2.555 0-2.816-1.406-5.101-3.14-5.101s-3.141 2.285-3.141 5.101c0 1.41.57 2.555 1.273 2.555.707 0 1.278-1.145 1.278-2.555 0-2.816-1.407-5.101-3.141-5.101s-3.14 2.285-3.14 5.101"/><path fill="red" stroke="red" stroke-miterlimit="10" stroke-width=".399" d="M215.906 7.762a1.36 1.36 0 1 0-2.72.002 1.36 1.36 0 0 0 2.72-.002Zm0 42.523c0-.754-.61-1.363-1.36-1.363a1.361 1.361 0 0 0 0 2.723c.75 0 1.36-.61 1.36-1.36Zm0 42.52a1.359 1.359 0 1 0-2.718 0 1.36 1.36 0 0 0 2.718 0Zm0 0"/><use xlink:href="#i" x="3.321" y="59.786" fill="#234e83"/><use xlink:href="#j" x="9.806" y="59.786" fill="red"/><use xlink:href="#k" x="16.003" y="59.786"/></svg>
