<svg xmlns="http://www.w3.org/2000/svg" xmlns:xlink="http://www.w3.org/1999/xlink" width="76.121" height="138.772" viewBox="0 0 57.091 104.079"><defs><clipPath id="a"><path d="M0 0h57.09v104.078H0Zm0 0"/></clipPath><clipPath id="g"><path d="M0 102h57.09v1H0Zm0 0"/></clipPath><clipPath id="h"><path d="M21 95h15v9.078H21Zm0 0"/></clipPath><clipPath id="i"><path d="M0 73h57.09v2H0Zm0 0"/></clipPath><clipPath id="j"><path d="M0 45h57.09v2H0Zm0 0"/></clipPath><clipPath id="k"><path d="M0 17h57.09v1H0Zm0 0"/></clipPath><path id="b" d="M.86-7.078 3.39-.875l2.516-6.203h.735L3.703 0h-.625L.125-7.078Zm0 0"/><path id="c" d="M.266-1.187c0-.258.07-.485.218-.672q.217-.295.61-.453c.27-.102.578-.157.922-.157.195 0 .406.024.625.063q.326.047.593.14v-.359c0-.344-.105-.617-.312-.828q-.315-.312-.86-.313-.344.001-.671.125-.316.127-.672.36l-.203-.39q.405-.266.797-.407.386-.14.796-.14.763.002 1.204.437.451.44.453 1.203v1.922q0 .112.046.172.047.045.157.046V0c-.063.008-.117.016-.156.016a.2.2 0 0 1-.094 0q-.206.001-.313-.125a.4.4 0 0 1-.094-.25l-.015-.313a1.86 1.86 0 0 1-.735.563 2.25 2.25 0 0 1-.89.187c-.274 0-.516-.058-.734-.172a1.4 1.4 0 0 1-.5-.453 1.2 1.2 0 0 1-.172-.64m2.78.312q.079-.107.126-.203.06-.107.062-.203v-.594a3 3 0 0 0-.578-.156 3 3 0 0 0-.578-.063q-.581 0-.937.235a.69.69 0 0 0-.36.625q-.001.236.11.437.124.204.359.344.232.127.547.125.389.002.719-.156c.226-.102.406-.235.53-.391m0 0"/><path id="d" d="M2.625.078q-.485.001-.906-.25a1.8 1.8 0 0 1-.64-.64V0H.593v-5.812h.547v2.53q.28-.42.672-.671c.257-.176.562-.266.906-.266q.434 0 .781.188.341.174.594.484.246.3.375.688.124.392.125.797-.002.44-.157.828-.14.376-.406.672-.268.299-.625.468-.361.172-.781.172M2.5-.39c.227 0 .438-.046.625-.14q.281-.141.484-.375.217-.233.329-.531.107-.311.109-.625 0-.436-.188-.829a1.6 1.6 0 0 0-.515-.625 1.3 1.3 0 0 0-.781-.234 1.23 1.23 0 0 0-.594.156q-.269.141-.485.375-.204.234-.343.516v1.281a.9.9 0 0 0 .156.406q.14.188.344.329.198.126.422.218c.156.055.3.078.437.078m0 0"/><path id="e" d="M2.406.078q-.469 0-.844-.172a2.1 2.1 0 0 1-.656-.468 2.26 2.26 0 0 1-.593-1.532c0-.383.085-.738.265-1.062q.265-.5.735-.781A2.06 2.06 0 0 1 2.39-4.22q.574.001 1.015.266.45.269.672.719l-.531.172a1.2 1.2 0 0 0-.485-.5 1.35 1.35 0 0 0-.703-.188q-.41 0-.75.219a1.57 1.57 0 0 0-.546.594q-.205.374-.204.843 0 .471.204.86.217.375.546.609.343.234.766.234.264 0 .516-.093.248-.106.437-.266a.9.9 0 0 0 .25-.36l.547.157q-.112.298-.375.531-.27.234-.61.375a2.2 2.2 0 0 1-.734.125m0 0"/><path id="f" d="M4.094 0h-.547v-2.312q0-.733-.219-1.079-.221-.341-.672-.343-.329.001-.64.156a1.9 1.9 0 0 0-.532.422c-.156.18-.273.383-.343.61V0H.594v-4.156h.5v.937q.169-.293.437-.515c.176-.157.38-.274.61-.36.226-.082.468-.125.718-.125q.342.001.579.125a1 1 0 0 1 .374.36q.14.234.204.562.077.33.078.735Zm0 0"/></defs><g clip-path="url(#a)"><path fill="#fff" d="M0 104.078V0h57.094v104.078Zm0 0"/></g><use xlink:href="#b" x="22.742" y="10.394"/><use xlink:href="#c" x="29.507" y="11.888"/><path fill="none" stroke="#000" stroke-miterlimit="10" stroke-width=".398" d="M22.742 13.363h11.606"/><use xlink:href="#b" x="22.456" y="37.848"/><use xlink:href="#d" x="29.22" y="40.235"/><path fill="none" stroke="#000" stroke-miterlimit="10" stroke-width=".398" d="M22.457 41.71h12.18"/><use xlink:href="#b" x="22.727" y="67.087"/><use xlink:href="#e" x="29.491" y="68.581"/><path fill="none" stroke="#000" stroke-miterlimit="10" stroke-width=".398" d="M22.727 70.055h11.636"/><use xlink:href="#b" x="22.591" y="95.513"/><use xlink:href="#f" x="29.356" y="97.007"/><path fill="none" stroke="#000" stroke-miterlimit="10" stroke-width=".398" d="M22.59 98.402H34.5"/><g clip-path="url(#g)"><path fill="none" stroke="#000" stroke-miterlimit="10" stroke-width=".399" d="M.2 102.52h14.17m0 0h42.524"/></g><path d="M29.906 102.52a1.36 1.36 0 1 0-2.72.001 1.36 1.36 0 0 0 2.72-.001m0 0"/><g clip-path="url(#h)"><path fill="none" stroke="#000" stroke-miterlimit="10" stroke-width=".399" d="M29.906 102.52a1.36 1.36 0 1 0-2.72.001 1.36 1.36 0 0 0 2.72-.001Zm0 0"/></g><g clip-path="url(#i)"><path fill="none" stroke="#000" stroke-miterlimit="10" stroke-width=".399" d="M.2 74.172h14.17m0 0h42.524"/></g><path stroke="#000" stroke-miterlimit="10" stroke-width=".399" d="M29.906 74.172a1.36 1.36 0 1 0-2.72.002 1.36 1.36 0 0 0 2.72-.002Zm0 0"/><g clip-path="url(#j)"><path fill="none" stroke="#000" stroke-miterlimit="10" stroke-width=".399" d="M.2 45.824h14.17m0 0h42.524"/></g><path stroke="#000" stroke-miterlimit="10" stroke-width=".399" d="M29.906 45.824a1.36 1.36 0 1 0-2.72.002 1.36 1.36 0 0 0 2.72-.002Zm0 0"/><g clip-path="url(#k)"><path fill="none" stroke="#000" stroke-miterlimit="10" stroke-width=".399" d="M.2 17.48h14.17m0 0h42.524"/></g><path stroke="#000" stroke-miterlimit="10" stroke-width=".399" d="M29.906 17.48a1.361 1.361 0 1 0-2.722-.004 1.361 1.361 0 0 0 2.722.004Zm0 0"/></svg>
