<svg xmlns="http://www.w3.org/2000/svg" xmlns:xlink="http://www.w3.org/1999/xlink" width="45.017" height="56.733" viewBox="0 0 33.763 42.55"><defs><path id="c" d="M.86-7.078 3.39-.875l2.516-6.203h.735L3.703 0h-.625L.125-7.078Zm0 0"/><path id="e" d="M.89 0v-7.078h.688V0Zm0 0"/><path id="d" d="M2.266.063c-.282 0-.543-.06-.782-.172A2.1 2.1 0 0 1 .86-.594a2.4 2.4 0 0 1-.406-.672 2.3 2.3 0 0 1-.14-.796q0-.436.14-.829.14-.387.39-.687.265-.293.61-.469.357-.17.797-.172.528.001.922.266.389.268.672.672v-.875h.484V.016q0 .575-.281.968a1.7 1.7 0 0 1-.734.594 2.6 2.6 0 0 1-1.016.203q-.721-.001-1.156-.265A2 2 0 0 1 .438.844L.766.578q.246.389.656.578.405.188.875.188c.27 0 .515-.055.734-.157.227-.093.41-.242.547-.437q.201-.282.203-.734v-.828a1.8 1.8 0 0 1-.656.64 1.7 1.7 0 0 1-.86.235m.156-.454q.233 0 .453-.093.234-.094.422-.235a1.6 1.6 0 0 0 .328-.328q.122-.187.156-.375v-1.281a1.5 1.5 0 0 0-.344-.547 1.6 1.6 0 0 0-.5-.36 1.3 1.3 0 0 0-.593-.14c-.23 0-.438.055-.625.156-.18.094-.328.227-.453.39a1.8 1.8 0 0 0-.391 1.142q-.001.346.11.64.121.298.328.531.217.236.5.375c.187.086.39.125.609.125m0 0"/><clipPath id="a"><path d="M0 0h33.762v42.55H0Zm0 0"/></clipPath><clipPath id="b"><path d="M13 38h12v4.55H13Zm0 0"/></clipPath></defs><g clip-path="url(#a)"><path fill="#fff" d="M0 42.55V0h33.766v42.55Zm0 0"/></g><path fill="none" stroke="#000" stroke-miterlimit="10" stroke-width=".399" d="M19.027 28.547V38.75"/><g clip-path="url(#b)"><path fill="none" stroke="#000" stroke-miterlimit="10" stroke-width=".797" d="M13.926 38.75h10.207m-8.504 1.7h6.8m-5.527 1.702h4.254"/></g><use xlink:href="#c" x="3.321" y="29.45"/><use xlink:href="#d" x="10.085" y="30.944"/><path fill="none" stroke="#000" stroke-miterlimit="10" stroke-width=".398" d="M3.32 34.117h12.188"/><path fill="none" stroke="#000" stroke-miterlimit="10" stroke-width=".399" d="M19.027.2v14.17m0 0v14.176"/><path stroke="#000" stroke-miterlimit="10" stroke-width=".399" d="M20.39 28.547a1.362 1.362 0 1 0-2.723-.003 1.362 1.362 0 0 0 2.724.003Zm-1.363-15.664h-1.699l1.7 3.613 1.702-3.613Zm0 0"/><use xlink:href="#e" x="22.548" y="15.277"/><use xlink:href="#d" x="25.019" y="16.771"/><path fill="none" stroke="#000" stroke-miterlimit="10" stroke-width=".398" d="M22.547 19.941h7.894"/></svg>
