<svg xmlns="http://www.w3.org/2000/svg" xmlns:xlink="http://www.w3.org/1999/xlink" width="246.313" height="200.376" viewBox="0 0 184.735 150.282"><defs><path id="c" d="M.86-7.078 3.39-.875l2.516-6.203h.735L3.703 0h-.625L.125-7.078Zm0 0"/><path id="e" d="M.89 0v-7.078h.688V0Zm0 0"/><path id="g" d="m.313-.547 4.812-5.906H.391v-.625h5.547v.547L1.172-.625h4.75V0H.312Zm0 0"/><path id="d" d="M2.266.063c-.282 0-.543-.06-.782-.172A2.1 2.1 0 0 1 .86-.594a2.4 2.4 0 0 1-.406-.672 2.3 2.3 0 0 1-.14-.796q0-.436.14-.829.14-.387.39-.687.265-.293.61-.469.357-.17.797-.172.528.001.922.266.389.268.672.672v-.875h.484V.016q0 .575-.281.968a1.7 1.7 0 0 1-.734.594 2.6 2.6 0 0 1-1.016.203q-.721-.001-1.156-.265A2 2 0 0 1 .438.844L.766.578q.246.389.656.578.405.188.875.188c.27 0 .515-.055.734-.157.227-.093.41-.242.547-.437q.201-.282.203-.734v-.828a1.8 1.8 0 0 1-.656.64 1.7 1.7 0 0 1-.86.235m.156-.454q.233 0 .453-.093.234-.094.422-.235a1.6 1.6 0 0 0 .328-.328q.122-.187.156-.375v-1.281a1.5 1.5 0 0 0-.344-.547 1.6 1.6 0 0 0-.5-.36 1.3 1.3 0 0 0-.593-.14c-.23 0-.438.055-.625.156-.18.094-.328.227-.453.39a1.8 1.8 0 0 0-.391 1.142q-.001.346.11.64.121.298.328.531.217.236.5.375c.187.086.39.125.609.125m0 0"/><path id="f" d="M3.234-.5V0H.531v-.5h1.14v-3.406a1.1 1.1 0 0 1-.218.219q-.158.11-.36.203c-.124.062-.25.117-.374.156a1.1 1.1 0 0 1-.36.062v-.53c.125 0 .258-.032.407-.095q.216-.105.406-.234c.133-.094.25-.18.344-.266a1 1 0 0 0 .156-.156h.547V-.5Zm0 0"/><path id="h" d="M.344 0q0-.265.047-.547.058-.279.187-.547.14-.264.406-.515.265-.248.688-.485l.484-.219q.246-.123.469-.265c.145-.094.258-.195.344-.313a.77.77 0 0 0 .016-.812.75.75 0 0 0-.344-.313 1.3 1.3 0 0 0-.594-.125q-.252.001-.469.079a1.3 1.3 0 0 0-.36.171 2 2 0 0 0-.265.22 2 2 0 0 1-.187.171l-.344-.375.172-.172a2.3 2.3 0 0 1 .36-.25q.216-.141.515-.234.31-.094.672-.094.48.001.828.172c.226.117.406.266.531.453q.188.283.188.625 0 .328-.141.563a1.5 1.5 0 0 1-.36.406 3.5 3.5 0 0 1-.89.5 3.4 3.4 0 0 0-.625.36 2 2 0 0 0-.406.359A1.35 1.35 0 0 0 .922-.5h2.844V0Zm0 0"/><path id="j" d="M.516-1.922v-.5h3.5v.5Zm0 0"/><path id="i" d="M1.953-2.031q.795-.17 1.203-.531.422-.357.422-.766 0-.234-.14-.344a.6.6 0 0 0-.376-.11q-.363 0-.75.235a3.2 3.2 0 0 0-.734.656q-.346.41-.594.954l.141-.875c.195-.282.406-.524.625-.735a3 3 0 0 1 .688-.5 1.7 1.7 0 0 1 .765-.187q.435 0 .656.234.219.223.22.61 0 .515-.376.937-.377.41-1.094.656L3.531 0h-.578Zm-.64-3.781h.53L.61 0H.08Zm0 0"/><clipPath id="a"><path d="M0 0h184.734v150.281H0Zm0 0"/></clipPath><clipPath id="b"><path d="M86 146h12v4.281H86Zm0 0"/></clipPath></defs><g clip-path="url(#a)"><path fill="#fff" d="M0 150.281V-.004h184.734v150.285Zm0 0"/></g><path fill="none" stroke="#000" stroke-miterlimit="10" stroke-width=".399" d="M92.152 136.277v10.203"/><g clip-path="url(#b)"><path fill="none" stroke="#000" stroke-miterlimit="10" stroke-width=".797" d="M87.05 146.48h10.204m-8.504 1.704h6.805m-5.528 1.699h4.25"/></g><use xlink:href="#c" x="76.444" y="137.182"/><use xlink:href="#d" x="83.209" y="138.676"/><path fill="none" stroke="#000" stroke-miterlimit="10" stroke-width=".398" d="M76.445 141.848h12.188"/><path fill="none" stroke="#000" stroke-miterlimit="10" stroke-width=".399" d="M92.152 93.758v21.258m0 0v21.261"/><path stroke="#000" stroke-miterlimit="10" stroke-width=".399" d="M93.512 93.758c0-.754-.61-1.363-1.36-1.363a1.361 1.361 0 0 0 0 2.722c.75 0 1.36-.61 1.36-1.36Zm0 42.519a1.36 1.36 0 0 0-2.719 0 1.36 1.36 0 0 0 2.719 0Zm-1.36-22.75h-1.699l1.7 3.618 1.699-3.618Zm0 0"/><use xlink:href="#e" x="95.672" y="115.922"/><use xlink:href="#d" x="98.143" y="117.416"/><path fill="none" stroke="#000" stroke-miterlimit="10" stroke-width=".398" d="M95.672 120.59h7.894"/><use xlink:href="#c" x="3.321" y="47.817"/><use xlink:href="#f" x="10.085" y="49.311"/><path fill="none" stroke="#000" stroke-miterlimit="10" stroke-width=".398" d="M3.32 50.707h10.676"/><path fill="none" stroke="#000" stroke-miterlimit="10" stroke-width=".399" d="m8.656 54.82 13.36 6.23m24.664 11.5 13.36 6.231 16.054 7.489m0 0 16.058 7.488"/><path fill="none" stroke="#000" stroke-miterlimit="10" stroke-width=".797" d="m44.523 77.176-24.664-11.5 4.313-9.25L48.836 67.93Zm0 0"/><path stroke="#000" stroke-miterlimit="10" stroke-width=".399" d="M10.016 54.82a1.36 1.36 0 1 0-2.721.002 1.36 1.36 0 0 0 2.72-.002Zm0 0"/><use xlink:href="#g" x="23.197" y="82.197"/><use xlink:href="#f" x="29.463" y="83.692"/><path fill="none" stroke="#000" stroke-miterlimit="10" stroke-width=".398" d="M23.195 85.086h10.176"/><path stroke="#000" stroke-miterlimit="10" stroke-width=".399" d="m65.113 81.148-.718 1.54 3.992-.012-2.555-3.07Zm0 0"/><use xlink:href="#e" x="56.562" y="92.371"/><use xlink:href="#f" x="59.032" y="93.865"/><path fill="none" stroke="#000" stroke-miterlimit="10" stroke-width=".398" d="M56.563 95.262h6.378"/><use xlink:href="#c" x="33.603" y="11.286"/><use xlink:href="#h" x="40.368" y="12.78"/><path fill="none" stroke="#000" stroke-miterlimit="10" stroke-width=".398" d="M33.602 14.176H45.02"/><path fill="none" stroke="#000" stroke-miterlimit="10" stroke-width=".399" d="m39.309 18.29 8.457 12.077m15.609 22.29 8.453 12.073 10.16 14.512m0 0 10.164 14.516"/><path fill="none" stroke="#000" stroke-miterlimit="10" stroke-width=".797" d="m59.195 55.582-15.61-22.289 8.36-5.856 15.61 22.293Zm0 0"/><path stroke="#000" stroke-miterlimit="10" stroke-width=".399" d="M40.672 18.29a1.361 1.361 0 1 0-2.723.003 1.361 1.361 0 0 0 2.723-.004Zm0 0"/><use xlink:href="#g" x="38.116" y="52.303"/><use xlink:href="#h" x="44.383" y="53.797"/><path fill="none" stroke="#000" stroke-miterlimit="10" stroke-width=".398" d="M38.117 55.191h10.914"/><path stroke="#000" stroke-miterlimit="10" stroke-width=".399" d="m75.04 69.316-1.395.977 3.468 1.984-.68-3.933Zm0 0"/><use xlink:href="#e" x="79.413" y="63.531"/><use xlink:href="#h" x="81.884" y="65.025"/><path fill="none" stroke="#000" stroke-miterlimit="10" stroke-width=".398" d="M79.414 66.422h7.121"/><use xlink:href="#c" x="135.249" y="10.394"/><use xlink:href="#i" x="142.014" y="12.78"/><use xlink:href="#j" x="146.286" y="12.78"/><use xlink:href="#f" x="150.829" y="12.78"/><path fill="none" stroke="#000" stroke-miterlimit="10" stroke-width=".398" d="M135.25 14.176h19.488"/><path fill="none" stroke="#000" stroke-miterlimit="10" stroke-width=".399" d="m144.992 18.29-8.453 12.077m-15.61 22.29-8.452 12.073-10.165 14.512m0 0-10.16 14.516"/><path fill="none" stroke="#000" stroke-miterlimit="10" stroke-width=".797" d="m116.75 49.73 15.61-22.293 8.359 5.856-15.61 22.289Zm0 0"/><path stroke="#000" stroke-miterlimit="10" stroke-width=".399" d="M146.355 18.29a1.361 1.361 0 1 0-2.722.003 1.361 1.361 0 0 0 2.722-.004Zm0 0"/><use xlink:href="#g" x="135.271" y="54.733"/><use xlink:href="#i" x="141.538" y="57.12"/><use xlink:href="#j" x="145.809" y="57.12"/><use xlink:href="#f" x="150.352" y="57.12"/><path fill="none" stroke="#000" stroke-miterlimit="10" stroke-width=".398" d="M135.27 58.516h18.992"/><path stroke="#000" stroke-miterlimit="10" stroke-width=".399" d="m109.266 69.316-1.395-.972-.68 3.933 3.465-1.984Zm0 0"/><use xlink:href="#e" x="89.696" y="62.639"/><use xlink:href="#i" x="92.167" y="65.025"/><use xlink:href="#j" x="96.439" y="65.025"/><use xlink:href="#f" x="100.982" y="65.025"/><path fill="none" stroke="#000" stroke-miterlimit="10" stroke-width=".398" d="M89.695 66.422h15.196"/><use xlink:href="#c" x="169.88" y="46.924"/><use xlink:href="#i" x="176.644" y="49.311"/><path fill="none" stroke="#000" stroke-miterlimit="10" stroke-width=".398" d="M169.879 50.707h11.535"/><path fill="none" stroke="#000" stroke-miterlimit="10" stroke-width=".399" d="m175.648 54.82-13.359 6.23m-24.664 11.5-13.36 6.231-16.058 7.489m0 0-16.055 7.488"/><path fill="none" stroke="#000" stroke-miterlimit="10" stroke-width=".797" d="m135.469 67.93 24.664-11.504 4.312 9.25-24.664 11.5Zm0 0"/><path stroke="#000" stroke-miterlimit="10" stroke-width=".399" d="M177.008 54.82a1.36 1.36 0 1 0-2.72.002 1.36 1.36 0 0 0 2.72-.002Zm0 0"/><use xlink:href="#g" x="150.686" y="82.197"/><use xlink:href="#i" x="156.953" y="84.584"/><path fill="none" stroke="#000" stroke-miterlimit="10" stroke-width=".398" d="M150.688 85.98h11.035"/><path stroke="#000" stroke-miterlimit="10" stroke-width=".399" d="m119.191 81.148-.718-1.543-2.555 3.07 3.992.012Zm0 0"/><use xlink:href="#e" x="121.363" y="92.371"/><use xlink:href="#i" x="123.834" y="94.758"/><path fill="none" stroke="#000" stroke-miterlimit="10" stroke-width=".398" d="M121.363 96.152h7.242"/><path fill="none" stroke="#000" stroke-dasharray="2.98883 2.98883" stroke-miterlimit="10" stroke-width=".399" d="M49.633 20.11c24.976-14.422 55.472-15.15 81.008-2.184"/><path stroke="#000" stroke-miterlimit="10" stroke-width=".399" d="M133.95 19.719c-.352-.32-1.837-1.848-2.622-3.063l-1.375 2.547c1.445-.008 3.535.395 3.996.516Zm0 0"/></svg>
