<svg xmlns="http://www.w3.org/2000/svg" xmlns:xlink="http://www.w3.org/1999/xlink" width="45.017" height="56.733" viewBox="0 0 33.763 42.55"><defs><symbol overflow="visible" id="c"><path style="stroke:none" d="M.86-7.078 3.39-.875l2.516-6.203h.735L3.703 0h-.625L.125-7.078Zm0 0"/></symbol><symbol overflow="visible" id="e"><path style="stroke:none" d="M.89 0v-7.078h.688V0Zm0 0"/></symbol><symbol overflow="visible" id="d"><path style="stroke:none" d="M2.266.063c-.282 0-.543-.06-.782-.172A2.116 2.116 0 0 1 .86-.594a2.43 2.43 0 0 1-.406-.672 2.314 2.314 0 0 1-.14-.796c0-.29.046-.567.14-.829.094-.257.223-.488.39-.687.177-.195.38-.352.61-.469.238-.113.504-.172.797-.172.352 0 .66.09.922.266.258.18.484.402.672.672v-.875h.484V.016c0 .382-.094.707-.281.968a1.71 1.71 0 0 1-.734.594 2.576 2.576 0 0 1-1.016.203c-.48 0-.867-.09-1.156-.265A1.966 1.966 0 0 1 .437.844L.766.578c.164.258.382.453.656.578.27.125.562.188.875.188.27 0 .515-.055.734-.157.227-.093.41-.242.547-.437.133-.188.203-.434.203-.734v-.829a1.812 1.812 0 0 1-.656.641 1.704 1.704 0 0 1-.86.234Zm.156-.454c.156 0 .305-.03.453-.093.156-.063.297-.141.422-.235a1.63 1.63 0 0 0 .328-.328c.082-.125.133-.25.156-.375v-1.281a1.46 1.46 0 0 0-.344-.547 1.597 1.597 0 0 0-.5-.36 1.314 1.314 0 0 0-.593-.14c-.23 0-.438.055-.625.156-.18.094-.328.227-.453.39a1.798 1.798 0 0 0-.391 1.142c0 .23.035.445.11.64.081.2.19.375.328.531.144.157.312.282.5.375.187.086.39.125.609.125Zm0 0"/></symbol><clipPath id="a"><path d="M0 0h33.762v42.55H0Zm0 0"/></clipPath><clipPath id="b"><path d="M13 38h12v4.55H13Zm0 0"/></clipPath></defs><g clip-path="url(#a)"><path style="stroke:none;fill-rule:nonzero;fill:#fff;fill-opacity:1" d="M0 42.55V0h33.766v42.55Zm0 0"/></g><path style="fill:none;stroke-width:.3985;stroke-linecap:butt;stroke-linejoin:miter;stroke:#000;stroke-opacity:1;stroke-miterlimit:10" d="M-.002-.002v-10.203" transform="matrix(1 0 0 -1 19.029 28.545)"/><g clip-path="url(#b)"><path style="fill:none;stroke-width:.797;stroke-linecap:butt;stroke-linejoin:miter;stroke:#000;stroke-opacity:1;stroke-miterlimit:10" d="M-5.103-10.205H5.104m-8.504-1.7h6.8m-5.527-1.702h4.254" transform="matrix(1 0 0 -1 19.029 28.545)"/></g><use xlink:href="#c" x="3.321" y="29.45" style="fill:#000;fill-opacity:1"/><use xlink:href="#d" x="10.085" y="30.944" style="fill:#000;fill-opacity:1"/><path style="fill:none;stroke-width:.398;stroke-linecap:butt;stroke-linejoin:miter;stroke:#000;stroke-opacity:1;stroke-miterlimit:10" d="M0-.001h12.187" transform="matrix(1 0 0 -1 3.321 34.116)"/><path style="fill:none;stroke-width:.3985;stroke-linecap:butt;stroke-linejoin:miter;stroke:#000;stroke-opacity:1;stroke-miterlimit:10" d="M-.002 28.346V14.174m0 0V-.002" transform="matrix(1 0 0 -1 19.029 28.545)"/><path style="fill-rule:nonzero;fill:#000;fill-opacity:1;stroke-width:.3985;stroke-linecap:butt;stroke-linejoin:miter;stroke:#000;stroke-opacity:1;stroke-miterlimit:10" d="M1.362-.002a1.362 1.362 0 1 1-2.724.003 1.362 1.362 0 0 1 2.724-.003ZM-.002 15.662H-1.7L0 12.05l1.7 3.612Zm0 0" transform="matrix(1 0 0 -1 19.029 28.545)"/><use xlink:href="#e" x="22.548" y="15.277" style="fill:#000;fill-opacity:1"/><use xlink:href="#d" x="25.019" y="16.771" style="fill:#000;fill-opacity:1"/><path style="fill:none;stroke-width:.398;stroke-linecap:butt;stroke-linejoin:miter;stroke:#000;stroke-opacity:1;stroke-miterlimit:10" d="M-.001.002h7.894" transform="matrix(1 0 0 -1 22.548 19.943)"/></svg>
