<svg xmlns="http://www.w3.org/2000/svg" viewBox="0 0 213.23 70.75"><defs><style>.cls-1{fill:#fff;}.cls-2{fill:#cad40e;}.cls-3{fill:#224f81;}</style></defs><g id="Calque_2" data-name="Calque 2"><g id="PANTONE_382_C" data-name="PANTONE 382 C"><circle class="cls-1" cx="35.37" cy="35.37" r="35.37"/><path class="cls-2" d="M37.2,34.13a58.85,58.85,0,0,1,23-24l0,0c-.76-.75-1.56-1.46-2.39-2.14l0,0h0A60.75,60.75,0,0,0,34.36,32.82a37,37,0,0,0-2.52,7.47,22.67,22.67,0,0,0-7.58.19,15.89,15.89,0,0,0-9.34,6.25l0-6.24v-.1s0-.5,0-1.29h0c0-.13,0-.27,0-.4,0-6.37,1.34-29.06,20.53-38.7h-.22A35.81,35.81,0,0,0,28.3.71c-11,8.29-14.76,21-16,29.86A20,20,0,0,0,2.62,22c-.4,1-.76,2-1.07,3,6.26,2.64,10,9.05,10.16,13.92,0,.9,0,1.48,0,1.66l.15,21.3A36,36,0,0,0,15,64.33L15,56.13h0A13,13,0,0,1,25,43.51a18.86,18.86,0,0,1,6.25-.13,36.52,36.52,0,0,0-.43,6.92L31,70.48c.51.07,1,.12,1.53.16h.11c.49,0,1,.07,1.48.09l-.14-20.5v-.08a33.74,33.74,0,0,1,.38-6.1A13.72,13.72,0,0,1,37,45.27c.16-1,.39-2,.69-3.18A16.52,16.52,0,0,0,34.89,41,34.27,34.27,0,0,1,37.2,34.13Z"/><path class="cls-2" d="M40.23,56.34l.09,14.07c1.06-.14,2.1-.34,3.12-.58l-.08-12.7A9.37,9.37,0,0,0,40.23,56.34Z"/><path class="cls-2" d="M40.31,53.07a12.46,12.46,0,0,1,3.1.56,43.32,43.32,0,0,1,2-11.06,5.86,5.86,0,0,0,.94.08,3.64,3.64,0,0,0,.57,0,5.29,5.29,0,0,0,3.57-2l5.76-7a5.65,5.65,0,0,0,1.22-4.06A5.34,5.34,0,0,0,56.53,27l.73-.9a1.58,1.58,0,0,0-.25-2.2,1.56,1.56,0,0,0-2.2.25l-.72.9a5.42,5.42,0,0,0-2.69-.32,5.65,5.65,0,0,0-3.68,2.1L42.12,34a5.33,5.33,0,0,0,.45,7.15A45.13,45.13,0,0,0,40.31,53.07Zm4.26-17.15,5.59-7.1a2.55,2.55,0,0,1,1.65-.95l.3,0a2.22,2.22,0,0,1,1.4.48h0a2.21,2.21,0,0,1,.82,1.55,2.49,2.49,0,0,1-.54,1.8l-5.76,7a2.22,2.22,0,0,1-3.12.35,2.23,2.23,0,0,1-.34-3.12Z"/><path class="cls-3" d="M43.44,69.81a35.22,35.22,0,0,0,6.29-2.11v-1a10.79,10.79,0,0,0-6.37-9.61h0Z"/><path class="cls-3" d="M30.14,24.08l5.1-7.5a2.53,2.53,0,0,0,.37-1.84,2.17,2.17,0,0,0-1-1.47,2.14,2.14,0,0,0-1.23-.37l-.5.06a2.53,2.53,0,0,0-1.55,1.09l-4.93,7.58a2.22,2.22,0,1,0,3.7,2.45Z"/><path class="cls-3" d="M52.9,59.63v.1l0,6.19a.66.66,0,0,0,0,.14A35.34,35.34,0,0,0,70.73,35.14c0-.13,0-.26,0-.4C51.78,40.09,52.85,58.82,52.9,59.63Z"/><path class="cls-3" d="M44.91,39A2.22,2.22,0,0,0,48,38.69l5.76-7a2.49,2.49,0,0,0,.54-1.8,2.21,2.21,0,0,0-.82-1.55h0a2.22,2.22,0,0,0-1.4-.48l-.3,0a2.55,2.55,0,0,0-1.65.95l-5.59,7.1A2.23,2.23,0,0,0,44.91,39Z"/><path class="cls-3" d="M12.3,30.57c1.24-8.83,5-21.55,16-29.83A35.41,35.41,0,0,0,2.62,22,20,20,0,0,1,12.3,30.57Z"/><path class="cls-3" d="M11.71,38.89C11.57,34,7.82,27.62,1.56,25A35.33,35.33,0,0,0,11.9,61.8l-.15-21.25C11.74,40.37,11.71,39.79,11.71,38.89Z"/><path class="cls-3" d="M14.83,38.7c0,.13,0,.27,0,.4h0c0,.79,0,1.25,0,1.29v.1l0,6.24a16,16,0,0,1,6.26-5.18c.33-4.27,1.15-10.24,3.21-15a5.37,5.37,0,0,1-.57-6.6l4.93-7.58a5.66,5.66,0,0,1,3.48-2.42,5.4,5.4,0,0,1,2.71.07l.64-1a1.56,1.56,0,0,1,2.6,1.72l-.63,1a5.52,5.52,0,0,1,1.14,2.46,5.66,5.66,0,0,1-.86,4.15l-5.1,7.5a5.35,5.35,0,0,1-4.42,2.39,5.94,5.94,0,0,1-1.18-.14,45.34,45.34,0,0,0-2.71,12.37,23,23,0,0,1,7.42-.15,37,37,0,0,1,2.52-7.47A60.79,60.79,0,0,1,57.7,8,35.28,35.28,0,0,0,35.32,0C16.17,9.67,14.81,32.33,14.83,38.7Z"/><path class="cls-3" d="M40.31,53.07a45.13,45.13,0,0,1,2.26-11.94A5.33,5.33,0,0,1,42.12,34l5.6-7.11a5.65,5.65,0,0,1,3.68-2.1,5.42,5.42,0,0,1,2.69.32l.72-.9a1.56,1.56,0,0,1,2.2-.25,1.58,1.58,0,0,1,.25,2.2l-.73.9a5.34,5.34,0,0,1,.91,2.55,5.65,5.65,0,0,1-1.22,4.06l-5.76,7a5.29,5.29,0,0,1-3.57,2,3.64,3.64,0,0,1-.57,0,5.86,5.86,0,0,1-.94-.08,43.38,43.38,0,0,0-2,11.08h0A13.78,13.78,0,0,1,49.78,58c.21-5.52,2.41-21.64,20.75-26.43A35.3,35.3,0,0,0,60.16,10.16a58.8,58.8,0,0,0-23,24A34.27,34.27,0,0,0,34.89,41a16.52,16.52,0,0,1,2.81,1.12c-.3,1.15-.53,2.23-.69,3.18a13.72,13.72,0,0,0-2.69-1.21,33.74,33.74,0,0,0-.38,6.1v.08l.14,20.49,1.53,0a34.8,34.8,0,0,0,4.71-.36l-.09-14a5.31,5.31,0,0,0-.69,0c-.71,0-1.52,0-2,0l0-3.27c.48,0,1.14,0,2.07,0"/><path class="cls-3" d="M15,56.13h0L15,64.3a35.79,35.79,0,0,0,6.06,3.45L21,47c0-.11,0-.77,0-1.81A12.92,12.92,0,0,0,15,56.13Z"/><path class="cls-3" d="M31.25,43.38a18.86,18.86,0,0,0-6.25.13l-.82.23c-.1,1.94-.09,3.2-.09,3.24l.15,22A34.71,34.71,0,0,0,31,70.47L30.82,50.3A36.52,36.52,0,0,1,31.25,43.38Z"/><path class="cls-3" d="M97.27,18.28a8.48,8.48,0,0,1,2.26,2.17l-2.26,1.8-.86.7a4.91,4.91,0,0,0-1.73-1.56,4.79,4.79,0,0,0-2.32-.59,4.73,4.73,0,0,0-1.91.39,5,5,0,0,0-1.56,1.06,4.82,4.82,0,0,0-1,1.56,4.57,4.57,0,0,0-.4,1.91V37.3h-4V16.79h4v1.49a8.93,8.93,0,0,1,2.31-1.1,8.93,8.93,0,0,1,5.22,0A8.87,8.87,0,0,1,97.27,18.28Z"/><path class="cls-3" d="M112.4,16.75a10.19,10.19,0,0,1,4,.8,10.35,10.35,0,0,1,3.27,2.2,10.23,10.23,0,0,1,2.2,3.28,10.48,10.48,0,0,1,0,8,10.08,10.08,0,0,1-2.2,3.27,10.29,10.29,0,0,1-14.58,0,10.22,10.22,0,0,1-3-7.29,9.94,9.94,0,0,1,.8-4,10.23,10.23,0,0,1,2.2-3.28,10.35,10.35,0,0,1,3.27-2.2A10.19,10.19,0,0,1,112.4,16.75Zm0,16.57a6.1,6.1,0,0,0,2.43-.49,6.22,6.22,0,0,0,2-1.34A6.33,6.33,0,0,0,118.68,27a6.07,6.07,0,0,0-.49-2.43,6.16,6.16,0,0,0-1.34-2,6.42,6.42,0,0,0-2-1.35,6.27,6.27,0,0,0-2.43-.48,6.2,6.2,0,0,0-2.43.48,6.37,6.37,0,0,0-3.36,3.36,6.07,6.07,0,0,0,0,4.87,6.37,6.37,0,0,0,1.36,2,6.22,6.22,0,0,0,2,1.34A6,6,0,0,0,112.42,33.32Z"/><path class="cls-3" d="M138.84,27.82a6.6,6.6,0,0,1,.85,1.7,5.38,5.38,0,0,1,.28,1.93,5.61,5.61,0,0,1-.59,2.38,6.41,6.41,0,0,1-1.44,1.91A6.5,6.5,0,0,1,135.83,37a6.72,6.72,0,0,1-2.53.4,7,7,0,0,1-3.37-1,6.08,6.08,0,0,1-2.29-2.38L131,31.72a2.13,2.13,0,0,0,.86,1.19,2.52,2.52,0,0,0,1.56.49,2.6,2.6,0,0,0,1.77-.57,1.83,1.83,0,0,0,.76-1.5,1.24,1.24,0,0,0,0-.39v-.08a.38.38,0,0,1,0-.13.27.27,0,0,0,0-.14,2.29,2.29,0,0,0-1-1.09,2.43,2.43,0,0,0-.35-.16l0,0c-.37-.2-.77-.4-1.21-.6s-.89-.4-1.35-.62-.9-.46-1.34-.71a7,7,0,0,1-1.25-.87v0l-.12-.12A5.78,5.78,0,0,1,128,24.53a4.73,4.73,0,0,1-.43-2.2,5.28,5.28,0,0,1,.54-2.19,5.78,5.78,0,0,1,1.35-1.75,6.34,6.34,0,0,1,4.39-1.56,6.76,6.76,0,0,1,3,.82,5.69,5.69,0,0,1,2.12,2l-3.27,2.27a1.94,1.94,0,0,0-.76-.74,2.28,2.28,0,0,0-1.19-.32,2.41,2.41,0,0,0-1.54.43,1.37,1.37,0,0,0-.65,1.13.88.88,0,0,0,0,.28,1.44,1.44,0,0,0,.39.74,2.38,2.38,0,0,0,.78.5c.5.29,1.06.58,1.7.88s1.28.63,1.93,1a5.56,5.56,0,0,1,1.4.89l.2.2A8.22,8.22,0,0,1,138.84,27.82Z"/><path class="cls-3" d="M156.77,28.41h-7.84a6.64,6.64,0,0,0,.8,2A6.27,6.27,0,0,0,153,33a6.14,6.14,0,0,0,2.14.37,6,6,0,0,0,2.56-.55,6.35,6.35,0,0,0,2.08-1.52h4.72a6.41,6.41,0,0,1-.56,1.11,12.05,12.05,0,0,1-.72,1,10.43,10.43,0,0,1-3.51,2.86,9.89,9.89,0,0,1-4.57,1.08,10.14,10.14,0,0,1-4-.8,10.42,10.42,0,0,1-3.28-2.21,10.22,10.22,0,0,1-3-7.29,10.11,10.11,0,0,1,.8-4,10.39,10.39,0,0,1,2.2-3.28,10.23,10.23,0,0,1,3.28-2.2,10.37,10.37,0,0,1,8.58.27,10.23,10.23,0,0,1,3.51,2.91,10,10,0,0,1,2.22,6.31,7.07,7.07,0,0,1-.12,1.33h-8.5Zm-1.68-7.61a6.06,6.06,0,0,0-3.41,1,6.31,6.31,0,0,0-2.28,2.6h11.39c-.13-.2-.26-.41-.37-.62s-.24-.39-.37-.57a6.34,6.34,0,0,0-2.19-1.76A6.19,6.19,0,0,0,155.09,20.8Z"/><path class="cls-3" d="M180,16.79a10,10,0,0,1,4,.82,10.58,10.58,0,0,1,3.31,2.22,10.38,10.38,0,0,1,2.23,3.31,10.16,10.16,0,0,1,.82,4.06V37.3h-4V35.41A11.19,11.19,0,0,1,183.44,37a10.37,10.37,0,0,1-7.46-.24,10.36,10.36,0,0,1-5.52-5.52,10,10,0,0,1-.82-4,10.16,10.16,0,0,1,.82-4.06,10.5,10.5,0,0,1,2.21-3.31A10.38,10.38,0,0,1,176,17.61,10,10,0,0,1,180,16.79Zm0,16.76a6.08,6.08,0,0,0,2.48-.51,6.54,6.54,0,0,0,3.37-3.39,6,6,0,0,0,.51-2.45,6.09,6.09,0,0,0-.51-2.49,6.6,6.6,0,0,0-3.37-3.4,6.28,6.28,0,0,0-5,0,6.6,6.6,0,0,0-3.37,3.4,6.09,6.09,0,0,0-.51,2.49,6,6,0,0,0,.51,2.45A6.54,6.54,0,0,0,177.53,33,6.08,6.08,0,0,0,180,33.55Z"/><path class="cls-3" d="M213.11,16.83V28.49A8.64,8.64,0,0,1,212,32.77a8.8,8.8,0,0,1-2.93,3.16A9.17,9.17,0,0,1,206.77,37a8.9,8.9,0,0,1-5.21,0,8.89,8.89,0,0,1-5.24-4.25,8.45,8.45,0,0,1-1.1-4.28V16.83h4V28.49a4.76,4.76,0,0,0,.39,1.91,5.22,5.22,0,0,0,1,1.56,4.92,4.92,0,0,0,1.57,1,4.86,4.86,0,0,0,1.93.39,4.72,4.72,0,0,0,1.9-.39,5.27,5.27,0,0,0,1.57-1,5.1,5.1,0,0,0,1.07-1.56,4.76,4.76,0,0,0,.39-1.91V16.83Z"/><path class="cls-2" d="M90.85,42.43v1.78H88.12v9.28H86.25V44.21H83.58V42.43Z"/><path class="cls-2" d="M94,53.49V42.43h7.34v1.68H95.82v3h4.88v1.72H95.82v2.95h5.7v1.73Z"/><path class="cls-2" d="M112.7,52.67a5.08,5.08,0,0,1-.51.28,4.71,4.71,0,0,1-.77.32,10.06,10.06,0,0,1-1,.24,7.56,7.56,0,0,1-1.2.1,5.73,5.73,0,0,1-2.33-.45A5.22,5.22,0,0,1,105.13,52,5.16,5.16,0,0,1,104,50.18a6.14,6.14,0,0,1-.38-2.14,5.66,5.66,0,0,1,.46-2.3,5.54,5.54,0,0,1,3-3,5.85,5.85,0,0,1,2.22-.42,5.7,5.7,0,0,1,.92.07,7.06,7.06,0,0,1,.87.17,4.66,4.66,0,0,1,.72.24,1.45,1.45,0,0,1,.45.29l-.21.35-.16.28-.18.33c-.07.12-.16.29-.29.5a1.91,1.91,0,0,0-.43-.21,4.77,4.77,0,0,0-.54-.15L110,44.1l-.52,0a3.74,3.74,0,0,0-1.57.32,4,4,0,0,0-1.24.84,3.8,3.8,0,0,0-.82,1.22,3.56,3.56,0,0,0-.29,1.44,3.67,3.67,0,0,0,.28,1.42,3.77,3.77,0,0,0,.79,1.22,3.84,3.84,0,0,0,1.2.85,3.59,3.59,0,0,0,1.55.33,4.23,4.23,0,0,0,.94-.1,6.05,6.05,0,0,0,.8-.22,4.08,4.08,0,0,0,.57-.24.75.75,0,0,0,.24-.17Z"/><path class="cls-2" d="M115.29,53.49V42.43h1.87V47h5.27V42.43h1.88V48c0,.88,0,1.72,0,2.5v3h-1.87V48.81h-5.27v4.68Z"/><path class="cls-2" d="M137.84,42.43V54c-.07-.09-.23-.26-.47-.5l-.9-.87-1.17-1.12L134,50.26,132.68,49l-1.16-1.12-.88-.86c-.23-.24-.39-.4-.46-.49a1,1,0,0,0-.12-.16l-.18-.24,0,.49v6.84h-1.85V41.93a5.62,5.62,0,0,0,.47.49l.9.86c.35.33.74.7,1.17,1.09l1.32,1.21,1.3,1.21,1.17,1.09c.35.33.65.61.88.84s.4.4.47.49l.29.42,0-.51V42.43Z"/><path class="cls-2" d="M140.87,48a5.35,5.35,0,0,1,.45-2.18A5.92,5.92,0,0,1,142.53,44a6.07,6.07,0,0,1,1.79-1.23,5.36,5.36,0,0,1,2.19-.45,5.43,5.43,0,0,1,2.19.45A6.25,6.25,0,0,1,150.5,44a5.78,5.78,0,0,1,1.22,1.81,5.53,5.53,0,0,1,0,4.37A5.69,5.69,0,0,1,150.5,52a6,6,0,0,1-1.8,1.21,5.6,5.6,0,0,1-2.19.44,5.53,5.53,0,0,1-2.19-.44,5.69,5.69,0,0,1-3-3A5.36,5.36,0,0,1,140.87,48Zm1.87,0a4,4,0,0,0,.29,1.51,3.82,3.82,0,0,0,2,2,3.57,3.57,0,0,0,1.5.31,3.48,3.48,0,0,0,1.46-.31,3.71,3.71,0,0,0,1.2-.82,4,4,0,0,0,.8-4.25,4.2,4.2,0,0,0-.82-1.23A3.76,3.76,0,0,0,148,44.4a3.8,3.8,0,0,0-3,0,3.48,3.48,0,0,0-1.19.84,3.86,3.86,0,0,0-1.1,2.74Z"/><path class="cls-2" d="M155.2,53.49V42.43h1.85v9.3h5.37v1.76Z"/><path class="cls-2" d="M164.15,48a5.51,5.51,0,0,1,.44-2.18,5.83,5.83,0,0,1,3-3,5.53,5.53,0,0,1,4.37,0A6.17,6.17,0,0,1,173.78,44,6,6,0,0,1,175,45.8a5.65,5.65,0,0,1,0,4.37A5.86,5.86,0,0,1,173.78,52,5.92,5.92,0,0,1,172,53.17a5.65,5.65,0,0,1-4.37,0A5.71,5.71,0,0,1,165.81,52a5.86,5.86,0,0,1-1.22-1.79A5.53,5.53,0,0,1,164.15,48ZM166,48a3.8,3.8,0,0,0,.3,1.51,3.69,3.69,0,0,0,.82,1.23,3.87,3.87,0,0,0,1.21.82,3.55,3.55,0,0,0,1.49.31,3.49,3.49,0,0,0,1.47-.31,3.57,3.57,0,0,0,1.19-.82,3.86,3.86,0,0,0,1.1-2.74,3.8,3.8,0,0,0-.3-1.51,4,4,0,0,0-.82-1.23,3.62,3.62,0,0,0-1.2-.84,3.8,3.8,0,0,0-3,0,3.62,3.62,0,0,0-1.2.84A4,4,0,0,0,166,48Z"/><path class="cls-2" d="M186.83,48.12v4.7a5.15,5.15,0,0,1-1.54.58,8,8,0,0,1-1.84.21,6.53,6.53,0,0,1-2.36-.41,5.66,5.66,0,0,1-1.8-1.12,4.92,4.92,0,0,1-1.13-1.7,5.85,5.85,0,0,1-.4-2.16A5.83,5.83,0,0,1,179.5,44a5.62,5.62,0,0,1,1.85-1.22,5.74,5.74,0,0,1,2.22-.43,8.19,8.19,0,0,1,.83,0,8,8,0,0,1,.85.16c.29.07.56.16.82.25a4.36,4.36,0,0,1,.72.34l-.91,1.52a3,3,0,0,0-.51-.24c-.2-.06-.4-.12-.62-.17a4.62,4.62,0,0,0-.63-.11,4,4,0,0,0-.58,0,3.57,3.57,0,0,0-1.48.31,4.43,4.43,0,0,0-1.25.84,4.09,4.09,0,0,0-.87,1.27,3.75,3.75,0,0,0,.77,4.21,3.9,3.9,0,0,0,1.22.84,4,4,0,0,0,1.56.31,5.86,5.86,0,0,0,.76-.06,4.07,4.07,0,0,0,.87-.18V49.72h-2.06v-1.6Z"/><path class="cls-2" d="M190.12,42.43H192V53.49h-1.87Z"/><path class="cls-2" d="M195.75,53.49V42.43h7.34v1.68H197.6v3h4.88v1.72H197.6v2.95h5.7v1.73Z"/><path class="cls-2" d="M212.87,43.05l-.67,1.52a9.93,9.93,0,0,0-1.26-.36,4.87,4.87,0,0,0-1.15-.14,2.56,2.56,0,0,0-1.46.36,1.09,1.09,0,0,0-.54.93,1,1,0,0,0,.4.79,4.32,4.32,0,0,0,1,.54c.4.16.84.33,1.31.49a6.4,6.4,0,0,1,1.31.65,3.44,3.44,0,0,1,1,1,2.72,2.72,0,0,1,.4,1.55A3.34,3.34,0,0,1,213,51.7a2.78,2.78,0,0,1-.8,1,3.9,3.9,0,0,1-1.34.66,6.78,6.78,0,0,1-1.91.24,7.55,7.55,0,0,1-1.21-.09,9.51,9.51,0,0,1-1-.23A5.47,5.47,0,0,1,206,53a4.35,4.35,0,0,1-.58-.31l.81-1.62a6,6,0,0,0,1.36.54,5.51,5.51,0,0,0,1.29.19,5.2,5.2,0,0,0,.7-.06,3.7,3.7,0,0,0,.85-.23,2.08,2.08,0,0,0,.7-.46,1,1,0,0,0,.3-.74,1.1,1.1,0,0,0-.41-.87,4,4,0,0,0-1-.61c-.41-.17-.85-.35-1.32-.52a8.74,8.74,0,0,1-1.31-.61,3.75,3.75,0,0,1-1-.88,2.19,2.19,0,0,1-.4-1.33,3,3,0,0,1,.23-1.13,2.77,2.77,0,0,1,.69-1,3.58,3.58,0,0,1,1.15-.72,4.49,4.49,0,0,1,1.63-.27,6.15,6.15,0,0,1,1.15.1,9.28,9.28,0,0,1,1,.22c.29.08.54.16.73.23Z"/></g></g></svg>
