<svg xmlns="http://www.w3.org/2000/svg" xmlns:xlink="http://www.w3.org/1999/xlink" width="41.547" height="29.635" viewBox="0 0 31.16 22.226"><defs><symbol overflow="visible" id="a"><path style="stroke:none" d="M.86-7.078 3.39-.875l2.516-6.203h.735L3.703 0h-.625L.125-7.078Zm0 0"/></symbol><symbol overflow="visible" id="b"><path style="stroke:none" d="M.672-1.938v-.484h3.015v.485Zm0-1.14v-.485h3.015v.485Zm0 0"/></symbol><symbol overflow="visible" id="c"><path style="stroke:none" d="M5.547-2.922c0 .586-.11 1.106-.328 1.563-.211.46-.508.82-.89 1.078-.376.25-.806.375-1.282.375-.48 0-.906-.125-1.281-.375A2.654 2.654 0 0 1 .875-1.36C.656-1.816.547-2.336.547-2.922c0-.582.11-1.098.328-1.547.219-.457.516-.816.89-1.078.376-.27.801-.406 1.282-.406.476 0 .906.137 1.281.406.383.262.68.621.89 1.078.22.45.329.965.329 1.547Zm-.688 0c0-.469-.078-.879-.234-1.234C4.477-4.52 4.27-4.801 4-5a1.534 1.534 0 0 0-.953-.313c-.356 0-.672.106-.953.313-.274.2-.485.48-.64.844-.157.355-.235.765-.235 1.234s.078.887.234 1.25c.156.356.367.637.64.844.282.2.598.297.954.297.363 0 .68-.098.953-.297.27-.207.477-.488.625-.844.156-.363.234-.781.234-1.25Zm0 0"/></symbol><clipPath id="d"><path d="M22 7h9.16v15H22Zm0 0"/></clipPath></defs><path style="stroke:none;fill-rule:nonzero;fill:#fff;fill-opacity:1" d="M0 22.227V0h31.16v22.227Zm0 0"/><use xlink:href="#a" x="3.321" y="16.913" style="fill:#000;fill-opacity:1"/><path style="fill:none;stroke-width:.398;stroke-linecap:butt;stroke-linejoin:miter;stroke:#000;stroke-opacity:1;stroke-miterlimit:10" d="M0 0h6.765" transform="matrix(1 0 0 -1 3.321 18.308)"/><use xlink:href="#b" x="12.852" y="16.913" style="fill:#000;fill-opacity:1"/><use xlink:href="#c" x="19.975" y="16.913" style="fill:#000;fill-opacity:1"/><path style="fill:none;stroke-width:.3985;stroke-linecap:butt;stroke-linejoin:miter;stroke:#000;stroke-opacity:1;stroke-miterlimit:10" d="M.002.002v7.086m0 0v7.086" transform="matrix(1 0 0 -1 29.6 14.373)"/><path style="stroke:none;fill-rule:nonzero;fill:#000;fill-opacity:1" d="M30.96 14.371a1.36 1.36 0 1 0-2.72.002 1.36 1.36 0 0 0 2.72-.002Zm0 0"/><g clip-path="url(#d)"><path style="fill:none;stroke-width:.3985;stroke-linecap:butt;stroke-linejoin:miter;stroke:#000;stroke-opacity:1;stroke-miterlimit:10" d="M1.36.002A1.36 1.36 0 1 1-1.36 0a1.36 1.36 0 0 1 2.72.002Zm0 0" transform="matrix(1 0 0 -1 29.6 14.373)"/></g></svg>
