<svg xmlns="http://www.w3.org/2000/svg" xmlns:xlink="http://www.w3.org/1999/xlink" width="54.033" height="37.836" viewBox="0 0 40.525 28.377"><defs><path id="c" d="M.86-7.078 3.39-.875l2.516-6.203h.735L3.703 0h-.625L.125-7.078Zm0 0"/><path id="e" d="M.672-1.937v-.485h3.016v.485Zm0-1.141v-.485h3.016v.485Zm0 0"/><path id="f" d="M5.547-2.922q0 .878-.328 1.563-.317.69-.89 1.078-.566.375-1.282.375-.72 0-1.281-.375A2.65 2.65 0 0 1 .875-1.36Q.547-2.044.547-2.922q0-.873.328-1.547.329-.685.89-1.078.562-.405 1.282-.406c.476 0 .906.137 1.281.406q.575.393.89 1.078.33.675.329 1.547m-.688 0q0-.703-.234-1.234Q4.404-4.702 4-5a1.53 1.53 0 0 0-.953-.312q-.533 0-.953.312-.41.299-.64.844-.235.531-.235 1.234 0 .704.234 1.25.232.534.64.844.422.299.954.297.544 0 .953-.297.404-.31.625-.844.234-.546.234-1.25m0 0"/><path id="d" d="M2.266.063c-.282 0-.543-.06-.782-.172A2.1 2.1 0 0 1 .86-.594a2.4 2.4 0 0 1-.406-.672 2.3 2.3 0 0 1-.14-.796q0-.436.14-.829.14-.387.39-.687.265-.293.61-.469.357-.17.797-.172.528.001.922.266.389.268.672.672v-.875h.484V.016q0 .575-.281.968a1.7 1.7 0 0 1-.734.594 2.6 2.6 0 0 1-1.016.203q-.721-.001-1.156-.265A2 2 0 0 1 .438.844L.766.578q.246.389.656.578.405.188.875.188c.27 0 .515-.055.734-.157.227-.093.41-.242.547-.437q.201-.282.203-.734v-.828a1.8 1.8 0 0 1-.656.64 1.7 1.7 0 0 1-.86.235m.156-.454q.233 0 .453-.093.234-.094.422-.235a1.6 1.6 0 0 0 .328-.328q.122-.187.156-.375v-1.281a1.5 1.5 0 0 0-.344-.547 1.6 1.6 0 0 0-.5-.36 1.3 1.3 0 0 0-.593-.14c-.23 0-.438.055-.625.156-.18.094-.328.227-.453.39a1.8 1.8 0 0 0-.391 1.142q-.001.346.11.64.121.298.328.531.217.236.5.375c.187.086.39.125.609.125m0 0"/><clipPath id="a"><path d="M0 0h40.523v28.379H0Zm0 0"/></clipPath><clipPath id="b"><path d="M29 24h11.523v4.379H29Zm0 0"/></clipPath><clipPath id="g"><path d="M28 7h12.523v15H28Zm0 0"/></clipPath></defs><g clip-path="url(#a)"><path fill="#fff" d="M0 28.379V0h40.523v28.379Zm0 0"/></g><path fill="none" stroke="#000" stroke-miterlimit="10" stroke-width=".399" d="M35.023 14.371v10.207"/><g clip-path="url(#b)"><path fill="none" stroke="#000" stroke-miterlimit="10" stroke-width=".797" d="M29.922 24.578h10.203m-8.504 1.7h6.805m-5.528 1.699h4.25"/></g><use xlink:href="#c" x="3.321" y="15.277"/><use xlink:href="#d" x="10.085" y="16.771"/><path fill="none" stroke="#000" stroke-miterlimit="10" stroke-width=".398" d="M3.32 19.941h12.188"/><use xlink:href="#e" x="18.276" y="15.277"/><use xlink:href="#f" x="25.399" y="15.277"/><path fill="none" stroke="#000" stroke-miterlimit="10" stroke-width=".399" d="M35.023 14.371V7.285m0 0V.2"/><path d="M36.383 14.371a1.36 1.36 0 1 0-2.72.002 1.36 1.36 0 0 0 2.72-.002m0 0"/><g clip-path="url(#g)"><path fill="none" stroke="#000" stroke-miterlimit="10" stroke-width=".399" d="M36.383 14.371a1.36 1.36 0 1 0-2.72.002 1.36 1.36 0 0 0 2.72-.002Zm0 0"/></g></svg>
