<svg xmlns="http://www.w3.org/2000/svg" xmlns:xlink="http://www.w3.org/1999/xlink" width="41.547" height="29.635" viewBox="0 0 31.16 22.226"><defs><path id="a" d="M.86-7.078 3.39-.875l2.516-6.203h.735L3.703 0h-.625L.125-7.078Zm0 0"/><path id="b" d="M.672-1.937v-.485h3.016v.485Zm0-1.141v-.485h3.016v.485Zm0 0"/><path id="c" d="M5.547-2.922q0 .878-.328 1.563-.317.69-.89 1.078-.566.375-1.282.375-.72 0-1.281-.375A2.65 2.65 0 0 1 .875-1.36Q.547-2.044.547-2.922q0-.873.328-1.547.329-.685.89-1.078.562-.405 1.282-.406c.476 0 .906.137 1.281.406q.575.393.89 1.078.33.675.329 1.547m-.688 0q0-.703-.234-1.234Q4.404-4.702 4-5a1.53 1.53 0 0 0-.953-.312q-.533 0-.953.312-.41.299-.64.844-.235.531-.235 1.234 0 .704.234 1.25.232.534.64.844.422.299.954.297.544 0 .953-.297.404-.31.625-.844.234-.546.234-1.25m0 0"/><clipPath id="d"><path d="M22 7h9.16v15H22Zm0 0"/></clipPath></defs><path fill="#fff" d="M0 22.227V0h31.16v22.227Zm0 0"/><use xlink:href="#a" x="3.321" y="16.913"/><path fill="none" stroke="#000" stroke-miterlimit="10" stroke-width=".398" d="M3.32 18.309h6.766"/><use xlink:href="#b" x="12.852" y="16.913"/><use xlink:href="#c" x="19.975" y="16.913"/><path fill="none" stroke="#000" stroke-miterlimit="10" stroke-width=".399" d="M29.602 14.371V7.285m0 0V.2"/><path d="M30.96 14.371a1.36 1.36 0 1 0-2.72.002 1.36 1.36 0 0 0 2.72-.002m0 0"/><g clip-path="url(#d)"><path fill="none" stroke="#000" stroke-miterlimit="10" stroke-width=".399" d="M30.96 14.371a1.36 1.36 0 1 0-2.72.002 1.36 1.36 0 0 0 2.72-.002Zm0 0"/></g></svg>
