<svg xmlns="http://www.w3.org/2000/svg" xmlns:xlink="http://www.w3.org/1999/xlink" width="54.033" height="37.836" viewBox="0 0 40.525 28.377"><defs><symbol overflow="visible" id="c"><path style="stroke:none" d="M.86-7.078 3.39-.875l2.516-6.203h.735L3.703 0h-.625L.125-7.078Zm0 0"/></symbol><symbol overflow="visible" id="e"><path style="stroke:none" d="M.672-1.938v-.484h3.015v.485Zm0-1.14v-.485h3.015v.485Zm0 0"/></symbol><symbol overflow="visible" id="f"><path style="stroke:none" d="M5.547-2.922c0 .586-.11 1.106-.328 1.563-.211.46-.508.82-.89 1.078-.376.25-.806.375-1.282.375-.48 0-.906-.125-1.281-.375A2.654 2.654 0 0 1 .875-1.36C.656-1.816.547-2.336.547-2.922c0-.582.11-1.098.328-1.547.219-.457.516-.816.89-1.078.376-.27.801-.406 1.282-.406.476 0 .906.137 1.281.406.383.262.68.621.89 1.078.22.45.329.965.329 1.547Zm-.688 0c0-.469-.078-.879-.234-1.234C4.477-4.52 4.27-4.801 4-5a1.534 1.534 0 0 0-.953-.313c-.356 0-.672.106-.953.313-.274.2-.485.48-.64.844-.157.355-.235.765-.235 1.234s.078.887.234 1.25c.156.356.367.637.64.844.282.2.598.297.954.297.363 0 .68-.098.953-.297.27-.207.477-.488.625-.844.156-.363.234-.781.234-1.25Zm0 0"/></symbol><symbol overflow="visible" id="d"><path style="stroke:none" d="M2.266.063c-.282 0-.543-.06-.782-.172A2.116 2.116 0 0 1 .86-.594a2.43 2.43 0 0 1-.406-.672 2.314 2.314 0 0 1-.14-.796c0-.29.046-.567.14-.829.094-.257.223-.488.39-.687.177-.195.38-.352.61-.469.238-.113.504-.172.797-.172.352 0 .66.09.922.266.258.18.484.402.672.672v-.875h.484V.016c0 .382-.094.707-.281.968a1.71 1.71 0 0 1-.734.594 2.576 2.576 0 0 1-1.016.203c-.48 0-.867-.09-1.156-.265A1.966 1.966 0 0 1 .437.844L.766.578c.164.258.382.453.656.578.27.125.562.188.875.188.27 0 .515-.055.734-.157.227-.093.41-.242.547-.437.133-.188.203-.434.203-.734v-.829a1.812 1.812 0 0 1-.656.641 1.704 1.704 0 0 1-.86.234Zm.156-.454c.156 0 .305-.03.453-.093.156-.063.297-.141.422-.235a1.63 1.63 0 0 0 .328-.328c.082-.125.133-.25.156-.375v-1.281a1.46 1.46 0 0 0-.344-.547 1.597 1.597 0 0 0-.5-.36 1.314 1.314 0 0 0-.593-.14c-.23 0-.438.055-.625.156-.18.094-.328.227-.453.39a1.798 1.798 0 0 0-.391 1.142c0 .23.035.445.11.64.081.2.19.375.328.531.144.157.312.282.5.375.187.086.39.125.609.125Zm0 0"/></symbol><clipPath id="a"><path d="M0 0h40.523v28.379H0Zm0 0"/></clipPath><clipPath id="b"><path d="M29 24h11.523v4.379H29Zm0 0"/></clipPath><clipPath id="g"><path d="M28 7h12.523v15H28Zm0 0"/></clipPath></defs><g clip-path="url(#a)"><path style="stroke:none;fill-rule:nonzero;fill:#fff;fill-opacity:1" d="M0 28.379V0h40.523v28.379Zm0 0"/></g><path style="fill:none;stroke-width:.3985;stroke-linecap:butt;stroke-linejoin:miter;stroke:#000;stroke-opacity:1;stroke-miterlimit:10" d="M0 0v-10.206" transform="matrix(1 0 0 -1 35.024 14.372)"/><g clip-path="url(#b)"><path style="fill:none;stroke-width:.797;stroke-linecap:butt;stroke-linejoin:miter;stroke:#000;stroke-opacity:1;stroke-miterlimit:10" d="M-5.102-10.206H5.1m-8.504-1.7h6.805m-5.528-1.699h4.25" transform="matrix(1 0 0 -1 35.024 14.372)"/></g><use xlink:href="#c" x="3.321" y="15.277" style="fill:#000;fill-opacity:1"/><use xlink:href="#d" x="10.085" y="16.771" style="fill:#000;fill-opacity:1"/><path style="fill:none;stroke-width:.398;stroke-linecap:butt;stroke-linejoin:miter;stroke:#000;stroke-opacity:1;stroke-miterlimit:10" d="M0 .002h12.187" transform="matrix(1 0 0 -1 3.321 19.943)"/><use xlink:href="#e" x="18.276" y="15.277" style="fill:#000;fill-opacity:1"/><use xlink:href="#f" x="25.399" y="15.277" style="fill:#000;fill-opacity:1"/><path style="fill:none;stroke-width:.3985;stroke-linecap:butt;stroke-linejoin:miter;stroke:#000;stroke-opacity:1;stroke-miterlimit:10" d="M0 0v7.087m0 0v7.086" transform="matrix(1 0 0 -1 35.024 14.372)"/><path style="stroke:none;fill-rule:nonzero;fill:#000;fill-opacity:1" d="M36.383 14.371a1.36 1.36 0 1 0-2.72.002 1.36 1.36 0 0 0 2.72-.002Zm0 0"/><g clip-path="url(#g)"><path style="fill:none;stroke-width:.3985;stroke-linecap:butt;stroke-linejoin:miter;stroke:#000;stroke-opacity:1;stroke-miterlimit:10" d="M1.359 0a1.36 1.36 0 1 1-2.72 0 1.36 1.36 0 0 1 2.72.002Zm0 0" transform="matrix(1 0 0 -1 35.024 14.372)"/></g></svg>
