<svg version="1.1" id="Calque_1" xmlns="http://www.w3.org/2000/svg" x="0" y="0" viewBox="0 0 244.9 101.5" style="enable-background:new 0 0 244.9 101.5" xml:space="preserve"><style>.st1{fill:#cad40e}.st2{fill:#234f82}</style><circle cx="52.2" cy="54.5" r="20.3" style="fill:#fff"/><path class="st1" d="M53.3 53.8c0-.1 4-8.7 13.2-13.8-.4-.4-.9-.8-1.4-1.2-9.3 5.4-13.3 13.9-13.4 14.3-.7 1.5-1.1 2.9-1.4 4.3-2.1-.4-4.3.1-4.4.1-2.2.5-4.1 1.8-5.4 3.6v-4.6c0-3.7.8-16.7 11.8-22.2h-.1c-1.3 0-2.7.2-3.9.4-6.3 4.8-8.5 12.1-9.2 17.2-1.2-2-3.1-3.9-5.6-4.9-.2.6-.4 1.1-.6 1.7 3.6 1.5 5.8 5.2 5.8 8v1l.1 12.2c.6.5 1.2 1 1.8 1.4v-4.7c0-3.4 2.4-6.5 5.8-7.3 0 0 1.5-.4 3.6-.1-.3 2.2-.3 3.7-.3 4l.1 11.6c.3 0 .6.1.9.1h.1c.3 0 .6 0 .9.1l-.1-11.8s-.1-1.5.2-3.5c.5.2 1 .4 1.5.7.1-.5.2-1.2.4-1.8-.6-.3-1.1-.5-1.6-.6.1-1.5.5-2.8 1.2-4.2z"/><path class="st1" d="m55 66.6.1 8.1 1.8-.3v-7.3c-.7-.3-1.3-.5-1.9-.5zm0-1.9c.6 0 1.2.1 1.8.3.1-1.5.3-4 1.1-6.4h.8c.8-.1 1.5-.5 2-1.1l3.3-4c.5-.7.8-1.5.7-2.3 0-.5-.2-1-.5-1.5l.4-.5c.3-.4.2-1-.1-1.3-.4-.3-1-.2-1.3.1l-.2.6c-.5-.2-1-.3-1.5-.2-.8.1-1.6.5-2.1 1.2l-3.2 4.1c-1 1.2-.9 3 .3 4.1-1.1 2.6-1.4 5.2-1.5 6.9zm2.5-9.8 3.2-4.1c.2-.3.6-.5.9-.5h.2c.3 0 .6.1.8.3.3.2.4.5.5.9 0 .4-.1.7-.3 1l-3.3 4c-.2.3-.5.4-.9.5-.3 0-.7-.1-.9-.3-.3-.2-.4-.5-.5-.9 0-.3.1-.7.3-.9z"/><path class="st2" d="M56.8 74.3c1.3-.3 2.5-.7 3.6-1.2v-.6c0-2.4-1.6-4.6-3.7-5.5l.1 7.3zm-7.6-26.2 2.9-4.3c.2-.3.3-.7.2-1.1-.1-.4-.3-.7-.6-.8-.2-.1-.5-.2-.7-.2h-.3c-.4.1-.7.3-.9.6L47 46.7c-.4.6-.2 1.4.4 1.8.6.3 1.4.1 1.8-.4zm13.1 20.4v3.7c6.1-3.5 10.3-10.2 10.2-17.8v-.2C61.6 57.3 62.2 68 62.3 68.5zm-4.6-11.8c.3.2.6.3.9.3.3 0 .6-.2.9-.5l3.3-4c.2-.3.3-.7.3-1 0-.4-.2-.7-.5-.9-.2-.2-.5-.3-.8-.3h-.2c-.4 0-.7.2-.9.5l-3.2 4.1c-.2.3-.3.6-.3.9.1.3.2.6.5.9zm-18.8-4.9c.7-5.1 2.9-12.4 9.2-17.1-6.7 1.4-12.2 6-14.7 12.2 2.5 1 4.4 2.9 5.5 4.9zm-.3 4.8c-.1-2.8-2.2-6.5-5.8-8-.6 1.9-.9 4-.9 6.1 0 6 2.7 11.4 6.8 15l-.1-12.2v-.9z"/><path class="st2" d="M40.4 56.5v4.6c.9-1.3 2.2-2.3 3.6-3 .2-2.4.7-5.9 1.8-8.6-1-1-1.1-2.6-.3-3.8l2.8-4.4c.5-.7 1.2-1.2 2-1.4.5-.1 1.1-.1 1.6 0l.4-.6c.3-.4.8-.5 1.2-.3.4.3.5.8.3 1.2l-.3.8c.3.4.6.9.7 1.4.2.8 0 1.7-.5 2.4l-2.9 4.3c-.6.9-1.5 1.4-2.5 1.4-.2 0-.5 0-.7-.1-.9 2.2-1.3 4.9-1.6 7.1.4-.1 2.4-.4 4.3-.1.3-1.3.8-2.8 1.4-4.3.2-.4 4.1-8.9 13.4-14.3-3.5-2.9-8-4.6-12.9-4.6-11 5.6-11.8 18.6-11.8 22.3z"/><path class="st2" d="M55 64.7c.1-1.7.4-4.3 1.3-6.9-1.1-1.1-1.2-2.9-.3-4.1l3.2-4.1c.5-.7 1.3-1.1 2.1-1.2.5-.1 1.1 0 1.5.2l.4-.5c.3-.4.9-.5 1.3-.1.4.3.5.9.1 1.3l-.4.5c.3.4.5.9.5 1.5.1.8-.2 1.7-.7 2.3l-3.3 4c-.5.6-1.2 1-2 1.1h-.8c-.8 2.4-1.1 4.9-1.1 6.4 1.4.5 2.7 1.3 3.7 2.5.1-3.2 1.4-12.4 11.9-15.2-.5-4.8-2.7-9.1-6-12.3-9.2 5.1-13.2 13.7-13.2 13.8-.6 1.3-1 2.7-1.3 3.9.5.1 1 .3 1.6.6-.2.7-.3 1.3-.4 1.8-.5-.3-1.1-.5-1.5-.7-.3 2-.2 3.5-.2 3.5l.1 11.8h.9c.9 0 1.8-.1 2.7-.2l-.1-8h-1.6v-1.9h1.2m-14.1 1.8v4.7c1.1.8 2.3 1.4 3.5 2l-.1-11.9v-1c-2.1 1.2-3.4 3.6-3.4 6.2zm9.3-7.4c-2.1-.3-3.6.1-3.6.1-.2 0-.3.1-.5.1-.1 1.1-.1 1.8-.1 1.9l.1 12.6c1.2.4 2.5.7 3.9.9l-.1-11.6c.1-.2 0-1.8.3-4zm47.4-21.8c.9.6 1.6 1.3 2.3 2.2l-2.3 1.8-.8.7c-.4-.6-1-1.2-1.7-1.6-.7-.4-1.5-.6-2.3-.6-.7 0-1.3.1-1.9.4-.6.3-1.1.6-1.6 1.1-.4.4-.8 1-1.1 1.6-.3.6-.4 1.2-.4 1.9v11.6h-4V35.8h4v1.5c.7-.5 1.5-.8 2.3-1.1.8-.3 1.7-.4 2.6-.4.9 0 1.8.1 2.6.4.9.3 1.6.6 2.3 1.1zm15.2-1.5c1.4 0 2.8.3 4 .8 1.2.5 2.3 1.3 3.3 2.2.9.9 1.7 2 2.2 3.3.5 1.2.8 2.6.8 4s-.3 2.8-.8 4c-.5 1.2-1.3 2.3-2.2 3.3-.9.9-2 1.7-3.3 2.2-1.2.5-2.6.8-4 .8s-2.8-.3-4-.8c-1.2-.5-2.3-1.3-3.3-2.2-.9-.9-1.7-2-2.2-3.3-.5-1.2-.8-2.6-.8-4s.3-2.8.8-4c.5-1.2 1.3-2.3 2.2-3.3.9-.9 2-1.7 3.3-2.2 1.2-.6 2.5-.8 4-.8zm0 16.5c.9 0 1.7-.2 2.4-.5.8-.3 1.4-.8 2-1.3.6-.6 1-1.2 1.3-2 .3-.8.5-1.6.5-2.4 0-.9-.2-1.7-.5-2.4-.3-.8-.8-1.4-1.3-2-.6-.6-1.2-1-2-1.3-.8-.3-1.6-.5-2.4-.5-.9 0-1.7.2-2.4.5-.8.3-1.4.8-2 1.3-.6.6-1 1.2-1.4 2-.3.8-.5 1.6-.5 2.4 0 .9.2 1.7.5 2.4.3.8.8 1.4 1.4 2 .6.6 1.2 1 2 1.3.7.4 1.5.5 2.4.5zm26.4-5.5c.4.5.6 1.1.9 1.7.2.6.3 1.3.3 1.9 0 .9-.2 1.7-.6 2.4-.4.7-.8 1.4-1.4 1.9-.6.5-1.3 1-2.1 1.3-.8.3-1.7.4-2.5.4-1.2-.1-2.4-.4-3.4-1s-1.8-1.4-2.3-2.4l3.4-2.3c.1.5.4.9.9 1.2.4.3 1 .5 1.6.5.7 0 1.3-.2 1.8-.6.5-.4.8-.9.8-1.5v-.7c-.2-.4-.5-.8-1-1.1-.1-.1-.2-.1-.4-.2l-1.2-.6c-.4-.2-.9-.4-1.3-.6-.5-.2-.9-.5-1.3-.7-.4-.2-.9-.5-1.2-.9l-.1-.1c-.5-.5-1-1.1-1.3-1.8-.3-.7-.5-1.4-.4-2.2 0-.8.2-1.5.5-2.2.3-.7.8-1.3 1.3-1.8.6-.5 1.2-.9 2-1.2.8-.3 1.6-.4 2.4-.4 1.1.1 2.1.3 3 .8.9.5 1.6 1.2 2.1 2l-3.3 2.3c-.2-.3-.4-.5-.8-.7-.4-.2-.7-.3-1.2-.3-.6 0-1.1.1-1.5.4-.4.3-.6.7-.6 1.1v.3c.1.3.2.5.4.7.2.2.5.4.8.5.5.3 1.1.6 1.7.9.6.3 1.3.6 1.9 1 .5.2.9.5 1.4.9l.2.2c-.1.2.2.5.5.9zm17.9.6h-7.8c.2.7.4 1.4.8 2 .4.6.8 1.1 1.4 1.6.5.4 1.2.8 1.8 1 .7.2 1.4.4 2.1.4.9 0 1.8-.2 2.6-.5.8-.4 1.5-.9 2.1-1.5h4.7c-.2.4-.3.8-.6 1.1-.2.4-.5.7-.7 1-.9 1.2-2.1 2.2-3.5 2.9-1.4.7-2.9 1.1-4.6 1.1-1.4 0-2.8-.3-4-.8-1.2-.5-2.3-1.3-3.3-2.2-.9-.9-1.7-2-2.2-3.3-.5-1.2-.8-2.6-.8-4s.3-2.8.8-4c.5-1.2 1.3-2.3 2.2-3.3.9-.9 2-1.7 3.3-2.2 1.2-.5 2.6-.8 4-.8 1.6 0 3.2.4 4.6 1.1 1.4.7 2.6 1.7 3.5 2.9.9 1 1.5 2.3 1.9 3.7.2.8.4 1.7.4 2.7 0 .5 0 .9-.1 1.3h-8.6zm-1.6-7.6c-1.3 0-2.4.3-3.4 1s-1.8 1.5-2.3 2.6h11.4c-.1-.2-.3-.4-.4-.6-.1-.2-.2-.4-.4-.6-.6-.7-1.3-1.3-2.2-1.8s-1.8-.6-2.7-.6zm24.9-4c1.4 0 2.8.3 4 .8 1.3.5 2.4 1.3 3.3 2.2.9.9 1.7 2 2.2 3.3.5 1.3.8 2.6.8 4.1v10.1h-4v-1.9c-.9.7-1.9 1.2-2.9 1.6-1.1.4-2.2.6-3.4.6-1.4 0-2.8-.3-4-.8-1.3-.5-2.4-1.3-3.3-2.2-.9-.9-1.7-2-2.2-3.3s-.8-2.6-.8-4 .3-2.8.8-4.1c.5-1.3 1.3-2.4 2.2-3.3.9-.9 2-1.7 3.3-2.2 1.2-.6 2.5-.9 4-.9zm0 16.8c.9 0 1.7-.2 2.5-.5s1.4-.8 2-1.4c.6-.6 1-1.2 1.4-2 .3-.8.5-1.6.5-2.5 0-.9-.2-1.7-.5-2.5s-.8-1.4-1.4-2c-.6-.6-1.2-1-2-1.4-.8-.3-1.6-.5-2.5-.5-.9 0-1.7.2-2.5.5s-1.4.8-2 1.4c-.6.6-1 1.2-1.4 2-.3.8-.5 1.6-.5 2.5 0 .9.2 1.7.5 2.5s.8 1.4 1.4 2c.6.6 1.2 1 2 1.4.8.3 1.6.5 2.5.5zm33.1-16.8v11.7c0 1.6-.4 3-1.1 4.3-.7 1.3-1.7 2.4-2.9 3.2-.7.5-1.5.8-2.3 1.1-.8.3-1.7.4-2.6.4-.9 0-1.8-.1-2.6-.4-.8-.3-1.6-.6-2.3-1.1-1.2-.8-2.2-1.9-2.9-3.2-.7-1.3-1.1-2.7-1.1-4.3V35.8h4v11.6c0 .7.1 1.3.4 1.9.3.6.6 1.1 1 1.6.4.4 1 .8 1.6 1.1.6.3 1.2.4 1.9.4s1.3-.1 1.9-.4c.6-.3 1.1-.6 1.6-1.1.5-.4.8-1 1.1-1.6.3-.6.4-1.2.4-1.9V35.8h3.9z"/><path class="st1" d="M83.4 61.5H86v10.7h6.2v2.5h-8.8V61.5zm13.3 6.6c0-.9.2-1.8.5-2.6s.8-1.5 1.4-2.2c.6-.6 1.3-1.1 2.2-1.5.8-.4 1.7-.5 2.6-.5.9 0 1.8.2 2.6.5s1.5.9 2.2 1.5c.6.6 1.1 1.4 1.5 2.2.4.8.5 1.7.5 2.6 0 .9-.2 1.8-.5 2.6-.4.8-.8 1.5-1.5 2.2-.6.6-1.4 1.1-2.2 1.4-.8.3-1.7.5-2.6.5-.9 0-1.8-.2-2.6-.5s-1.5-.8-2.2-1.4c-.6-.6-1.1-1.3-1.4-2.2s-.5-1.6-.5-2.6zm2.7 0c0 .6.1 1.1.3 1.6s.5 1 .9 1.3.8.7 1.3.9c.5.2 1 .3 1.6.3.6 0 1.1-.1 1.6-.3.5-.2.9-.5 1.3-.9s.6-.8.8-1.3.3-1.1.3-1.6c0-.6-.1-1.2-.3-1.7s-.5-1-.9-1.4-.8-.7-1.3-.9c-.5-.2-1-.3-1.6-.3s-1.1.1-1.6.3c-.5.2-.9.5-1.3.9s-.7.8-.9 1.4-.2 1.1-.2 1.7zm14.5 6.6 6-13.8h.1l6 13.8h-3l-3.8-9.7 1.9-1.3-4.6 11h-2.6zm4-4.8h4l.9 2.2h-5.7l.8-2.2zm12.5 4.8V61.5h4c1.3 0 2.5.2 3.4.6.9.4 1.7.9 2.3 1.6.6.7 1 1.4 1.3 2.2s.4 1.6.4 2.5c0 1-.2 1.9-.5 2.7-.4.8-.8 1.5-1.4 2s-1.3 1-2.1 1.3-1.7.4-2.6.4h-4.8zm2.6-2.5h1.5c.7 0 1.3-.1 1.8-.3s1-.4 1.4-.8c.4-.3.7-.8.9-1.3.2-.5.3-1.1.3-1.8 0-.9-.1-1.6-.4-2.1-.3-.5-.6-1-1-1.3-.4-.3-.8-.5-1.3-.6-.4-.1-.8-.2-1.1-.2H133v8.4zm22.2-10.7h8.3V64h-5.7v3h4.9v2.5h-4.9v5.2h-2.6V61.5zm13.3 0h2.6v10.7h6.2v2.5h-8.8V61.5zm13.2 6.6c0-.9.2-1.8.5-2.6s.8-1.5 1.4-2.2c.6-.6 1.3-1.1 2.2-1.5.8-.4 1.7-.5 2.6-.5.9 0 1.8.2 2.6.5s1.5.9 2.2 1.5c.6.6 1.1 1.4 1.5 2.2.4.8.5 1.7.5 2.6 0 .9-.2 1.8-.5 2.6-.4.8-.8 1.5-1.5 2.2-.6.6-1.4 1.1-2.2 1.4-.8.3-1.7.5-2.6.5-.9 0-1.8-.2-2.6-.5s-1.5-.8-2.2-1.4c-.6-.6-1.1-1.3-1.4-2.2s-.5-1.6-.5-2.6zm2.7 0c0 .6.1 1.1.3 1.6s.5 1 .9 1.3.8.7 1.3.9c.5.2 1 .3 1.6.3.6 0 1.1-.1 1.6-.3.5-.2.9-.5 1.3-.9s.6-.8.8-1.3.3-1.1.3-1.6c0-.6-.1-1.2-.3-1.7s-.5-1-.9-1.4-.8-.7-1.3-.9c-.5-.2-1-.3-1.6-.3s-1.1.1-1.6.3c-.5.2-.9.5-1.3.9s-.7.8-.9 1.4-.2 1.1-.2 1.7zm14.9-6.5h3.1l2.8 8.3-.4-.2 2.5-6.1 1.2 3.6-3.8 8.2-5.4-13.8zm6.6 0h2.6l3.3 8-.5-.1 2.4-8h2.8l-5.1 13.7-5.5-13.6z"/></svg>
