<?xml version="1.0" encoding="utf-8"?>
<!-- Generator: Adobe Illustrator 27.3.1, SVG Export Plug-In . SVG Version: 6.00 Build 0)  -->
<svg version="1.1" id="Calque_1" xmlns="http://www.w3.org/2000/svg" xmlns:xlink="http://www.w3.org/1999/xlink" x="0px" y="0px"
	 viewBox="0 0 244.9 101.5" style="enable-background:new 0 0 244.9 101.5;" xml:space="preserve">
<style type="text/css">
	.st0{fill:#FFFFFF;}
	.st1{fill:#CAD40E;}
	.st2{fill:#234F82;}
</style>
<g>
	<g>
		<circle class="st0" cx="52.2" cy="54.5" r="20.3"/>
		<g>
			<path class="st1" d="M53.3,53.8c0-0.1,4-8.7,13.2-13.8c0,0,0,0,0,0c-0.4-0.4-0.9-0.8-1.4-1.2c0,0,0,0,0,0c0,0,0,0,0,0
				c-9.3,5.4-13.3,13.9-13.4,14.3c-0.7,1.5-1.1,2.9-1.4,4.3c-2.1-0.4-4.3,0.1-4.4,0.1c-2.2,0.5-4.1,1.8-5.4,3.6l0-3.6l0-0.1
				c0,0,0-0.3,0-0.7h0c0-0.1,0-0.2,0-0.2c0-3.7,0.8-16.7,11.8-22.2c0,0-0.1,0-0.1,0c-1.3,0-2.7,0.2-3.9,0.4
				c-6.3,4.8-8.5,12.1-9.2,17.2c-1.2-2-3.1-3.9-5.6-4.9c-0.2,0.6-0.4,1.1-0.6,1.7c3.6,1.5,5.8,5.2,5.8,8c0,0.5,0,0.8,0,1l0.1,12.2
				c0.6,0.5,1.2,1,1.8,1.4l0-4.7h0c0-3.4,2.4-6.5,5.8-7.3c0,0,1.5-0.4,3.6-0.1c-0.3,2.2-0.3,3.7-0.3,4l0.1,11.6
				c0.3,0,0.6,0.1,0.9,0.1c0,0,0,0,0.1,0c0.3,0,0.6,0,0.9,0.1l-0.1-11.8l0,0c0,0-0.1-1.5,0.2-3.5c0.5,0.2,1,0.4,1.5,0.7
				c0.1-0.5,0.2-1.2,0.4-1.8c-0.6-0.3-1.1-0.5-1.6-0.6C52.2,56.5,52.6,55.2,53.3,53.8z"/>
			<path class="st1" d="M55,66.6l0.1,8.1c0.6-0.1,1.2-0.2,1.8-0.3l0-7.3C56.2,66.8,55.6,66.6,55,66.6z"/>
			<g>
				<path class="st1" d="M55,64.7c0.6,0,1.2,0.1,1.8,0.3c0.1-1.5,0.3-4,1.1-6.4c0.2,0,0.4,0,0.5,0c0.1,0,0.2,0,0.3,0
					c0.8-0.1,1.5-0.5,2-1.1l3.3-4c0.5-0.7,0.8-1.5,0.7-2.3c0-0.5-0.2-1-0.5-1.5l0.4-0.5c0.3-0.4,0.2-1-0.1-1.3
					c-0.4-0.3-1-0.2-1.3,0.1L63,48.6c-0.5-0.2-1-0.3-1.5-0.2c-0.8,0.1-1.6,0.5-2.1,1.2l-3.2,4.1c-1,1.2-0.9,3,0.3,4.1
					C55.4,60.4,55.1,63,55,64.7z M57.5,54.9l3.2-4.1c0.2-0.3,0.6-0.5,0.9-0.5c0.1,0,0.1,0,0.2,0c0.3,0,0.6,0.1,0.8,0.3v0
					c0.3,0.2,0.4,0.5,0.5,0.9c0,0.4-0.1,0.7-0.3,1l-3.3,4c-0.2,0.3-0.5,0.4-0.9,0.5c-0.3,0-0.7-0.1-0.9-0.3
					c-0.3-0.2-0.4-0.5-0.5-0.9C57.2,55.5,57.3,55.1,57.5,54.9z"/>
			</g>
			<g>
				<path class="st2" d="M56.8,74.3c1.3-0.3,2.5-0.7,3.6-1.2l0-0.6c0-2.4-1.6-4.6-3.7-5.5c0,0,0,0,0,0L56.8,74.3z"/>
			</g>
			<g>
				<path class="st2" d="M49.2,48.1l2.9-4.3c0.2-0.3,0.3-0.7,0.2-1.1c-0.1-0.4-0.3-0.7-0.6-0.8c-0.2-0.1-0.5-0.2-0.7-0.2
					c-0.1,0-0.2,0-0.3,0c-0.4,0.1-0.7,0.3-0.9,0.6l-2.8,4.4c-0.4,0.6-0.2,1.4,0.4,1.8C48,48.8,48.8,48.6,49.2,48.1z"/>
				<path class="st2" d="M62.3,68.5L62.3,68.5l0,3.6c0,0,0,0.1,0,0.1c6.1-3.5,10.3-10.2,10.2-17.8c0-0.1,0-0.2,0-0.2
					C61.6,57.3,62.2,68,62.3,68.5z"/>
			</g>
			<g>
				<path class="st2" d="M57.7,56.7c0.3,0.2,0.6,0.3,0.9,0.3c0.3,0,0.6-0.2,0.9-0.5l3.3-4c0.2-0.3,0.3-0.7,0.3-1
					c0-0.4-0.2-0.7-0.5-0.9v0c-0.2-0.2-0.5-0.3-0.8-0.3c-0.1,0-0.1,0-0.2,0c-0.4,0-0.7,0.2-0.9,0.5l-3.2,4.1
					c-0.2,0.3-0.3,0.6-0.3,0.9C57.3,56.1,57.4,56.4,57.7,56.7z"/>
			</g>
			<g>
				<path class="st2" d="M38.9,51.8c0.7-5.1,2.9-12.4,9.2-17.1c-6.7,1.4-12.2,6-14.7,12.2C35.9,47.9,37.8,49.8,38.9,51.8z"/>
				<path class="st2" d="M38.6,56.6c-0.1-2.8-2.2-6.5-5.8-8c-0.6,1.9-0.9,4-0.9,6.1c0,6,2.7,11.4,6.8,15l-0.1-12.2
					C38.6,57.4,38.6,57.1,38.6,56.6z"/>
				<path class="st2" d="M40.4,56.5c0,0.1,0,0.2,0,0.2h0c0,0.5,0,0.7,0,0.7l0,0.1l0,3.6c0.9-1.3,2.2-2.3,3.6-3
					c0.2-2.4,0.7-5.9,1.8-8.6c-1-1-1.1-2.6-0.3-3.8l2.8-4.4c0.5-0.7,1.2-1.2,2-1.4c0.5-0.1,1.1-0.1,1.6,0l0.4-0.6
					c0.3-0.4,0.8-0.5,1.2-0.3c0.4,0.3,0.5,0.8,0.3,1.2L53.5,41c0.3,0.4,0.6,0.9,0.7,1.4c0.2,0.8,0,1.7-0.5,2.4l-2.9,4.3
					c-0.6,0.9-1.5,1.4-2.5,1.4c-0.2,0-0.5,0-0.7-0.1c-0.9,2.2-1.3,4.9-1.6,7.1c0.4-0.1,2.4-0.4,4.3-0.1c0.3-1.3,0.8-2.8,1.4-4.3
					c0.2-0.4,4.1-8.9,13.4-14.3c-3.5-2.9-8-4.6-12.9-4.6C41.2,39.8,40.4,52.8,40.4,56.5z"/>
				<path class="st2" d="M55,64.7c0.1-1.7,0.4-4.3,1.3-6.9c-1.1-1.1-1.2-2.9-0.3-4.1l3.2-4.1c0.5-0.7,1.3-1.1,2.1-1.2
					c0.5-0.1,1.1,0,1.5,0.2l0.4-0.5c0.3-0.4,0.9-0.5,1.3-0.1c0.4,0.3,0.5,0.9,0.1,1.3l-0.4,0.5c0.3,0.4,0.5,0.9,0.5,1.5
					c0.1,0.8-0.2,1.7-0.7,2.3l-3.3,4c-0.5,0.6-1.2,1-2,1.1c-0.1,0-0.2,0-0.3,0c-0.2,0-0.4,0-0.5,0c-0.8,2.4-1.1,4.9-1.1,6.4h0
					c1.4,0.5,2.7,1.3,3.7,2.5c0.1-3.2,1.4-12.4,11.9-15.2c-0.5-4.8-2.7-9.1-6-12.3c-9.2,5.1-13.2,13.7-13.2,13.8
					c-0.6,1.3-1,2.7-1.3,3.9c0.5,0.1,1,0.3,1.6,0.6c-0.2,0.7-0.3,1.3-0.4,1.8c-0.5-0.3-1.1-0.5-1.5-0.7c-0.3,2-0.2,3.5-0.2,3.5l0,0
					l0.1,11.8c0.3,0,0.6,0,0.9,0c0.9,0,1.8-0.1,2.7-0.2L55,66.6c-0.1,0-0.3,0-0.4,0c-0.4,0-0.9,0-1.2,0l0-1.9c0.3,0,0.7,0,1.2,0"/>
				<path class="st2" d="M40.5,66.5L40.5,66.5l0,4.7c1.1,0.8,2.3,1.4,3.5,2l-0.1-11.9c0-0.1,0-0.4,0-1
					C41.8,61.5,40.5,63.9,40.5,66.5z"/>
				<path class="st2" d="M49.8,59.1c-2.1-0.3-3.6,0.1-3.6,0.1c-0.2,0-0.3,0.1-0.5,0.1c-0.1,1.1-0.1,1.8-0.1,1.9l0.1,12.6
					c1.2,0.4,2.5,0.7,3.9,0.9l-0.1-11.6C49.6,62.9,49.5,61.3,49.8,59.1z"/>
			</g>
		</g>
	</g>
	<g>
		<g>
			<path class="st2" d="M97.2,37.3c0.9,0.6,1.6,1.3,2.3,2.2l-2.3,1.8L96.4,42c-0.4-0.6-1-1.2-1.7-1.6c-0.7-0.4-1.5-0.6-2.3-0.6
				c-0.7,0-1.3,0.1-1.9,0.4c-0.6,0.3-1.1,0.6-1.6,1.1c-0.4,0.4-0.8,1-1.1,1.6c-0.3,0.6-0.4,1.2-0.4,1.9v7.4v4.2h-4V44.7v-8.9h4v1.5
				c0.7-0.5,1.5-0.8,2.3-1.1c0.8-0.3,1.7-0.4,2.6-0.4c0.9,0,1.8,0.1,2.6,0.4C95.8,36.5,96.5,36.8,97.2,37.3z"/>
			<path class="st2" d="M112.4,35.8c1.4,0,2.8,0.3,4,0.8c1.2,0.5,2.3,1.3,3.3,2.2c0.9,0.9,1.7,2,2.2,3.3c0.5,1.2,0.8,2.6,0.8,4
				c0,1.4-0.3,2.8-0.8,4c-0.5,1.2-1.3,2.3-2.2,3.3c-0.9,0.9-2,1.7-3.3,2.2c-1.2,0.5-2.6,0.8-4,0.8c-1.4,0-2.8-0.3-4-0.8
				c-1.2-0.5-2.3-1.3-3.3-2.2c-0.9-0.9-1.7-2-2.2-3.3c-0.5-1.2-0.8-2.6-0.8-4c0-1.4,0.3-2.8,0.8-4c0.5-1.2,1.3-2.3,2.2-3.3
				c0.9-0.9,2-1.7,3.3-2.2C109.6,36,110.9,35.8,112.4,35.8z M112.4,52.3c0.9,0,1.7-0.2,2.4-0.5c0.8-0.3,1.4-0.8,2-1.3
				c0.6-0.6,1-1.2,1.3-2c0.3-0.8,0.5-1.6,0.5-2.4c0-0.9-0.2-1.7-0.5-2.4c-0.3-0.8-0.8-1.4-1.3-2c-0.6-0.6-1.2-1-2-1.3
				c-0.8-0.3-1.6-0.5-2.4-0.5c-0.9,0-1.7,0.2-2.4,0.5c-0.8,0.3-1.4,0.8-2,1.3c-0.6,0.6-1,1.2-1.4,2c-0.3,0.8-0.5,1.6-0.5,2.4
				c0,0.9,0.2,1.7,0.5,2.4c0.3,0.8,0.8,1.4,1.4,2c0.6,0.6,1.2,1,2,1.3C110.7,52.2,111.5,52.3,112.4,52.3z"/>
			<path class="st2" d="M138.8,46.8c0.4,0.5,0.6,1.1,0.9,1.7c0.2,0.6,0.3,1.3,0.3,1.9c0,0.9-0.2,1.7-0.6,2.4
				c-0.4,0.7-0.8,1.4-1.4,1.9c-0.6,0.5-1.3,1-2.1,1.3c-0.8,0.3-1.7,0.4-2.5,0.4c-1.2-0.1-2.4-0.4-3.4-1c-1-0.6-1.8-1.4-2.3-2.4
				l3.4-2.3c0.1,0.5,0.4,0.9,0.9,1.2c0.4,0.3,1,0.5,1.6,0.5c0.7,0,1.3-0.2,1.8-0.6c0.5-0.4,0.8-0.9,0.8-1.5c0-0.2,0-0.3,0-0.4v-0.1
				c0-0.1,0-0.1,0-0.1c0,0,0-0.1,0-0.1c-0.2-0.4-0.5-0.8-1-1.1c-0.1-0.1-0.2-0.1-0.4-0.2l0,0c-0.4-0.2-0.8-0.4-1.2-0.6
				c-0.4-0.2-0.9-0.4-1.3-0.6c-0.5-0.2-0.9-0.5-1.3-0.7c-0.4-0.2-0.9-0.5-1.2-0.9v0l-0.1-0.1c-0.5-0.5-1-1.1-1.3-1.8
				c-0.3-0.7-0.5-1.4-0.4-2.2c0-0.8,0.2-1.5,0.5-2.2c0.3-0.7,0.8-1.3,1.3-1.8c0.6-0.5,1.2-0.9,2-1.2c0.8-0.3,1.6-0.4,2.4-0.4
				c1.1,0.1,2.1,0.3,3,0.8c0.9,0.5,1.6,1.2,2.1,2l-3.3,2.3c-0.2-0.3-0.4-0.5-0.8-0.7c-0.4-0.2-0.7-0.3-1.2-0.3
				c-0.6,0-1.1,0.1-1.5,0.4c-0.4,0.3-0.6,0.7-0.6,1.1c0,0.1,0,0.2,0,0.3c0.1,0.3,0.2,0.5,0.4,0.7c0.2,0.2,0.5,0.4,0.8,0.5
				c0.5,0.3,1.1,0.6,1.7,0.9c0.6,0.3,1.3,0.6,1.9,1c0.5,0.2,0.9,0.5,1.4,0.9l0.2,0.2C138.2,46.1,138.5,46.4,138.8,46.8z"/>
			<path class="st2" d="M156.7,47.4h-7.8c0.2,0.7,0.4,1.4,0.8,2c0.4,0.6,0.8,1.1,1.4,1.6c0.5,0.4,1.2,0.8,1.8,1
				c0.7,0.2,1.4,0.4,2.1,0.4c0.9,0,1.8-0.2,2.6-0.5c0.8-0.4,1.5-0.9,2.1-1.5h0.7h4c-0.2,0.4-0.3,0.8-0.6,1.1c-0.2,0.4-0.5,0.7-0.7,1
				c-0.9,1.2-2.1,2.2-3.5,2.9c-1.4,0.7-2.9,1.1-4.6,1.1c-1.4,0-2.8-0.3-4-0.8c-1.2-0.5-2.3-1.3-3.3-2.2c-0.9-0.9-1.7-2-2.2-3.3
				c-0.5-1.2-0.8-2.6-0.8-4c0-1.4,0.3-2.8,0.8-4c0.5-1.2,1.3-2.3,2.2-3.3c0.9-0.9,2-1.7,3.3-2.2c1.2-0.5,2.6-0.8,4-0.8
				c1.6,0,3.2,0.4,4.6,1.1c1.4,0.7,2.6,1.7,3.5,2.9c0.9,1,1.5,2.3,1.9,3.7c0.2,0.8,0.4,1.7,0.4,2.7c0,0.5,0,0.9-0.1,1.3h-4.1H156.7z
				 M155.1,39.8c-1.3,0-2.4,0.3-3.4,1c-1,0.7-1.8,1.5-2.3,2.6h9.1h2.3c-0.1-0.2-0.3-0.4-0.4-0.6c-0.1-0.2-0.2-0.4-0.4-0.6
				c-0.6-0.7-1.3-1.3-2.2-1.8S156,39.8,155.1,39.8z"/>
			<path class="st2" d="M180,35.8c1.4,0,2.8,0.3,4,0.8c1.3,0.5,2.4,1.3,3.3,2.2c0.9,0.9,1.7,2,2.2,3.3c0.5,1.3,0.8,2.6,0.8,4.1v10.1
				h-4v-1.9c-0.9,0.7-1.9,1.2-2.9,1.6c-1.1,0.4-2.2,0.6-3.4,0.6c-1.4,0-2.8-0.3-4-0.8c-1.3-0.5-2.4-1.3-3.3-2.2
				c-0.9-0.9-1.7-2-2.2-3.3s-0.8-2.6-0.8-4c0-1.4,0.3-2.8,0.8-4.1c0.5-1.3,1.3-2.4,2.2-3.3c0.9-0.9,2-1.7,3.3-2.2
				C177.2,36.1,178.5,35.8,180,35.8z M180,52.6c0.9,0,1.7-0.2,2.5-0.5c0.8-0.3,1.4-0.8,2-1.4c0.6-0.6,1-1.2,1.4-2
				c0.3-0.8,0.5-1.6,0.5-2.5c0-0.9-0.2-1.7-0.5-2.5c-0.3-0.8-0.8-1.4-1.4-2c-0.6-0.6-1.2-1-2-1.4c-0.8-0.3-1.6-0.5-2.5-0.5
				c-0.9,0-1.7,0.2-2.5,0.5c-0.8,0.3-1.4,0.8-2,1.4c-0.6,0.6-1,1.2-1.4,2c-0.3,0.8-0.5,1.6-0.5,2.5c0,0.9,0.2,1.7,0.5,2.5
				c0.3,0.8,0.8,1.4,1.4,2c0.6,0.6,1.2,1,2,1.4C178.3,52.4,179.1,52.6,180,52.6z"/>
			<path class="st2" d="M213.1,35.8v11.7c0,1.6-0.4,3-1.1,4.3c-0.7,1.3-1.7,2.4-2.9,3.2c-0.7,0.5-1.5,0.8-2.3,1.1
				c-0.8,0.3-1.7,0.4-2.6,0.4c-0.9,0-1.8-0.1-2.6-0.4c-0.8-0.3-1.6-0.6-2.3-1.1c-1.2-0.8-2.2-1.9-2.9-3.2c-0.7-1.3-1.1-2.7-1.1-4.3
				V35.8h4V40v7.4c0,0.7,0.1,1.3,0.4,1.9c0.3,0.6,0.6,1.1,1,1.6c0.4,0.4,1,0.8,1.6,1.1c0.6,0.3,1.2,0.4,1.9,0.4
				c0.7,0,1.3-0.1,1.9-0.4c0.6-0.3,1.1-0.6,1.6-1.1c0.5-0.4,0.8-1,1.1-1.6c0.3-0.6,0.4-1.2,0.4-1.9V40v-4.2H213.1z"/>
		</g>
	</g>
</g>
<g>
	<g>
		<path class="st1" d="M83.4,61.5H86v10.7h6.2v2.5h-8.8V61.5z"/>
		<path class="st1" d="M96.7,68.1c0-0.9,0.2-1.8,0.5-2.6c0.3-0.8,0.8-1.5,1.4-2.2c0.6-0.6,1.3-1.1,2.2-1.5c0.8-0.4,1.7-0.5,2.6-0.5
			c0.9,0,1.8,0.2,2.6,0.5s1.5,0.9,2.2,1.5c0.6,0.6,1.1,1.4,1.5,2.2c0.4,0.8,0.5,1.7,0.5,2.6c0,0.9-0.2,1.8-0.5,2.6
			c-0.4,0.8-0.8,1.5-1.5,2.2c-0.6,0.6-1.4,1.1-2.2,1.4c-0.8,0.3-1.7,0.5-2.6,0.5c-0.9,0-1.8-0.2-2.6-0.5c-0.8-0.3-1.5-0.8-2.2-1.4
			c-0.6-0.6-1.1-1.3-1.4-2.2S96.7,69.1,96.7,68.1z M99.4,68.1c0,0.6,0.1,1.1,0.3,1.6s0.5,1,0.9,1.3s0.8,0.7,1.3,0.9
			c0.5,0.2,1,0.3,1.6,0.3c0.6,0,1.1-0.1,1.6-0.3c0.5-0.2,0.9-0.5,1.3-0.9s0.6-0.8,0.8-1.3s0.3-1.1,0.3-1.6c0-0.6-0.1-1.2-0.3-1.7
			s-0.5-1-0.9-1.4s-0.8-0.7-1.3-0.9c-0.5-0.2-1-0.3-1.6-0.3s-1.1,0.1-1.6,0.3c-0.5,0.2-0.9,0.5-1.3,0.9s-0.7,0.8-0.9,1.4
			S99.4,67.5,99.4,68.1z"/>
		<path class="st1" d="M113.9,74.7l6-13.8h0.1l6,13.8h-3l-3.8-9.7l1.9-1.3l-4.6,11H113.9z M117.9,69.9h4l0.9,2.2h-5.7L117.9,69.9z"
			/>
		<path class="st1" d="M130.4,74.7V61.5h4c1.3,0,2.5,0.2,3.4,0.6c0.9,0.4,1.7,0.9,2.3,1.6c0.6,0.7,1,1.4,1.3,2.2s0.4,1.6,0.4,2.5
			c0,1-0.2,1.9-0.5,2.7c-0.4,0.8-0.8,1.5-1.4,2s-1.3,1-2.1,1.3s-1.7,0.4-2.6,0.4H130.4z M133,72.2h1.5c0.7,0,1.3-0.1,1.8-0.3
			s1-0.4,1.4-0.8c0.4-0.3,0.7-0.8,0.9-1.3c0.2-0.5,0.3-1.1,0.3-1.8c0-0.9-0.1-1.6-0.4-2.1c-0.3-0.5-0.6-1-1-1.3
			c-0.4-0.3-0.8-0.5-1.3-0.6c-0.4-0.1-0.8-0.2-1.1-0.2H133V72.2z"/>
		<path class="st1" d="M155.2,61.5h8.3V64h-5.7v3h4.9v2.5h-4.9v5.2h-2.6V61.5z"/>
		<path class="st1" d="M168.5,61.5h2.6v10.7h6.2v2.5h-8.8V61.5z"/>
		<path class="st1" d="M181.7,68.1c0-0.9,0.2-1.8,0.5-2.6c0.3-0.8,0.8-1.5,1.4-2.2c0.6-0.6,1.3-1.1,2.2-1.5c0.8-0.4,1.7-0.5,2.6-0.5
			c0.9,0,1.8,0.2,2.6,0.5s1.5,0.9,2.2,1.5c0.6,0.6,1.1,1.4,1.5,2.2c0.4,0.8,0.5,1.7,0.5,2.6c0,0.9-0.2,1.8-0.5,2.6
			c-0.4,0.8-0.8,1.5-1.5,2.2c-0.6,0.6-1.4,1.1-2.2,1.4c-0.8,0.3-1.7,0.5-2.6,0.5c-0.9,0-1.8-0.2-2.6-0.5c-0.8-0.3-1.5-0.8-2.2-1.4
			c-0.6-0.6-1.1-1.3-1.4-2.2S181.7,69.1,181.7,68.1z M184.4,68.1c0,0.6,0.1,1.1,0.3,1.6s0.5,1,0.9,1.3s0.8,0.7,1.3,0.9
			c0.5,0.2,1,0.3,1.6,0.3c0.6,0,1.1-0.1,1.6-0.3c0.5-0.2,0.9-0.5,1.3-0.9s0.6-0.8,0.8-1.3s0.3-1.1,0.3-1.6c0-0.6-0.1-1.2-0.3-1.7
			s-0.5-1-0.9-1.4s-0.8-0.7-1.3-0.9c-0.5-0.2-1-0.3-1.6-0.3s-1.1,0.1-1.6,0.3c-0.5,0.2-0.9,0.5-1.3,0.9s-0.7,0.8-0.9,1.4
			S184.4,67.5,184.4,68.1z"/>
		<path class="st1" d="M199.3,61.6h3.1l2.8,8.3l-0.4-0.2l2.5-6.1l1.2,3.6l-3.8,8.2L199.3,61.6z M205.9,61.6h2.6l3.3,8l-0.5-0.1
			l2.4-8h2.8l-5.1,13.7L205.9,61.6z"/>
	</g>
</g>
</svg>
