<svg xmlns="http://www.w3.org/2000/svg" xmlns:xlink="http://www.w3.org/1999/xlink" width="269.725" height="250.923" viewBox="0 0 202.294 188.192"><defs><symbol overflow="visible" id="b"><path style="stroke:none" d="M3.078-7.078h.594L6.609 0h-.734l-.922-2.219H1.781L.875 0h-.75Zm1.719 4.312-1.422-3.5-1.453 3.5Zm0 0"/></symbol><symbol overflow="visible" id="c"><path style="stroke:none" d="M6.203-1.828c0 .355-.09.672-.266.953a1.87 1.87 0 0 1-.718.64A2.126 2.126 0 0 1 4.234 0H.891v-7.078h3.406c.332 0 .617.09.86.266.238.18.421.406.546.687a1.915 1.915 0 0 1-.062 1.828 1.63 1.63 0 0 1-.75.672c.406.117.722.34.953.672.238.324.36.7.36 1.125Zm-.687-.11c0-.238-.059-.457-.172-.656a1.293 1.293 0 0 0-.438-.5 1.003 1.003 0 0 0-.61-.203H1.579v2.688h2.656c.227 0 .438-.063.625-.188.196-.125.352-.285.47-.484a1.25 1.25 0 0 0 .187-.657Zm-3.938-4.53v2.609h2.438c.226 0 .43-.063.609-.188.188-.125.332-.285.438-.484.101-.196.156-.407.156-.625 0-.239-.055-.457-.157-.657a1.155 1.155 0 0 0-.406-.468.94.94 0 0 0-.578-.188Zm0 0"/></symbol><symbol overflow="visible" id="d"><path style="stroke:none" d="M.422-3.594c0-.426.07-.847.219-1.265.156-.414.375-.797.656-1.141a2.993 2.993 0 0 1 1.047-.813 3.25 3.25 0 0 1 1.437-.312c.625 0 1.16.148 1.61.438.457.292.789.664 1 1.109l-.547.344a2.14 2.14 0 0 0-.578-.735 2.033 2.033 0 0 0-.75-.39 2.61 2.61 0 0 0-.782-.125c-.43 0-.804.086-1.125.25-.324.168-.601.39-.828.671a3.087 3.087 0 0 0-.5.954 3.273 3.273 0 0 0-.172 1.062c0 .399.067.774.204 1.125.132.356.32.672.562.953.238.274.52.492.844.657.32.167.672.25 1.047.25.27 0 .539-.047.812-.141a2.62 2.62 0 0 0 .781-.422c.25-.195.446-.453.594-.766l.578.313c-.148.344-.375.64-.687.89a3.16 3.16 0 0 1-1.016.563 3.462 3.462 0 0 1-1.094.188c-.492 0-.937-.102-1.343-.313a3.536 3.536 0 0 1-1.063-.828 3.877 3.877 0 0 1-.672-1.188 3.918 3.918 0 0 1-.234-1.328Zm0 0"/></symbol><symbol overflow="visible" id="e"><path style="stroke:none" d="M1.578-5.797V0H.891v-7.078h.578l4.64 5.906v-5.89h.704V0h-.657Zm0 0"/></symbol><symbol overflow="visible" id="f"><path style="stroke:none" d="M3.766.047c-.555 0-1.024-.098-1.407-.297a2.383 2.383 0 0 1-.921-.797 3.524 3.524 0 0 1-.5-1.14A5.496 5.496 0 0 1 .78-3.516v-3.562h.688v3.562c0 .375.035.743.11 1.094.081.344.206.656.374.938.176.28.41.507.703.671.29.157.66.235 1.11.235.445 0 .816-.082 1.109-.25.3-.176.535-.399.703-.672a3.18 3.18 0 0 0 .36-.938c.07-.351.109-.71.109-1.078v-3.562h.703v3.562c0 .48-.055.938-.156 1.375-.106.43-.278.805-.516 1.125a2.66 2.66 0 0 1-.937.782c-.375.187-.836.28-1.375.28Zm0 0"/></symbol><symbol overflow="visible" id="m"><path style="stroke:none" d="M.89 0v-7.078h.688V0Zm0 0"/></symbol><symbol overflow="visible" id="g"><path style="stroke:none" d="M.266-1.188c0-.257.07-.484.218-.671.145-.196.348-.348.61-.454a2.62 2.62 0 0 1 .922-.156c.195 0 .406.024.625.063.218.031.414.078.593.14v-.359c0-.344-.105-.617-.312-.828-.211-.207-.496-.313-.86-.313-.23 0-.453.043-.671.125a3.954 3.954 0 0 0-.672.36l-.203-.39c.27-.177.535-.313.796-.407.258-.094.524-.14.797-.14.508 0 .91.148 1.204.437.3.293.453.695.453 1.203v1.922c0 .074.015.133.046.172.032.03.083.046.157.046V0c-.063.008-.117.016-.156.016a.184.184 0 0 1-.094 0c-.137 0-.242-.04-.313-.125a.407.407 0 0 1-.094-.25l-.015-.313a1.86 1.86 0 0 1-.735.563 2.25 2.25 0 0 1-.89.187c-.274 0-.516-.058-.734-.172a1.367 1.367 0 0 1-.5-.453 1.222 1.222 0 0 1-.172-.64Zm2.78.313c.052-.07.095-.14.126-.203a.43.43 0 0 0 .062-.203v-.594a3.015 3.015 0 0 0-.578-.156 2.848 2.848 0 0 0-.578-.063c-.387 0-.7.078-.937.235a.691.691 0 0 0-.36.625c0 .156.035.304.11.437.082.137.203.25.359.344.156.086.336.125.547.125.258 0 .5-.05.719-.156.226-.102.406-.235.53-.391Zm0 0"/></symbol><symbol overflow="visible" id="h"><path style="stroke:none" d="M4.094 0h-.547v-2.313c0-.488-.074-.847-.219-1.078-.148-.226-.371-.343-.672-.343-.219 0-.433.054-.64.156a1.89 1.89 0 0 0-.532.422c-.156.18-.273.383-.343.61V0H.594v-4.156h.5v.937c.113-.195.258-.367.437-.515.176-.157.38-.274.61-.36.226-.082.468-.125.718-.125.227 0 .422.043.579.125a.974.974 0 0 1 .374.36c.094.156.16.343.204.562.05.219.078.465.078.735Zm0 0"/></symbol><symbol overflow="visible" id="i"><path style="stroke:none" d="M2.625.078a1.73 1.73 0 0 1-.906-.25 1.83 1.83 0 0 1-.64-.64V0H.593v-5.813h.547v2.532c.187-.281.41-.504.671-.672.258-.176.563-.266.907-.266.289 0 .55.063.781.188.227.117.426.277.594.484.164.2.289.43.375.688.082.261.125.527.125.796 0 .293-.055.57-.157.829A2.08 2.08 0 0 1 3.405-.093c-.242.113-.5.171-.781.171ZM2.5-.39c.227 0 .438-.046.625-.14a1.56 1.56 0 0 0 .484-.375c.145-.156.254-.332.329-.531A1.902 1.902 0 0 0 3.86-2.89a1.623 1.623 0 0 0-.516-.626 1.311 1.311 0 0 0-.781-.234 1.23 1.23 0 0 0-.594.156c-.18.094-.34.219-.485.375a2.4 2.4 0 0 0-.343.516v1.281a.91.91 0 0 0 .156.406c.094.125.207.235.344.329.132.085.273.156.421.218.157.055.301.078.438.078Zm0 0"/></symbol><symbol overflow="visible" id="j"><path style="stroke:none" d="M2.406.078c-.312 0-.594-.058-.844-.172a2.06 2.06 0 0 1-.656-.469 2.263 2.263 0 0 1-.594-1.53c0-.384.086-.739.266-1.063.176-.332.422-.594.735-.781A2.055 2.055 0 0 1 2.39-4.22c.382 0 .722.09 1.015.266.301.18.524.418.672.719l-.531.171a1.22 1.22 0 0 0-.485-.5 1.353 1.353 0 0 0-.703-.187c-.273 0-.523.074-.75.219a1.57 1.57 0 0 0-.546.594c-.137.25-.204.53-.204.843 0 .313.067.602.204.86.144.25.328.453.546.609.227.156.485.234.766.234.176 0 .348-.03.516-.093.164-.07.312-.16.437-.266a.873.873 0 0 0 .25-.36l.547.157c-.074.2-.2.375-.375.531-.18.156-.383.281-.61.375a2.18 2.18 0 0 1-.734.125Zm0 0"/></symbol><clipPath id="a"><path d="M0 0h202.293v188.191H0Zm0 0"/></clipPath><clipPath id="k"><path d="M198 12h4.293v4H198Zm0 0"/></clipPath><clipPath id="l"><path d="M193 6h9.293v16H193Zm0 0"/></clipPath><clipPath id="n"><path d="M198 168h4.293v4H198Zm0 0"/></clipPath><clipPath id="o"><path d="M193 162h9.293v16H193Zm0 0"/></clipPath><clipPath id="p"><path d="M198 139h4.293v5H198Zm0 0"/></clipPath><clipPath id="q"><path d="M193 134h9.293v15H193Zm0 0"/></clipPath><clipPath id="r"><path d="M198 97h4.293v4H198Zm0 0"/></clipPath><clipPath id="s"><path d="M193 91h9.293v16H193Zm0 0"/></clipPath></defs><g clip-path="url(#a)"><path style="stroke:none;fill-rule:nonzero;fill:#fff;fill-opacity:1" d="M0 188.191V0h202.297v188.191Zm0 0"/></g><use xlink:href="#b" x="83.754" y="10.394" style="fill:#000;fill-opacity:1"/><use xlink:href="#c" x="3.321" y="145.01" style="fill:#000;fill-opacity:1"/><use xlink:href="#d" x="157.351" y="152.106" style="fill:#000;fill-opacity:1"/><use xlink:href="#e" x="75.911" y="95.434" style="fill:#000;fill-opacity:1"/><path style="fill:none;stroke-width:.3985;stroke-linecap:butt;stroke-linejoin:miter;stroke:#000;stroke-opacity:1;stroke-miterlimit:10" d="M0 85.039V75.12m0 0V44.504m15.714-20.98v18.148M-.001 20.692V0" transform="matrix(1 0 0 -1 87.122 98.953)"/><path style="fill-rule:nonzero;fill:#000;fill-opacity:1;stroke-width:.3985;stroke-linecap:butt;stroke-linejoin:miter;stroke:#000;stroke-opacity:1;stroke-miterlimit:10" d="M1.589 85.039a1.589 1.589 0 1 1-3.178.002 1.589 1.589 0 0 1 3.178-.002Zm0 0" transform="matrix(1 0 0 -1 87.122 98.953)"/><path style="fill:none;stroke-width:.797;stroke-linecap:butt;stroke-linejoin:miter;stroke:#000;stroke-opacity:1;stroke-miterlimit:10" d="M11.905 32.598c0 6.578-5.328 11.906-11.906 11.906-6.574 0-11.906-5.328-11.906-11.906 0-6.575 5.332-11.907 11.906-11.907 6.578 0 11.906 5.332 11.906 11.907Zm0 0" transform="matrix(1 0 0 -1 87.122 98.953)"/><path style="fill:none;stroke-width:.797;stroke-linecap:butt;stroke-linejoin:miter;stroke:#000;stroke-opacity:1;stroke-miterlimit:10" d="M-5.954 32.598c.973 1.523 1.898 2.976 2.977 2.976 1.078 0 2.007-1.453 2.976-2.976.973-1.524 1.899-2.977 2.977-2.977 1.078 0 2.007 1.453 2.976 2.977" transform="matrix(1 0 0 -1 87.122 98.953)"/><path style="fill-rule:nonzero;fill:#000;fill-opacity:1;stroke-width:.3985;stroke-linecap:butt;stroke-linejoin:miter;stroke:#000;stroke-opacity:1;stroke-miterlimit:10" d="M1.589 0a1.588 1.588 0 0 1-3.176 0A1.587 1.587 0 0 1 1.59 0Zm14.125 37.457h1.984l-1.984 4.215-1.984-4.215Zm0 0" transform="matrix(1 0 0 -1 87.122 98.953)"/><use xlink:href="#f" x="107.41" y="68.108" style="fill:#000;fill-opacity:1"/><g style="fill:#000;fill-opacity:1"><use xlink:href="#g" x="114.932" y="69.603"/><use xlink:href="#h" x="119.276" y="69.603"/></g><path style="fill:none;stroke-width:.398;stroke-linecap:butt;stroke-linejoin:miter;stroke:#000;stroke-opacity:1;stroke-miterlimit:10" d="M0-.001h17.012" transform="matrix(1 0 0 -1 107.41 71.077)"/><path style="fill:none;stroke-width:.3985;stroke-linecap:butt;stroke-linejoin:miter;stroke:#000;stroke-opacity:1;stroke-miterlimit:10" d="m-73.645-42.52 8.59 4.961m0 0 8.593 4.961L-38.54-22.25m10.309 24.098-15.715-9.075m26.027-3.12L0 0" transform="matrix(1 0 0 -1 87.122 98.953)"/><path style="fill-rule:nonzero;fill:#000;fill-opacity:1;stroke-width:.3985;stroke-linecap:butt;stroke-linejoin:miter;stroke:#000;stroke-opacity:1;stroke-miterlimit:10" d="M-72.06-42.52a1.587 1.587 0 1 1-3.174-.002 1.587 1.587 0 0 1 3.174.002Zm0 0" transform="matrix(1 0 0 -1 87.122 98.953)"/><path style="fill:none;stroke-width:.797;stroke-linecap:butt;stroke-linejoin:miter;stroke:#000;stroke-opacity:1;stroke-miterlimit:10" d="M-34.184-5.988c-5.696-3.29-7.645-10.57-4.356-16.262 3.285-5.695 10.566-7.649 16.262-4.36 5.695 3.29 7.644 10.57 4.36 16.262-3.29 5.696-10.571 7.649-16.267 4.36Zm0 0" transform="matrix(1 0 0 -1 87.122 98.953)"/><path style="fill:none;stroke-width:.797;stroke-linecap:butt;stroke-linejoin:miter;stroke:#000;stroke-opacity:1;stroke-miterlimit:10" d="M-25.255-21.453c-1.805.078-3.527.156-4.066 1.09-.54.93.254 2.46 1.09 4.062.836 1.606 1.629 3.133 1.09 4.066-.54.934-2.262 1.012-4.067 1.09" transform="matrix(1 0 0 -1 87.122 98.953)"/><path style="fill-rule:nonzero;fill:#000;fill-opacity:1;stroke-width:.3985;stroke-linecap:butt;stroke-linejoin:miter;stroke:#000;stroke-opacity:1;stroke-miterlimit:10" d="M1.589 0a1.588 1.588 0 0 1-3.176 0A1.587 1.587 0 0 1 1.59 0Zm-41.883-5.117-.992 1.718-2.66-3.828 4.644.39Zm0 0" transform="matrix(1 0 0 -1 87.122 98.953)"/><use xlink:href="#f" x="30.067" y="92.93" style="fill:#000;fill-opacity:1"/><g style="fill:#000;fill-opacity:1"><use xlink:href="#i" x="37.589" y="95.317"/><use xlink:href="#h" x="42.507" y="95.317"/></g><path style="fill:none;stroke-width:.398;stroke-linecap:butt;stroke-linejoin:miter;stroke:#000;stroke-opacity:1;stroke-miterlimit:10" d="M0 .002h17.585" transform="matrix(1 0 0 -1 30.067 96.791)"/><path style="fill:none;stroke-width:.3985;stroke-linecap:butt;stroke-linejoin:miter;stroke:#000;stroke-opacity:1;stroke-miterlimit:10" d="m73.648-42.52-8.594 4.961m0 0-8.59 4.961L38.542-22.25m-26.027-3.121 15.718-9.074M17.921-10.348-.001 0" transform="matrix(1 0 0 -1 87.122 98.953)"/><path style="fill-rule:nonzero;fill:#000;fill-opacity:1;stroke-width:.3985;stroke-linecap:butt;stroke-linejoin:miter;stroke:#000;stroke-opacity:1;stroke-miterlimit:10" d="M75.233-42.52a1.587 1.587 0 1 1-3.174-.002 1.587 1.587 0 0 1 3.174.002Zm0 0" transform="matrix(1 0 0 -1 87.122 98.953)"/><path style="fill:none;stroke-width:.797;stroke-linecap:butt;stroke-linejoin:miter;stroke:#000;stroke-opacity:1;stroke-miterlimit:10" d="M22.28-26.61c5.692-3.289 12.973-1.335 16.262 4.36 3.29 5.691 1.336 12.973-4.36 16.262-5.69 3.289-12.972 1.336-16.261-4.36-3.29-5.691-1.336-12.972 4.36-16.261Zm0 0" transform="matrix(1 0 0 -1 87.122 98.953)"/><path style="fill:none;stroke-width:.797;stroke-linecap:butt;stroke-linejoin:miter;stroke:#000;stroke-opacity:1;stroke-miterlimit:10" d="M31.206-11.145c.836-1.601 1.629-3.132 1.09-4.066-.54-.934-2.258-1.012-4.066-1.09-1.805-.078-3.524-.156-4.063-1.086-.539-.933.254-2.465 1.09-4.066" transform="matrix(1 0 0 -1 87.122 98.953)"/><path style="fill-rule:nonzero;fill:#000;fill-opacity:1;stroke-width:.3985;stroke-linecap:butt;stroke-linejoin:miter;stroke:#000;stroke-opacity:1;stroke-miterlimit:10" d="M1.589 0a1.588 1.588 0 0 1-3.176 0A1.587 1.587 0 0 1 1.59 0Zm22.992-32.336-.992-1.719 4.644-.39-2.66 3.824Zm0 0" transform="matrix(1 0 0 -1 87.122 98.953)"/><use xlink:href="#f" x="87.071" y="140.189" style="fill:#000;fill-opacity:1"/><g style="fill:#000;fill-opacity:1"><use xlink:href="#j" x="94.593" y="141.684"/><use xlink:href="#h" x="98.969" y="141.684"/></g><path style="fill:none;stroke-width:.398;stroke-linecap:butt;stroke-linejoin:miter;stroke:#000;stroke-opacity:1;stroke-miterlimit:10" d="M0 .002h17.042" transform="matrix(1 0 0 -1 87.071 143.158)"/><path style="fill:none;stroke-width:.3985;stroke-linecap:butt;stroke-linejoin:miter;stroke:#000;stroke-opacity:1;stroke-miterlimit:10" d="M113.386 85.039H56.694m0 0H0" transform="matrix(1 0 0 -1 87.122 98.953)"/><g clip-path="url(#k)"><path style="stroke:none;fill-rule:nonzero;fill:#000;fill-opacity:1" d="M202.098 13.914a1.589 1.589 0 1 0-3.178-.002 1.589 1.589 0 0 0 3.178.002Zm0 0"/></g><g clip-path="url(#l)"><path style="fill:none;stroke-width:.3985;stroke-linecap:butt;stroke-linejoin:miter;stroke:#000;stroke-opacity:1;stroke-miterlimit:10" d="M114.976 85.039a1.589 1.589 0 1 1-3.178.002 1.589 1.589 0 0 1 3.178-.002Zm0 0" transform="matrix(1 0 0 -1 87.122 98.953)"/></g><path style="fill-rule:nonzero;fill:#000;fill-opacity:1;stroke-width:.3985;stroke-linecap:butt;stroke-linejoin:miter;stroke:#000;stroke-opacity:1;stroke-miterlimit:10" d="M1.589 85.039a1.589 1.589 0 1 1-3.178.002 1.589 1.589 0 0 1 3.178-.002Zm56.84 0v1.984l-4.215-1.984 4.215-1.984Zm0 0" transform="matrix(1 0 0 -1 87.122 98.953)"/><use xlink:href="#m" x="140.158" y="24.507" style="fill:#000;fill-opacity:1"/><use xlink:href="#g" x="142.629" y="26.002" style="fill:#000;fill-opacity:1"/><path style="fill:none;stroke-width:.398;stroke-linecap:butt;stroke-linejoin:miter;stroke:#000;stroke-opacity:1;stroke-miterlimit:10" d="M-.002 0h7.317" transform="matrix(1 0 0 -1 140.158 27.476)"/><path style="fill:none;stroke-width:.3985;stroke-linecap:butt;stroke-linejoin:miter;stroke:#000;stroke-opacity:1;stroke-miterlimit:10" d="M113.386-70.867H19.87m0 0h-93.515" transform="matrix(1 0 0 -1 87.122 98.953)"/><g clip-path="url(#n)"><path style="stroke:none;fill-rule:nonzero;fill:#000;fill-opacity:1" d="M202.098 169.82a1.588 1.588 0 0 0-3.176 0 1.587 1.587 0 0 0 3.176 0Zm0 0"/></g><g clip-path="url(#o)"><path style="fill:none;stroke-width:.3985;stroke-linecap:butt;stroke-linejoin:miter;stroke:#000;stroke-opacity:1;stroke-miterlimit:10" d="M114.976-70.867a1.588 1.588 0 0 1-3.176 0 1.587 1.587 0 0 1 3.176 0Zm0 0" transform="matrix(1 0 0 -1 87.122 98.953)"/></g><path style="fill-rule:nonzero;fill:#000;fill-opacity:1;stroke-width:.3985;stroke-linecap:butt;stroke-linejoin:miter;stroke:#000;stroke-opacity:1;stroke-miterlimit:10" d="M21.605-70.867v1.984l-4.215-1.984 4.215-1.985Zm0 0" transform="matrix(1 0 0 -1 87.122 98.953)"/><use xlink:href="#m" x="103.048" y="180.413" style="fill:#000;fill-opacity:1"/><use xlink:href="#i" x="105.519" y="182.799" style="fill:#000;fill-opacity:1"/><path style="fill:none;stroke-width:.398;stroke-linecap:butt;stroke-linejoin:miter;stroke:#000;stroke-opacity:1;stroke-miterlimit:10" d="M-.001 0h7.887" transform="matrix(1 0 0 -1 103.048 184.274)"/><path style="fill:none;stroke-width:.3985;stroke-linecap:butt;stroke-linejoin:miter;stroke:#000;stroke-opacity:1;stroke-miterlimit:10" d="M113.386-42.52H93.519m0 0H73.648" transform="matrix(1 0 0 -1 87.122 98.953)"/><g clip-path="url(#p)"><path style="stroke:none;fill-rule:nonzero;fill:#000;fill-opacity:1" d="M202.098 141.473a1.588 1.588 0 0 0-3.176 0c0 .879.71 1.586 1.586 1.586.879 0 1.59-.707 1.59-1.586Zm0 0"/></g><g clip-path="url(#q)"><path style="fill:none;stroke-width:.3985;stroke-linecap:butt;stroke-linejoin:miter;stroke:#000;stroke-opacity:1;stroke-miterlimit:10" d="M114.976-42.52a1.588 1.588 0 0 1-3.176 0c0-.879.71-1.586 1.586-1.586.879 0 1.59.707 1.59 1.586Zm0 0" transform="matrix(1 0 0 -1 87.122 98.953)"/></g><path style="fill-rule:nonzero;fill:#000;fill-opacity:1;stroke-width:.3985;stroke-linecap:butt;stroke-linejoin:miter;stroke:#000;stroke-opacity:1;stroke-miterlimit:10" d="M75.233-42.52a1.587 1.587 0 1 1-3.174-.002 1.587 1.587 0 0 1 3.174.002Zm20.02 0v1.985l-4.215-1.985 4.215-1.984Zm0 0" transform="matrix(1 0 0 -1 87.122 98.953)"/><use xlink:href="#m" x="176.966" y="152.066" style="fill:#000;fill-opacity:1"/><use xlink:href="#j" x="179.436" y="153.561" style="fill:#000;fill-opacity:1"/><path style="fill:none;stroke-width:.398;stroke-linecap:butt;stroke-linejoin:miter;stroke:#000;stroke-opacity:1;stroke-miterlimit:10" d="M-.001 0h7.344" transform="matrix(1 0 0 -1 176.966 155.035)"/><path style="fill:none;stroke-width:.3985;stroke-linecap:butt;stroke-linejoin:miter;stroke:#000;stroke-opacity:1;stroke-miterlimit:10" d="M-73.645-70.867v28.347M113.386 0H56.694m0 0H0" transform="matrix(1 0 0 -1 87.122 98.953)"/><g clip-path="url(#r)"><path style="stroke:none;fill-rule:nonzero;fill:#000;fill-opacity:1" d="M202.098 98.953a1.588 1.588 0 0 0-3.176 0 1.587 1.587 0 0 0 3.176 0Zm0 0"/></g><g clip-path="url(#s)"><path style="fill:none;stroke-width:.3985;stroke-linecap:butt;stroke-linejoin:miter;stroke:#000;stroke-opacity:1;stroke-miterlimit:10" d="M114.976 0a1.588 1.588 0 0 1-3.176 0 1.587 1.587 0 0 1 3.176 0Zm0 0" transform="matrix(1 0 0 -1 87.122 98.953)"/></g><path style="fill-rule:nonzero;fill:#000;fill-opacity:1;stroke-width:.3985;stroke-linecap:butt;stroke-linejoin:miter;stroke:#000;stroke-opacity:1;stroke-miterlimit:10" d="M58.429 0v1.984L54.214 0l4.215-1.984Zm0 0" transform="matrix(1 0 0 -1 87.122 98.953)"/><use xlink:href="#m" x="140.007" y="109.547" style="fill:#000;fill-opacity:1"/><use xlink:href="#h" x="142.478" y="111.041" style="fill:#000;fill-opacity:1"/><path style="fill:none;stroke-width:.398;stroke-linecap:butt;stroke-linejoin:miter;stroke:#000;stroke-opacity:1;stroke-miterlimit:10" d="M0-.002h7.614" transform="matrix(1 0 0 -1 140.007 112.436)"/></svg>
