<svg xmlns="http://www.w3.org/2000/svg" xmlns:xlink="http://www.w3.org/1999/xlink" width="216.769" height="149.345" viewBox="0 0 162.577 112.009"><defs><path id="b" d="M.86-7.078 3.39-.875l2.516-6.203h.735L3.703 0h-.625L.125-7.078Zm0 0"/><path id="j" d="M.89 0v-7.078h.688V0Zm0 0"/><path id="c" d="M3.234-.5V0H.531v-.5h1.14v-3.406a1.1 1.1 0 0 1-.218.219q-.158.11-.36.203c-.124.062-.25.117-.374.156a1.1 1.1 0 0 1-.36.062v-.53c.125 0 .258-.032.407-.095q.216-.105.406-.234c.133-.094.25-.18.344-.266a1 1 0 0 0 .156-.156h.547V-.5Zm0 0"/><path id="d" d="m.688.64.14-.671H.641v-.75h.515v.75L.97.64Zm0 0"/><path id="e" d="M.266-1.187c0-.258.07-.485.218-.672q.217-.295.61-.453c.27-.102.578-.157.922-.157.195 0 .406.024.625.063q.326.047.593.14v-.359c0-.344-.105-.617-.312-.828q-.315-.312-.86-.313-.344.001-.671.125-.316.127-.672.36l-.203-.39q.405-.266.797-.407.386-.14.796-.14.763.002 1.204.437.451.44.453 1.203v1.922q0 .112.046.172.047.045.157.046V0c-.063.008-.117.016-.156.016a.2.2 0 0 1-.094 0q-.206.001-.313-.125a.4.4 0 0 1-.094-.25l-.015-.313a1.86 1.86 0 0 1-.735.563 2.25 2.25 0 0 1-.89.187c-.274 0-.516-.058-.734-.172a1.4 1.4 0 0 1-.5-.453 1.2 1.2 0 0 1-.172-.64m2.78.312q.079-.107.126-.203.06-.107.062-.203v-.594a3 3 0 0 0-.578-.156 3 3 0 0 0-.578-.063q-.581 0-.937.235a.69.69 0 0 0-.36.625q-.001.236.11.437.124.204.359.344.232.127.547.125.389.002.719-.156c.226-.102.406-.235.53-.391m0 0"/><path id="f" d="M2.625.078q-.485.001-.906-.25a1.8 1.8 0 0 1-.64-.64V0H.593v-5.812h.547v2.53q.28-.42.672-.671c.257-.176.562-.266.906-.266q.434 0 .781.188.341.174.594.484.246.3.375.688.124.392.125.797-.002.44-.157.828-.14.376-.406.672-.268.299-.625.468-.361.172-.781.172M2.5-.39c.227 0 .438-.046.625-.14q.281-.141.484-.375.217-.233.329-.531.107-.311.109-.625 0-.436-.188-.829a1.6 1.6 0 0 0-.515-.625 1.3 1.3 0 0 0-.781-.234 1.23 1.23 0 0 0-.594.156q-.269.141-.485.375-.204.234-.343.516v1.281a.9.9 0 0 0 .156.406q.14.188.344.329.198.126.422.218c.156.055.3.078.437.078m0 0"/><path id="g" d="M2.406.078q-.469 0-.844-.172a2.1 2.1 0 0 1-.656-.468 2.26 2.26 0 0 1-.593-1.532c0-.383.085-.738.265-1.062q.265-.5.735-.781A2.06 2.06 0 0 1 2.39-4.22q.574.001 1.015.266.45.269.672.719l-.531.172a1.2 1.2 0 0 0-.485-.5 1.35 1.35 0 0 0-.703-.188q-.41 0-.75.219a1.57 1.57 0 0 0-.546.594q-.205.374-.204.843 0 .471.204.86.217.375.546.609.343.234.766.234.264 0 .516-.093.248-.106.437-.266a.9.9 0 0 0 .25-.36l.547.157q-.112.298-.375.531-.27.234-.61.375a2.2 2.2 0 0 1-.734.125m0 0"/><path id="h" d="M4.094 0h-.547v-2.312q0-.733-.219-1.079-.221-.341-.672-.343-.329.001-.64.156a1.9 1.9 0 0 0-.532.422c-.156.18-.273.383-.343.61V0H.594v-4.156h.5v.937q.169-.293.437-.515c.176-.157.38-.274.61-.36.226-.082.468-.125.718-.125q.342.001.579.125a1 1 0 0 1 .374.36q.14.234.204.562.077.33.078.735Zm0 0"/><path id="i" d="M.344 0q0-.265.047-.547.058-.279.187-.547.14-.264.406-.515.265-.248.688-.485l.484-.219q.246-.123.469-.265c.145-.094.258-.195.344-.313a.77.77 0 0 0 .016-.812.75.75 0 0 0-.344-.313 1.3 1.3 0 0 0-.594-.125q-.252.001-.469.079a1.3 1.3 0 0 0-.36.171 2 2 0 0 0-.265.22 2 2 0 0 1-.187.171l-.344-.375.172-.172a2.3 2.3 0 0 1 .36-.25q.216-.141.515-.234.31-.094.672-.094.48.001.828.172c.226.117.406.266.531.453q.188.283.188.625 0 .328-.141.563a1.5 1.5 0 0 1-.36.406 3.5 3.5 0 0 1-.89.5 3.4 3.4 0 0 0-.625.36 2 2 0 0 0-.406.359A1.35 1.35 0 0 0 .922-.5h2.844V0Zm0 0"/><clipPath id="a"><path d="M0 0h162.578v112.008H0Zm0 0"/></clipPath></defs><g clip-path="url(#a)"><path fill="#fff" d="M0 112.008V0h162.578v112.008Zm0 0"/></g><use xlink:href="#b" x="3.894" y="19.517"/><use xlink:href="#c" x="10.659" y="21.011"/><use xlink:href="#d" x="14.07" y="21.011"/><use xlink:href="#e" x="15.863" y="21.011"/><path fill="none" stroke="#000" stroke-miterlimit="10" stroke-width=".398" d="M3.895 23.05h16.808"/><use xlink:href="#b" x="3.321" y="47.417"/><use xlink:href="#c" x="10.085" y="49.804"/><use xlink:href="#d" x="13.496" y="49.804"/><use xlink:href="#f" x="15.289" y="49.804"/><path fill="none" stroke="#000" stroke-miterlimit="10" stroke-width=".398" d="M3.32 51.844h17.387"/><use xlink:href="#b" x="3.862" y="76.21"/><use xlink:href="#c" x="10.627" y="77.704"/><use xlink:href="#d" x="14.038" y="77.704"/><use xlink:href="#g" x="15.831" y="77.704"/><path fill="none" stroke="#000" stroke-miterlimit="10" stroke-width=".398" d="M3.863 79.742h16.84"/><use xlink:href="#b" x="3.591" y="104.556"/><use xlink:href="#c" x="10.356" y="106.05"/><use xlink:href="#d" x="13.767" y="106.05"/><use xlink:href="#h" x="15.56" y="106.05"/><path fill="none" stroke="#000" stroke-miterlimit="10" stroke-width=".398" d="M3.59 108.09h17.113"/><use xlink:href="#b" x="141.131" y="19.517"/><use xlink:href="#i" x="147.895" y="21.011"/><use xlink:href="#d" x="152.047" y="21.011"/><use xlink:href="#e" x="153.841" y="21.011"/><path fill="none" stroke="#000" stroke-miterlimit="10" stroke-width=".398" d="M141.133 23.05h17.55"/><use xlink:href="#b" x="141.131" y="47.417"/><use xlink:href="#i" x="147.895" y="49.804"/><use xlink:href="#d" x="152.047" y="49.804"/><use xlink:href="#f" x="153.841" y="49.804"/><path fill="none" stroke="#000" stroke-miterlimit="10" stroke-width=".398" d="M141.133 51.844h18.125"/><use xlink:href="#b" x="141.131" y="76.21"/><use xlink:href="#i" x="147.895" y="77.704"/><use xlink:href="#d" x="152.047" y="77.704"/><use xlink:href="#g" x="153.841" y="77.704"/><path fill="none" stroke="#000" stroke-miterlimit="10" stroke-width=".398" d="M141.133 79.742h17.582"/><use xlink:href="#b" x="141.131" y="104.556"/><use xlink:href="#i" x="147.895" y="106.05"/><use xlink:href="#d" x="152.047" y="106.05"/><use xlink:href="#h" x="153.841" y="106.05"/><path fill="none" stroke="#000" stroke-miterlimit="10" stroke-width=".398" d="M141.133 108.09h17.851"/><path fill="none" stroke="#000" stroke-miterlimit="10" stroke-width=".399" d="M24.227 18.047h14.171m0 0h70.868"/><path stroke="#000" stroke-miterlimit="10" stroke-width=".399" d="M25.586 18.047a1.361 1.361 0 1 0-2.722-.004 1.361 1.361 0 0 0 2.722.004Zm11.324 0v1.7l3.613-1.7-3.613-1.703Zm0 0"/><use xlink:href="#j" x="32.14" y="10.394"/><use xlink:href="#c" x="34.61" y="11.888"/><use xlink:href="#d" x="38.021" y="11.888"/><use xlink:href="#e" x="39.814" y="11.888"/><path fill="none" stroke="#000" stroke-miterlimit="10" stroke-width=".398" d="M32.14 13.93h12.516"/><path fill="none" stroke="#000" stroke-miterlimit="10" stroke-width=".399" d="M24.227 46.39h14.171m0 0h70.868"/><path stroke="#000" stroke-miterlimit="10" stroke-width=".399" d="M25.586 46.39a1.36 1.36 0 1 0-2.72.003 1.36 1.36 0 0 0 2.72-.002Zm11.324 0v1.704l3.613-1.703-3.613-1.7Zm0 0"/><use xlink:href="#j" x="31.853" y="37.848"/><use xlink:href="#c" x="34.324" y="40.235"/><use xlink:href="#d" x="37.735" y="40.235"/><use xlink:href="#f" x="39.528" y="40.235"/><path fill="none" stroke="#000" stroke-miterlimit="10" stroke-width=".398" d="M31.852 42.273h13.093"/><path fill="none" stroke="#000" stroke-miterlimit="10" stroke-width=".399" d="M24.227 74.738h14.171m0 0h70.868"/><path stroke="#000" stroke-miterlimit="10" stroke-width=".399" d="M25.586 74.738a1.36 1.36 0 1 0-2.72.002 1.36 1.36 0 0 0 2.72-.002Zm11.324 0v1.703l3.613-1.703-3.613-1.699Zm0 0"/><use xlink:href="#j" x="32.124" y="67.087"/><use xlink:href="#c" x="34.595" y="68.581"/><use xlink:href="#d" x="38.006" y="68.581"/><use xlink:href="#g" x="39.799" y="68.581"/><path fill="none" stroke="#000" stroke-miterlimit="10" stroke-width=".398" d="M32.125 70.621h12.547"/><path fill="none" stroke="#000" stroke-miterlimit="10" stroke-width=".399" d="M24.227 103.086h14.171m0 0h70.868"/><path stroke="#000" stroke-miterlimit="10" stroke-width=".399" d="M25.586 103.086a1.36 1.36 0 1 0-2.72.002 1.36 1.36 0 0 0 2.72-.002Zm11.324 0v1.7l3.613-1.7-3.613-1.7Zm0 0"/><use xlink:href="#j" x="31.988" y="95.433"/><use xlink:href="#c" x="34.459" y="96.928"/><use xlink:href="#d" x="37.87" y="96.928"/><use xlink:href="#h" x="39.663" y="96.928"/><path fill="none" stroke="#000" stroke-miterlimit="10" stroke-width=".398" d="M31.988 98.969h12.82"/><path fill="none" stroke="#000" stroke-miterlimit="10" stroke-width=".399" d="M137.613 18.047h-14.175m0 0h-14.172"/><path stroke="#000" stroke-miterlimit="10" stroke-width=".399" d="M138.973 18.047a1.361 1.361 0 1 0-2.723-.004 1.361 1.361 0 0 0 2.723.004Zm-14.047 0v-1.703l-3.614 1.703 3.614 1.7Zm0 0"/><use xlink:href="#j" x="116.808" y="10.394"/><use xlink:href="#i" x="119.279" y="11.888"/><use xlink:href="#d" x="123.431" y="11.888"/><use xlink:href="#e" x="125.225" y="11.888"/><path fill="none" stroke="#000" stroke-miterlimit="10" stroke-width=".398" d="M116.809 13.93h13.257"/><path fill="none" stroke="#000" stroke-miterlimit="10" stroke-width=".399" d="M137.613 46.39h-14.175m0 0h-14.172"/><path stroke="#000" stroke-miterlimit="10" stroke-width=".399" d="M138.973 46.39a1.36 1.36 0 1 0-2.721.003 1.36 1.36 0 0 0 2.72-.002Zm-14.047 0v-1.699l-3.614 1.7 3.614 1.703Zm0 0"/><use xlink:href="#j" x="116.522" y="37.848"/><use xlink:href="#i" x="118.992" y="40.235"/><use xlink:href="#d" x="123.144" y="40.235"/><use xlink:href="#f" x="124.938" y="40.235"/><path fill="none" stroke="#000" stroke-miterlimit="10" stroke-width=".398" d="M116.523 42.273h13.832"/><path fill="none" stroke="#000" stroke-miterlimit="10" stroke-width=".399" d="M137.613 74.738h-14.175m0 0h-14.172"/><path stroke="#000" stroke-miterlimit="10" stroke-width=".399" d="M138.973 74.738a1.36 1.36 0 1 0-2.721.002 1.36 1.36 0 0 0 2.72-.002Zm-14.047 0V73.04l-3.614 1.7 3.614 1.702Zm0 0"/><use xlink:href="#j" x="116.793" y="67.087"/><use xlink:href="#i" x="119.263" y="68.581"/><use xlink:href="#d" x="123.415" y="68.581"/><use xlink:href="#g" x="125.209" y="68.581"/><path fill="none" stroke="#000" stroke-miterlimit="10" stroke-width=".398" d="M116.793 70.621h13.289"/><path fill="none" stroke="#000" stroke-miterlimit="10" stroke-width=".399" d="M137.613 103.086h-14.175m0 0h-14.172"/><path stroke="#000" stroke-miterlimit="10" stroke-width=".399" d="M138.973 103.086a1.36 1.36 0 1 0-2.721.002 1.36 1.36 0 0 0 2.72-.002Zm-14.047 0v-1.7l-3.614 1.7 3.614 1.7Zm0 0"/><use xlink:href="#j" x="116.657" y="95.433"/><use xlink:href="#i" x="119.128" y="96.928"/><use xlink:href="#d" x="123.28" y="96.928"/><use xlink:href="#h" x="125.074" y="96.928"/><path fill="none" stroke="#000" stroke-miterlimit="10" stroke-width=".398" d="M116.656 98.969h13.563"/></svg>
