<svg xmlns="http://www.w3.org/2000/svg" xmlns:xlink="http://www.w3.org/1999/xlink" width="216.769" height="149.345" viewBox="0 0 162.577 112.009"><defs><symbol overflow="visible" id="b"><path style="stroke:none" d="M.86-7.078 3.39-.875l2.516-6.203h.735L3.703 0h-.625L.125-7.078Zm0 0"/></symbol><symbol overflow="visible" id="j"><path style="stroke:none" d="M.89 0v-7.078h.688V0Zm0 0"/></symbol><symbol overflow="visible" id="c"><path style="stroke:none" d="M3.234-.5V0H.531v-.5h1.14v-3.406a1.14 1.14 0 0 1-.218.219c-.105.074-.226.14-.36.203-.124.062-.25.117-.374.156a1.106 1.106 0 0 1-.36.062v-.53c.125 0 .258-.032.407-.095a3.207 3.207 0 0 0 .75-.5.874.874 0 0 0 .156-.156h.547V-.5Zm0 0"/></symbol><symbol overflow="visible" id="d"><path style="stroke:none" d="m.688.64.14-.671H.641v-.75h.515v.75L.97.64Zm0 0"/></symbol><symbol overflow="visible" id="e"><path style="stroke:none" d="M.266-1.188c0-.257.07-.484.218-.671.145-.196.348-.348.61-.454a2.62 2.62 0 0 1 .922-.156c.195 0 .406.024.625.063.218.031.414.078.593.14v-.359c0-.344-.105-.617-.312-.828-.211-.207-.496-.313-.86-.313-.23 0-.453.043-.671.125a3.954 3.954 0 0 0-.672.36l-.203-.39c.27-.177.535-.313.796-.407.258-.094.524-.14.797-.14.508 0 .91.148 1.204.437.3.293.453.695.453 1.203v1.922c0 .074.015.133.046.172.032.03.083.046.157.046V0c-.063.008-.117.016-.156.016a.184.184 0 0 1-.094 0c-.137 0-.242-.04-.313-.125a.407.407 0 0 1-.094-.25l-.015-.313a1.86 1.86 0 0 1-.735.563 2.25 2.25 0 0 1-.89.187c-.274 0-.516-.058-.734-.172a1.367 1.367 0 0 1-.5-.453 1.222 1.222 0 0 1-.172-.64Zm2.78.313c.052-.07.095-.14.126-.203a.43.43 0 0 0 .062-.203v-.594a3.015 3.015 0 0 0-.578-.156 2.848 2.848 0 0 0-.578-.063c-.387 0-.7.078-.937.235a.691.691 0 0 0-.36.625c0 .156.035.304.11.437.082.137.203.25.359.344.156.086.336.125.547.125.258 0 .5-.05.719-.156.226-.102.406-.235.53-.391Zm0 0"/></symbol><symbol overflow="visible" id="f"><path style="stroke:none" d="M2.625.078a1.73 1.73 0 0 1-.906-.25 1.83 1.83 0 0 1-.64-.64V0H.593v-5.813h.547v2.532c.187-.281.41-.504.671-.672.258-.176.563-.266.907-.266.289 0 .55.063.781.188.227.117.426.277.594.484.164.2.289.43.375.688.082.261.125.527.125.796 0 .293-.055.57-.157.829A2.08 2.08 0 0 1 3.405-.093c-.242.113-.5.171-.781.171ZM2.5-.39c.227 0 .438-.046.625-.14a1.56 1.56 0 0 0 .484-.375c.145-.156.254-.332.329-.531A1.902 1.902 0 0 0 3.86-2.89a1.623 1.623 0 0 0-.516-.626 1.311 1.311 0 0 0-.781-.234 1.23 1.23 0 0 0-.594.156c-.18.094-.34.219-.485.375a2.4 2.4 0 0 0-.343.516v1.281a.91.91 0 0 0 .156.406c.094.125.207.235.344.329.132.085.273.156.421.218.157.055.301.078.438.078Zm0 0"/></symbol><symbol overflow="visible" id="g"><path style="stroke:none" d="M2.406.078c-.312 0-.594-.058-.844-.172a2.06 2.06 0 0 1-.656-.469 2.263 2.263 0 0 1-.594-1.53c0-.384.086-.739.266-1.063.176-.332.422-.594.735-.781A2.055 2.055 0 0 1 2.39-4.22c.382 0 .722.09 1.015.266.301.18.524.418.672.719l-.531.171a1.22 1.22 0 0 0-.485-.5 1.353 1.353 0 0 0-.703-.187c-.273 0-.523.074-.75.219a1.57 1.57 0 0 0-.546.594c-.137.25-.204.53-.204.843 0 .313.067.602.204.86.144.25.328.453.546.609.227.156.485.234.766.234.176 0 .348-.03.516-.093.164-.07.312-.16.437-.266a.873.873 0 0 0 .25-.36l.547.157c-.074.2-.2.375-.375.531-.18.156-.383.281-.61.375a2.18 2.18 0 0 1-.734.125Zm0 0"/></symbol><symbol overflow="visible" id="h"><path style="stroke:none" d="M4.094 0h-.547v-2.313c0-.488-.074-.847-.219-1.078-.148-.226-.371-.343-.672-.343-.219 0-.433.054-.64.156a1.89 1.89 0 0 0-.532.422c-.156.18-.273.383-.343.61V0H.594v-4.156h.5v.937c.113-.195.258-.367.437-.515.176-.157.38-.274.61-.36.226-.082.468-.125.718-.125.227 0 .422.043.579.125a.974.974 0 0 1 .374.36c.094.156.16.343.204.562.05.219.078.465.078.735Zm0 0"/></symbol><symbol overflow="visible" id="i"><path style="stroke:none" d="M.344 0c0-.176.015-.36.047-.547.039-.187.101-.367.187-.547.094-.176.227-.347.406-.515.176-.164.407-.329.688-.485l.484-.219c.164-.082.32-.171.469-.265.145-.094.258-.195.344-.313a.765.765 0 0 0 .016-.813.748.748 0 0 0-.344-.312 1.274 1.274 0 0 0-.594-.125c-.168 0-.324.028-.469.079a1.333 1.333 0 0 0-.36.171 2.037 2.037 0 0 0-.265.22 2.11 2.11 0 0 1-.187.171l-.344-.375.172-.172a2.27 2.27 0 0 1 .36-.25 2.06 2.06 0 0 1 .515-.234c.207-.063.43-.094.672-.094.32 0 .597.059.828.172.226.117.406.266.531.453.125.188.188.398.188.625 0 .219-.047.406-.141.563a1.487 1.487 0 0 1-.36.406 3.516 3.516 0 0 1-.89.5 3.41 3.41 0 0 0-.625.36 1.97 1.97 0 0 0-.406.359A1.345 1.345 0 0 0 .922-.5h2.844V0Zm0 0"/></symbol><clipPath id="a"><path d="M0 0h162.578v112.008H0Zm0 0"/></clipPath></defs><g clip-path="url(#a)"><path style="stroke:none;fill-rule:nonzero;fill:#fff;fill-opacity:1" d="M0 112.008V0h162.578v112.008Zm0 0"/></g><use xlink:href="#b" x="3.894" y="19.517" style="fill:#000;fill-opacity:1"/><g style="fill:#000;fill-opacity:1"><use xlink:href="#c" x="10.659" y="21.011"/><use xlink:href="#d" x="14.07" y="21.011"/><use xlink:href="#e" x="15.863" y="21.011"/></g><path style="fill:none;stroke-width:.398;stroke-linecap:butt;stroke-linejoin:miter;stroke:#000;stroke-opacity:1;stroke-miterlimit:10" d="M0 0h16.81" transform="matrix(1 0 0 -1 3.894 23.051)"/><use xlink:href="#b" x="3.321" y="47.417" style="fill:#000;fill-opacity:1"/><g style="fill:#000;fill-opacity:1"><use xlink:href="#c" x="10.085" y="49.804"/><use xlink:href="#d" x="13.496" y="49.804"/><use xlink:href="#f" x="15.289" y="49.804"/></g><path style="fill:none;stroke-width:.398;stroke-linecap:butt;stroke-linejoin:miter;stroke:#000;stroke-opacity:1;stroke-miterlimit:10" d="M0 0h17.386" transform="matrix(1 0 0 -1 3.321 51.844)"/><use xlink:href="#b" x="3.862" y="76.21" style="fill:#000;fill-opacity:1"/><g style="fill:#000;fill-opacity:1"><use xlink:href="#c" x="10.627" y="77.704"/><use xlink:href="#d" x="14.038" y="77.704"/><use xlink:href="#g" x="15.831" y="77.704"/></g><path style="fill:none;stroke-width:.398;stroke-linecap:butt;stroke-linejoin:miter;stroke:#000;stroke-opacity:1;stroke-miterlimit:10" d="M.001.002h16.84" transform="matrix(1 0 0 -1 3.862 79.744)"/><use xlink:href="#b" x="3.591" y="104.556" style="fill:#000;fill-opacity:1"/><g style="fill:#000;fill-opacity:1"><use xlink:href="#c" x="10.356" y="106.05"/><use xlink:href="#d" x="13.767" y="106.05"/><use xlink:href="#h" x="15.56" y="106.05"/></g><path style="fill:none;stroke-width:.398;stroke-linecap:butt;stroke-linejoin:miter;stroke:#000;stroke-opacity:1;stroke-miterlimit:10" d="M-.001.001h17.113" transform="matrix(1 0 0 -1 3.591 108.091)"/><use xlink:href="#b" x="141.131" y="19.517" style="fill:#000;fill-opacity:1"/><g style="fill:#000;fill-opacity:1"><use xlink:href="#i" x="147.895" y="21.011"/><use xlink:href="#d" x="152.047" y="21.011"/><use xlink:href="#e" x="153.841" y="21.011"/></g><path style="fill:none;stroke-width:.398;stroke-linecap:butt;stroke-linejoin:miter;stroke:#000;stroke-opacity:1;stroke-miterlimit:10" d="M.002 0h17.55" transform="matrix(1 0 0 -1 141.131 23.051)"/><use xlink:href="#b" x="141.131" y="47.417" style="fill:#000;fill-opacity:1"/><g style="fill:#000;fill-opacity:1"><use xlink:href="#i" x="147.895" y="49.804"/><use xlink:href="#d" x="152.047" y="49.804"/><use xlink:href="#f" x="153.841" y="49.804"/></g><path style="fill:none;stroke-width:.398;stroke-linecap:butt;stroke-linejoin:miter;stroke:#000;stroke-opacity:1;stroke-miterlimit:10" d="M.002 0h18.125" transform="matrix(1 0 0 -1 141.131 51.844)"/><use xlink:href="#b" x="141.131" y="76.21" style="fill:#000;fill-opacity:1"/><g style="fill:#000;fill-opacity:1"><use xlink:href="#i" x="147.895" y="77.704"/><use xlink:href="#d" x="152.047" y="77.704"/><use xlink:href="#g" x="153.841" y="77.704"/></g><path style="fill:none;stroke-width:.398;stroke-linecap:butt;stroke-linejoin:miter;stroke:#000;stroke-opacity:1;stroke-miterlimit:10" d="M.002.002h17.582" transform="matrix(1 0 0 -1 141.131 79.744)"/><use xlink:href="#b" x="141.131" y="104.556" style="fill:#000;fill-opacity:1"/><g style="fill:#000;fill-opacity:1"><use xlink:href="#i" x="147.895" y="106.05"/><use xlink:href="#d" x="152.047" y="106.05"/><use xlink:href="#h" x="153.841" y="106.05"/></g><path style="fill:none;stroke-width:.398;stroke-linecap:butt;stroke-linejoin:miter;stroke:#000;stroke-opacity:1;stroke-miterlimit:10" d="M.002.001h17.851" transform="matrix(1 0 0 -1 141.131 108.091)"/><path style="fill:none;stroke-width:.3985;stroke-linecap:butt;stroke-linejoin:miter;stroke:#000;stroke-opacity:1;stroke-miterlimit:10" d="M.002 85.04h14.171m0 0h70.868" transform="matrix(1 0 0 -1 24.225 103.086)"/><path style="fill-rule:nonzero;fill:#000;fill-opacity:1;stroke-width:.3985;stroke-linecap:butt;stroke-linejoin:miter;stroke:#000;stroke-opacity:1;stroke-miterlimit:10" d="M1.36 85.04a1.361 1.361 0 1 1-2.721.003 1.361 1.361 0 0 1 2.722-.004Zm11.325 0v-1.7l3.613 1.7-3.613 1.702Zm0 0" transform="matrix(1 0 0 -1 24.225 103.086)"/><use xlink:href="#j" x="32.14" y="10.394" style="fill:#000;fill-opacity:1"/><g style="fill:#000;fill-opacity:1"><use xlink:href="#c" x="34.61" y="11.888"/><use xlink:href="#d" x="38.021" y="11.888"/><use xlink:href="#e" x="39.814" y="11.888"/></g><path style="fill:none;stroke-width:.398;stroke-linecap:butt;stroke-linejoin:miter;stroke:#000;stroke-opacity:1;stroke-miterlimit:10" d="M0 0h12.516" transform="matrix(1 0 0 -1 32.14 13.929)"/><path style="fill:none;stroke-width:.3985;stroke-linecap:butt;stroke-linejoin:miter;stroke:#000;stroke-opacity:1;stroke-miterlimit:10" d="M.002 56.695h14.171m0 0h70.868" transform="matrix(1 0 0 -1 24.225 103.086)"/><path style="fill-rule:nonzero;fill:#000;fill-opacity:1;stroke-width:.3985;stroke-linecap:butt;stroke-linejoin:miter;stroke:#000;stroke-opacity:1;stroke-miterlimit:10" d="M1.36 56.695a1.36 1.36 0 1 1-2.72-.002 1.36 1.36 0 0 1 2.72.002Zm11.325 0v-1.703l3.613 1.703-3.613 1.7Zm0 0" transform="matrix(1 0 0 -1 24.225 103.086)"/><use xlink:href="#j" x="31.853" y="37.848" style="fill:#000;fill-opacity:1"/><g style="fill:#000;fill-opacity:1"><use xlink:href="#c" x="34.324" y="40.235"/><use xlink:href="#d" x="37.735" y="40.235"/><use xlink:href="#f" x="39.528" y="40.235"/></g><path style="fill:none;stroke-width:.398;stroke-linecap:butt;stroke-linejoin:miter;stroke:#000;stroke-opacity:1;stroke-miterlimit:10" d="M-.001.002h13.093" transform="matrix(1 0 0 -1 31.853 42.275)"/><path style="fill:none;stroke-width:.3985;stroke-linecap:butt;stroke-linejoin:miter;stroke:#000;stroke-opacity:1;stroke-miterlimit:10" d="M.002 28.348h14.171m0 0h70.868" transform="matrix(1 0 0 -1 24.225 103.086)"/><path style="fill-rule:nonzero;fill:#000;fill-opacity:1;stroke-width:.3985;stroke-linecap:butt;stroke-linejoin:miter;stroke:#000;stroke-opacity:1;stroke-miterlimit:10" d="M1.36 28.348a1.36 1.36 0 1 1-2.72-.002 1.36 1.36 0 0 1 2.72.002Zm11.325 0v-1.703l3.613 1.703-3.613 1.699Zm0 0" transform="matrix(1 0 0 -1 24.225 103.086)"/><use xlink:href="#j" x="32.124" y="67.087" style="fill:#000;fill-opacity:1"/><g style="fill:#000;fill-opacity:1"><use xlink:href="#c" x="34.595" y="68.581"/><use xlink:href="#d" x="38.006" y="68.581"/><use xlink:href="#g" x="39.799" y="68.581"/></g><path style="fill:none;stroke-width:.398;stroke-linecap:butt;stroke-linejoin:miter;stroke:#000;stroke-opacity:1;stroke-miterlimit:10" d="M.001 0h12.547" transform="matrix(1 0 0 -1 32.124 70.622)"/><path style="fill:none;stroke-width:.3985;stroke-linecap:butt;stroke-linejoin:miter;stroke:#000;stroke-opacity:1;stroke-miterlimit:10" d="M.002 0h14.171m0 0h70.868" transform="matrix(1 0 0 -1 24.225 103.086)"/><path style="fill-rule:nonzero;fill:#000;fill-opacity:1;stroke-width:.3985;stroke-linecap:butt;stroke-linejoin:miter;stroke:#000;stroke-opacity:1;stroke-miterlimit:10" d="M1.36 0a1.36 1.36 0 1 1-2.72-.002A1.36 1.36 0 0 1 1.36 0Zm11.325 0v-1.7L16.298 0l-3.613 1.7Zm0 0" transform="matrix(1 0 0 -1 24.225 103.086)"/><use xlink:href="#j" x="31.988" y="95.433" style="fill:#000;fill-opacity:1"/><g style="fill:#000;fill-opacity:1"><use xlink:href="#c" x="34.459" y="96.928"/><use xlink:href="#d" x="37.87" y="96.928"/><use xlink:href="#h" x="39.663" y="96.928"/></g><path style="fill:none;stroke-width:.398;stroke-linecap:butt;stroke-linejoin:miter;stroke:#000;stroke-opacity:1;stroke-miterlimit:10" d="M0 0h12.82" transform="matrix(1 0 0 -1 31.988 98.968)"/><path style="fill:none;stroke-width:.3985;stroke-linecap:butt;stroke-linejoin:miter;stroke:#000;stroke-opacity:1;stroke-miterlimit:10" d="M113.388 85.04H99.213m0 0H85.04" transform="matrix(1 0 0 -1 24.225 103.086)"/><path style="fill-rule:nonzero;fill:#000;fill-opacity:1;stroke-width:.3985;stroke-linecap:butt;stroke-linejoin:miter;stroke:#000;stroke-opacity:1;stroke-miterlimit:10" d="M114.748 85.04a1.361 1.361 0 1 1-2.723.003 1.361 1.361 0 0 1 2.723-.004Zm-14.048 0v1.702l-3.612-1.703 3.613-1.7Zm0 0" transform="matrix(1 0 0 -1 24.225 103.086)"/><use xlink:href="#j" x="116.808" y="10.394" style="fill:#000;fill-opacity:1"/><g style="fill:#000;fill-opacity:1"><use xlink:href="#i" x="119.279" y="11.888"/><use xlink:href="#d" x="123.431" y="11.888"/><use xlink:href="#e" x="125.225" y="11.888"/></g><path style="fill:none;stroke-width:.398;stroke-linecap:butt;stroke-linejoin:miter;stroke:#000;stroke-opacity:1;stroke-miterlimit:10" d="M0 0h13.258" transform="matrix(1 0 0 -1 116.808 13.929)"/><path style="fill:none;stroke-width:.3985;stroke-linecap:butt;stroke-linejoin:miter;stroke:#000;stroke-opacity:1;stroke-miterlimit:10" d="M113.388 56.695H99.213m0 0H85.04" transform="matrix(1 0 0 -1 24.225 103.086)"/><path style="fill-rule:nonzero;fill:#000;fill-opacity:1;stroke-width:.3985;stroke-linecap:butt;stroke-linejoin:miter;stroke:#000;stroke-opacity:1;stroke-miterlimit:10" d="M114.748 56.695a1.36 1.36 0 1 1-2.721-.002 1.36 1.36 0 0 1 2.72.002Zm-14.048 0v1.7l-3.612-1.7 3.613-1.703Zm0 0" transform="matrix(1 0 0 -1 24.225 103.086)"/><use xlink:href="#j" x="116.522" y="37.848" style="fill:#000;fill-opacity:1"/><g style="fill:#000;fill-opacity:1"><use xlink:href="#i" x="118.992" y="40.235"/><use xlink:href="#d" x="123.144" y="40.235"/><use xlink:href="#f" x="124.938" y="40.235"/></g><path style="fill:none;stroke-width:.398;stroke-linecap:butt;stroke-linejoin:miter;stroke:#000;stroke-opacity:1;stroke-miterlimit:10" d="M.001.002h13.832" transform="matrix(1 0 0 -1 116.522 42.275)"/><path style="fill:none;stroke-width:.3985;stroke-linecap:butt;stroke-linejoin:miter;stroke:#000;stroke-opacity:1;stroke-miterlimit:10" d="M113.388 28.348H99.213m0 0H85.04" transform="matrix(1 0 0 -1 24.225 103.086)"/><path style="fill-rule:nonzero;fill:#000;fill-opacity:1;stroke-width:.3985;stroke-linecap:butt;stroke-linejoin:miter;stroke:#000;stroke-opacity:1;stroke-miterlimit:10" d="M114.748 28.348a1.36 1.36 0 1 1-2.721-.002 1.36 1.36 0 0 1 2.72.002Zm-14.048 0v1.699l-3.612-1.7 3.613-1.702Zm0 0" transform="matrix(1 0 0 -1 24.225 103.086)"/><use xlink:href="#j" x="116.793" y="67.087" style="fill:#000;fill-opacity:1"/><g style="fill:#000;fill-opacity:1"><use xlink:href="#i" x="119.263" y="68.581"/><use xlink:href="#d" x="123.415" y="68.581"/><use xlink:href="#g" x="125.209" y="68.581"/></g><path style="fill:none;stroke-width:.398;stroke-linecap:butt;stroke-linejoin:miter;stroke:#000;stroke-opacity:1;stroke-miterlimit:10" d="M0 0h13.289" transform="matrix(1 0 0 -1 116.793 70.622)"/><path style="fill:none;stroke-width:.3985;stroke-linecap:butt;stroke-linejoin:miter;stroke:#000;stroke-opacity:1;stroke-miterlimit:10" d="M113.388 0H99.213m0 0H85.04" transform="matrix(1 0 0 -1 24.225 103.086)"/><path style="fill-rule:nonzero;fill:#000;fill-opacity:1;stroke-width:.3985;stroke-linecap:butt;stroke-linejoin:miter;stroke:#000;stroke-opacity:1;stroke-miterlimit:10" d="M114.748 0a1.36 1.36 0 1 1-2.721-.002 1.36 1.36 0 0 1 2.72.002ZM100.7 0v1.7L97.089 0l3.613-1.7Zm0 0" transform="matrix(1 0 0 -1 24.225 103.086)"/><use xlink:href="#j" x="116.657" y="95.433" style="fill:#000;fill-opacity:1"/><g style="fill:#000;fill-opacity:1"><use xlink:href="#i" x="119.128" y="96.928"/><use xlink:href="#d" x="123.28" y="96.928"/><use xlink:href="#h" x="125.074" y="96.928"/></g><path style="fill:none;stroke-width:.398;stroke-linecap:butt;stroke-linejoin:miter;stroke:#000;stroke-opacity:1;stroke-miterlimit:10" d="M0 0h13.562" transform="matrix(1 0 0 -1 116.657 98.968)"/></svg>
