<svg xmlns="http://www.w3.org/2000/svg" xmlns:xlink="http://www.w3.org/1999/xlink" width="186.132" height="187.433" viewBox="0 0 139.599 140.575"><defs><path id="e" d="M2.766-7.125a2 2 0 0 0-.453-.156 2 2 0 0 0-.485-.063 4 4 0 0 0-.562.016q-.3.035-.594.14-.877.332-1.156.813c-.188.324-.211.68-.079 1.063q.141.376.422.546.263.159.72.141.468-.013 1.171-.094.763-.105 1.344-.093.59.018 1 .265.42.253.64.844a1.8 1.8 0 0 1 .11.875q-.063.394-.297.734-.235.345-.64.625c-.262.18-.571.328-.923.453a4.5 4.5 0 0 1-1.03.25 4 4 0 0 1-1.985-.25l.125-.656q.264.128.562.203.31.081.657.11.358.017.734-.047.374-.077.765-.219.78-.28 1.11-.719.34-.45.14-1.031-.158-.405-.468-.562-.3-.171-.828-.172-.517 0-1.203.093-.751.082-1.297.063-.544-.031-.907-.266c-.238-.164-.421-.422-.546-.765q-.235-.622-.094-1.157.14-.527.61-.937a3.3 3.3 0 0 1 1.14-.672q.433-.155.844-.203.42-.061.796-.016c.258.032.516.102.766.203Zm0 0"/><path id="f" d="m6.36-2.312-.5.187-.798-2.172q-.252-.686-.593-.937-.33-.246-.766-.094a1.2 1.2 0 0 0-.672.61 1.8 1.8 0 0 0-.172.984l.86 2.375-.516.187-.797-2.172q-.252-.686-.578-.937-.315-.246-.766-.094-.421.158-.656.61a1.8 1.8 0 0 0-.203.984l.875 2.39-.516.188-1.42-3.907.468-.172.329.875c.054-.364.175-.672.375-.922.195-.258.453-.442.765-.547q.499-.186.875-.016.388.157.64.579.078-.594.376-.97a1.7 1.7 0 0 1 .765-.562 1.3 1.3 0 0 1 .594-.093.85.85 0 0 1 .484.218 1.8 1.8 0 0 1 .391.453q.187.282.328.657Zm0 0"/><path id="g" d="M-.156-1.203a1.1 1.1 0 0 1-.031-.719c.074-.226.21-.437.421-.625q.329-.279.813-.453.28-.106.61-.172.327-.06.609-.062l-.11-.344q-.188-.481-.594-.656-.39-.187-.906 0a1.7 1.7 0 0 0-.593.343 5 5 0 0 0-.516.563l-.313-.297q.282-.387.61-.656.31-.265.703-.407c.476-.175.906-.175 1.281 0q.561.27.828.985l.656 1.812q.03.095.094.141.06.033.172-.016l.156.407q-.093.046-.14.078a.15.15 0 0 1-.094.031q-.204.066-.344-.016a.46.46 0 0 1-.172-.218L2.86-1.75a1.96 1.96 0 0 1-.484.766c-.23.218-.484.382-.766.484a1.6 1.6 0 0 1-.75.094 1.35 1.35 0 0 1-.625-.266 1.3 1.3 0 0 1-.39-.531m2.719-.672q.029-.107.046-.219a.4.4 0 0 0 0-.219l-.203-.562q-.3 0-.594.047c-.199.031-.39.086-.578.156-.367.125-.636.305-.812.531a.72.72 0 0 0-.11.72q.076.222.25.374.186.14.454.188.263.046.562-.063c.25-.094.457-.226.625-.406q.265-.265.36-.547m0 0"/><path id="h" d="M-.75-4.156.969-3.031l.094.078.03-.125.563-1.953.578-.203-.765 2.5 2.187 1.406-.578.203-1.687-1.11-.094-.078-.031.126L.688-.25l-.563.203.75-2.469-2.172-1.437Zm0 0"/><path id="i" d="M.89 0v-7.078h2.923q.468 0 .843.187c.258.125.485.297.672.516q.28.33.438.719c.101.261.156.527.156.797q-.001.579-.266 1.093a2.24 2.24 0 0 1-.703.844q-.457.315-1.078.313H1.578V0Zm.688-3.234h2.266c.281 0 .523-.07.734-.22a1.46 1.46 0 0 0 .469-.593q.17-.374.172-.812-.002-.434-.203-.797a1.4 1.4 0 0 0-.516-.578 1.3 1.3 0 0 0-.719-.22H1.578Zm0 0"/><path id="p" d="M3.734.047q-.75 0-1.359-.297a3.7 3.7 0 0 1-1.047-.812A3.7 3.7 0 0 1 .656-2.22a3.8 3.8 0 0 1-.234-1.31 3.7 3.7 0 0 1 .953-2.5q.451-.516 1.063-.797a3 3 0 0 1 1.312-.297q.75 0 1.36.313.61.3 1.03.828.436.516.673 1.156.248.628.25 1.297-.002.703-.25 1.36-.252.643-.704 1.14a3.4 3.4 0 0 1-1.062.797 3.04 3.04 0 0 1-1.313.28m0-.625q.61.001 1.094-.25.482-.264.828-.688.34-.42.516-.937.187-.528.187-1.078 0-.575-.187-1.11a2.8 2.8 0 0 0-.547-.953q-.347-.422-.828-.656a2.3 2.3 0 0 0-1.063-.25q-.597.001-1.078.266-.487.25-.828.672c-.23.28-.406.601-.531.953a3.3 3.3 0 0 0 0 2.188q.2.531.547.952.34.41.828.657.481.234 1.062.234m.641-1.594h.688L6.89 0h-.688Zm0 0"/><path id="q" d="M5.031-5.75a2 2 0 0 0-.36-.297 2.2 2.2 0 0 0-.452-.234 2.7 2.7 0 0 0-1.125-.235c-.625 0-1.086.121-1.375.36q-.423.361-.422.968-.001.411.203.657c.133.156.348.289.64.39.29.094.665.196 1.126.297q.748.175 1.297.39c.363.15.644.345.843.595q.312.362.313 1-.002.502-.203.859a1.6 1.6 0 0 1-.532.594 2.4 2.4 0 0 1-.796.36q-.47.107-1.032.109a5 5 0 0 1-1.047-.11 4.6 4.6 0 0 1-.953-.344 4 4 0 0 1-.843-.578l.359-.562c.125.136.273.261.453.375a3.6 3.6 0 0 0 1.281.531q.373.064.781.063.844 0 1.313-.297.47-.312.469-.922 0-.435-.235-.703-.236-.262-.718-.438a11 11 0 0 0-1.172-.328 9 9 0 0 1-1.25-.375q-.503-.217-.766-.562-.251-.343-.25-.907c0-.437.102-.804.313-1.11q.327-.45.89-.687a3.5 3.5 0 0 1 1.313-.234q.466 0 .875.094.405.093.75.281.34.175.64.438Zm0 0"/><path id="j" d="M2.594-.203a2 2 0 0 1-.203.094A2 2 0 0 1 2.063 0a1.7 1.7 0 0 1-.407.047q-.236 0-.437-.078A.8.8 0 0 1 .89-.297.77.77 0 0 1 .766-.75v-2.969H.203v-.437h.563v-1.39h.547v1.39h.953v.437h-.953v2.813c.007.156.062.273.156.344a.57.57 0 0 0 .343.109c.157 0 .29-.024.407-.078q.188-.075.234-.11Zm0 0"/><path id="k" d="M4.094 0h-.547v-2.312c0-.47-.086-.82-.25-1.063a.81.81 0 0 0-.703-.36c-.211 0-.414.055-.61.157a1.9 1.9 0 0 0-.53.422c-.15.18-.25.383-.313.61V0H.594v-5.812h.547v2.593q.247-.45.687-.719a1.7 1.7 0 0 1 .938-.28q.357 0 .609.124.265.129.406.375.153.234.235.563.077.314.078.719Zm0 0"/><path id="l" d="M.516 0v-.781h.468V0Zm0 0"/><path id="r" d="M2.719.078Q2.203.08 1.78-.187a2.1 2.1 0 0 1-.64-.672v2.562H.594v-5.86h.484v.813q.246-.389.656-.625a1.75 1.75 0 0 1 1.688-.062 1.9 1.9 0 0 1 .61.468q.264.3.406.688c.101.262.156.527.156.797q0 .598-.235 1.078a2 2 0 0 1-.656.781Q3.281.08 2.72.078M2.563-.39q.34 0 .609-.14.281-.141.469-.375c.132-.164.234-.348.297-.547a1.9 1.9 0 0 0 .109-.625q-.001-.328-.125-.625a1.45 1.45 0 0 0-.328-.531 1.6 1.6 0 0 0-.485-.375A1.34 1.34 0 0 0 2.5-3.75q-.204 0-.437.094-.224.08-.422.219a1.5 1.5 0 0 0-.344.328.9.9 0 0 0-.156.39v1.281q.122.298.343.532.219.234.5.375t.579.14m0 0"/><path id="s" d="M2.672-3.672a1.67 1.67 0 0 0-.953.313q-.41.282-.578.78V0H.594v-4.156h.515v1a2 2 0 0 1 .563-.703 1.4 1.4 0 0 1 .766-.313h.234Zm0 0"/><path id="t" d="M2.36.078q-.44 0-.829-.172a2.1 2.1 0 0 1-.656-.468 2.2 2.2 0 0 1-.422-.688 2.4 2.4 0 0 1-.14-.812q0-.453.14-.829.155-.387.438-.687.28-.293.656-.469c.25-.113.523-.172.828-.172q.45.001.813.172.374.176.656.469.28.3.437.687.155.376.157.829a2.2 2.2 0 0 1-.594 1.5c-.18.199-.39.355-.64.468q-.375.172-.845.172m-1.5-2.14A1.73 1.73 0 0 0 1.61-.61c.226.148.476.218.75.218.28 0 .535-.07.765-.218q.341-.235.547-.625.201-.388.203-.844-.002-.452-.203-.828a1.6 1.6 0 0 0-.547-.61 1.33 1.33 0 0 0-.766-.234q-.41 0-.75.234-.328.235-.546.61-.205.375-.204.844m0 0"/><path id="u" d="M-.031 1.438q-.248-.001-.485-.079a1 1 0 0 1-.421-.234l.265-.36q.13.106.281.141.158.047.297.047A.7.7 0 0 0 .266.86a.8.8 0 0 0 .28-.265.7.7 0 0 0 .11-.375v-4.375h.532V.188c0 .238-.06.453-.172.64a1.23 1.23 0 0 1-.453.453 1.24 1.24 0 0 1-.594.157m.687-6.454v-.796h.532v.796Zm0 0"/><path id="v" d="M.516 0v-.781h.468V0Zm0 0"/><clipPath id="a"><path d="M0 0h139.598v140.574H0Zm0 0"/></clipPath><clipPath id="b"><path d="M0 18h123v122.574H0Zm0 0"/></clipPath><clipPath id="c"><path d="M0 23h18v117.574H0Zm0 0"/></clipPath><clipPath id="d"><path d="M0 18h24v122.574H0Zm0 0"/></clipPath><clipPath id="m"><path d="M96 63h21v77.574H96Zm0 0"/></clipPath><clipPath id="n"><path d="M91 57h32v83.574H91Zm0 0"/></clipPath><clipPath id="o"><path d="M17 18h1v122.574h-1Zm0 0"/></clipPath></defs><g clip-path="url(#a)"><path fill="#fff" d="M0 140.574V0h139.602v140.574Zm0 0"/></g><g clip-path="url(#b)"><path fill="none" stroke="#000" stroke-miterlimit="10" stroke-width=".399" d="M115.133 140.375c6.156-34.902-6.785-70.45-33.934-93.227a99.2 99.2 0 0 0-81-21.707"/></g><g clip-path="url(#c)"><path fill="#ff4040" d="M17.426 140.375H.199V25.441a99 99 0 0 1 17.227-1.507"/></g><g clip-path="url(#d)"><path fill="none" stroke="#000" stroke-miterlimit="10" stroke-width=".399" d="M17.426 140.375H.199V25.441a99 99 0 0 1 17.227-1.507"/></g><path fill="none" stroke="#000" stroke-miterlimit="10" stroke-width=".399" d="m17.426 123.148 88.926-32.367"/><path stroke="#000" stroke-miterlimit="10" stroke-width=".399" d="M109.887 89.496c-.473.05-2.602.145-4.032-.074l.993 2.719c.953-1.086 2.644-2.383 3.039-2.645Zm0 0"/><use xlink:href="#e" x="52.373" y="106.619"/><use xlink:href="#f" x="56.698" y="100.822"/><use xlink:href="#g" x="63.581" y="98.317"/><use xlink:href="#h" x="67.663" y="96.832"/><path fill="none" stroke="#000" stroke-miterlimit="10" stroke-width=".399" d="M17.426 23.934h99.215v99.214m-19.844 0V23.934"/><use xlink:href="#i" x="77.76" y="136.404"/><use xlink:href="#j" x="83.957" y="132.486"/><use xlink:href="#k" x="86.627" y="132.486"/><use xlink:href="#l" x="91.274" y="132.486"/><g clip-path="url(#m)"><path fill="#ff4040" d="M96.797 63.621a99.23 99.23 0 0 1 18.34 76.754h-18.34"/></g><g clip-path="url(#n)"><path fill="none" stroke="#000" stroke-miterlimit="10" stroke-width=".399" d="M96.797 63.621a99.23 99.23 0 0 1 18.34 76.754h-18.34"/></g><path fill="none" stroke="#000" stroke-miterlimit="10" stroke-width=".399" d="M.2 123.148h121.78"/><path stroke="#000" stroke-miterlimit="10" stroke-width=".399" d="M125.742 123.148c-.46-.113-2.492-.75-3.762-1.445v2.89c1.27-.695 3.301-1.331 3.762-1.445Zm0 0"/><use xlink:href="#i" x="130.081" y="133.741"/><g clip-path="url(#o)"><path fill="none" stroke="#000" stroke-miterlimit="10" stroke-width=".399" d="M17.426 140.375V18.594"/></g><path stroke="#000" stroke-miterlimit="10" stroke-width=".399" d="M17.426 14.832c-.113.465-.75 2.492-1.446 3.762h2.895c-.695-1.27-1.336-3.297-1.45-3.762Zm0 0"/><use xlink:href="#p" x="20.947" y="10.444"/><path stroke="#000" stroke-miterlimit="10" stroke-width=".399" d="M98.215 123.148a1.418 1.418 0 1 0-2.836 0 1.418 1.418 0 0 0 2.836 0Zm0 0"/><use xlink:href="#q" x="86.388" y="32.223"/><path fill="none" stroke="#000" stroke-miterlimit="10" stroke-width=".398" d="M86.387 33.68h6.047"/><path stroke="#000" stroke-miterlimit="10" stroke-width=".399" d="M84.285 29.688a1.415 1.415 0 1 0-2.832 0 1.417 1.417 0 1 0 2.832 0Zm0 0"/><path fill="none" stroke="#00f" stroke-miterlimit="10" stroke-width=".399" d="M82.867 29.688H55.301"/><path fill="#00f" stroke="#00f" stroke-miterlimit="10" stroke-width=".399" d="M51.543 29.688c.46.113 2.492.75 3.758 1.445v-2.89c-1.266.695-3.297 1.331-3.758 1.445Zm0 0"/><path fill="#00f" stroke="#00f" stroke-miterlimit="10" stroke-width=".399" d="M52.137 29.688a1.418 1.418 0 1 0-2.836 0 1.418 1.418 0 0 0 2.836 0Zm0 0"/><use xlink:href="#q" x="25.025" y="42.994"/><use xlink:href="#r" x="31.072" y="39.026"/><use xlink:href="#s" x="35.99" y="39.026"/><use xlink:href="#t" x="38.66" y="39.026"/><use xlink:href="#u" x="43.402" y="39.026"/><use xlink:href="#v" x="45.195" y="39.026"/><path fill="none" stroke="#000" stroke-miterlimit="10" stroke-width=".398" d="M25.023 44.45H47.2"/></svg>
