<svg xmlns="http://www.w3.org/2000/svg" xmlns:xlink="http://www.w3.org/1999/xlink" width="397.453" height="313.505" viewBox="0 0 298.09 235.129"><defs><path id="b" d="M3.766.047q-.832 0-1.407-.297a2.4 2.4 0 0 1-.921-.797 3.5 3.5 0 0 1-.5-1.14A5.5 5.5 0 0 1 .78-3.516v-3.562h.688v3.562c0 .375.035.743.11 1.094q.122.516.374.938c.176.28.41.507.703.672q.435.234 1.11.234.668.001 1.109-.25.45-.263.703-.672a3.2 3.2 0 0 0 .36-.937q.107-.527.109-1.079v-3.562h.703v3.562c0 .48-.055.938-.156 1.375q-.159.645-.516 1.125a2.66 2.66 0 0 1-.937.782c-.375.187-.836.28-1.375.28m0 0"/><path id="q" d="M5.547-2.922q0 .878-.328 1.563-.317.69-.89 1.078-.566.375-1.282.375-.72 0-1.281-.375A2.65 2.65 0 0 1 .875-1.36Q.547-2.044.547-2.922q0-.873.328-1.547.329-.685.89-1.078.562-.405 1.282-.406c.476 0 .906.137 1.281.406q.575.393.89 1.078.33.675.329 1.547m-.688 0q0-.703-.234-1.234Q4.404-4.702 4-5a1.53 1.53 0 0 0-.953-.312q-.533 0-.953.312-.41.299-.64.844-.235.531-.235 1.234 0 .704.234 1.25.232.534.64.844.422.299.954.297.544 0 .953-.297.404-.31.625-.844.234-.546.234-1.25m0 0"/><path id="r" d="m.86.813.171-.844H.797v-.953h.656v.953l-.25.844Zm0 0"/><path id="s" d="M.438 0Q.437-.341.5-.687a2.6 2.6 0 0 1 .219-.672q.17-.34.5-.657.34-.311.875-.593.279-.154.594-.297.31-.14.578-.313.28-.186.437-.406a.83.83 0 0 0 .172-.531.94.94 0 0 0-.14-.485 1 1 0 0 0-.438-.39 1.6 1.6 0 0 0-.735-.157q-.314 0-.578.094-.27.093-.468.235a2.3 2.3 0 0 0-.328.265q-.14.127-.235.219l-.422-.469q.045-.06.219-.218a2.7 2.7 0 0 1 .438-.313q.28-.168.656-.297a2.6 2.6 0 0 1 .828-.125q.61 0 1.031.219.437.221.672.578.234.362.234.766c0 .28-.062.523-.187.718a1.9 1.9 0 0 1-.453.5q-.27.223-.563.375l-.531.266a5.5 5.5 0 0 0-.781.438q-.316.22-.516.437a2.2 2.2 0 0 0-.297.438 2.5 2.5 0 0 0-.14.437h3.578V0Zm0 0"/><path id="t" d="M3.547 1.266V-.516H.234v-.593l3.532-4.578h.468v4.562h.875v.61h-.875v1.78ZM.953-1.125h2.672v-3.5Zm0 0"/><path id="u" d="M5.578-2.328A2.34 2.34 0 0 0 4.36-4.406a2.44 2.44 0 0 0-1.218-.313q-.457.002-.844.157a2.05 2.05 0 0 0-.688.453 2 2 0 0 0-.437.672c0-.657.082-1.211.25-1.672q.247-.685.687-1.047.436-.375 1.016-.375c.375 0 .71.105 1.016.312q.45.299.672.813l.437-.407a2.26 2.26 0 0 0-.86-.953 2.27 2.27 0 0 0-1.265-.359q-.768 0-1.36.469c-.398.312-.702.781-.921 1.406q-.328.938-.328 2.39 0 .927.328 1.594.328.658.906 1.016.574.345 1.313.344.702 0 1.265-.328a2.44 2.44 0 0 0 .906-.875q.342-.563.344-1.22M3.078-.5c-.336 0-.64-.082-.922-.25a2 2 0 0 1-.687-.656 1.76 1.76 0 0 1-.25-.922q-.001-.514.25-.922.248-.42.672-.672a1.87 1.87 0 0 1 .937-.25c.332 0 .64.086.922.25q.42.25.672.672.248.423.25.922c0 .336-.086.64-.25.922q-.25.41-.672.656-.423.251-.922.25m0 0"/><path id="v" d="M5.406-1.969q-.002.626-.343 1.094-.345.458-.907.703-.562.251-1.218.25-.721 0-1.266-.281a2.2 2.2 0 0 1-.86-.75A1.8 1.8 0 0 1 .5-2q-.001-.45.203-.812.218-.376.547-.61.329-.247.656-.36a3.5 3.5 0 0 1-.578-.343 1.7 1.7 0 0 1-.422-.5 1.36 1.36 0 0 1-.156-.656q0-.436.188-.766.198-.328.515-.562.327-.234.719-.344.388-.124.781-.125.388.001.781.125.404.11.72.344.327.223.515.562.201.33.203.766-.001.346-.172.64-.158.3-.422.516c-.18.137-.375.25-.594.344q.389.128.72.39.327.269.515.625.187.364.187.797m-.687-.047q-.002-.356-.157-.625a1.26 1.26 0 0 0-.406-.468 2 2 0 0 0-.578-.282 2 2 0 0 0-.64-.109q-.424 0-.829.188a1.7 1.7 0 0 0-.656.515q-.251.329-.25.797 0 .345.14.625c.102.18.243.328.423.453.175.125.367.227.578.297q.31.094.625.094.434.002.828-.172.404-.186.656-.531.265-.341.266-.782M1.422-5.25q0 .392.234.672c.157.18.352.312.594.406q.358.14.703.14.358 0 .703-.14a1.6 1.6 0 0 0 .594-.422q.234-.28.234-.672c0-.25-.074-.46-.218-.64a1.26 1.26 0 0 0-.578-.407q-.346-.14-.75-.14-.377 0-.735.14-.345.141-.562.422a.97.97 0 0 0-.22.641m0 0"/><path id="w" d="M4.047-.625V0H.672v-.625h1.406v-4.266a1.1 1.1 0 0 1-.265.266 2.9 2.9 0 0 1-.922.453 1.3 1.3 0 0 1-.438.078v-.656c.156 0 .32-.04.5-.125a3.4 3.4 0 0 0 .516-.297q.246-.171.422-.312.17-.155.187-.203h.703v5.062Zm0 0"/><path id="D" d="M.86 1.297V-7.72h.593v9.016Zm0 0"/><path id="E" d="M.86-7.078 3.39-.875l2.516-6.203h.735L3.703 0h-.625L.125-7.078Zm0 0"/><path id="H" d="M.64-2.406v-.625h4.391v.625Zm0 0"/><path id="ac" d="M.672-1.937v-.485h3.016v.485Zm0-1.141v-.485h3.016v.485Zm0 0"/><path id="ad" d="M2.61 1.484q-.75 0-1.36-.375A2.34 2.34 0 0 1 .344.125l.453-.328q.28.481.766.781c.32.195.675.297 1.062.297q.498 0 .89-.219a1.73 1.73 0 0 0 .626-.61q.234-.386.234-.89c0-.32-.078-.61-.234-.86a1.5 1.5 0 0 0-.61-.577 1.66 1.66 0 0 0-.844-.219q-.468.002-.89.203a1.75 1.75 0 0 0-.672.594H.5l.781-3.984h3.422v.625H1.797l-.484 2.546c.164-.187.375-.332.625-.437q.387-.154.828-.156.639.002 1.156.297A2.18 2.18 0 0 1 5.078-.86q-.002.703-.344 1.218a2.3 2.3 0 0 1-.89.829 2.6 2.6 0 0 1-1.235.296m0 0"/><path id="af" d="M3.422-2.36q.45.083.765.329.31.251.485.625.187.377.187.86c0 .398-.101.741-.296 1.046a1.85 1.85 0 0 1-.797.719 2.8 2.8 0 0 1-1.203.25q-.767-.001-1.329-.313A2.04 2.04 0 0 1 .375.313L.844-.11q.218.419.64.687.435.265 1.079.266.732 0 1.171-.36c.29-.242.438-.586.438-1.046q0-.669-.453-1.079-.456-.405-1.297-.406h-.25v-.578h.265c.508 0 .899-.117 1.172-.36q.422-.356.422-.906 0-.418-.187-.687a1.2 1.2 0 0 0-.516-.406 1.9 1.9 0 0 0-.75-.141q-.564.001-1 .266a1.6 1.6 0 0 0-.656.687l-.438-.406q.17-.357.485-.61.329-.264.75-.406.434-.14.922-.14.622.001 1.093.218c.313.149.555.356.735.625q.264.393.265.938-.002.394-.156.734-.159.345-.453.578a1.5 1.5 0 0 1-.703.282m0 0"/><path id="c" d="M6.766 0h-.532v-2.312q0-.733-.234-1.079-.236-.341-.687-.343-.47.002-.844.343a1.8 1.8 0 0 0-.516.86V0h-.547v-2.312q0-.733-.219-1.079c-.148-.226-.374-.343-.687-.343-.305 0-.578.109-.828.328a1.77 1.77 0 0 0-.531.86V0H.594v-4.156h.5v.937q.263-.481.672-.734.403-.265.906-.266c.351 0 .633.102.844.297q.31.283.39.766c.188-.352.414-.617.688-.797q.404-.265.906-.266.358.001.594.125a.96.96 0 0 1 .39.36q.154.234.22.562a4.3 4.3 0 0 1 .062.735Zm0 0"/><path id="d" d="M.594 0v-4.156h.547V0Zm0-5.016v-.796h.547v.796Zm0 0"/><path id="e" d="M4.094 0h-.547v-2.312q0-.733-.219-1.079-.221-.341-.672-.343-.329.001-.64.156a1.9 1.9 0 0 0-.532.422c-.156.18-.273.383-.343.61V0H.594v-4.156h.5v.937q.169-.293.437-.515c.176-.157.38-.274.61-.36.226-.082.468-.125.718-.125q.342.001.579.125a1 1 0 0 1 .374.36q.14.234.204.562.077.33.078.735Zm0 0"/><path id="o" d="M.266-1.187c0-.258.07-.485.218-.672q.217-.295.61-.453c.27-.102.578-.157.922-.157.195 0 .406.024.625.063q.326.047.593.14v-.359c0-.344-.105-.617-.312-.828q-.315-.312-.86-.313-.344.001-.671.125-.316.127-.672.36l-.203-.39q.405-.266.797-.407.386-.14.796-.14.763.002 1.204.437.451.44.453 1.203v1.922q0 .112.046.172.047.045.157.046V0c-.063.008-.117.016-.156.016a.2.2 0 0 1-.094 0q-.206.001-.313-.125a.4.4 0 0 1-.094-.25l-.015-.313a1.86 1.86 0 0 1-.735.563 2.25 2.25 0 0 1-.89.187c-.274 0-.516-.058-.734-.172a1.4 1.4 0 0 1-.5-.453 1.2 1.2 0 0 1-.172-.64m2.78.312q.079-.107.126-.203.06-.107.062-.203v-.594a3 3 0 0 0-.578-.156 3 3 0 0 0-.578-.063q-.581 0-.937.235a.69.69 0 0 0-.36.625q-.001.236.11.437.124.204.359.344.232.127.547.125.389.002.719-.156c.226-.102.406-.235.53-.391m0 0"/><path id="p" d="m.719-4.156 1.219 1.625.078.125.062-.125 1.203-1.625h.61L2.313-2.063 3.89 0h-.61L2.078-1.625l-.062-.11-.079.11L.734 0H.125l1.563-2.062L.125-4.156Zm0 0"/><path id="f" d="M4.094 0h-.547v-2.312q0-.733-.219-1.079-.221-.341-.672-.343-.329.001-.64.156a1.9 1.9 0 0 0-.532.422c-.156.18-.273.383-.343.61V0H.594v-4.156h.5v.937q.169-.293.437-.515c.176-.157.38-.274.61-.36.226-.082.468-.125.718-.125q.342.001.579.125a1 1 0 0 1 .374.36q.14.234.204.562.077.33.078.735Zm0 0"/><path id="g" d="M2.36.078q-.44 0-.829-.172a2.1 2.1 0 0 1-.656-.468 2.2 2.2 0 0 1-.422-.688 2.4 2.4 0 0 1-.14-.812q0-.453.14-.829.155-.387.438-.687.28-.293.656-.469c.25-.113.523-.172.828-.172q.45.001.813.172.374.176.656.469.28.3.437.687.155.376.157.829a2.2 2.2 0 0 1-.594 1.5c-.18.199-.39.355-.64.468q-.375.172-.845.172m-1.5-2.14A1.73 1.73 0 0 0 1.61-.61c.226.148.476.218.75.218.28 0 .535-.07.765-.218q.341-.235.547-.625.201-.388.203-.844-.002-.452-.203-.828a1.6 1.6 0 0 0-.547-.61 1.33 1.33 0 0 0-.766-.234q-.41 0-.75.234-.328.235-.546.61-.205.375-.204.844m0 0"/><path id="h" d="M2.672-3.672a1.67 1.67 0 0 0-.953.313q-.41.282-.578.78V0H.594v-4.156h.515v1a2 2 0 0 1 .563-.703 1.4 1.4 0 0 1 .766-.313h.234Zm0 0"/><path id="i" d="M6.766 0h-.532v-2.312q0-.733-.234-1.079-.236-.341-.687-.343-.47.002-.844.343a1.8 1.8 0 0 0-.516.86V0h-.547v-2.312q0-.733-.219-1.079c-.148-.226-.374-.343-.687-.343-.305 0-.578.109-.828.328a1.77 1.77 0 0 0-.531.86V0H.594v-4.156h.5v.937q.263-.481.672-.734.403-.265.906-.266c.351 0 .633.102.844.297q.31.283.39.766c.188-.352.414-.617.688-.797q.404-.265.906-.266.358.001.594.125a.96.96 0 0 1 .39.36q.154.234.22.562a4.3 4.3 0 0 1 .062.735Zm0 0"/><path id="j" d="M.516 0v-.781h.468V0Zm0 0"/><path id="k" d="M.313-2.062q-.001-.592.25-1.079.248-.499.671-.78a1.7 1.7 0 0 1 .985-.298c.344 0 .648.094.922.282q.406.27.64.656v-2.531h.547v5.156q0 .112.047.172.047.045.14.046V0a.8.8 0 0 1-.25.016.43.43 0 0 1-.421-.407v-.421c-.156.28-.383.5-.672.656a1.8 1.8 0 0 1-.875.234A1.9 1.9 0 0 1 1.5-.094a1.9 1.9 0 0 1-.625-.468 2.4 2.4 0 0 1-.422-.704 2.3 2.3 0 0 1-.14-.796m3.468.64v-1.281a1.3 1.3 0 0 0-.328-.531 2 2 0 0 0-.531-.375 1.3 1.3 0 0 0-.578-.141q-.328 0-.61.14-.27.143-.468.391a1.8 1.8 0 0 0-.297.547q-.094.299-.094.61-.001.328.11.64.121.298.328.531.217.236.5.375c.187.086.39.125.609.125.133 0 .273-.023.422-.078q.233-.093.437-.234a1.3 1.3 0 0 0 .328-.328.9.9 0 0 0 .172-.39m0 0"/><path id="l" d="M5.828-4.156h.531L4.58 0h-.47l-.875-2.062L2.375 0h-.469L.125-4.156h.516L2.156-.563l.766-1.874-.703-1.704h.484l.531 1.344.532-1.344h.484l-.703 1.704.765 1.874Zm0 0"/><path id="m" d="M.563-1.719v-2.437h.53v2.343q0 .721.235 1.079.247.344.734.343.311 0 .61-.14.31-.14.531-.39.232-.265.36-.61v-2.625h.546v3.5q0 .112.047.172.048.045.14.046V0c-.062.008-.116.016-.155.016h-.094a.43.43 0 0 1-.281-.125.4.4 0 0 1-.125-.266l-.016-.562q-.268.468-.734.75c-.313.18-.653.265-1.016.265-.43 0-.758-.148-.984-.453Q.562-.826.563-1.719m0 0"/><path id="n" d="M2.719.078Q2.203.08 1.78-.187a2.1 2.1 0 0 1-.64-.672v2.562H.594v-5.86h.484v.813q.246-.389.656-.625a1.75 1.75 0 0 1 1.688-.062 1.9 1.9 0 0 1 .61.468q.264.3.406.688c.101.262.156.527.156.797q0 .598-.235 1.078a2 2 0 0 1-.656.781Q3.281.08 2.72.078M2.563-.39q.34 0 .609-.14.281-.141.469-.375c.132-.164.234-.348.297-.547a1.9 1.9 0 0 0 .109-.625q-.001-.328-.125-.625a1.45 1.45 0 0 0-.328-.531 1.6 1.6 0 0 0-.485-.375A1.34 1.34 0 0 0 2.5-3.75q-.204 0-.437.094-.224.08-.422.219a1.5 1.5 0 0 0-.344.328.9.9 0 0 0-.156.39v1.281q.122.298.343.532.219.234.5.375t.579.14m0 0"/><path id="F" d="M.953-4.156h.485l-.172.812q.31-.389.75-.625c.3-.164.601-.25.906-.25.3 0 .562.086.781.25q.34.235.516.64.17.394.172.845 0 .503-.188.953a2.7 2.7 0 0 1-.5.828q-.314.362-.734.578a2 2 0 0 1-.875.203q-.502.002-.828-.265a1.57 1.57 0 0 1-.47-.672L.25 1.703h-.531ZM2.047-.391c.238 0 .46-.054.672-.171q.328-.188.562-.47a2.3 2.3 0 0 0 .39-.655 1.8 1.8 0 0 0 .157-.704q0-.374-.14-.671a1.2 1.2 0 0 0-.407-.5.97.97 0 0 0-.594-.188q-.187 0-.421.094a2.2 2.2 0 0 0-.438.219 2 2 0 0 0-.39.328 1.2 1.2 0 0 0-.25.39L.922-1.438q.046.298.203.532.155.234.39.375.234.14.532.14m0 0"/><path id="G" d="M2.422-.375V0H.406v-.375h.844v-2.562a.6.6 0 0 1-.172.171 2 2 0 0 1-.25.157 2.4 2.4 0 0 1-.297.109.8.8 0 0 1-.25.047v-.39a.6.6 0 0 0 .282-.079 1.9 1.9 0 0 0 .563-.375.7.7 0 0 0 .124-.125h.422v3.047Zm0 0"/><path id="I" d="M.266 0c0-.133.007-.27.03-.406q.03-.2.126-.406a1.5 1.5 0 0 1 .312-.391q.2-.2.516-.36c.125-.062.242-.117.36-.171q.186-.094.343-.203a.9.9 0 0 0 .266-.235.504.504 0 0 0 .016-.61.53.53 0 0 0-.266-.234.9.9 0 0 0-.438-.093 1 1 0 0 0-.343.062q-.159.047-.282.125a5 5 0 0 0-.203.156 2 2 0 0 0-.125.141l-.265-.281q.029-.031.14-.125.106-.094.266-.188.169-.106.39-.187a1.5 1.5 0 0 1 .5-.078q.358 0 .61.14.264.129.406.344a.864.864 0 0 1-.234 1.188q-.175.126-.344.218-.174.096-.313.157a4 4 0 0 0-.484.28 1.3 1.3 0 0 0-.297.266 1.15 1.15 0 0 0-.265.516h2.14V0Zm0 0"/><path id="K" d="M1.578-5.797V0H.891v-7.078h.578l4.64 5.906v-5.89h.704V0h-.657Zm0 0"/><path id="L" d="M2.953.094Q2.403.092 1.922-.11a2.5 2.5 0 0 1-.813-.594A2.77 2.77 0 0 1 .39-2.578q0-.562.188-1.047c.125-.32.3-.61.531-.86q.359-.373.829-.577a2.4 2.4 0 0 1 1.03-.22q.564.001 1.032.22.468.204.813.578c.226.25.406.539.53.859a2.73 2.73 0 0 1 0 2.063 2.7 2.7 0 0 1-.53.859Q4.468-.326 4-.11a2.7 2.7 0 0 1-1.047.203M1.078-2.578q-.001.581.25 1.062.248.47.672.75.437.268.953.266.53 0 .953-.281.436-.281.688-.766a2.15 2.15 0 0 0 .265-1.047q-.001-.576-.265-1.047a2 2 0 0 0-.688-.765 1.7 1.7 0 0 0-.953-.282 1.6 1.6 0 0 0-.937.297 2.14 2.14 0 0 0-.688.766q-.251.471-.25 1.047m0 0"/><path id="M" d="M5.11 0h-.673v-2.906q0-.905-.28-1.328-.27-.437-.844-.438a1.7 1.7 0 0 0-.782.203 2.1 2.1 0 0 0-.687.532 2.2 2.2 0 0 0-.422.75V0H.75v-5.187h.61v1.171q.217-.375.546-.656c.227-.195.485-.348.766-.453q.434-.155.89-.156.436.002.735.156.292.159.469.453c.125.2.21.438.265.719q.077.409.078.906Zm0 0"/><path id="N" d="M.64-2.406v-.625h2.923v.625Zm0 0"/><path id="O" d="M2.453.094Q1.81.092 1.266-.11a2.4 2.4 0 0 1-.953-.64l.28-.469a3 3 0 0 0 .876.594q.45.174.953.172.609 0 .984-.234a.79.79 0 0 0 .375-.704q0-.31-.187-.468-.176-.17-.516-.282-.346-.106-.828-.218a8 8 0 0 1-.906-.313 1.4 1.4 0 0 1-.547-.422q-.174-.248-.172-.672-.001-.499.25-.828.247-.34.688-.515.449-.171 1-.172.59 0 1.046.187.47.19.75.532l-.328.453a1.7 1.7 0 0 0-.656-.47 2.4 2.4 0 0 0-.86-.155q-.315 0-.609.093a1 1 0 0 0-.468.282q-.188.188-.188.515 0 .283.14.438.141.159.423.265.279.095.687.22.592.157 1.031.327.437.158.672.422c.164.18.25.418.25.719q0 .737-.562 1.14c-.368.274-.844.407-1.438.407m0 0"/><path id="P" d="M8.469 0h-.672v-2.906c0-.602-.102-1.047-.297-1.328q-.281-.437-.844-.438-.595 0-1.062.422a2.37 2.37 0 0 0-.657 1.078V0h-.671v-2.906q0-.905-.282-1.328c-.187-.29-.476-.438-.859-.438q-.579 0-1.047.422a2.16 2.16 0 0 0-.656 1.063V0H.75v-5.187h.61v1.171q.328-.609.843-.937a2.1 2.1 0 0 1 1.14-.328q.656 0 1.048.375.405.362.5.953.356-.657.859-.985.496-.341 1.14-.343.436.002.735.156.31.159.484.453.186.299.266.719.094.409.094.906Zm0 0"/><path id="Q" d="m3.234-.25-.25.11a1.8 1.8 0 0 1-.406.14q-.234.062-.515.063c-.188 0-.372-.04-.547-.11a.9.9 0 0 1-.407-.328 1.1 1.1 0 0 1-.14-.562v-3.72H.25v-.53h.719v-1.766h.672v1.766h1.203v.53H1.64v3.532q.029.282.203.422.187.14.422.14.28 0 .515-.093.234-.095.281-.14Zm0 0"/><path id="R" d="M5.11 0h-.673v-2.906q0-.873-.312-1.313-.316-.452-.89-.453-.375.002-.75.203-.376.19-.657.532a2 2 0 0 0-.406.75V0H.75v-7.281h.672v3.265q.31-.575.86-.921.56-.342 1.187-.344.45.002.765.156.311.158.5.469.2.298.282.703.093.409.093.906Zm0 0"/><path id="S" d="M3 .094c-.375 0-.727-.07-1.047-.203a2.7 2.7 0 0 1-.828-.594 3 3 0 0 1-.547-.875A2.8 2.8 0 0 1 .391-2.61q0-.734.328-1.344.328-.607.906-.969.592-.359 1.36-.36c.488 0 .913.118 1.28.345q.564.327.844.89l-.656.203a1.6 1.6 0 0 0-.625-.61 1.7 1.7 0 0 0-.875-.234q-.518 0-.953.282c-.281.18-.508.422-.672.734q-.251.47-.25 1.063-.001.58.25 1.062.264.485.688.766.435.28.953.281.34.001.656-.11a1.9 1.9 0 0 0 .547-.327 1 1 0 0 0 .312-.454l.672.204q-.14.377-.468.671-.331.283-.766.454C3.64.039 3.332.094 3 .094m0 0"/><path id="T" d="M3.344-4.594q-.69.018-1.203.375-.503.363-.72.985V0H.75v-5.187h.64v1.234q.263-.545.704-.875c.3-.227.617-.36.953-.39h.297Zm0 0"/><path id="U" d="M.781-7.281h.672v6.11q0 .391.14.515.141.11.345.11.168.001.343-.032.188-.047.328-.094l.11.547A2 2 0 0 1 2.25 0q-.27.062-.469.063c-.304 0-.547-.086-.734-.266Q.779-.485.78-.953Zm0 0"/><path id="V" d="M5.031-5.75a2 2 0 0 0-.36-.297 2.2 2.2 0 0 0-.452-.234 2.7 2.7 0 0 0-1.125-.235c-.625 0-1.086.121-1.375.36q-.423.361-.422.968-.001.411.203.657c.133.156.348.289.64.39.29.094.665.196 1.126.297q.748.175 1.297.39c.363.15.644.345.843.595q.312.362.313 1-.002.502-.203.859a1.6 1.6 0 0 1-.532.594 2.4 2.4 0 0 1-.796.36q-.47.107-1.032.109a5 5 0 0 1-1.047-.11 4.6 4.6 0 0 1-.953-.344 4 4 0 0 1-.843-.578l.359-.562c.125.136.273.261.453.375a3.6 3.6 0 0 0 1.281.531q.373.064.781.063.844 0 1.313-.297.47-.312.469-.922 0-.435-.235-.703-.236-.262-.718-.438a11 11 0 0 0-1.172-.328 9 9 0 0 1-1.25-.375q-.503-.217-.766-.562-.251-.343-.25-.907c0-.437.102-.804.313-1.11q.327-.45.89-.687a3.5 3.5 0 0 1 1.313-.234q.466 0 .875.094.405.093.75.281.34.175.64.438Zm0 0"/><path id="W" d="M1 0v-4.656H.281v-.532H1v-.14q-.002-.638.172-1.094.186-.468.531-.703c.227-.164.5-.25.813-.25q.311 0 .593.094.294.082.516.234l-.219.484a.8.8 0 0 0-.344-.156 1.5 1.5 0 0 0-.406-.062.85.85 0 0 0-.734.375q-.251.362-.25 1.047v.172h1.437v.53H1.672V0Zm0 0"/><path id="X" d="M.75 0v-5.187h.672V0Zm0-6.281v-1h.672v1Zm0 0"/><path id="Y" d="M3.406.094q-.656 0-1.172-.328a2.54 2.54 0 0 1-.812-.844v3.203H.75v-7.312h.61v1q.31-.482.827-.782a2.1 2.1 0 0 1 1.11-.312q.528 0 .969.234c.3.149.562.344.78.594q.341.377.516.86.188.484.188 1c0 .491-.102.937-.297 1.343a2.6 2.6 0 0 1-.828.984c-.344.243-.75.36-1.219.36M3.203-.5q.436.002.766-.172.34-.17.594-.469.246-.31.375-.671a2.5 2.5 0 0 0 .125-.782 2.3 2.3 0 0 0-.141-.797 1.8 1.8 0 0 0-.422-.656 2.1 2.1 0 0 0-.625-.469 1.7 1.7 0 0 0-.75-.171q-.251.002-.531.109a1.96 1.96 0 0 0-.969.703 1.2 1.2 0 0 0-.203.469v1.61q.152.362.422.655.28.3.625.47.358.173.734.171m0 0"/><path id="Z" d="M2.828.063c-.355 0-.683-.07-.984-.22a2.5 2.5 0 0 1-.766-.577 2.6 2.6 0 0 1-.5-.86 2.8 2.8 0 0 1-.172-.984Q.404-3.123.578-3.61c.113-.32.274-.61.485-.86q.326-.388.765-.593.434-.219.984-.22c.446 0 .833.118 1.157.345q.498.329.844.828v-1.078h.593V.016q-.002.716-.343 1.203-.348.498-.922.75a3.2 3.2 0 0 1-1.266.25q-.892 0-1.437-.328a2.7 2.7 0 0 1-.907-.844L.953.719q.312.482.828.719c.344.164.707.25 1.094.25q.498 0 .922-.188.435-.187.687-.562c.164-.243.25-.547.25-.922V-1a2.23 2.23 0 0 1-.812.781q-.518.282-1.094.282M3.016-.5q.311.001.593-.11.282-.107.516-.296.246-.186.406-.406.155-.235.203-.47V-3.39a2.2 2.2 0 0 0-.437-.671 1.9 1.9 0 0 0-.625-.454 1.7 1.7 0 0 0-.735-.171q-.44 0-.78.187-.346.189-.579.5-.235.299-.36.672-.126.375-.124.75 0 .422.14.797.154.377.407.672.262.3.625.453.357.157.75.156m0 0"/><path id="aa" d="M.438-3.453c0-.676.132-1.332.406-1.969q.404-.965.984-1.937l.531.234q-.203.315-.437.75-.224.439-.422.938-.188.504-.312 1.03a4.7 4.7 0 0 0-.11.985q0 .785.328 1.703.34.91.938 1.813l-.516.281a17 17 0 0 1-.734-1.266 7 7 0 0 1-.485-1.28 5 5 0 0 1-.171-1.282m0 0"/><path id="ae" d="M2.234-3.453q0 .626-.171 1.281-.175.644-.5 1.281-.316.627-.72 1.266l-.5-.281a10 10 0 0 0 .923-1.813c.226-.613.343-1.18.343-1.703q-.001-.468-.125-.984a8 8 0 0 0-.328-1.032 10 10 0 0 0-.406-.937 7 7 0 0 0-.437-.75l.53-.234q.576.971.985 1.937.406.955.406 1.969m0 0"/><path id="ab" d="M4.75-2.36c0-1.562-.922-2.046-1.656-2.046-1.375 0-2.688 1.422-2.688 2.828C.406-.641 1 .109 2.031.109c.625 0 1.344-.234 2.094-.843.125.53.453.843.906.843.532 0 .844-.546.844-.703 0-.078-.062-.11-.125-.11-.062 0-.094.032-.125.11-.187.485-.547.485-.562.485-.313 0-.313-.782-.313-1.016 0-.203 0-.234.11-.344C5.796-2.656 6-3.812 6-3.812c0-.032-.016-.11-.125-.11-.094 0-.094.031-.14.219-.188.625-.516 1.375-.985 1.969ZM4.094-.983c-.89.765-1.657.875-2.047.875-.594 0-.906-.453-.906-1.094 0-.484.265-1.563.578-2.063.468-.734 1.015-.921 1.36-.921.983 0 .983 1.312.983 2.078 0 .375 0 .953.032 1.125m0 0"/><clipPath id="a"><path d="M0 0h298.09v235.129H0Zm0 0"/></clipPath><clipPath id="x"><path d="M21.188.195h264.507v153.598H21.188Zm0 0"/></clipPath><clipPath id="y"><path d="M21.188 1h264.507v126H21.188Zm0 0"/></clipPath><clipPath id="z"><path d="M21.188.195h264.507V143H21.188Zm0 0"/></clipPath><clipPath id="A"><path d="M21.188.195h264.507V151H21.188Zm0 0"/></clipPath><clipPath id="B"><path d="M21.188.195h264.507V153H21.188Zm0 0"/></clipPath><clipPath id="C"><path d="M271 126h27.09v30H271Zm0 0"/></clipPath><clipPath id="J"><path d="M15 192h277v43.129H15Zm0 0"/></clipPath></defs><g clip-path="url(#a)"><path fill="#fff" d="M0 235.129V-.004h298.094V235.13Zm0 0"/></g><path fill="none" stroke="#bfbfbf" stroke-miterlimit="10" stroke-width=".399" d="M35.895 153.793V.195M65.27 153.793V.195m29.386 153.598V.195m58.793 153.598V.195m58.762 153.598V.195m29.402 153.598V.195M271 153.793V.195M21.188 140.992h264.507M21.188 115.395h264.507M21.188 89.793h264.507M21.188 64.195h264.507M21.188 38.598h264.507M21.188 12.996h264.507"/><path fill="none" stroke="#7f7f7f" stroke-miterlimit="10" stroke-width=".199" d="M35.895 153.793v-4.254m29.375 4.254v-4.254m29.386 4.254v-4.254m58.793 4.254v-4.254m58.762 4.254v-4.254m29.402 4.254v-4.254M271 153.793v-4.254M35.895.195V4.45M65.27.195V4.45M94.656.195V4.45M153.45.195V4.45M212.211.195V4.45M241.613.195V4.45M271 .195V4.45M21.188 140.992h4.25m-4.25-25.597h4.25m-4.25-25.602h4.25m-4.25-25.598h4.25m-4.25-25.597h4.25m-4.25-25.602h4.25m260.257 127.996h-4.254m4.254-25.597h-4.254m4.254-25.602h-4.254m4.254-25.598h-4.254m4.254-25.597h-4.254m4.254-25.602h-4.254"/><path fill="none" stroke="#000" stroke-miterlimit="10" stroke-width=".399" d="M21.188 153.793V.195h264.507v153.598Zm0 0"/><use xlink:href="#b" x="13.111" y="167.049"/><use xlink:href="#c" x="20.633" y="163.13"/><use xlink:href="#d" x="27.958" y="163.13"/><use xlink:href="#e" x="29.695" y="163.13"/><use xlink:href="#f" x="37.164" y="163.13"/><use xlink:href="#g" x="41.811" y="163.13"/><use xlink:href="#h" x="46.553" y="163.13"/><use xlink:href="#i" x="49.35" y="163.13"/><use xlink:href="#j" x="56.675" y="163.13"/><use xlink:href="#b" x="69.09" y="167.049"/><use xlink:href="#k" x="76.612" y="163.13"/><use xlink:href="#g" x="81.569" y="163.13"/><use xlink:href="#l" x="86.168" y="163.13"/><use xlink:href="#f" x="92.648" y="163.13"/><use xlink:href="#f" x="98.705" y="163.13"/><use xlink:href="#g" x="103.352" y="163.13"/><use xlink:href="#h" x="108.094" y="163.13"/><use xlink:href="#i" x="110.891" y="163.13"/><use xlink:href="#j" x="118.216" y="163.13"/><use xlink:href="#b" x="129.112" y="165.455"/><use xlink:href="#f" x="136.634" y="161.536"/><use xlink:href="#g" x="141.281" y="161.536"/><use xlink:href="#i" x="146.023" y="161.536"/><use xlink:href="#j" x="153.347" y="161.536"/><use xlink:href="#f" x="156.264" y="161.536"/><use xlink:href="#g" x="160.911" y="161.536"/><use xlink:href="#h" x="165.653" y="161.536"/><use xlink:href="#i" x="168.451" y="161.536"/><use xlink:href="#j" x="175.775" y="161.536"/><use xlink:href="#b" x="192.157" y="165.455"/><use xlink:href="#m" x="199.679" y="161.536"/><use xlink:href="#n" x="204.413" y="161.536"/><use xlink:href="#f" x="210.742" y="161.536"/><use xlink:href="#g" x="215.388" y="161.536"/><use xlink:href="#h" x="220.13" y="161.536"/><use xlink:href="#i" x="222.928" y="161.536"/><use xlink:href="#j" x="230.252" y="161.536"/><use xlink:href="#b" x="247.225" y="165.455"/><use xlink:href="#c" x="254.747" y="161.536"/><use xlink:href="#o" x="262.072" y="161.536"/><use xlink:href="#p" x="266.415" y="161.536"/><use xlink:href="#f" x="273.255" y="161.536"/><use xlink:href="#g" x="277.902" y="161.536"/><use xlink:href="#h" x="282.644" y="161.536"/><use xlink:href="#i" x="285.441" y="161.536"/><use xlink:href="#j" x="292.766" y="161.536"/><use xlink:href="#q" x="11.57" y="143.916"/><use xlink:href="#q" x="4.137" y="117.964"/><use xlink:href="#r" x="10.234" y="117.964"/><use xlink:href="#s" x="12.476" y="117.964"/><use xlink:href="#q" x="3.888" y="92.136"/><use xlink:href="#r" x="9.985" y="92.136"/><use xlink:href="#t" x="12.227" y="92.136"/><use xlink:href="#q" x="3.321" y="67.354"/><use xlink:href="#r" x="9.418" y="67.354"/><use xlink:href="#u" x="11.66" y="67.354"/><use xlink:href="#q" x="3.42" y="41.731"/><use xlink:href="#r" x="9.517" y="41.731"/><use xlink:href="#v" x="11.759" y="41.731"/><use xlink:href="#w" x="13.403" y="15.843"/><g clip-path="url(#x)"><path fill="none" stroke="red" stroke-miterlimit="10" stroke-width=".85" d="M21.188 12.996H212.21L271 140.992h14.695"/></g><g clip-path="url(#y)"><path fill="none" stroke="#ffffb2" stroke-miterlimit="10" stroke-width=".85" d="m21.188 13.082 7.109.023 3.558.016 7.11.031 3.558.02 3.555.023 3.555.02 3.558.031 3.555.031 3.555.035 3.558.043 3.555.043 3.555.051 3.558.059 3.555.062 3.555.075 3.558.082 3.555.093 3.555.106 3.558.117 3.555.133 3.555.148 3.554.168 3.559.192 3.555.21 3.554.239 3.559.27 3.555.3 3.554.336 3.559.379 3.555.418 3.554.476 3.559.528 3.555.586 3.554.652 3.559.73 3.554.813 3.555.895 3.559.996 3.554 1.097 3.555 1.207 3.559 1.32 3.554 1.458 3.555 1.586 3.559 1.718 3.554 1.868 3.555 2.015 3.559 2.168 3.554 2.32 3.555 2.477 3.559 2.637 3.554 2.765 3.555 2.918 3.559 3.047 3.554 3.172 3.555 3.285 3.559 3.38 3.554 3.452 3.555 3.512 3.559 3.566 3.554 3.563 3.555 3.578 3.559 3.547 3.554 3.52 3.555 3.449 3.559 3.37 3.554 3.282 3.555 3.164 3.558 3.05 3.555 2.919 3.555 2.773 3.558 2.63 3.555 2.468"/></g><g clip-path="url(#z)"><path fill="none" stroke="#fecc5c" stroke-miterlimit="10" stroke-width=".85" d="M21.188 12.996H35.41l3.555.004h39.117l3.555.004h7.113l3.555.004 3.558.004h3.555l3.555.004 3.554.007 3.559.004 3.555.008 3.554.012 3.559.012 7.11.039 3.558.027 3.555.035 3.554.047 3.559.055 3.555.074 3.554.09 3.559.117 3.554.148 3.555.184 3.559.238 3.554.297 3.555.38 3.559.468 3.554.594 3.555.734 3.559.918 3.554 1.125 3.555 1.375 3.559 1.676 3.554 2 3.555 2.367 3.559 2.781 3.554 3.2 3.555 3.632 3.559 4.067 3.554 4.48 3.555 4.855 3.559 5.184 3.554 5.461 3.555 5.68 3.559 5.808 3.554 5.883 3.555 5.887 3.559 5.808 3.554 5.676 3.555 5.45 3.559 5.175 3.554 4.844 3.555 4.469 3.558 4.058 3.555 3.625 3.555 3.188 3.558 2.762 3.555 2.359"/></g><g clip-path="url(#A)"><path fill="none" stroke="#fd8d3c" stroke-miterlimit="10" stroke-width=".85" d="M21.188 12.996h103.12l3.555.004H149.2l3.559.004 7.11.008 3.558.008 3.554.011 3.555.024 3.559.03 3.554.056 3.555.09 3.559.144 3.554.23 3.555.368 3.559.574 3.554.898 3.555 1.356 3.559 1.976 3.554 2.766 3.555 3.66 3.559 4.59 3.554 5.426 3.555 6.129 3.559 6.648 3.554 7.012 3.555 7.25 3.559 7.39 3.554 7.457 3.555 7.45 3.559 7.386 3.554 7.246 3.555 7.008 3.559 6.637 3.554 6.105 3.555 5.407 3.558 4.562 3.555 3.637 3.555 2.742 3.558 1.957 3.555 1.34"/></g><g fill="none" stroke-miterlimit="10" stroke-width=".85" clip-path="url(#B)"><path stroke="#f03b20" d="M21.188 12.996h135.125l3.554.004h10.668l3.559.004 3.554.004 3.555.008 3.559.02 3.554.042 3.555.086 3.559.176 3.554.351 3.555.692 3.559 1.308 3.554 2.274 3.555 3.566 3.559 4.93 3.554 6.059 3.555 6.82 3.559 7.265 3.554 7.5 3.555 7.622 3.559 7.68 7.109 15.398 3.559 7.675 3.554 7.622 3.555 7.496 3.559 7.257 3.554 6.801 3.555 6.031 3.558 4.891 3.555 3.527 3.555 2.247 3.558 1.277 3.555.684"/><path stroke="#bd0026" d="M21.188 12.996h156.46l3.555.004 3.559.004 3.554.004 3.555.02 3.559.054 3.554.133 3.555.34 3.559.828 3.554 1.851 3.555 3.47 3.559 5.241 3.554 6.547 3.555 7.235 3.559 7.539 3.554 7.664 3.555 7.71 3.559 7.731 3.554 7.738 3.555 7.735 3.559 7.73 3.554 7.711 3.555 7.66 3.559 7.535 3.554 7.223 3.555 6.512 3.558 5.2 3.555 3.417 3.555 1.809 3.558.812 3.555.332"/></g><path fill="red" stroke="red" stroke-miterlimit="10" stroke-width=".85" d="M23.18 12.996a1.993 1.993 0 1 0-3.983.002 1.993 1.993 0 0 0 3.983-.002Zm191.023 0a1.996 1.996 0 0 0-1.992-1.992 1.996 1.996 0 0 0-1.996 1.992 1.994 1.994 0 0 0 3.988 0Zm58.789 127.996A1.99 1.99 0 0 0 271 139a1.99 1.99 0 0 0-1.992 1.992 1.99 1.99 0 0 0 1.992 1.992 1.99 1.99 0 0 0 1.992-1.992Zm0 0"/><path fill="red" d="M287.688 140.992a1.993 1.993 0 1 0-3.987.002 1.993 1.993 0 0 0 3.986-.002m0 0"/><g clip-path="url(#C)"><path fill="none" stroke="red" stroke-miterlimit="10" stroke-width=".85" d="M287.688 140.992a1.993 1.993 0 1 0-3.987.002 1.993 1.993 0 0 0 3.986-.002Zm0 0"/></g><use xlink:href="#D" x="130.761" y="181.66"/><use xlink:href="#E" x="133.062" y="181.66"/><use xlink:href="#F" x="139.827" y="183.154"/><use xlink:href="#G" x="144.553" y="184.15"/><use xlink:href="#H" x="150.322" y="181.66"/><use xlink:href="#E" x="158.212" y="181.66"/><use xlink:href="#F" x="164.979" y="183.154"/><use xlink:href="#I" x="169.705" y="184.15"/><use xlink:href="#D" x="173.816" y="181.66"/><path fill="#fff" d="M15.219 234.93H291.66v-42.54H15.22Zm0 0"/><g clip-path="url(#J)"><path fill="none" stroke="#000" stroke-miterlimit="10" stroke-width=".399" d="M15.219 234.93H291.66v-42.54H15.22Zm0 0"/></g><path fill="none" stroke="red" stroke-miterlimit="10" stroke-width=".85" d="M18.637 200.809h17.008"/><path fill="red" stroke="red" stroke-miterlimit="10" stroke-width=".85" d="M29.133 200.809a1.993 1.993 0 1 0-3.986.001 1.993 1.993 0 0 0 3.986-.001Zm0 0"/><use xlink:href="#K" x="38.061" y="203.697"/><use xlink:href="#L" x="45.672" y="203.697"/><use xlink:href="#M" x="51.6" y="203.697"/><use xlink:href="#N" x="57.408" y="203.697"/><use xlink:href="#O" x="61.613" y="203.697"/><use xlink:href="#P" x="66.425" y="203.697"/><use xlink:href="#L" x="75.58" y="203.697"/><use xlink:href="#L" x="81.508" y="203.697"/><use xlink:href="#Q" x="87.356" y="203.697"/><use xlink:href="#R" x="90.694" y="203.697"/><use xlink:href="#S" x="99.819" y="203.697"/><use xlink:href="#L" x="105.249" y="203.697"/><use xlink:href="#M" x="111.177" y="203.697"/><use xlink:href="#Q" x="116.935" y="203.697"/><use xlink:href="#T" x="120.273" y="203.697"/><use xlink:href="#L" x="123.61" y="203.697"/><use xlink:href="#U" x="129.538" y="203.697"/><path fill="none" stroke="#ffffb2" stroke-miterlimit="10" stroke-width=".85" d="M153.863 200.809h17.008"/><use xlink:href="#V" x="173.29" y="203.747"/><use xlink:href="#L" x="179.337" y="203.747"/><use xlink:href="#W" x="185.175" y="203.747"/><use xlink:href="#Q" x="188.463" y="203.747"/><use xlink:href="#S" x="195.118" y="203.747"/><use xlink:href="#U" x="200.588" y="203.747"/><use xlink:href="#X" x="203.297" y="203.747"/><use xlink:href="#Y" x="205.469" y="203.747"/><use xlink:href="#Y" x="211.616" y="203.747"/><use xlink:href="#X" x="217.763" y="203.747"/><use xlink:href="#M" x="219.935" y="203.747"/><use xlink:href="#Z" x="225.743" y="203.747"/><use xlink:href="#aa" x="235.218" y="203.747"/><use xlink:href="#ab" x="237.903" y="203.747"/><use xlink:href="#ac" x="247.081" y="203.747"/><use xlink:href="#ad" x="254.204" y="203.747"/><use xlink:href="#q" x="259.634" y="203.747"/><use xlink:href="#ae" x="265.739" y="203.747"/><path fill="none" stroke="#fecc5c" stroke-miterlimit="10" stroke-width=".85" d="M18.637 213.66h17.008"/><use xlink:href="#V" x="38.061" y="216.599"/><use xlink:href="#L" x="44.108" y="216.599"/><use xlink:href="#W" x="49.946" y="216.599"/><use xlink:href="#Q" x="53.234" y="216.599"/><use xlink:href="#S" x="59.889" y="216.599"/><use xlink:href="#U" x="65.359" y="216.599"/><use xlink:href="#X" x="68.068" y="216.599"/><use xlink:href="#Y" x="70.24" y="216.599"/><use xlink:href="#Y" x="76.387" y="216.599"/><use xlink:href="#X" x="82.534" y="216.599"/><use xlink:href="#M" x="84.706" y="216.599"/><use xlink:href="#Z" x="90.514" y="216.599"/><use xlink:href="#aa" x="99.989" y="216.599"/><use xlink:href="#ab" x="102.674" y="216.599"/><use xlink:href="#ac" x="111.851" y="216.599"/><use xlink:href="#w" x="118.974" y="216.599"/><use xlink:href="#q" x="123.238" y="216.599"/><use xlink:href="#q" x="129.335" y="216.599"/><use xlink:href="#ae" x="135.441" y="216.599"/><path fill="none" stroke="#fd8d3c" stroke-miterlimit="10" stroke-width=".85" d="M153.863 213.66h17.008"/><use xlink:href="#V" x="173.29" y="216.599"/><use xlink:href="#L" x="179.337" y="216.599"/><use xlink:href="#W" x="185.175" y="216.599"/><use xlink:href="#Q" x="188.463" y="216.599"/><use xlink:href="#S" x="195.118" y="216.599"/><use xlink:href="#U" x="200.588" y="216.599"/><use xlink:href="#X" x="203.297" y="216.599"/><use xlink:href="#Y" x="205.469" y="216.599"/><use xlink:href="#Y" x="211.616" y="216.599"/><use xlink:href="#X" x="217.763" y="216.599"/><use xlink:href="#M" x="219.935" y="216.599"/><use xlink:href="#Z" x="225.743" y="216.599"/><use xlink:href="#aa" x="235.218" y="216.599"/><use xlink:href="#ab" x="237.903" y="216.599"/><use xlink:href="#ac" x="247.081" y="216.599"/><use xlink:href="#s" x="254.204" y="216.599"/><use xlink:href="#q" x="259.395" y="216.599"/><use xlink:href="#q" x="265.492" y="216.599"/><use xlink:href="#ae" x="271.597" y="216.599"/><path fill="none" stroke="#f03b20" stroke-miterlimit="10" stroke-width=".85" d="M18.637 226.512h17.008"/><use xlink:href="#V" x="38.061" y="229.45"/><use xlink:href="#L" x="44.108" y="229.45"/><use xlink:href="#W" x="49.946" y="229.45"/><use xlink:href="#Q" x="53.234" y="229.45"/><use xlink:href="#S" x="59.889" y="229.45"/><use xlink:href="#U" x="65.359" y="229.45"/><use xlink:href="#X" x="68.068" y="229.45"/><use xlink:href="#Y" x="70.24" y="229.45"/><use xlink:href="#Y" x="76.387" y="229.45"/><use xlink:href="#X" x="82.534" y="229.45"/><use xlink:href="#M" x="84.706" y="229.45"/><use xlink:href="#Z" x="90.514" y="229.45"/><use xlink:href="#aa" x="99.989" y="229.45"/><use xlink:href="#ab" x="102.674" y="229.45"/><use xlink:href="#ac" x="111.851" y="229.45"/><use xlink:href="#af" x="118.974" y="229.45"/><use xlink:href="#q" x="124.294" y="229.45"/><use xlink:href="#q" x="130.391" y="229.45"/><use xlink:href="#ae" x="136.497" y="229.45"/><path fill="none" stroke="#bd0026" stroke-miterlimit="10" stroke-width=".85" d="M153.863 226.512h17.008"/><use xlink:href="#V" x="173.29" y="229.45"/><use xlink:href="#L" x="179.337" y="229.45"/><use xlink:href="#W" x="185.175" y="229.45"/><use xlink:href="#Q" x="188.463" y="229.45"/><use xlink:href="#S" x="195.118" y="229.45"/><use xlink:href="#U" x="200.588" y="229.45"/><use xlink:href="#X" x="203.297" y="229.45"/><use xlink:href="#Y" x="205.469" y="229.45"/><use xlink:href="#Y" x="211.616" y="229.45"/><use xlink:href="#X" x="217.763" y="229.45"/><use xlink:href="#M" x="219.935" y="229.45"/><use xlink:href="#Z" x="225.743" y="229.45"/><use xlink:href="#aa" x="235.218" y="229.45"/><use xlink:href="#ab" x="237.903" y="229.45"/><use xlink:href="#ac" x="247.081" y="229.45"/><use xlink:href="#t" x="254.204" y="229.45"/><use xlink:href="#q" x="259.644" y="229.45"/><use xlink:href="#q" x="265.741" y="229.45"/><use xlink:href="#ae" x="271.846" y="229.45"/></svg>
