<svg xmlns="http://www.w3.org/2000/svg" xmlns:xlink="http://www.w3.org/1999/xlink" width="397.453" height="313.505" viewBox="0 0 298.09 235.129"><defs><symbol overflow="visible" id="b"><path style="stroke:none" d="M3.766.047c-.555 0-1.024-.098-1.407-.297a2.383 2.383 0 0 1-.921-.797 3.524 3.524 0 0 1-.5-1.14A5.496 5.496 0 0 1 .78-3.516v-3.562h.688v3.562c0 .375.035.743.11 1.094.081.344.206.656.374.938.176.28.41.507.703.671.29.157.66.235 1.11.235.445 0 .816-.082 1.109-.25.3-.176.535-.399.703-.672a3.18 3.18 0 0 0 .36-.938c.07-.351.109-.71.109-1.078v-3.562h.703v3.562c0 .48-.055.938-.156 1.375-.106.43-.278.805-.516 1.125a2.66 2.66 0 0 1-.937.782c-.375.187-.836.28-1.375.28Zm0 0"/></symbol><symbol overflow="visible" id="q"><path style="stroke:none" d="M5.547-2.922c0 .586-.11 1.106-.328 1.563-.211.46-.508.82-.89 1.078-.376.25-.806.375-1.282.375-.48 0-.906-.125-1.281-.375A2.654 2.654 0 0 1 .875-1.36C.656-1.816.547-2.336.547-2.922c0-.582.11-1.098.328-1.547.219-.457.516-.816.89-1.078.376-.27.801-.406 1.282-.406.476 0 .906.137 1.281.406.383.262.68.621.89 1.078.22.45.329.965.329 1.547Zm-.688 0c0-.469-.078-.879-.234-1.234C4.477-4.52 4.27-4.801 4-5a1.534 1.534 0 0 0-.953-.313c-.356 0-.672.106-.953.313-.274.2-.485.48-.64.844-.157.355-.235.765-.235 1.234s.078.887.234 1.25c.156.356.367.637.64.844.282.2.598.297.954.297.363 0 .68-.098.953-.297.27-.207.477-.488.625-.844.156-.363.234-.781.234-1.25Zm0 0"/></symbol><symbol overflow="visible" id="r"><path style="stroke:none" d="m.86.813.171-.844H.797v-.953h.656v.953l-.25.844Zm0 0"/></symbol><symbol overflow="visible" id="s"><path style="stroke:none" d="M.438 0c0-.227.019-.457.062-.688a2.55 2.55 0 0 1 .219-.671c.113-.227.281-.446.5-.657.226-.207.52-.406.875-.593.187-.102.383-.204.594-.297.207-.094.398-.196.578-.313a1.64 1.64 0 0 0 .437-.406.833.833 0 0 0 .172-.531.936.936 0 0 0-.14-.485.976.976 0 0 0-.438-.39 1.607 1.607 0 0 0-.735-.157 1.83 1.83 0 0 0-1.046.329 2.31 2.31 0 0 0-.329.265c-.093.086-.171.157-.234.219l-.422-.469a2.71 2.71 0 0 1 .656-.531c.188-.113.407-.21.657-.297a2.63 2.63 0 0 1 .828-.125c.406 0 .75.074 1.031.219.29.148.516.34.672.578.156.242.234.496.234.766 0 .28-.062.523-.187.718a1.89 1.89 0 0 1-.453.5c-.18.149-.367.274-.563.375l-.531.266a5.528 5.528 0 0 0-.781.438 3.162 3.162 0 0 0-.516.437 2.167 2.167 0 0 0-.297.438 2.47 2.47 0 0 0-.14.437h3.578V0Zm0 0"/></symbol><symbol overflow="visible" id="t"><path style="stroke:none" d="M3.547 1.266V-.516H.234v-.593l3.532-4.579h.468v4.563h.875v.61h-.875v1.78ZM.953-1.125h2.672v-3.5Zm0 0"/></symbol><symbol overflow="visible" id="u"><path style="stroke:none" d="M5.578-2.328A2.337 2.337 0 0 0 4.36-4.406a2.44 2.44 0 0 0-1.218-.313c-.305 0-.586.055-.844.157a2.047 2.047 0 0 0-.688.453 1.962 1.962 0 0 0-.437.671c0-.656.082-1.21.25-1.671.164-.457.394-.805.687-1.047.29-.25.63-.375 1.016-.375.375 0 .71.105 1.016.312.3.2.523.469.671.813l.438-.407a2.258 2.258 0 0 0-.86-.953 2.274 2.274 0 0 0-1.265-.359c-.512 0-.965.156-1.36.469-.398.312-.702.781-.921 1.406-.219.625-.328 1.422-.328 2.39 0 .618.109 1.15.328 1.594.219.438.52.778.906 1.016.383.23.82.344 1.313.344.468 0 .89-.11 1.265-.328a2.44 2.44 0 0 0 .906-.875c.227-.375.344-.782.344-1.22ZM3.078-.5c-.336 0-.64-.082-.922-.25a2.01 2.01 0 0 1-.687-.656 1.757 1.757 0 0 1-.25-.922c0-.344.082-.649.25-.922.164-.281.39-.504.672-.672a1.87 1.87 0 0 1 .937-.25c.332 0 .64.086.922.25.281.168.504.39.672.672.164.281.25.59.25.922 0 .336-.086.64-.25.922-.168.273-.39.492-.672.656-.281.168-.59.25-.922.25Zm0 0"/></symbol><symbol overflow="visible" id="v"><path style="stroke:none" d="M5.406-1.969c0 .418-.117.782-.343 1.094-.231.305-.532.54-.907.703-.375.168-.781.25-1.218.25-.481 0-.903-.094-1.266-.281a2.21 2.21 0 0 1-.86-.75A1.823 1.823 0 0 1 .5-2c0-.3.066-.57.203-.813.145-.25.328-.453.547-.609.219-.164.438-.285.656-.36a3.52 3.52 0 0 1-.578-.343 1.648 1.648 0 0 1-.422-.5 1.358 1.358 0 0 1-.156-.656c0-.29.063-.547.188-.766a1.94 1.94 0 0 1 .515-.562c.219-.157.457-.27.719-.344.258-.082.52-.125.781-.125.258 0 .52.043.781.125.27.074.508.187.72.344.218.148.39.336.515.562.133.219.203.477.203.766 0 .23-.059.445-.172.64-.105.2-.246.371-.422.516-.18.137-.375.25-.594.344.258.086.5.215.72.39.218.18.39.387.515.625.125.243.187.508.187.797Zm-.687-.047c0-.238-.055-.445-.157-.625a1.265 1.265 0 0 0-.406-.468 2.034 2.034 0 0 0-.578-.282 2.01 2.01 0 0 0-.64-.109c-.282 0-.56.063-.829.188a1.669 1.669 0 0 0-.656.515 1.27 1.27 0 0 0-.25.797c0 .23.047.438.14.625.102.18.243.328.423.453.175.125.367.227.578.297.207.063.414.094.625.094.289 0 .566-.055.828-.172.27-.125.488-.3.656-.531.176-.227.266-.489.266-.782ZM1.422-5.25c0 .262.078.484.234.672.157.18.352.312.594.406.238.094.473.14.703.14.238 0 .473-.046.703-.14a1.61 1.61 0 0 0 .594-.422c.156-.187.234-.41.234-.672 0-.25-.074-.46-.218-.64a1.26 1.26 0 0 0-.579-.407c-.23-.093-.48-.14-.75-.14-.25 0-.496.047-.734.14a1.33 1.33 0 0 0-.562.422.966.966 0 0 0-.22.641Zm0 0"/></symbol><symbol overflow="visible" id="w"><path style="stroke:none" d="M4.047-.625V0H.672v-.625h1.406v-4.266a1.06 1.06 0 0 1-.265.266 2.884 2.884 0 0 1-.922.453 1.33 1.33 0 0 1-.438.078v-.656c.156 0 .32-.04.5-.125a3.44 3.44 0 0 0 .516-.297c.164-.113.304-.219.422-.312.113-.102.175-.172.187-.204h.703v5.063Zm0 0"/></symbol><symbol overflow="visible" id="D"><path style="stroke:none" d="M.86 1.297V-7.72h.593v9.016Zm0 0"/></symbol><symbol overflow="visible" id="E"><path style="stroke:none" d="M.86-7.078 3.39-.875l2.516-6.203h.735L3.703 0h-.625L.125-7.078Zm0 0"/></symbol><symbol overflow="visible" id="H"><path style="stroke:none" d="M.64-2.406v-.625h4.391v.625Zm0 0"/></symbol><symbol overflow="visible" id="ac"><path style="stroke:none" d="M.672-1.938v-.484h3.015v.485Zm0-1.14v-.485h3.015v.485Zm0 0"/></symbol><symbol overflow="visible" id="ad"><path style="stroke:none" d="M2.61 1.484c-.5 0-.954-.125-1.36-.375A2.335 2.335 0 0 1 .344.125l.453-.328c.187.32.441.582.765.781.32.195.676.297 1.063.297.332 0 .629-.074.89-.219a1.73 1.73 0 0 0 .626-.61c.156-.257.234-.554.234-.89 0-.32-.078-.61-.234-.86a1.523 1.523 0 0 0-.61-.577 1.656 1.656 0 0 0-.844-.219c-.312 0-.609.07-.89.203a1.753 1.753 0 0 0-.672.594H.5l.781-3.984h3.422v.625H1.797l-.484 2.546c.164-.187.375-.332.625-.437.257-.102.535-.156.828-.156.425 0 .812.101 1.156.296A2.176 2.176 0 0 1 5.078-.859c0 .468-.117.875-.344 1.218a2.303 2.303 0 0 1-.89.829 2.585 2.585 0 0 1-1.235.296Zm0 0"/></symbol><symbol overflow="visible" id="af"><path style="stroke:none" d="M3.422-2.36c.3.055.555.165.765.329.208.168.368.375.485.625.125.25.187.539.187.86 0 .398-.101.741-.296 1.046a1.85 1.85 0 0 1-.797.719c-.344.164-.746.25-1.204.25-.511 0-.953-.106-1.328-.313A2.037 2.037 0 0 1 .375.313L.844-.11c.144.28.36.507.64.687.29.176.649.266 1.079.266.488 0 .878-.121 1.171-.36.29-.242.438-.586.438-1.046 0-.446-.152-.805-.453-1.079-.305-.27-.735-.406-1.297-.406h-.25v-.578h.265c.508 0 .899-.117 1.172-.36a1.13 1.13 0 0 0 .422-.906c0-.28-.062-.507-.187-.687a1.195 1.195 0 0 0-.516-.406 1.888 1.888 0 0 0-.75-.141c-.375 0-.71.09-1 .266a1.612 1.612 0 0 0-.656.687l-.438-.406c.114-.238.274-.442.485-.61.219-.175.469-.312.75-.406.289-.093.597-.14.922-.14.414 0 .78.074 1.093.218.313.149.555.356.735.625.176.262.265.575.265.938 0 .262-.054.508-.156.734-.105.23-.258.422-.453.578a1.52 1.52 0 0 1-.703.282Zm0 0"/></symbol><symbol overflow="visible" id="c"><path style="stroke:none" d="M6.766 0h-.532v-2.313c0-.488-.078-.847-.234-1.078-.156-.226-.387-.343-.688-.343a1.23 1.23 0 0 0-.843.343 1.806 1.806 0 0 0-.516.86V0h-.547v-2.313c0-.488-.074-.847-.219-1.078-.148-.226-.374-.343-.687-.343-.305 0-.578.109-.828.328a1.77 1.77 0 0 0-.531.86V0H.594v-4.156h.5v.937c.176-.32.398-.566.672-.734.27-.176.57-.266.906-.266.351 0 .633.102.844.297.207.188.336.445.39.766.188-.352.414-.617.688-.797.27-.176.57-.266.906-.266.238 0 .438.043.594.125a.964.964 0 0 1 .39.36c.102.156.176.343.22.562a4.3 4.3 0 0 1 .062.735Zm0 0"/></symbol><symbol overflow="visible" id="d"><path style="stroke:none" d="M.594 0v-4.156h.547V0Zm0-5.016v-.796h.547v.796Zm0 0"/></symbol><symbol overflow="visible" id="e"><path style="stroke:none" d="M4.094 0h-.547v-2.313c0-.488-.074-.847-.219-1.078-.148-.226-.371-.343-.672-.343-.219 0-.433.054-.64.156a1.89 1.89 0 0 0-.532.422c-.156.18-.273.383-.343.61V0H.594v-4.156h.5v.937c.113-.195.258-.367.437-.515.176-.157.38-.274.61-.36.226-.082.468-.125.718-.125.227 0 .422.043.579.125a.974.974 0 0 1 .374.36c.094.156.16.343.204.562.05.219.078.465.078.735Zm0 0"/></symbol><symbol overflow="visible" id="o"><path style="stroke:none" d="M.266-1.188c0-.257.07-.484.218-.671.145-.196.348-.348.61-.454a2.62 2.62 0 0 1 .922-.156c.195 0 .406.024.625.063.218.031.414.078.593.14v-.359c0-.344-.105-.617-.312-.828-.211-.207-.496-.313-.86-.313-.23 0-.453.043-.671.125a3.954 3.954 0 0 0-.672.36l-.203-.39c.27-.177.535-.313.796-.407.258-.094.524-.14.797-.14.508 0 .91.148 1.204.437.3.293.453.695.453 1.203v1.922c0 .074.015.133.046.172.032.03.083.046.157.046V0c-.063.008-.117.016-.156.016a.184.184 0 0 1-.094 0c-.137 0-.242-.04-.313-.125a.407.407 0 0 1-.094-.25l-.015-.313a1.86 1.86 0 0 1-.735.563 2.25 2.25 0 0 1-.89.187c-.274 0-.516-.058-.734-.172a1.367 1.367 0 0 1-.5-.453 1.222 1.222 0 0 1-.172-.64Zm2.78.313c.052-.07.095-.14.126-.203a.43.43 0 0 0 .062-.203v-.594a3.015 3.015 0 0 0-.578-.156 2.848 2.848 0 0 0-.578-.063c-.387 0-.7.078-.937.235a.691.691 0 0 0-.36.625c0 .156.035.304.11.437.082.137.203.25.359.344.156.086.336.125.547.125.258 0 .5-.05.719-.156.226-.102.406-.235.53-.391Zm0 0"/></symbol><symbol overflow="visible" id="p"><path style="stroke:none" d="m.719-4.156 1.219 1.625.078.125.062-.125 1.203-1.625h.61L2.312-2.063 3.891 0h-.61L2.078-1.625l-.062-.11-.079.11L.734 0H.125l1.563-2.063L.125-4.155Zm0 0"/></symbol><symbol overflow="visible" id="f"><path style="stroke:none" d="M4.094 0h-.547v-2.313c0-.488-.074-.847-.219-1.078-.148-.226-.371-.343-.672-.343-.219 0-.433.054-.64.156a1.89 1.89 0 0 0-.532.422c-.156.18-.273.383-.343.61V0H.594v-4.156h.5v.937c.113-.195.258-.367.437-.515.176-.157.38-.274.61-.36.226-.082.468-.125.718-.125.227 0 .422.043.579.125a.974.974 0 0 1 .374.36c.094.156.16.343.204.562.05.219.078.465.078.735Zm0 0"/></symbol><symbol overflow="visible" id="g"><path style="stroke:none" d="M2.36.078c-.294 0-.57-.058-.829-.172a2.06 2.06 0 0 1-.656-.469 2.16 2.16 0 0 1-.422-.687 2.37 2.37 0 0 1-.14-.813c0-.3.046-.578.14-.828.102-.257.25-.488.438-.687.187-.195.406-.352.656-.469.25-.113.523-.172.828-.172.3 0 .57.059.813.172.25.117.468.274.656.469a2.186 2.186 0 0 1 .594 1.516 2.21 2.21 0 0 1-.594 1.5c-.18.199-.39.355-.64.468-.25.114-.532.172-.845.172Zm-1.5-2.14A1.728 1.728 0 0 0 1.61-.61c.226.148.476.218.75.218.28 0 .535-.07.765-.218.227-.157.41-.364.547-.625a1.82 1.82 0 0 0 .203-.844c0-.3-.07-.578-.203-.828a1.623 1.623 0 0 0-.547-.61 1.332 1.332 0 0 0-.766-.234c-.273 0-.523.078-.75.234-.218.157-.402.36-.546.61-.137.25-.204.531-.204.844Zm0 0"/></symbol><symbol overflow="visible" id="h"><path style="stroke:none" d="M2.672-3.672a1.674 1.674 0 0 0-.953.313 1.5 1.5 0 0 0-.578.78V0H.594v-4.156h.515v1a2.02 2.02 0 0 1 .563-.703 1.41 1.41 0 0 1 .766-.313h.233Zm0 0"/></symbol><symbol overflow="visible" id="i"><path style="stroke:none" d="M6.766 0h-.532v-2.313c0-.488-.078-.847-.234-1.078-.156-.226-.387-.343-.688-.343a1.23 1.23 0 0 0-.843.343 1.806 1.806 0 0 0-.516.86V0h-.547v-2.313c0-.488-.074-.847-.219-1.078-.148-.226-.374-.343-.687-.343-.305 0-.578.109-.828.328a1.77 1.77 0 0 0-.531.86V0H.594v-4.156h.5v.937c.176-.32.398-.566.672-.734.27-.176.57-.266.906-.266.351 0 .633.102.844.297.207.188.336.445.39.766.188-.352.414-.617.688-.797.27-.176.57-.266.906-.266.238 0 .438.043.594.125a.964.964 0 0 1 .39.36c.102.156.176.343.22.562a4.3 4.3 0 0 1 .062.735Zm0 0"/></symbol><symbol overflow="visible" id="j"><path style="stroke:none" d="M.516 0v-.781h.468V0Zm0 0"/></symbol><symbol overflow="visible" id="k"><path style="stroke:none" d="M.313-2.063c0-.394.082-.753.25-1.078.164-.332.39-.593.671-.78a1.72 1.72 0 0 1 .985-.298c.344 0 .648.094.922.282.27.18.484.398.64.656v-2.531h.547v5.156c0 .074.016.133.047.172.031.03.078.046.14.046V0a.84.84 0 0 1-.25.016.428.428 0 0 1-.421-.407v-.421c-.156.28-.383.5-.672.656a1.782 1.782 0 0 1-.875.234A1.91 1.91 0 0 1 1.5-.094a1.894 1.894 0 0 1-.625-.469 2.374 2.374 0 0 1-.422-.703 2.314 2.314 0 0 1-.14-.796Zm3.468.641v-1.281a1.314 1.314 0 0 0-.328-.531 1.93 1.93 0 0 0-.531-.375 1.287 1.287 0 0 0-.578-.141c-.219 0-.422.047-.61.14-.18.094-.336.227-.468.391a1.79 1.79 0 0 0-.391 1.157c0 .218.035.433.11.64.081.2.19.375.328.531.144.157.312.282.5.375.187.086.39.125.609.125.133 0 .273-.023.422-.078.156-.062.3-.14.437-.234a1.31 1.31 0 0 0 .328-.328.891.891 0 0 0 .172-.39Zm0 0"/></symbol><symbol overflow="visible" id="l"><path style="stroke:none" d="M5.828-4.156h.531L4.58 0h-.47l-.875-2.063L2.375 0h-.469L.125-4.156h.516L2.156-.563l.766-1.875-.703-1.703h.484l.531 1.344.532-1.344h.484l-.703 1.704.765 1.874Zm0 0"/></symbol><symbol overflow="visible" id="m"><path style="stroke:none" d="M.563-1.719v-2.437h.53v2.343c0 .481.079.84.235 1.079.164.23.41.343.734.343.208 0 .41-.046.61-.14a1.56 1.56 0 0 0 .531-.39c.156-.177.274-.38.36-.61v-2.625h.546v3.5c0 .074.016.133.047.172.032.03.078.046.14.046V0c-.062.008-.116.016-.155.016h-.094a.428.428 0 0 1-.281-.125.397.397 0 0 1-.125-.266l-.016-.563c-.18.313-.422.563-.734.75-.313.18-.653.266-1.016.266-.43 0-.758-.148-.984-.453-.22-.3-.329-.75-.329-1.344Zm0 0"/></symbol><symbol overflow="visible" id="n"><path style="stroke:none" d="M2.719.078c-.344 0-.656-.086-.938-.266a2.136 2.136 0 0 1-.64-.671v2.562H.594v-5.86h.484v.813c.164-.258.383-.469.656-.625a1.745 1.745 0 0 1 1.688-.062 1.9 1.9 0 0 1 .61.468c.175.2.312.43.405.688.102.262.157.527.157.797 0 .398-.078.758-.235 1.078a1.976 1.976 0 0 1-.656.781c-.281.2-.61.297-.984.297ZM2.563-.39A1.384 1.384 0 0 0 3.64-.907c.132-.163.234-.347.296-.546.07-.195.11-.406.11-.625 0-.219-.043-.426-.125-.625a1.45 1.45 0 0 0-.328-.531 1.569 1.569 0 0 0-.485-.375A1.344 1.344 0 0 0 2.5-3.75c-.137 0-.281.031-.438.094a1.759 1.759 0 0 0-.421.219 1.45 1.45 0 0 0-.344.328.925.925 0 0 0-.156.39v1.281c.082.2.195.375.343.532.145.156.313.281.5.375.188.094.38.14.579.14Zm0 0"/></symbol><symbol overflow="visible" id="F"><path style="stroke:none" d="M.953-4.156h.485l-.172.812c.207-.258.457-.469.75-.625.3-.164.601-.25.906-.25.3 0 .562.086.781.25.227.156.399.371.516.64.113.263.172.544.172.845 0 .336-.063.652-.188.953a2.729 2.729 0 0 1-.5.828c-.21.242-.453.433-.734.578a1.972 1.972 0 0 1-.875.203c-.336 0-.61-.086-.828-.266a1.57 1.57 0 0 1-.47-.671L.25 1.703h-.531ZM2.047-.391c.238 0 .46-.054.672-.171.219-.125.406-.282.562-.47a2.32 2.32 0 0 0 .39-.655 1.79 1.79 0 0 0 .157-.704c0-.25-.047-.472-.14-.671a1.22 1.22 0 0 0-.407-.5.97.97 0 0 0-.594-.188c-.124 0-.265.031-.421.094a2.18 2.18 0 0 0-.438.219 1.873 1.873 0 0 0-.39.328 1.2 1.2 0 0 0-.25.39L.921-1.438c.031.2.098.375.203.532.102.156.234.281.39.375.157.094.333.14.532.14Zm0 0"/></symbol><symbol overflow="visible" id="G"><path style="stroke:none" d="M2.422-.375V0H.406v-.375h.844v-2.563a.643.643 0 0 1-.172.172 2.12 2.12 0 0 1-.25.157 2.438 2.438 0 0 1-.297.109.816.816 0 0 1-.25.047v-.39a.615.615 0 0 0 .281-.079 1.854 1.854 0 0 0 .563-.375.693.693 0 0 0 .125-.125h.422v3.047Zm0 0"/></symbol><symbol overflow="visible" id="I"><path style="stroke:none" d="M.266 0c0-.133.007-.27.03-.406.02-.133.063-.27.126-.406a1.48 1.48 0 0 1 .312-.391c.133-.133.305-.254.516-.36.125-.062.242-.117.36-.171.124-.063.238-.13.343-.204a.928.928 0 0 0 .266-.234.504.504 0 0 0 .016-.61.526.526 0 0 0-.266-.234.918.918 0 0 0-.438-.093.961.961 0 0 0-.343.062c-.106.031-.2.074-.282.125a5.4 5.4 0 0 0-.203.156 1.635 1.635 0 0 0-.125.141l-.265-.281c.019-.02.066-.063.14-.125.07-.063.16-.125.266-.188.113-.07.242-.133.39-.187a1.51 1.51 0 0 1 .5-.078c.239 0 .442.046.61.14.176.086.312.2.406.344a.864.864 0 0 1-.234 1.188 3.973 3.973 0 0 1-.657.375 3.798 3.798 0 0 0-.484.28 1.253 1.253 0 0 0-.297.266 1.148 1.148 0 0 0-.265.516h2.14V0Zm0 0"/></symbol><symbol overflow="visible" id="K"><path style="stroke:none" d="M1.578-5.797V0H.891v-7.078h.578l4.64 5.906v-5.89h.704V0h-.657Zm0 0"/></symbol><symbol overflow="visible" id="L"><path style="stroke:none" d="M2.953.094c-.367 0-.71-.07-1.031-.203a2.51 2.51 0 0 1-.813-.594A2.774 2.774 0 0 1 .39-2.578c0-.375.063-.723.188-1.047.125-.32.3-.61.531-.86.239-.25.516-.44.829-.577a2.428 2.428 0 0 1 1.03-.22c.376 0 .72.075 1.032.22.313.136.582.328.813.578.226.25.406.539.53.859a2.732 2.732 0 0 1 0 2.063 2.726 2.726 0 0 1-.53.859c-.231.25-.5.45-.813.594a2.661 2.661 0 0 1-1.047.203ZM1.078-2.578c0 .387.082.742.25 1.062.164.313.39.563.672.75.29.18.61.266.953.266.352 0 .672-.094.953-.281.29-.188.52-.442.688-.766a2.15 2.15 0 0 0 .265-1.047c0-.383-.09-.734-.265-1.047a2.007 2.007 0 0 0-.688-.765 1.685 1.685 0 0 0-.953-.282 1.61 1.61 0 0 0-.937.297 2.141 2.141 0 0 0-.688.766c-.168.313-.25.664-.25 1.047Zm0 0"/></symbol><symbol overflow="visible" id="M"><path style="stroke:none" d="M5.11 0h-.673v-2.906c0-.602-.093-1.047-.28-1.328-.18-.29-.462-.438-.845-.438a1.7 1.7 0 0 0-.78.203 2.103 2.103 0 0 0-.688.532 2.218 2.218 0 0 0-.422.75V0H.75v-5.188h.61v1.172c.144-.25.327-.468.546-.656.227-.195.485-.348.766-.453a2.66 2.66 0 0 1 .89-.156c.29 0 .536.054.735.156.195.105.351.258.469.453.125.2.21.438.265.719.051.273.078.574.078.906Zm0 0"/></symbol><symbol overflow="visible" id="N"><path style="stroke:none" d="M.64-2.406v-.625h2.922v.625Zm0 0"/></symbol><symbol overflow="visible" id="O"><path style="stroke:none" d="M2.453.094c-.43 0-.824-.07-1.187-.203A2.381 2.381 0 0 1 .312-.75l.282-.469c.289.274.582.469.875.594.3.117.617.172.953.172.406 0 .734-.078.984-.234a.792.792 0 0 0 .375-.704c0-.207-.062-.363-.187-.468-.117-.114-.29-.207-.516-.282-.23-.07-.508-.144-.828-.218a8.005 8.005 0 0 1-.906-.313 1.4 1.4 0 0 1-.547-.422c-.117-.164-.172-.39-.172-.672 0-.332.082-.609.25-.828.164-.226.395-.398.688-.515a2.79 2.79 0 0 1 1-.172c.394 0 .742.062 1.046.187.313.125.563.305.75.532l-.328.453a1.717 1.717 0 0 0-.656-.47 2.352 2.352 0 0 0-.86-.155c-.21 0-.413.03-.609.093a1.023 1.023 0 0 0-.468.282c-.125.125-.188.296-.188.515 0 .188.047.336.14.438.094.105.235.195.423.265.187.063.414.137.687.22.395.105.738.214 1.031.327.29.106.516.246.672.422.164.18.25.418.25.719 0 .492-.187.871-.562 1.14-.368.274-.844.407-1.438.407Zm0 0"/></symbol><symbol overflow="visible" id="P"><path style="stroke:none" d="M8.469 0h-.672v-2.906c0-.602-.102-1.047-.297-1.328-.188-.29-.469-.438-.844-.438-.398 0-.75.14-1.062.422a2.37 2.37 0 0 0-.657 1.078V0h-.671v-2.906c0-.602-.094-1.047-.282-1.328-.187-.29-.476-.438-.859-.438-.387 0-.734.14-1.047.422a2.16 2.16 0 0 0-.656 1.063V0H.75v-5.188h.61v1.172c.218-.406.5-.718.843-.937a2.078 2.078 0 0 1 1.14-.328c.438 0 .786.125 1.048.375.27.242.437.558.5.953.238-.438.523-.766.859-.985.332-.226.71-.343 1.14-.343.29 0 .536.054.735.156.207.105.367.258.484.453.125.2.211.438.266.719.063.273.094.574.094.906Zm0 0"/></symbol><symbol overflow="visible" id="Q"><path style="stroke:none" d="m3.234-.25-.25.11a1.808 1.808 0 0 1-.406.14 2.07 2.07 0 0 1-.515.063c-.188 0-.372-.04-.547-.11a.906.906 0 0 1-.407-.328 1.074 1.074 0 0 1-.14-.563v-3.718H.25v-.532h.719v-1.765h.672v1.766h1.203v.53H1.64v3.532c.02.188.086.328.203.422.125.094.265.14.422.14.187 0 .359-.03.515-.093.156-.063.25-.11.281-.14Zm0 0"/></symbol><symbol overflow="visible" id="R"><path style="stroke:none" d="M5.11 0h-.673v-2.906c0-.582-.105-1.02-.312-1.313-.21-.3-.508-.453-.89-.453-.25 0-.5.07-.75.203-.25.125-.47.305-.657.532a2.003 2.003 0 0 0-.406.75V0H.75v-7.281h.672v3.265c.207-.382.492-.691.86-.921a2.254 2.254 0 0 1 1.187-.344c.3 0 .554.054.765.156.207.105.375.262.5.469.133.199.227.433.282.703.062.273.093.574.093.906Zm0 0"/></symbol><symbol overflow="visible" id="S"><path style="stroke:none" d="M3 .094c-.375 0-.727-.07-1.047-.203a2.708 2.708 0 0 1-.828-.594 3.03 3.03 0 0 1-.547-.875A2.811 2.811 0 0 1 .391-2.61c0-.489.109-.938.328-1.344a2.55 2.55 0 0 1 .906-.969c.395-.238.848-.36 1.36-.36.488 0 .913.118 1.28.345.376.218.657.515.844.89l-.656.203a1.59 1.59 0 0 0-.625-.61 1.678 1.678 0 0 0-.875-.234c-.344 0-.664.094-.953.282-.281.18-.508.422-.672.734-.168.313-.25.668-.25 1.063 0 .386.082.742.25 1.062.176.324.406.578.688.766.289.187.609.281.953.281.226 0 .445-.035.656-.11a1.87 1.87 0 0 0 .547-.328.993.993 0 0 0 .312-.453l.672.204a1.69 1.69 0 0 1-.468.671c-.22.188-.477.34-.766.454-.281.101-.59.156-.922.156Zm0 0"/></symbol><symbol overflow="visible" id="T"><path style="stroke:none" d="M3.344-4.594c-.461.012-.86.137-1.203.375-.336.242-.575.57-.72.985V0H.75v-5.188h.64v1.235a2.34 2.34 0 0 1 .704-.875c.3-.227.617-.36.953-.39h.297Zm0 0"/></symbol><symbol overflow="visible" id="U"><path style="stroke:none" d="M.781-7.281h.672v6.11c0 .26.047.433.14.515a.54.54 0 0 0 .345.11c.113 0 .226-.009.343-.032.125-.031.235-.063.328-.094l.11.547A2.018 2.018 0 0 1 2.25 0c-.18.04-.336.063-.469.063-.304 0-.547-.086-.734-.266C.867-.391.78-.641.78-.953Zm0 0"/></symbol><symbol overflow="visible" id="V"><path style="stroke:none" d="M5.031-5.75a1.889 1.889 0 0 0-.36-.297 2.159 2.159 0 0 0-.452-.234 2.735 2.735 0 0 0-1.125-.235c-.625 0-1.086.121-1.375.36-.282.242-.422.562-.422.968 0 .274.066.493.203.657.133.156.348.289.64.39.29.094.665.196 1.126.297.5.117.93.246 1.296.39.364.15.645.345.844.595.207.242.313.574.313 1 0 .336-.07.62-.203.859a1.616 1.616 0 0 1-.532.594 2.413 2.413 0 0 1-.796.36 5.03 5.03 0 0 1-2.078 0 4.614 4.614 0 0 1-.954-.345 3.992 3.992 0 0 1-.843-.578l.359-.562c.125.136.273.261.453.375a3.6 3.6 0 0 0 1.281.531c.25.043.508.063.781.063.563 0 1-.098 1.313-.297.313-.207.469-.516.469-.922 0-.29-.078-.524-.235-.703-.156-.176-.398-.32-.718-.438a11.332 11.332 0 0 0-1.172-.328 8.68 8.68 0 0 1-1.25-.375c-.336-.145-.59-.332-.766-.563-.168-.226-.25-.53-.25-.906 0-.437.102-.804.313-1.11.218-.3.515-.53.89-.687a3.45 3.45 0 0 1 1.313-.234c.312 0 .601.031.875.094.27.062.52.156.75.281.226.117.441.262.64.438Zm0 0"/></symbol><symbol overflow="visible" id="W"><path style="stroke:none" d="M1 0v-4.656H.281v-.532H1v-.14c0-.426.055-.79.172-1.094.125-.312.3-.547.531-.703.227-.164.5-.25.813-.25.207 0 .406.031.593.094.196.054.368.133.516.234l-.219.484a.802.802 0 0 0-.344-.156 1.488 1.488 0 0 0-.406-.062.85.85 0 0 0-.734.375c-.168.242-.25.59-.25 1.047v.171h1.437v.532H1.672V0Zm0 0"/></symbol><symbol overflow="visible" id="X"><path style="stroke:none" d="M.75 0v-5.188h.672V0Zm0-6.281v-1h.672v1Zm0 0"/></symbol><symbol overflow="visible" id="Y"><path style="stroke:none" d="M3.406.094c-.437 0-.828-.11-1.172-.328a2.536 2.536 0 0 1-.812-.844v3.203H.75v-7.313h.61v1c.206-.32.484-.582.827-.78a2.101 2.101 0 0 1 1.11-.313c.351 0 .676.078.969.234.3.149.562.344.78.594.227.25.4.539.516.86.125.323.188.655.188 1 0 .491-.102.937-.297 1.343a2.58 2.58 0 0 1-.828.984c-.344.243-.75.36-1.219.36ZM3.203-.5c.29 0 .547-.055.766-.172.226-.113.426-.27.594-.469.164-.207.289-.43.375-.671a2.48 2.48 0 0 0 .125-.782 2.25 2.25 0 0 0-.141-.797 1.822 1.822 0 0 0-.422-.656 2.102 2.102 0 0 0-.625-.469 1.678 1.678 0 0 0-.75-.171c-.168 0-.344.039-.531.109a1.963 1.963 0 0 0-.969.703 1.184 1.184 0 0 0-.203.469v1.61A2.233 2.233 0 0 0 2.469-.671c.238.116.484.171.734.171Zm0 0"/></symbol><symbol overflow="visible" id="Z"><path style="stroke:none" d="M2.828.063c-.355 0-.683-.07-.984-.22a2.524 2.524 0 0 1-.766-.577 2.588 2.588 0 0 1-.5-.86 2.84 2.84 0 0 1-.172-.984c0-.363.055-.707.172-1.031.113-.32.274-.61.485-.86a2.22 2.22 0 0 1 .765-.593c.29-.145.617-.22.984-.22.446 0 .833.118 1.157.345.332.218.613.496.844.828v-1.079h.593V.016c0 .476-.117.879-.343 1.203-.231.332-.54.582-.922.75a3.21 3.21 0 0 1-1.266.25c-.594 0-1.074-.11-1.438-.328a2.715 2.715 0 0 1-.906-.844L.953.719c.207.32.485.562.828.719.344.164.707.25 1.094.25.332 0 .64-.063.922-.188.289-.125.52-.313.687-.563.164-.242.25-.546.25-.921V-1a2.23 2.23 0 0 1-.812.781 2.253 2.253 0 0 1-1.094.281ZM3.016-.5c.207 0 .406-.035.593-.11.188-.07.36-.171.516-.296.164-.125.3-.258.406-.406a1.35 1.35 0 0 0 .203-.47V-3.39a2.24 2.24 0 0 0-.437-.671 1.874 1.874 0 0 0-.625-.454 1.712 1.712 0 0 0-.735-.171 1.59 1.59 0 0 0-.78.187 1.777 1.777 0 0 0-.579.5c-.156.2-.277.422-.36.672-.085.25-.124.5-.124.75 0 .281.047.547.14.797.102.25.239.476.407.672.175.199.382.351.625.453.238.105.488.156.75.156Zm0 0"/></symbol><symbol overflow="visible" id="aa"><path style="stroke:none" d="M.438-3.453c0-.676.132-1.332.406-1.969.27-.644.597-1.289.984-1.937l.531.234c-.136.21-.28.46-.437.75-.149.293-.29.605-.422.938a8.68 8.68 0 0 0-.313 1.03 4.66 4.66 0 0 0-.109.985c0 .524.11 1.09.328 1.703.227.606.54 1.211.938 1.813l-.516.281a16.455 16.455 0 0 1-.734-1.266 6.76 6.76 0 0 1-.485-1.28 4.925 4.925 0 0 1-.171-1.282Zm0 0"/></symbol><symbol overflow="visible" id="ae"><path style="stroke:none" d="M2.234-3.453c0 .418-.058.844-.171 1.281-.118.43-.282.856-.5 1.281-.211.418-.45.84-.72 1.266l-.5-.281a10.04 10.04 0 0 0 .923-1.813c.226-.613.343-1.18.343-1.703 0-.312-.043-.64-.125-.984a7.91 7.91 0 0 0-.328-1.032 10.404 10.404 0 0 0-.406-.937 6.964 6.964 0 0 0-.438-.75l.532-.234c.383.648.71 1.293.984 1.937.27.637.406 1.293.406 1.969Zm0 0"/></symbol><symbol overflow="visible" id="ab"><path style="stroke:none" d="M4.75-2.36c0-1.562-.922-2.046-1.656-2.046-1.375 0-2.688 1.422-2.688 2.828C.406-.641 1 .109 2.031.109c.625 0 1.344-.234 2.094-.843.125.53.453.843.906.843.532 0 .844-.546.844-.703 0-.078-.063-.11-.125-.11-.063 0-.094.032-.125.11-.188.485-.547.485-.563.485-.312 0-.312-.782-.312-1.016 0-.203 0-.234.11-.344C5.796-2.656 6-3.812 6-3.812c0-.032-.016-.11-.125-.11-.094 0-.094.031-.14.219-.188.625-.516 1.375-.985 1.969ZM4.094-.983c-.89.765-1.657.875-2.047.875-.594 0-.906-.454-.906-1.094 0-.484.265-1.563.578-2.063.468-.734 1.015-.921 1.36-.921.983 0 .983 1.312.983 2.078 0 .375 0 .953.032 1.125Zm0 0"/></symbol><clipPath id="a"><path d="M0 0h298.09v235.129H0Zm0 0"/></clipPath><clipPath id="x"><path d="M21.188.195h264.507v153.598H21.188Zm0 0"/></clipPath><clipPath id="y"><path d="M21.188 1h264.507v126H21.188Zm0 0"/></clipPath><clipPath id="z"><path d="M21.188.195h264.507V143H21.188Zm0 0"/></clipPath><clipPath id="A"><path d="M21.188.195h264.507V151H21.188Zm0 0"/></clipPath><clipPath id="B"><path d="M21.188.195h264.507V153H21.188Zm0 0"/></clipPath><clipPath id="C"><path d="M271 126h27.09v30H271Zm0 0"/></clipPath><clipPath id="J"><path d="M15 192h277v43.129H15Zm0 0"/></clipPath></defs><g clip-path="url(#a)"><path style="stroke:none;fill-rule:nonzero;fill:#fff;fill-opacity:1" d="M0 235.129V-.004h298.094V235.13Zm0 0"/></g><path style="fill:none;stroke-width:.3985;stroke-linecap:butt;stroke-linejoin:miter;stroke:#bfbfbf;stroke-opacity:1;stroke-miterlimit:10" d="M14.709-12.801v153.598M44.084-12.801v153.598M73.47-12.801v153.598m58.793-153.598v153.598m58.762-153.598v153.598m29.402-153.598v153.598m29.387-153.598v153.598M.002 0h264.507M.002 25.597h264.507M.002 51.2h264.507M.002 76.797h264.507M.002 102.394h264.507M.002 127.996h264.507" transform="matrix(1 0 0 -1 21.186 140.992)"/><path style="fill:none;stroke-width:.19925;stroke-linecap:butt;stroke-linejoin:miter;stroke:gray;stroke-opacity:1;stroke-miterlimit:10" d="M14.709-12.801v4.254m29.375-4.254v4.254m29.386-4.254v4.254m58.793-4.254v4.254m58.762-4.254v4.254m29.402-4.254v4.254m29.387-4.254v4.254M14.709 140.797v-4.254m29.375 4.254v-4.254m29.386 4.254v-4.254m58.793 4.254v-4.254m58.762 4.254v-4.254m29.402 4.254v-4.254m29.387 4.254v-4.254M.002 0h4.25M.002 25.597h4.25M.002 51.2h4.25M.002 76.797h4.25m-4.25 25.597h4.25m-4.25 25.602h4.25M264.509 0h-4.254m4.254 25.597h-4.254M264.51 51.2h-4.254m4.254 25.598h-4.254m4.254 25.597h-4.254m4.254 25.602h-4.254" transform="matrix(1 0 0 -1 21.186 140.992)"/><path style="fill:none;stroke-width:.3985;stroke-linecap:butt;stroke-linejoin:miter;stroke:#000;stroke-opacity:1;stroke-miterlimit:10" d="M.002-12.801v153.598h264.507V-12.801Zm0 0" transform="matrix(1 0 0 -1 21.186 140.992)"/><use xlink:href="#b" x="13.111" y="167.049" style="fill:#000;fill-opacity:1"/><g style="fill:#000;fill-opacity:1"><use xlink:href="#c" x="20.633" y="163.13"/><use xlink:href="#d" x="27.958" y="163.13"/><use xlink:href="#e" x="29.695" y="163.13"/></g><g style="fill:#000;fill-opacity:1"><use xlink:href="#f" x="37.164" y="163.13"/><use xlink:href="#g" x="41.811" y="163.13"/><use xlink:href="#h" x="46.553" y="163.13"/><use xlink:href="#i" x="49.35" y="163.13"/><use xlink:href="#j" x="56.675" y="163.13"/></g><use xlink:href="#b" x="69.09" y="167.049" style="fill:#000;fill-opacity:1"/><g style="fill:#000;fill-opacity:1"><use xlink:href="#k" x="76.612" y="163.13"/><use xlink:href="#g" x="81.569" y="163.13"/></g><g style="fill:#000;fill-opacity:1"><use xlink:href="#l" x="86.168" y="163.13"/><use xlink:href="#f" x="92.648" y="163.13"/></g><g style="fill:#000;fill-opacity:1"><use xlink:href="#f" x="98.705" y="163.13"/><use xlink:href="#g" x="103.352" y="163.13"/><use xlink:href="#h" x="108.094" y="163.13"/><use xlink:href="#i" x="110.891" y="163.13"/><use xlink:href="#j" x="118.216" y="163.13"/></g><use xlink:href="#b" x="129.112" y="165.455" style="fill:#000;fill-opacity:1"/><g style="fill:#000;fill-opacity:1"><use xlink:href="#f" x="136.634" y="161.536"/><use xlink:href="#g" x="141.281" y="161.536"/><use xlink:href="#i" x="146.023" y="161.536"/><use xlink:href="#j" x="153.347" y="161.536"/></g><g style="fill:#000;fill-opacity:1"><use xlink:href="#f" x="156.264" y="161.536"/><use xlink:href="#g" x="160.911" y="161.536"/><use xlink:href="#h" x="165.653" y="161.536"/><use xlink:href="#i" x="168.451" y="161.536"/><use xlink:href="#j" x="175.775" y="161.536"/></g><use xlink:href="#b" x="192.157" y="165.455" style="fill:#000;fill-opacity:1"/><g style="fill:#000;fill-opacity:1"><use xlink:href="#m" x="199.679" y="161.536"/><use xlink:href="#n" x="204.413" y="161.536"/></g><g style="fill:#000;fill-opacity:1"><use xlink:href="#f" x="210.742" y="161.536"/><use xlink:href="#g" x="215.388" y="161.536"/><use xlink:href="#h" x="220.13" y="161.536"/><use xlink:href="#i" x="222.928" y="161.536"/><use xlink:href="#j" x="230.252" y="161.536"/></g><use xlink:href="#b" x="247.225" y="165.455" style="fill:#000;fill-opacity:1"/><g style="fill:#000;fill-opacity:1"><use xlink:href="#c" x="254.747" y="161.536"/><use xlink:href="#o" x="262.072" y="161.536"/><use xlink:href="#p" x="266.415" y="161.536"/></g><g style="fill:#000;fill-opacity:1"><use xlink:href="#f" x="273.255" y="161.536"/><use xlink:href="#g" x="277.902" y="161.536"/><use xlink:href="#h" x="282.644" y="161.536"/><use xlink:href="#i" x="285.441" y="161.536"/><use xlink:href="#j" x="292.766" y="161.536"/></g><use xlink:href="#q" x="11.57" y="143.916" style="fill:#000;fill-opacity:1"/><g style="fill:#000;fill-opacity:1"><use xlink:href="#q" x="4.137" y="117.964"/><use xlink:href="#r" x="10.234" y="117.964"/><use xlink:href="#s" x="12.476" y="117.964"/></g><g style="fill:#000;fill-opacity:1"><use xlink:href="#q" x="3.888" y="92.136"/><use xlink:href="#r" x="9.985" y="92.136"/><use xlink:href="#t" x="12.227" y="92.136"/></g><g style="fill:#000;fill-opacity:1"><use xlink:href="#q" x="3.321" y="67.354"/><use xlink:href="#r" x="9.418" y="67.354"/><use xlink:href="#u" x="11.66" y="67.354"/></g><g style="fill:#000;fill-opacity:1"><use xlink:href="#q" x="3.42" y="41.731"/><use xlink:href="#r" x="9.517" y="41.731"/><use xlink:href="#v" x="11.759" y="41.731"/></g><use xlink:href="#w" x="13.403" y="15.843" style="fill:#000;fill-opacity:1"/><g clip-path="url(#x)"><path style="fill:none;stroke-width:.85039;stroke-linecap:butt;stroke-linejoin:miter;stroke:red;stroke-opacity:1;stroke-miterlimit:10" d="M.002 127.996h191.023L249.814 0h14.695" transform="matrix(1 0 0 -1 21.186 140.992)"/></g><g clip-path="url(#y)"><path style="fill:none;stroke-width:.85039;stroke-linecap:butt;stroke-linejoin:miter;stroke:#ffffb2;stroke-opacity:1;stroke-miterlimit:10" d="m.002 127.91 7.109-.023 3.558-.016 7.11-.031 3.558-.02 3.555-.023 3.555-.02 3.558-.031 3.555-.031 3.555-.035 3.558-.043 3.555-.043 3.555-.051 3.558-.059 3.555-.062 3.555-.075 3.558-.082 3.555-.093 3.555-.106 3.558-.117 3.555-.133 3.555-.148 3.554-.168 3.559-.192 3.555-.21 3.554-.239 3.559-.27 3.555-.3 3.554-.336 3.559-.379 3.555-.418 3.554-.477 3.559-.527 3.555-.586 3.554-.652 3.559-.73 3.554-.813 3.555-.895 3.559-.996 3.554-1.097 3.555-1.207 3.559-1.32 3.554-1.458 3.555-1.586 3.559-1.718 3.554-1.868 3.555-2.015 3.559-2.168 3.554-2.32 3.555-2.477 3.559-2.637 3.554-2.765 3.555-2.918 3.559-3.047 3.554-3.172 3.555-3.285 3.559-3.38 3.554-3.452 3.555-3.512 3.559-3.566 3.554-3.563 3.555-3.578 3.559-3.547 3.554-3.52 3.555-3.449 3.558-3.37 3.555-3.282 3.555-3.164 3.558-3.05 3.555-2.919 3.555-2.773 3.558-2.63 3.555-2.468" transform="matrix(1 0 0 -1 21.186 140.992)"/></g><g clip-path="url(#z)"><path style="fill:none;stroke-width:.85039;stroke-linecap:butt;stroke-linejoin:miter;stroke:#fecc5c;stroke-opacity:1;stroke-miterlimit:10" d="M.002 127.996h14.222l3.555-.004h39.117l3.555-.004h7.113l3.555-.004 3.558-.004h3.555l3.555-.004 3.554-.007 3.559-.004 3.555-.008 3.554-.012 3.559-.012 7.11-.039 3.558-.027 3.555-.035 3.554-.047 3.559-.055 3.555-.074 3.554-.09 3.559-.117 3.554-.148 3.555-.184 3.559-.238 3.554-.297 3.555-.38 3.559-.468 3.554-.594 3.555-.734 3.559-.918 3.554-1.125 3.555-1.375 3.559-1.676 3.554-2 3.555-2.367 3.559-2.781 3.554-3.2 3.555-3.632 3.559-4.067 3.554-4.48 3.555-4.855 3.559-5.184 3.554-5.461 3.555-5.68 3.559-5.808 3.554-5.883 3.555-5.887 3.559-5.808 3.554-5.676 3.555-5.45 3.558-5.175 3.555-4.844 3.555-4.469 3.558-4.058 3.555-3.625 3.555-3.188 3.558-2.762 3.555-2.359" transform="matrix(1 0 0 -1 21.186 140.992)"/></g><g clip-path="url(#A)"><path style="fill:none;stroke-width:.85039;stroke-linecap:butt;stroke-linejoin:miter;stroke:#fd8d3c;stroke-opacity:1;stroke-miterlimit:10" d="M.002 127.996h103.12l3.555-.004h21.336l3.559-.004 7.11-.008 3.558-.008 3.554-.011 3.555-.024 3.559-.03 3.554-.056 3.555-.09 3.559-.144 3.554-.23 3.555-.368 3.559-.574 3.554-.898 3.555-1.356 3.559-1.976 3.554-2.766 3.555-3.66 3.559-4.59 3.554-5.426 3.555-6.129 3.559-6.648 3.554-7.012 3.555-7.25 3.559-7.39 3.554-7.457 3.555-7.45 3.559-7.386 3.554-7.247 3.555-7.007 3.558-6.637 3.555-6.105 3.555-5.407 3.558-4.562 3.555-3.637 3.555-2.742 3.558-1.957 3.555-1.34" transform="matrix(1 0 0 -1 21.186 140.992)"/></g><g clip-path="url(#B)"><path style="fill:none;stroke-width:.85039;stroke-linecap:butt;stroke-linejoin:miter;stroke:#f03b20;stroke-opacity:1;stroke-miterlimit:10" d="M.002 127.996h135.125l3.554-.004h10.668l3.559-.004 3.554-.004 3.555-.008 3.559-.02 3.554-.042 3.555-.086 3.559-.176 3.554-.351 3.555-.692 3.559-1.308 3.554-2.274 3.555-3.566 3.559-4.93 3.554-6.059 3.555-6.82 3.559-7.265 3.554-7.5 3.555-7.622 3.559-7.68 7.109-15.398 3.559-7.675 3.554-7.622 3.555-7.496 3.558-7.257 3.555-6.801 3.555-6.031 3.558-4.891 3.555-3.527 3.555-2.247 3.558-1.277 3.555-.683" transform="matrix(1 0 0 -1 21.186 140.992)"/><path style="fill:none;stroke-width:.85039;stroke-linecap:butt;stroke-linejoin:miter;stroke:#bd0026;stroke-opacity:1;stroke-miterlimit:10" d="M.002 127.996h156.46l3.555-.004 3.559-.004 3.554-.004 3.555-.02 3.559-.054 3.554-.133 3.555-.34 3.559-.828 3.554-1.851 3.555-3.47 3.559-5.241 3.554-6.547 3.555-7.235 3.559-7.539 3.554-7.664 3.555-7.71 3.559-7.731 3.554-7.738 3.555-7.735 3.559-7.73 3.554-7.711 3.555-7.66 3.558-7.535 3.555-7.223 3.555-6.512 3.558-5.2 3.555-3.417 3.555-1.809 3.558-.812 3.555-.332" transform="matrix(1 0 0 -1 21.186 140.992)"/></g><path style="fill-rule:nonzero;fill:red;fill-opacity:1;stroke-width:.85039;stroke-linecap:butt;stroke-linejoin:miter;stroke:red;stroke-opacity:1;stroke-miterlimit:10" d="M1.994 127.996a1.993 1.993 0 1 1-3.983-.002 1.993 1.993 0 0 1 3.983.002Zm191.023 0a1.996 1.996 0 0 1-1.992 1.992 1.996 1.996 0 0 1-1.996-1.992 1.994 1.994 0 0 1 3.988 0ZM251.806 0a1.99 1.99 0 0 1-1.992 1.992A1.99 1.99 0 0 1 247.822 0a1.99 1.99 0 0 1 1.992-1.992A1.99 1.99 0 0 1 251.806 0Zm0 0" transform="matrix(1 0 0 -1 21.186 140.992)"/><path style="stroke:none;fill-rule:nonzero;fill:red;fill-opacity:1" d="M287.688 140.992a1.993 1.993 0 1 0-3.987.002 1.993 1.993 0 0 0 3.986-.002Zm0 0"/><g clip-path="url(#C)"><path style="fill:none;stroke-width:.85039;stroke-linecap:butt;stroke-linejoin:miter;stroke:red;stroke-opacity:1;stroke-miterlimit:10" d="M266.502 0a1.993 1.993 0 1 1-3.987-.002 1.993 1.993 0 0 1 3.987.002Zm0 0" transform="matrix(1 0 0 -1 21.186 140.992)"/></g><g style="fill:#000;fill-opacity:1"><use xlink:href="#D" x="130.761" y="181.66"/><use xlink:href="#E" x="133.062" y="181.66"/></g><use xlink:href="#F" x="139.827" y="183.154" style="fill:#000;fill-opacity:1"/><use xlink:href="#G" x="144.553" y="184.15" style="fill:#000;fill-opacity:1"/><use xlink:href="#H" x="150.322" y="181.66" style="fill:#000;fill-opacity:1"/><use xlink:href="#E" x="158.212" y="181.66" style="fill:#000;fill-opacity:1"/><use xlink:href="#F" x="164.979" y="183.154" style="fill:#000;fill-opacity:1"/><use xlink:href="#I" x="169.705" y="184.15" style="fill:#000;fill-opacity:1"/><use xlink:href="#D" x="173.816" y="181.66" style="fill:#000;fill-opacity:1"/><path style="stroke:none;fill-rule:nonzero;fill:#fff;fill-opacity:1" d="M15.219 234.93H291.66v-42.54H15.22Zm0 0"/><g clip-path="url(#J)"><path style="fill:none;stroke-width:.3985;stroke-linecap:butt;stroke-linejoin:miter;stroke:#000;stroke-opacity:1;stroke-miterlimit:10" d="M-5.967-93.938h276.441v42.54H-5.967Zm0 0" transform="matrix(1 0 0 -1 21.186 140.992)"/></g><path style="fill:none;stroke-width:.85039;stroke-linecap:butt;stroke-linejoin:miter;stroke:red;stroke-opacity:1;stroke-miterlimit:10" d="M.002 0H17.01" transform="matrix(1 0 0 -1 18.635 200.808)"/><path style="fill-rule:nonzero;fill:red;fill-opacity:1;stroke-width:.85039;stroke-linecap:butt;stroke-linejoin:miter;stroke:red;stroke-opacity:1;stroke-miterlimit:10" d="M10.498 0a1.993 1.993 0 1 1-3.986-.002 1.993 1.993 0 0 1 3.986.001Zm0 0" transform="matrix(1 0 0 -1 18.635 200.808)"/><use xlink:href="#K" x="38.061" y="203.697" style="fill:#000;fill-opacity:1"/><g style="fill:#000;fill-opacity:1"><use xlink:href="#L" x="45.672" y="203.697"/><use xlink:href="#M" x="51.6" y="203.697"/><use xlink:href="#N" x="57.408" y="203.697"/><use xlink:href="#O" x="61.613" y="203.697"/><use xlink:href="#P" x="66.425" y="203.697"/><use xlink:href="#L" x="75.58" y="203.697"/><use xlink:href="#L" x="81.508" y="203.697"/></g><g style="fill:#000;fill-opacity:1"><use xlink:href="#Q" x="87.356" y="203.697"/><use xlink:href="#R" x="90.694" y="203.697"/></g><use xlink:href="#S" x="99.819" y="203.697" style="fill:#000;fill-opacity:1"/><g style="fill:#000;fill-opacity:1"><use xlink:href="#L" x="105.249" y="203.697"/><use xlink:href="#M" x="111.177" y="203.697"/></g><g style="fill:#000;fill-opacity:1"><use xlink:href="#Q" x="116.935" y="203.697"/><use xlink:href="#T" x="120.273" y="203.697"/></g><g style="fill:#000;fill-opacity:1"><use xlink:href="#L" x="123.61" y="203.697"/><use xlink:href="#U" x="129.538" y="203.697"/></g><path style="fill:none;stroke-width:.85039;stroke-linecap:butt;stroke-linejoin:miter;stroke:#ffffb2;stroke-opacity:1;stroke-miterlimit:10" d="M0 0h17.007" transform="matrix(1 0 0 -1 153.864 200.808)"/><g style="fill:#000;fill-opacity:1"><use xlink:href="#V" x="173.29" y="203.747"/><use xlink:href="#L" x="179.337" y="203.747"/></g><g style="fill:#000;fill-opacity:1"><use xlink:href="#W" x="185.175" y="203.747"/><use xlink:href="#Q" x="188.463" y="203.747"/></g><g style="fill:#000;fill-opacity:1"><use xlink:href="#S" x="195.118" y="203.747"/><use xlink:href="#U" x="200.588" y="203.747"/><use xlink:href="#X" x="203.297" y="203.747"/><use xlink:href="#Y" x="205.469" y="203.747"/><use xlink:href="#Y" x="211.616" y="203.747"/><use xlink:href="#X" x="217.763" y="203.747"/><use xlink:href="#M" x="219.935" y="203.747"/><use xlink:href="#Z" x="225.743" y="203.747"/></g><use xlink:href="#aa" x="235.218" y="203.747" style="fill:#000;fill-opacity:1"/><use xlink:href="#ab" x="237.903" y="203.747" style="fill:#000;fill-opacity:1"/><use xlink:href="#ac" x="247.081" y="203.747" style="fill:#000;fill-opacity:1"/><g style="fill:#000;fill-opacity:1"><use xlink:href="#ad" x="254.204" y="203.747"/><use xlink:href="#q" x="259.634" y="203.747"/></g><use xlink:href="#ae" x="265.739" y="203.747" style="fill:#000;fill-opacity:1"/><path style="fill:none;stroke-width:.85039;stroke-linecap:butt;stroke-linejoin:miter;stroke:#fecc5c;stroke-opacity:1;stroke-miterlimit:10" d="M.002 0H17.01" transform="matrix(1 0 0 -1 18.635 213.66)"/><g style="fill:#000;fill-opacity:1"><use xlink:href="#V" x="38.061" y="216.599"/><use xlink:href="#L" x="44.108" y="216.599"/></g><g style="fill:#000;fill-opacity:1"><use xlink:href="#W" x="49.946" y="216.599"/><use xlink:href="#Q" x="53.234" y="216.599"/></g><g style="fill:#000;fill-opacity:1"><use xlink:href="#S" x="59.889" y="216.599"/><use xlink:href="#U" x="65.359" y="216.599"/><use xlink:href="#X" x="68.068" y="216.599"/><use xlink:href="#Y" x="70.24" y="216.599"/><use xlink:href="#Y" x="76.387" y="216.599"/><use xlink:href="#X" x="82.534" y="216.599"/><use xlink:href="#M" x="84.706" y="216.599"/><use xlink:href="#Z" x="90.514" y="216.599"/></g><use xlink:href="#aa" x="99.989" y="216.599" style="fill:#000;fill-opacity:1"/><use xlink:href="#ab" x="102.674" y="216.599" style="fill:#000;fill-opacity:1"/><use xlink:href="#ac" x="111.851" y="216.599" style="fill:#000;fill-opacity:1"/><g style="fill:#000;fill-opacity:1"><use xlink:href="#w" x="118.974" y="216.599"/><use xlink:href="#q" x="123.238" y="216.599"/><use xlink:href="#q" x="129.335" y="216.599"/></g><use xlink:href="#ae" x="135.441" y="216.599" style="fill:#000;fill-opacity:1"/><path style="fill:none;stroke-width:.85039;stroke-linecap:butt;stroke-linejoin:miter;stroke:#fd8d3c;stroke-opacity:1;stroke-miterlimit:10" d="M0 0h17.007" transform="matrix(1 0 0 -1 153.864 213.66)"/><g style="fill:#000;fill-opacity:1"><use xlink:href="#V" x="173.29" y="216.599"/><use xlink:href="#L" x="179.337" y="216.599"/></g><g style="fill:#000;fill-opacity:1"><use xlink:href="#W" x="185.175" y="216.599"/><use xlink:href="#Q" x="188.463" y="216.599"/></g><g style="fill:#000;fill-opacity:1"><use xlink:href="#S" x="195.118" y="216.599"/><use xlink:href="#U" x="200.588" y="216.599"/><use xlink:href="#X" x="203.297" y="216.599"/><use xlink:href="#Y" x="205.469" y="216.599"/><use xlink:href="#Y" x="211.616" y="216.599"/><use xlink:href="#X" x="217.763" y="216.599"/><use xlink:href="#M" x="219.935" y="216.599"/><use xlink:href="#Z" x="225.743" y="216.599"/></g><use xlink:href="#aa" x="235.218" y="216.599" style="fill:#000;fill-opacity:1"/><use xlink:href="#ab" x="237.903" y="216.599" style="fill:#000;fill-opacity:1"/><use xlink:href="#ac" x="247.081" y="216.599" style="fill:#000;fill-opacity:1"/><g style="fill:#000;fill-opacity:1"><use xlink:href="#s" x="254.204" y="216.599"/><use xlink:href="#q" x="259.395" y="216.599"/><use xlink:href="#q" x="265.492" y="216.599"/></g><use xlink:href="#ae" x="271.597" y="216.599" style="fill:#000;fill-opacity:1"/><path style="fill:none;stroke-width:.85039;stroke-linecap:butt;stroke-linejoin:miter;stroke:#f03b20;stroke-opacity:1;stroke-miterlimit:10" d="M.002 0H17.01" transform="matrix(1 0 0 -1 18.635 226.511)"/><g style="fill:#000;fill-opacity:1"><use xlink:href="#V" x="38.061" y="229.45"/><use xlink:href="#L" x="44.108" y="229.45"/></g><g style="fill:#000;fill-opacity:1"><use xlink:href="#W" x="49.946" y="229.45"/><use xlink:href="#Q" x="53.234" y="229.45"/></g><g style="fill:#000;fill-opacity:1"><use xlink:href="#S" x="59.889" y="229.45"/><use xlink:href="#U" x="65.359" y="229.45"/><use xlink:href="#X" x="68.068" y="229.45"/><use xlink:href="#Y" x="70.24" y="229.45"/><use xlink:href="#Y" x="76.387" y="229.45"/><use xlink:href="#X" x="82.534" y="229.45"/><use xlink:href="#M" x="84.706" y="229.45"/><use xlink:href="#Z" x="90.514" y="229.45"/></g><use xlink:href="#aa" x="99.989" y="229.45" style="fill:#000;fill-opacity:1"/><use xlink:href="#ab" x="102.674" y="229.45" style="fill:#000;fill-opacity:1"/><use xlink:href="#ac" x="111.851" y="229.45" style="fill:#000;fill-opacity:1"/><g style="fill:#000;fill-opacity:1"><use xlink:href="#af" x="118.974" y="229.45"/><use xlink:href="#q" x="124.294" y="229.45"/><use xlink:href="#q" x="130.391" y="229.45"/></g><use xlink:href="#ae" x="136.497" y="229.45" style="fill:#000;fill-opacity:1"/><path style="fill:none;stroke-width:.85039;stroke-linecap:butt;stroke-linejoin:miter;stroke:#bd0026;stroke-opacity:1;stroke-miterlimit:10" d="M0 0h17.007" transform="matrix(1 0 0 -1 153.864 226.511)"/><g style="fill:#000;fill-opacity:1"><use xlink:href="#V" x="173.29" y="229.45"/><use xlink:href="#L" x="179.337" y="229.45"/></g><g style="fill:#000;fill-opacity:1"><use xlink:href="#W" x="185.175" y="229.45"/><use xlink:href="#Q" x="188.463" y="229.45"/></g><g style="fill:#000;fill-opacity:1"><use xlink:href="#S" x="195.118" y="229.45"/><use xlink:href="#U" x="200.588" y="229.45"/><use xlink:href="#X" x="203.297" y="229.45"/><use xlink:href="#Y" x="205.469" y="229.45"/><use xlink:href="#Y" x="211.616" y="229.45"/><use xlink:href="#X" x="217.763" y="229.45"/><use xlink:href="#M" x="219.935" y="229.45"/><use xlink:href="#Z" x="225.743" y="229.45"/></g><use xlink:href="#aa" x="235.218" y="229.45" style="fill:#000;fill-opacity:1"/><use xlink:href="#ab" x="237.903" y="229.45" style="fill:#000;fill-opacity:1"/><use xlink:href="#ac" x="247.081" y="229.45" style="fill:#000;fill-opacity:1"/><g style="fill:#000;fill-opacity:1"><use xlink:href="#t" x="254.204" y="229.45"/><use xlink:href="#q" x="259.644" y="229.45"/><use xlink:href="#q" x="265.741" y="229.45"/></g><use xlink:href="#ae" x="271.846" y="229.45" style="fill:#000;fill-opacity:1"/></svg>
