<svg xmlns="http://www.w3.org/2000/svg" xmlns:xlink="http://www.w3.org/1999/xlink" width="168.003" height="169.175" viewBox="0 0 126.002 126.881"><defs><symbol overflow="visible" id="a"><path style="stroke:none" d="M.797 0v-6.375h2.64c.27 0 .52.059.75.172.227.117.426.273.594.469.176.199.313.418.407.656.093.23.14.465.14.703 0 .355-.078.688-.234 1-.149.305-.36.555-.64.75a1.665 1.665 0 0 1-.97.281H1.422V0Zm.625-2.906h2.047c.25 0 .46-.067.64-.203a1.36 1.36 0 0 0 .438-.532c.101-.226.156-.472.156-.734 0-.258-.062-.5-.187-.719a1.361 1.361 0 0 0-.47-.515 1.087 1.087 0 0 0-.64-.204H1.422Zm0 0"/></symbol><symbol overflow="visible" id="c"><path style="stroke:none" d="M3.36.047A2.71 2.71 0 0 1 2.14-.22a2.99 2.99 0 0 1-.937-.734A3.554 3.554 0 0 1 .593-2a3.263 3.263 0 0 1-.218-1.188c0-.425.07-.832.219-1.218.156-.383.367-.727.64-1.032.27-.3.586-.535.954-.703a2.687 2.687 0 0 1 1.187-.265c.445 0 .852.093 1.219.281.363.18.676.422.937.734.258.313.457.664.594 1.047.145.375.219.766.219 1.172 0 .43-.074.836-.219 1.219A3.3 3.3 0 0 1 5.5-.922c-.273.305-.59.543-.953.719-.367.168-.762.25-1.188.25Zm0-.563c.363 0 .69-.078.984-.234.289-.156.539-.36.75-.61.207-.25.363-.53.468-.843.102-.32.157-.649.157-.985 0-.343-.059-.671-.172-.984a2.897 2.897 0 0 0-.484-.86 2.397 2.397 0 0 0-.75-.593 2.063 2.063 0 0 0-.954-.219c-.355 0-.68.078-.968.235A2.264 2.264 0 0 0 1.64-5c-.2.25-.356.54-.47.86a2.7 2.7 0 0 0-.17.951c0 .356.055.696.172 1.016.113.313.273.594.484.844.207.25.457.45.75.594.29.148.61.218.953.218Zm.578-1.437h.624L6.204 0h-.61Zm0 0"/></symbol><symbol overflow="visible" id="d"><path style="stroke:none" d="M4.516-5.172a1.223 1.223 0 0 0-.313-.266 2.259 2.259 0 0 0-.89-.36 2.329 2.329 0 0 0-.532-.061c-.554 0-.96.109-1.219.328-.261.21-.39.496-.39.86 0 .25.055.448.172.593.125.148.316.266.578.36.27.085.61.171 1.016.265.445.094.832.21 1.156.344.332.125.586.304.765.53.188.22.282.524.282.907 0 .293-.059.547-.172.766a1.55 1.55 0 0 1-.485.547 2.2 2.2 0 0 1-.718.312c-.282.063-.59.094-.922.094-.336 0-.653-.031-.953-.094a3.759 3.759 0 0 1-.86-.312 3.569 3.569 0 0 1-.75-.516l.313-.5c.113.117.25.227.406.328a3.668 3.668 0 0 0 1.156.485c.227.042.461.062.703.062.508 0 .907-.094 1.188-.281.281-.188.422-.461.422-.828 0-.258-.074-.47-.219-.625-.137-.157-.352-.286-.64-.391a8.962 8.962 0 0 0-1.047-.297 6.972 6.972 0 0 1-1.126-.344c-.304-.125-.53-.289-.687-.5-.156-.207-.234-.476-.234-.812 0-.395.097-.727.296-1 .196-.27.461-.473.797-.61a3.037 3.037 0 0 1 1.188-.218c.27 0 .523.027.765.078.25.055.477.137.688.25.207.105.398.242.578.406Zm0 0"/></symbol><symbol overflow="visible" id="e"><path style="stroke:none" d="M2.266-.172a1.48 1.48 0 0 0-.188.078A2.353 2.353 0 0 1 1.797 0a1.272 1.272 0 0 1-.36.047.907.907 0 0 1-.375-.078.65.65 0 0 1-.39-.625V-3.25h-.5v-.375h.5v-1.234h.484v1.234h.828v.375h-.828v2.469c0 .125.04.226.125.297a.545.545 0 0 0 .313.093.91.91 0 0 0 .343-.062.876.876 0 0 0 .204-.11Zm0 0"/></symbol><symbol overflow="visible" id="f"><path style="stroke:none" d="M3.578 0h-.484v-2.031c0-.406-.074-.711-.219-.922-.137-.207-.34-.313-.61-.313-.18 0-.355.047-.53.141-.169.094-.32.219-.454.375-.136.156-.23.336-.281.531V0H.516v-5.094H1v2.282c.145-.27.344-.485.594-.641.258-.156.535-.235.828-.235.207 0 .383.04.531.11a.932.932 0 0 1 .36.328c.093.137.16.297.203.484.039.188.062.403.062.641Zm0 0"/></symbol><symbol overflow="visible" id="g"><path style="stroke:none" d="M.453 0v-.688H.86V0Zm0 0"/></symbol><clipPath id="b"><path d="M56 17h2v109.883h-2Zm0 0"/></clipPath><clipPath id="h"><path d="M1 0h65v126.883H1Zm0 0"/></clipPath></defs><path style="stroke:none;fill-rule:nonzero;fill:#fff;fill-opacity:1" d="M0 126.883V0h126.004v126.883Zm0 0"/><path style="fill:none;stroke-width:.3985;stroke-linecap:butt;stroke-linejoin:miter;stroke:#000;stroke-opacity:1;stroke-miterlimit:10" d="M45.354 0C45.354 25.049 25.05 45.357 0 45.357c-25.047 0-45.356-20.308-45.356-45.355 0-25.051 20.309-45.356 45.356-45.356 25.05 0 45.355 20.305 45.355 45.356ZM-56.693 0H52.112" transform="matrix(1 0 0 -1 56.892 69.989)"/><path style="fill-rule:nonzero;fill:#000;fill-opacity:1;stroke-width:.3985;stroke-linecap:butt;stroke-linejoin:miter;stroke:#000;stroke-opacity:1;stroke-miterlimit:10" d="M3.763 0C3.298.115 1.27.75 0 1.447v-2.89C1.271-.755 3.298-.114 3.763 0Zm0 0" transform="matrix(1 0 0 -1 109.003 69.989)"/><use xlink:href="#a" x="117.105" y="79.875" style="fill:#000;fill-opacity:1"/><g clip-path="url(#b)"><path style="fill:none;stroke-width:.3985;stroke-linecap:butt;stroke-linejoin:miter;stroke:#000;stroke-opacity:1;stroke-miterlimit:10" d="M-.001-56.695V52.11" transform="matrix(1 0 0 -1 56.892 69.989)"/></g><path style="fill-rule:nonzero;fill:#000;fill-opacity:1;stroke-width:.3985;stroke-linecap:butt;stroke-linejoin:miter;stroke:#000;stroke-opacity:1;stroke-miterlimit:10" d="M3.761.001C3.301.111 1.27.751 0 1.447v-2.895C1.27-.753 3.3-.112 3.761.002Zm0 0" transform="matrix(0 -1 -1 0 56.892 17.878)"/><use xlink:href="#c" x="46.657" y="9.731" style="fill:#000;fill-opacity:1"/><use xlink:href="#d" x="14.767" y="37.31" style="fill:#000;fill-opacity:1"/><g style="fill:#000;fill-opacity:1"><use xlink:href="#e" x="20.209" y="33.362"/><use xlink:href="#f" x="22.545" y="33.362"/><use xlink:href="#g" x="26.611" y="33.362"/></g><path style="fill:none;stroke-width:.379;stroke-linecap:butt;stroke-linejoin:miter;stroke:#000;stroke-opacity:1;stroke-miterlimit:10" d="M-.001 0h13.664" transform="matrix(1 0 0 -1 14.767 38.688)"/><path style="fill:none;stroke-width:.3985;stroke-linecap:butt;stroke-linejoin:miter;stroke:#000;stroke-opacity:1;stroke-miterlimit:10" d="M-.001-45.355h-24.946v90.711H0" transform="matrix(1 0 0 -1 56.892 69.989)"/><g clip-path="url(#h)"><path style="fill:none;stroke-width:2.12599;stroke-linecap:butt;stroke-linejoin:miter;stroke:#00f;stroke-opacity:1;stroke-miterlimit:10" d="M-21.86-39.738a46.393 46.393 0 0 0-3.083 1.86l-.004 75.754a45.826 45.826 0 0 0 3.086 1.86" transform="matrix(1 0 0 -1 56.892 69.989)"/></g><path style="fill-rule:nonzero;fill:#00f;fill-opacity:1;stroke-width:2.12599;stroke-linecap:butt;stroke-linejoin:miter;stroke:#00f;stroke-opacity:1;stroke-miterlimit:10" d="M-23.529 27.212a1.418 1.418 0 1 1-2.836 0c0-.782.637-1.414 1.418-1.414.785 0 1.418.632 1.418 1.414Zm0 0" transform="matrix(1 0 0 -1 56.892 69.989)"/><path style="fill:none;stroke-width:.3985;stroke-linecap:butt;stroke-linejoin:miter;stroke:#000;stroke-opacity:1;stroke-dasharray:2.98883,2.98883;stroke-miterlimit:10" d="m-.001 0-24.946 45.356M-.001 0l-24.946-45.355" transform="matrix(1 0 0 -1 56.892 69.989)"/></svg>
