<svg xmlns="http://www.w3.org/2000/svg" xmlns:xlink="http://www.w3.org/1999/xlink" width="168.003" height="169.175" viewBox="0 0 126.002 126.881"><defs><path id="a" d="M.797 0v-6.375h2.64q.405.001.75.172.341.175.594.469.265.299.407.656.14.346.14.703 0 .532-.234 1-.222.458-.64.75a1.67 1.67 0 0 1-.97.281H1.422V0Zm.625-2.906h2.047c.25 0 .46-.067.64-.203a1.36 1.36 0 0 0 .438-.532c.101-.226.156-.472.156-.734q0-.389-.187-.719a1.36 1.36 0 0 0-.47-.515 1.1 1.1 0 0 0-.64-.203H1.422Zm0 0"/><path id="c" d="M3.36.047A2.7 2.7 0 0 1 2.14-.22a3 3 0 0 1-.937-.734A3.6 3.6 0 0 1 .593-2a3.3 3.3 0 0 1-.218-1.187c0-.426.07-.833.219-1.22q.232-.573.64-1.03.403-.452.954-.704a2.7 2.7 0 0 1 1.187-.265q.668 0 1.219.281c.363.18.676.422.937.734q.388.471.594 1.047.218.563.219 1.172 0 .645-.219 1.219A3.3 3.3 0 0 1 5.5-.922q-.409.456-.953.719-.55.251-1.188.25m0-.563q.544 0 .984-.234.433-.234.75-.61.31-.374.468-.843.155-.48.157-.985-.001-.515-.172-.984a2.9 2.9 0 0 0-.484-.86q-.317-.373-.75-.593a2.06 2.06 0 0 0-.954-.219q-.534 0-.968.235A2.3 2.3 0 0 0 1.64-5c-.2.25-.356.54-.47.86a2.7 2.7 0 0 0-.17.951q-.002.535.172 1.016.169.47.484.844.31.376.75.594c.29.148.61.218.953.218m.578-1.437h.624L6.204 0h-.61Zm0 0"/><path id="d" d="M4.516-5.172a1.2 1.2 0 0 0-.313-.266 2.3 2.3 0 0 0-.89-.36 2.3 2.3 0 0 0-.532-.061q-.83 0-1.219.328-.39.314-.39.86-.002.375.172.593.186.22.578.36.406.126 1.016.265.669.142 1.156.344.497.19.765.53.282.331.282.907-.001.438-.172.766a1.55 1.55 0 0 1-.485.547 2.2 2.2 0 0 1-.718.312q-.423.094-.922.094-.503 0-.953-.094a3.8 3.8 0 0 1-.86-.312 3.6 3.6 0 0 1-.75-.516l.313-.5q.17.176.406.328a3.7 3.7 0 0 0 1.156.485q.34.063.703.062c.508 0 .907-.094 1.188-.281s.422-.461.422-.828c0-.258-.074-.47-.219-.625q-.207-.235-.64-.391a9 9 0 0 0-1.047-.297 7 7 0 0 1-1.126-.344c-.304-.125-.53-.289-.687-.5q-.234-.31-.234-.812-.002-.591.297-1 .292-.405.796-.61a3 3 0 0 1 1.188-.218q.404 0 .765.078.373.082.688.25.31.159.578.406Zm0 0"/><path id="e" d="M2.266-.172q-.065.02-.188.078A2 2 0 0 1 1.797 0a1.3 1.3 0 0 1-.36.047.9.9 0 0 1-.375-.078.65.65 0 0 1-.39-.625V-3.25h-.5v-.375h.5v-1.234h.484v1.234h.828v.375h-.828v2.469q-.001.189.125.297a.55.55 0 0 0 .313.093q.187 0 .343-.062a1 1 0 0 0 .204-.11Zm0 0"/><path id="f" d="M3.578 0h-.484v-2.031q0-.607-.219-.922-.205-.312-.61-.313-.269 0-.53.141-.253.141-.454.375c-.136.156-.23.336-.281.531V0H.516v-5.094H1v2.282q.218-.406.594-.641.388-.235.828-.235c.207 0 .383.04.531.11a.93.93 0 0 1 .36.328q.139.204.203.484.06.283.062.641Zm0 0"/><path id="g" d="M.453 0v-.687H.86V0Zm0 0"/><clipPath id="b"><path d="M56 17h2v109.883h-2Zm0 0"/></clipPath></defs><path fill="#fff" d="M0 126.883V0h126.004v126.883Zm0 0"/><path fill="none" stroke="#000" stroke-miterlimit="10" stroke-width=".399" d="M102.246 69.988c0-25.047-20.305-45.355-45.355-45.355-25.047 0-45.356 20.308-45.356 45.355 0 25.051 20.309 45.356 45.356 45.356 25.05 0 45.355-20.305 45.355-45.356ZM.2 69.988h108.804"/><path stroke="#000" stroke-miterlimit="10" stroke-width=".399" d="M112.766 69.988c-.465-.113-2.493-.75-3.762-1.445v2.89c1.27-.69 3.297-1.331 3.762-1.445Zm0 0"/><use xlink:href="#a" x="117.105" y="79.875"/><g clip-path="url(#b)"><path fill="none" stroke="#000" stroke-miterlimit="10" stroke-width=".399" d="M56.89 126.684V17.879"/></g><path stroke="#000" stroke-miterlimit="10" stroke-width=".399" d="M56.89 14.117c-.109.461-.75 2.492-1.445 3.762h2.895c-.695-1.27-1.336-3.3-1.45-3.762Zm0 0"/><use xlink:href="#c" x="46.657" y="9.731"/><use xlink:href="#d" x="14.767" y="37.31"/><use xlink:href="#e" x="20.209" y="33.362"/><use xlink:href="#f" x="22.545" y="33.362"/><use xlink:href="#g" x="26.611" y="33.362"/><path fill="none" stroke="#000" stroke-miterlimit="10" stroke-width=".379" d="M14.766 38.688H28.43"/><path fill="none" stroke="#000" stroke-miterlimit="10" stroke-width=".399" d="M56.89 115.344H31.946V24.633h24.946"/><path fill="none" stroke="#00f" stroke-miterlimit="10" stroke-width="2.126" d="M56.89 42.777H31.946"/><path fill="#00f" stroke="#00f" stroke-miterlimit="10" stroke-width="2.126" d="M33.363 42.777a1.418 1.418 0 1 0-2.836 0c0 .782.637 1.414 1.418 1.414.785 0 1.418-.632 1.418-1.414Zm0 0"/></svg>
