<svg xmlns="http://www.w3.org/2000/svg" xmlns:xlink="http://www.w3.org/1999/xlink" width="666.1" height="364.091" viewBox="0 0 499.575 273.068"><defs><path id="b" d="M.438 0Q.437-.341.5-.687a2.6 2.6 0 0 1 .219-.672q.17-.34.5-.657.34-.311.875-.593.279-.154.594-.297.31-.14.578-.313.28-.186.437-.406a.83.83 0 0 0 .172-.531.94.94 0 0 0-.14-.485 1 1 0 0 0-.438-.39 1.6 1.6 0 0 0-.735-.157q-.314 0-.578.094-.27.093-.468.235a2.3 2.3 0 0 0-.328.265q-.14.127-.235.219l-.422-.469q.045-.06.219-.218a2.7 2.7 0 0 1 .438-.313q.28-.168.656-.297a2.6 2.6 0 0 1 .828-.125q.61 0 1.031.219.437.221.672.578.234.362.234.766c0 .28-.062.523-.187.718a1.9 1.9 0 0 1-.453.5q-.27.223-.563.375l-.531.266a5.5 5.5 0 0 0-.781.438q-.316.22-.516.437a2.2 2.2 0 0 0-.297.438 2.5 2.5 0 0 0-.14.437h3.578V0Zm0 0"/><path id="c" d="M5.547-2.922q0 .878-.328 1.563-.317.69-.89 1.078-.566.375-1.282.375-.72 0-1.281-.375A2.65 2.65 0 0 1 .875-1.36Q.547-2.044.547-2.922q0-.873.328-1.547.329-.685.89-1.078.562-.405 1.282-.406c.476 0 .906.137 1.281.406q.575.393.89 1.078.33.675.329 1.547m-.688 0q0-.703-.234-1.234Q4.404-4.702 4-5a1.53 1.53 0 0 0-.953-.312q-.533 0-.953.312-.41.299-.64.844-.235.531-.235 1.234 0 .704.234 1.25.232.534.64.844.422.299.954.297.544 0 .953-.297.404-.31.625-.844.234-.546.234-1.25m0 0"/><path id="d" d="M2.61 1.484q-.75 0-1.36-.375A2.34 2.34 0 0 1 .344.125l.453-.328q.28.481.766.781c.32.195.675.297 1.062.297q.498 0 .89-.219a1.73 1.73 0 0 0 .626-.61q.234-.386.234-.89c0-.32-.078-.61-.234-.86a1.5 1.5 0 0 0-.61-.577 1.66 1.66 0 0 0-.844-.219q-.468.002-.89.203a1.75 1.75 0 0 0-.672.594H.5l.781-3.984h3.422v.625H1.797l-.484 2.546c.164-.187.375-.332.625-.437q.387-.154.828-.156.639.002 1.156.297A2.18 2.18 0 0 1 5.078-.86q-.002.703-.344 1.218a2.3 2.3 0 0 1-.89.829 2.6 2.6 0 0 1-1.235.296m0 0"/><path id="e" d="M4.047-.625V0H.672v-.625h1.406v-4.266a1.1 1.1 0 0 1-.265.266 2.9 2.9 0 0 1-.922.453 1.3 1.3 0 0 1-.438.078v-.656c.156 0 .32-.04.5-.125a3.4 3.4 0 0 0 .516-.297q.246-.171.422-.312.17-.155.187-.203h.703v5.062Zm0 0"/><path id="f" d="M3.422-2.36q.45.083.765.329.31.251.485.625.187.377.187.86c0 .398-.101.741-.296 1.046a1.85 1.85 0 0 1-.797.719 2.8 2.8 0 0 1-1.203.25q-.767-.001-1.329-.313A2.04 2.04 0 0 1 .375.313L.844-.11q.218.419.64.687.435.265 1.079.266.732 0 1.171-.36c.29-.242.438-.586.438-1.046q0-.669-.453-1.079-.456-.405-1.297-.406h-.25v-.578h.265c.508 0 .899-.117 1.172-.36q.422-.356.422-.906 0-.418-.187-.687a1.2 1.2 0 0 0-.516-.406 1.9 1.9 0 0 0-.75-.141q-.564.001-1 .266a1.6 1.6 0 0 0-.656.687l-.438-.406q.17-.357.485-.61.329-.264.75-.406.434-.14.922-.14.622.001 1.093.218c.313.149.555.356.735.625q.264.393.265.938-.002.394-.156.734-.159.345-.453.578a1.5 1.5 0 0 1-.703.282m0 0"/><path id="g" d="M3.547 1.266V-.516H.234v-.593l3.532-4.578h.468v4.562h.875v.61h-.875v1.78ZM.953-1.125h2.672v-3.5Zm0 0"/><path id="h" d="M3.766.047q-.832 0-1.407-.297a2.4 2.4 0 0 1-.921-.797 3.5 3.5 0 0 1-.5-1.14A5.5 5.5 0 0 1 .78-3.516v-3.562h.688v3.562c0 .375.035.743.11 1.094q.122.516.374.938c.176.28.41.507.703.672q.435.234 1.11.234.668.001 1.109-.25.45-.263.703-.672a3.2 3.2 0 0 0 .36-.937q.107-.527.109-1.079v-3.562h.703v3.562c0 .48-.055.938-.156 1.375q-.159.645-.516 1.125a2.66 2.66 0 0 1-.937.782c-.375.187-.836.28-1.375.28m0 0"/><path id="n" d="M5.578-2.328A2.34 2.34 0 0 0 4.36-4.406a2.44 2.44 0 0 0-1.218-.313q-.457.002-.844.157a2.05 2.05 0 0 0-.688.453 2 2 0 0 0-.437.672c0-.657.082-1.211.25-1.672q.247-.685.687-1.047.436-.375 1.016-.375c.375 0 .71.105 1.016.312q.45.299.672.813l.437-.407a2.26 2.26 0 0 0-.86-.953 2.27 2.27 0 0 0-1.265-.359q-.768 0-1.36.469c-.398.312-.702.781-.921 1.406q-.328.938-.328 2.39 0 .927.328 1.594.328.658.906 1.016.574.345 1.313.344.702 0 1.265-.328a2.44 2.44 0 0 0 .906-.875q.342-.563.344-1.22M3.078-.5c-.336 0-.64-.082-.922-.25a2 2 0 0 1-.687-.656 1.76 1.76 0 0 1-.25-.922q-.001-.514.25-.922.248-.42.672-.672a1.87 1.87 0 0 1 .937-.25c.332 0 .64.086.922.25q.42.25.672.672.248.423.25.922c0 .336-.086.64-.25.922q-.25.41-.672.656-.423.251-.922.25m0 0"/><path id="o" d="M.64-2.406v-.625h4.391v.625Zm0 0"/><path id="p" d="M5.031-5.75a2 2 0 0 0-.36-.297 2.2 2.2 0 0 0-.452-.234 2.7 2.7 0 0 0-1.125-.235c-.625 0-1.086.121-1.375.36q-.423.361-.422.968-.001.411.203.657c.133.156.348.289.64.39.29.094.665.196 1.126.297q.748.175 1.297.39c.363.15.644.345.843.595q.312.362.313 1-.002.502-.203.859a1.6 1.6 0 0 1-.532.594 2.4 2.4 0 0 1-.796.36q-.47.107-1.032.109a5 5 0 0 1-1.047-.11 4.6 4.6 0 0 1-.953-.344 4 4 0 0 1-.843-.578l.359-.562c.125.136.273.261.453.375a3.6 3.6 0 0 0 1.281.531q.373.064.781.063.844 0 1.313-.297.47-.312.469-.922 0-.435-.235-.703-.236-.262-.718-.438a11 11 0 0 0-1.172-.328 9 9 0 0 1-1.25-.375q-.503-.217-.766-.562-.251-.343-.25-.907c0-.437.102-.804.313-1.11q.327-.45.89-.687a3.5 3.5 0 0 1 1.313-.234q.466 0 .875.094.405.093.75.281.34.175.64.438Zm0 0"/><path id="s" d="M.89 0v-7.078h2.923q.468 0 .843.187c.258.125.485.297.672.516q.28.33.438.719c.101.261.156.527.156.797q-.001.579-.266 1.093a2.24 2.24 0 0 1-.703.844q-.457.315-1.078.313H1.578V0Zm.688-3.234h2.266c.281 0 .523-.07.734-.22a1.46 1.46 0 0 0 .469-.593q.17-.374.172-.812-.002-.434-.203-.797a1.4 1.4 0 0 0-.516-.578 1.3 1.3 0 0 0-.719-.22H1.578Zm0 0"/><path id="w" d="M.64 0v-.984h.594V0Zm0 0"/><path id="i" d="M.563-1.719v-2.437h.53v2.343q0 .721.235 1.079.247.344.734.343.311 0 .61-.14.31-.14.531-.39.232-.265.36-.61v-2.625h.546v3.5q0 .112.047.172.048.045.14.046V0c-.062.008-.116.016-.155.016h-.094a.43.43 0 0 1-.281-.125.4.4 0 0 1-.125-.266l-.016-.562q-.268.468-.734.75c-.313.18-.653.265-1.016.265-.43 0-.758-.148-.984-.453Q.562-.826.563-1.719m0 0"/><path id="j" d="M2.719.078Q2.203.08 1.78-.187a2.1 2.1 0 0 1-.64-.672v2.562H.594v-5.86h.484v.813q.246-.389.656-.625a1.75 1.75 0 0 1 1.688-.062 1.9 1.9 0 0 1 .61.468q.264.3.406.688c.101.262.156.527.156.797q0 .598-.235 1.078a2 2 0 0 1-.656.781Q3.281.08 2.72.078M2.563-.39q.34 0 .609-.14.281-.141.469-.375c.132-.164.234-.348.297-.547a1.9 1.9 0 0 0 .109-.625q-.001-.328-.125-.625a1.45 1.45 0 0 0-.328-.531 1.6 1.6 0 0 0-.485-.375A1.34 1.34 0 0 0 2.5-3.75q-.204 0-.437.094-.224.08-.422.219a1.5 1.5 0 0 0-.344.328.9.9 0 0 0-.156.39v1.281q.122.298.343.532.219.234.5.375t.579.14m0 0"/><path id="k" d="M6.766 0h-.532v-2.312q0-.733-.234-1.079-.236-.341-.687-.343-.47.002-.844.343a1.8 1.8 0 0 0-.516.86V0h-.547v-2.312q0-.733-.219-1.079c-.148-.226-.374-.343-.687-.343-.305 0-.578.109-.828.328a1.77 1.77 0 0 0-.531.86V0H.594v-4.156h.5v.937q.263-.481.672-.734.403-.265.906-.266c.351 0 .633.102.844.297q.31.283.39.766c.188-.352.414-.617.688-.797q.404-.265.906-.266.358.001.594.125a.96.96 0 0 1 .39.36q.154.234.22.562a4.3 4.3 0 0 1 .062.735Zm0 0"/><path id="l" d="M.266-1.187c0-.258.07-.485.218-.672q.217-.295.61-.453c.27-.102.578-.157.922-.157.195 0 .406.024.625.063q.326.047.593.14v-.359c0-.344-.105-.617-.312-.828q-.315-.312-.86-.313-.344.001-.671.125-.316.127-.672.36l-.203-.39q.405-.266.797-.407.386-.14.796-.14.763.002 1.204.437.451.44.453 1.203v1.922q0 .112.046.172.047.045.157.046V0c-.063.008-.117.016-.156.016a.2.2 0 0 1-.094 0q-.206.001-.313-.125a.4.4 0 0 1-.094-.25l-.015-.313a1.86 1.86 0 0 1-.735.563 2.25 2.25 0 0 1-.89.187c-.274 0-.516-.058-.734-.172a1.4 1.4 0 0 1-.5-.453 1.2 1.2 0 0 1-.172-.64m2.78.312q.079-.107.126-.203.06-.107.062-.203v-.594a3 3 0 0 0-.578-.156 3 3 0 0 0-.578-.063q-.581 0-.937.235a.69.69 0 0 0-.36.625q-.001.236.11.437.124.204.359.344.232.127.547.125.389.002.719-.156c.226-.102.406-.235.53-.391m0 0"/><path id="m" d="m.719-4.156 1.219 1.625.078.125.062-.125 1.203-1.625h.61L2.313-2.063 3.89 0h-.61L2.078-1.625l-.062-.11-.079.11L.734 0H.125l1.563-2.062L.125-4.156Zm0 0"/><path id="r" d="M2.734-1.875c.239.031.442.117.61.25q.264.206.406.5.14.3.14.688c0 .324-.078.601-.234.843A1.6 1.6 0 0 1 3 .97q-.409.201-.953.203A2.2 2.2 0 0 1 .984.922 1.6 1.6 0 0 1 .297.25l.375-.344q.188.341.516.547c.226.145.515.219.859.219.394 0 .707-.102.937-.297.227-.187.344-.46.344-.828q0-.529-.36-.86-.362-.327-1.03-.328h-.204v-.453h.22q.608 0 .937-.281a.95.95 0 0 0 .328-.734.94.94 0 0 0-.156-.547.9.9 0 0 0-.407-.328 1.5 1.5 0 0 0-.594-.11q-.456.002-.796.203a1.4 1.4 0 0 0-.532.563l-.343-.344q.139-.264.39-.469.248-.216.594-.328.341-.124.734-.125.499 0 .875.188.374.173.579.5.217.315.218.75-.001.313-.125.594a1.26 1.26 0 0 1-.36.453 1.3 1.3 0 0 1-.562.234m0 0"/><path id="t" d="M2.594-.203a2 2 0 0 1-.203.094A2 2 0 0 1 2.063 0a1.7 1.7 0 0 1-.407.047q-.236 0-.437-.078A.8.8 0 0 1 .89-.297.77.77 0 0 1 .766-.75v-2.969H.203v-.437h.563v-1.39h.547v1.39h.953v.437h-.953v2.813c.007.156.062.273.156.344a.57.57 0 0 0 .343.109c.157 0 .29-.024.407-.078q.188-.075.234-.11Zm0 0"/><path id="u" d="M4.094 0h-.547v-2.312c0-.47-.086-.82-.25-1.063a.81.81 0 0 0-.703-.36c-.211 0-.414.055-.61.157a1.9 1.9 0 0 0-.53.422c-.15.18-.25.383-.313.61V0H.594v-5.812h.547v2.593q.247-.45.687-.719a1.7 1.7 0 0 1 .938-.28q.357 0 .609.124.265.129.406.375.153.234.235.563.077.314.078.719Zm0 0"/><path id="v" d="M.516 0v-.781h.468V0Zm0 0"/><path id="q" d="M1.906-2.5a.524.524 0 1 0-1.047.016.524.524 0 0 0 1.047-.016m0 0"/><path id="x" d="M.86-7.078 3.39-.875l2.516-6.203h.735L3.703 0h-.625L.125-7.078Zm0 0"/><path id="y" d="M2.953.094Q2.403.092 1.922-.11a2.5 2.5 0 0 1-.813-.594A2.77 2.77 0 0 1 .39-2.578q0-.562.188-1.047c.125-.32.3-.61.531-.86q.359-.373.829-.577a2.4 2.4 0 0 1 1.03-.22q.564.001 1.032.22.468.204.813.578c.226.25.406.539.53.859a2.73 2.73 0 0 1 0 2.063 2.7 2.7 0 0 1-.53.859Q4.468-.326 4-.11a2.7 2.7 0 0 1-1.047.203M1.078-2.578q-.001.581.25 1.062.248.47.672.75.437.268.953.266.53 0 .953-.281.436-.281.688-.766a2.15 2.15 0 0 0 .265-1.047q-.001-.576-.265-1.047a2 2 0 0 0-.688-.765 1.7 1.7 0 0 0-.953-.282 1.6 1.6 0 0 0-.937.297 2.14 2.14 0 0 0-.688.766q-.251.471-.25 1.047m0 0"/><path id="z" d="M.781-7.281h.672v6.11q0 .391.14.515.141.11.345.11.168.001.343-.032.188-.047.328-.094l.11.547A2 2 0 0 1 2.25 0q-.27.062-.469.063c-.304 0-.547-.086-.734-.266Q.779-.485.78-.953Zm0 0"/><path id="A" d="m3.234-.25-.25.11a1.8 1.8 0 0 1-.406.14q-.234.062-.515.063c-.188 0-.372-.04-.547-.11a.9.9 0 0 1-.407-.328 1.1 1.1 0 0 1-.14-.562v-3.72H.25v-.53h.719v-1.766h.672v1.766h1.203v.53H1.64v3.532q.029.282.203.422.187.14.422.14.28 0 .515-.093.234-.095.281-.14Zm0 0"/><path id="B" d="M.328-1.5q0-.482.281-.828a1.75 1.75 0 0 1 .766-.547q.497-.201 1.14-.203.387.002.797.062.404.066.72.172v-.437c0-.438-.134-.785-.391-1.047q-.376-.388-1.063-.39a2.3 2.3 0 0 0-.828.155 4.3 4.3 0 0 0-.844.454l-.265-.47a4.4 4.4 0 0 1 1-.53 3.1 3.1 0 0 1 1-.172c.632 0 1.14.183 1.515.547q.563.549.563 1.515v2.407c0 .093.015.164.047.203q.06.065.203.078V0c-.074.008-.14.016-.203.016a.24.24 0 0 1-.11 0 .48.48 0 0 1-.516-.469l-.015-.39q-.344.456-.906.702a3 3 0 0 1-1.14.235 2 2 0 0 1-.907-.203 1.7 1.7 0 0 1-.625-.578A1.56 1.56 0 0 1 .328-1.5m3.485.406q.106-.139.156-.265a.7.7 0 0 0 .062-.235v-.765a4 4 0 0 0-.703-.188 3.5 3.5 0 0 0-.719-.078c-.492 0-.886.102-1.187.297q-.439.282-.438.781 0 .3.141.547.155.252.438.422.293.157.687.156c.32 0 .625-.062.906-.187q.422-.187.656-.485m0 0"/><path id="C" d="M2.828.063c-.355 0-.683-.07-.984-.22a2.5 2.5 0 0 1-.766-.577 2.6 2.6 0 0 1-.5-.86 2.8 2.8 0 0 1-.172-.984Q.404-3.123.578-3.61c.113-.32.274-.61.485-.86q.326-.388.765-.593.434-.219.984-.22c.446 0 .833.118 1.157.345q.498.329.844.828v-1.078h.593V.016q-.002.716-.343 1.203-.348.498-.922.75a3.2 3.2 0 0 1-1.266.25q-.892 0-1.437-.328a2.7 2.7 0 0 1-.907-.844L.953.719q.312.482.828.719c.344.164.707.25 1.094.25q.498 0 .922-.188.435-.187.687-.562c.164-.243.25-.547.25-.922V-1a2.23 2.23 0 0 1-.812.781q-.518.282-1.094.282M3.016-.5q.311.001.593-.11.282-.107.516-.296.246-.186.406-.406.155-.235.203-.47V-3.39a2.2 2.2 0 0 0-.437-.671 1.9 1.9 0 0 0-.625-.454 1.7 1.7 0 0 0-.735-.171q-.44 0-.78.187-.346.189-.579.5-.235.299-.36.672-.126.375-.124.75 0 .422.14.797.154.377.407.672.262.3.625.453.357.157.75.156m0 0"/><path id="D" d="M2.984.094q-.55-.002-1.03-.203a2.45 2.45 0 0 1-.829-.594 2.9 2.9 0 0 1-.547-.86 2.9 2.9 0 0 1-.187-1.046q0-.734.328-1.344.34-.607.922-.969.592-.359 1.343-.36c.508 0 .954.126 1.329.376.382.242.687.562.906.968q.328.598.328 1.313v.266H1.094q.045.564.312 1 .265.44.688.687.42.251.922.25.513.001.968-.25.45-.265.625-.687l.594.156q-.157.376-.484.672-.329.298-.782.469a2.9 2.9 0 0 1-.953.156M1.078-2.844h3.844a2.2 2.2 0 0 0-.313-.984 1.9 1.9 0 0 0-.687-.672 1.83 1.83 0 0 0-.938-.25c-.336 0-.64.086-.921.25a1.86 1.86 0 0 0-.688.672q-.269.422-.297.984m0 0"/><path id="E" d="M2.453.094Q1.81.092 1.266-.11a2.4 2.4 0 0 1-.953-.64l.28-.469a3 3 0 0 0 .876.594q.45.174.953.172.609 0 .984-.234a.79.79 0 0 0 .375-.704q0-.31-.187-.468-.176-.17-.516-.282-.346-.106-.828-.218a8 8 0 0 1-.906-.313 1.4 1.4 0 0 1-.547-.422q-.174-.248-.172-.672-.001-.499.25-.828.247-.34.688-.515.449-.171 1-.172.59 0 1.046.187.47.19.75.532l-.328.453a1.7 1.7 0 0 0-.656-.47 2.4 2.4 0 0 0-.86-.155q-.315 0-.609.093a1 1 0 0 0-.468.282q-.188.188-.188.515 0 .283.14.438.141.159.423.265.279.095.687.22.592.157 1.031.327.437.158.672.422c.164.18.25.418.25.719q0 .737-.562 1.14c-.368.274-.844.407-1.438.407m0 0"/><path id="F" d="M.438-3.453c0-.676.132-1.332.406-1.969q.404-.965.984-1.937l.531.234q-.203.315-.437.75-.224.439-.422.938-.188.504-.312 1.03a4.7 4.7 0 0 0-.11.985q0 .785.328 1.703.34.91.938 1.813l-.516.281a17 17 0 0 1-.734-1.266 7 7 0 0 1-.485-1.28 5 5 0 0 1-.171-1.282m0 0"/><path id="G" d="M2.234-3.453q0 .626-.171 1.281-.175.644-.5 1.281-.316.627-.72 1.266l-.5-.281a10 10 0 0 0 .923-1.813c.226-.613.343-1.18.343-1.703q-.001-.468-.125-.984a8 8 0 0 0-.328-1.032 10 10 0 0 0-.406-.937 7 7 0 0 0-.437-.75l.53-.234q.576.971.985 1.937.406.955.406 1.969m0 0"/><path id="U" d="M3.078-7.078h.594L6.609 0h-.734l-.922-2.219H1.781L.875 0h-.75Zm1.719 4.312-1.422-3.5-1.453 3.5Zm0 0"/><path id="V" d="M3 .094c-.375 0-.727-.07-1.047-.203a2.7 2.7 0 0 1-.828-.594 3 3 0 0 1-.547-.875A2.8 2.8 0 0 1 .391-2.61q0-.734.328-1.344.328-.607.906-.969.592-.359 1.36-.36c.488 0 .913.118 1.28.345q.564.327.844.89l-.656.203a1.6 1.6 0 0 0-.625-.61 1.7 1.7 0 0 0-.875-.234q-.518 0-.953.282c-.281.18-.508.422-.672.734q-.251.47-.25 1.063-.001.58.25 1.062.264.485.688.766.435.28.953.281.34.001.656-.11a1.9 1.9 0 0 0 .547-.327 1 1 0 0 0 .312-.454l.672.204q-.14.377-.468.671-.331.283-.766.454C3.64.039 3.332.094 3 .094m0 0"/><path id="W" d="M.703-2.14v-3.047h.672v2.921c0 .594.098 1.04.297 1.329q.31.438.906.437.406.002.781-.172.376-.17.657-.5a2.1 2.1 0 0 0 .437-.75v-3.266h.688v4.376c0 .093.015.164.046.203q.06.065.188.078V0c-.086.008-.152.016-.203.016h-.125a.58.58 0 0 1-.344-.157.47.47 0 0 1-.14-.343l-.032-.688a2.4 2.4 0 0 1-.922.938 2.5 2.5 0 0 1-1.25.328c-.554 0-.968-.188-1.25-.563Q.701-1.029.703-2.14m0 0"/><path id="X" d="M3.406.094q-.656 0-1.172-.328a2.54 2.54 0 0 1-.812-.844v3.203H.75v-7.312h.61v1q.31-.482.827-.782a2.1 2.1 0 0 1 1.11-.312q.528 0 .969.234c.3.149.562.344.78.594q.341.377.516.86.188.484.188 1c0 .491-.102.937-.297 1.343a2.6 2.6 0 0 1-.828.984c-.344.243-.75.36-1.219.36M3.203-.5q.436.002.766-.172.34-.17.594-.469.246-.31.375-.671a2.5 2.5 0 0 0 .125-.782 2.3 2.3 0 0 0-.141-.797 1.8 1.8 0 0 0-.422-.656 2.1 2.1 0 0 0-.625-.469 1.7 1.7 0 0 0-.75-.171q-.251.002-.531.109a1.96 1.96 0 0 0-.969.703 1.2 1.2 0 0 0-.203.469v1.61q.152.362.422.655.28.3.625.47.358.173.734.171m0 0"/><path id="Y" d="M7.281-5.187h.672L5.72 0h-.58L4.047-2.578 2.969 0h-.594L.156-5.187h.657l1.89 4.484.953-2.344-.875-2.14h.61L4.047-3.5l.672-1.687h.593l-.859 2.14.953 2.344Zm0 0"/><path id="Z" d="M3.344-4.594q-.69.018-1.203.375-.503.363-.72.985V0H.75v-5.187h.64v1.234q.263-.545.704-.875c.3-.227.617-.36.953-.39h.297Zm0 0"/><path id="aa" d="M1.578-5.797V0H.891v-7.078h.578l4.64 5.906v-5.89h.704V0h-.657Zm0 0"/><path id="ab" d="M5.11 0h-.673v-2.906q0-.905-.28-1.328-.27-.437-.844-.438a1.7 1.7 0 0 0-.782.203 2.1 2.1 0 0 0-.687.532 2.2 2.2 0 0 0-.422.75V0H.75v-5.187h.61v1.171q.217-.375.546-.656c.227-.195.485-.348.766-.453q.434-.155.89-.156.436.002.735.156.292.159.469.453c.125.2.21.438.265.719q.077.409.078.906Zm0 0"/><path id="ac" d="M.64-2.406v-.625h2.923v.625Zm0 0"/><path id="ad" d="M8.469 0h-.672v-2.906c0-.602-.102-1.047-.297-1.328q-.281-.437-.844-.438-.595 0-1.062.422a2.37 2.37 0 0 0-.657 1.078V0h-.671v-2.906q0-.905-.282-1.328c-.187-.29-.476-.438-.859-.438q-.579 0-1.047.422a2.16 2.16 0 0 0-.656 1.063V0H.75v-5.187h.61v1.171q.328-.609.843-.937a2.1 2.1 0 0 1 1.14-.328q.656 0 1.048.375.405.362.5.953.356-.657.859-.985.496-.341 1.14-.343.436.002.735.156.31.159.484.453.186.299.266.719.094.409.094.906Zm0 0"/><path id="ae" d="M5.11 0h-.673v-2.906q0-.873-.312-1.313-.316-.452-.89-.453-.375.002-.75.203-.376.19-.657.532a2 2 0 0 0-.406.75V0H.75v-7.281h.672v3.265q.31-.575.86-.921.56-.342 1.187-.344.45.002.765.156.311.158.5.469.2.298.282.703.093.409.093.906Zm0 0"/><path id="af" d="M.75 0v-5.187h.672V0Zm0-6.281v-1h.672v1Zm0 0"/><path id="H" d="M-7.078-3.078v-.594L0-6.609v.734l-2.219.922v3.172L0-.875v.75Zm4.312-1.719-3.5 1.422 3.5 1.453Zm0 0"/><path id="I" d="M.094-3c0 .375-.07.727-.203 1.047q-.218.47-.594.828a3 3 0 0 1-.875.547q-.48.187-1.031.187-.734 0-1.344-.328a2.54 2.54 0 0 1-.969-.906 2.6 2.6 0 0 1-.36-1.36c0-.488.118-.913.345-1.28q.327-.564.89-.844l.203.656a1.6 1.6 0 0 0-.61.625 1.7 1.7 0 0 0-.234.875q0 .518.282.953c.18.281.422.508.734.672q.47.251 1.063.25.58.001 1.062-.25a2.1 2.1 0 0 0 .766-.688q.28-.435.281-.953.001-.34-.11-.656a1.9 1.9 0 0 0-.327-.547 1 1 0 0 0-.454-.312l.204-.672q.377.14.671.468.283.331.454.766c.101.281.156.59.156.922m0 0"/><path id="J" d="m-.25-3.234.11.25q.08.159.14.406.062.234.063.515c0 .188-.04.372-.11.547a.9.9 0 0 1-.328.407q-.234.14-.562.14h-3.72v.719h-.53v-.719h-1.766v-.672h1.766v-1.203h.53v1.203h3.532q.282-.029.422-.203a.7.7 0 0 0 .14-.422q0-.28-.093-.515-.095-.234-.14-.281Zm0 0"/><path id="K" d="M0-.75h-5.187v-.672H0Zm-6.281 0h-1v-.672h1Zm0 0"/><path id="L" d="m0-2.297-5.187 2.11v-.704l4.515-1.78-4.515-1.782v-.672L0-3.015Zm0 0"/><path id="M" d="M.094-2.984q-.002.55-.203 1.03a2.45 2.45 0 0 1-.594.829q-.374.346-.86.547-.482.187-1.046.187-.734 0-1.344-.328a2.65 2.65 0 0 1-.969-.922 2.55 2.55 0 0 1-.36-1.343q0-.764.376-1.328.361-.577.968-.907a2.7 2.7 0 0 1 1.313-.328h.266v4.453q.564-.045 1-.312.44-.265.687-.688.251-.42.25-.922.001-.513-.25-.968a1.43 1.43 0 0 0-.687-.625l.156-.594q.376.157.672.484.298.329.469.782c.101.292.156.609.156.953m-2.938 1.906v-3.844a2.2 2.2 0 0 0-.984.313 1.9 1.9 0 0 0-.672.687 1.83 1.83 0 0 0-.25.938c0 .336.086.64.25.922.156.28.383.511.672.687q.422.269.984.297m0 0"/><path id="N" d="M.094-3.406q0 .656-.328 1.172a2.54 2.54 0 0 1-.844.812h3.203v.672h-7.312v-.61h1a2.4 2.4 0 0 1-.782-.827 2.1 2.1 0 0 1-.312-1.11q0-.528.234-.969c.149-.3.344-.562.594-.78a2.6 2.6 0 0 1 .86-.516 2.8 2.8 0 0 1 1-.188c.491 0 .937.102 1.343.297q.609.3.984.828c.243.344.36.75.36 1.219m-.594.203q.002-.436-.172-.766a1.9 1.9 0 0 0-.469-.594 2.3 2.3 0 0 0-.671-.375 2.5 2.5 0 0 0-.782-.125 2.3 2.3 0 0 0-.797.141q-.375.14-.656.422-.292.269-.469.625-.17.345-.171.75.002.251.109.531.093.282.281.547.188.252.422.422.223.157.469.203h1.61q.362-.152.655-.422.3-.28.47-.625.173-.358.171-.734m0 0"/><path id="O" d="M.094-2.953q-.002.55-.203 1.031a2.5 2.5 0 0 1-.594.813q-.374.345-.86.53-.481.189-1.015.188a2.9 2.9 0 0 1-1.047-.187 2.7 2.7 0 0 1-.86-.531 2.5 2.5 0 0 1-.577-.828 2.4 2.4 0 0 1-.22-1.032q.001-.563.22-1.031.204-.467.578-.812c.25-.227.539-.407.859-.532a2.73 2.73 0 0 1 2.063 0q.485.19.859.532.377.345.594.812c.132.313.203.664.203 1.047m-2.672 1.875q.581.001 1.062-.25.47-.248.75-.672.268-.437.266-.953 0-.53-.281-.953a2 2 0 0 0-.766-.688 2.15 2.15 0 0 0-1.047-.265q-.576.001-1.047.265c-.32.168-.578.399-.765.688a1.7 1.7 0 0 0-.282.953c0 .344.102.656.297.937.188.282.446.512.766.688q.471.251 1.047.25m0 0"/><path id="P" d="M-5.187-7.281v-.672L0-5.72v.578l-2.578 1.094L0-2.969v.594L-5.187-.156v-.656l4.484-1.891-2.344-.953-2.14.875v-.61l1.687-.656-1.687-.672v-.593l2.14.859 2.344-.953Zm0 0"/><path id="Q" d="M-4.594-3.344q.018.69.375 1.203.363.503.985.72H0v.671h-5.187v-.64h1.234a2.34 2.34 0 0 1-.875-.704c-.227-.3-.36-.617-.39-.953v-.297Zm0 0"/><path id="R" d="M-3.453-.437a4.9 4.9 0 0 1-1.969-.407q-.965-.404-1.937-.984l.234-.531q.315.203.75.437.439.224.938.422.504.188 1.03.313.517.11.985.109.785 0 1.703-.328a9 9 0 0 0 1.813-.938l.281.516q-.639.408-1.266.734a7 7 0 0 1-1.28.485 5 5 0 0 1-1.282.172m0 0"/><path id="S" d="M-7.031-3.547v-.656l2.515-1-2.515-1v-.672L-4-5.641-.812-7l-6.266-2.562v-.75l7.078 3v.609L-3.5-5.22 0-3.72v.61L-7.078-.125v-.75l6.266-2.562L-4-4.781Zm0 0"/><path id="T" d="M-3.453-2.234q.626 0 1.281.172c.43.117.856.28 1.281.5q.627.315 1.266.718l-.281.5a10 10 0 0 0-1.813-.922c-.613-.226-1.18-.343-1.703-.343q-.468.001-.984.125a8 8 0 0 0-1.032.328q-.498.188-.937.406-.435.221-.75.438l-.234-.532q.971-.574 1.937-.984a5 5 0 0 1 1.969-.406m0 0"/><clipPath id="a"><path d="M0 0h499.574v273.066H0Zm0 0"/></clipPath></defs><g clip-path="url(#a)"><path fill="#fff" d="M0 273.07V-.004h499.582V273.07Zm0 0"/></g><path fill="none" stroke="#bfbfbf" stroke-miterlimit="10" stroke-width=".399" d="M94.66 225.102V14.812m34.059 210.29V14.812m34.058 210.29V14.812m34.063 210.29V14.812m34.058 210.29V14.812m34.059 210.29V14.812m34.059 210.29V14.812m34.058 210.29V14.812m34.059 210.29V14.812m34.062 210.29V14.812m34.059 210.29V14.812m34.058 210.29V14.812M77.629 225.102V14.812m34.062 210.29V14.812m34.059 210.29V14.812m34.059 210.29V14.812m34.058 210.29V14.812m34.059 210.29V14.812m34.062 210.29V14.812m34.059 210.29V14.812m34.058 210.29V14.812m34.06 210.29V14.812m34.058 210.29V14.812m34.058 210.29V14.812m34.063 210.29V14.812M77.629 190.055h408.715M77.629 155.004h408.715M77.629 119.957h408.715M77.629 84.91h408.715M77.629 49.86h408.715M77.629 207.578h408.715m-408.715-35.05h408.715M77.629 137.48h408.715M77.629 102.434h408.715M77.629 67.383h408.715M77.629 32.336h408.715"/><path fill="none" stroke="#7f7f7f" stroke-miterlimit="10" stroke-width=".199" d="M94.66 225.102v-2.836m34.059 2.836v-2.836m34.058 2.836v-2.836m34.063 2.836v-2.836m34.058 2.836v-2.836m34.059 2.836v-2.836m34.059 2.836v-2.836m34.058 2.836v-2.836m34.059 2.836v-2.836m34.062 2.836v-2.836m34.059 2.836v-2.836m34.058 2.836v-2.836M94.66 14.813v2.832m34.059-2.832v2.832m34.058-2.832v2.832m34.063-2.832v2.832m34.058-2.832v2.832m34.059-2.832v2.832m34.059-2.832v2.832m34.058-2.832v2.832m34.059-2.832v2.832m34.062-2.832v2.832m34.059-2.832v2.832m34.058-2.832v2.832M77.629 225.102v-4.25m34.062 4.25v-4.25m34.059 4.25v-4.25m34.059 4.25v-4.25m34.058 4.25v-4.25m34.059 4.25v-4.25m34.062 4.25v-4.25m34.059 4.25v-4.25m34.058 4.25v-4.25m34.06 4.25v-4.25m34.058 4.25v-4.25m34.058 4.25v-4.25m34.063 4.25v-4.25M77.629 14.812v4.25m34.062-4.25v4.25m34.059-4.25v4.25m34.059-4.25v4.25m34.058-4.25v4.25m34.059-4.25v4.25m34.062-4.25v4.25m34.059-4.25v4.25m34.058-4.25v4.25m34.06-4.25v4.25m34.058-4.25v4.25m34.058-4.25v4.25m34.063-4.25v4.25M77.629 190.055h2.836m-2.836-35.051h2.836m-2.836-35.047h2.836M77.629 84.91h2.836m-2.836-35.05h2.836m405.879 140.195h-2.836m2.836-35.051h-2.836m2.836-35.047h-2.836m2.836-35.047h-2.836m2.836-35.05h-2.836M77.629 207.578h4.25m-4.25-35.05h4.25m-4.25-35.048h4.25m-4.25-35.046h4.25m-4.25-35.051h4.25m-4.25-35.047h4.25m404.465 175.242h-4.25m4.25-35.05h-4.25m4.25-35.048h-4.25m4.25-35.046h-4.25m4.25-35.051h-4.25m4.25-35.047h-4.25"/><path fill="none" stroke="#000" stroke-miterlimit="10" stroke-width=".399" d="M77.629 225.102V14.812h408.715v210.29Zm0 0"/><use xlink:href="#b" x="67.668" y="234.569"/><use xlink:href="#c" x="72.859" y="234.569"/><use xlink:href="#c" x="78.956" y="234.569"/><use xlink:href="#b" x="102.061" y="234.569"/><use xlink:href="#c" x="107.252" y="234.569"/><use xlink:href="#d" x="113.349" y="234.569"/><use xlink:href="#b" x="136.702" y="234.569"/><use xlink:href="#e" x="141.893" y="234.569"/><use xlink:href="#c" x="146.157" y="234.569"/><use xlink:href="#b" x="171.095" y="234.41"/><use xlink:href="#e" x="176.286" y="234.41"/><use xlink:href="#d" x="180.55" y="234.41"/><use xlink:href="#b" x="204.357" y="234.569"/><use xlink:href="#b" x="209.548" y="234.569"/><use xlink:href="#c" x="214.738" y="234.569"/><use xlink:href="#b" x="238.749" y="234.41"/><use xlink:href="#b" x="243.94" y="234.41"/><use xlink:href="#d" x="249.13" y="234.41"/><use xlink:href="#b" x="272.41" y="234.569"/><use xlink:href="#f" x="277.601" y="234.569"/><use xlink:href="#c" x="282.921" y="234.569"/><use xlink:href="#b" x="306.802" y="234.41"/><use xlink:href="#f" x="311.993" y="234.41"/><use xlink:href="#d" x="317.313" y="234.41"/><use xlink:href="#b" x="341.738" y="234.569"/><use xlink:href="#g" x="346.929" y="234.569"/><use xlink:href="#c" x="352.368" y="234.569"/><use xlink:href="#h" x="341.266" y="246.524"/><use xlink:href="#i" x="348.787" y="242.606"/><use xlink:href="#j" x="353.521" y="242.606"/><use xlink:href="#b" x="374.86" y="234.41"/><use xlink:href="#g" x="380.051" y="234.41"/><use xlink:href="#d" x="385.49" y="234.41"/><use xlink:href="#b" x="409.86" y="234.569"/><use xlink:href="#d" x="415.051" y="234.569"/><use xlink:href="#c" x="420.48" y="234.569"/><use xlink:href="#h" x="406.367" y="246.524"/><use xlink:href="#k" x="413.888" y="242.606"/><use xlink:href="#l" x="421.213" y="242.606"/><use xlink:href="#m" x="425.556" y="242.606"/><use xlink:href="#b" x="442.983" y="234.41"/><use xlink:href="#d" x="448.174" y="234.41"/><use xlink:href="#d" x="453.603" y="234.41"/><use xlink:href="#b" x="476.419" y="235.745"/><use xlink:href="#n" x="481.61" y="235.745"/><use xlink:href="#c" x="487.617" y="235.745"/><use xlink:href="#o" x="26.587" y="210.931"/><use xlink:href="#p" x="32.266" y="210.931"/><use xlink:href="#k" x="38.313" y="206.962"/><use xlink:href="#l" x="45.638" y="206.962"/><use xlink:href="#m" x="49.981" y="206.962"/><use xlink:href="#o" x="63.001" y="210.931"/><use xlink:href="#d" x="68.68" y="210.931"/><use xlink:href="#o" x="63.06" y="174.741"/><use xlink:href="#g" x="68.669" y="174.741"/><use xlink:href="#o" x="63.459" y="139.618"/><use xlink:href="#f" x="68.789" y="139.618"/><use xlink:href="#o" x="63.28" y="105.328"/><use xlink:href="#b" x="68.919" y="105.328"/><use xlink:href="#o" x="64.226" y="70.23"/><use xlink:href="#e" x="69.845" y="70.23"/><use xlink:href="#c" x="68.012" y="35.262"/><use xlink:href="#q" x="80.817" y="8.206"/><use xlink:href="#e" x="83.584" y="8.206"/><use xlink:href="#c" x="87.848" y="8.206"/><use xlink:href="#r" x="93.945" y="4.591"/><path fill="none" stroke="#bfbfbf" stroke-miterlimit="10" stroke-width=".399" d="M77.629 119.957h408.715"/><path fill="none" stroke="#7f7f7f" stroke-miterlimit="10" stroke-width=".199" d="M77.629 119.957h4.25m404.465 0h-4.25"/><use xlink:href="#s" x="31.945" y="124.084"/><use xlink:href="#t" x="38.142" y="120.165"/><use xlink:href="#u" x="40.812" y="120.165"/><use xlink:href="#v" x="45.459" y="120.165"/><use xlink:href="#o" x="55.967" y="124.084"/><use xlink:href="#b" x="61.606" y="124.084"/><use xlink:href="#w" x="66.796" y="124.084"/><use xlink:href="#d" x="68.679" y="124.084"/><path fill="none" stroke="red" stroke-miterlimit="10" stroke-width=".399" d="M111.691 207.578h238.414l68.118-175.242h34.058"/><path fill="#00c" stroke="#00f" stroke-miterlimit="10" stroke-width=".399" d="M113.105 119.957a1.417 1.417 0 1 0-1.414 1.418c.782 0 1.414-.637 1.414-1.418Zm6.813 0a1.417 1.417 0 1 0-2.832 0 1.417 1.417 0 1 0 2.832 0Zm6.812 0a1.418 1.418 0 1 0-2.835 0 1.418 1.418 0 0 0 2.835 0Zm6.813 0a1.418 1.418 0 1 0-2.836 0 1.418 1.418 0 0 0 2.836 0Zm6.812 0a1.42 1.42 0 0 0-1.417-1.418 1.42 1.42 0 0 0-1.418 1.418 1.42 1.42 0 0 0 1.417 1.418 1.42 1.42 0 0 0 1.418-1.418Zm6.813 0a1.418 1.418 0 1 0-2.836 0 1.418 1.418 0 0 0 2.836 0Zm6.809 0a1.417 1.417 0 1 0-1.415 1.418c.782 0 1.415-.637 1.415-1.418Zm6.813 0a1.417 1.417 0 1 0-2.832 0 1.417 1.417 0 1 0 2.831 0Zm6.812 0a1.418 1.418 0 1 0-2.836 0 1.418 1.418 0 0 0 2.836 0Zm6.812 0a1.418 1.418 0 1 0-2.836 0 1.418 1.418 0 0 0 2.836 0Zm6.813 0a1.42 1.42 0 0 0-1.418-1.418 1.42 1.42 0 0 0-1.418 1.418 1.42 1.42 0 0 0 1.418 1.418 1.42 1.42 0 0 0 1.418-1.418Zm6.813 0a1.418 1.418 0 1 0-2.836 0 1.418 1.418 0 0 0 2.835 0Zm6.808 0a1.417 1.417 0 1 0-1.414 1.418c.78 0 1.414-.637 1.414-1.418Zm6.812 0a1.417 1.417 0 1 0-2.832 0 1.417 1.417 0 1 0 2.832 0Zm6.813 0a1.418 1.418 0 1 0-2.836 0 1.418 1.418 0 0 0 2.836 0Zm6.812 0a1.418 1.418 0 1 0-2.836 0 1.418 1.418 0 0 0 2.836 0Zm6.813 0a1.42 1.42 0 0 0-1.418-1.418 1.42 1.42 0 0 0-1.418 1.418 1.42 1.42 0 0 0 1.418 1.418 1.42 1.42 0 0 0 1.418-1.418Zm6.812 0a1.418 1.418 0 1 0-2.836 0 1.418 1.418 0 0 0 2.836 0Zm6.809 0a1.417 1.417 0 1 0-1.414 1.418c.78 0 1.414-.637 1.414-1.418Zm6.812 0a1.417 1.417 0 1 0-2.832 0 1.417 1.417 0 1 0 2.832 0Zm6.813 0a1.418 1.418 0 1 0-2.836 0 1.418 1.418 0 0 0 2.836 0Zm6.812 0a1.42 1.42 0 0 0-1.418-1.418 1.42 1.42 0 0 0-1.418 1.418 1.42 1.42 0 0 0 1.418 1.418 1.42 1.42 0 0 0 1.418-1.418Zm6.813 0a1.42 1.42 0 0 0-1.418-1.418 1.42 1.42 0 0 0-1.418 1.418 1.42 1.42 0 0 0 1.418 1.418 1.42 1.42 0 0 0 1.418-1.418Zm6.812 0a1.418 1.418 0 1 0-2.836 0 1.418 1.418 0 0 0 2.836 0Zm6.809 0a1.417 1.417 0 1 0-1.414 1.418c.781 0 1.414-.637 1.414-1.418Zm6.812 0a1.417 1.417 0 1 0-2.832 0 1.417 1.417 0 1 0 2.832 0Zm6.813 0a1.418 1.418 0 1 0-2.836 0 1.418 1.418 0 0 0 2.836 0Zm6.812 0a1.42 1.42 0 0 0-1.418-1.418 1.42 1.42 0 0 0-1.418 1.418 1.42 1.42 0 0 0 1.418 1.418 1.42 1.42 0 0 0 1.418-1.418Zm6.813 0a1.42 1.42 0 0 0-1.418-1.418 1.42 1.42 0 0 0-1.418 1.418 1.42 1.42 0 0 0 1.418 1.418 1.42 1.42 0 0 0 1.418-1.418Zm6.812 0a1.418 1.418 0 1 0-2.836 0 1.418 1.418 0 0 0 2.836 0Zm6.808 0a1.417 1.417 0 1 0-1.413 1.418c.781 0 1.414-.637 1.414-1.418Zm6.813 0a1.417 1.417 0 1 0-2.832 0 1.417 1.417 0 1 0 2.832 0Zm6.813 0a1.418 1.418 0 1 0-2.836 0 1.418 1.418 0 0 0 2.836 0Zm6.812 0a1.42 1.42 0 0 0-1.418-1.418 1.42 1.42 0 0 0-1.418 1.418 1.42 1.42 0 0 0 1.418 1.418 1.42 1.42 0 0 0 1.418-1.418Zm6.812 0a1.42 1.42 0 0 0-1.417-1.418 1.42 1.42 0 0 0-1.418 1.418 1.42 1.42 0 0 0 1.418 1.418 1.42 1.42 0 0 0 1.418-1.418Zm6.813 0a1.418 1.418 0 1 0-2.836 0 1.418 1.418 0 0 0 2.836 0Zm6.809 0a1.417 1.417 0 1 0-1.414 1.418c.781 0 1.414-.637 1.414-1.418Zm6.813 0a1.417 1.417 0 1 0-2.832 0 1.417 1.417 0 1 0 2.832 0Zm6.812 0a1.418 1.418 0 1 0-2.836 0c0 .781.637 1.414 1.418 1.414.785 0 1.418-.633 1.418-1.414Zm6.813-.078a1.418 1.418 0 1 0-2.836 0 1.418 1.418 0 0 0 2.836 0Zm6.812-2.957a1.418 1.418 0 1 0-2.836 0 1.417 1.417 0 0 0 2.836 0Zm6.813-14.57c0-.782-.637-1.415-1.418-1.415a1.415 1.415 0 1 0 0 2.832c.78 0 1.418-.632 1.418-1.417Zm6.808-17.446a1.417 1.417 0 1 0-1.414 1.418c.781 0 1.414-.633 1.414-1.418Zm6.813-17.519a1.417 1.417 0 1 0-2.832 0 1.417 1.417 0 1 0 2.832 0Zm6.812-17.446a1.418 1.418 0 1 0-2.836 0 1.418 1.418 0 0 0 2.836 0Zm6.812-14.566a1.418 1.418 0 1 0-2.835 0 1.418 1.418 0 0 0 2.836 0Zm6.813-2.957a1.418 1.418 0 1 0-2.836 0 1.417 1.417 0 0 0 2.836 0Zm6.813-.078a1.418 1.418 0 1 0-2.836 0 1.418 1.418 0 0 0 2.836 0Zm6.808-.004a1.417 1.417 0 1 0-1.414 1.418c.781 0 1.414-.633 1.414-1.418Zm6.813 0a1.417 1.417 0 1 0-2.832 0 1.415 1.415 0 1 0 2.832 0Zm6.813 0a1.418 1.418 0 1 0-2.837 0 1.418 1.418 0 0 0 2.836 0Zm0 0"/><path fill="#c00" stroke="red" stroke-miterlimit="10" stroke-width=".399" d="M110.273 208.996h2.832v-2.836h-2.832Zm238.415 0h2.835v-2.836h-2.836Zm68.117-175.242h2.836v-2.836h-2.836Zm34.058 0h2.836v-2.836h-2.836Zm0 0"/><use xlink:href="#x" x="254.497" y="267.526"/><use xlink:href="#y" x="260.594" y="267.526"/><use xlink:href="#z" x="266.522" y="267.526"/><use xlink:href="#A" x="269.232" y="267.526"/><use xlink:href="#B" x="272.569" y="267.526"/><use xlink:href="#C" x="277.999" y="267.526"/><use xlink:href="#D" x="284.156" y="267.526"/><use xlink:href="#E" x="290.004" y="267.526"/><use xlink:href="#F" x="297.356" y="267.526"/><use xlink:href="#x" x="300.036" y="267.526"/><use xlink:href="#G" x="306.801" y="267.526"/><use xlink:href="#H" x="10.683" y="159.121"/><use xlink:href="#I" x="10.683" y="152.536"/><use xlink:href="#J" x="10.683" y="147.066"/><use xlink:href="#K" x="10.683" y="143.729"/><use xlink:href="#L" x="10.683" y="141.557"/><use xlink:href="#M" x="10.683" y="136.426"/><use xlink:href="#N" x="10.683" y="128.038"/><use xlink:href="#O" x="10.683" y="121.891"/><use xlink:href="#P" x="10.683" y="116.142"/><use xlink:href="#M" x="10.683" y="108.222"/><use xlink:href="#Q" x="10.683" y="102.374"/><use xlink:href="#R" x="10.683" y="96.566"/><use xlink:href="#S" x="10.683" y="93.886"/><use xlink:href="#T" x="10.683" y="83.465"/><path fill="#fff" stroke="#000" stroke-miterlimit="10" stroke-width=".399" d="M90.09 50.809h172.187V21.32H90.09Zm0 0"/><path fill="#00c" stroke="#00f" stroke-miterlimit="10" stroke-width=".399" d="M103.2 29.691a1.418 1.418 0 1 0-2.837 0c0 .782.637 1.414 1.418 1.414s1.418-.632 1.418-1.414Zm0 0"/><use xlink:href="#U" x="112.477" y="32.579"/><use xlink:href="#V" x="119.062" y="32.579"/><use xlink:href="#A" x="124.532" y="32.579"/><use xlink:href="#W" x="127.869" y="32.579"/><use xlink:href="#B" x="133.787" y="32.579"/><use xlink:href="#z" x="139.217" y="32.579"/><use xlink:href="#X" x="144.168" y="32.579"/><use xlink:href="#y" x="150.315" y="32.579"/><use xlink:href="#Y" x="156.064" y="32.579"/><use xlink:href="#D" x="163.984" y="32.579"/><use xlink:href="#Z" x="169.832" y="32.579"/><path fill="none" stroke="red" stroke-miterlimit="10" stroke-width=".399" d="M93.277 42.441h17.008"/><path fill="#c00" stroke="red" stroke-miterlimit="10" stroke-width=".399" d="M100.363 43.86h2.836v-2.837h-2.836Zm0 0"/><use xlink:href="#aa" x="112.477" y="45.331"/><use xlink:href="#y" x="120.088" y="45.331"/><use xlink:href="#ab" x="126.016" y="45.331"/><use xlink:href="#ac" x="131.824" y="45.331"/><use xlink:href="#E" x="136.029" y="45.331"/><use xlink:href="#ad" x="140.841" y="45.331"/><use xlink:href="#y" x="149.996" y="45.331"/><use xlink:href="#y" x="155.924" y="45.331"/><use xlink:href="#A" x="161.772" y="45.331"/><use xlink:href="#ae" x="165.11" y="45.331"/><use xlink:href="#A" x="173.458" y="45.331"/><use xlink:href="#ae" x="176.796" y="45.331"/><use xlink:href="#D" x="182.604" y="45.331"/><use xlink:href="#y" x="188.452" y="45.331"/><use xlink:href="#Z" x="194.38" y="45.331"/><use xlink:href="#D" x="197.717" y="45.331"/><use xlink:href="#A" x="203.516" y="45.331"/><use xlink:href="#af" x="206.853" y="45.331"/><use xlink:href="#V" x="209.025" y="45.331"/><use xlink:href="#B" x="214.494" y="45.331"/><use xlink:href="#z" x="219.924" y="45.331"/><use xlink:href="#V" x="224.876" y="45.331"/><use xlink:href="#y" x="230.295" y="45.331"/><use xlink:href="#ab" x="236.223" y="45.331"/><use xlink:href="#A" x="241.981" y="45.331"/><use xlink:href="#Z" x="245.319" y="45.331"/><use xlink:href="#y" x="248.656" y="45.331"/><use xlink:href="#z" x="254.584" y="45.331"/></svg>
