<svg xmlns="http://www.w3.org/2000/svg" xmlns:xlink="http://www.w3.org/1999/xlink" width="666.1" height="364.091" viewBox="0 0 499.575 273.068"><defs><symbol overflow="visible" id="b"><path style="stroke:none" d="M.438 0c0-.227.019-.457.062-.688a2.55 2.55 0 0 1 .219-.671c.113-.227.281-.446.5-.657.226-.207.52-.406.875-.593.187-.102.383-.204.594-.297.207-.094.398-.196.578-.313a1.64 1.64 0 0 0 .437-.406.833.833 0 0 0 .172-.531.936.936 0 0 0-.14-.485.976.976 0 0 0-.438-.39 1.607 1.607 0 0 0-.735-.157 1.83 1.83 0 0 0-1.046.329 2.31 2.31 0 0 0-.329.265c-.093.086-.171.157-.234.219l-.422-.469a2.71 2.71 0 0 1 .656-.531c.188-.113.407-.21.657-.297a2.63 2.63 0 0 1 .828-.125c.406 0 .75.074 1.031.219.29.148.516.34.672.578.156.242.234.496.234.766 0 .28-.062.523-.187.718a1.89 1.89 0 0 1-.453.5c-.18.149-.367.274-.563.375l-.531.266a5.528 5.528 0 0 0-.781.438 3.162 3.162 0 0 0-.516.437 2.167 2.167 0 0 0-.297.438 2.47 2.47 0 0 0-.14.437h3.578V0Zm0 0"/></symbol><symbol overflow="visible" id="c"><path style="stroke:none" d="M5.547-2.922c0 .586-.11 1.106-.328 1.563-.211.46-.508.82-.89 1.078-.376.25-.806.375-1.282.375-.48 0-.906-.125-1.281-.375A2.654 2.654 0 0 1 .875-1.36C.656-1.816.547-2.336.547-2.922c0-.582.11-1.098.328-1.547.219-.457.516-.816.89-1.078.376-.27.801-.406 1.282-.406.476 0 .906.137 1.281.406.383.262.68.621.89 1.078.22.45.329.965.329 1.547Zm-.688 0c0-.469-.078-.879-.234-1.234C4.477-4.52 4.27-4.801 4-5a1.534 1.534 0 0 0-.953-.313c-.356 0-.672.106-.953.313-.274.2-.485.48-.64.844-.157.355-.235.765-.235 1.234s.078.887.234 1.25c.156.356.367.637.64.844.282.2.598.297.954.297.363 0 .68-.098.953-.297.27-.207.477-.488.625-.844.156-.363.234-.781.234-1.25Zm0 0"/></symbol><symbol overflow="visible" id="d"><path style="stroke:none" d="M2.61 1.484c-.5 0-.954-.125-1.36-.375A2.335 2.335 0 0 1 .344.125l.453-.328c.187.32.441.582.765.781.32.195.676.297 1.063.297.332 0 .629-.074.89-.219a1.73 1.73 0 0 0 .626-.61c.156-.257.234-.554.234-.89 0-.32-.078-.61-.234-.86a1.523 1.523 0 0 0-.61-.577 1.656 1.656 0 0 0-.844-.219c-.312 0-.609.07-.89.203a1.753 1.753 0 0 0-.672.594H.5l.781-3.984h3.422v.625H1.797l-.484 2.546c.164-.187.375-.332.625-.437.257-.102.535-.156.828-.156.425 0 .812.101 1.156.296A2.176 2.176 0 0 1 5.078-.859c0 .468-.117.875-.344 1.218a2.303 2.303 0 0 1-.89.829 2.585 2.585 0 0 1-1.235.296Zm0 0"/></symbol><symbol overflow="visible" id="e"><path style="stroke:none" d="M4.047-.625V0H.672v-.625h1.406v-4.266a1.06 1.06 0 0 1-.265.266 2.884 2.884 0 0 1-.922.453 1.33 1.33 0 0 1-.438.078v-.656c.156 0 .32-.04.5-.125a3.44 3.44 0 0 0 .516-.297c.164-.113.304-.219.422-.312.113-.102.175-.172.187-.204h.703v5.063Zm0 0"/></symbol><symbol overflow="visible" id="f"><path style="stroke:none" d="M3.422-2.36c.3.055.555.165.765.329.208.168.368.375.485.625.125.25.187.539.187.86 0 .398-.101.741-.296 1.046a1.85 1.85 0 0 1-.797.719c-.344.164-.746.25-1.204.25-.511 0-.953-.106-1.328-.313A2.037 2.037 0 0 1 .375.313L.844-.11c.144.28.36.507.64.687.29.176.649.266 1.079.266.488 0 .878-.121 1.171-.36.29-.242.438-.586.438-1.046 0-.446-.152-.805-.453-1.079-.305-.27-.735-.406-1.297-.406h-.25v-.578h.265c.508 0 .899-.117 1.172-.36a1.13 1.13 0 0 0 .422-.906c0-.28-.062-.507-.187-.687a1.195 1.195 0 0 0-.516-.406 1.888 1.888 0 0 0-.75-.141c-.375 0-.71.09-1 .266a1.612 1.612 0 0 0-.656.687l-.438-.406c.114-.238.274-.442.485-.61.219-.175.469-.312.75-.406.289-.093.597-.14.922-.14.414 0 .78.074 1.093.218.313.149.555.356.735.625.176.262.265.575.265.938 0 .262-.054.508-.156.734-.105.23-.258.422-.453.578a1.52 1.52 0 0 1-.703.282Zm0 0"/></symbol><symbol overflow="visible" id="g"><path style="stroke:none" d="M3.547 1.266V-.516H.234v-.593l3.532-4.579h.468v4.563h.875v.61h-.875v1.78ZM.953-1.125h2.672v-3.5Zm0 0"/></symbol><symbol overflow="visible" id="h"><path style="stroke:none" d="M3.766.047c-.555 0-1.024-.098-1.407-.297a2.383 2.383 0 0 1-.921-.797 3.524 3.524 0 0 1-.5-1.14A5.496 5.496 0 0 1 .78-3.516v-3.562h.688v3.562c0 .375.035.743.11 1.094.081.344.206.656.374.938.176.28.41.507.703.671.29.157.66.235 1.11.235.445 0 .816-.082 1.109-.25.3-.176.535-.399.703-.672a3.18 3.18 0 0 0 .36-.938c.07-.351.109-.71.109-1.078v-3.562h.703v3.562c0 .48-.055.938-.156 1.375-.106.43-.278.805-.516 1.125a2.66 2.66 0 0 1-.937.782c-.375.187-.836.28-1.375.28Zm0 0"/></symbol><symbol overflow="visible" id="n"><path style="stroke:none" d="M5.578-2.328A2.337 2.337 0 0 0 4.36-4.406a2.44 2.44 0 0 0-1.218-.313c-.305 0-.586.055-.844.157a2.047 2.047 0 0 0-.688.453 1.962 1.962 0 0 0-.437.671c0-.656.082-1.21.25-1.671.164-.457.394-.805.687-1.047.29-.25.63-.375 1.016-.375.375 0 .71.105 1.016.312.3.2.523.469.671.813l.438-.407a2.258 2.258 0 0 0-.86-.953 2.274 2.274 0 0 0-1.265-.359c-.512 0-.965.156-1.36.469-.398.312-.702.781-.921 1.406-.219.625-.328 1.422-.328 2.39 0 .618.109 1.15.328 1.594.219.438.52.778.906 1.016.383.23.82.344 1.313.344.468 0 .89-.11 1.265-.328a2.44 2.44 0 0 0 .906-.875c.227-.375.344-.782.344-1.22ZM3.078-.5c-.336 0-.64-.082-.922-.25a2.01 2.01 0 0 1-.687-.656 1.757 1.757 0 0 1-.25-.922c0-.344.082-.649.25-.922.164-.281.39-.504.672-.672a1.87 1.87 0 0 1 .937-.25c.332 0 .64.086.922.25.281.168.504.39.672.672.164.281.25.59.25.922 0 .336-.086.64-.25.922-.168.273-.39.492-.672.656-.281.168-.59.25-.922.25Zm0 0"/></symbol><symbol overflow="visible" id="o"><path style="stroke:none" d="M.64-2.406v-.625h4.391v.625Zm0 0"/></symbol><symbol overflow="visible" id="p"><path style="stroke:none" d="M5.031-5.75a1.889 1.889 0 0 0-.36-.297 2.159 2.159 0 0 0-.452-.234 2.735 2.735 0 0 0-1.125-.235c-.625 0-1.086.121-1.375.36-.282.242-.422.562-.422.968 0 .274.066.493.203.657.133.156.348.289.64.39.29.094.665.196 1.126.297.5.117.93.246 1.296.39.364.15.645.345.844.595.207.242.313.574.313 1 0 .336-.07.62-.203.859a1.616 1.616 0 0 1-.532.594 2.413 2.413 0 0 1-.796.36 5.03 5.03 0 0 1-2.078 0 4.614 4.614 0 0 1-.954-.345 3.992 3.992 0 0 1-.843-.578l.359-.562c.125.136.273.261.453.375a3.6 3.6 0 0 0 1.281.531c.25.043.508.063.781.063.563 0 1-.098 1.313-.297.313-.207.469-.516.469-.922 0-.29-.078-.524-.235-.703-.156-.176-.398-.32-.718-.438a11.332 11.332 0 0 0-1.172-.328 8.68 8.68 0 0 1-1.25-.375c-.336-.145-.59-.332-.766-.563-.168-.226-.25-.53-.25-.906 0-.437.102-.804.313-1.11.218-.3.515-.53.89-.687a3.45 3.45 0 0 1 1.313-.234c.312 0 .601.031.875.094.27.062.52.156.75.281.226.117.441.262.64.438Zm0 0"/></symbol><symbol overflow="visible" id="s"><path style="stroke:none" d="M.89 0v-7.078h2.922c.313 0 .594.062.844.187.258.125.485.297.672.516.188.219.332.46.438.719.101.261.156.527.156.797 0 .386-.09.75-.266 1.093a2.243 2.243 0 0 1-.703.844c-.305.211-.664.313-1.078.313H1.578V0Zm.688-3.234h2.266c.281 0 .523-.07.734-.22a1.46 1.46 0 0 0 .469-.593c.113-.25.172-.52.172-.812 0-.29-.07-.555-.203-.797a1.403 1.403 0 0 0-.516-.578 1.285 1.285 0 0 0-.719-.22H1.578Zm0 0"/></symbol><symbol overflow="visible" id="w"><path style="stroke:none" d="M.64 0v-.984h.594V0Zm0 0"/></symbol><symbol overflow="visible" id="i"><path style="stroke:none" d="M.563-1.719v-2.437h.53v2.343c0 .481.079.84.235 1.079.164.23.41.343.734.343.208 0 .41-.046.61-.14a1.56 1.56 0 0 0 .531-.39c.156-.177.274-.38.36-.61v-2.625h.546v3.5c0 .074.016.133.047.172.032.03.078.046.14.046V0c-.062.008-.116.016-.155.016h-.094a.428.428 0 0 1-.281-.125.397.397 0 0 1-.125-.266l-.016-.563c-.18.313-.422.563-.734.75-.313.18-.653.266-1.016.266-.43 0-.758-.148-.984-.453-.22-.3-.329-.75-.329-1.344Zm0 0"/></symbol><symbol overflow="visible" id="j"><path style="stroke:none" d="M2.719.078c-.344 0-.656-.086-.938-.266a2.136 2.136 0 0 1-.64-.671v2.562H.594v-5.86h.484v.813c.164-.258.383-.469.656-.625a1.745 1.745 0 0 1 1.688-.062 1.9 1.9 0 0 1 .61.468c.175.2.312.43.405.688.102.262.157.527.157.797 0 .398-.078.758-.235 1.078a1.976 1.976 0 0 1-.656.781c-.281.2-.61.297-.984.297ZM2.563-.39A1.384 1.384 0 0 0 3.64-.907c.132-.163.234-.347.296-.546.07-.195.11-.406.11-.625 0-.219-.043-.426-.125-.625a1.45 1.45 0 0 0-.328-.531 1.569 1.569 0 0 0-.485-.375A1.344 1.344 0 0 0 2.5-3.75c-.137 0-.281.031-.438.094a1.759 1.759 0 0 0-.421.219 1.45 1.45 0 0 0-.344.328.925.925 0 0 0-.156.39v1.281c.082.2.195.375.343.532.145.156.313.281.5.375.188.094.38.14.579.14Zm0 0"/></symbol><symbol overflow="visible" id="k"><path style="stroke:none" d="M6.766 0h-.532v-2.313c0-.488-.078-.847-.234-1.078-.156-.226-.387-.343-.688-.343a1.23 1.23 0 0 0-.843.343 1.806 1.806 0 0 0-.516.86V0h-.547v-2.313c0-.488-.074-.847-.219-1.078-.148-.226-.374-.343-.687-.343-.305 0-.578.109-.828.328a1.77 1.77 0 0 0-.531.86V0H.594v-4.156h.5v.937c.176-.32.398-.566.672-.734.27-.176.57-.266.906-.266.351 0 .633.102.844.297.207.188.336.445.39.766.188-.352.414-.617.688-.797.27-.176.57-.266.906-.266.238 0 .438.043.594.125a.964.964 0 0 1 .39.36c.102.156.176.343.22.562a4.3 4.3 0 0 1 .062.735Zm0 0"/></symbol><symbol overflow="visible" id="l"><path style="stroke:none" d="M.266-1.188c0-.257.07-.484.218-.671.145-.196.348-.348.61-.454a2.62 2.62 0 0 1 .922-.156c.195 0 .406.024.625.063.218.031.414.078.593.14v-.359c0-.344-.105-.617-.312-.828-.211-.207-.496-.313-.86-.313-.23 0-.453.043-.671.125a3.954 3.954 0 0 0-.672.36l-.203-.39c.27-.177.535-.313.796-.407.258-.094.524-.14.797-.14.508 0 .91.148 1.204.437.3.293.453.695.453 1.203v1.922c0 .074.015.133.046.172.032.03.083.046.157.046V0c-.063.008-.117.016-.156.016a.184.184 0 0 1-.094 0c-.137 0-.242-.04-.313-.125a.407.407 0 0 1-.094-.25l-.015-.313a1.86 1.86 0 0 1-.735.563 2.25 2.25 0 0 1-.89.187c-.274 0-.516-.058-.734-.172a1.367 1.367 0 0 1-.5-.453 1.222 1.222 0 0 1-.172-.64Zm2.78.313c.052-.07.095-.14.126-.203a.43.43 0 0 0 .062-.203v-.594a3.015 3.015 0 0 0-.578-.156 2.848 2.848 0 0 0-.578-.063c-.387 0-.7.078-.937.235a.691.691 0 0 0-.36.625c0 .156.035.304.11.437.082.137.203.25.359.344.156.086.336.125.547.125.258 0 .5-.05.719-.156.226-.102.406-.235.53-.391Zm0 0"/></symbol><symbol overflow="visible" id="m"><path style="stroke:none" d="m.719-4.156 1.219 1.625.078.125.062-.125 1.203-1.625h.61L2.312-2.063 3.891 0h-.61L2.078-1.625l-.062-.11-.079.11L.734 0H.125l1.563-2.063L.125-4.155Zm0 0"/></symbol><symbol overflow="visible" id="r"><path style="stroke:none" d="M2.734-1.875c.239.031.442.117.61.25.176.137.312.305.406.5.094.2.14.43.14.688 0 .324-.078.601-.234.843A1.6 1.6 0 0 1 3 .97a2.15 2.15 0 0 1-.953.203A2.19 2.19 0 0 1 .984.922 1.587 1.587 0 0 1 .297.25l.375-.344c.125.227.297.41.515.547.227.145.516.219.86.219.394 0 .707-.102.937-.297.227-.188.344-.46.344-.828 0-.352-.121-.64-.36-.86-.241-.218-.585-.328-1.03-.328h-.204v-.453h.22c.405 0 .718-.094.937-.281a.945.945 0 0 0 .328-.734.941.941 0 0 0-.156-.547.875.875 0 0 0-.407-.328 1.534 1.534 0 0 0-.594-.11c-.304 0-.57.07-.796.203a1.39 1.39 0 0 0-.532.563l-.343-.344c.093-.176.222-.332.39-.469.164-.144.364-.254.594-.328a2.15 2.15 0 0 1 .734-.125c.332 0 .625.063.875.188.25.117.442.281.579.5.144.21.218.46.218.75 0 .21-.043.406-.125.594a1.26 1.26 0 0 1-.36.453 1.304 1.304 0 0 1-.562.234Zm0 0"/></symbol><symbol overflow="visible" id="t"><path style="stroke:none" d="M2.594-.203a2.28 2.28 0 0 1-.203.094A1.897 1.897 0 0 1 2.062 0a1.68 1.68 0 0 1-.406.047 1.21 1.21 0 0 1-.436-.078.787.787 0 0 1-.33-.266.773.773 0 0 1-.124-.453v-2.969H.203v-.437h.563v-1.39h.546v1.39h.954v.437h-.954v2.813c.008.156.063.273.157.344a.57.57 0 0 0 .343.109c.157 0 .29-.024.407-.078.125-.051.203-.086.234-.11Zm0 0"/></symbol><symbol overflow="visible" id="u"><path style="stroke:none" d="M4.094 0h-.547v-2.313c0-.468-.086-.82-.25-1.062a.813.813 0 0 0-.703-.36c-.211 0-.414.055-.61.157a1.89 1.89 0 0 0-.53.422c-.15.18-.25.383-.313.61V0H.594v-5.813h.547v2.594c.164-.3.394-.539.687-.719a1.69 1.69 0 0 1 .938-.28c.238 0 .441.042.609.124a.917.917 0 0 1 .406.375c.102.156.18.344.235.563.05.21.078.449.078.719Zm0 0"/></symbol><symbol overflow="visible" id="v"><path style="stroke:none" d="M.516 0v-.781h.468V0Zm0 0"/></symbol><symbol overflow="visible" id="q"><path style="stroke:none" d="M1.906-2.5a.524.524 0 1 0-1.047.016.524.524 0 0 0 1.047-.016Zm0 0"/></symbol><symbol overflow="visible" id="x"><path style="stroke:none" d="M.86-7.078 3.39-.875l2.516-6.203h.735L3.703 0h-.625L.125-7.078Zm0 0"/></symbol><symbol overflow="visible" id="y"><path style="stroke:none" d="M2.953.094c-.367 0-.71-.07-1.031-.203a2.51 2.51 0 0 1-.813-.594A2.774 2.774 0 0 1 .39-2.578c0-.375.063-.723.188-1.047.125-.32.3-.61.531-.86.239-.25.516-.44.829-.577a2.428 2.428 0 0 1 1.03-.22c.376 0 .72.075 1.032.22.313.136.582.328.813.578.226.25.406.539.53.859a2.732 2.732 0 0 1 0 2.063 2.726 2.726 0 0 1-.53.859c-.231.25-.5.45-.813.594a2.661 2.661 0 0 1-1.047.203ZM1.078-2.578c0 .387.082.742.25 1.062.164.313.39.563.672.75.29.18.61.266.953.266.352 0 .672-.094.953-.281.29-.188.52-.442.688-.766a2.15 2.15 0 0 0 .265-1.047c0-.383-.09-.734-.265-1.047a2.007 2.007 0 0 0-.688-.765 1.685 1.685 0 0 0-.953-.282 1.61 1.61 0 0 0-.937.297 2.141 2.141 0 0 0-.688.766c-.168.313-.25.664-.25 1.047Zm0 0"/></symbol><symbol overflow="visible" id="z"><path style="stroke:none" d="M.781-7.281h.672v6.11c0 .26.047.433.14.515a.54.54 0 0 0 .345.11c.113 0 .226-.009.343-.032.125-.031.235-.063.328-.094l.11.547A2.018 2.018 0 0 1 2.25 0c-.18.04-.336.063-.469.063-.304 0-.547-.086-.734-.266C.867-.391.78-.641.78-.953Zm0 0"/></symbol><symbol overflow="visible" id="A"><path style="stroke:none" d="m3.234-.25-.25.11a1.808 1.808 0 0 1-.406.14 2.07 2.07 0 0 1-.515.063c-.188 0-.372-.04-.547-.11a.906.906 0 0 1-.407-.328 1.074 1.074 0 0 1-.14-.563v-3.718H.25v-.532h.719v-1.765h.672v1.766h1.203v.53H1.64v3.532c.02.188.086.328.203.422.125.094.265.14.422.14.187 0 .359-.03.515-.093.156-.063.25-.11.281-.14Zm0 0"/></symbol><symbol overflow="visible" id="B"><path style="stroke:none" d="M.328-1.5c0-.32.094-.598.281-.828a1.75 1.75 0 0 1 .766-.547c.332-.133.71-.203 1.14-.203.258 0 .524.023.797.062.27.043.508.102.72.172v-.437c0-.438-.134-.785-.391-1.047-.25-.258-.606-.39-1.063-.39a2.34 2.34 0 0 0-.828.155 4.266 4.266 0 0 0-.844.454l-.265-.47a4.38 4.38 0 0 1 1-.53 3.076 3.076 0 0 1 1-.172c.632 0 1.14.183 1.515.547.375.367.563.87.563 1.515v2.406c0 .094.015.165.047.204.039.043.109.07.203.078V0c-.074.008-.14.016-.203.016a.244.244 0 0 1-.11 0 .478.478 0 0 1-.516-.469l-.015-.39c-.23.304-.531.538-.906.702a2.951 2.951 0 0 1-1.14.235 2.02 2.02 0 0 1-.907-.203 1.713 1.713 0 0 1-.625-.579A1.556 1.556 0 0 1 .328-1.5Zm3.485.406a1.1 1.1 0 0 0 .156-.265.656.656 0 0 0 .062-.235v-.765a3.861 3.861 0 0 0-.703-.188 3.49 3.49 0 0 0-.719-.078c-.492 0-.886.102-1.187.297-.293.187-.438.45-.438.781 0 .2.047.383.141.547.102.168.25.309.438.422.195.105.425.156.687.156.32 0 .625-.062.906-.187s.5-.286.656-.485Zm0 0"/></symbol><symbol overflow="visible" id="C"><path style="stroke:none" d="M2.828.063c-.355 0-.683-.07-.984-.22a2.524 2.524 0 0 1-.766-.577 2.588 2.588 0 0 1-.5-.86 2.84 2.84 0 0 1-.172-.984c0-.363.055-.707.172-1.031.113-.32.274-.61.485-.86a2.22 2.22 0 0 1 .765-.593c.29-.145.617-.22.984-.22.446 0 .833.118 1.157.345.332.218.613.496.844.828v-1.079h.593V.016c0 .476-.117.879-.343 1.203-.231.332-.54.582-.922.75a3.21 3.21 0 0 1-1.266.25c-.594 0-1.074-.11-1.438-.328a2.715 2.715 0 0 1-.906-.844L.953.719c.207.32.485.562.828.719.344.164.707.25 1.094.25.332 0 .64-.063.922-.188.289-.125.52-.313.687-.563.164-.242.25-.546.25-.921V-1a2.23 2.23 0 0 1-.812.781 2.253 2.253 0 0 1-1.094.281ZM3.016-.5c.207 0 .406-.035.593-.11.188-.07.36-.171.516-.296.164-.125.3-.258.406-.406a1.35 1.35 0 0 0 .203-.47V-3.39a2.24 2.24 0 0 0-.437-.671 1.874 1.874 0 0 0-.625-.454 1.712 1.712 0 0 0-.735-.171 1.59 1.59 0 0 0-.78.187 1.777 1.777 0 0 0-.579.5c-.156.2-.277.422-.36.672-.085.25-.124.5-.124.75 0 .281.047.547.14.797.102.25.239.476.407.672.175.199.382.351.625.453.238.105.488.156.75.156Zm0 0"/></symbol><symbol overflow="visible" id="D"><path style="stroke:none" d="M2.984.094c-.367 0-.71-.07-1.03-.203a2.453 2.453 0 0 1-.829-.594 2.852 2.852 0 0 1-.547-.86 2.865 2.865 0 0 1-.187-1.046c0-.489.109-.938.328-1.344a2.64 2.64 0 0 1 .922-.969c.394-.238.843-.36 1.343-.36.508 0 .954.126 1.329.376.382.242.687.562.906.968.218.399.328.836.328 1.313v.266H1.094c.031.375.133.71.312 1 .176.293.407.523.688.687.281.168.586.25.922.25.343 0 .664-.082.968-.25.301-.176.508-.406.625-.687l.594.156c-.105.25-.266.476-.484.672-.219.199-.48.355-.782.469a2.894 2.894 0 0 1-.953.156ZM1.078-2.844h3.844a2.17 2.17 0 0 0-.313-.984 1.887 1.887 0 0 0-.687-.672 1.83 1.83 0 0 0-.938-.25c-.336 0-.64.086-.921.25a1.857 1.857 0 0 0-.688.672c-.18.281-.277.61-.297.984Zm0 0"/></symbol><symbol overflow="visible" id="E"><path style="stroke:none" d="M2.453.094c-.43 0-.824-.07-1.187-.203A2.381 2.381 0 0 1 .312-.75l.282-.469c.289.274.582.469.875.594.3.117.617.172.953.172.406 0 .734-.078.984-.234a.792.792 0 0 0 .375-.704c0-.207-.062-.363-.187-.468-.117-.114-.29-.207-.516-.282-.23-.07-.508-.144-.828-.218a8.005 8.005 0 0 1-.906-.313 1.4 1.4 0 0 1-.547-.422c-.117-.164-.172-.39-.172-.672 0-.332.082-.609.25-.828.164-.226.395-.398.688-.515a2.79 2.79 0 0 1 1-.172c.394 0 .742.062 1.046.187.313.125.563.305.75.532l-.328.453a1.717 1.717 0 0 0-.656-.47 2.352 2.352 0 0 0-.86-.155c-.21 0-.413.03-.609.093a1.023 1.023 0 0 0-.468.282c-.125.125-.188.296-.188.515 0 .188.047.336.14.438.094.105.235.195.423.265.187.063.414.137.687.22.395.105.738.214 1.031.327.29.106.516.246.672.422.164.18.25.418.25.719 0 .492-.187.871-.562 1.14-.368.274-.844.407-1.438.407Zm0 0"/></symbol><symbol overflow="visible" id="F"><path style="stroke:none" d="M.438-3.453c0-.676.132-1.332.406-1.969.27-.644.597-1.289.984-1.937l.531.234c-.136.21-.28.46-.437.75-.149.293-.29.605-.422.938a8.68 8.68 0 0 0-.313 1.03 4.66 4.66 0 0 0-.109.985c0 .524.11 1.09.328 1.703.227.606.54 1.211.938 1.813l-.516.281a16.455 16.455 0 0 1-.734-1.266 6.76 6.76 0 0 1-.485-1.28 4.925 4.925 0 0 1-.171-1.282Zm0 0"/></symbol><symbol overflow="visible" id="G"><path style="stroke:none" d="M2.234-3.453c0 .418-.058.844-.171 1.281-.118.43-.282.856-.5 1.281-.211.418-.45.84-.72 1.266l-.5-.281a10.04 10.04 0 0 0 .923-1.813c.226-.613.343-1.18.343-1.703 0-.312-.043-.64-.125-.984a7.91 7.91 0 0 0-.328-1.032 10.404 10.404 0 0 0-.406-.937 6.964 6.964 0 0 0-.438-.75l.532-.234c.383.648.71 1.293.984 1.937.27.637.406 1.293.406 1.969Zm0 0"/></symbol><symbol overflow="visible" id="U"><path style="stroke:none" d="M3.078-7.078h.594L6.609 0h-.734l-.922-2.219H1.781L.875 0h-.75Zm1.719 4.312-1.422-3.5-1.453 3.5Zm0 0"/></symbol><symbol overflow="visible" id="V"><path style="stroke:none" d="M3 .094c-.375 0-.727-.07-1.047-.203a2.708 2.708 0 0 1-.828-.594 3.03 3.03 0 0 1-.547-.875A2.811 2.811 0 0 1 .391-2.61c0-.489.109-.938.328-1.344a2.55 2.55 0 0 1 .906-.969c.395-.238.848-.36 1.36-.36.488 0 .913.118 1.28.345.376.218.657.515.844.89l-.656.203a1.59 1.59 0 0 0-.625-.61 1.678 1.678 0 0 0-.875-.234c-.344 0-.664.094-.953.282-.281.18-.508.422-.672.734-.168.313-.25.668-.25 1.063 0 .386.082.742.25 1.062.176.324.406.578.688.766.289.187.609.281.953.281.226 0 .445-.035.656-.11a1.87 1.87 0 0 0 .547-.328.993.993 0 0 0 .312-.453l.672.204a1.69 1.69 0 0 1-.468.671c-.22.188-.477.34-.766.454-.281.101-.59.156-.922.156Zm0 0"/></symbol><symbol overflow="visible" id="W"><path style="stroke:none" d="M.703-2.14v-3.047h.672v2.921c0 .594.098 1.04.297 1.329.207.292.508.437.906.437a1.886 1.886 0 0 0 1.438-.672 2.13 2.13 0 0 0 .437-.75v-3.266h.688v4.375c0 .094.015.165.046.204.04.043.102.07.188.078V0c-.086.008-.152.016-.203.016h-.125a.579.579 0 0 1-.344-.157.466.466 0 0 1-.14-.343l-.032-.688a2.39 2.39 0 0 1-.922.938 2.5 2.5 0 0 1-1.25.328c-.554 0-.968-.188-1.25-.563C.836-.844.703-1.399.703-2.14Zm0 0"/></symbol><symbol overflow="visible" id="X"><path style="stroke:none" d="M3.406.094c-.437 0-.828-.11-1.172-.328a2.536 2.536 0 0 1-.812-.844v3.203H.75v-7.313h.61v1c.206-.32.484-.582.827-.78a2.101 2.101 0 0 1 1.11-.313c.351 0 .676.078.969.234.3.149.562.344.78.594.227.25.4.539.516.86.125.323.188.655.188 1 0 .491-.102.937-.297 1.343a2.58 2.58 0 0 1-.828.984c-.344.243-.75.36-1.219.36ZM3.203-.5c.29 0 .547-.055.766-.172.226-.113.426-.27.594-.469.164-.207.289-.43.375-.671a2.48 2.48 0 0 0 .125-.782 2.25 2.25 0 0 0-.141-.797 1.822 1.822 0 0 0-.422-.656 2.102 2.102 0 0 0-.625-.469 1.678 1.678 0 0 0-.75-.171c-.168 0-.344.039-.531.109a1.963 1.963 0 0 0-.969.703 1.184 1.184 0 0 0-.203.469v1.61A2.233 2.233 0 0 0 2.469-.671c.238.116.484.171.734.171Zm0 0"/></symbol><symbol overflow="visible" id="Y"><path style="stroke:none" d="M7.281-5.188h.672L5.72 0h-.58L4.047-2.578 2.969 0h-.594L.156-5.188h.656L2.704-.702l.953-2.344-.875-2.14h.61L4.047-3.5l.672-1.688h.593l-.859 2.141.953 2.344Zm0 0"/></symbol><symbol overflow="visible" id="Z"><path style="stroke:none" d="M3.344-4.594c-.461.012-.86.137-1.203.375-.336.242-.575.57-.72.985V0H.75v-5.188h.64v1.235a2.34 2.34 0 0 1 .704-.875c.3-.227.617-.36.953-.39h.297Zm0 0"/></symbol><symbol overflow="visible" id="aa"><path style="stroke:none" d="M1.578-5.797V0H.891v-7.078h.578l4.64 5.906v-5.89h.704V0h-.657Zm0 0"/></symbol><symbol overflow="visible" id="ab"><path style="stroke:none" d="M5.11 0h-.673v-2.906c0-.602-.093-1.047-.28-1.328-.18-.29-.462-.438-.845-.438a1.7 1.7 0 0 0-.78.203 2.103 2.103 0 0 0-.688.532 2.218 2.218 0 0 0-.422.75V0H.75v-5.188h.61v1.172c.144-.25.327-.468.546-.656.227-.195.485-.348.766-.453a2.66 2.66 0 0 1 .89-.156c.29 0 .536.054.735.156.195.105.351.258.469.453.125.2.21.438.265.719.051.273.078.574.078.906Zm0 0"/></symbol><symbol overflow="visible" id="ac"><path style="stroke:none" d="M.64-2.406v-.625h2.922v.625Zm0 0"/></symbol><symbol overflow="visible" id="ad"><path style="stroke:none" d="M8.469 0h-.672v-2.906c0-.602-.102-1.047-.297-1.328-.188-.29-.469-.438-.844-.438-.398 0-.75.14-1.062.422a2.37 2.37 0 0 0-.657 1.078V0h-.671v-2.906c0-.602-.094-1.047-.282-1.328-.187-.29-.476-.438-.859-.438-.387 0-.734.14-1.047.422a2.16 2.16 0 0 0-.656 1.063V0H.75v-5.188h.61v1.172c.218-.406.5-.718.843-.937a2.078 2.078 0 0 1 1.14-.328c.438 0 .786.125 1.048.375.27.242.437.558.5.953.238-.438.523-.766.859-.985.332-.226.71-.343 1.14-.343.29 0 .536.054.735.156.207.105.367.258.484.453.125.2.211.438.266.719.063.273.094.574.094.906Zm0 0"/></symbol><symbol overflow="visible" id="ae"><path style="stroke:none" d="M5.11 0h-.673v-2.906c0-.582-.105-1.02-.312-1.313-.21-.3-.508-.453-.89-.453-.25 0-.5.07-.75.203-.25.125-.47.305-.657.532a2.003 2.003 0 0 0-.406.75V0H.75v-7.281h.672v3.265c.207-.382.492-.691.86-.921a2.254 2.254 0 0 1 1.187-.344c.3 0 .554.054.765.156.207.105.375.262.5.469.133.199.227.433.282.703.062.273.093.574.093.906Zm0 0"/></symbol><symbol overflow="visible" id="af"><path style="stroke:none" d="M.75 0v-5.188h.672V0Zm0-6.281v-1h.672v1Zm0 0"/></symbol><symbol overflow="visible" id="H"><path style="stroke:none" d="M-7.078-3.078v-.594L0-6.609v.734l-2.219.922v3.172L0-.875v.75Zm4.312-1.719-3.5 1.422 3.5 1.453Zm0 0"/></symbol><symbol overflow="visible" id="I"><path style="stroke:none" d="M.094-3c0 .375-.07.727-.203 1.047-.145.312-.344.59-.594.828a3.03 3.03 0 0 1-.875.547 2.81 2.81 0 0 1-1.031.187c-.489 0-.938-.109-1.344-.328a2.543 2.543 0 0 1-.969-.906 2.578 2.578 0 0 1-.36-1.36c0-.488.118-.913.345-1.28.218-.376.515-.657.89-.844l.203.656a1.59 1.59 0 0 0-.61.625 1.678 1.678 0 0 0-.234.875c0 .344.094.664.282.953.18.281.422.508.734.672.313.168.668.25 1.063.25.386 0 .742-.082 1.062-.25a2.11 2.11 0 0 0 .766-.688c.187-.289.281-.609.281-.953 0-.226-.035-.445-.11-.656a1.87 1.87 0 0 0-.328-.547.993.993 0 0 0-.453-.312l.204-.672c.25.093.476.25.671.468.188.22.34.477.454.766.101.281.156.59.156.922Zm0 0"/></symbol><symbol overflow="visible" id="J"><path style="stroke:none" d="m-.25-3.234.11.25c.054.105.1.242.14.406.04.156.063.328.063.515 0 .188-.04.372-.11.547a.906.906 0 0 1-.328.407c-.156.093-.344.14-.563.14h-3.718v.719h-.532v-.719h-1.765v-.672h1.766v-1.203h.53v1.203h3.532c.188-.02.328-.086.422-.203a.686.686 0 0 0 .14-.422c0-.187-.03-.359-.093-.515-.063-.156-.11-.25-.14-.281Zm0 0"/></symbol><symbol overflow="visible" id="K"><path style="stroke:none" d="M0-.75h-5.188v-.672H0Zm-6.281 0h-1v-.672h1Zm0 0"/></symbol><symbol overflow="visible" id="L"><path style="stroke:none" d="m0-2.297-5.188 2.11v-.704l4.516-1.78-4.516-1.782v-.672L0-3.015Zm0 0"/></symbol><symbol overflow="visible" id="M"><path style="stroke:none" d="M.094-2.984c0 .367-.07.71-.203 1.03a2.453 2.453 0 0 1-.594.829c-.25.23-.535.414-.86.547-.32.125-.671.187-1.046.187-.489 0-.938-.109-1.344-.328a2.645 2.645 0 0 1-.969-.922 2.552 2.552 0 0 1-.36-1.343c0-.508.126-.954.376-1.329a2.58 2.58 0 0 1 .968-.906 2.682 2.682 0 0 1 1.313-.328h.266v4.453c.375-.031.71-.133 1-.312.293-.176.523-.407.687-.688.168-.281.25-.586.25-.922 0-.343-.082-.664-.25-.968a1.429 1.429 0 0 0-.687-.625l.156-.594c.25.105.476.266.672.484.199.219.355.48.469.782.101.292.156.609.156.953Zm-2.938 1.906v-3.844a2.17 2.17 0 0 0-.984.313 1.88 1.88 0 0 0-.672.687 1.83 1.83 0 0 0-.25.938c0 .336.086.64.25.921.156.282.383.512.672.688.281.18.61.277.984.297Zm0 0"/></symbol><symbol overflow="visible" id="N"><path style="stroke:none" d="M.094-3.406c0 .437-.11.828-.328 1.172a2.536 2.536 0 0 1-.844.812h3.203v.672h-7.313v-.61h1a2.409 2.409 0 0 1-.78-.827 2.108 2.108 0 0 1-.313-1.11c0-.351.078-.676.234-.969.149-.3.344-.562.594-.78a2.6 2.6 0 0 1 .86-.516 2.752 2.752 0 0 1 1-.188c.491 0 .937.102 1.343.297.406.2.734.476.984.828.243.344.36.75.36 1.219Zm-.594.203c0-.29-.055-.547-.172-.766a1.858 1.858 0 0 0-.469-.594 2.328 2.328 0 0 0-.671-.375 2.48 2.48 0 0 0-.782-.125 2.25 2.25 0 0 0-.797.141c-.25.094-.468.234-.656.422a2.13 2.13 0 0 0-.469.625c-.113.23-.171.48-.171.75 0 .168.039.344.109.531a1.963 1.963 0 0 0 .703.969c.148.105.305.172.469.203h1.61A2.233 2.233 0 0 0-.671-2.469c.116-.238.171-.484.171-.734Zm0 0"/></symbol><symbol overflow="visible" id="O"><path style="stroke:none" d="M.094-2.953c0 .367-.07.71-.203 1.031a2.51 2.51 0 0 1-.594.813 2.65 2.65 0 0 1-.86.53 2.75 2.75 0 0 1-1.015.188 2.88 2.88 0 0 1-1.047-.187 2.71 2.71 0 0 1-.86-.531 2.537 2.537 0 0 1-.577-.829 2.428 2.428 0 0 1-.22-1.03c0-.376.075-.72.22-1.032.136-.313.328-.582.578-.813.25-.226.539-.406.859-.53a2.732 2.732 0 0 1 2.063 0c.324.124.609.304.859.53.25.231.45.5.594.813.132.313.203.664.203 1.047Zm-2.672 1.875a2.25 2.25 0 0 0 1.062-.25c.313-.164.563-.39.75-.672.18-.29.266-.61.266-.953 0-.352-.094-.672-.281-.953a1.979 1.979 0 0 0-.766-.688 2.15 2.15 0 0 0-1.047-.265c-.383 0-.734.09-1.047.265-.32.168-.578.399-.765.688a1.685 1.685 0 0 0-.282.953c0 .344.102.656.297.937.188.282.446.512.766.688.313.168.664.25 1.047.25Zm0 0"/></symbol><symbol overflow="visible" id="P"><path style="stroke:none" d="M-5.188-7.281v-.672L0-5.72v.578l-2.578 1.094L0-2.969v.594L-5.188-.156v-.656l4.485-1.891-2.344-.953-2.14.875v-.61l1.687-.656-1.688-.672v-.593l2.141.859 2.344-.953Zm0 0"/></symbol><symbol overflow="visible" id="Q"><path style="stroke:none" d="M-4.594-3.344c.012.461.137.86.375 1.203.242.336.57.575.985.72H0v.671h-5.188v-.64h1.235a2.342 2.342 0 0 1-.875-.704c-.227-.3-.36-.617-.39-.953v-.297Zm0 0"/></symbol><symbol overflow="visible" id="R"><path style="stroke:none" d="M-3.453-.438a4.937 4.937 0 0 1-1.969-.406 15.364 15.364 0 0 1-1.937-.984l.234-.531c.21.136.46.28.75.437.293.149.605.29.938.422.335.125.68.23 1.03.313.345.074.673.109.985.109.524 0 1.09-.11 1.703-.328a9.008 9.008 0 0 0 1.813-.938l.281.516c-.426.273-.848.516-1.266.734a6.76 6.76 0 0 1-1.28.485 4.925 4.925 0 0 1-1.282.171Zm0 0"/></symbol><symbol overflow="visible" id="S"><path style="stroke:none" d="M-7.031-3.547v-.656l2.515-1-2.515-1v-.672L-4-5.641-.812-7l-6.266-2.563v-.75l7.078 3v.61L-3.5-5.22 0-3.72v.61L-7.078-.125v-.75l6.266-2.563L-4-4.78Zm0 0"/></symbol><symbol overflow="visible" id="T"><path style="stroke:none" d="M-3.453-2.234c.418 0 .844.058 1.281.171.43.118.856.282 1.281.5.418.211.84.45 1.266.72l-.281.5a10.04 10.04 0 0 0-1.813-.923c-.613-.226-1.18-.343-1.703-.343-.312 0-.64.043-.984.125a7.91 7.91 0 0 0-1.032.328c-.332.125-.644.261-.937.406-.29.148-.54.293-.75.438l-.234-.532a16.51 16.51 0 0 1 1.937-.984 5.006 5.006 0 0 1 1.969-.406Zm0 0"/></symbol><clipPath id="a"><path d="M0 0h499.574v273.066H0Zm0 0"/></clipPath></defs><g clip-path="url(#a)"><path style="stroke:none;fill-rule:nonzero;fill:#fff;fill-opacity:1" d="M0 273.07V-.004h499.582V273.07Zm0 0"/></g><path style="fill:none;stroke-width:.3985;stroke-linecap:butt;stroke-linejoin:miter;stroke:#bfbfbf;stroke-opacity:1;stroke-miterlimit:10" d="M-17.03-17.525v210.29m34.06-210.29v210.29m34.058-210.29v210.29M85.15-17.525v210.29m34.058-210.29v210.29m34.059-210.29v210.29m34.059-210.29v210.29m34.058-210.29v210.29m34.059-210.29v210.29m34.062-210.29v210.29m34.059-210.29v210.29m34.058-210.29v210.29M-34.061-17.525v210.29M0-17.525v210.29m34.06-210.29v210.29m34.059-210.29v210.29m34.058-210.29v210.29m34.059-210.29v210.29m34.062-210.29v210.29m34.059-210.29v210.29m34.058-210.29v210.29m34.06-210.29v210.29m34.058-210.29v210.29m34.058-210.29v210.29m34.063-210.29v210.29M-34.061 17.522h408.715M-34.061 52.573h408.715M-34.061 87.62h408.715m-408.715 35.047h408.715m-408.715 35.05h408.715M-34.061-.001h408.715m-408.715 35.05h408.715M-34.061 70.098h408.715m-408.715 35.046h408.715m-408.715 35.051h408.715m-408.715 35.047h408.715" transform="matrix(1 0 0 -1 111.69 207.577)"/><path style="fill:none;stroke-width:.19925;stroke-linecap:butt;stroke-linejoin:miter;stroke:gray;stroke-opacity:1;stroke-miterlimit:10" d="M-17.03-17.525v2.836m34.059-2.836v2.836m34.058-2.836v2.836m34.063-2.836v2.836m34.058-2.836v2.836m34.059-2.836v2.836m34.059-2.836v2.836m34.058-2.836v2.836m34.059-2.836v2.836m34.062-2.836v2.836m34.059-2.836v2.836m34.058-2.836v2.836M-17.03 192.764v-2.832m34.059 2.833v-2.833m34.058 2.833v-2.833m34.063 2.833v-2.833m34.058 2.833v-2.833m34.059 2.833v-2.833m34.059 2.833v-2.833m34.058 2.833v-2.833m34.059 2.833v-2.833m34.062 2.833v-2.833m34.059 2.833v-2.833m34.058 2.833v-2.833M-34.061-17.525v4.25M0-17.525v4.25m34.059-4.25v4.25m34.059-4.25v4.25m34.058-4.25v4.25m34.059-4.25v4.25m34.062-4.25v4.25m34.059-4.25v4.25m34.058-4.25v4.25m34.06-4.25v4.25m34.058-4.25v4.25m34.058-4.25v4.25m34.063-4.25v4.25m-408.715 206.04v-4.25M0 192.764v-4.25m34.059 4.25v-4.25m34.059 4.25v-4.25m34.058 4.25v-4.25m34.059 4.25v-4.25m34.062 4.25v-4.25m34.059 4.25v-4.25m34.058 4.25v-4.25m34.06 4.25v-4.25m34.058 4.25v-4.25m34.058 4.25v-4.25m34.063 4.25v-4.25M-34.061 17.522h2.836m-2.836 35.051h2.836m-2.836 35.047h2.836m-2.836 35.047h2.836m-2.836 35.05h2.836M374.654 17.523h-2.836m2.836 35.051h-2.836m2.836 35.047h-2.836m2.836 35.047h-2.836m2.836 35.05h-2.836M-34.061-.001h4.25m-4.25 35.05h4.25m-4.25 35.048h4.25m-4.25 35.046h4.25m-4.25 35.051h4.25m-4.25 35.047h4.25M374.654 0h-4.25m4.25 35.05h-4.25m4.25 35.048h-4.25m4.25 35.046h-4.25m4.25 35.051h-4.25m4.25 35.047h-4.25" transform="matrix(1 0 0 -1 111.69 207.577)"/><path style="fill:none;stroke-width:.3985;stroke-linecap:butt;stroke-linejoin:miter;stroke:#000;stroke-opacity:1;stroke-miterlimit:10" d="M-34.061-17.525v210.29h408.715v-210.29Zm0 0" transform="matrix(1 0 0 -1 111.69 207.577)"/><g style="fill:#000;fill-opacity:1"><use xlink:href="#b" x="67.668" y="234.569"/><use xlink:href="#c" x="72.859" y="234.569"/><use xlink:href="#c" x="78.956" y="234.569"/></g><g style="fill:#000;fill-opacity:1"><use xlink:href="#b" x="102.061" y="234.569"/><use xlink:href="#c" x="107.252" y="234.569"/><use xlink:href="#d" x="113.349" y="234.569"/></g><g style="fill:#000;fill-opacity:1"><use xlink:href="#b" x="136.702" y="234.569"/><use xlink:href="#e" x="141.893" y="234.569"/><use xlink:href="#c" x="146.157" y="234.569"/></g><g style="fill:#000;fill-opacity:1"><use xlink:href="#b" x="171.095" y="234.41"/><use xlink:href="#e" x="176.286" y="234.41"/><use xlink:href="#d" x="180.55" y="234.41"/></g><g style="fill:#000;fill-opacity:1"><use xlink:href="#b" x="204.357" y="234.569"/><use xlink:href="#b" x="209.548" y="234.569"/><use xlink:href="#c" x="214.738" y="234.569"/></g><g style="fill:#000;fill-opacity:1"><use xlink:href="#b" x="238.749" y="234.41"/><use xlink:href="#b" x="243.94" y="234.41"/><use xlink:href="#d" x="249.13" y="234.41"/></g><g style="fill:#000;fill-opacity:1"><use xlink:href="#b" x="272.41" y="234.569"/><use xlink:href="#f" x="277.601" y="234.569"/><use xlink:href="#c" x="282.921" y="234.569"/></g><g style="fill:#000;fill-opacity:1"><use xlink:href="#b" x="306.802" y="234.41"/><use xlink:href="#f" x="311.993" y="234.41"/><use xlink:href="#d" x="317.313" y="234.41"/></g><g style="fill:#000;fill-opacity:1"><use xlink:href="#b" x="341.738" y="234.569"/><use xlink:href="#g" x="346.929" y="234.569"/><use xlink:href="#c" x="352.368" y="234.569"/></g><use xlink:href="#h" x="341.266" y="246.524" style="fill:#000;fill-opacity:1"/><g style="fill:#000;fill-opacity:1"><use xlink:href="#i" x="348.787" y="242.606"/><use xlink:href="#j" x="353.521" y="242.606"/></g><g style="fill:#000;fill-opacity:1"><use xlink:href="#b" x="374.86" y="234.41"/><use xlink:href="#g" x="380.051" y="234.41"/><use xlink:href="#d" x="385.49" y="234.41"/></g><g style="fill:#000;fill-opacity:1"><use xlink:href="#b" x="409.86" y="234.569"/><use xlink:href="#d" x="415.051" y="234.569"/><use xlink:href="#c" x="420.48" y="234.569"/></g><use xlink:href="#h" x="406.367" y="246.524" style="fill:#000;fill-opacity:1"/><g style="fill:#000;fill-opacity:1"><use xlink:href="#k" x="413.888" y="242.606"/><use xlink:href="#l" x="421.213" y="242.606"/><use xlink:href="#m" x="425.556" y="242.606"/></g><g style="fill:#000;fill-opacity:1"><use xlink:href="#b" x="442.983" y="234.41"/><use xlink:href="#d" x="448.174" y="234.41"/><use xlink:href="#d" x="453.603" y="234.41"/></g><g style="fill:#000;fill-opacity:1"><use xlink:href="#b" x="476.419" y="235.745"/><use xlink:href="#n" x="481.61" y="235.745"/><use xlink:href="#c" x="487.617" y="235.745"/></g><g style="fill:#000;fill-opacity:1"><use xlink:href="#o" x="26.587" y="210.931"/><use xlink:href="#p" x="32.266" y="210.931"/></g><g style="fill:#000;fill-opacity:1"><use xlink:href="#k" x="38.313" y="206.962"/><use xlink:href="#l" x="45.638" y="206.962"/><use xlink:href="#m" x="49.981" y="206.962"/></g><g style="fill:#000;fill-opacity:1"><use xlink:href="#o" x="63.001" y="210.931"/><use xlink:href="#d" x="68.68" y="210.931"/></g><use xlink:href="#o" x="63.06" y="174.741" style="fill:#000;fill-opacity:1"/><use xlink:href="#g" x="68.669" y="174.741" style="fill:#000;fill-opacity:1"/><use xlink:href="#o" x="63.459" y="139.618" style="fill:#000;fill-opacity:1"/><use xlink:href="#f" x="68.789" y="139.618" style="fill:#000;fill-opacity:1"/><use xlink:href="#o" x="63.28" y="105.328" style="fill:#000;fill-opacity:1"/><use xlink:href="#b" x="68.919" y="105.328" style="fill:#000;fill-opacity:1"/><use xlink:href="#o" x="64.226" y="70.23" style="fill:#000;fill-opacity:1"/><use xlink:href="#e" x="69.845" y="70.23" style="fill:#000;fill-opacity:1"/><use xlink:href="#c" x="68.012" y="35.262" style="fill:#000;fill-opacity:1"/><use xlink:href="#q" x="80.817" y="8.206" style="fill:#000;fill-opacity:1"/><g style="fill:#000;fill-opacity:1"><use xlink:href="#e" x="83.584" y="8.206"/><use xlink:href="#c" x="87.848" y="8.206"/></g><use xlink:href="#r" x="93.945" y="4.591" style="fill:#000;fill-opacity:1"/><path style="fill:none;stroke-width:.3985;stroke-linecap:butt;stroke-linejoin:miter;stroke:#bfbfbf;stroke-opacity:1;stroke-miterlimit:10" d="M-34.061 87.62h408.715" transform="matrix(1 0 0 -1 111.69 207.577)"/><path style="fill:none;stroke-width:.19925;stroke-linecap:butt;stroke-linejoin:miter;stroke:gray;stroke-opacity:1;stroke-miterlimit:10" d="M-34.061 87.62h4.25m404.465 0h-4.25" transform="matrix(1 0 0 -1 111.69 207.577)"/><use xlink:href="#s" x="31.945" y="124.084" style="fill:#000;fill-opacity:1"/><g style="fill:#000;fill-opacity:1"><use xlink:href="#t" x="38.142" y="120.165"/><use xlink:href="#u" x="40.812" y="120.165"/><use xlink:href="#v" x="45.459" y="120.165"/></g><use xlink:href="#o" x="55.967" y="124.084" style="fill:#000;fill-opacity:1"/><g style="fill:#000;fill-opacity:1"><use xlink:href="#b" x="61.606" y="124.084"/><use xlink:href="#w" x="66.796" y="124.084"/><use xlink:href="#d" x="68.679" y="124.084"/></g><path style="fill:none;stroke-width:.3985;stroke-linecap:butt;stroke-linejoin:miter;stroke:red;stroke-opacity:1;stroke-miterlimit:10" d="M.001-.001h238.414l68.118 175.242h34.058" transform="matrix(1 0 0 -1 111.69 207.577)"/><path style="fill-rule:nonzero;fill:#00c;fill-opacity:1;stroke-width:.3985;stroke-linecap:butt;stroke-linejoin:miter;stroke:#00f;stroke-opacity:1;stroke-miterlimit:10" d="M1.415 87.62a1.417 1.417 0 1 1-1.414-1.418c.782 0 1.414.637 1.414 1.418Zm6.813 0a1.417 1.417 0 1 1-2.832 0 1.417 1.417 0 1 1 2.832 0Zm6.812 0a1.418 1.418 0 1 1-2.835 0 1.418 1.418 0 0 1 2.835 0Zm6.813 0a1.418 1.418 0 1 1-2.836 0 1.418 1.418 0 0 1 2.836 0Zm6.812 0a1.42 1.42 0 0 1-1.418 1.418 1.42 1.42 0 0 1-1.417-1.418 1.42 1.42 0 0 1 1.418-1.418 1.42 1.42 0 0 1 1.417 1.418Zm6.813 0a1.418 1.418 0 1 1-2.836 0 1.418 1.418 0 0 1 2.836 0Zm6.809 0a1.417 1.417 0 1 1-1.414-1.418c.78 0 1.414.637 1.414 1.418Zm6.813 0a1.417 1.417 0 1 1-2.832 0 1.417 1.417 0 1 1 2.831 0Zm6.812 0a1.418 1.418 0 1 1-2.836 0 1.418 1.418 0 0 1 2.836 0Zm6.812 0a1.418 1.418 0 1 1-2.836 0 1.418 1.418 0 0 1 2.836 0Zm6.813 0a1.42 1.42 0 0 1-1.418 1.418A1.42 1.42 0 0 1 66.7 87.62a1.42 1.42 0 0 1 1.418-1.418 1.42 1.42 0 0 1 1.418 1.418Zm6.813 0a1.418 1.418 0 1 1-2.836 0 1.418 1.418 0 0 1 2.835 0Zm6.808 0a1.417 1.417 0 1 1-1.414-1.418c.78 0 1.414.637 1.414 1.418Zm6.812 0a1.417 1.417 0 1 1-2.832 0 1.417 1.417 0 1 1 2.832 0Zm6.813 0a1.418 1.418 0 1 1-2.836 0 1.418 1.418 0 0 1 2.836 0Zm6.812 0a1.418 1.418 0 1 1-2.836 0 1.418 1.418 0 0 1 2.836 0Zm6.813 0a1.42 1.42 0 0 1-1.418 1.418 1.42 1.42 0 0 1-1.418-1.418 1.42 1.42 0 0 1 1.418-1.418 1.42 1.42 0 0 1 1.418 1.418Zm6.812 0a1.418 1.418 0 1 1-2.836 0 1.418 1.418 0 0 1 2.836 0Zm6.809 0a1.417 1.417 0 1 1-1.414-1.418c.78 0 1.414.637 1.414 1.418Zm6.812 0a1.417 1.417 0 1 1-2.832 0 1.417 1.417 0 1 1 2.832 0Zm6.813 0a1.418 1.418 0 1 1-2.836 0 1.418 1.418 0 0 1 2.836 0Zm6.812 0a1.42 1.42 0 0 1-1.418 1.418 1.42 1.42 0 0 1-1.418-1.418 1.42 1.42 0 0 1 1.418-1.418 1.42 1.42 0 0 1 1.418 1.418Zm6.813 0a1.42 1.42 0 0 1-1.418 1.418 1.42 1.42 0 0 1-1.418-1.418 1.42 1.42 0 0 1 1.418-1.418 1.42 1.42 0 0 1 1.418 1.418Zm6.812 0a1.418 1.418 0 1 1-2.836 0 1.418 1.418 0 0 1 2.836 0Zm6.809 0a1.417 1.417 0 1 1-1.414-1.418c.781 0 1.414.637 1.414 1.418Zm6.812 0a1.417 1.417 0 1 1-2.832 0 1.417 1.417 0 1 1 2.832 0Zm6.813 0a1.418 1.418 0 1 1-2.836 0 1.418 1.418 0 0 1 2.836 0Zm6.812 0a1.42 1.42 0 0 1-1.418 1.418 1.42 1.42 0 0 1-1.418-1.418 1.42 1.42 0 0 1 1.418-1.418 1.42 1.42 0 0 1 1.418 1.418Zm6.813 0a1.42 1.42 0 0 1-1.418 1.418 1.42 1.42 0 0 1-1.418-1.418 1.42 1.42 0 0 1 1.418-1.418 1.42 1.42 0 0 1 1.418 1.418Zm6.812 0a1.418 1.418 0 1 1-2.836 0 1.418 1.418 0 0 1 2.836 0Zm6.808 0a1.417 1.417 0 1 1-1.413-1.418c.781 0 1.414.637 1.414 1.418Zm6.813 0a1.417 1.417 0 1 1-2.832 0 1.417 1.417 0 1 1 2.832 0Zm6.813 0a1.418 1.418 0 1 1-2.836 0 1.418 1.418 0 0 1 2.836 0Zm6.812 0a1.42 1.42 0 0 1-1.418 1.418 1.42 1.42 0 0 1-1.417-1.418 1.42 1.42 0 0 1 1.417-1.418 1.42 1.42 0 0 1 1.418 1.418Zm6.812 0a1.42 1.42 0 0 1-1.417 1.418 1.42 1.42 0 0 1-1.418-1.418 1.42 1.42 0 0 1 1.418-1.418 1.42 1.42 0 0 1 1.418 1.418Zm6.813 0a1.418 1.418 0 1 1-2.836 0 1.418 1.418 0 0 1 2.836 0Zm6.809 0a1.417 1.417 0 1 1-1.414-1.418c.781 0 1.414.637 1.414 1.418Zm6.813 0a1.417 1.417 0 1 1-2.832 0 1.417 1.417 0 1 1 2.832 0Zm6.812 0a1.418 1.418 0 1 1-2.836 0c0-.781.637-1.414 1.418-1.414.785 0 1.418.633 1.418 1.414Zm6.813.078a1.418 1.418 0 1 1-2.836 0 1.418 1.418 0 0 1 2.836 0Zm6.812 2.957a1.418 1.418 0 1 1-2.836 0 1.417 1.417 0 0 1 2.836 0Zm6.813 14.57c0 .782-.637 1.415-1.418 1.415a1.415 1.415 0 1 1 0-2.832c.78 0 1.418.632 1.418 1.417Zm6.808 17.445a1.417 1.417 0 1 1-1.414-1.417c.781 0 1.414.633 1.414 1.418Zm6.813 17.52a1.417 1.417 0 1 1-2.832 0 1.417 1.417 0 1 1 2.832 0Zm6.812 17.446a1.418 1.418 0 1 1-2.836 0 1.418 1.418 0 0 1 2.836 0Zm6.812 14.566a1.418 1.418 0 1 1-2.835 0 1.418 1.418 0 0 1 2.836 0Zm6.813 2.957a1.418 1.418 0 1 1-2.836 0 1.417 1.417 0 0 1 2.836 0Zm6.813.078a1.418 1.418 0 1 1-2.836 0 1.418 1.418 0 0 1 2.836 0Zm6.808.004a1.417 1.417 0 1 1-1.414-1.418c.781 0 1.414.633 1.414 1.418Zm6.813 0a1.417 1.417 0 1 1-2.832 0 1.415 1.415 0 1 1 2.832 0Zm6.813 0a1.418 1.418 0 1 1-2.837 0 1.418 1.418 0 0 1 2.836 0Zm0 0" transform="matrix(1 0 0 -1 111.69 207.577)"/><path style="fill-rule:nonzero;fill:#c00;fill-opacity:1;stroke-width:.3985;stroke-linecap:butt;stroke-linejoin:miter;stroke:red;stroke-opacity:1;stroke-miterlimit:10" d="M-1.417-1.42h2.832v2.837h-2.832Zm238.415 0h2.835v2.837h-2.835Zm68.117 175.243h2.836v2.836h-2.836Zm34.058 0h2.836v2.836h-2.836Zm0 0" transform="matrix(1 0 0 -1 111.69 207.577)"/><use xlink:href="#x" x="254.497" y="267.526" style="fill:#000;fill-opacity:1"/><g style="fill:#000;fill-opacity:1"><use xlink:href="#y" x="260.594" y="267.526"/><use xlink:href="#z" x="266.522" y="267.526"/><use xlink:href="#A" x="269.232" y="267.526"/><use xlink:href="#B" x="272.569" y="267.526"/><use xlink:href="#C" x="277.999" y="267.526"/><use xlink:href="#D" x="284.156" y="267.526"/><use xlink:href="#E" x="290.004" y="267.526"/></g><g style="fill:#000;fill-opacity:1"><use xlink:href="#F" x="297.356" y="267.526"/><use xlink:href="#x" x="300.036" y="267.526"/><use xlink:href="#G" x="306.801" y="267.526"/></g><use xlink:href="#H" x="10.683" y="159.121" style="fill:#000;fill-opacity:1"/><g style="fill:#000;fill-opacity:1"><use xlink:href="#I" x="10.683" y="152.536"/><use xlink:href="#J" x="10.683" y="147.066"/><use xlink:href="#K" x="10.683" y="143.729"/><use xlink:href="#L" x="10.683" y="141.557"/></g><use xlink:href="#M" x="10.683" y="136.426" style="fill:#000;fill-opacity:1"/><g style="fill:#000;fill-opacity:1"><use xlink:href="#N" x="10.683" y="128.038"/><use xlink:href="#O" x="10.683" y="121.891"/></g><use xlink:href="#P" x="10.683" y="116.142" style="fill:#000;fill-opacity:1"/><g style="fill:#000;fill-opacity:1"><use xlink:href="#M" x="10.683" y="108.222"/><use xlink:href="#Q" x="10.683" y="102.374"/></g><g style="fill:#000;fill-opacity:1"><use xlink:href="#R" x="10.683" y="96.566"/><use xlink:href="#S" x="10.683" y="93.886"/><use xlink:href="#T" x="10.683" y="83.465"/></g><path style="fill-rule:nonzero;fill:#fff;fill-opacity:1;stroke-width:.3985;stroke-linecap:butt;stroke-linejoin:miter;stroke:#000;stroke-opacity:1;stroke-miterlimit:10" d="M-21.6 156.768h172.187v29.489H-21.6Zm0 0" transform="matrix(1 0 0 -1 111.69 207.577)"/><path style="fill-rule:nonzero;fill:#00c;fill-opacity:1;stroke-width:.3985;stroke-linecap:butt;stroke-linejoin:miter;stroke:#00f;stroke-opacity:1;stroke-miterlimit:10" d="M9.922-.001a1.418 1.418 0 1 1-2.836 0c0-.782.637-1.414 1.418-1.414.782 0 1.418.632 1.418 1.414Zm0 0" transform="matrix(1 0 0 -1 93.277 29.69)"/><use xlink:href="#U" x="112.477" y="32.579" style="fill:#000;fill-opacity:1"/><g style="fill:#000;fill-opacity:1"><use xlink:href="#V" x="119.062" y="32.579"/><use xlink:href="#A" x="124.532" y="32.579"/><use xlink:href="#W" x="127.869" y="32.579"/><use xlink:href="#B" x="133.787" y="32.579"/><use xlink:href="#z" x="139.217" y="32.579"/></g><g style="fill:#000;fill-opacity:1"><use xlink:href="#X" x="144.168" y="32.579"/><use xlink:href="#y" x="150.315" y="32.579"/></g><use xlink:href="#Y" x="156.064" y="32.579" style="fill:#000;fill-opacity:1"/><g style="fill:#000;fill-opacity:1"><use xlink:href="#D" x="163.984" y="32.579"/><use xlink:href="#Z" x="169.832" y="32.579"/></g><path style="fill:none;stroke-width:.3985;stroke-linecap:butt;stroke-linejoin:miter;stroke:red;stroke-opacity:1;stroke-miterlimit:10" d="M0 0h17.008" transform="matrix(1 0 0 -1 93.277 42.442)"/><path style="fill-rule:nonzero;fill:#c00;fill-opacity:1;stroke-width:.3985;stroke-linecap:butt;stroke-linejoin:miter;stroke:red;stroke-opacity:1;stroke-miterlimit:10" d="M7.086-1.417h2.836v2.836H7.086Zm0 0" transform="matrix(1 0 0 -1 93.277 42.442)"/><use xlink:href="#aa" x="112.477" y="45.331" style="fill:#000;fill-opacity:1"/><g style="fill:#000;fill-opacity:1"><use xlink:href="#y" x="120.088" y="45.331"/><use xlink:href="#ab" x="126.016" y="45.331"/><use xlink:href="#ac" x="131.824" y="45.331"/><use xlink:href="#E" x="136.029" y="45.331"/><use xlink:href="#ad" x="140.841" y="45.331"/><use xlink:href="#y" x="149.996" y="45.331"/><use xlink:href="#y" x="155.924" y="45.331"/></g><g style="fill:#000;fill-opacity:1"><use xlink:href="#A" x="161.772" y="45.331"/><use xlink:href="#ae" x="165.11" y="45.331"/></g><g style="fill:#000;fill-opacity:1"><use xlink:href="#A" x="173.458" y="45.331"/><use xlink:href="#ae" x="176.796" y="45.331"/><use xlink:href="#D" x="182.604" y="45.331"/><use xlink:href="#y" x="188.452" y="45.331"/><use xlink:href="#Z" x="194.38" y="45.331"/></g><use xlink:href="#D" x="197.717" y="45.331" style="fill:#000;fill-opacity:1"/><g style="fill:#000;fill-opacity:1"><use xlink:href="#A" x="203.516" y="45.331"/><use xlink:href="#af" x="206.853" y="45.331"/><use xlink:href="#V" x="209.025" y="45.331"/><use xlink:href="#B" x="214.494" y="45.331"/><use xlink:href="#z" x="219.924" y="45.331"/></g><use xlink:href="#V" x="224.876" y="45.331" style="fill:#000;fill-opacity:1"/><g style="fill:#000;fill-opacity:1"><use xlink:href="#y" x="230.295" y="45.331"/><use xlink:href="#ab" x="236.223" y="45.331"/></g><g style="fill:#000;fill-opacity:1"><use xlink:href="#A" x="241.981" y="45.331"/><use xlink:href="#Z" x="245.319" y="45.331"/></g><g style="fill:#000;fill-opacity:1"><use xlink:href="#y" x="248.656" y="45.331"/><use xlink:href="#z" x="254.584" y="45.331"/></g></svg>
