<svg xmlns="http://www.w3.org/2000/svg" xmlns:xlink="http://www.w3.org/1999/xlink" width="269.423" height="243.163" viewBox="0 0 202.067 182.372"><defs><path id="b" d="M3.078-7.078h.594L6.609 0h-.734l-.922-2.219H1.781L.875 0h-.75Zm1.719 4.312-1.422-3.5-1.453 3.5Zm0 0"/><path id="c" d="M6.203-1.828q-.001.532-.266.953a1.87 1.87 0 0 1-.718.64A2.1 2.1 0 0 1 4.234 0H.891v-7.078h3.406q.497.001.86.266c.238.18.421.406.546.687a1.92 1.92 0 0 1-.062 1.828q-.27.456-.75.672.608.175.953.672.359.487.36 1.125m-.687-.11q-.001-.357-.172-.656a1.3 1.3 0 0 0-.438-.5 1 1 0 0 0-.61-.203H1.579v2.688h2.656q.343 0 .625-.188.293-.186.47-.484a1.25 1.25 0 0 0 .187-.657m-3.938-4.53v2.609h2.438q.34 0 .609-.188.28-.187.438-.484c.101-.196.156-.407.156-.625q-.002-.358-.157-.657a1.16 1.16 0 0 0-.406-.468.94.94 0 0 0-.578-.188Zm0 0"/><path id="d" d="M.422-3.594c0-.426.07-.847.219-1.265Q.875-5.482 1.297-6a3 3 0 0 1 1.047-.812 3.25 3.25 0 0 1 1.437-.313q.936.002 1.61.438.684.44 1 1.109l-.547.344a2.14 2.14 0 0 0-.578-.735 2 2 0 0 0-.75-.39 2.6 2.6 0 0 0-.782-.125q-.644.002-1.125.25-.487.25-.828.672a3.1 3.1 0 0 0-.5.953q-.174.516-.172 1.062 0 .598.204 1.125.199.533.562.953.358.41.844.657c.32.167.672.25 1.047.25q.404 0 .812-.141a2.6 2.6 0 0 0 .781-.422c.25-.195.446-.453.594-.766l.578.313q-.22.515-.687.89a3.2 3.2 0 0 1-1.016.563 3.5 3.5 0 0 1-1.094.188Q2.998.065 2.391-.25a3.5 3.5 0 0 1-1.063-.828 3.9 3.9 0 0 1-.672-1.188 3.9 3.9 0 0 1-.234-1.328m0 0"/><path id="e" d="M3.625-3.812v.546h-1.25v1.36H1.75v-1.36H.516v-.546H1.75v-1.344h.625v1.343Zm0 0"/><path id="f" d="M.64-2.406v-.625h4.391v.625Zm0 0"/><path id="g" d="M.86-7.078 3.39-.875l2.516-6.203h.735L3.703 0h-.625L.125-7.078Zm0 0"/><path id="j" d="M.89 0v-7.078h.688V0Zm0 0"/><path id="h" d="M.266-1.187c0-.258.07-.485.218-.672q.217-.295.61-.453c.27-.102.578-.157.922-.157.195 0 .406.024.625.063q.326.047.593.14v-.359c0-.344-.105-.617-.312-.828q-.315-.312-.86-.313-.344.001-.671.125-.316.127-.672.36l-.203-.39q.405-.266.797-.407.386-.14.796-.14.763.002 1.204.437.451.44.453 1.203v1.922q0 .112.046.172.047.045.157.046V0c-.063.008-.117.016-.156.016a.2.2 0 0 1-.094 0q-.206.001-.313-.125a.4.4 0 0 1-.094-.25l-.015-.313a1.86 1.86 0 0 1-.735.563 2.25 2.25 0 0 1-.89.187c-.274 0-.516-.058-.734-.172a1.4 1.4 0 0 1-.5-.453 1.2 1.2 0 0 1-.172-.64m2.78.312q.079-.107.126-.203.06-.107.062-.203v-.594a3 3 0 0 0-.578-.156 3 3 0 0 0-.578-.063q-.581 0-.937.235a.69.69 0 0 0-.36.625q-.001.236.11.437.124.204.359.344.232.127.547.125.389.002.719-.156c.226-.102.406-.235.53-.391m0 0"/><path id="i" d="M2.625.078q-.485.001-.906-.25a1.8 1.8 0 0 1-.64-.64V0H.593v-5.812h.547v2.53q.28-.42.672-.671c.257-.176.562-.266.906-.266q.434 0 .781.188.341.174.594.484.246.3.375.688.124.392.125.797-.002.44-.157.828-.14.376-.406.672-.268.299-.625.468-.361.172-.781.172M2.5-.39c.227 0 .438-.046.625-.14q.281-.141.484-.375.217-.233.329-.531.107-.311.109-.625 0-.436-.188-.829a1.6 1.6 0 0 0-.515-.625 1.3 1.3 0 0 0-.781-.234 1.23 1.23 0 0 0-.594.156q-.269.141-.485.375-.204.234-.343.516v1.281a.9.9 0 0 0 .156.406q.14.188.344.329.198.126.422.218c.156.055.3.078.437.078m0 0"/><path id="k" d="M2.406.078q-.469 0-.844-.172a2.1 2.1 0 0 1-.656-.468 2.26 2.26 0 0 1-.593-1.532c0-.383.085-.738.265-1.062q.265-.5.735-.781A2.06 2.06 0 0 1 2.39-4.22q.574.001 1.015.266.45.269.672.719l-.531.172a1.2 1.2 0 0 0-.485-.5 1.35 1.35 0 0 0-.703-.188q-.41 0-.75.219a1.57 1.57 0 0 0-.546.594q-.205.374-.204.843 0 .471.204.86.217.375.546.609.343.234.766.234.264 0 .516-.093.248-.106.437-.266a.9.9 0 0 0 .25-.36l.547.157q-.112.298-.375.531-.27.234-.61.375a2.2 2.2 0 0 1-.734.125m0 0"/><clipPath id="a"><path d="M0 0h202.066v182.371H0Zm0 0"/></clipPath><clipPath id="l"><path d="M0 173h9v9.371H0Zm0 0"/></clipPath><clipPath id="m"><path d="M93 178h5v4.371h-5Zm0 0"/></clipPath><clipPath id="n"><path d="M87 173h16v9.371H87Zm0 0"/></clipPath></defs><g clip-path="url(#a)"><path fill="#fff" d="M0 182.371V0h202.066v182.371Zm0 0"/></g><use xlink:href="#b" x="111.578" y="13.96"/><use xlink:href="#c" x="192.112" y="148.576"/><use xlink:href="#d" x="37.882" y="155.672"/><path fill="none" stroke="#000" stroke-miterlimit="10" stroke-width=".399" d="m114.945 17.48 30.02 51.997m13.605 23.566 30.024 51.996H128.55m-27.211 0H41.297l30.02-51.996m13.609-23.566 30.02-51.997"/><path fill="none" stroke="#000" stroke-miterlimit="10" stroke-width=".797" d="m154.152 95.594-13.605-23.567 8.836-5.101 13.61 23.566Zm0 0"/><path stroke="#000" stroke-miterlimit="10" stroke-width=".399" d="M116.305 17.48c0-.753-.61-1.363-1.36-1.363a1.361 1.361 0 0 0 0 2.723c.75 0 1.36-.61 1.36-1.36Zm73.648 127.56a1.36 1.36 0 1 0-2.72.001 1.36 1.36 0 0 0 2.72-.002Zm0 0"/><use xlink:href="#e" x="130.147" y="37.823"/><use xlink:href="#f" x="178.502" y="121.576"/><use xlink:href="#g" x="161.178" y="70.442"/><use xlink:href="#h" x="167.942" y="71.936"/><path fill="none" stroke="#000" stroke-miterlimit="10" stroke-width=".398" d="M161.18 73.41h11.605"/><use xlink:href="#f" x="174.998" y="70.442"/><use xlink:href="#g" x="182.888" y="70.442"/><use xlink:href="#i" x="189.655" y="72.829"/><path fill="none" stroke="#000" stroke-miterlimit="10" stroke-width=".398" d="M182.89 74.305h12.18"/><path stroke="#000" stroke-miterlimit="10" stroke-width=".399" d="m172.84 117.754-1.477.848 3.282 2.28-.333-3.98Zm0 0"/><use xlink:href="#j" x="157.832" y="129.634"/><use xlink:href="#h" x="160.302" y="132.021"/><use xlink:href="#i" x="164.646" y="132.021"/><path fill="none" stroke="#000" stroke-miterlimit="10" stroke-width=".398" d="M157.832 133.496h12.23"/><path fill="none" stroke="#000" stroke-miterlimit="10" stroke-width=".797" d="M101.34 139.938h27.21v10.203h-27.21Zm0 0"/><path stroke="#000" stroke-miterlimit="10" stroke-width=".399" d="M189.953 145.04a1.36 1.36 0 1 0-2.72.001 1.36 1.36 0 0 0 2.72-.002Zm-147.297 0a1.36 1.36 0 1 0-2.717.002 1.36 1.36 0 0 0 2.717-.003Zm0 0"/><use xlink:href="#e" x="161.233" y="153.12"/><use xlink:href="#f" x="63.751" y="153.12"/><use xlink:href="#g" x="97.983" y="162.638"/><use xlink:href="#i" x="104.747" y="165.025"/><path fill="none" stroke="#000" stroke-miterlimit="10" stroke-width=".398" d="M97.984 166.5h12.18"/><use xlink:href="#f" x="112.377" y="162.638"/><use xlink:href="#g" x="120.267" y="162.638"/><use xlink:href="#k" x="127.034" y="164.133"/><path fill="none" stroke="#000" stroke-miterlimit="10" stroke-width=".398" d="M120.27 165.605h11.636"/><path stroke="#000" stroke-miterlimit="10" stroke-width=".399" d="M72.805 145.04v-1.7l-3.614 1.7 3.614 1.698Zm0 0"/><use xlink:href="#j" x="65.188" y="137.06"/><use xlink:href="#i" x="67.659" y="139.447"/><use xlink:href="#k" x="72.577" y="139.447"/><path fill="none" stroke="#000" stroke-miterlimit="10" stroke-width=".398" d="M65.188 140.922h12.261"/><path fill="none" stroke="#000" stroke-miterlimit="10" stroke-width=".797" d="M89.344 72.027 75.738 95.594l-8.84-5.102 13.606-23.566Zm0 0"/><path stroke="#000" stroke-miterlimit="10" stroke-width=".399" d="M42.656 145.04a1.36 1.36 0 1 0-2.717.002 1.36 1.36 0 0 0 2.717-.003Zm73.649-127.56c0-.753-.61-1.363-1.36-1.363a1.361 1.361 0 0 0 0 2.723c.75 0 1.36-.61 1.36-1.36Zm0 0"/><use xlink:href="#e" x="47.254" y="121.576"/><use xlink:href="#f" x="94.065" y="37.823"/><use xlink:href="#g" x="35.362" y="71.334"/><use xlink:href="#k" x="42.127" y="72.829"/><path fill="none" stroke="#000" stroke-miterlimit="10" stroke-width=".398" d="M35.363 74.305H47"/><use xlink:href="#f" x="49.214" y="71.334"/><use xlink:href="#g" x="57.104" y="71.334"/><use xlink:href="#h" x="63.871" y="72.829"/><path fill="none" stroke="#000" stroke-miterlimit="10" stroke-width=".398" d="M57.105 74.305h11.61"/><path stroke="#000" stroke-miterlimit="10" stroke-width=".399" d="m99.191 44.766 1.473.851.332-3.98-3.277 2.277Zm0 0"/><use xlink:href="#j" x="103.455" y="54.071"/><use xlink:href="#k" x="105.926" y="55.566"/><use xlink:href="#h" x="110.302" y="55.566"/><path fill="none" stroke="#000" stroke-miterlimit="10" stroke-width=".398" d="M103.453 57.04h11.692"/><path fill="none" stroke="#000" stroke-miterlimit="10" stroke-width=".399" d="M1.559 17.48H58.25m0 0h56.695"/><path stroke="#000" stroke-miterlimit="10" stroke-width=".399" d="M2.918 17.48a1.359 1.359 0 1 0-2.719 0 1.36 1.36 0 0 0 2.719 0Zm113.387 0c0-.753-.61-1.363-1.36-1.363a1.361 1.361 0 0 0 0 2.723c.75 0 1.36-.61 1.36-1.36Zm-59.543 0v1.7l3.617-1.7-3.617-1.703Zm0 0"/><use xlink:href="#j" x="54.596" y="10.394"/><use xlink:href="#h" x="57.067" y="11.888"/><path fill="none" stroke="#000" stroke-miterlimit="10" stroke-width=".398" d="M54.598 13.363h7.312"/><path fill="none" stroke="#000" stroke-miterlimit="10" stroke-width=".399" d="M188.594 145.04v35.433m-187.035 0h93.515m0 0h93.52"/><path d="M2.918 180.473a1.36 1.36 0 1 0-2.72.002 1.36 1.36 0 0 0 2.72-.002m0 0"/><g clip-path="url(#l)"><path fill="none" stroke="#000" stroke-miterlimit="10" stroke-width=".399" d="M2.918 180.473a1.36 1.36 0 1 0-2.72.002 1.36 1.36 0 0 0 2.72-.002Zm0 0"/></g><g clip-path="url(#m)"><path d="M93.586 180.473v1.699l3.613-1.7-3.613-1.699Zm0 0"/></g><g clip-path="url(#n)"><path fill="none" stroke="#000" stroke-miterlimit="10" stroke-width=".399" d="M93.586 180.473v1.699l3.613-1.7-3.613-1.699Zm0 0"/></g><use xlink:href="#j" x="91.133" y="172.493"/><use xlink:href="#i" x="93.603" y="174.88"/><path fill="none" stroke="#000" stroke-miterlimit="10" stroke-width=".398" d="M91.133 176.355h7.887"/><path fill="none" stroke="#000" stroke-miterlimit="10" stroke-width=".399" d="M1.559 145.04h19.867m0 0h19.87"/><path stroke="#000" stroke-miterlimit="10" stroke-width=".399" d="M2.918 145.04a1.36 1.36 0 1 0-2.72.001 1.36 1.36 0 0 0 2.72-.002Zm17.023 0v1.698l3.614-1.699-3.614-1.7Zm0 0"/><use xlink:href="#j" x="17.757" y="137.953"/><use xlink:href="#k" x="20.228" y="139.447"/><path fill="none" stroke="#000" stroke-miterlimit="10" stroke-width=".398" d="M17.758 140.922h7.344"/></svg>
