<svg xmlns="http://www.w3.org/2000/svg" xmlns:xlink="http://www.w3.org/1999/xlink" width="269.423" height="233.715" viewBox="0 0 202.067 175.286"><defs><symbol overflow="visible" id="b"><path style="stroke:none" d="M3.078-7.078h.594L6.609 0h-.734l-.922-2.219H1.781L.875 0h-.75Zm1.719 4.312-1.422-3.5-1.453 3.5Zm0 0"/></symbol><symbol overflow="visible" id="c"><path style="stroke:none" d="M6.203-1.828c0 .355-.09.672-.266.953a1.87 1.87 0 0 1-.718.64A2.126 2.126 0 0 1 4.234 0H.891v-7.078h3.406c.332 0 .617.09.86.266.238.18.421.406.546.687a1.915 1.915 0 0 1-.062 1.828 1.63 1.63 0 0 1-.75.672c.406.117.722.34.953.672.238.324.36.7.36 1.125Zm-.687-.11c0-.238-.059-.457-.172-.656a1.293 1.293 0 0 0-.438-.5 1.003 1.003 0 0 0-.61-.203H1.579v2.688h2.656c.227 0 .438-.063.625-.188.196-.125.352-.285.47-.484a1.25 1.25 0 0 0 .187-.657Zm-3.938-4.53v2.609h2.438c.226 0 .43-.063.609-.188.188-.125.332-.285.438-.484.101-.196.156-.407.156-.625 0-.239-.055-.457-.157-.657a1.155 1.155 0 0 0-.406-.468.94.94 0 0 0-.578-.188Zm0 0"/></symbol><symbol overflow="visible" id="d"><path style="stroke:none" d="M.422-3.594c0-.426.07-.847.219-1.265.156-.414.375-.797.656-1.141a2.993 2.993 0 0 1 1.047-.813 3.25 3.25 0 0 1 1.437-.312c.625 0 1.16.148 1.61.438.457.292.789.664 1 1.109l-.547.344a2.14 2.14 0 0 0-.578-.735 2.033 2.033 0 0 0-.75-.39 2.61 2.61 0 0 0-.782-.125c-.43 0-.804.086-1.125.25-.324.168-.601.39-.828.671a3.087 3.087 0 0 0-.5.954 3.273 3.273 0 0 0-.172 1.062c0 .399.067.774.204 1.125.132.356.32.672.562.953.238.274.52.492.844.657.32.167.672.25 1.047.25.27 0 .539-.047.812-.141a2.62 2.62 0 0 0 .781-.422c.25-.195.446-.453.594-.766l.578.313c-.148.344-.375.64-.687.89a3.16 3.16 0 0 1-1.016.563 3.462 3.462 0 0 1-1.094.188c-.492 0-.937-.102-1.343-.313a3.536 3.536 0 0 1-1.063-.828 3.877 3.877 0 0 1-.672-1.188 3.918 3.918 0 0 1-.234-1.328Zm0 0"/></symbol><symbol overflow="visible" id="e"><path style="stroke:none" d="M1.578-5.797V0H.891v-7.078h.578l4.64 5.906v-5.89h.704V0h-.657Zm0 0"/></symbol><symbol overflow="visible" id="f"><path style="stroke:none" d="M3.625-3.813v.547h-1.25v1.36H1.75v-1.36H.516v-.546H1.75v-1.344h.625v1.343Zm0 0"/></symbol><symbol overflow="visible" id="g"><path style="stroke:none" d="M.64-2.406v-.625h4.391v.625Zm0 0"/></symbol><symbol overflow="visible" id="h"><path style="stroke:none" d="M.86-7.078 3.39-.875l2.516-6.203h.735L3.703 0h-.625L.125-7.078Zm0 0"/></symbol><symbol overflow="visible" id="m"><path style="stroke:none" d="M.89 0v-7.078h.688V0Zm0 0"/></symbol><symbol overflow="visible" id="i"><path style="stroke:none" d="M.266-1.188c0-.257.07-.484.218-.671.145-.196.348-.348.61-.454a2.62 2.62 0 0 1 .922-.156c.195 0 .406.024.625.063.218.031.414.078.593.14v-.359c0-.344-.105-.617-.312-.828-.211-.207-.496-.313-.86-.313-.23 0-.453.043-.671.125a3.954 3.954 0 0 0-.672.36l-.203-.39c.27-.177.535-.313.796-.407.258-.094.524-.14.797-.14.508 0 .91.148 1.204.437.3.293.453.695.453 1.203v1.922c0 .074.015.133.046.172.032.03.083.046.157.046V0c-.063.008-.117.016-.156.016a.184.184 0 0 1-.094 0c-.137 0-.242-.04-.313-.125a.407.407 0 0 1-.094-.25l-.015-.313a1.86 1.86 0 0 1-.735.563 2.25 2.25 0 0 1-.89.187c-.274 0-.516-.058-.734-.172a1.367 1.367 0 0 1-.5-.453 1.222 1.222 0 0 1-.172-.64Zm2.78.313c.052-.07.095-.14.126-.203a.43.43 0 0 0 .062-.203v-.594a3.015 3.015 0 0 0-.578-.156 2.848 2.848 0 0 0-.578-.063c-.387 0-.7.078-.937.235a.691.691 0 0 0-.36.625c0 .156.035.304.11.437.082.137.203.25.359.344.156.086.336.125.547.125.258 0 .5-.05.719-.156.226-.102.406-.235.53-.391Zm0 0"/></symbol><symbol overflow="visible" id="j"><path style="stroke:none" d="M4.094 0h-.547v-2.313c0-.488-.074-.847-.219-1.078-.148-.226-.371-.343-.672-.343-.219 0-.433.054-.64.156a1.89 1.89 0 0 0-.532.422c-.156.18-.273.383-.343.61V0H.594v-4.156h.5v.937c.113-.195.258-.367.437-.515.176-.157.38-.274.61-.36.226-.082.468-.125.718-.125.227 0 .422.043.579.125a.974.974 0 0 1 .374.36c.094.156.16.343.204.562.05.219.078.465.078.735Zm0 0"/></symbol><symbol overflow="visible" id="k"><path style="stroke:none" d="M2.625.078a1.73 1.73 0 0 1-.906-.25 1.83 1.83 0 0 1-.64-.64V0H.593v-5.813h.547v2.532c.187-.281.41-.504.671-.672.258-.176.563-.266.907-.266.289 0 .55.063.781.188.227.117.426.277.594.484.164.2.289.43.375.688.082.261.125.527.125.796 0 .293-.055.57-.157.829A2.08 2.08 0 0 1 3.405-.093c-.242.113-.5.171-.781.171ZM2.5-.39c.227 0 .438-.046.625-.14a1.56 1.56 0 0 0 .484-.375c.145-.156.254-.332.329-.531A1.902 1.902 0 0 0 3.86-2.89a1.623 1.623 0 0 0-.516-.626 1.311 1.311 0 0 0-.781-.234 1.23 1.23 0 0 0-.594.156c-.18.094-.34.219-.485.375a2.4 2.4 0 0 0-.343.516v1.281a.91.91 0 0 0 .156.406c.094.125.207.235.344.329.132.085.273.156.421.218.157.055.301.078.438.078Zm0 0"/></symbol><symbol overflow="visible" id="l"><path style="stroke:none" d="M2.406.078c-.312 0-.594-.058-.844-.172a2.06 2.06 0 0 1-.656-.469 2.263 2.263 0 0 1-.594-1.53c0-.384.086-.739.266-1.063.176-.332.422-.594.735-.781A2.055 2.055 0 0 1 2.39-4.22c.382 0 .722.09 1.015.266.301.18.524.418.672.719l-.531.171a1.22 1.22 0 0 0-.485-.5 1.353 1.353 0 0 0-.703-.187c-.273 0-.523.074-.75.219a1.57 1.57 0 0 0-.546.594c-.137.25-.204.53-.204.843 0 .313.067.602.204.86.144.25.328.453.546.609.227.156.485.234.766.234.176 0 .348-.03.516-.093.164-.07.312-.16.437-.266a.873.873 0 0 0 .25-.36l.547.157c-.074.2-.2.375-.375.531-.18.156-.383.281-.61.375a2.18 2.18 0 0 1-.734.125Zm0 0"/></symbol><clipPath id="a"><path d="M0 0h202.066v175.285H0Zm0 0"/></clipPath><clipPath id="n"><path d="M0 166h9v9.285H0Zm0 0"/></clipPath><clipPath id="o"><path d="M93 171h5v4.285h-5Zm0 0"/></clipPath><clipPath id="p"><path d="M87 166h16v9.285H87Zm0 0"/></clipPath></defs><g clip-path="url(#a)"><path style="stroke:none;fill-rule:nonzero;fill:#fff;fill-opacity:1" d="M0 175.285V0h202.066v175.285Zm0 0"/></g><use xlink:href="#b" x="111.578" y="13.961" style="fill:#000;fill-opacity:1"/><use xlink:href="#c" x="192.112" y="148.576" style="fill:#000;fill-opacity:1"/><use xlink:href="#d" x="37.882" y="155.673" style="fill:#000;fill-opacity:1"/><use xlink:href="#e" x="118.465" y="99" style="fill:#000;fill-opacity:1"/><path style="fill:none;stroke-width:.3985;stroke-linecap:butt;stroke-linejoin:miter;stroke:#000;stroke-opacity:1;stroke-miterlimit:10" d="M0 85.04v-9.922m0 0V46.204m0-27.211V0" transform="matrix(1 0 0 -1 114.945 102.52)"/><path style="fill-rule:nonzero;fill:#000;fill-opacity:1;stroke-width:.3985;stroke-linecap:butt;stroke-linejoin:miter;stroke:#000;stroke-opacity:1;stroke-miterlimit:10" d="M1.36 85.04c0 .753-.61 1.359-1.36 1.359a1.36 1.36 0 1 1 1.36-1.36Zm0 0" transform="matrix(1 0 0 -1 114.945 102.52)"/><path style="fill:none;stroke-width:.797;stroke-linecap:butt;stroke-linejoin:miter;stroke:#000;stroke-opacity:1;stroke-miterlimit:10" d="M-5.101 18.993v27.21H5.102v-27.21Zm0 0" transform="matrix(1 0 0 -1 114.945 102.52)"/><path style="fill-rule:nonzero;fill:#000;fill-opacity:1;stroke-width:.3985;stroke-linecap:butt;stroke-linejoin:miter;stroke:#000;stroke-opacity:1;stroke-miterlimit:10" d="M1.36 0a1.36 1.36 0 0 1-2.72 0 1.36 1.36 0 0 1 2.72 0Zm0 0" transform="matrix(1 0 0 -1 114.945 102.52)"/><use xlink:href="#f" x="107.89" y="48.776" style="fill:#000;fill-opacity:1"/><use xlink:href="#g" x="106.346" y="96.228" style="fill:#000;fill-opacity:1"/><use xlink:href="#h" x="70.797" y="71.675" style="fill:#000;fill-opacity:1"/><use xlink:href="#i" x="77.562" y="73.169" style="fill:#000;fill-opacity:1"/><path style="fill:none;stroke-width:.398;stroke-linecap:butt;stroke-linejoin:miter;stroke:#000;stroke-opacity:1;stroke-miterlimit:10" d="M0 0h11.605" transform="matrix(1 0 0 -1 70.797 74.644)"/><use xlink:href="#g" x="84.618" y="71.675" style="fill:#000;fill-opacity:1"/><use xlink:href="#h" x="92.508" y="71.675" style="fill:#000;fill-opacity:1"/><use xlink:href="#j" x="99.275" y="73.169" style="fill:#000;fill-opacity:1"/><path style="fill:none;stroke-width:.398;stroke-linecap:butt;stroke-linejoin:miter;stroke:#000;stroke-opacity:1;stroke-miterlimit:10" d="M.002.002h11.906" transform="matrix(1 0 0 -1 92.51 74.564)"/><path style="fill:none;stroke-width:.3985;stroke-linecap:butt;stroke-linejoin:miter;stroke:#000;stroke-opacity:1;stroke-miterlimit:10" d="m73.649-42.52-8.594 4.962m0 0-8.594 4.96L40.016-23.1M16.45-9.496 0 0" transform="matrix(1 0 0 -1 114.945 102.52)"/><path style="fill-rule:nonzero;fill:#000;fill-opacity:1;stroke-width:.3985;stroke-linecap:butt;stroke-linejoin:miter;stroke:#000;stroke-opacity:1;stroke-miterlimit:10" d="M75.008-42.52a1.36 1.36 0 1 1-2.72-.001 1.36 1.36 0 0 1 2.72.002Zm0 0" transform="matrix(1 0 0 -1 114.945 102.52)"/><path style="fill:none;stroke-width:.797;stroke-linecap:butt;stroke-linejoin:miter;stroke:#000;stroke-opacity:1;stroke-miterlimit:10" d="m19-5.078 23.567-13.605-5.102-8.84L13.9-13.913Zm0 0" transform="matrix(1 0 0 -1 114.945 102.52)"/><path style="fill-rule:nonzero;fill:#000;fill-opacity:1;stroke-width:.3985;stroke-linecap:butt;stroke-linejoin:miter;stroke:#000;stroke-opacity:1;stroke-miterlimit:10" d="M1.36 0a1.36 1.36 0 0 1-2.72 0 1.36 1.36 0 0 1 2.72 0Zm0 0" transform="matrix(1 0 0 -1 114.945 102.52)"/><use xlink:href="#f" x="165.283" y="128.126" style="fill:#000;fill-opacity:1"/><use xlink:href="#g" x="124.189" y="104.4" style="fill:#000;fill-opacity:1"/><use xlink:href="#h" x="149.535" y="104.951" style="fill:#000;fill-opacity:1"/><use xlink:href="#k" x="156.3" y="107.338" style="fill:#000;fill-opacity:1"/><path style="fill:none;stroke-width:.398;stroke-linecap:butt;stroke-linejoin:miter;stroke:#000;stroke-opacity:1;stroke-miterlimit:10" d="M0 0h12.18" transform="matrix(1 0 0 -1 149.535 108.812)"/><use xlink:href="#g" x="163.929" y="104.951" style="fill:#000;fill-opacity:1"/><use xlink:href="#h" x="171.819" y="104.951" style="fill:#000;fill-opacity:1"/><use xlink:href="#j" x="178.586" y="106.446" style="fill:#000;fill-opacity:1"/><path style="fill:none;stroke-width:.398;stroke-linecap:butt;stroke-linejoin:miter;stroke:#000;stroke-opacity:1;stroke-miterlimit:10" d="M-.002 0h11.91" transform="matrix(1 0 0 -1 171.822 107.84)"/><path style="fill:none;stroke-width:.3985;stroke-linecap:butt;stroke-linejoin:miter;stroke:#000;stroke-opacity:1;stroke-miterlimit:10" d="m-73.648-42.52 8.594 4.962m0 0 8.59 4.96 16.449 9.497M-16.45-9.496.001 0" transform="matrix(1 0 0 -1 114.945 102.52)"/><path style="fill-rule:nonzero;fill:#000;fill-opacity:1;stroke-width:.3985;stroke-linecap:butt;stroke-linejoin:miter;stroke:#000;stroke-opacity:1;stroke-miterlimit:10" d="M-72.289-42.52a1.36 1.36 0 1 1-2.717-.002 1.36 1.36 0 0 1 2.717.003Zm0 0" transform="matrix(1 0 0 -1 114.945 102.52)"/><path style="fill:none;stroke-width:.797;stroke-linecap:butt;stroke-linejoin:miter;stroke:#000;stroke-opacity:1;stroke-miterlimit:10" d="m-13.898-13.914-23.567-13.609-5.101 8.84L-19-5.078Zm0 0" transform="matrix(1 0 0 -1 114.945 102.52)"/><path style="fill-rule:nonzero;fill:#000;fill-opacity:1;stroke-width:.3985;stroke-linecap:butt;stroke-linejoin:miter;stroke:#000;stroke-opacity:1;stroke-miterlimit:10" d="M1.36 0a1.36 1.36 0 0 1-2.72 0 1.36 1.36 0 0 1 2.72 0Zm0 0" transform="matrix(1 0 0 -1 114.945 102.52)"/><use xlink:href="#f" x="67.727" y="138.398" style="fill:#000;fill-opacity:1"/><use xlink:href="#g" x="108.822" y="114.673" style="fill:#000;fill-opacity:1"/><use xlink:href="#h" x="93.073" y="135.302" style="fill:#000;fill-opacity:1"/><use xlink:href="#l" x="99.838" y="136.796" style="fill:#000;fill-opacity:1"/><path style="fill:none;stroke-width:.398;stroke-linecap:butt;stroke-linejoin:miter;stroke:#000;stroke-opacity:1;stroke-miterlimit:10" d="M.001 0h11.637" transform="matrix(1 0 0 -1 93.073 138.27)"/><use xlink:href="#g" x="106.925" y="135.302" style="fill:#000;fill-opacity:1"/><use xlink:href="#h" x="114.815" y="135.302" style="fill:#000;fill-opacity:1"/><use xlink:href="#j" x="121.582" y="136.796" style="fill:#000;fill-opacity:1"/><path style="fill:none;stroke-width:.398;stroke-linecap:butt;stroke-linejoin:miter;stroke:#000;stroke-opacity:1;stroke-miterlimit:10" d="M-.002 0h11.91" transform="matrix(1 0 0 -1 114.818 138.191)"/><path style="fill:none;stroke-width:.3985;stroke-linecap:butt;stroke-linejoin:miter;stroke:#000;stroke-opacity:1;stroke-miterlimit:10" d="M-113.386 85.04h56.691m0 0H0" transform="matrix(1 0 0 -1 114.945 102.52)"/><path style="fill-rule:nonzero;fill:#000;fill-opacity:1;stroke-width:.3985;stroke-linecap:butt;stroke-linejoin:miter;stroke:#000;stroke-opacity:1;stroke-miterlimit:10" d="M-112.027 85.04a1.359 1.359 0 1 1-2.719-.001 1.36 1.36 0 0 1 2.719 0Zm113.387 0c0 .753-.61 1.359-1.36 1.359a1.36 1.36 0 1 1 1.36-1.36Zm-59.543 0v-1.7l3.617 1.7-3.617 1.703Zm0 0" transform="matrix(1 0 0 -1 114.945 102.52)"/><use xlink:href="#m" x="54.596" y="10.394" style="fill:#000;fill-opacity:1"/><use xlink:href="#i" x="57.067" y="11.889" style="fill:#000;fill-opacity:1"/><path style="fill:none;stroke-width:.398;stroke-linecap:butt;stroke-linejoin:miter;stroke:#000;stroke-opacity:1;stroke-miterlimit:10" d="M.002 0h7.312" transform="matrix(1 0 0 -1 54.596 13.363)"/><path style="fill:none;stroke-width:.3985;stroke-linecap:butt;stroke-linejoin:miter;stroke:#000;stroke-opacity:1;stroke-miterlimit:10" d="M73.649-70.867v28.348m-187.035-28.348h93.515m0 0h93.52" transform="matrix(1 0 0 -1 114.945 102.52)"/><path style="stroke:none;fill-rule:nonzero;fill:#000;fill-opacity:1" d="M2.918 173.387a1.36 1.36 0 1 0-2.72.002 1.36 1.36 0 0 0 2.72-.002Zm0 0"/><g clip-path="url(#n)"><path style="fill:none;stroke-width:.3985;stroke-linecap:butt;stroke-linejoin:miter;stroke:#000;stroke-opacity:1;stroke-miterlimit:10" d="M-112.027-70.867a1.36 1.36 0 1 1-2.72-.002 1.36 1.36 0 0 1 2.72.002Zm0 0" transform="matrix(1 0 0 -1 114.945 102.52)"/></g><g clip-path="url(#o)"><path style="stroke:none;fill-rule:nonzero;fill:#000;fill-opacity:1" d="M93.586 173.387v1.699l3.613-1.7-3.613-1.698Zm0 0"/></g><g clip-path="url(#p)"><path style="fill:none;stroke-width:.3985;stroke-linecap:butt;stroke-linejoin:miter;stroke:#000;stroke-opacity:1;stroke-miterlimit:10" d="M-21.36-70.867v-1.699l3.614 1.7-3.613 1.698Zm0 0" transform="matrix(1 0 0 -1 114.945 102.52)"/></g><use xlink:href="#m" x="91.133" y="165.407" style="fill:#000;fill-opacity:1"/><use xlink:href="#k" x="93.603" y="167.794" style="fill:#000;fill-opacity:1"/><path style="fill:none;stroke-width:.398;stroke-linecap:butt;stroke-linejoin:miter;stroke:#000;stroke-opacity:1;stroke-miterlimit:10" d="M0-.002h7.887" transform="matrix(1 0 0 -1 91.133 169.268)"/><path style="fill:none;stroke-width:.3985;stroke-linecap:butt;stroke-linejoin:miter;stroke:#000;stroke-opacity:1;stroke-miterlimit:10" d="M-113.386-42.52h19.867m0 0h19.87" transform="matrix(1 0 0 -1 114.945 102.52)"/><path style="fill-rule:nonzero;fill:#000;fill-opacity:1;stroke-width:.3985;stroke-linecap:butt;stroke-linejoin:miter;stroke:#000;stroke-opacity:1;stroke-miterlimit:10" d="M-112.027-42.52a1.36 1.36 0 1 1-2.72-.001 1.36 1.36 0 0 1 2.72.002Zm39.738 0a1.36 1.36 0 1 1-2.717-.002 1.36 1.36 0 0 1 2.717.003Zm-22.715 0v-1.702l3.614 1.703-3.614 1.7Zm0 0" transform="matrix(1 0 0 -1 114.945 102.52)"/><use xlink:href="#m" x="17.757" y="137.953" style="fill:#000;fill-opacity:1"/><use xlink:href="#l" x="20.228" y="139.448" style="fill:#000;fill-opacity:1"/><path style="fill:none;stroke-width:.398;stroke-linecap:butt;stroke-linejoin:miter;stroke:#000;stroke-opacity:1;stroke-miterlimit:10" d="M0 0h7.345" transform="matrix(1 0 0 -1 17.757 140.922)"/><path style="fill:none;stroke-width:.3985;stroke-linecap:butt;stroke-linejoin:miter;stroke:#000;stroke-opacity:1;stroke-miterlimit:10" d="M-113.386 0h56.691m0 0H0" transform="matrix(1 0 0 -1 114.945 102.52)"/><path style="fill-rule:nonzero;fill:#000;fill-opacity:1;stroke-width:.3985;stroke-linecap:butt;stroke-linejoin:miter;stroke:#000;stroke-opacity:1;stroke-miterlimit:10" d="M-112.027 0a1.36 1.36 0 1 1-2.72-.001 1.36 1.36 0 0 1 2.72.001Zm53.844 0v-1.703L-54.566 0l-3.617 1.7Zm0 0" transform="matrix(1 0 0 -1 114.945 102.52)"/><use xlink:href="#m" x="54.445" y="95.513" style="fill:#000;fill-opacity:1"/><use xlink:href="#j" x="56.916" y="97.008" style="fill:#000;fill-opacity:1"/><path style="fill:none;stroke-width:.398;stroke-linecap:butt;stroke-linejoin:miter;stroke:#000;stroke-opacity:1;stroke-miterlimit:10" d="M0 0h7.614" transform="matrix(1 0 0 -1 54.445 98.402)"/></svg>
