<svg xmlns="http://www.w3.org/2000/svg" xmlns:xlink="http://www.w3.org/1999/xlink" width="269.423" height="233.715" viewBox="0 0 202.067 175.286"><defs><path id="b" d="M3.078-7.078h.594L6.609 0h-.734l-.922-2.219H1.781L.875 0h-.75Zm1.719 4.312-1.422-3.5-1.453 3.5Zm0 0"/><path id="c" d="M6.203-1.828q-.001.532-.266.953a1.87 1.87 0 0 1-.718.64A2.1 2.1 0 0 1 4.234 0H.891v-7.078h3.406q.497.001.86.266c.238.18.421.406.546.687a1.92 1.92 0 0 1-.062 1.828q-.27.456-.75.672.608.175.953.672.359.487.36 1.125m-.687-.11q-.001-.357-.172-.656a1.3 1.3 0 0 0-.438-.5 1 1 0 0 0-.61-.203H1.579v2.688h2.656q.343 0 .625-.188.293-.186.47-.484a1.25 1.25 0 0 0 .187-.657m-3.938-4.53v2.609h2.438q.34 0 .609-.188.28-.187.438-.484c.101-.196.156-.407.156-.625q-.002-.358-.157-.657a1.16 1.16 0 0 0-.406-.468.94.94 0 0 0-.578-.188Zm0 0"/><path id="d" d="M.422-3.594c0-.426.07-.847.219-1.265Q.875-5.482 1.297-6a3 3 0 0 1 1.047-.812 3.25 3.25 0 0 1 1.437-.313q.936.002 1.61.438.684.44 1 1.109l-.547.344a2.14 2.14 0 0 0-.578-.735 2 2 0 0 0-.75-.39 2.6 2.6 0 0 0-.782-.125q-.644.002-1.125.25-.487.25-.828.672a3.1 3.1 0 0 0-.5.953q-.174.516-.172 1.062 0 .598.204 1.125.199.533.562.953.358.41.844.657c.32.167.672.25 1.047.25q.404 0 .812-.141a2.6 2.6 0 0 0 .781-.422c.25-.195.446-.453.594-.766l.578.313q-.22.515-.687.89a3.2 3.2 0 0 1-1.016.563 3.5 3.5 0 0 1-1.094.188Q2.998.065 2.391-.25a3.5 3.5 0 0 1-1.063-.828 3.9 3.9 0 0 1-.672-1.188 3.9 3.9 0 0 1-.234-1.328m0 0"/><path id="e" d="M1.578-5.797V0H.891v-7.078h.578l4.64 5.906v-5.89h.704V0h-.657Zm0 0"/><path id="f" d="M.86-7.078 3.39-.875l2.516-6.203h.735L3.703 0h-.625L.125-7.078Zm0 0"/><path id="h" d="M.64-2.406v-.625h4.391v.625Zm0 0"/><path id="l" d="M.89 0v-7.078h.688V0Zm0 0"/><path id="g" d="M.266-1.187c0-.258.07-.485.218-.672q.217-.295.61-.453c.27-.102.578-.157.922-.157.195 0 .406.024.625.063q.326.047.593.14v-.359c0-.344-.105-.617-.312-.828q-.315-.312-.86-.313-.344.001-.671.125-.316.127-.672.36l-.203-.39q.405-.266.797-.407.386-.14.796-.14.763.002 1.204.437.451.44.453 1.203v1.922q0 .112.046.172.047.045.157.046V0c-.063.008-.117.016-.156.016a.2.2 0 0 1-.094 0q-.206.001-.313-.125a.4.4 0 0 1-.094-.25l-.015-.313a1.86 1.86 0 0 1-.735.563 2.25 2.25 0 0 1-.89.187c-.274 0-.516-.058-.734-.172a1.4 1.4 0 0 1-.5-.453 1.2 1.2 0 0 1-.172-.64m2.78.312q.079-.107.126-.203.06-.107.062-.203v-.594a3 3 0 0 0-.578-.156 3 3 0 0 0-.578-.063q-.581 0-.937.235a.69.69 0 0 0-.36.625q-.001.236.11.437.124.204.359.344.232.127.547.125.389.002.719-.156c.226-.102.406-.235.53-.391m0 0"/><path id="i" d="M4.094 0h-.547v-2.312q0-.733-.219-1.079-.221-.341-.672-.343-.329.001-.64.156a1.9 1.9 0 0 0-.532.422c-.156.18-.273.383-.343.61V0H.594v-4.156h.5v.937q.169-.293.437-.515c.176-.157.38-.274.61-.36.226-.082.468-.125.718-.125q.342.001.579.125a1 1 0 0 1 .374.36q.14.234.204.562.077.33.078.735Zm0 0"/><path id="j" d="M2.625.078q-.485.001-.906-.25a1.8 1.8 0 0 1-.64-.64V0H.593v-5.812h.547v2.53q.28-.42.672-.671c.257-.176.562-.266.906-.266q.434 0 .781.188.341.174.594.484.246.3.375.688.124.392.125.797-.002.44-.157.828-.14.376-.406.672-.268.299-.625.468-.361.172-.781.172M2.5-.39c.227 0 .438-.046.625-.14q.281-.141.484-.375.217-.233.329-.531.107-.311.109-.625 0-.436-.188-.829a1.6 1.6 0 0 0-.515-.625 1.3 1.3 0 0 0-.781-.234 1.23 1.23 0 0 0-.594.156q-.269.141-.485.375-.204.234-.343.516v1.281a.9.9 0 0 0 .156.406q.14.188.344.329.198.126.422.218c.156.055.3.078.437.078m0 0"/><path id="k" d="M2.406.078q-.469 0-.844-.172a2.1 2.1 0 0 1-.656-.468 2.26 2.26 0 0 1-.593-1.532c0-.383.085-.738.265-1.062q.265-.5.735-.781A2.06 2.06 0 0 1 2.39-4.22q.574.001 1.015.266.45.269.672.719l-.531.172a1.2 1.2 0 0 0-.485-.5 1.35 1.35 0 0 0-.703-.188q-.41 0-.75.219a1.57 1.57 0 0 0-.546.594q-.205.374-.204.843 0 .471.204.86.217.375.546.609.343.234.766.234.264 0 .516-.093.248-.106.437-.266a.9.9 0 0 0 .25-.36l.547.157q-.112.298-.375.531-.27.234-.61.375a2.2 2.2 0 0 1-.734.125m0 0"/><clipPath id="a"><path d="M0 0h202.066v175.285H0Zm0 0"/></clipPath><clipPath id="m"><path d="M0 166h9v9.285H0Zm0 0"/></clipPath><clipPath id="n"><path d="M93 171h5v4.285h-5Zm0 0"/></clipPath><clipPath id="o"><path d="M87 166h16v9.285H87Zm0 0"/></clipPath></defs><g clip-path="url(#a)"><path fill="#fff" d="M0 175.285V0h202.066v175.285Zm0 0"/></g><use xlink:href="#b" x="111.578" y="13.961"/><use xlink:href="#c" x="192.112" y="148.576"/><use xlink:href="#d" x="37.882" y="155.673"/><use xlink:href="#e" x="118.465" y="99"/><path fill="none" stroke="#000" stroke-miterlimit="10" stroke-width=".399" d="M114.945 17.48v9.922m0 0v28.914m-8.336 37.332V46.195m8.336 37.332v18.993"/><path stroke="#000" stroke-miterlimit="10" stroke-width=".399" d="M116.305 17.48c0-.753-.61-1.359-1.36-1.359s-1.36.606-1.36 1.36a1.36 1.36 0 0 0 2.72 0Zm0 0"/><path fill="none" stroke="#000" stroke-miterlimit="10" stroke-width=".797" d="M109.844 83.527v-27.21h10.203v27.21Zm0 0"/><path stroke="#000" stroke-miterlimit="10" stroke-width=".399" d="M116.305 102.52a1.36 1.36 0 0 0-2.72 0 1.36 1.36 0 0 0 2.72 0Zm-9.695-52.711h1.703l-1.704-3.614-1.699 3.614Zm0 0"/><use xlink:href="#f" x="70.797" y="71.675"/><use xlink:href="#g" x="77.562" y="73.169"/><path fill="none" stroke="#000" stroke-miterlimit="10" stroke-width=".398" d="M70.797 74.645h11.605"/><use xlink:href="#h" x="84.618" y="71.675"/><use xlink:href="#f" x="92.508" y="71.675"/><use xlink:href="#i" x="99.275" y="73.169"/><path fill="none" stroke="#000" stroke-miterlimit="10" stroke-width=".398" d="M92.512 74.563h11.906"/><path fill="none" stroke="#000" stroke-miterlimit="10" stroke-width=".399" d="M188.594 145.04 180 140.077m0 0-8.594-4.96-16.445-9.497m-28.164-25.883 41.094 23.727m-36.496-11.45-16.45-9.495"/><path stroke="#000" stroke-miterlimit="10" stroke-width=".399" d="M189.953 145.04a1.36 1.36 0 1 0-2.72.001 1.36 1.36 0 0 0 2.72-.002Zm0 0"/><path fill="none" stroke="#000" stroke-miterlimit="10" stroke-width=".797" d="m133.945 107.598 23.567 13.605-5.102 8.84-23.566-13.61Zm0 0"/><path stroke="#000" stroke-miterlimit="10" stroke-width=".399" d="M116.305 102.52a1.36 1.36 0 0 0-2.72 0 1.36 1.36 0 0 0 2.72 0Zm48.457 19.136-.852 1.477 3.98.332-2.28-3.281Zm0 0"/><use xlink:href="#f" x="149.535" y="104.951"/><use xlink:href="#j" x="156.3" y="107.338"/><path fill="none" stroke="#000" stroke-miterlimit="10" stroke-width=".398" d="M149.535 108.813h12.18"/><use xlink:href="#h" x="163.929" y="104.951"/><use xlink:href="#f" x="171.819" y="104.951"/><use xlink:href="#i" x="178.586" y="106.446"/><path fill="none" stroke="#000" stroke-miterlimit="10" stroke-width=".398" d="M171.82 107.84h11.91"/><path fill="none" stroke="#000" stroke-miterlimit="10" stroke-width=".399" d="m41.297 145.04 8.594-4.962m0 0 8.59-4.96 16.449-9.497m36.5-11.45-41.098 23.727m28.164-25.882 16.45-9.496"/><path stroke="#000" stroke-miterlimit="10" stroke-width=".399" d="M42.656 145.04a1.36 1.36 0 1 0-2.717.002 1.36 1.36 0 0 0 2.717-.003Zm0 0"/><path fill="none" stroke="#000" stroke-miterlimit="10" stroke-width=".797" d="M101.047 116.434 77.48 130.043l-5.101-8.84 23.566-13.605Zm0 0"/><path stroke="#000" stroke-miterlimit="10" stroke-width=".399" d="M116.305 102.52a1.36 1.36 0 0 0-2.72 0 1.36 1.36 0 0 0 2.72 0Zm-42.84 33.574-.852-1.473-2.281 3.277 3.98-.332Zm0 0"/><use xlink:href="#f" x="93.073" y="135.301"/><use xlink:href="#k" x="99.838" y="136.796"/><path fill="none" stroke="#000" stroke-miterlimit="10" stroke-width=".398" d="M93.074 138.27h11.637"/><use xlink:href="#h" x="106.925" y="135.301"/><use xlink:href="#f" x="114.815" y="135.301"/><use xlink:href="#i" x="121.582" y="136.796"/><path fill="none" stroke="#000" stroke-miterlimit="10" stroke-width=".398" d="M114.816 138.191h11.91"/><path fill="none" stroke="#000" stroke-miterlimit="10" stroke-width=".399" d="M1.559 17.48H58.25m0 0h56.695"/><path stroke="#000" stroke-miterlimit="10" stroke-width=".399" d="M2.918 17.48a1.359 1.359 0 1 0-2.719.001 1.36 1.36 0 0 0 2.719 0Zm113.387 0c0-.753-.61-1.359-1.36-1.359s-1.36.606-1.36 1.36a1.36 1.36 0 0 0 2.72 0Zm-59.543 0v1.7l3.617-1.7-3.617-1.703Zm0 0"/><use xlink:href="#l" x="54.596" y="10.394"/><use xlink:href="#g" x="57.067" y="11.889"/><path fill="none" stroke="#000" stroke-miterlimit="10" stroke-width=".398" d="M54.598 13.363h7.312"/><path fill="none" stroke="#000" stroke-miterlimit="10" stroke-width=".399" d="M1.559 173.387h93.515m0 0h93.52"/><path d="M2.918 173.387a1.36 1.36 0 1 0-2.72.002 1.36 1.36 0 0 0 2.72-.002m0 0"/><g clip-path="url(#m)"><path fill="none" stroke="#000" stroke-miterlimit="10" stroke-width=".399" d="M2.918 173.387a1.36 1.36 0 1 0-2.72.002 1.36 1.36 0 0 0 2.72-.002Zm0 0"/></g><g clip-path="url(#n)"><path d="M93.586 173.387v1.699l3.613-1.7-3.613-1.698Zm0 0"/></g><g clip-path="url(#o)"><path fill="none" stroke="#000" stroke-miterlimit="10" stroke-width=".399" d="M93.586 173.387v1.699l3.613-1.7-3.613-1.698Zm0 0"/></g><use xlink:href="#l" x="91.133" y="165.407"/><use xlink:href="#j" x="93.603" y="167.794"/><path fill="none" stroke="#000" stroke-miterlimit="10" stroke-width=".398" d="M91.133 169.27h7.887"/><path fill="none" stroke="#000" stroke-miterlimit="10" stroke-width=".399" d="M188.594 173.387v-28.348m-187.035.001h19.867m0 0h19.87"/><path stroke="#000" stroke-miterlimit="10" stroke-width=".399" d="M2.918 145.04a1.36 1.36 0 1 0-2.72.001 1.36 1.36 0 0 0 2.72-.002Zm39.738 0a1.36 1.36 0 1 0-2.717.002 1.36 1.36 0 0 0 2.717-.003Zm-22.715 0v1.702l3.614-1.703-3.614-1.7Zm0 0"/><use xlink:href="#l" x="17.757" y="137.953"/><use xlink:href="#k" x="20.228" y="139.448"/><path fill="none" stroke="#000" stroke-miterlimit="10" stroke-width=".398" d="M17.758 140.922h7.344"/><path fill="none" stroke="#000" stroke-miterlimit="10" stroke-width=".399" d="M1.559 102.52H58.25m0 0h56.695"/><path stroke="#000" stroke-miterlimit="10" stroke-width=".399" d="M2.918 102.52a1.36 1.36 0 1 0-2.72.001 1.36 1.36 0 0 0 2.72-.001Zm53.844 0v1.703l3.617-1.703-3.617-1.7Zm0 0"/><use xlink:href="#l" x="54.445" y="95.513"/><use xlink:href="#i" x="56.916" y="97.008"/><path fill="none" stroke="#000" stroke-miterlimit="10" stroke-width=".398" d="M54.445 98.402h7.614"/></svg>
