<svg xmlns="http://www.w3.org/2000/svg" xmlns:xlink="http://www.w3.org/1999/xlink" width="269.423" height="243.163" viewBox="0 0 202.067 182.372"><defs><symbol overflow="visible" id="b"><path style="stroke:none" d="M3.078-7.078h.594L6.609 0h-.734l-.922-2.219H1.781L.875 0h-.75Zm1.719 4.312-1.422-3.5-1.453 3.5Zm0 0"/></symbol><symbol overflow="visible" id="c"><path style="stroke:none" d="M6.203-1.828c0 .355-.09.672-.266.953a1.87 1.87 0 0 1-.718.64A2.126 2.126 0 0 1 4.234 0H.891v-7.078h3.406c.332 0 .617.09.86.266.238.18.421.406.546.687a1.915 1.915 0 0 1-.062 1.828 1.63 1.63 0 0 1-.75.672c.406.117.722.34.953.672.238.324.36.7.36 1.125Zm-.687-.11c0-.238-.059-.457-.172-.656a1.293 1.293 0 0 0-.438-.5 1.003 1.003 0 0 0-.61-.203H1.579v2.688h2.656c.227 0 .438-.063.625-.188.196-.125.352-.285.47-.484a1.25 1.25 0 0 0 .187-.657Zm-3.938-4.53v2.609h2.438c.226 0 .43-.063.609-.188.188-.125.332-.285.438-.484.101-.196.156-.407.156-.625 0-.239-.055-.457-.157-.657a1.155 1.155 0 0 0-.406-.468.94.94 0 0 0-.578-.188Zm0 0"/></symbol><symbol overflow="visible" id="d"><path style="stroke:none" d="M.422-3.594c0-.426.07-.847.219-1.265.156-.414.375-.797.656-1.141a2.993 2.993 0 0 1 1.047-.813 3.25 3.25 0 0 1 1.437-.312c.625 0 1.16.148 1.61.438.457.292.789.664 1 1.109l-.547.344a2.14 2.14 0 0 0-.578-.735 2.033 2.033 0 0 0-.75-.39 2.61 2.61 0 0 0-.782-.125c-.43 0-.804.086-1.125.25-.324.168-.601.39-.828.671a3.087 3.087 0 0 0-.5.954 3.273 3.273 0 0 0-.172 1.062c0 .399.067.774.204 1.125.132.356.32.672.562.953.238.274.52.492.844.657.32.167.672.25 1.047.25.27 0 .539-.047.812-.141a2.62 2.62 0 0 0 .781-.422c.25-.195.446-.453.594-.766l.578.313c-.148.344-.375.64-.687.89a3.16 3.16 0 0 1-1.016.563 3.462 3.462 0 0 1-1.094.188c-.492 0-.937-.102-1.343-.313a3.536 3.536 0 0 1-1.063-.828 3.877 3.877 0 0 1-.672-1.188 3.918 3.918 0 0 1-.234-1.328Zm0 0"/></symbol><symbol overflow="visible" id="e"><path style="stroke:none" d="M.86-7.078 3.39-.875l2.516-6.203h.735L3.703 0h-.625L.125-7.078Zm0 0"/></symbol><symbol overflow="visible" id="g"><path style="stroke:none" d="M.64-2.406v-.625h4.391v.625Zm0 0"/></symbol><symbol overflow="visible" id="i"><path style="stroke:none" d="M.89 0v-7.078h.688V0Zm0 0"/></symbol><symbol overflow="visible" id="f"><path style="stroke:none" d="M.266-1.188c0-.257.07-.484.218-.671.145-.196.348-.348.61-.454a2.62 2.62 0 0 1 .922-.156c.195 0 .406.024.625.063.218.031.414.078.593.14v-.359c0-.344-.105-.617-.312-.828-.211-.207-.496-.313-.86-.313-.23 0-.453.043-.671.125a3.954 3.954 0 0 0-.672.36l-.203-.39c.27-.177.535-.313.796-.407.258-.094.524-.14.797-.14.508 0 .91.148 1.204.437.3.293.453.695.453 1.203v1.922c0 .074.015.133.046.172.032.03.083.046.157.046V0c-.063.008-.117.016-.156.016a.184.184 0 0 1-.094 0c-.137 0-.242-.04-.313-.125a.407.407 0 0 1-.094-.25l-.015-.313a1.86 1.86 0 0 1-.735.563 2.25 2.25 0 0 1-.89.187c-.274 0-.516-.058-.734-.172a1.367 1.367 0 0 1-.5-.453 1.222 1.222 0 0 1-.172-.64Zm2.78.313c.052-.07.095-.14.126-.203a.43.43 0 0 0 .062-.203v-.594a3.015 3.015 0 0 0-.578-.156 2.848 2.848 0 0 0-.578-.063c-.387 0-.7.078-.937.235a.691.691 0 0 0-.36.625c0 .156.035.304.11.437.082.137.203.25.359.344.156.086.336.125.547.125.258 0 .5-.05.719-.156.226-.102.406-.235.53-.391Zm0 0"/></symbol><symbol overflow="visible" id="h"><path style="stroke:none" d="M2.625.078a1.73 1.73 0 0 1-.906-.25 1.83 1.83 0 0 1-.64-.64V0H.593v-5.813h.547v2.532c.187-.281.41-.504.671-.672.258-.176.563-.266.907-.266.289 0 .55.063.781.188.227.117.426.277.594.484.164.2.289.43.375.688.082.261.125.527.125.796 0 .293-.055.57-.157.829A2.08 2.08 0 0 1 3.405-.093c-.242.113-.5.171-.781.171ZM2.5-.39c.227 0 .438-.046.625-.14a1.56 1.56 0 0 0 .484-.375c.145-.156.254-.332.329-.531A1.902 1.902 0 0 0 3.86-2.89a1.623 1.623 0 0 0-.516-.626 1.311 1.311 0 0 0-.781-.234 1.23 1.23 0 0 0-.594.156c-.18.094-.34.219-.485.375a2.4 2.4 0 0 0-.343.516v1.281a.91.91 0 0 0 .156.406c.094.125.207.235.344.329.132.085.273.156.421.218.157.055.301.078.438.078Zm0 0"/></symbol><symbol overflow="visible" id="j"><path style="stroke:none" d="M2.406.078c-.312 0-.594-.058-.844-.172a2.06 2.06 0 0 1-.656-.469 2.263 2.263 0 0 1-.594-1.53c0-.384.086-.739.266-1.063.176-.332.422-.594.735-.781A2.055 2.055 0 0 1 2.39-4.22c.382 0 .722.09 1.015.266.301.18.524.418.672.719l-.531.171a1.22 1.22 0 0 0-.485-.5 1.353 1.353 0 0 0-.703-.187c-.273 0-.523.074-.75.219a1.57 1.57 0 0 0-.546.594c-.137.25-.204.53-.204.843 0 .313.067.602.204.86.144.25.328.453.546.609.227.156.485.234.766.234.176 0 .348-.03.516-.093.164-.07.312-.16.437-.266a.873.873 0 0 0 .25-.36l.547.157c-.074.2-.2.375-.375.531-.18.156-.383.281-.61.375a2.18 2.18 0 0 1-.734.125Zm0 0"/></symbol><clipPath id="a"><path d="M0 0h202.066v182.371H0Zm0 0"/></clipPath><clipPath id="k"><path d="M0 173h9v9.371H0Zm0 0"/></clipPath><clipPath id="l"><path d="M93 178h5v4.371h-5Zm0 0"/></clipPath><clipPath id="m"><path d="M87 173h16v9.371H87Zm0 0"/></clipPath></defs><g clip-path="url(#a)"><path style="stroke:none;fill-rule:nonzero;fill:#fff;fill-opacity:1" d="M0 182.371V0h202.066v182.371Zm0 0"/></g><use xlink:href="#b" x="111.578" y="13.96" style="fill:#000;fill-opacity:1"/><use xlink:href="#c" x="192.112" y="148.576" style="fill:#000;fill-opacity:1"/><use xlink:href="#d" x="37.882" y="155.672" style="fill:#000;fill-opacity:1"/><path style="fill:none;stroke-width:.3985;stroke-linecap:butt;stroke-linejoin:miter;stroke:#000;stroke-opacity:1;stroke-miterlimit:10" d="m0 85.039 30.02-51.997m38.2-49.492L19.863 67.304M43.625 9.476 73.65-42.52H13.606m-61.961-8.336h96.71m-61.96 8.336h-60.043l30.02 51.996m23.765 57.828L-68.218-16.45m38.199 49.492L0 85.04" transform="matrix(1 0 0 -1 114.945 102.519)"/><path style="fill:none;stroke-width:.797;stroke-linecap:butt;stroke-linejoin:miter;stroke:#000;stroke-opacity:1;stroke-miterlimit:10" d="M39.207 6.925 25.602 30.492l8.836 5.101 13.61-23.566Zm0 0" transform="matrix(1 0 0 -1 114.945 102.519)"/><path style="fill-rule:nonzero;fill:#000;fill-opacity:1;stroke-width:.3985;stroke-linecap:butt;stroke-linejoin:miter;stroke:#000;stroke-opacity:1;stroke-miterlimit:10" d="M1.36 85.039c0 .753-.61 1.363-1.36 1.363a1.361 1.361 0 0 1 0-2.723c.75 0 1.36.61 1.36 1.36ZM75.008-42.52a1.36 1.36 0 1 1-2.72-.002 1.36 1.36 0 0 1 2.72.002ZM21.672 64.175l1.473.848-3.281 2.281.332-3.98Zm0 0" transform="matrix(1 0 0 -1 114.945 102.519)"/><use xlink:href="#e" x="161.178" y="70.442" style="fill:#000;fill-opacity:1"/><use xlink:href="#f" x="167.942" y="71.936" style="fill:#000;fill-opacity:1"/><path style="fill:none;stroke-width:.398;stroke-linecap:butt;stroke-linejoin:miter;stroke:#000;stroke-opacity:1;stroke-miterlimit:10" d="M.002 0h11.605" transform="matrix(1 0 0 -1 161.178 73.411)"/><use xlink:href="#g" x="174.998" y="70.442" style="fill:#000;fill-opacity:1"/><use xlink:href="#e" x="182.888" y="70.442" style="fill:#000;fill-opacity:1"/><use xlink:href="#h" x="189.655" y="72.829" style="fill:#000;fill-opacity:1"/><path style="fill:none;stroke-width:.398;stroke-linecap:butt;stroke-linejoin:miter;stroke:#000;stroke-opacity:1;stroke-miterlimit:10" d="M0-.002h12.18" transform="matrix(1 0 0 -1 182.891 74.303)"/><path style="fill-rule:nonzero;fill:#000;fill-opacity:1;stroke-width:.3985;stroke-linecap:butt;stroke-linejoin:miter;stroke:#000;stroke-opacity:1;stroke-miterlimit:10" d="m57.895-15.235-1.477-.848 3.282-2.28-.333 3.98Zm0 0" transform="matrix(1 0 0 -1 114.945 102.519)"/><use xlink:href="#i" x="157.832" y="129.634" style="fill:#000;fill-opacity:1"/><g style="fill:#000;fill-opacity:1"><use xlink:href="#f" x="160.302" y="132.021"/><use xlink:href="#h" x="164.646" y="132.021"/></g><path style="fill:none;stroke-width:.398;stroke-linecap:butt;stroke-linejoin:miter;stroke:#000;stroke-opacity:1;stroke-miterlimit:10" d="M0-.001h12.23" transform="matrix(1 0 0 -1 157.832 133.495)"/><path style="fill:none;stroke-width:.797;stroke-linecap:butt;stroke-linejoin:miter;stroke:#000;stroke-opacity:1;stroke-miterlimit:10" d="M-13.605-37.419h27.21v-10.203h-27.21Zm0 0" transform="matrix(1 0 0 -1 114.945 102.519)"/><path style="fill-rule:nonzero;fill:#000;fill-opacity:1;stroke-width:.3985;stroke-linecap:butt;stroke-linejoin:miter;stroke:#000;stroke-opacity:1;stroke-miterlimit:10" d="M75.008-42.52a1.36 1.36 0 1 1-2.72-.002 1.36 1.36 0 0 1 2.72.002Zm-147.297 0a1.36 1.36 0 1 1-2.717-.002 1.36 1.36 0 0 1 2.717.002Zm117.031-8.336v-1.7l3.614 1.7-3.614 1.703Zm0 0" transform="matrix(1 0 0 -1 114.945 102.519)"/><use xlink:href="#e" x="97.983" y="162.638" style="fill:#000;fill-opacity:1"/><use xlink:href="#h" x="104.747" y="165.025" style="fill:#000;fill-opacity:1"/><path style="fill:none;stroke-width:.398;stroke-linecap:butt;stroke-linejoin:miter;stroke:#000;stroke-opacity:1;stroke-miterlimit:10" d="M.001-.001h12.18" transform="matrix(1 0 0 -1 97.983 166.499)"/><use xlink:href="#g" x="112.377" y="162.638" style="fill:#000;fill-opacity:1"/><use xlink:href="#e" x="120.267" y="162.638" style="fill:#000;fill-opacity:1"/><use xlink:href="#j" x="127.034" y="164.132" style="fill:#000;fill-opacity:1"/><path style="fill:none;stroke-width:.398;stroke-linecap:butt;stroke-linejoin:miter;stroke:#000;stroke-opacity:1;stroke-miterlimit:10" d="M0 .002h11.636" transform="matrix(1 0 0 -1 120.27 165.607)"/><path style="fill-rule:nonzero;fill:#000;fill-opacity:1;stroke-width:.3985;stroke-linecap:butt;stroke-linejoin:miter;stroke:#000;stroke-opacity:1;stroke-miterlimit:10" d="M-42.14-42.52v1.7l-3.614-1.7 3.614-1.7Zm0 0" transform="matrix(1 0 0 -1 114.945 102.519)"/><use xlink:href="#i" x="65.188" y="137.06" style="fill:#000;fill-opacity:1"/><g style="fill:#000;fill-opacity:1"><use xlink:href="#h" x="67.659" y="139.447"/><use xlink:href="#j" x="72.577" y="139.447"/></g><path style="fill:none;stroke-width:.398;stroke-linecap:butt;stroke-linejoin:miter;stroke:#000;stroke-opacity:1;stroke-miterlimit:10" d="M0 0h12.26" transform="matrix(1 0 0 -1 65.188 140.921)"/><path style="fill:none;stroke-width:.797;stroke-linecap:butt;stroke-linejoin:miter;stroke:#000;stroke-opacity:1;stroke-miterlimit:10" d="M-25.601 30.492-39.207 6.925l-8.84 5.102 13.606 23.566Zm0 0" transform="matrix(1 0 0 -1 114.945 102.519)"/><path style="fill-rule:nonzero;fill:#000;fill-opacity:1;stroke-width:.3985;stroke-linecap:butt;stroke-linejoin:miter;stroke:#000;stroke-opacity:1;stroke-miterlimit:10" d="M-72.289-42.52a1.36 1.36 0 1 1-2.717-.002 1.36 1.36 0 0 1 2.717.002ZM1.36 85.039c0 .753-.61 1.363-1.36 1.363a1.361 1.361 0 0 1 0-2.723c.75 0 1.36.61 1.36 1.36ZM-66.414-13.32l-1.472.85-.332-3.98 3.28 2.278Zm0 0" transform="matrix(1 0 0 -1 114.945 102.519)"/><use xlink:href="#e" x="35.362" y="71.334" style="fill:#000;fill-opacity:1"/><use xlink:href="#j" x="42.127" y="72.829" style="fill:#000;fill-opacity:1"/><path style="fill:none;stroke-width:.398;stroke-linecap:butt;stroke-linejoin:miter;stroke:#000;stroke-opacity:1;stroke-miterlimit:10" d="M.001-.002h11.637" transform="matrix(1 0 0 -1 35.362 74.303)"/><use xlink:href="#g" x="49.214" y="71.334" style="fill:#000;fill-opacity:1"/><use xlink:href="#e" x="57.104" y="71.334" style="fill:#000;fill-opacity:1"/><use xlink:href="#f" x="63.871" y="72.829" style="fill:#000;fill-opacity:1"/><path style="fill:none;stroke-width:.398;stroke-linecap:butt;stroke-linejoin:miter;stroke:#000;stroke-opacity:1;stroke-miterlimit:10" d="M-.002-.002h11.61" transform="matrix(1 0 0 -1 57.107 74.303)"/><path style="fill-rule:nonzero;fill:#000;fill-opacity:1;stroke-width:.3985;stroke-linecap:butt;stroke-linejoin:miter;stroke:#000;stroke-opacity:1;stroke-miterlimit:10" d="m-15.754 57.753 1.473-.851.332 3.98-3.277-2.277Zm0 0" transform="matrix(1 0 0 -1 114.945 102.519)"/><use xlink:href="#i" x="103.455" y="54.071" style="fill:#000;fill-opacity:1"/><g style="fill:#000;fill-opacity:1"><use xlink:href="#j" x="105.926" y="55.566"/><use xlink:href="#f" x="110.302" y="55.566"/></g><path style="fill:none;stroke-width:.398;stroke-linecap:butt;stroke-linejoin:miter;stroke:#000;stroke-opacity:1;stroke-miterlimit:10" d="M-.002 0H11.69" transform="matrix(1 0 0 -1 103.455 57.04)"/><path style="fill:none;stroke-width:.3985;stroke-linecap:butt;stroke-linejoin:miter;stroke:#000;stroke-opacity:1;stroke-miterlimit:10" d="M-113.386 85.039h56.691m0 0H0" transform="matrix(1 0 0 -1 114.945 102.519)"/><path style="fill-rule:nonzero;fill:#000;fill-opacity:1;stroke-width:.3985;stroke-linecap:butt;stroke-linejoin:miter;stroke:#000;stroke-opacity:1;stroke-miterlimit:10" d="M-112.027 85.039a1.359 1.359 0 1 1-2.719 0 1.36 1.36 0 0 1 2.719 0Zm113.387 0c0 .753-.61 1.363-1.36 1.363a1.361 1.361 0 0 1 0-2.723c.75 0 1.36.61 1.36 1.36Zm-59.543 0v-1.7l3.617 1.7-3.617 1.703Zm0 0" transform="matrix(1 0 0 -1 114.945 102.519)"/><use xlink:href="#i" x="54.596" y="10.394" style="fill:#000;fill-opacity:1"/><use xlink:href="#f" x="57.067" y="11.888" style="fill:#000;fill-opacity:1"/><path style="fill:none;stroke-width:.398;stroke-linecap:butt;stroke-linejoin:miter;stroke:#000;stroke-opacity:1;stroke-miterlimit:10" d="M.002-.001h7.312" transform="matrix(1 0 0 -1 54.596 13.362)"/><path style="fill:none;stroke-width:.3985;stroke-linecap:butt;stroke-linejoin:miter;stroke:#000;stroke-opacity:1;stroke-miterlimit:10" d="M73.649-42.52v-35.434m-187.035 0h93.515m0 0h93.52" transform="matrix(1 0 0 -1 114.945 102.519)"/><path style="stroke:none;fill-rule:nonzero;fill:#000;fill-opacity:1" d="M2.918 180.473a1.36 1.36 0 1 0-2.72.002 1.36 1.36 0 0 0 2.72-.002Zm0 0"/><g clip-path="url(#k)"><path style="fill:none;stroke-width:.3985;stroke-linecap:butt;stroke-linejoin:miter;stroke:#000;stroke-opacity:1;stroke-miterlimit:10" d="M-112.027-77.954a1.36 1.36 0 1 1-2.72-.002 1.36 1.36 0 0 1 2.72.002Zm0 0" transform="matrix(1 0 0 -1 114.945 102.519)"/></g><g clip-path="url(#l)"><path style="stroke:none;fill-rule:nonzero;fill:#000;fill-opacity:1" d="M93.586 180.473v1.699l3.613-1.7-3.613-1.699Zm0 0"/></g><g clip-path="url(#m)"><path style="fill:none;stroke-width:.3985;stroke-linecap:butt;stroke-linejoin:miter;stroke:#000;stroke-opacity:1;stroke-miterlimit:10" d="M-21.36-77.954v-1.699l3.614 1.7-3.613 1.699Zm0 0" transform="matrix(1 0 0 -1 114.945 102.519)"/></g><use xlink:href="#i" x="91.133" y="172.493" style="fill:#000;fill-opacity:1"/><use xlink:href="#h" x="93.603" y="174.88" style="fill:#000;fill-opacity:1"/><path style="fill:none;stroke-width:.398;stroke-linecap:butt;stroke-linejoin:miter;stroke:#000;stroke-opacity:1;stroke-miterlimit:10" d="M0-.001h7.887" transform="matrix(1 0 0 -1 91.133 176.354)"/><path style="fill:none;stroke-width:.3985;stroke-linecap:butt;stroke-linejoin:miter;stroke:#000;stroke-opacity:1;stroke-miterlimit:10" d="M-113.386-42.52h19.867m0 0h19.87" transform="matrix(1 0 0 -1 114.945 102.519)"/><path style="fill-rule:nonzero;fill:#000;fill-opacity:1;stroke-width:.3985;stroke-linecap:butt;stroke-linejoin:miter;stroke:#000;stroke-opacity:1;stroke-miterlimit:10" d="M-112.027-42.52a1.36 1.36 0 1 1-2.72-.002 1.36 1.36 0 0 1 2.72.002Zm17.023 0v-1.7l3.614 1.7-3.614 1.7Zm0 0" transform="matrix(1 0 0 -1 114.945 102.519)"/><use xlink:href="#i" x="17.757" y="137.953" style="fill:#000;fill-opacity:1"/><use xlink:href="#j" x="20.228" y="139.447" style="fill:#000;fill-opacity:1"/><path style="fill:none;stroke-width:.398;stroke-linecap:butt;stroke-linejoin:miter;stroke:#000;stroke-opacity:1;stroke-miterlimit:10" d="M0 0h7.345" transform="matrix(1 0 0 -1 17.757 140.921)"/></svg>
