<svg xmlns="http://www.w3.org/2000/svg" xmlns:xlink="http://www.w3.org/1999/xlink" width="613.62" height="262.731" viewBox="0 0 460.215 197.048"><defs><path id="b" d="M.86-7.078 3.39-.875l2.516-6.203h.735L3.703 0h-.625L.125-7.078Zm0 0"/><path id="j" d="M.89 0v-7.078h.688V0Zm0 0"/><path id="k" d="M.89 0v-7.078h2.985q.47 0 .844.187.375.188.656.516.28.33.438.719c.101.261.156.527.156.797q-.002.516-.203.968a2.05 2.05 0 0 1-.547.75q-.347.314-.828.407L6.125 0h-.781L3.672-2.61H1.578V0Zm.688-3.234h2.313c.28 0 .523-.07.734-.22q.31-.233.484-.608a1.9 1.9 0 0 0 .172-.797q-.002-.421-.203-.782a1.5 1.5 0 0 0-.516-.593 1.3 1.3 0 0 0-.718-.22H1.578Zm0 0"/><path id="l" d="M.89 0v-7.078h.688v6.453h4.094V0Zm0 0"/><path id="m" d="M7.156 0v-5.766L4.594-1.28h-.438L1.578-5.766V0H.891v-7.078h.718l2.75 4.844 2.782-4.844h.718V0Zm0 0"/><path id="c" d="M3.234-.5V0H.531v-.5h1.14v-3.406a1.1 1.1 0 0 1-.218.219q-.158.11-.36.203c-.124.062-.25.117-.374.156a1.1 1.1 0 0 1-.36.062v-.53c.125 0 .258-.032.407-.095q.216-.105.406-.234c.133-.094.25-.18.344-.266a1 1 0 0 0 .156-.156h.547V-.5Zm0 0"/><path id="d" d="m.688.64.14-.671H.641v-.75h.515v.75L.97.64Zm0 0"/><path id="e" d="M.266-1.187c0-.258.07-.485.218-.672q.217-.295.61-.453c.27-.102.578-.157.922-.157.195 0 .406.024.625.063q.326.047.593.14v-.359c0-.344-.105-.617-.312-.828q-.315-.312-.86-.313-.344.001-.671.125-.316.127-.672.36l-.203-.39q.405-.266.797-.407.386-.14.796-.14.763.002 1.204.437.451.44.453 1.203v1.922q0 .112.046.172.047.045.157.046V0c-.063.008-.117.016-.156.016a.2.2 0 0 1-.094 0q-.206.001-.313-.125a.4.4 0 0 1-.094-.25l-.015-.313a1.86 1.86 0 0 1-.735.563 2.25 2.25 0 0 1-.89.187c-.274 0-.516-.058-.734-.172a1.4 1.4 0 0 1-.5-.453 1.2 1.2 0 0 1-.172-.64m2.78.312q.079-.107.126-.203.06-.107.062-.203v-.594a3 3 0 0 0-.578-.156 3 3 0 0 0-.578-.063q-.581 0-.937.235a.69.69 0 0 0-.36.625q-.001.236.11.437.124.204.359.344.232.127.547.125.389.002.719-.156c.226-.102.406-.235.53-.391m0 0"/><path id="f" d="M2.625.078q-.485.001-.906-.25a1.8 1.8 0 0 1-.64-.64V0H.593v-5.812h.547v2.53q.28-.42.672-.671c.257-.176.562-.266.906-.266q.434 0 .781.188.341.174.594.484.246.3.375.688.124.392.125.797-.002.44-.157.828-.14.376-.406.672-.268.299-.625.468-.361.172-.781.172M2.5-.39c.227 0 .438-.046.625-.14q.281-.141.484-.375.217-.233.329-.531.107-.311.109-.625 0-.436-.188-.829a1.6 1.6 0 0 0-.515-.625 1.3 1.3 0 0 0-.781-.234 1.23 1.23 0 0 0-.594.156q-.269.141-.485.375-.204.234-.343.516v1.281a.9.9 0 0 0 .156.406q.14.188.344.329.198.126.422.218c.156.055.3.078.437.078m0 0"/><path id="g" d="M2.406.078q-.469 0-.844-.172a2.1 2.1 0 0 1-.656-.468 2.26 2.26 0 0 1-.593-1.532c0-.383.085-.738.265-1.062q.265-.5.735-.781A2.06 2.06 0 0 1 2.39-4.22q.574.001 1.015.266.45.269.672.719l-.531.172a1.2 1.2 0 0 0-.485-.5 1.35 1.35 0 0 0-.703-.188q-.41 0-.75.219a1.57 1.57 0 0 0-.546.594q-.205.374-.204.843 0 .471.204.86.217.375.546.609.343.234.766.234.264 0 .516-.093.248-.106.437-.266a.9.9 0 0 0 .25-.36l.547.157q-.112.298-.375.531-.27.234-.61.375a2.2 2.2 0 0 1-.734.125m0 0"/><path id="h" d="M4.094 0h-.547v-2.312q0-.733-.219-1.079-.221-.341-.672-.343-.329.001-.64.156a1.9 1.9 0 0 0-.532.422c-.156.18-.273.383-.343.61V0H.594v-4.156h.5v.937q.169-.293.437-.515c.176-.157.38-.274.61-.36.226-.082.468-.125.718-.125q.342.001.579.125a1 1 0 0 1 .374.36q.14.234.204.562.077.33.078.735Zm0 0"/><path id="i" d="M.344 0q0-.265.047-.547.058-.279.187-.547.14-.264.406-.515.265-.248.688-.485l.484-.219q.246-.123.469-.265c.145-.094.258-.195.344-.313a.77.77 0 0 0 .016-.812.75.75 0 0 0-.344-.313 1.3 1.3 0 0 0-.594-.125q-.252.001-.469.079a1.3 1.3 0 0 0-.36.171 2 2 0 0 0-.265.22 2 2 0 0 1-.187.171l-.344-.375.172-.172a2.3 2.3 0 0 1 .36-.25q.216-.141.515-.234.31-.094.672-.094.48.001.828.172c.226.117.406.266.531.453q.188.283.188.625 0 .328-.141.563a1.5 1.5 0 0 1-.36.406 3.5 3.5 0 0 1-.89.5 3.4 3.4 0 0 0-.625.36 2 2 0 0 0-.406.359A1.35 1.35 0 0 0 .922-.5h2.844V0Zm0 0"/><clipPath id="a"><path d="M0 0h460.215v197.047H0Zm0 0"/></clipPath></defs><g clip-path="url(#a)"><path fill="#fff" d="M.004 197.047V-.003h460.219v197.05Zm0 0"/></g><use xlink:href="#b" x="3.894" y="19.516"/><use xlink:href="#c" x="10.659" y="21.011"/><use xlink:href="#d" x="14.07" y="21.011"/><use xlink:href="#e" x="15.863" y="21.011"/><path fill="none" stroke="#000" stroke-miterlimit="10" stroke-width=".398" d="M3.895 23.05h16.808"/><use xlink:href="#b" x="3.321" y="75.763"/><use xlink:href="#c" x="10.085" y="78.15"/><use xlink:href="#d" x="13.496" y="78.15"/><use xlink:href="#f" x="15.289" y="78.15"/><path fill="none" stroke="#000" stroke-miterlimit="10" stroke-width=".398" d="M3.32 80.191h17.387"/><use xlink:href="#b" x="3.862" y="132.902"/><use xlink:href="#c" x="10.627" y="134.397"/><use xlink:href="#d" x="14.038" y="134.397"/><use xlink:href="#g" x="15.831" y="134.397"/><path fill="none" stroke="#000" stroke-miterlimit="10" stroke-width=".398" d="M3.863 136.438h16.84"/><use xlink:href="#b" x="3.591" y="189.595"/><use xlink:href="#c" x="10.356" y="191.089"/><use xlink:href="#d" x="13.767" y="191.089"/><use xlink:href="#h" x="15.56" y="191.089"/><path fill="none" stroke="#000" stroke-miterlimit="10" stroke-width=".398" d="M3.59 193.129h17.113"/><use xlink:href="#b" x="438.768" y="19.516"/><use xlink:href="#i" x="445.533" y="21.011"/><use xlink:href="#d" x="449.685" y="21.011"/><use xlink:href="#e" x="451.479" y="21.011"/><path fill="none" stroke="#000" stroke-miterlimit="10" stroke-width=".398" d="M438.77 23.05h17.55"/><use xlink:href="#b" x="438.768" y="75.763"/><use xlink:href="#i" x="445.533" y="78.15"/><use xlink:href="#d" x="449.685" y="78.15"/><use xlink:href="#f" x="451.479" y="78.15"/><path fill="none" stroke="#000" stroke-miterlimit="10" stroke-width=".398" d="M438.77 80.191h18.125"/><use xlink:href="#b" x="438.768" y="132.902"/><use xlink:href="#i" x="445.533" y="134.397"/><use xlink:href="#d" x="449.685" y="134.397"/><use xlink:href="#g" x="451.479" y="134.397"/><path fill="none" stroke="#000" stroke-miterlimit="10" stroke-width=".398" d="M438.77 136.438h17.582"/><use xlink:href="#b" x="438.768" y="189.595"/><use xlink:href="#i" x="445.533" y="191.089"/><use xlink:href="#d" x="449.685" y="191.089"/><use xlink:href="#h" x="451.479" y="191.089"/><path fill="none" stroke="#000" stroke-miterlimit="10" stroke-width=".398" d="M438.77 193.129h17.851"/><path fill="none" stroke="#000" stroke-miterlimit="10" stroke-width=".399" d="M24.227 188.121H59.66m0 0h44.082m18.14 0h17.294m18.14 0h29.907m0 0h99.214m0 0h113.387m0 0h35.434"/><path stroke="#000" stroke-miterlimit="10" stroke-width=".399" d="M25.137 188.121a.908.908 0 0 0-1.817 0 .908.908 0 0 0 1.816 0Zm70.867 0a.908.908 0 0 0-1.817 0 .908.908 0 0 0 1.816 0Zm-37.336 0v1.133l2.41-1.133-2.41-1.133Zm0 0"/><use xlink:href="#j" x="53.248" y="180.472"/><use xlink:href="#c" x="55.719" y="181.967"/><use xlink:href="#d" x="59.13" y="181.967"/><use xlink:href="#h" x="60.923" y="181.967"/><path fill="none" stroke="#000" stroke-miterlimit="10" stroke-width=".398" d="M53.246 184.008h12.82"/><path fill="none" stroke="#000" stroke-linejoin="bevel" stroke-miterlimit="10" stroke-width=".797" d="m103.344 188.121 1.91-3.402 3.023 6.804 3.024-6.804 3.023 6.804 3.024-6.804 3.023 6.804 1.91-3.402"/><use xlink:href="#k" x="106.983" y="180.505"/><use xlink:href="#h" x="113.488" y="181.999"/><path fill="none" stroke="#000" stroke-linejoin="bevel" stroke-miterlimit="10" stroke-width=".797" d="M138.777 188.281c0-1.879 1.059-3.402 2.368-3.402 1.304 0 2.367 1.523 2.367 3.402 0-1.879 1.058-3.402 2.367-3.402s2.367 1.523 2.367 3.402c0-1.879 1.059-3.402 2.367-3.402s2.367 1.523 2.367 3.402c0-1.879 1.06-3.402 2.368-3.402s2.367 1.523 2.367 3.402"/><use xlink:href="#l" x="142.764" y="180.505"/><use xlink:href="#h" x="148.573" y="181.999"/><path stroke="#000" stroke-miterlimit="10" stroke-width=".399" d="M365.297 188.121a.907.907 0 1 0-1.814.001.907.907 0 0 0 1.814 0Zm70.867 0a.907.907 0 1 0-1.814.001.907.907 0 0 0 1.814 0Zm-35.348 0v-1.133l-2.41 1.133 2.41 1.133Zm0 0"/><use xlink:href="#j" x="393.035" y="180.472"/><use xlink:href="#i" x="395.506" y="181.967"/><use xlink:href="#d" x="399.658" y="181.967"/><use xlink:href="#h" x="401.452" y="181.967"/><path fill="none" stroke="#000" stroke-miterlimit="10" stroke-width=".398" d="M393.035 184.008h13.563"/><path fill="none" stroke="#000" stroke-miterlimit="10" stroke-width=".399" d="M24.227 131.43H59.66m0 0h44.082m18.14 0h17.294m18.14 0h29.907m0 0h99.214m0 0h113.387m0 0h35.434"/><path stroke="#000" stroke-miterlimit="10" stroke-width=".399" d="M25.137 131.43a.909.909 0 1 0-1.817-.003.909.909 0 0 0 1.817.003Zm70.867 0a.909.909 0 1 0-1.817-.003.909.909 0 0 0 1.817.003Zm-37.336 0v1.132l2.41-1.132-2.41-1.137Zm0 0"/><use xlink:href="#j" x="53.384" y="123.78"/><use xlink:href="#c" x="55.854" y="125.274"/><use xlink:href="#d" x="59.265" y="125.274"/><use xlink:href="#g" x="61.058" y="125.274"/><path fill="none" stroke="#000" stroke-miterlimit="10" stroke-width=".398" d="M53.383 127.313h12.55"/><path fill="none" stroke="#000" stroke-linejoin="bevel" stroke-miterlimit="10" stroke-width=".797" d="m103.344 131.43 1.91-3.403 3.023 6.801 3.024-6.8 3.023 6.8 3.024-6.8 3.023 6.8 1.91-3.398"/><use xlink:href="#k" x="107.118" y="123.812"/><use xlink:href="#g" x="113.624" y="125.306"/><path fill="none" stroke="#000" stroke-linejoin="bevel" stroke-miterlimit="10" stroke-width=".797" d="M138.777 131.586c0-1.879 1.059-3.399 2.368-3.399 1.304 0 2.367 1.52 2.367 3.399 0-1.879 1.058-3.399 2.367-3.399s2.367 1.52 2.367 3.399c0-1.879 1.059-3.399 2.367-3.399s2.367 1.52 2.367 3.399c0-1.879 1.06-3.399 2.368-3.399s2.367 1.52 2.367 3.399"/><use xlink:href="#l" x="142.9" y="123.812"/><use xlink:href="#g" x="148.708" y="125.306"/><path stroke="#000" stroke-miterlimit="10" stroke-width=".399" d="M365.297 131.43a.91.91 0 0 0-.906-.91.908.908 0 0 0 0 1.816c.5 0 .906-.406.906-.906Zm70.867 0a.91.91 0 0 0-.906-.91.908.908 0 0 0 0 1.816c.5 0 .906-.406.906-.906Zm-35.348 0v-1.137l-2.41 1.137 2.41 1.132Zm0 0"/><use xlink:href="#j" x="393.17" y="123.78"/><use xlink:href="#i" x="395.641" y="125.274"/><use xlink:href="#d" x="399.793" y="125.274"/><use xlink:href="#g" x="401.587" y="125.274"/><path fill="none" stroke="#000" stroke-miterlimit="10" stroke-width=".398" d="M393.172 127.313h13.289"/><path fill="none" stroke="#000" stroke-miterlimit="10" stroke-width=".399" d="M24.227 74.734H59.66m0 0h44.082m18.14 0h17.294m18.14 0h29.907m0 0h99.214m0 0h113.387m0 0h35.434"/><path stroke="#000" stroke-miterlimit="10" stroke-width=".399" d="M25.137 74.734a.908.908 0 0 0-1.817 0 .908.908 0 0 0 1.816 0Zm70.867 0a.908.908 0 0 0-1.817 0 .908.908 0 0 0 1.816 0Zm-37.336 0v1.133l2.41-1.133-2.41-1.132Zm0 0"/><use xlink:href="#j" x="53.113" y="66.194"/><use xlink:href="#c" x="55.583" y="68.581"/><use xlink:href="#d" x="58.994" y="68.581"/><use xlink:href="#f" x="60.787" y="68.581"/><path fill="none" stroke="#000" stroke-miterlimit="10" stroke-width=".398" d="M53.113 70.621h13.09"/><path fill="none" stroke="#000" stroke-linejoin="bevel" stroke-miterlimit="10" stroke-width=".797" d="m103.344 74.734 1.91-3.402 3.023 6.805 3.024-6.805 3.023 6.805 3.024-6.805 3.023 6.805 1.91-3.403"/><use xlink:href="#k" x="106.847" y="67.119"/><use xlink:href="#f" x="113.353" y="69.506"/><path fill="none" stroke="#000" stroke-linejoin="bevel" stroke-miterlimit="10" stroke-width=".797" d="M138.777 74.895c0-1.88 1.059-3.403 2.368-3.403 1.304 0 2.367 1.524 2.367 3.403 0-1.88 1.058-3.403 2.367-3.403s2.367 1.524 2.367 3.403c0-1.88 1.059-3.403 2.367-3.403s2.367 1.524 2.367 3.403c0-1.88 1.06-3.403 2.368-3.403s2.367 1.524 2.367 3.403"/><use xlink:href="#l" x="142.629" y="67.119"/><use xlink:href="#f" x="148.437" y="69.506"/><path stroke="#000" stroke-miterlimit="10" stroke-width=".399" d="M365.297 74.734a.907.907 0 1 0-1.814.002.907.907 0 0 0 1.814-.002Zm70.867 0a.907.907 0 1 0-1.814.002.907.907 0 0 0 1.814-.002Zm-35.348 0v-1.132l-2.41 1.132 2.41 1.133Zm0 0"/><use xlink:href="#j" x="392.899" y="66.194"/><use xlink:href="#i" x="395.37" y="68.581"/><use xlink:href="#d" x="399.522" y="68.581"/><use xlink:href="#f" x="401.316" y="68.581"/><path fill="none" stroke="#000" stroke-miterlimit="10" stroke-width=".398" d="M392.898 70.621h13.832"/><path fill="none" stroke="#000" stroke-miterlimit="10" stroke-width=".399" d="M24.227 18.04H59.66m0 0h44.082m18.14 0h17.294m18.14 0h29.907m0 0h99.214m0 0h113.387m0 0h35.434"/><path stroke="#000" stroke-miterlimit="10" stroke-width=".399" d="M25.137 18.04a.908.908 0 1 0-1.816.002.908.908 0 0 0 1.816-.003Zm70.867 0a.908.908 0 1 0-1.816.002.908.908 0 0 0 1.816-.003Zm-37.336 0v1.136l2.41-1.137-2.41-1.133Zm0 0"/><use xlink:href="#j" x="53.4" y="10.394"/><use xlink:href="#c" x="55.87" y="11.888"/><use xlink:href="#d" x="59.281" y="11.888"/><use xlink:href="#e" x="61.074" y="11.888"/><path fill="none" stroke="#000" stroke-miterlimit="10" stroke-width=".398" d="M53.398 13.93h12.52"/><path fill="none" stroke="#000" stroke-linejoin="bevel" stroke-miterlimit="10" stroke-width=".797" d="m103.344 18.04 1.91-3.4 3.023 6.801 3.024-6.8 3.023 6.8 3.024-6.8 3.023 6.8 1.91-3.402"/><use xlink:href="#k" x="107.134" y="10.426"/><use xlink:href="#e" x="113.64" y="11.921"/><path fill="none" stroke="#000" stroke-linejoin="bevel" stroke-miterlimit="10" stroke-width=".797" d="M138.777 18.2c0-1.88 1.059-3.403 2.368-3.403 1.304 0 2.367 1.523 2.367 3.402 0-1.879 1.058-3.402 2.367-3.402s2.367 1.523 2.367 3.402c0-1.879 1.059-3.402 2.367-3.402s2.367 1.523 2.367 3.402c0-1.879 1.06-3.402 2.368-3.402s2.367 1.523 2.367 3.402"/><use xlink:href="#l" x="142.916" y="10.426"/><use xlink:href="#e" x="148.724" y="11.921"/><path stroke="#000" stroke-miterlimit="10" stroke-width=".399" d="M365.297 18.04a.907.907 0 0 0-1.813 0 .908.908 0 1 0 1.813 0Zm70.867 0a.907.907 0 0 0-1.812 0c0 .503.406.91.906.91s.906-.407.906-.91Zm-35.348 0v-1.134l-2.41 1.133 2.41 1.137Zm0 0"/><use xlink:href="#j" x="393.186" y="10.394"/><use xlink:href="#i" x="395.657" y="11.888"/><use xlink:href="#d" x="399.809" y="11.888"/><use xlink:href="#e" x="401.603" y="11.888"/><path fill="none" stroke="#000" stroke-miterlimit="10" stroke-width=".398" d="M393.188 13.93h13.257"/><path fill="none" stroke="#000" stroke-miterlimit="10" stroke-width=".399" d="M210.656 22.082c8.156 16.363 8.156 32.25 0 48.613"/><path stroke="#000" stroke-miterlimit="10" stroke-width=".399" d="M208.871 18.766c.117.46.516 2.55.504 3.996l2.547-1.367c-1.211-.79-2.734-2.278-3.05-2.63Zm0 55.246c.316-.356 1.84-1.844 3.05-2.633l-2.546-1.367c.012 1.445-.387 3.539-.504 4Zm0 0"/><use xlink:href="#m" x="220.287" y="47.7"/><use xlink:href="#e" x="229.025" y="50.086"/><use xlink:href="#f" x="233.369" y="50.086"/><path fill="none" stroke="#000" stroke-miterlimit="10" stroke-width=".398" d="M220.285 51.563h18.5"/><path fill="none" stroke="#000" stroke-miterlimit="10" stroke-width=".399" d="M210.656 78.777c8.156 16.36 8.156 32.25 0 48.614"/><path stroke="#000" stroke-miterlimit="10" stroke-width=".399" d="M208.871 75.457c.117.461.516 2.55.504 4l2.547-1.367c-1.211-.79-2.734-2.277-3.05-2.633Zm0 55.246c.316-.351 1.84-1.84 3.05-2.629l-2.546-1.367c.012 1.445-.387 3.535-.504 3.996Zm0 0"/><use xlink:href="#m" x="220.287" y="104.393"/><use xlink:href="#f" x="229.025" y="106.779"/><use xlink:href="#g" x="233.943" y="106.779"/><path fill="none" stroke="#000" stroke-miterlimit="10" stroke-width=".398" d="M220.285 108.254h18.531"/><path fill="none" stroke="#000" stroke-miterlimit="10" stroke-width=".399" d="M210.656 135.469c8.156 16.363 8.156 32.254 0 48.613"/><path stroke="#000" stroke-miterlimit="10" stroke-width=".399" d="M208.871 132.152c.117.461.516 2.551.504 3.996l2.547-1.367c-1.211-.789-2.734-2.277-3.05-2.629Zm0 55.246c.317-.355 1.84-1.843 3.05-2.632l-2.546-1.368c.012 1.45-.387 3.54-.504 4Zm0 0"/><use xlink:href="#m" x="220.287" y="161.532"/><use xlink:href="#g" x="229.025" y="163.026"/><use xlink:href="#h" x="233.401" y="163.026"/><path fill="none" stroke="#000" stroke-miterlimit="10" stroke-width=".398" d="M220.285 164.5h18.262"/><path fill="none" stroke="#000" stroke-miterlimit="10" stroke-width=".399" d="M249.695 22.047c19.13 35.527 19.13 69.855-.004 105.383"/><path stroke="#000" stroke-miterlimit="10" stroke-width=".399" d="M247.86 18.758c.124.457.554 2.543.566 3.988l2.527-1.406c-1.226-.77-2.77-2.235-3.094-2.582Zm0 111.952c.324-.347 1.867-1.812 3.093-2.581l-2.527-1.41c-.012 1.449-.442 3.531-.567 3.992Zm0 0"/><use xlink:href="#m" x="263.409" y="48.286"/><use xlink:href="#g" x="272.146" y="49.78"/><use xlink:href="#e" x="276.522" y="49.78"/><path fill="none" stroke="#000" stroke-miterlimit="10" stroke-width=".398" d="M263.41 51.254h17.953"/><path fill="none" stroke="#000" stroke-miterlimit="10" stroke-width=".399" d="M273.078 78.742c19.133 35.528 19.129 69.852-.004 105.383"/><path stroke="#000" stroke-miterlimit="10" stroke-width=".399" d="M271.246 75.453c.125.457.555 2.543.566 3.988l2.528-1.406c-1.227-.773-2.774-2.234-3.094-2.582Zm0 111.949c.32-.347 1.867-1.808 3.094-2.582l-2.527-1.406c-.012 1.445-.442 3.531-.567 3.988Zm0 0"/><use xlink:href="#m" x="286.794" y="160.945"/><use xlink:href="#f" x="295.531" y="163.332"/><use xlink:href="#h" x="300.449" y="163.332"/><path fill="none" stroke="#000" stroke-miterlimit="10" stroke-width=".398" d="M286.793 164.805h18.8"/><path fill="none" stroke="#000" stroke-miterlimit="10" stroke-width=".399" d="M327.668 22.035c30.156 54.68 30.156 107.414 0 162.094"/><path stroke="#000" stroke-miterlimit="10" stroke-width=".399" d="M325.816 18.758c.13.457.57 2.539.586 3.984l2.524-1.422c-1.23-.761-2.785-2.218-3.11-2.562Zm0 168.648c.325-.347 1.88-1.8 3.11-2.566l-2.524-1.422c-.015 1.45-.457 3.531-.586 3.988Zm0 0"/><use xlink:href="#m" x="328.533" y="104.839"/><use xlink:href="#e" x="337.27" y="106.333"/><use xlink:href="#h" x="341.614" y="106.333"/><path fill="none" stroke="#000" stroke-miterlimit="10" stroke-width=".398" d="M328.531 107.809h18.227"/></svg>
