<svg xmlns="http://www.w3.org/2000/svg" xmlns:xlink="http://www.w3.org/1999/xlink" width="613.62" height="262.731" viewBox="0 0 460.215 197.048"><defs><symbol overflow="visible" id="b"><path style="stroke:none" d="M.86-7.078 3.39-.875l2.516-6.203h.735L3.703 0h-.625L.125-7.078Zm0 0"/></symbol><symbol overflow="visible" id="j"><path style="stroke:none" d="M.89 0v-7.078h.688V0Zm0 0"/></symbol><symbol overflow="visible" id="k"><path style="stroke:none" d="M.89 0v-7.078h2.985c.313 0 .594.062.844.187s.468.297.656.516c.188.219.332.46.438.719.101.261.156.527.156.797 0 .343-.07.668-.203.968a2.047 2.047 0 0 1-.547.75c-.23.211-.508.344-.828.407L6.125 0h-.781L3.672-2.61H1.578V0Zm.688-3.234h2.313c.28 0 .523-.07.734-.22.207-.155.367-.358.484-.608a1.91 1.91 0 0 0 .172-.797c0-.282-.07-.54-.203-.782a1.526 1.526 0 0 0-.516-.593 1.285 1.285 0 0 0-.718-.22H1.578Zm0 0"/></symbol><symbol overflow="visible" id="l"><path style="stroke:none" d="M.89 0v-7.078h.688v6.453h4.094V0Zm0 0"/></symbol><symbol overflow="visible" id="m"><path style="stroke:none" d="M7.156 0v-5.766L4.594-1.28h-.438L1.578-5.766V0H.891v-7.078h.718l2.75 4.844 2.782-4.844h.718V0Zm0 0"/></symbol><symbol overflow="visible" id="c"><path style="stroke:none" d="M3.234-.5V0H.531v-.5h1.14v-3.406a1.14 1.14 0 0 1-.218.219c-.105.074-.226.14-.36.203-.124.062-.25.117-.374.156a1.106 1.106 0 0 1-.36.062v-.53c.125 0 .258-.032.407-.095a3.207 3.207 0 0 0 .75-.5.874.874 0 0 0 .156-.156h.547V-.5Zm0 0"/></symbol><symbol overflow="visible" id="d"><path style="stroke:none" d="m.688.64.14-.671H.641v-.75h.515v.75L.97.64Zm0 0"/></symbol><symbol overflow="visible" id="e"><path style="stroke:none" d="M.266-1.188c0-.257.07-.484.218-.671.145-.196.348-.348.61-.454a2.62 2.62 0 0 1 .922-.156c.195 0 .406.024.625.063.218.031.414.078.593.14v-.359c0-.344-.105-.617-.312-.828-.211-.207-.496-.313-.86-.313-.23 0-.453.043-.671.125a3.954 3.954 0 0 0-.672.36l-.203-.39c.27-.177.535-.313.796-.407.258-.094.524-.14.797-.14.508 0 .91.148 1.204.437.3.293.453.695.453 1.203v1.922c0 .074.015.133.046.172.032.03.083.046.157.046V0c-.063.008-.117.016-.156.016a.184.184 0 0 1-.094 0c-.137 0-.242-.04-.313-.125a.407.407 0 0 1-.094-.25l-.015-.313a1.86 1.86 0 0 1-.735.563 2.25 2.25 0 0 1-.89.187c-.274 0-.516-.058-.734-.172a1.367 1.367 0 0 1-.5-.453 1.222 1.222 0 0 1-.172-.64Zm2.78.313c.052-.07.095-.14.126-.203a.43.43 0 0 0 .062-.203v-.594a3.015 3.015 0 0 0-.578-.156 2.848 2.848 0 0 0-.578-.063c-.387 0-.7.078-.937.235a.691.691 0 0 0-.36.625c0 .156.035.304.11.437.082.137.203.25.359.344.156.086.336.125.547.125.258 0 .5-.05.719-.156.226-.102.406-.235.53-.391Zm0 0"/></symbol><symbol overflow="visible" id="f"><path style="stroke:none" d="M2.625.078a1.73 1.73 0 0 1-.906-.25 1.83 1.83 0 0 1-.64-.64V0H.593v-5.813h.547v2.532c.187-.281.41-.504.671-.672.258-.176.563-.266.907-.266.289 0 .55.063.781.188.227.117.426.277.594.484.164.2.289.43.375.688.082.261.125.527.125.796 0 .293-.055.57-.157.829A2.08 2.08 0 0 1 3.405-.093c-.242.113-.5.171-.781.171ZM2.5-.39c.227 0 .438-.046.625-.14a1.56 1.56 0 0 0 .484-.375c.145-.156.254-.332.329-.531A1.902 1.902 0 0 0 3.86-2.89a1.623 1.623 0 0 0-.516-.626 1.311 1.311 0 0 0-.781-.234 1.23 1.23 0 0 0-.594.156c-.18.094-.34.219-.485.375a2.4 2.4 0 0 0-.343.516v1.281a.91.91 0 0 0 .156.406c.094.125.207.235.344.329.132.085.273.156.421.218.157.055.301.078.438.078Zm0 0"/></symbol><symbol overflow="visible" id="g"><path style="stroke:none" d="M2.406.078c-.312 0-.594-.058-.844-.172a2.06 2.06 0 0 1-.656-.469 2.263 2.263 0 0 1-.594-1.53c0-.384.086-.739.266-1.063.176-.332.422-.594.735-.781A2.055 2.055 0 0 1 2.39-4.22c.382 0 .722.09 1.015.266.301.18.524.418.672.719l-.531.171a1.22 1.22 0 0 0-.485-.5 1.353 1.353 0 0 0-.703-.187c-.273 0-.523.074-.75.219a1.57 1.57 0 0 0-.546.594c-.137.25-.204.53-.204.843 0 .313.067.602.204.86.144.25.328.453.546.609.227.156.485.234.766.234.176 0 .348-.03.516-.093.164-.07.312-.16.437-.266a.873.873 0 0 0 .25-.36l.547.157c-.074.2-.2.375-.375.531-.18.156-.383.281-.61.375a2.18 2.18 0 0 1-.734.125Zm0 0"/></symbol><symbol overflow="visible" id="h"><path style="stroke:none" d="M4.094 0h-.547v-2.313c0-.488-.074-.847-.219-1.078-.148-.226-.371-.343-.672-.343-.219 0-.433.054-.64.156a1.89 1.89 0 0 0-.532.422c-.156.18-.273.383-.343.61V0H.594v-4.156h.5v.937c.113-.195.258-.367.437-.515.176-.157.38-.274.61-.36.226-.082.468-.125.718-.125.227 0 .422.043.579.125a.974.974 0 0 1 .374.36c.094.156.16.343.204.562.05.219.078.465.078.735Zm0 0"/></symbol><symbol overflow="visible" id="i"><path style="stroke:none" d="M.344 0c0-.176.015-.36.047-.547.039-.187.101-.367.187-.547.094-.176.227-.347.406-.515.176-.164.407-.329.688-.485l.484-.219c.164-.082.32-.171.469-.265.145-.094.258-.195.344-.313a.765.765 0 0 0 .016-.813.748.748 0 0 0-.344-.312 1.274 1.274 0 0 0-.594-.125c-.168 0-.324.028-.469.079a1.333 1.333 0 0 0-.36.171 2.037 2.037 0 0 0-.265.22 2.11 2.11 0 0 1-.187.171l-.344-.375.172-.172a2.27 2.27 0 0 1 .36-.25 2.06 2.06 0 0 1 .515-.234c.207-.063.43-.094.672-.094.32 0 .597.059.828.172.226.117.406.266.531.453.125.188.188.398.188.625 0 .219-.047.406-.141.563a1.487 1.487 0 0 1-.36.406 3.516 3.516 0 0 1-.89.5 3.41 3.41 0 0 0-.625.36 1.97 1.97 0 0 0-.406.359A1.345 1.345 0 0 0 .922-.5h2.844V0Zm0 0"/></symbol><clipPath id="a"><path d="M0 0h460.215v197.047H0Zm0 0"/></clipPath></defs><g clip-path="url(#a)"><path style="stroke:none;fill-rule:nonzero;fill:#fff;fill-opacity:1" d="M.004 197.047V-.003h460.219v197.05Zm0 0"/></g><use xlink:href="#b" x="3.894" y="19.516" style="fill:#000;fill-opacity:1"/><g style="fill:#000;fill-opacity:1"><use xlink:href="#c" x="10.659" y="21.011"/><use xlink:href="#d" x="14.07" y="21.011"/><use xlink:href="#e" x="15.863" y="21.011"/></g><path style="fill:none;stroke-width:.398;stroke-linecap:butt;stroke-linejoin:miter;stroke:#000;stroke-opacity:1;stroke-miterlimit:10" d="M0 0h16.81" transform="matrix(1 0 0 -1 3.894 23.051)"/><use xlink:href="#b" x="3.321" y="75.763" style="fill:#000;fill-opacity:1"/><g style="fill:#000;fill-opacity:1"><use xlink:href="#c" x="10.085" y="78.15"/><use xlink:href="#d" x="13.496" y="78.15"/><use xlink:href="#f" x="15.289" y="78.15"/></g><path style="fill:none;stroke-width:.398;stroke-linecap:butt;stroke-linejoin:miter;stroke:#000;stroke-opacity:1;stroke-miterlimit:10" d="M0-.001h17.386" transform="matrix(1 0 0 -1 3.321 80.19)"/><use xlink:href="#b" x="3.862" y="132.902" style="fill:#000;fill-opacity:1"/><g style="fill:#000;fill-opacity:1"><use xlink:href="#c" x="10.627" y="134.397"/><use xlink:href="#d" x="14.038" y="134.397"/><use xlink:href="#g" x="15.831" y="134.397"/></g><path style="fill:none;stroke-width:.398;stroke-linecap:butt;stroke-linejoin:miter;stroke:#000;stroke-opacity:1;stroke-miterlimit:10" d="M.001 0h16.84" transform="matrix(1 0 0 -1 3.862 136.437)"/><use xlink:href="#b" x="3.591" y="189.595" style="fill:#000;fill-opacity:1"/><g style="fill:#000;fill-opacity:1"><use xlink:href="#c" x="10.356" y="191.089"/><use xlink:href="#d" x="13.767" y="191.089"/><use xlink:href="#h" x="15.56" y="191.089"/></g><path style="fill:none;stroke-width:.398;stroke-linecap:butt;stroke-linejoin:miter;stroke:#000;stroke-opacity:1;stroke-miterlimit:10" d="M-.001.001h17.113" transform="matrix(1 0 0 -1 3.591 193.13)"/><use xlink:href="#b" x="438.768" y="19.516" style="fill:#000;fill-opacity:1"/><g style="fill:#000;fill-opacity:1"><use xlink:href="#i" x="445.533" y="21.011"/><use xlink:href="#d" x="449.685" y="21.011"/><use xlink:href="#e" x="451.479" y="21.011"/></g><path style="fill:none;stroke-width:.398;stroke-linecap:butt;stroke-linejoin:miter;stroke:#000;stroke-opacity:1;stroke-miterlimit:10" d="M.002 0h17.55" transform="matrix(1 0 0 -1 438.768 23.051)"/><use xlink:href="#b" x="438.768" y="75.763" style="fill:#000;fill-opacity:1"/><g style="fill:#000;fill-opacity:1"><use xlink:href="#i" x="445.533" y="78.15"/><use xlink:href="#d" x="449.685" y="78.15"/><use xlink:href="#f" x="451.479" y="78.15"/></g><path style="fill:none;stroke-width:.398;stroke-linecap:butt;stroke-linejoin:miter;stroke:#000;stroke-opacity:1;stroke-miterlimit:10" d="M.002-.001h18.125" transform="matrix(1 0 0 -1 438.768 80.19)"/><use xlink:href="#b" x="438.768" y="132.902" style="fill:#000;fill-opacity:1"/><g style="fill:#000;fill-opacity:1"><use xlink:href="#i" x="445.533" y="134.397"/><use xlink:href="#d" x="449.685" y="134.397"/><use xlink:href="#g" x="451.479" y="134.397"/></g><path style="fill:none;stroke-width:.398;stroke-linecap:butt;stroke-linejoin:miter;stroke:#000;stroke-opacity:1;stroke-miterlimit:10" d="M.002 0h17.582" transform="matrix(1 0 0 -1 438.768 136.437)"/><use xlink:href="#b" x="438.768" y="189.595" style="fill:#000;fill-opacity:1"/><g style="fill:#000;fill-opacity:1"><use xlink:href="#i" x="445.533" y="191.089"/><use xlink:href="#d" x="449.685" y="191.089"/><use xlink:href="#h" x="451.479" y="191.089"/></g><path style="fill:none;stroke-width:.398;stroke-linecap:butt;stroke-linejoin:miter;stroke:#000;stroke-opacity:1;stroke-miterlimit:10" d="M.002.001h17.851" transform="matrix(1 0 0 -1 438.768 193.13)"/><path style="fill:none;stroke-width:.3985;stroke-linecap:butt;stroke-linejoin:miter;stroke:#000;stroke-opacity:1;stroke-miterlimit:10" d="M255.12 226.775h35.433m0 0h44.082m18.14 0h19.56m13.609 0h32.172m0 0h99.215m0 0h113.386m0 0h35.434" transform="matrix(1 0 0 -1 -230.893 414.896)"/><path style="fill-rule:nonzero;fill:#000;fill-opacity:1;stroke-width:.3985;stroke-linecap:butt;stroke-linejoin:miter;stroke:#000;stroke-opacity:1;stroke-miterlimit:10" d="M256.03 226.775a.908.908 0 0 1-1.817 0 .908.908 0 0 1 1.816 0Zm70.867 0a.908.908 0 0 1-1.817 0 .908.908 0 0 1 1.816 0Zm-37.336 0v-1.133l2.41 1.133-2.41 1.133Zm0 0" transform="matrix(1 0 0 -1 -230.893 414.896)"/><use xlink:href="#j" x="53.248" y="180.472" style="fill:#000;fill-opacity:1"/><g style="fill:#000;fill-opacity:1"><use xlink:href="#c" x="55.719" y="181.967"/><use xlink:href="#d" x="59.13" y="181.967"/><use xlink:href="#h" x="60.923" y="181.967"/></g><path style="fill:none;stroke-width:.398;stroke-linecap:butt;stroke-linejoin:miter;stroke:#000;stroke-opacity:1;stroke-miterlimit:10" d="M-.002 0h12.82" transform="matrix(1 0 0 -1 53.248 184.007)"/><path style="fill:none;stroke-width:.797;stroke-linecap:butt;stroke-linejoin:miter;stroke:#000;stroke-opacity:1;stroke-miterlimit:10" d="M334.635 230.177h18.14v-6.804h-18.14Zm0 0" transform="matrix(1 0 0 -1 -230.893 414.896)"/><use xlink:href="#k" x="106.983" y="180.505" style="fill:#000;fill-opacity:1"/><use xlink:href="#h" x="113.488" y="181.999" style="fill:#000;fill-opacity:1"/><path style="fill:none;stroke-width:.797;stroke-linecap:butt;stroke-linejoin:bevel;stroke:#000;stroke-opacity:1;stroke-miterlimit:10" d="M371.936 226.615c0 1.879.95 3.402 2.121 3.402 1.172 0 2.121-1.523 2.121-3.402 0-.938-.379-1.7-.851-1.7-.47 0-.848.762-.848 1.7 0 1.879.95 3.402 2.117 3.402 1.172 0 2.121-1.523 2.121-3.402 0-.938-.379-1.7-.847-1.7-.473 0-.852.762-.852 1.7 0 1.879.95 3.402 2.121 3.402 1.172 0 2.121-1.523 2.121-3.402 0-.938-.383-1.7-.851-1.7-.47 0-.852.762-.852 1.7 0 1.879.95 3.402 2.121 3.402 1.172 0 2.121-1.523 2.121-3.402 0-.938-.379-1.7-.851-1.7-.47 0-.848.762-.848 1.7 0 1.879.95 3.402 2.121 3.402 1.168 0 2.121-1.523 2.121-3.402" transform="matrix(1 0 0 -1 -230.893 414.896)"/><use xlink:href="#l" x="142.764" y="180.505" style="fill:#000;fill-opacity:1"/><use xlink:href="#h" x="148.573" y="181.999" style="fill:#000;fill-opacity:1"/><path style="fill-rule:nonzero;fill:#000;fill-opacity:1;stroke-width:.3985;stroke-linecap:butt;stroke-linejoin:miter;stroke:#000;stroke-opacity:1;stroke-miterlimit:10" d="M596.19 226.775a.907.907 0 1 1-1.814-.001.907.907 0 0 1 1.814 0Zm70.867 0a.907.907 0 1 1-1.814-.001.907.907 0 0 1 1.814 0Zm-35.347 0v1.133l-2.41-1.133 2.41-1.133Zm0 0" transform="matrix(1 0 0 -1 -230.893 414.896)"/><use xlink:href="#j" x="393.035" y="180.472" style="fill:#000;fill-opacity:1"/><g style="fill:#000;fill-opacity:1"><use xlink:href="#i" x="395.506" y="181.967"/><use xlink:href="#d" x="399.658" y="181.967"/><use xlink:href="#h" x="401.452" y="181.967"/></g><path style="fill:none;stroke-width:.398;stroke-linecap:butt;stroke-linejoin:miter;stroke:#000;stroke-opacity:1;stroke-miterlimit:10" d="M0 0h13.563" transform="matrix(1 0 0 -1 393.035 184.007)"/><path style="fill:none;stroke-width:.3985;stroke-linecap:butt;stroke-linejoin:miter;stroke:#000;stroke-opacity:1;stroke-miterlimit:10" d="M255.12 283.466h35.433m0 0h44.082m18.14 0h19.56m13.609 0h32.172m0 0h99.215m0 0h113.386m0 0h35.434" transform="matrix(1 0 0 -1 -230.893 414.896)"/><path style="fill-rule:nonzero;fill:#000;fill-opacity:1;stroke-width:.3985;stroke-linecap:butt;stroke-linejoin:miter;stroke:#000;stroke-opacity:1;stroke-miterlimit:10" d="M256.03 283.466a.909.909 0 1 1-1.817.003.909.909 0 0 1 1.817-.003Zm70.867 0a.909.909 0 1 1-1.817.003.909.909 0 0 1 1.817-.003Zm-37.336 0v-1.132l2.41 1.132-2.41 1.137Zm0 0" transform="matrix(1 0 0 -1 -230.893 414.896)"/><use xlink:href="#j" x="53.384" y="123.78" style="fill:#000;fill-opacity:1"/><g style="fill:#000;fill-opacity:1"><use xlink:href="#c" x="55.854" y="125.274"/><use xlink:href="#d" x="59.265" y="125.274"/><use xlink:href="#g" x="61.058" y="125.274"/></g><path style="fill:none;stroke-width:.398;stroke-linecap:butt;stroke-linejoin:miter;stroke:#000;stroke-opacity:1;stroke-miterlimit:10" d="M-.001.002h12.55" transform="matrix(1 0 0 -1 53.384 127.314)"/><path style="fill:none;stroke-width:.797;stroke-linecap:butt;stroke-linejoin:miter;stroke:#000;stroke-opacity:1;stroke-miterlimit:10" d="M334.635 286.869h18.14v-6.801h-18.14Zm0 0" transform="matrix(1 0 0 -1 -230.893 414.896)"/><use xlink:href="#k" x="107.118" y="123.812" style="fill:#000;fill-opacity:1"/><use xlink:href="#g" x="113.624" y="125.306" style="fill:#000;fill-opacity:1"/><path style="fill:none;stroke-width:.797;stroke-linecap:butt;stroke-linejoin:bevel;stroke:#000;stroke-opacity:1;stroke-miterlimit:10" d="M371.936 283.31c0 1.879.95 3.399 2.121 3.399 1.172 0 2.121-1.52 2.121-3.399 0-.941-.379-1.703-.851-1.703-.47 0-.848.762-.848 1.703 0 1.879.95 3.399 2.117 3.399 1.172 0 2.121-1.52 2.121-3.399 0-.941-.379-1.703-.847-1.703-.473 0-.852.762-.852 1.703 0 1.879.95 3.399 2.121 3.399 1.172 0 2.121-1.52 2.121-3.399 0-.941-.383-1.703-.851-1.703-.47 0-.852.762-.852 1.703 0 1.879.95 3.399 2.121 3.399 1.172 0 2.121-1.52 2.121-3.399 0-.941-.379-1.703-.851-1.703-.47 0-.848.762-.848 1.703 0 1.879.95 3.399 2.121 3.399 1.168 0 2.121-1.52 2.121-3.399" transform="matrix(1 0 0 -1 -230.893 414.896)"/><use xlink:href="#l" x="142.9" y="123.812" style="fill:#000;fill-opacity:1"/><use xlink:href="#g" x="148.708" y="125.306" style="fill:#000;fill-opacity:1"/><path style="fill-rule:nonzero;fill:#000;fill-opacity:1;stroke-width:.3985;stroke-linecap:butt;stroke-linejoin:miter;stroke:#000;stroke-opacity:1;stroke-miterlimit:10" d="M596.19 283.466c0 .504-.406.91-.906.91a.908.908 0 0 1 0-1.816c.5 0 .906.406.906.906Zm70.867 0c0 .504-.406.91-.906.91a.908.908 0 0 1 0-1.816c.5 0 .906.406.906.906Zm-35.347 0v1.137l-2.41-1.137 2.41-1.132Zm0 0" transform="matrix(1 0 0 -1 -230.893 414.896)"/><use xlink:href="#j" x="393.17" y="123.78" style="fill:#000;fill-opacity:1"/><g style="fill:#000;fill-opacity:1"><use xlink:href="#i" x="395.641" y="125.274"/><use xlink:href="#d" x="399.793" y="125.274"/><use xlink:href="#g" x="401.587" y="125.274"/></g><path style="fill:none;stroke-width:.398;stroke-linecap:butt;stroke-linejoin:miter;stroke:#000;stroke-opacity:1;stroke-miterlimit:10" d="M.002.002H13.29" transform="matrix(1 0 0 -1 393.17 127.314)"/><path style="fill:none;stroke-width:.3985;stroke-linecap:butt;stroke-linejoin:miter;stroke:#000;stroke-opacity:1;stroke-miterlimit:10" d="M255.12 340.162h35.433m0 0h44.082m18.14 0h19.56m13.609 0h32.172m0 0h99.215m0 0h113.386m0 0h35.434" transform="matrix(1 0 0 -1 -230.893 414.896)"/><path style="fill-rule:nonzero;fill:#000;fill-opacity:1;stroke-width:.3985;stroke-linecap:butt;stroke-linejoin:miter;stroke:#000;stroke-opacity:1;stroke-miterlimit:10" d="M256.03 340.162a.908.908 0 0 1-1.817 0 .908.908 0 0 1 1.816 0Zm70.867 0a.908.908 0 0 1-1.817 0 .908.908 0 0 1 1.816 0Zm-37.336 0v-1.133l2.41 1.133-2.41 1.132Zm0 0" transform="matrix(1 0 0 -1 -230.893 414.896)"/><use xlink:href="#j" x="53.113" y="66.194" style="fill:#000;fill-opacity:1"/><g style="fill:#000;fill-opacity:1"><use xlink:href="#c" x="55.583" y="68.581"/><use xlink:href="#d" x="58.994" y="68.581"/><use xlink:href="#f" x="60.787" y="68.581"/></g><path style="fill:none;stroke-width:.398;stroke-linecap:butt;stroke-linejoin:miter;stroke:#000;stroke-opacity:1;stroke-miterlimit:10" d="M0 0h13.09" transform="matrix(1 0 0 -1 53.113 70.621)"/><path style="fill:none;stroke-width:.797;stroke-linecap:butt;stroke-linejoin:miter;stroke:#000;stroke-opacity:1;stroke-miterlimit:10" d="M334.635 343.564h18.14v-6.805h-18.14Zm0 0" transform="matrix(1 0 0 -1 -230.893 414.896)"/><use xlink:href="#k" x="106.847" y="67.119" style="fill:#000;fill-opacity:1"/><use xlink:href="#f" x="113.353" y="69.506" style="fill:#000;fill-opacity:1"/><path style="fill:none;stroke-width:.797;stroke-linecap:butt;stroke-linejoin:bevel;stroke:#000;stroke-opacity:1;stroke-miterlimit:10" d="M371.936 340.001c0 1.88.95 3.403 2.121 3.403 1.172 0 2.121-1.524 2.121-3.403 0-.937-.379-1.699-.851-1.699-.47 0-.848.762-.848 1.7 0 1.878.95 3.402 2.117 3.402 1.172 0 2.121-1.524 2.121-3.403 0-.937-.379-1.699-.847-1.699-.473 0-.852.762-.852 1.7 0 1.878.95 3.402 2.121 3.402 1.172 0 2.121-1.524 2.121-3.403 0-.937-.383-1.699-.851-1.699-.47 0-.852.762-.852 1.7 0 1.878.95 3.402 2.121 3.402 1.172 0 2.121-1.524 2.121-3.403 0-.937-.379-1.699-.851-1.699-.47 0-.848.762-.848 1.7 0 1.878.95 3.402 2.121 3.402 1.168 0 2.121-1.524 2.121-3.403" transform="matrix(1 0 0 -1 -230.893 414.896)"/><use xlink:href="#l" x="142.629" y="67.119" style="fill:#000;fill-opacity:1"/><use xlink:href="#f" x="148.437" y="69.506" style="fill:#000;fill-opacity:1"/><path style="fill-rule:nonzero;fill:#000;fill-opacity:1;stroke-width:.3985;stroke-linecap:butt;stroke-linejoin:miter;stroke:#000;stroke-opacity:1;stroke-miterlimit:10" d="M596.19 340.162a.907.907 0 1 1-1.814-.002.907.907 0 0 1 1.814.002Zm70.867 0a.907.907 0 1 1-1.814-.002.907.907 0 0 1 1.814.002Zm-35.347 0v1.132l-2.41-1.132 2.41-1.133Zm0 0" transform="matrix(1 0 0 -1 -230.893 414.896)"/><use xlink:href="#j" x="392.899" y="66.194" style="fill:#000;fill-opacity:1"/><g style="fill:#000;fill-opacity:1"><use xlink:href="#i" x="395.37" y="68.581"/><use xlink:href="#d" x="399.522" y="68.581"/><use xlink:href="#f" x="401.316" y="68.581"/></g><path style="fill:none;stroke-width:.398;stroke-linecap:butt;stroke-linejoin:miter;stroke:#000;stroke-opacity:1;stroke-miterlimit:10" d="M0 0h13.83" transform="matrix(1 0 0 -1 392.899 70.621)"/><path style="fill:none;stroke-width:.3985;stroke-linecap:butt;stroke-linejoin:miter;stroke:#000;stroke-opacity:1;stroke-miterlimit:10" d="M255.12 396.857h35.433m0 0h44.082m18.14 0h19.56m13.609 0h32.172m0 0h99.215m0 0h113.386m0 0h35.434" transform="matrix(1 0 0 -1 -230.893 414.896)"/><path style="fill-rule:nonzero;fill:#000;fill-opacity:1;stroke-width:.3985;stroke-linecap:butt;stroke-linejoin:miter;stroke:#000;stroke-opacity:1;stroke-miterlimit:10" d="M256.03 396.857a.908.908 0 1 1-1.816-.003.908.908 0 0 1 1.816.003Zm70.867 0a.908.908 0 1 1-1.816-.003.908.908 0 0 1 1.816.003Zm-37.336 0v-1.137l2.41 1.137-2.41 1.133Zm0 0" transform="matrix(1 0 0 -1 -230.893 414.896)"/><use xlink:href="#j" x="53.4" y="10.394" style="fill:#000;fill-opacity:1"/><g style="fill:#000;fill-opacity:1"><use xlink:href="#c" x="55.87" y="11.888"/><use xlink:href="#d" x="59.281" y="11.888"/><use xlink:href="#e" x="61.074" y="11.888"/></g><path style="fill:none;stroke-width:.398;stroke-linecap:butt;stroke-linejoin:miter;stroke:#000;stroke-opacity:1;stroke-miterlimit:10" d="M-.002-.002h12.52" transform="matrix(1 0 0 -1 53.4 13.928)"/><path style="fill:none;stroke-width:.797;stroke-linecap:butt;stroke-linejoin:miter;stroke:#000;stroke-opacity:1;stroke-miterlimit:10" d="M334.635 400.255h18.14v-6.8h-18.14Zm0 0" transform="matrix(1 0 0 -1 -230.893 414.896)"/><use xlink:href="#k" x="107.134" y="10.426" style="fill:#000;fill-opacity:1"/><use xlink:href="#e" x="113.64" y="11.921" style="fill:#000;fill-opacity:1"/><path style="fill:none;stroke-width:.797;stroke-linecap:butt;stroke-linejoin:bevel;stroke:#000;stroke-opacity:1;stroke-miterlimit:10" d="M371.936 396.697c0 1.879.95 3.402 2.121 3.402 1.172 0 2.121-1.523 2.121-3.402 0-.942-.379-1.703-.851-1.703-.47 0-.848.761-.848 1.703 0 1.879.95 3.402 2.117 3.402 1.172 0 2.121-1.523 2.121-3.402 0-.942-.379-1.703-.847-1.703-.473 0-.852.761-.852 1.703 0 1.879.95 3.402 2.121 3.402 1.172 0 2.121-1.523 2.121-3.402 0-.942-.383-1.703-.851-1.703-.47 0-.852.761-.852 1.703 0 1.879.95 3.402 2.121 3.402 1.172 0 2.121-1.523 2.121-3.402 0-.942-.379-1.703-.851-1.703-.47 0-.848.761-.848 1.703 0 1.879.95 3.402 2.121 3.402 1.168 0 2.121-1.523 2.121-3.402" transform="matrix(1 0 0 -1 -230.893 414.896)"/><use xlink:href="#l" x="142.916" y="10.426" style="fill:#000;fill-opacity:1"/><use xlink:href="#e" x="148.724" y="11.921" style="fill:#000;fill-opacity:1"/><path style="fill-rule:nonzero;fill:#000;fill-opacity:1;stroke-width:.3985;stroke-linecap:butt;stroke-linejoin:miter;stroke:#000;stroke-opacity:1;stroke-miterlimit:10" d="M596.19 396.857a.907.907 0 0 1-1.813 0 .908.908 0 1 1 1.813 0Zm70.867 0a.907.907 0 0 1-1.812 0c0-.504.406-.91.906-.91s.906.406.906.91Zm-35.347 0v1.133l-2.41-1.133 2.41-1.137Zm0 0" transform="matrix(1 0 0 -1 -230.893 414.896)"/><use xlink:href="#j" x="393.186" y="10.394" style="fill:#000;fill-opacity:1"/><g style="fill:#000;fill-opacity:1"><use xlink:href="#i" x="395.657" y="11.888"/><use xlink:href="#d" x="399.809" y="11.888"/><use xlink:href="#e" x="401.603" y="11.888"/></g><path style="fill:none;stroke-width:.398;stroke-linecap:butt;stroke-linejoin:miter;stroke:#000;stroke-opacity:1;stroke-miterlimit:10" d="M.002-.002h13.257" transform="matrix(1 0 0 -1 393.186 13.928)"/><path style="fill:none;stroke-width:.3985;stroke-linecap:butt;stroke-linejoin:miter;stroke:#000;stroke-opacity:1;stroke-miterlimit:10" d="M441.55 392.814c8.155-16.363 8.155-32.25 0-48.613" transform="matrix(1 0 0 -1 -230.893 414.896)"/><path style="fill-rule:nonzero;fill:#000;fill-opacity:1;stroke-width:.3985;stroke-linecap:butt;stroke-linejoin:miter;stroke:#000;stroke-opacity:1;stroke-miterlimit:10" d="M3.76 0C3.3.115 1.268.751 0 1.445l.002-2.891C1.269-.752 3.3-.113 3.76 0Zm0 0" transform="scale(-.99995 .99995) rotate(-61.8 -86.882 187.033)"/><path style="fill-rule:nonzero;fill:#000;fill-opacity:1;stroke-width:.3985;stroke-linecap:butt;stroke-linejoin:miter;stroke:#000;stroke-opacity:1;stroke-miterlimit:10" d="M3.762 0C3.3.113 1.268.752 0 1.446v-2.891C1.267-.752 3.3-.114 3.762 0Zm0 0" transform="matrix(-.47258 .88123 .88123 .47258 210.648 70.696)"/><use xlink:href="#m" x="220.287" y="47.7" style="fill:#000;fill-opacity:1"/><g style="fill:#000;fill-opacity:1"><use xlink:href="#e" x="229.025" y="50.086"/><use xlink:href="#f" x="233.369" y="50.086"/></g><path style="fill:none;stroke-width:.398;stroke-linecap:butt;stroke-linejoin:miter;stroke:#000;stroke-opacity:1;stroke-miterlimit:10" d="M-.002-.002h18.5" transform="matrix(1 0 0 -1 220.287 51.561)"/><path style="fill:none;stroke-width:.3985;stroke-linecap:butt;stroke-linejoin:miter;stroke:#000;stroke-opacity:1;stroke-miterlimit:10" d="M441.55 336.119c8.155-16.36 8.155-32.25 0-48.614" transform="matrix(1 0 0 -1 -230.893 414.896)"/><path style="fill-rule:nonzero;fill:#000;fill-opacity:1;stroke-width:.3985;stroke-linecap:butt;stroke-linejoin:miter;stroke:#000;stroke-opacity:1;stroke-miterlimit:10" d="M3.762 0C3.301.113 1.27.75 0 1.444v-2.889C1.268-.751 3.3-.112 3.762-.001Zm0 0" transform="scale(-.99995 .99995) rotate(-61.8 -39.516 215.38)"/><path style="fill-rule:nonzero;fill:#000;fill-opacity:1;stroke-width:.3985;stroke-linecap:butt;stroke-linejoin:miter;stroke:#000;stroke-opacity:1;stroke-miterlimit:10" d="M3.76 0C3.301.113 1.27.752.002 1.446L0-1.444C1.27-.752 3.3-.115 3.76 0Zm0 0" transform="matrix(-.47258 .88123 .88123 .47258 210.648 127.39)"/><use xlink:href="#m" x="220.287" y="104.393" style="fill:#000;fill-opacity:1"/><g style="fill:#000;fill-opacity:1"><use xlink:href="#f" x="229.025" y="106.779"/><use xlink:href="#g" x="233.943" y="106.779"/></g><path style="fill:none;stroke-width:.398;stroke-linecap:butt;stroke-linejoin:miter;stroke:#000;stroke-opacity:1;stroke-miterlimit:10" d="M-.002 0H18.53" transform="matrix(1 0 0 -1 220.287 108.254)"/><path style="fill:none;stroke-width:.3985;stroke-linecap:butt;stroke-linejoin:miter;stroke:#000;stroke-opacity:1;stroke-miterlimit:10" d="M441.55 279.427c8.155-16.363 8.155-32.254 0-48.613" transform="matrix(1 0 0 -1 -230.893 414.896)"/><path style="fill-rule:nonzero;fill:#000;fill-opacity:1;stroke-width:.3985;stroke-linecap:butt;stroke-linejoin:miter;stroke:#000;stroke-opacity:1;stroke-miterlimit:10" d="M3.76 0C3.3.114 1.27.75 0 1.444l.002-2.89C1.27-.753 3.302-.114 3.761 0Zm0 0" transform="scale(-.99995 .99995) rotate(-61.8 7.85 243.73)"/><path style="fill-rule:nonzero;fill:#000;fill-opacity:1;stroke-width:.3985;stroke-linecap:butt;stroke-linejoin:miter;stroke:#000;stroke-opacity:1;stroke-miterlimit:10" d="M3.762 0C3.299.113 1.267.75 0 1.446l-.002-2.89C1.27-.75 3.3-.115 3.762 0Zm0 0" transform="matrix(-.47258 .88123 .88123 .47258 210.648 184.083)"/><use xlink:href="#m" x="220.287" y="161.532" style="fill:#000;fill-opacity:1"/><g style="fill:#000;fill-opacity:1"><use xlink:href="#g" x="229.025" y="163.026"/><use xlink:href="#h" x="233.401" y="163.026"/></g><path style="fill:none;stroke-width:.398;stroke-linecap:butt;stroke-linejoin:miter;stroke:#000;stroke-opacity:1;stroke-miterlimit:10" d="M-.002 0H18.26" transform="matrix(1 0 0 -1 220.287 164.5)"/><path style="fill:none;stroke-width:.3985;stroke-linecap:butt;stroke-linejoin:miter;stroke:#000;stroke-opacity:1;stroke-miterlimit:10" d="M480.588 392.85c19.13-35.528 19.13-69.856-.004-105.384" transform="matrix(1 0 0 -1 -230.893 414.896)"/><path style="fill-rule:nonzero;fill:#000;fill-opacity:1;stroke-width:.3985;stroke-linecap:butt;stroke-linejoin:miter;stroke:#000;stroke-opacity:1;stroke-miterlimit:10" d="M3.762 0C3.302.113 1.27.752.002 1.446L0-1.447C1.27-.75 3.3-.115 3.762 0Zm0 0" transform="scale(-.99997 .99997) rotate(-60.88 -106.091 223.48)"/><path style="fill-rule:nonzero;fill:#000;fill-opacity:1;stroke-width:.3985;stroke-linecap:butt;stroke-linejoin:miter;stroke:#000;stroke-opacity:1;stroke-miterlimit:10" d="M3.762 0C3.3.115 1.27.75 0 1.447v-2.895C1.27-.753 3.299-.115 3.762 0Zm0 0" transform="matrix(-.48666 .87355 .87355 .48666 249.69 127.425)"/><use xlink:href="#m" x="263.409" y="48.286" style="fill:#000;fill-opacity:1"/><g style="fill:#000;fill-opacity:1"><use xlink:href="#g" x="272.146" y="49.78"/><use xlink:href="#e" x="276.522" y="49.78"/></g><path style="fill:none;stroke-width:.398;stroke-linecap:butt;stroke-linejoin:miter;stroke:#000;stroke-opacity:1;stroke-miterlimit:10" d="M.001.001h17.953" transform="matrix(1 0 0 -1 263.409 51.255)"/><path style="fill:none;stroke-width:.3985;stroke-linecap:butt;stroke-linejoin:miter;stroke:#000;stroke-opacity:1;stroke-miterlimit:10" d="M503.971 336.154c19.133-35.528 19.129-69.852-.004-105.383" transform="matrix(1 0 0 -1 -230.893 414.896)"/><path style="fill-rule:nonzero;fill:#000;fill-opacity:1;stroke-width:.3985;stroke-linecap:butt;stroke-linejoin:miter;stroke:#000;stroke-opacity:1;stroke-miterlimit:10" d="M3.76-.001C3.3.112 1.267.752 0 1.445l-.002-2.892C1.271-.752 3.3-.112 3.76-.001Zm0 0" transform="scale(-.99997 .99997) rotate(-60.88 -69.544 271.726)"/><path style="fill-rule:nonzero;fill:#000;fill-opacity:1;stroke-width:.3985;stroke-linecap:butt;stroke-linejoin:miter;stroke:#000;stroke-opacity:1;stroke-miterlimit:10" d="M3.76 0C3.3.112 1.27.753-.003 1.448l.001-2.892C1.268-.752 3.3-.112 3.76 0Zm0 0" transform="matrix(-.48665 .87357 .87357 .48665 273.075 184.118)"/><use xlink:href="#m" x="286.794" y="160.945" style="fill:#000;fill-opacity:1"/><g style="fill:#000;fill-opacity:1"><use xlink:href="#f" x="295.531" y="163.332"/><use xlink:href="#h" x="300.449" y="163.332"/></g><path style="fill:none;stroke-width:.398;stroke-linecap:butt;stroke-linejoin:miter;stroke:#000;stroke-opacity:1;stroke-miterlimit:10" d="M-.001.001h18.8" transform="matrix(1 0 0 -1 286.794 164.806)"/><path style="fill:none;stroke-width:.3985;stroke-linecap:butt;stroke-linejoin:miter;stroke:#000;stroke-opacity:1;stroke-miterlimit:10" d="M558.561 392.86c30.156-54.679 30.156-107.413 0-162.093" transform="matrix(1 0 0 -1 -230.893 414.896)"/><path style="fill-rule:nonzero;fill:#000;fill-opacity:1;stroke-width:.3985;stroke-linecap:butt;stroke-linejoin:miter;stroke:#000;stroke-opacity:1;stroke-miterlimit:10" d="M3.76.001C3.299.113 1.268.751.001 1.448V-1.45C1.267-.75 3.3-.113 3.76.001Zm0 0" transform="matrix(-.49117 -.871 -.871 .49117 327.664 22.032)"/><path style="fill-rule:nonzero;fill:#000;fill-opacity:1;stroke-width:.3985;stroke-linecap:butt;stroke-linejoin:miter;stroke:#000;stroke-opacity:1;stroke-miterlimit:10" d="M3.762 0C3.3.112 1.27.752-.001 1.448V-1.45C1.27-.75 3.3-.112 3.763 0Zm0 0" transform="matrix(-.49117 .871 .871 .49117 327.664 184.13)"/><use xlink:href="#m" x="328.533" y="104.839" style="fill:#000;fill-opacity:1"/><g style="fill:#000;fill-opacity:1"><use xlink:href="#e" x="337.27" y="106.333"/><use xlink:href="#h" x="341.614" y="106.333"/></g><path style="fill:none;stroke-width:.398;stroke-linecap:butt;stroke-linejoin:miter;stroke:#000;stroke-opacity:1;stroke-miterlimit:10" d="M-.002-.002h18.227" transform="matrix(1 0 0 -1 328.533 107.807)"/></svg>
