<svg xmlns="http://www.w3.org/2000/svg" xmlns:xlink="http://www.w3.org/1999/xlink" width="1293.935" height="659.553" viewBox="0 0 970.451 494.665"><defs><path id="b" d="M.86-7.078 3.39-.875l2.516-6.203h.735L3.703 0h-.625L.125-7.078Zm0 0"/><path id="l" d="M.89 0v-7.078h.688V0Zm0 0"/><path id="m" d="M.89 0v-7.078h2.985q.47 0 .844.187.375.188.656.516.28.33.438.719c.101.261.156.527.156.797q-.002.516-.203.968a2.05 2.05 0 0 1-.547.75q-.347.314-.828.407L6.125 0h-.781L3.672-2.61H1.578V0Zm.688-3.234h2.313c.28 0 .523-.07.734-.22q.31-.233.484-.608a1.9 1.9 0 0 0 .172-.797q-.002-.421-.203-.782a1.5 1.5 0 0 0-.516-.593 1.3 1.3 0 0 0-.718-.22H1.578Zm0 0"/><path id="n" d="M.89 0v-7.078h.688v6.453h4.094V0Zm0 0"/><path id="o" d="M7.156 0v-5.766L4.594-1.28h-.438L1.578-5.766V0H.891v-7.078h.718l2.75 4.844 2.782-4.844h.718V0Zm0 0"/><path id="p" d="M3.734.047A3 3 0 0 1 2.406-.25a3.5 3.5 0 0 1-1.062-.828 3.9 3.9 0 0 1-.688-1.156 3.8 3.8 0 0 1-.234-1.313q0-.715.234-1.36a3.8 3.8 0 0 1 .688-1.14q.434-.5 1.031-.781a3 3 0 0 1 1.313-.297q1.044.002 1.703.438.655.422 1 1.109l-.532.36q-.346-.655-.921-.97A2.6 2.6 0 0 0 3.672-6.5c-.387 0-.742.086-1.063.25-.312.168-.586.39-.812.672q-.328.423-.516.953-.174.517-.172 1.094 0 .597.204 1.125.199.532.562.953.374.408.86.64.482.235 1.046.235Q4.42-.576 5-.891q.575-.325 1.11-1.015v.734Q5.105.048 3.733.047M6-2.937H4.422v-.547h2.172V0H6Zm0 0"/><path id="q" d="M.438 0Q.437-.341.5-.687a2.6 2.6 0 0 1 .219-.672q.17-.34.5-.657.34-.311.875-.593.279-.154.594-.297.31-.14.578-.313.28-.186.437-.406a.83.83 0 0 0 .172-.531.94.94 0 0 0-.14-.485 1 1 0 0 0-.438-.39 1.6 1.6 0 0 0-.735-.157q-.314 0-.578.094-.27.093-.468.235a2.3 2.3 0 0 0-.328.265q-.14.127-.235.219l-.422-.469q.045-.06.219-.218a2.7 2.7 0 0 1 .438-.313q.28-.168.656-.297a2.6 2.6 0 0 1 .828-.125q.61 0 1.031.219.437.221.672.578.234.362.234.766c0 .28-.062.523-.187.718a1.9 1.9 0 0 1-.453.5q-.27.223-.563.375l-.531.266a5.5 5.5 0 0 0-.781.438q-.316.22-.516.437a2.2 2.2 0 0 0-.297.438 2.5 2.5 0 0 0-.14.437h3.578V0Zm0 0"/><path id="r" d="M.422-3.594c0-.426.07-.847.219-1.265Q.875-5.482 1.297-6a3 3 0 0 1 1.047-.812 3.25 3.25 0 0 1 1.437-.313q.936.002 1.61.438.684.44 1 1.109l-.547.344a2.14 2.14 0 0 0-.578-.735 2 2 0 0 0-.75-.39 2.6 2.6 0 0 0-.782-.125q-.644.002-1.125.25-.487.25-.828.672a3.1 3.1 0 0 0-.5.953q-.174.516-.172 1.062 0 .598.204 1.125.199.533.562.953.358.41.844.657c.32.167.672.25 1.047.25q.404 0 .812-.141a2.6 2.6 0 0 0 .781-.422c.25-.195.446-.453.594-.766l.578.313q-.22.515-.687.89a3.2 3.2 0 0 1-1.016.563 3.5 3.5 0 0 1-1.094.188Q2.998.065 2.391-.25a3.5 3.5 0 0 1-1.063-.828 3.9 3.9 0 0 1-.672-1.188 3.9 3.9 0 0 1-.234-1.328m0 0"/><path id="c" d="M3.234-.5V0H.531v-.5h1.14v-3.406a1.1 1.1 0 0 1-.218.219q-.158.11-.36.203c-.124.062-.25.117-.374.156a1.1 1.1 0 0 1-.36.062v-.53c.125 0 .258-.032.407-.095q.216-.105.406-.234c.133-.094.25-.18.344-.266a1 1 0 0 0 .156-.156h.547V-.5Zm0 0"/><path id="d" d="m.688.64.14-.671H.641v-.75h.515v.75L.97.64Zm0 0"/><path id="e" d="M.266-1.187c0-.258.07-.485.218-.672q.217-.295.61-.453c.27-.102.578-.157.922-.157.195 0 .406.024.625.063q.326.047.593.14v-.359c0-.344-.105-.617-.312-.828q-.315-.312-.86-.313-.344.001-.671.125-.316.127-.672.36l-.203-.39q.405-.266.797-.407.386-.14.796-.14.763.002 1.204.437.451.44.453 1.203v1.922q0 .112.046.172.047.045.157.046V0c-.063.008-.117.016-.156.016a.2.2 0 0 1-.094 0q-.206.001-.313-.125a.4.4 0 0 1-.094-.25l-.015-.313a1.86 1.86 0 0 1-.735.563 2.25 2.25 0 0 1-.89.187c-.274 0-.516-.058-.734-.172a1.4 1.4 0 0 1-.5-.453 1.2 1.2 0 0 1-.172-.64m2.78.312q.079-.107.126-.203.06-.107.062-.203v-.594a3 3 0 0 0-.578-.156 3 3 0 0 0-.578-.063q-.581 0-.937.235a.69.69 0 0 0-.36.625q-.001.236.11.437.124.204.359.344.232.127.547.125.389.002.719-.156c.226-.102.406-.235.53-.391m0 0"/><path id="f" d="M2.625.078q-.485.001-.906-.25a1.8 1.8 0 0 1-.64-.64V0H.593v-5.812h.547v2.53q.28-.42.672-.671c.257-.176.562-.266.906-.266q.434 0 .781.188.341.174.594.484.246.3.375.688.124.392.125.797-.002.44-.157.828-.14.376-.406.672-.268.299-.625.468-.361.172-.781.172M2.5-.39c.227 0 .438-.046.625-.14q.281-.141.484-.375.217-.233.329-.531.107-.311.109-.625 0-.436-.188-.829a1.6 1.6 0 0 0-.515-.625 1.3 1.3 0 0 0-.781-.234 1.23 1.23 0 0 0-.594.156q-.269.141-.485.375-.204.234-.343.516v1.281a.9.9 0 0 0 .156.406q.14.188.344.329.198.126.422.218c.156.055.3.078.437.078m0 0"/><path id="g" d="M2.406.078q-.469 0-.844-.172a2.1 2.1 0 0 1-.656-.468 2.26 2.26 0 0 1-.593-1.532c0-.383.085-.738.265-1.062q.265-.5.735-.781A2.06 2.06 0 0 1 2.39-4.22q.574.001 1.015.266.45.269.672.719l-.531.172a1.2 1.2 0 0 0-.485-.5 1.35 1.35 0 0 0-.703-.188q-.41 0-.75.219a1.57 1.57 0 0 0-.546.594q-.205.374-.204.843 0 .471.204.86.217.375.546.609.343.234.766.234.264 0 .516-.093.248-.106.437-.266a.9.9 0 0 0 .25-.36l.547.157q-.112.298-.375.531-.27.234-.61.375a2.2 2.2 0 0 1-.734.125m0 0"/><path id="h" d="M4.094 0h-.547v-2.312q0-.733-.219-1.079-.221-.341-.672-.343-.329.001-.64.156a1.9 1.9 0 0 0-.532.422c-.156.18-.273.383-.343.61V0H.594v-4.156h.5v.937q.169-.293.437-.515c.176-.157.38-.274.61-.36.226-.082.468-.125.718-.125q.342.001.579.125a1 1 0 0 1 .374.36q.14.234.204.562.077.33.078.735Zm0 0"/><path id="i" d="M.344 0q0-.265.047-.547.058-.279.187-.547.14-.264.406-.515.265-.248.688-.485l.484-.219q.246-.123.469-.265c.145-.094.258-.195.344-.313a.77.77 0 0 0 .016-.812.75.75 0 0 0-.344-.313 1.3 1.3 0 0 0-.594-.125q-.252.001-.469.079a1.3 1.3 0 0 0-.36.171 2 2 0 0 0-.265.22 2 2 0 0 1-.187.171l-.344-.375.172-.172a2.3 2.3 0 0 1 .36-.25q.216-.141.515-.234.31-.094.672-.094.48.001.828.172c.226.117.406.266.531.453q.188.283.188.625 0 .328-.141.563a1.5 1.5 0 0 1-.36.406 3.5 3.5 0 0 1-.89.5 3.4 3.4 0 0 0-.625.36 2 2 0 0 0-.406.359A1.35 1.35 0 0 0 .922-.5h2.844V0Zm0 0"/><path id="k" d="M2.266.063c-.282 0-.543-.06-.782-.172A2.1 2.1 0 0 1 .86-.594a2.4 2.4 0 0 1-.406-.672 2.3 2.3 0 0 1-.14-.796q0-.436.14-.829.14-.387.39-.687.265-.293.61-.469.357-.17.797-.172.528.001.922.266.389.268.672.672v-.875h.484V.016q0 .575-.281.968a1.7 1.7 0 0 1-.734.594 2.6 2.6 0 0 1-1.016.203q-.721-.001-1.156-.265A2 2 0 0 1 .438.844L.766.578q.246.389.656.578.405.188.875.188c.27 0 .515-.055.734-.157.227-.093.41-.242.547-.437q.201-.282.203-.734v-.828a1.8 1.8 0 0 1-.656.64 1.7 1.7 0 0 1-.86.235m.156-.454q.233 0 .453-.093.234-.094.422-.235a1.6 1.6 0 0 0 .328-.328q.122-.187.156-.375v-1.281a1.5 1.5 0 0 0-.344-.547 1.6 1.6 0 0 0-.5-.36 1.3 1.3 0 0 0-.593-.14c-.23 0-.438.055-.625.156-.18.094-.328.227-.453.39a1.8 1.8 0 0 0-.391 1.142q-.001.346.11.64.121.298.328.531.217.236.5.375c.187.086.39.125.609.125m0 0"/><clipPath id="a"><path d="M0 0h970.45v494.664H0Zm0 0"/></clipPath><clipPath id="j"><path d="M475 488h19v6.664h-19Zm0 0"/></clipPath></defs><g clip-path="url(#a)"><path fill="#fff" d="M0 494.664V-.004h970.465v494.668Zm0 0"/></g><use xlink:href="#b" x="3.894" y="19.517"/><use xlink:href="#c" x="10.659" y="21.011"/><use xlink:href="#d" x="14.07" y="21.011"/><use xlink:href="#e" x="15.863" y="21.011"/><path fill="none" stroke="#000" stroke-miterlimit="10" stroke-width=".398" d="M3.895 23.05h16.808"/><use xlink:href="#b" x="3.321" y="75.763"/><use xlink:href="#c" x="10.085" y="78.15"/><use xlink:href="#d" x="13.496" y="78.15"/><use xlink:href="#f" x="15.289" y="78.15"/><path fill="none" stroke="#000" stroke-miterlimit="10" stroke-width=".398" d="M3.32 80.191h17.387"/><use xlink:href="#b" x="3.862" y="132.902"/><use xlink:href="#c" x="10.627" y="134.397"/><use xlink:href="#d" x="14.038" y="134.397"/><use xlink:href="#g" x="15.831" y="134.397"/><path fill="none" stroke="#000" stroke-miterlimit="10" stroke-width=".398" d="M3.863 136.438h16.84"/><use xlink:href="#b" x="3.591" y="189.595"/><use xlink:href="#c" x="10.356" y="191.09"/><use xlink:href="#d" x="13.767" y="191.09"/><use xlink:href="#h" x="15.56" y="191.09"/><path fill="none" stroke="#000" stroke-miterlimit="10" stroke-width=".398" d="M3.59 193.129h17.113"/><use xlink:href="#b" x="949.004" y="19.517"/><use xlink:href="#i" x="955.769" y="21.011"/><use xlink:href="#d" x="959.921" y="21.011"/><use xlink:href="#e" x="961.715" y="21.011"/><path fill="none" stroke="#000" stroke-miterlimit="10" stroke-width=".398" d="M949.004 23.05h17.55"/><use xlink:href="#b" x="949.004" y="75.763"/><use xlink:href="#i" x="955.769" y="78.15"/><use xlink:href="#d" x="959.921" y="78.15"/><use xlink:href="#f" x="961.715" y="78.15"/><path fill="none" stroke="#000" stroke-miterlimit="10" stroke-width=".398" d="M949.004 80.191h18.125"/><use xlink:href="#b" x="949.004" y="132.902"/><use xlink:href="#i" x="955.769" y="134.397"/><use xlink:href="#d" x="959.921" y="134.397"/><use xlink:href="#g" x="961.715" y="134.397"/><path fill="none" stroke="#000" stroke-miterlimit="10" stroke-width=".398" d="M949.004 136.438h17.586"/><use xlink:href="#b" x="949.004" y="189.595"/><use xlink:href="#i" x="955.769" y="191.09"/><use xlink:href="#d" x="959.921" y="191.09"/><use xlink:href="#h" x="961.715" y="191.09"/><path fill="none" stroke="#000" stroke-miterlimit="10" stroke-width=".398" d="M949.004 193.129h17.855"/><path fill="none" stroke="#000" stroke-miterlimit="10" stroke-width=".399" d="M484.86 471.59v17.008"/><g clip-path="url(#j)"><path fill="none" stroke="#000" stroke-miterlimit="10" stroke-width=".797" d="M476.355 488.598h17.008m-14.172 2.836h11.34m-9.215 2.832h7.086"/></g><use xlink:href="#b" x="469.147" y="472.494"/><use xlink:href="#k" x="475.911" y="473.988"/><path fill="none" stroke="#000" stroke-miterlimit="10" stroke-width=".398" d="M469.148 477.16h12.188"/><path fill="none" stroke="#000" stroke-miterlimit="10" stroke-width=".399" d="M88.004 414.895h198.43m0 0h595.28"/><path stroke="#000" stroke-miterlimit="10" stroke-width=".399" d="M485.766 414.895a.907.907 0 0 0-1.812 0 .905.905 0 1 0 1.813 0Zm0 0"/><path fill="none" stroke="#000" stroke-miterlimit="10" stroke-width=".399" d="M88.004 414.895h198.43m0 0h595.28"/><path stroke="#000" stroke-miterlimit="10" stroke-width=".399" d="M485.766 414.895a.907.907 0 0 0-1.812 0 .905.905 0 1 0 1.813 0Zm0 0"/><path fill="none" stroke="#000" stroke-miterlimit="10" stroke-width=".399" d="M484.86 471.59v-28.348m0 0v-28.347"/><path stroke="#000" stroke-miterlimit="10" stroke-width=".399" d="M485.766 471.59a.907.907 0 1 0-1.811.001.907.907 0 0 0 1.81-.001Zm-.906-27.356h1.136l-1.137-2.41-1.132 2.41Zm0 0"/><use xlink:href="#l" x="473.441" y="444.147"/><use xlink:href="#k" x="475.911" y="445.642"/><path fill="none" stroke="#000" stroke-miterlimit="10" stroke-width=".398" d="M473.441 448.813h7.895"/><path fill="none" stroke="#000" stroke-miterlimit="10" stroke-width=".399" d="M24.227 188.121h31.886m0 0H219.11m0 0h139.75m18.141 0h19.559m13.609 0h32.172m0 0h99.215m0 0h209.058m0 0h162.992m0 0h31.891"/><path stroke="#000" stroke-miterlimit="10" stroke-width=".399" d="M25.133 188.121a.908.908 0 0 0-1.816 0 .908.908 0 0 0 1.816 0Zm29.988 0v1.133l2.41-1.133-2.41-1.133Zm0 0"/><use xlink:href="#l" x="49.705" y="180.473"/><use xlink:href="#c" x="52.176" y="181.967"/><use xlink:href="#d" x="55.587" y="181.967"/><use xlink:href="#h" x="57.38" y="181.967"/><path fill="none" stroke="#000" stroke-miterlimit="10" stroke-width=".398" d="M49.703 184.008h12.82"/><path stroke="#000" stroke-miterlimit="10" stroke-width=".399" d="M351.121 188.121a.908.908 0 0 0-1.816 0 .908.908 0 0 0 1.816 0Zm0 0"/><path fill="none" stroke="#000" stroke-miterlimit="10" stroke-width=".797" d="M358.86 184.719H377v6.804h-18.14Zm0 0"/><use xlink:href="#m" x="362.101" y="180.505"/><use xlink:href="#h" x="368.606" y="181.999"/><path fill="none" stroke="#000" stroke-linejoin="bevel" stroke-miterlimit="10" stroke-width=".797" d="M396.16 188.281c0-1.879.95-3.402 2.121-3.402s2.121 1.523 2.121 3.402c0 .938-.379 1.7-.851 1.7-.469 0-.848-.762-.848-1.7 0-1.879.95-3.402 2.121-3.402s2.121 1.523 2.121 3.402c0 .938-.382 1.7-.851 1.7s-.852-.762-.852-1.7c0-1.879.95-3.402 2.121-3.402s2.121 1.523 2.121 3.402c0 .938-.382 1.7-.851 1.7s-.848-.762-.848-1.7c0-1.879.95-3.402 2.117-3.402 1.172 0 2.121 1.523 2.121 3.402 0 .938-.378 1.7-.847 1.7-.473 0-.852-.762-.852-1.7 0-1.879.95-3.402 2.121-3.402s2.121 1.523 2.121 3.402"/><use xlink:href="#n" x="397.882" y="180.505"/><use xlink:href="#h" x="403.691" y="181.999"/><path stroke="#000" stroke-miterlimit="10" stroke-width=".399" d="M620.414 188.121a.907.907 0 1 0-1.814.001.907.907 0 0 0 1.814 0Zm0 0"/><path stroke="#000" stroke-miterlimit="10" stroke-width=".399" d="M620.414 188.121a.907.907 0 1 0-1.814.001.907.907 0 0 0 1.814 0Zm325.988 0a.907.907 0 1 0-1.813.001.907.907 0 0 0 1.813 0Zm-31.804 0v-1.133l-2.41 1.133 2.41 1.133Zm0 0"/><use xlink:href="#l" x="906.814" y="180.473"/><use xlink:href="#i" x="909.285" y="181.967"/><use xlink:href="#d" x="913.437" y="181.967"/><use xlink:href="#h" x="915.231" y="181.967"/><path fill="none" stroke="#000" stroke-miterlimit="10" stroke-width=".398" d="M906.813 184.008h13.562"/><path fill="none" stroke="#000" stroke-miterlimit="10" stroke-width=".399" d="M24.227 131.43h31.886m0 0H219.11m0 0h139.75m18.141 0h19.559m13.609 0h32.172m0 0h99.215m0 0h209.058m0 0h162.992m0 0h31.891"/><path stroke="#000" stroke-miterlimit="10" stroke-width=".399" d="M25.133 131.43a.908.908 0 1 0-1.816-.005.908.908 0 0 0 1.816.005Zm29.988 0v1.132l2.41-1.132-2.41-1.137Zm0 0"/><use xlink:href="#l" x="49.84" y="123.78"/><use xlink:href="#c" x="52.311" y="125.274"/><use xlink:href="#d" x="55.722" y="125.274"/><use xlink:href="#g" x="57.515" y="125.274"/><path fill="none" stroke="#000" stroke-miterlimit="10" stroke-width=".398" d="M49.84 127.313h12.55"/><path stroke="#000" stroke-miterlimit="10" stroke-width=".399" d="M351.121 131.43a.908.908 0 1 0-1.815-.005.908.908 0 0 0 1.815.005Zm0 0"/><path fill="none" stroke="#000" stroke-miterlimit="10" stroke-width=".797" d="M358.86 128.027H377v6.801h-18.14Zm0 0"/><use xlink:href="#m" x="362.236" y="123.812"/><use xlink:href="#g" x="368.742" y="125.307"/><path fill="none" stroke="#000" stroke-linejoin="bevel" stroke-miterlimit="10" stroke-width=".797" d="M396.16 131.586c0-1.879.95-3.399 2.121-3.399s2.121 1.52 2.121 3.399c0 .941-.379 1.703-.851 1.703-.469 0-.848-.762-.848-1.703 0-1.879.95-3.399 2.121-3.399s2.121 1.52 2.121 3.399c0 .941-.382 1.703-.851 1.703s-.852-.762-.852-1.703c0-1.879.95-3.399 2.121-3.399s2.121 1.52 2.121 3.399c0 .941-.382 1.703-.851 1.703s-.848-.762-.848-1.703c0-1.879.95-3.399 2.117-3.399 1.172 0 2.121 1.52 2.121 3.399 0 .941-.378 1.703-.847 1.703-.473 0-.852-.762-.852-1.703 0-1.879.95-3.399 2.121-3.399s2.121 1.52 2.121 3.399"/><use xlink:href="#n" x="398.018" y="123.812"/><use xlink:href="#g" x="403.826" y="125.307"/><path stroke="#000" stroke-miterlimit="10" stroke-width=".399" d="M620.414 131.43a.91.91 0 0 0-.906-.91.908.908 0 0 0 0 1.816c.5 0 .906-.406.906-.906Zm0 0"/><path stroke="#000" stroke-miterlimit="10" stroke-width=".399" d="M620.414 131.43a.91.91 0 0 0-.906-.91.908.908 0 0 0 0 1.816c.5 0 .906-.406.906-.906Zm325.988 0a.91.91 0 0 0-.906-.91.908.908 0 0 0 0 1.816c.5 0 .906-.406.906-.906Zm-31.804 0v-1.137l-2.41 1.137 2.41 1.132Zm0 0"/><use xlink:href="#l" x="906.95" y="123.78"/><use xlink:href="#i" x="909.42" y="125.274"/><use xlink:href="#d" x="913.572" y="125.274"/><use xlink:href="#g" x="915.366" y="125.274"/><path fill="none" stroke="#000" stroke-miterlimit="10" stroke-width=".398" d="M906.95 127.313h13.288"/><path fill="none" stroke="#000" stroke-miterlimit="10" stroke-width=".399" d="M24.227 74.734h31.886m0 0H219.11m0 0h139.75m18.141 0h19.559m13.609 0h32.172m0 0h99.215m0 0h209.058m0 0h162.992m0 0h31.891"/><path stroke="#000" stroke-miterlimit="10" stroke-width=".399" d="M25.133 74.734a.908.908 0 0 0-1.816 0 .908.908 0 0 0 1.816 0Zm29.988 0v1.133l2.41-1.133-2.41-1.132Zm0 0"/><use xlink:href="#l" x="49.569" y="66.195"/><use xlink:href="#c" x="52.04" y="68.581"/><use xlink:href="#d" x="55.451" y="68.581"/><use xlink:href="#f" x="57.244" y="68.581"/><path fill="none" stroke="#000" stroke-miterlimit="10" stroke-width=".398" d="M49.57 70.621h13.09"/><path stroke="#000" stroke-miterlimit="10" stroke-width=".399" d="M351.121 74.734a.908.908 0 0 0-1.816 0 .908.908 0 0 0 1.816 0Zm0 0"/><path fill="none" stroke="#000" stroke-miterlimit="10" stroke-width=".797" d="M358.86 71.332H377v6.805h-18.14Zm0 0"/><use xlink:href="#m" x="361.965" y="67.119"/><use xlink:href="#f" x="368.471" y="69.506"/><path fill="none" stroke="#000" stroke-linejoin="bevel" stroke-miterlimit="10" stroke-width=".797" d="M396.16 74.895c0-1.88.95-3.403 2.121-3.403s2.121 1.524 2.121 3.403c0 .937-.379 1.699-.851 1.699-.469 0-.848-.762-.848-1.7 0-1.878.95-3.402 2.121-3.402s2.121 1.524 2.121 3.403c0 .937-.382 1.699-.851 1.699s-.852-.762-.852-1.7c0-1.878.95-3.402 2.121-3.402s2.121 1.524 2.121 3.403c0 .937-.382 1.699-.851 1.699s-.848-.762-.848-1.7c0-1.878.95-3.402 2.117-3.402 1.172 0 2.121 1.524 2.121 3.403 0 .937-.378 1.699-.847 1.699-.473 0-.852-.762-.852-1.7 0-1.878.95-3.402 2.121-3.402s2.121 1.524 2.121 3.403"/><use xlink:href="#n" x="397.747" y="67.119"/><use xlink:href="#f" x="403.555" y="69.506"/><path stroke="#000" stroke-miterlimit="10" stroke-width=".399" d="M620.414 74.734a.907.907 0 1 0-1.814.002.907.907 0 0 0 1.814-.002Zm0 0"/><path stroke="#000" stroke-miterlimit="10" stroke-width=".399" d="M620.414 74.734a.907.907 0 1 0-1.814.002.907.907 0 0 0 1.814-.002Zm325.988 0a.907.907 0 1 0-1.813.002.907.907 0 0 0 1.813-.002Zm-31.804 0v-1.132l-2.41 1.132 2.41 1.133Zm0 0"/><use xlink:href="#l" x="906.679" y="66.195"/><use xlink:href="#i" x="909.149" y="68.581"/><use xlink:href="#d" x="913.301" y="68.581"/><use xlink:href="#f" x="915.095" y="68.581"/><path fill="none" stroke="#000" stroke-miterlimit="10" stroke-width=".398" d="M906.68 70.621h13.832"/><path fill="none" stroke="#000" stroke-miterlimit="10" stroke-width=".399" d="M24.227 18.04h31.886m0 0H219.11m0 0h139.75m18.141 0h19.559m13.609 0h32.172m0 0h99.215m0 0h209.058m0 0h162.992m0 0h31.891"/><path stroke="#000" stroke-miterlimit="10" stroke-width=".399" d="M25.133 18.04a.908.908 0 1 0-1.817.003.908.908 0 0 0 1.817-.004Zm29.988 0v1.136l2.41-1.137-2.41-1.133Zm0 0"/><use xlink:href="#l" x="49.856" y="10.394"/><use xlink:href="#c" x="52.327" y="11.888"/><use xlink:href="#d" x="55.738" y="11.888"/><use xlink:href="#e" x="57.531" y="11.888"/><path fill="none" stroke="#000" stroke-miterlimit="10" stroke-width=".398" d="M49.855 13.93h12.516"/><path stroke="#000" stroke-miterlimit="10" stroke-width=".399" d="M351.121 18.04a.908.908 0 1 0-1.817.003.908.908 0 0 0 1.817-.004Zm0 0"/><path fill="none" stroke="#000" stroke-miterlimit="10" stroke-width=".797" d="M358.86 14.64H377v6.801h-18.14Zm0 0"/><use xlink:href="#m" x="362.252" y="10.426"/><use xlink:href="#e" x="368.758" y="11.921"/><path fill="none" stroke="#000" stroke-linejoin="bevel" stroke-miterlimit="10" stroke-width=".797" d="M396.16 18.2c0-1.88.95-3.403 2.121-3.403s2.121 1.523 2.121 3.402c0 .942-.379 1.703-.851 1.703-.469 0-.848-.761-.848-1.703 0-1.879.95-3.402 2.121-3.402s2.121 1.523 2.121 3.402c0 .942-.382 1.703-.851 1.703s-.852-.761-.852-1.703c0-1.879.95-3.402 2.121-3.402s2.121 1.523 2.121 3.402c0 .942-.382 1.703-.851 1.703s-.848-.761-.848-1.703c0-1.879.95-3.402 2.117-3.402 1.172 0 2.121 1.523 2.121 3.402 0 .942-.378 1.703-.847 1.703-.473 0-.852-.761-.852-1.703 0-1.879.95-3.402 2.121-3.402s2.121 1.523 2.121 3.402"/><use xlink:href="#n" x="398.034" y="10.426"/><use xlink:href="#e" x="403.842" y="11.921"/><path stroke="#000" stroke-miterlimit="10" stroke-width=".399" d="M620.414 18.04a.907.907 0 0 0-1.812 0c0 .503.406.91.906.91s.906-.407.906-.91Zm0 0"/><path stroke="#000" stroke-miterlimit="10" stroke-width=".399" d="M620.414 18.04a.907.907 0 0 0-1.812 0c0 .503.406.91.906.91s.906-.407.906-.91Zm325.988 0a.907.907 0 0 0-1.812 0c0 .503.406.91.906.91s.906-.407.906-.91Zm-31.804 0v-1.134l-2.41 1.133 2.41 1.137Zm0 0"/><use xlink:href="#l" x="906.966" y="10.394"/><use xlink:href="#i" x="909.436" y="11.888"/><use xlink:href="#d" x="913.588" y="11.888"/><use xlink:href="#e" x="915.382" y="11.888"/><path fill="none" stroke="#000" stroke-miterlimit="10" stroke-width=".398" d="M906.965 13.93h13.258"/><path fill="none" stroke="#000" stroke-miterlimit="10" stroke-width=".399" d="M465.773 22.082c8.157 16.363 8.157 32.25 0 48.613"/><path stroke="#000" stroke-miterlimit="10" stroke-width=".399" d="M463.988 18.766c.121.46.516 2.55.504 3.996l2.547-1.367c-1.21-.79-2.734-2.278-3.05-2.63Zm0 55.246c.317-.356 1.84-1.844 3.051-2.633l-2.547-1.367c.012 1.445-.383 3.539-.504 4Zm0 0"/><use xlink:href="#o" x="475.405" y="47.7"/><use xlink:href="#e" x="484.143" y="50.087"/><use xlink:href="#f" x="488.487" y="50.087"/><path fill="none" stroke="#000" stroke-miterlimit="10" stroke-width=".398" d="M475.406 51.563h18.496"/><path fill="none" stroke="#000" stroke-miterlimit="10" stroke-width=".399" d="M465.773 78.777c8.157 16.36 8.157 32.25 0 48.614"/><path stroke="#000" stroke-miterlimit="10" stroke-width=".399" d="M463.988 75.457c.121.461.516 2.55.504 4l2.547-1.367c-1.21-.79-2.734-2.277-3.05-2.633Zm0 55.246c.317-.351 1.84-1.84 3.051-2.629l-2.547-1.367c.012 1.445-.383 3.535-.504 3.996Zm0 0"/><use xlink:href="#o" x="475.405" y="104.393"/><use xlink:href="#f" x="484.143" y="106.779"/><use xlink:href="#g" x="489.061" y="106.779"/><path fill="none" stroke="#000" stroke-miterlimit="10" stroke-width=".398" d="M475.406 108.254h18.528"/><path fill="none" stroke="#000" stroke-miterlimit="10" stroke-width=".399" d="M465.773 135.469c8.157 16.363 8.157 32.254 0 48.613"/><path stroke="#000" stroke-miterlimit="10" stroke-width=".399" d="M463.988 132.152c.121.461.516 2.551.504 3.996l2.547-1.367c-1.21-.789-2.734-2.277-3.05-2.629Zm0 55.246c.317-.355 1.84-1.843 3.051-2.632l-2.547-1.368c.012 1.45-.383 3.54-.504 4Zm0 0"/><use xlink:href="#o" x="475.405" y="161.532"/><use xlink:href="#g" x="484.143" y="163.026"/><use xlink:href="#h" x="488.519" y="163.026"/><path fill="none" stroke="#000" stroke-miterlimit="10" stroke-width=".398" d="M475.406 164.5h18.258"/><path fill="none" stroke="#000" stroke-miterlimit="10" stroke-width=".399" d="M504.813 22.047c19.128 35.527 19.128 69.855-.004 105.383"/><path stroke="#000" stroke-miterlimit="10" stroke-width=".399" d="M502.977 18.758c.125.457.558 2.543.566 3.988l2.527-1.406c-1.222-.77-2.77-2.235-3.093-2.582Zm0 111.952c.324-.347 1.87-1.812 3.093-2.581l-2.527-1.41c-.008 1.449-.438 3.531-.566 3.992Zm0 0"/><use xlink:href="#o" x="518.527" y="48.286"/><use xlink:href="#g" x="527.264" y="49.781"/><use xlink:href="#e" x="531.64" y="49.781"/><path fill="none" stroke="#000" stroke-miterlimit="10" stroke-width=".398" d="M518.527 51.254h17.953"/><path fill="none" stroke="#000" stroke-miterlimit="10" stroke-width=".399" d="M528.2 78.742c19.128 35.528 19.128 69.852-.005 105.383"/><path stroke="#000" stroke-miterlimit="10" stroke-width=".399" d="M526.363 75.453c.125.457.555 2.543.567 3.988l2.527-1.406c-1.227-.773-2.77-2.234-3.094-2.582Zm0 111.949c.325-.347 1.867-1.808 3.094-2.582l-2.527-1.406c-.012 1.445-.442 3.531-.567 3.988Zm0 0"/><use xlink:href="#o" x="541.912" y="160.946"/><use xlink:href="#f" x="550.649" y="163.332"/><use xlink:href="#h" x="555.567" y="163.332"/><path fill="none" stroke="#000" stroke-miterlimit="10" stroke-width=".398" d="M541.91 164.809h18.8"/><path fill="none" stroke="#000" stroke-miterlimit="10" stroke-width=".399" d="M582.785 22.035c30.156 54.68 30.156 107.414 0 162.094"/><path stroke="#000" stroke-miterlimit="10" stroke-width=".399" d="M580.934 18.758c.129.457.57 2.539.59 3.984l2.519-1.422c-1.23-.761-2.785-2.218-3.11-2.562Zm0 168.648c.324-.347 1.879-1.8 3.109-2.566l-2.52-1.422c-.02 1.45-.46 3.531-.59 3.988Zm0 0"/><use xlink:href="#o" x="583.651" y="104.839"/><use xlink:href="#e" x="592.388" y="106.333"/><use xlink:href="#h" x="596.732" y="106.333"/><path fill="none" stroke="#000" stroke-miterlimit="10" stroke-width=".398" d="M583.652 107.809h18.227"/><path fill="none" stroke="#000" stroke-miterlimit="10" stroke-width=".399" d="M88.004 18.04v90.71m0 0v90.71h11.34v7.938m0 18.141v7.938h-11.34v90.71m0 0v90.708"/><path stroke="#000" stroke-miterlimit="10" stroke-width=".399" d="M88.914 18.04a.908.908 0 1 0-1.815.002.908.908 0 0 0 1.815-.003Zm0 0"/><path fill="none" stroke="#000" stroke-miterlimit="10" stroke-width=".797" d="M95.941 225.54v-18.142h6.805v18.141Zm0 0"/><use xlink:href="#p" x="106.219" y="212.317"/><use xlink:href="#e" x="113.352" y="213.812"/><path fill="none" stroke="#000" stroke-miterlimit="10" stroke-width=".398" d="M106.219 216.566h11.976"/><use xlink:href="#q" x="109.611" y="225.891"/><path stroke="#000" stroke-miterlimit="10" stroke-width=".399" d="M88.914 414.895a.908.908 0 1 0-1.815.003.908.908 0 0 0 1.815-.003Zm0 0"/><path fill="none" stroke="#000" stroke-miterlimit="10" stroke-width=".399" d="M88.004 199.46H76.668v14.743m0 4.535v14.739h11.336"/><path fill="none" stroke="#000" stroke-miterlimit="10" stroke-width=".797" d="M83.469 214.203H69.863m13.606 4.535H69.863"/><use xlink:href="#r" x="54.372" y="212.317"/><use xlink:href="#e" x="61.206" y="213.812"/><path fill="none" stroke="#000" stroke-miterlimit="10" stroke-width=".398" d="M54.371 216.566h11.676"/><use xlink:href="#q" x="57.615" y="225.891"/><path fill="none" stroke="#000" stroke-miterlimit="10" stroke-width=".399" d="M144.7 74.734v85.04m0 0v85.042h11.34v7.938m0 18.14v7.938H144.7v68.031m0 0v68.032"/><path stroke="#000" stroke-miterlimit="10" stroke-width=".399" d="M145.605 74.734a.907.907 0 1 0-1.813.002.907.907 0 0 0 1.813-.002Zm0 0"/><path fill="none" stroke="#000" stroke-miterlimit="10" stroke-width=".797" d="M152.637 270.895v-18.141h6.8v18.14Zm0 0"/><use xlink:href="#p" x="162.912" y="257.671"/><use xlink:href="#f" x="170.045" y="260.058"/><path fill="none" stroke="#000" stroke-miterlimit="10" stroke-width=".398" d="M162.91 261.922h12.55"/><use xlink:href="#q" x="166.591" y="271.245"/><path stroke="#000" stroke-miterlimit="10" stroke-width=".399" d="M145.605 414.895a.907.907 0 0 0-1.812 0c0 .503.406.91.906.91s.906-.407.906-.91Zm0 0"/><path fill="none" stroke="#000" stroke-miterlimit="10" stroke-width=".399" d="M144.7 244.816h-11.34v14.739m0 4.535v14.742h11.34"/><path fill="none" stroke="#000" stroke-miterlimit="10" stroke-width=".797" d="M140.164 259.555H126.56m13.605 4.535H126.56"/><use xlink:href="#r" x="110.491" y="257.671"/><use xlink:href="#f" x="117.325" y="260.058"/><path fill="none" stroke="#000" stroke-miterlimit="10" stroke-width=".398" d="M110.492 261.922h12.25"/><use xlink:href="#q" x="114.021" y="271.245"/><path fill="none" stroke="#000" stroke-miterlimit="10" stroke-width=".399" d="M144.7 18.04v26.08m0 4.535v26.078"/><path fill="none" stroke="#000" stroke-miterlimit="10" stroke-width=".797" d="M151.504 44.121h-13.61m13.61 4.535h-13.61"/><path stroke="#000" stroke-miterlimit="10" stroke-width=".399" d="M145.605 18.04a.907.907 0 0 0-1.812 0c0 .503.406.91.906.91s.906-.407.906-.91Zm0 0"/><use xlink:href="#r" x="117.486" y="42.238"/><use xlink:href="#e" x="124.32" y="44.625"/><use xlink:href="#f" x="128.664" y="44.625"/><path fill="none" stroke="#000" stroke-miterlimit="10" stroke-width=".398" d="M117.484 46.488h16.594"/><use xlink:href="#q" x="123.187" y="55.812"/><path fill="none" stroke="#000" stroke-miterlimit="10" stroke-width=".399" d="M201.39 131.43v79.367m0 0v79.371h11.34v7.937m0 18.145v7.934h-11.34v45.355m0 0v45.356"/><path stroke="#000" stroke-miterlimit="10" stroke-width=".399" d="M202.3 131.43a.909.909 0 1 0-1.816-.003.909.909 0 0 0 1.817.003Zm0 0"/><path fill="none" stroke="#000" stroke-miterlimit="10" stroke-width=".797" d="M209.328 316.25v-18.145h6.805v18.145Zm0 0"/><use xlink:href="#p" x="219.605" y="303.025"/><use xlink:href="#g" x="226.738" y="304.519"/><path fill="none" stroke="#000" stroke-miterlimit="10" stroke-width=".398" d="M219.605 307.273h12.008"/><use xlink:href="#q" x="223.013" y="316.598"/><path stroke="#000" stroke-miterlimit="10" stroke-width=".399" d="M202.3 414.895a.908.908 0 1 0-1.815.003.908.908 0 0 0 1.816-.003Zm0 0"/><path fill="none" stroke="#000" stroke-miterlimit="10" stroke-width=".399" d="M201.39 290.168h-11.335v14.742m0 4.535v14.739h11.336"/><path fill="none" stroke="#000" stroke-miterlimit="10" stroke-width=".797" d="M196.855 304.91H183.25m13.605 4.535H183.25"/><use xlink:href="#r" x="167.726" y="303.025"/><use xlink:href="#g" x="174.56" y="304.519"/><path fill="none" stroke="#000" stroke-miterlimit="10" stroke-width=".398" d="M167.727 307.273h11.707"/><use xlink:href="#q" x="170.985" y="316.598"/><path fill="none" stroke="#000" stroke-miterlimit="10" stroke-width=".399" d="M201.39 74.734v26.079m0 4.535v26.082"/><path fill="none" stroke="#000" stroke-miterlimit="10" stroke-width=".797" d="M208.195 100.813H194.59m13.605 4.535H194.59"/><path stroke="#000" stroke-miterlimit="10" stroke-width=".399" d="M202.3 74.734a.908.908 0 0 0-1.816 0 .908.908 0 0 0 1.816 0Zm0 56.696a.909.909 0 1 0-1.816-.003.909.909 0 0 0 1.817.003Zm0 0"/><use xlink:href="#r" x="174.147" y="98.931"/><use xlink:href="#f" x="180.981" y="101.318"/><use xlink:href="#g" x="185.899" y="101.318"/><path fill="none" stroke="#000" stroke-miterlimit="10" stroke-width=".398" d="M174.148 103.18h16.625"/><use xlink:href="#q" x="179.864" y="112.505"/><path fill="none" stroke="#000" stroke-miterlimit="10" stroke-width=".399" d="M258.086 188.121v73.703m0 0v73.7h11.34v7.937m0 18.14v7.938h-11.34v22.68m0 0v22.676"/><path stroke="#000" stroke-miterlimit="10" stroke-width=".399" d="M258.992 188.121a.907.907 0 1 0-1.814.001.907.907 0 0 0 1.814 0Zm0 0"/><path fill="none" stroke="#000" stroke-miterlimit="10" stroke-width=".797" d="M266.023 361.602V343.46h6.805v18.14Zm0 0"/><use xlink:href="#p" x="276.298" y="348.378"/><use xlink:href="#h" x="283.431" y="349.873"/><path fill="none" stroke="#000" stroke-miterlimit="10" stroke-width=".398" d="M276.297 352.629h12.277"/><use xlink:href="#q" x="279.842" y="361.952"/><path stroke="#000" stroke-miterlimit="10" stroke-width=".399" d="M258.992 414.895a.907.907 0 0 0-1.812 0c0 .503.406.91.906.91s.906-.407.906-.91Zm0 0"/><path fill="none" stroke="#000" stroke-miterlimit="10" stroke-width=".399" d="M258.086 335.523h-11.34v14.743m0 4.535v14.738h11.34"/><path fill="none" stroke="#000" stroke-miterlimit="10" stroke-width=".797" d="M253.55 350.266h-13.605m13.606 4.535h-13.606"/><use xlink:href="#r" x="224.148" y="348.378"/><use xlink:href="#h" x="230.982" y="349.873"/><path fill="none" stroke="#000" stroke-miterlimit="10" stroke-width=".398" d="M224.148 352.629h11.98"/><use xlink:href="#q" x="227.542" y="361.952"/><path fill="none" stroke="#000" stroke-miterlimit="10" stroke-width=".399" d="M258.086 131.43v26.078m0 4.535v26.078"/><path fill="none" stroke="#000" stroke-miterlimit="10" stroke-width=".797" d="M264.89 157.508h-13.609m13.61 4.535h-13.61"/><path stroke="#000" stroke-miterlimit="10" stroke-width=".399" d="M258.992 131.43a.91.91 0 0 0-.906-.91.908.908 0 0 0 0 1.816c.5 0 .906-.406.906-.906Zm0 56.691a.907.907 0 1 0-1.814.001.907.907 0 0 0 1.814 0Zm0 0"/><use xlink:href="#r" x="231.11" y="155.624"/><use xlink:href="#g" x="237.945" y="157.118"/><use xlink:href="#h" x="242.321" y="157.118"/><path fill="none" stroke="#000" stroke-miterlimit="10" stroke-width=".398" d="M231.11 159.871h16.355"/><use xlink:href="#q" x="236.693" y="169.198"/><path fill="none" stroke="#000" stroke-miterlimit="10" stroke-width=".399" d="M258.086 18.04v26.08m0 4.535v54.426m0 0v28.348"/><path fill="none" stroke="#000" stroke-miterlimit="10" stroke-width=".797" d="M264.89 44.121h-13.609m13.61 4.535h-13.61"/><path stroke="#000" stroke-miterlimit="10" stroke-width=".399" d="M258.992 18.04a.907.907 0 0 0-1.812 0c0 .503.406.91.906.91s.906-.407.906-.91Zm0 0"/><use xlink:href="#r" x="231.413" y="42.238"/><use xlink:href="#g" x="238.248" y="43.732"/><use xlink:href="#e" x="242.624" y="43.732"/><path fill="none" stroke="#000" stroke-miterlimit="10" stroke-width=".398" d="M231.414 46.488h16.05"/><use xlink:href="#q" x="236.844" y="55.812"/><path stroke="#000" stroke-miterlimit="10" stroke-width=".399" d="M258.992 131.43a.91.91 0 0 0-.906-.91.908.908 0 0 0 0 1.816c.5 0 .906-.406.906-.906Zm0 0"/><path fill="none" stroke="#000" stroke-miterlimit="10" stroke-width=".399" d="M314.781 74.734v26.079m0 4.535v54.425m0 0v28.348"/><path fill="none" stroke="#000" stroke-miterlimit="10" stroke-width=".797" d="M321.582 100.813h-13.605m13.605 4.535h-13.605"/><path stroke="#000" stroke-miterlimit="10" stroke-width=".399" d="M315.688 74.734a.908.908 0 0 0-1.816 0 .908.908 0 0 0 1.815 0Zm0 0"/><use xlink:href="#r" x="287.261" y="98.931"/><use xlink:href="#f" x="294.096" y="101.318"/><use xlink:href="#h" x="299.014" y="101.318"/><path fill="none" stroke="#000" stroke-miterlimit="10" stroke-width=".398" d="M287.262 103.18h16.894"/><use xlink:href="#q" x="293.114" y="112.505"/><path stroke="#000" stroke-miterlimit="10" stroke-width=".399" d="M315.688 188.121a.908.908 0 0 0-1.816 0 .908.908 0 0 0 1.815 0Zm0 0"/><path fill="none" stroke="#000" stroke-miterlimit="10" stroke-width=".399" d="M328.953 18.04v26.08m0 4.535v82.774m0 0v56.691"/><path fill="none" stroke="#000" stroke-miterlimit="10" stroke-width=".797" d="M335.758 44.121h-13.61m13.61 4.535h-13.61"/><path stroke="#000" stroke-miterlimit="10" stroke-width=".399" d="M329.86 18.04a.907.907 0 0 0-1.813 0c0 .503.406.91.906.91s.906-.407.906-.91Zm0 0"/><use xlink:href="#r" x="302.008" y="42.238"/><use xlink:href="#e" x="308.843" y="43.732"/><use xlink:href="#h" x="313.187" y="43.732"/><path fill="none" stroke="#000" stroke-miterlimit="10" stroke-width=".398" d="M302.008 46.488h16.324"/><use xlink:href="#q" x="307.575" y="55.812"/><path stroke="#000" stroke-miterlimit="10" stroke-width=".399" d="M329.86 188.121a.907.907 0 1 0-1.814.001.907.907 0 0 0 1.813 0Zm0 0"/><path fill="none" stroke="#000" stroke-miterlimit="10" stroke-width=".399" d="M881.715 18.04v90.71m0 0v90.71h11.34v7.938m0 18.141v7.938h-11.34v90.71m0 0v90.708"/><path stroke="#000" stroke-miterlimit="10" stroke-width=".399" d="M882.621 18.04a.907.907 0 0 0-1.812 0 .905.905 0 1 0 1.813 0Zm0 0"/><path fill="none" stroke="#000" stroke-miterlimit="10" stroke-width=".797" d="M889.652 225.54v-18.142h6.805v18.141Zm0 0"/><use xlink:href="#p" x="899.92" y="212.317"/><use xlink:href="#e" x="907.053" y="213.812"/><path fill="none" stroke="#000" stroke-miterlimit="10" stroke-width=".398" d="M899.922 216.566h11.973"/><use xlink:href="#q" x="903.312" y="225.891"/><path stroke="#000" stroke-miterlimit="10" stroke-width=".399" d="M882.621 414.895a.907.907 0 0 0-1.812 0 .905.905 0 1 0 1.813 0Zm0 0"/><path fill="none" stroke="#000" stroke-miterlimit="10" stroke-width=".399" d="M881.715 199.46h-11.336v14.743m0 4.535v14.739h11.336"/><path fill="none" stroke="#000" stroke-miterlimit="10" stroke-width=".797" d="M877.18 214.203h-13.606m13.606 4.535h-13.606"/><use xlink:href="#r" x="848.072" y="212.317"/><use xlink:href="#e" x="854.907" y="213.812"/><path fill="none" stroke="#000" stroke-miterlimit="10" stroke-width=".398" d="M848.07 216.566h11.676"/><use xlink:href="#q" x="851.315" y="225.891"/><path fill="none" stroke="#000" stroke-miterlimit="10" stroke-width=".399" d="M825.023 74.734v85.04m0 0v85.042h11.336v7.938m0 18.14v7.938h-11.336v68.031m0 0v68.032"/><path stroke="#000" stroke-miterlimit="10" stroke-width=".399" d="M825.93 74.734a.907.907 0 1 0-1.814.002.907.907 0 0 0 1.814-.002Zm0 0"/><path fill="none" stroke="#000" stroke-miterlimit="10" stroke-width=".797" d="M832.96 270.895v-18.141h6.802v18.14Zm0 0"/><use xlink:href="#p" x="843.227" y="257.671"/><use xlink:href="#f" x="850.36" y="260.058"/><path fill="none" stroke="#000" stroke-miterlimit="10" stroke-width=".398" d="M843.227 261.922h12.55"/><use xlink:href="#q" x="846.906" y="271.245"/><path stroke="#000" stroke-miterlimit="10" stroke-width=".399" d="M825.93 414.895a.907.907 0 0 0-1.813 0 .905.905 0 1 0 1.813 0Zm0 0"/><path fill="none" stroke="#000" stroke-miterlimit="10" stroke-width=".399" d="M825.023 244.816h-11.34v14.739m0 4.535v14.742h11.34"/><path fill="none" stroke="#000" stroke-miterlimit="10" stroke-width=".797" d="M820.488 259.555h-13.61m13.61 4.535h-13.61"/><use xlink:href="#r" x="790.806" y="257.671"/><use xlink:href="#f" x="797.64" y="260.058"/><path fill="none" stroke="#000" stroke-miterlimit="10" stroke-width=".398" d="M790.805 261.922h12.25"/><use xlink:href="#q" x="794.335" y="271.245"/><path fill="none" stroke="#000" stroke-miterlimit="10" stroke-width=".399" d="M825.023 18.04v26.08m0 4.535v26.078"/><path fill="none" stroke="#000" stroke-miterlimit="10" stroke-width=".797" d="M831.824 44.121H818.22m13.605 4.535H818.22"/><path stroke="#000" stroke-miterlimit="10" stroke-width=".399" d="M825.93 18.04a.907.907 0 0 0-1.813 0 .905.905 0 1 0 1.813 0Zm0 0"/><use xlink:href="#r" x="835.63" y="42.238"/><use xlink:href="#e" x="842.465" y="44.625"/><use xlink:href="#f" x="846.809" y="44.625"/><path fill="none" stroke="#000" stroke-miterlimit="10" stroke-width=".398" d="M835.629 46.488h16.594"/><use xlink:href="#q" x="841.332" y="55.812"/><path fill="none" stroke="#000" stroke-miterlimit="10" stroke-width=".399" d="M768.328 131.43v79.367m0 0v79.371h11.34v7.937m0 18.145v7.934h-11.34v45.355m0 0v45.356"/><path stroke="#000" stroke-miterlimit="10" stroke-width=".399" d="M769.234 131.43a.91.91 0 0 0-.906-.91.908.908 0 0 0 0 1.816c.5 0 .906-.406.906-.906Zm0 0"/><path fill="none" stroke="#000" stroke-miterlimit="10" stroke-width=".797" d="M776.266 316.25v-18.145h6.804v18.145Zm0 0"/><use xlink:href="#p" x="786.534" y="303.025"/><use xlink:href="#g" x="793.667" y="304.519"/><path fill="none" stroke="#000" stroke-miterlimit="10" stroke-width=".398" d="M786.535 307.273h12.004"/><use xlink:href="#q" x="789.942" y="316.598"/><path stroke="#000" stroke-miterlimit="10" stroke-width=".399" d="M769.234 414.895a.907.907 0 0 0-1.812 0c0 .503.406.91.906.91s.906-.407.906-.91Zm0 0"/><path fill="none" stroke="#000" stroke-miterlimit="10" stroke-width=".399" d="M768.328 290.168h-11.34v14.742m0 4.535v14.739h11.34"/><path fill="none" stroke="#000" stroke-miterlimit="10" stroke-width=".797" d="M763.793 304.91h-13.606m13.606 4.535h-13.606"/><use xlink:href="#r" x="734.655" y="303.025"/><use xlink:href="#g" x="741.489" y="304.519"/><path fill="none" stroke="#000" stroke-miterlimit="10" stroke-width=".398" d="M734.656 307.273h11.707"/><use xlink:href="#q" x="737.913" y="316.598"/><path fill="none" stroke="#000" stroke-miterlimit="10" stroke-width=".399" d="M768.328 74.734v26.079m0 4.535v26.082"/><path fill="none" stroke="#000" stroke-miterlimit="10" stroke-width=".797" d="M775.133 100.813h-13.606m13.606 4.535h-13.606"/><path stroke="#000" stroke-miterlimit="10" stroke-width=".399" d="M769.234 74.734a.907.907 0 1 0-1.813.002.907.907 0 0 0 1.813-.002Zm0 56.696a.91.91 0 0 0-.906-.91.908.908 0 0 0 0 1.816c.5 0 .906-.406.906-.906Zm0 0"/><use xlink:href="#r" x="778.937" y="98.931"/><use xlink:href="#f" x="785.772" y="101.318"/><use xlink:href="#g" x="790.69" y="101.318"/><path fill="none" stroke="#000" stroke-miterlimit="10" stroke-width=".398" d="M778.938 103.18h16.625"/><use xlink:href="#q" x="784.655" y="112.505"/><path fill="none" stroke="#000" stroke-miterlimit="10" stroke-width=".399" d="M711.637 188.121v73.703m0 0v73.7h11.336v7.937m0 18.14v7.938h-11.336v22.68m0 0v22.676"/><path stroke="#000" stroke-miterlimit="10" stroke-width=".399" d="M712.543 188.121a.908.908 0 0 0-1.816 0 .908.908 0 0 0 1.816 0Zm0 0"/><path fill="none" stroke="#000" stroke-miterlimit="10" stroke-width=".797" d="M719.57 361.602V343.46h6.805v18.14Zm0 0"/><use xlink:href="#p" x="729.841" y="348.378"/><use xlink:href="#h" x="736.974" y="349.873"/><path fill="none" stroke="#000" stroke-miterlimit="10" stroke-width=".398" d="M729.84 352.629h12.277"/><use xlink:href="#q" x="733.385" y="361.952"/><path stroke="#000" stroke-miterlimit="10" stroke-width=".399" d="M712.543 414.895a.908.908 0 1 0-1.817.003.908.908 0 0 0 1.817-.003Zm0 0"/><path fill="none" stroke="#000" stroke-miterlimit="10" stroke-width=".399" d="M711.637 335.523h-11.34v14.743m0 4.535v14.738h11.34"/><path fill="none" stroke="#000" stroke-miterlimit="10" stroke-width=".797" d="M707.102 350.266h-13.61m13.61 4.535h-13.61"/><use xlink:href="#r" x="677.691" y="348.378"/><use xlink:href="#h" x="684.525" y="349.873"/><path fill="none" stroke="#000" stroke-miterlimit="10" stroke-width=".398" d="M677.691 352.629h11.98"/><use xlink:href="#q" x="681.085" y="361.952"/><path fill="none" stroke="#000" stroke-miterlimit="10" stroke-width=".399" d="M711.637 131.43v26.078m0 4.535v26.078"/><path fill="none" stroke="#000" stroke-miterlimit="10" stroke-width=".797" d="M718.438 157.508h-13.606m13.606 4.535h-13.606"/><path stroke="#000" stroke-miterlimit="10" stroke-width=".399" d="M712.543 131.43a.908.908 0 1 0-1.816-.005.908.908 0 0 0 1.816.005Zm0 56.691a.908.908 0 0 0-1.816 0 .908.908 0 0 0 1.816 0Zm0 0"/><use xlink:href="#r" x="722.244" y="155.624"/><use xlink:href="#g" x="729.079" y="157.118"/><use xlink:href="#h" x="733.455" y="157.118"/><path fill="none" stroke="#000" stroke-miterlimit="10" stroke-width=".398" d="M722.242 159.871h16.356"/><use xlink:href="#q" x="727.826" y="169.198"/><path fill="none" stroke="#000" stroke-miterlimit="10" stroke-width=".399" d="M711.637 18.04v26.08m0 4.535v54.426m0 0v28.348"/><path fill="none" stroke="#000" stroke-miterlimit="10" stroke-width=".797" d="M718.438 44.121h-13.606m13.606 4.535h-13.606"/><path stroke="#000" stroke-miterlimit="10" stroke-width=".399" d="M712.543 18.04a.908.908 0 1 0-1.817.003.908.908 0 0 0 1.817-.004Zm0 0"/><use xlink:href="#r" x="722.244" y="42.238"/><use xlink:href="#g" x="729.079" y="43.732"/><use xlink:href="#e" x="733.455" y="43.732"/><path fill="none" stroke="#000" stroke-miterlimit="10" stroke-width=".398" d="M722.242 46.488h16.055"/><use xlink:href="#q" x="727.675" y="55.812"/><path stroke="#000" stroke-miterlimit="10" stroke-width=".399" d="M712.543 131.43a.908.908 0 1 0-1.816-.005.908.908 0 0 0 1.816.005Zm0 0"/><path fill="none" stroke="#000" stroke-miterlimit="10" stroke-width=".399" d="M654.941 74.734v26.079m0 4.535v54.425m0 0v28.348"/><path fill="none" stroke="#000" stroke-miterlimit="10" stroke-width=".797" d="M661.746 100.813h-13.61m13.61 4.535h-13.61"/><path stroke="#000" stroke-miterlimit="10" stroke-width=".399" d="M655.848 74.734a.907.907 0 1 0-1.814.002.907.907 0 0 0 1.814-.002Zm0 0"/><use xlink:href="#r" x="665.552" y="98.931"/><use xlink:href="#f" x="672.386" y="101.318"/><use xlink:href="#h" x="677.304" y="101.318"/><path fill="none" stroke="#000" stroke-miterlimit="10" stroke-width=".398" d="M665.55 103.18h16.9"/><use xlink:href="#q" x="671.405" y="112.505"/><path stroke="#000" stroke-miterlimit="10" stroke-width=".399" d="M655.848 188.121a.907.907 0 1 0-1.814.001.907.907 0 0 0 1.814 0Zm0 0"/><path fill="none" stroke="#000" stroke-miterlimit="10" stroke-width=".399" d="M640.77 18.04v26.08m0 4.535v82.774m0 0v56.691"/><path fill="none" stroke="#000" stroke-miterlimit="10" stroke-width=".797" d="M647.57 44.121h-13.605m13.605 4.535h-13.605"/><path stroke="#000" stroke-miterlimit="10" stroke-width=".399" d="M641.676 18.04a.908.908 0 1 0-1.817.003.908.908 0 0 0 1.817-.004Zm0 0"/><use xlink:href="#r" x="651.378" y="42.238"/><use xlink:href="#e" x="658.213" y="43.732"/><use xlink:href="#h" x="662.557" y="43.732"/><path fill="none" stroke="#000" stroke-miterlimit="10" stroke-width=".398" d="M651.379 46.488h16.32"/><use xlink:href="#q" x="656.944" y="55.812"/><path stroke="#000" stroke-miterlimit="10" stroke-width=".399" d="M641.676 188.121a.908.908 0 0 0-1.816 0 .908.908 0 0 0 1.816 0Zm0 0"/></svg>
