<svg xmlns="http://www.w3.org/2000/svg" xmlns:xlink="http://www.w3.org/1999/xlink" width="433.632" height="419.62" viewBox="0 0 325.224 314.715"><defs><path id="b" d="M3.734.047A3 3 0 0 1 2.406-.25a3.5 3.5 0 0 1-1.062-.828 3.9 3.9 0 0 1-.688-1.156 3.8 3.8 0 0 1-.234-1.313q0-.715.234-1.36a3.8 3.8 0 0 1 .688-1.14q.434-.5 1.031-.781a3 3 0 0 1 1.313-.297q1.044.002 1.703.438.655.422 1 1.109l-.532.36q-.346-.655-.921-.97A2.6 2.6 0 0 0 3.672-6.5c-.387 0-.742.086-1.063.25-.312.168-.586.39-.812.672q-.328.423-.516.953-.174.517-.172 1.094 0 .597.204 1.125.199.532.562.953.374.408.86.64.482.235 1.046.235Q4.42-.576 5-.891q.575-.325 1.11-1.015v.734Q5.105.048 3.733.047M6-2.937H4.422v-.547h2.172V0H6Zm0 0"/><path id="c" d="M3.344-4.594q-.69.018-1.203.375-.503.363-.72.985V0H.75v-5.187h.64v1.234q.263-.545.704-.875c.3-.227.617-.36.953-.39h.297Zm0 0"/><path id="d" d="M2.953.094Q2.403.092 1.922-.11a2.5 2.5 0 0 1-.813-.594A2.77 2.77 0 0 1 .39-2.578q0-.562.188-1.047c.125-.32.3-.61.531-.86q.359-.373.829-.577a2.4 2.4 0 0 1 1.03-.22q.564.001 1.032.22.468.204.813.578c.226.25.406.539.53.859a2.73 2.73 0 0 1 0 2.063 2.7 2.7 0 0 1-.53.859Q4.468-.326 4-.11a2.7 2.7 0 0 1-1.047.203M1.078-2.578q-.001.581.25 1.062.248.47.672.75.437.268.953.266.53 0 .953-.281.436-.281.688-.766a2.15 2.15 0 0 0 .265-1.047q-.001-.576-.265-1.047a2 2 0 0 0-.688-.765 1.7 1.7 0 0 0-.953-.282 1.6 1.6 0 0 0-.937.297 2.14 2.14 0 0 0-.688.766q-.251.471-.25 1.047m0 0"/><path id="e" d="M.703-2.14v-3.047h.672v2.921c0 .594.098 1.04.297 1.329q.31.438.906.437.406.002.781-.172.376-.17.657-.5a2.1 2.1 0 0 0 .437-.75v-3.266h.688v4.376c0 .093.015.164.046.203q.06.065.188.078V0c-.086.008-.152.016-.203.016h-.125a.58.58 0 0 1-.344-.157.47.47 0 0 1-.14-.343l-.032-.688a2.4 2.4 0 0 1-.922.938 2.5 2.5 0 0 1-1.25.328c-.554 0-.968-.188-1.25-.563Q.701-1.029.703-2.14m0 0"/><path id="f" d="M5.11 0h-.673v-2.906q0-.905-.28-1.328-.27-.437-.844-.438a1.7 1.7 0 0 0-.782.203 2.1 2.1 0 0 0-.687.532 2.2 2.2 0 0 0-.422.75V0H.75v-5.187h.61v1.171q.217-.375.546-.656c.227-.195.485-.348.766-.453q.434-.155.89-.156.436.002.735.156.292.159.469.453c.125.2.21.438.265.719q.077.409.078.906Zm0 0"/><path id="g" d="M.406-2.578q0-.734.297-1.344.294-.621.828-.984.545-.375 1.235-.375.656.002 1.172.343.515.347.796.829v-3.172h.672v6.469c0 .093.02.164.063.203q.058.065.187.078V0q-.205.028-.312.016A.537.537 0 0 1 4.812-.5V-1q-.316.504-.843.797-.518.299-1.094.297-.533 0-.984-.219a2.5 2.5 0 0 1-.797-.594 2.9 2.9 0 0 1-.516-.86 2.9 2.9 0 0 1-.172-1m4.328.797v-1.61a1.8 1.8 0 0 0-.421-.656 2.2 2.2 0 0 0-.657-.469 1.69 1.69 0 0 0-1.484 0 1.8 1.8 0 0 0-.578.485q-.236.298-.375.672c-.086.25-.125.511-.125.78q0 .423.14.798.153.377.422.672.264.3.61.453.356.157.765.156.263 0 .531-.094.281-.105.532-.281.264-.17.422-.406.17-.247.218-.5m0 0"/><path id="h" d="M4.047-.625V0H.672v-.625h1.406v-4.266a1.1 1.1 0 0 1-.265.266 2.9 2.9 0 0 1-.922.453 1.3 1.3 0 0 1-.438.078v-.656c.156 0 .32-.04.5-.125a3.4 3.4 0 0 0 .516-.297q.246-.171.422-.312.17-.155.187-.203h.703v5.062Zm0 0"/><path id="i" d="M.438 0Q.437-.341.5-.687a2.6 2.6 0 0 1 .219-.672q.17-.34.5-.657.34-.311.875-.593.279-.154.594-.297.31-.14.578-.313.28-.186.437-.406a.83.83 0 0 0 .172-.531.94.94 0 0 0-.14-.485 1 1 0 0 0-.438-.39 1.6 1.6 0 0 0-.735-.157q-.314 0-.578.094-.27.093-.468.235a2.3 2.3 0 0 0-.328.265q-.14.127-.235.219l-.422-.469q.045-.06.219-.218a2.7 2.7 0 0 1 .438-.313q.28-.168.656-.297a2.6 2.6 0 0 1 .828-.125q.61 0 1.031.219.437.221.672.578.234.362.234.766c0 .28-.062.523-.187.718a1.9 1.9 0 0 1-.453.5q-.27.223-.563.375l-.531.266a5.5 5.5 0 0 0-.781.438q-.316.22-.516.437a2.2 2.2 0 0 0-.297.438 2.5 2.5 0 0 0-.14.437h3.578V0Zm0 0"/><path id="j" d="M3.422-2.36q.45.083.765.329.31.251.485.625.187.377.187.86c0 .398-.101.741-.296 1.046a1.85 1.85 0 0 1-.797.719 2.8 2.8 0 0 1-1.203.25q-.767-.001-1.329-.313A2.04 2.04 0 0 1 .375.313L.844-.11q.218.419.64.687.435.265 1.079.266.732 0 1.171-.36c.29-.242.438-.586.438-1.046q0-.669-.453-1.079-.456-.405-1.297-.406h-.25v-.578h.265c.508 0 .899-.117 1.172-.36q.422-.356.422-.906 0-.418-.187-.687a1.2 1.2 0 0 0-.516-.406 1.9 1.9 0 0 0-.75-.141q-.564.001-1 .266a1.6 1.6 0 0 0-.656.687l-.438-.406q.17-.357.485-.61.329-.264.75-.406.434-.14.922-.14.622.001 1.093.218c.313.149.555.356.735.625q.264.393.265.938-.002.394-.156.734-.159.345-.453.578a1.5 1.5 0 0 1-.703.282m0 0"/><path id="m" d="m.703-5.187.172-1.079H.641V-7.28h.656v1.015l-.25 1.079Zm0 0"/><path id="r" d="M1.64-7.281h.673l-.704 3.265a3.3 3.3 0 0 1 1.016-.921 2.4 2.4 0 0 1 1.203-.344q.42 0 .688.172.262.158.375.453.124.298.125.703-.001.187-.032.422a3 3 0 0 1-.078.484L4.266 0h-.672l.61-2.906q.044-.218.062-.406.03-.188.03-.344 0-.498-.218-.75-.204-.265-.625-.266-.363.002-.75.203a2.8 2.8 0 0 0-.719.532q-.346.327-.546.75L.766 0H.094Zm0 0"/><path id="s" d="M.89 0v-7.078h2.407q1.125.002 1.875.484.75.47 1.125 1.266.375.797.375 1.781-.001 1.079-.406 1.875A2.93 2.93 0 0 1 5.094-.437Q4.327 0 3.297 0Zm5.094-3.547q0-.843-.312-1.5a2.3 2.3 0 0 0-.922-1.031q-.598-.375-1.453-.375H1.578v5.828h1.719q.872 0 1.469-.375a2.54 2.54 0 0 0 .906-1.047q.311-.667.312-1.5m0 0"/><path id="t" d="M3.234-.5V0H.531v-.5h1.14v-3.406a1.1 1.1 0 0 1-.218.219q-.158.11-.36.203c-.124.062-.25.117-.374.156a1.1 1.1 0 0 1-.36.062v-.53c.125 0 .258-.032.407-.095q.216-.105.406-.234c.133-.094.25-.18.344-.266a1 1 0 0 0 .156-.156h.547V-.5Zm0 0"/><path id="u" d="M.344 0q0-.265.047-.547.058-.279.187-.547.14-.264.406-.515.265-.248.688-.485l.484-.219q.246-.123.469-.265c.145-.094.258-.195.344-.313a.77.77 0 0 0 .016-.812.75.75 0 0 0-.344-.313 1.3 1.3 0 0 0-.594-.125q-.252.001-.469.079a1.3 1.3 0 0 0-.36.171 2 2 0 0 0-.265.22 2 2 0 0 1-.187.171l-.344-.375.172-.172a2.3 2.3 0 0 1 .36-.25q.216-.141.515-.234.31-.094.672-.094.48.001.828.172c.226.117.406.266.531.453q.188.283.188.625 0 .328-.141.563a1.5 1.5 0 0 1-.36.406 3.5 3.5 0 0 1-.89.5 3.4 3.4 0 0 0-.625.36 2 2 0 0 0-.406.359A1.35 1.35 0 0 0 .922-.5h2.844V0Zm0 0"/><path id="w" d="M2.734-1.875c.239.031.442.117.61.25q.264.206.406.5.14.3.14.688c0 .324-.078.601-.234.843A1.6 1.6 0 0 1 3 .97q-.409.201-.953.203A2.2 2.2 0 0 1 .984.922 1.6 1.6 0 0 1 .297.25l.375-.344q.188.341.516.547c.226.145.515.219.859.219.394 0 .707-.102.937-.297.227-.187.344-.46.344-.828q0-.529-.36-.86-.362-.327-1.03-.328h-.204v-.453h.22q.608 0 .937-.281a.95.95 0 0 0 .328-.734.94.94 0 0 0-.156-.547.9.9 0 0 0-.407-.328 1.5 1.5 0 0 0-.594-.11q-.456.002-.796.203a1.4 1.4 0 0 0-.532.563l-.343-.344q.139-.264.39-.469.248-.216.594-.328.341-.124.734-.125.499 0 .875.188.374.173.579.5.217.315.218.75-.001.313-.125.594a1.26 1.26 0 0 1-.36.453 1.3 1.3 0 0 1-.562.234m0 0"/><path id="v" d="M2.11-3.781c.046-.094.078-.156.078-.235 0-.265-.25-.437-.47-.437-.312 0-.405.281-.437.39L.266-.624C.234-.531.234-.515.234-.5c0 .063.047.078.125.11.157.062.172.062.188.062.015 0 .062 0 .125-.14Zm0 0"/><clipPath id="a"><path d="M0 0h325.223v314.715H0Zm0 0"/></clipPath><clipPath id="k"><path d="M20 297h18v17.715H20Zm0 0"/></clipPath><clipPath id="l"><path d="M14 291h29v23.715H14Zm0 0"/></clipPath><clipPath id="n"><path d="M133 297h18v17.715h-18Zm0 0"/></clipPath><clipPath id="o"><path d="M127 291h30v23.715h-30Zm0 0"/></clipPath><clipPath id="p"><path d="M247 297h18v17.715h-18Zm0 0"/></clipPath><clipPath id="q"><path d="M241 291h29v23.715h-29Zm0 0"/></clipPath></defs><g clip-path="url(#a)"><path fill="#fff" d="M0 314.715V-.004h325.227v314.719Zm0 0"/></g><path fill="none" stroke="#000" stroke-miterlimit="10" stroke-width=".797" d="M.398 164.277h283.465"/><use xlink:href="#b" x="287.582" y="167.866"/><use xlink:href="#c" x="294.715" y="167.866"/><use xlink:href="#d" x="298.053" y="167.866"/><use xlink:href="#e" x="303.981" y="167.866"/><use xlink:href="#f" x="309.898" y="167.866"/><use xlink:href="#g" x="315.707" y="167.866"/><path fill="#234e83" stroke="#000" stroke-miterlimit="10" stroke-width=".399" d="M37.246 22.547a8.504 8.504 0 1 0-17.008 0 8.506 8.506 0 0 0 8.504 8.504c4.7 0 8.504-3.809 8.504-8.504Zm0 0"/><use xlink:href="#h" x="26.613" y="10.523"/><path fill="#234e83" stroke="#000" stroke-miterlimit="10" stroke-width=".399" d="M150.637 22.547c0-4.7-3.809-8.508-8.504-8.508a8.507 8.507 0 0 0-8.508 8.508c0 4.695 3.809 8.504 8.508 8.504a8.506 8.506 0 0 0 8.504-8.504Zm0 0"/><use xlink:href="#i" x="139.535" y="10.523"/><path fill="#234e83" stroke="#000" stroke-miterlimit="10" stroke-width=".399" d="M264.023 22.547a8.504 8.504 0 1 0-17.008 0 8.503 8.503 0 0 0 8.505 8.504 8.506 8.506 0 0 0 8.503-8.504Zm0 0"/><use xlink:href="#j" x="252.856" y="9.059"/><g clip-path="url(#k)"><path fill="#234e83" d="M37.246 306.012a8.503 8.503 0 0 0-8.504-8.504 8.506 8.506 0 0 0-8.504 8.504 8.504 8.504 0 0 0 8.504 8.504 8.5 8.5 0 0 0 8.504-8.504m0 0"/></g><g clip-path="url(#l)"><path fill="none" stroke="#000" stroke-miterlimit="10" stroke-width=".399" d="M37.246 306.012a8.503 8.503 0 0 0-8.504-8.504 8.506 8.506 0 0 0-8.504 8.504 8.504 8.504 0 0 0 8.504 8.504 8.5 8.5 0 0 0 8.504-8.504Zm0 0"/></g><use xlink:href="#h" x="25.666" y="293.988"/><use xlink:href="#m" x="29.93" y="293.988"/><g clip-path="url(#n)"><path fill="#234e83" d="M150.637 306.012a8.506 8.506 0 0 0-8.504-8.504 8.504 8.504 0 1 0 0 17.008 8.503 8.503 0 0 0 8.504-8.504m0 0"/></g><g clip-path="url(#o)"><path fill="none" stroke="#000" stroke-miterlimit="10" stroke-width=".399" d="M150.637 306.012a8.506 8.506 0 0 0-8.504-8.504 8.504 8.504 0 1 0 0 17.008 8.503 8.503 0 0 0 8.504-8.504Zm0 0"/></g><use xlink:href="#i" x="138.589" y="293.988"/><use xlink:href="#m" x="143.78" y="293.988"/><g clip-path="url(#p)"><path fill="#234e83" d="M264.023 306.012a8.506 8.506 0 0 0-8.503-8.504 8.503 8.503 0 0 0-8.504 8.504 8.5 8.5 0 0 0 8.504 8.504 8.503 8.503 0 0 0 8.503-8.504m0 0"/></g><g clip-path="url(#q)"><path fill="none" stroke="#000" stroke-miterlimit="10" stroke-width=".399" d="M264.023 306.012a8.506 8.506 0 0 0-8.503-8.504 8.503 8.503 0 0 0-8.504 8.504 8.5 8.5 0 0 0 8.504 8.504 8.503 8.503 0 0 0 8.503-8.504Zm0 0"/></g><use xlink:href="#j" x="265.05" y="295.014"/><use xlink:href="#m" x="270.37" y="295.014"/><path fill="none" stroke="#000" stroke-miterlimit="10" stroke-width=".399" d="M28.742 27.129v132.566"/><path stroke="#000" stroke-miterlimit="10" stroke-width=".399" d="M28.742 23.367c-.11.461-.75 2.492-1.445 3.762h2.894c-.695-1.27-1.336-3.3-1.449-3.762Zm0 140.09c.113-.46.754-2.492 1.45-3.762h-2.895c.695 1.27 1.336 3.301 1.445 3.762Zm0 0"/><use xlink:href="#r" x="19.656" y="97.05"/><path fill="none" stroke="#000" stroke-miterlimit="10" stroke-width=".399" d="M33.328 22.547h104.219"/><path stroke="#000" stroke-miterlimit="10" stroke-width=".399" d="M29.566 22.547c.461.11 2.493.75 3.762 1.445v-2.894c-1.27.695-3.3 1.336-3.762 1.449Zm111.743 0c-.461-.113-2.493-.754-3.762-1.45v2.895c1.27-.695 3.3-1.336 3.762-1.445Zm0 0"/><use xlink:href="#s" x="77.845" y="17.533"/><use xlink:href="#t" x="84.969" y="19.028"/><use xlink:href="#u" x="88.38" y="19.028"/><path fill="none" stroke="#000" stroke-miterlimit="10" stroke-width=".399" d="M30.445 26.8 140.43 301.759"/><path stroke="#000" stroke-miterlimit="10" stroke-width=".399" d="M29.05 23.309c.067.468.227 2.593.052 4.027l2.687-1.074c-1.117-.918-2.465-2.567-2.738-2.953ZM141.824 305.25c-.066-.469-.226-2.594-.05-4.027l-2.688 1.074c1.117.918 2.465 2.566 2.738 2.953Zm0 0"/><use xlink:href="#s" x="77.618" y="138.873"/><use xlink:href="#v" x="84.977" y="134.954"/><use xlink:href="#t" x="84.742" y="141.336"/><use xlink:href="#u" x="88.153" y="141.336"/><path fill="none" stroke="#000" stroke-miterlimit="10" stroke-width=".399" d="M255.52 27.129v274.3"/><path stroke="#000" stroke-miterlimit="10" stroke-width=".399" d="M255.52 23.367c-.114.461-.754 2.492-1.45 3.762h2.895c-.695-1.27-1.332-3.3-1.445-3.762Zm0 281.824c.113-.46.75-2.492 1.445-3.761h-2.895c.696 1.27 1.336 3.3 1.45 3.761Zm0 0"/><use xlink:href="#s" x="259.036" y="138.287"/><use xlink:href="#v" x="266.395" y="134.369"/><use xlink:href="#w" x="266.16" y="140.75"/></svg>
