<svg xmlns="http://www.w3.org/2000/svg" xmlns:xlink="http://www.w3.org/1999/xlink" width="465.679" height="500.005" viewBox="0 0 349.259 375.004"><defs><symbol overflow="visible" id="b"><path style="stroke:none" d="M3.734.047A2.97 2.97 0 0 1 2.406-.25a3.536 3.536 0 0 1-1.062-.828 3.928 3.928 0 0 1-.688-1.156 3.781 3.781 0 0 1-.234-1.313c0-.476.078-.93.234-1.36a3.8 3.8 0 0 1 .688-1.14 3.108 3.108 0 0 1 1.031-.781 2.993 2.993 0 0 1 1.313-.297c.695 0 1.265.148 1.703.438.437.28.77.652 1 1.109l-.532.36a2.285 2.285 0 0 0-.921-.97A2.575 2.575 0 0 0 3.671-6.5c-.387 0-.742.086-1.063.25-.312.168-.586.39-.812.672-.219.281-.39.601-.516.953-.117.344-.172.71-.172 1.094 0 .398.067.773.204 1.125.132.355.32.672.562.953.25.273.535.484.86.64.32.157.671.235 1.046.235.426 0 .832-.102 1.219-.313.383-.218.754-.554 1.11-1.015v.734C5.44-.359 4.647.047 3.733.047ZM6-2.938H4.422v-.546h2.172V0H6Zm0 0"/></symbol><symbol overflow="visible" id="c"><path style="stroke:none" d="M3.344-4.594c-.461.012-.86.137-1.203.375-.336.242-.575.57-.72.985V0H.75v-5.188h.64v1.235a2.34 2.34 0 0 1 .704-.875c.3-.227.617-.36.953-.39h.297Zm0 0"/></symbol><symbol overflow="visible" id="d"><path style="stroke:none" d="M2.953.094c-.367 0-.71-.07-1.031-.203a2.51 2.51 0 0 1-.813-.594A2.774 2.774 0 0 1 .39-2.578c0-.375.063-.723.188-1.047.125-.32.3-.61.531-.86.239-.25.516-.44.829-.577a2.428 2.428 0 0 1 1.03-.22c.376 0 .72.075 1.032.22.313.136.582.328.813.578.226.25.406.539.53.859a2.732 2.732 0 0 1 0 2.063 2.726 2.726 0 0 1-.53.859c-.231.25-.5.45-.813.594a2.661 2.661 0 0 1-1.047.203ZM1.078-2.578c0 .387.082.742.25 1.062.164.313.39.563.672.75.29.18.61.266.953.266.352 0 .672-.094.953-.281.29-.188.52-.442.688-.766a2.15 2.15 0 0 0 .265-1.047c0-.383-.09-.734-.265-1.047a2.007 2.007 0 0 0-.688-.765 1.685 1.685 0 0 0-.953-.282 1.61 1.61 0 0 0-.937.297 2.141 2.141 0 0 0-.688.766c-.168.313-.25.664-.25 1.047Zm0 0"/></symbol><symbol overflow="visible" id="e"><path style="stroke:none" d="M.703-2.14v-3.047h.672v2.921c0 .594.098 1.04.297 1.329.207.292.508.437.906.437a1.886 1.886 0 0 0 1.438-.672 2.13 2.13 0 0 0 .437-.75v-3.266h.688v4.375c0 .094.015.165.046.204.04.043.102.07.188.078V0c-.086.008-.152.016-.203.016h-.125a.579.579 0 0 1-.344-.157.466.466 0 0 1-.14-.343l-.032-.688a2.39 2.39 0 0 1-.922.938 2.5 2.5 0 0 1-1.25.328c-.554 0-.968-.188-1.25-.563C.836-.844.703-1.399.703-2.14Zm0 0"/></symbol><symbol overflow="visible" id="f"><path style="stroke:none" d="M5.11 0h-.673v-2.906c0-.602-.093-1.047-.28-1.328-.18-.29-.462-.438-.845-.438a1.7 1.7 0 0 0-.78.203 2.103 2.103 0 0 0-.688.532 2.218 2.218 0 0 0-.422.75V0H.75v-5.188h.61v1.172c.144-.25.327-.468.546-.656.227-.195.485-.348.766-.453a2.66 2.66 0 0 1 .89-.156c.29 0 .536.054.735.156.195.105.351.258.469.453.125.2.21.438.265.719.051.273.078.574.078.906Zm0 0"/></symbol><symbol overflow="visible" id="g"><path style="stroke:none" d="M.406-2.578c0-.488.098-.938.297-1.344.195-.414.473-.742.828-.984.364-.25.774-.375 1.235-.375.437 0 .828.117 1.171.343.344.231.61.508.797.829v-3.172h.672v6.468c0 .094.02.165.063.204.039.043.101.07.187.078V0c-.136.02-.242.023-.312.016A.537.537 0 0 1 4.812-.5V-1c-.21.336-.492.602-.843.797a2.244 2.244 0 0 1-2.078.078 2.533 2.533 0 0 1-.797-.594 2.845 2.845 0 0 1-.516-.86 2.895 2.895 0 0 1-.172-1Zm4.328.797v-1.61a1.813 1.813 0 0 0-.421-.656 2.189 2.189 0 0 0-.657-.469 1.685 1.685 0 0 0-1.484 0 1.842 1.842 0 0 0-.578.485 2.46 2.46 0 0 0-.375.672c-.086.25-.125.511-.125.78 0 .282.047.548.14.798.102.25.243.476.422.672A1.769 1.769 0 0 0 3.031-.5c.176 0 .352-.031.531-.094a2.38 2.38 0 0 0 .532-.281c.176-.113.316-.25.422-.406.113-.164.187-.332.218-.5Zm0 0"/></symbol><symbol overflow="visible" id="h"><path style="stroke:none" d="M4.047-.625V0H.672v-.625h1.406v-4.266a1.06 1.06 0 0 1-.265.266 2.884 2.884 0 0 1-.922.453 1.33 1.33 0 0 1-.438.078v-.656c.156 0 .32-.04.5-.125a3.44 3.44 0 0 0 .516-.297c.164-.113.304-.219.422-.312.113-.102.175-.172.187-.204h.703v5.063Zm0 0"/></symbol><symbol overflow="visible" id="i"><path style="stroke:none" d="M.438 0c0-.227.019-.457.062-.688a2.55 2.55 0 0 1 .219-.671c.113-.227.281-.446.5-.657.226-.207.52-.406.875-.593.187-.102.383-.204.594-.297.207-.094.398-.196.578-.313a1.64 1.64 0 0 0 .437-.406.833.833 0 0 0 .172-.531.936.936 0 0 0-.14-.485.976.976 0 0 0-.438-.39 1.607 1.607 0 0 0-.735-.157 1.83 1.83 0 0 0-1.046.329 2.31 2.31 0 0 0-.329.265c-.093.086-.171.157-.234.219l-.422-.469a2.71 2.71 0 0 1 .656-.531c.188-.113.407-.21.657-.297a2.63 2.63 0 0 1 .828-.125c.406 0 .75.074 1.031.219.29.148.516.34.672.578.156.242.234.496.234.766 0 .28-.062.523-.187.718a1.89 1.89 0 0 1-.453.5c-.18.149-.367.274-.563.375l-.531.266a5.528 5.528 0 0 0-.781.438 3.162 3.162 0 0 0-.516.437 2.167 2.167 0 0 0-.297.438 2.47 2.47 0 0 0-.14.437h3.578V0Zm0 0"/></symbol><symbol overflow="visible" id="j"><path style="stroke:none" d="M3.422-2.36c.3.055.555.165.765.329.208.168.368.375.485.625.125.25.187.539.187.86 0 .398-.101.741-.296 1.046a1.85 1.85 0 0 1-.797.719c-.344.164-.746.25-1.204.25-.511 0-.953-.106-1.328-.313A2.037 2.037 0 0 1 .375.313L.844-.11c.144.28.36.507.64.687.29.176.649.266 1.079.266.488 0 .878-.121 1.171-.36.29-.242.438-.586.438-1.046 0-.446-.152-.805-.453-1.079-.305-.27-.735-.406-1.297-.406h-.25v-.578h.265c.508 0 .899-.117 1.172-.36a1.13 1.13 0 0 0 .422-.906c0-.28-.062-.507-.187-.687a1.195 1.195 0 0 0-.516-.406 1.888 1.888 0 0 0-.75-.141c-.375 0-.71.09-1 .266a1.612 1.612 0 0 0-.656.687l-.438-.406c.114-.238.274-.442.485-.61.219-.175.469-.312.75-.406.289-.093.597-.14.922-.14.414 0 .78.074 1.093.218.313.149.555.356.735.625.176.262.265.575.265.938 0 .262-.054.508-.156.734-.105.23-.258.422-.453.578a1.52 1.52 0 0 1-.703.282Zm0 0"/></symbol><symbol overflow="visible" id="m"><path style="stroke:none" d="m.703-5.188.172-1.078H.641V-7.28h.656v1.015l-.25 1.079Zm0 0"/></symbol><symbol overflow="visible" id="o"><path style="stroke:none" d="M.89 0v-7.078h2.407c.75 0 1.375.164 1.875.484.5.313.875.735 1.125 1.266s.375 1.125.375 1.781c0 .719-.137 1.344-.406 1.875A2.93 2.93 0 0 1 5.094-.438C4.582-.145 3.984 0 3.297 0Zm5.094-3.547c0-.562-.105-1.062-.312-1.5a2.322 2.322 0 0 0-.922-1.031c-.398-.25-.883-.375-1.453-.375H1.578v5.828h1.719c.582 0 1.07-.125 1.469-.375a2.54 2.54 0 0 0 .906-1.047c.207-.445.312-.945.312-1.5Zm0 0"/></symbol><symbol overflow="visible" id="p"><path style="stroke:none" d="M3.234-.5V0H.531v-.5h1.14v-3.406a1.14 1.14 0 0 1-.218.219c-.105.074-.226.14-.36.203-.124.062-.25.117-.374.156a1.106 1.106 0 0 1-.36.062v-.53c.125 0 .258-.032.407-.095a3.207 3.207 0 0 0 .75-.5.874.874 0 0 0 .156-.156h.547V-.5Zm0 0"/></symbol><symbol overflow="visible" id="q"><path style="stroke:none" d="M.344 0c0-.176.015-.36.047-.547.039-.187.101-.367.187-.547.094-.176.227-.347.406-.515.176-.164.407-.329.688-.485l.484-.219c.164-.082.32-.171.469-.265.145-.094.258-.195.344-.313a.765.765 0 0 0 .016-.813.748.748 0 0 0-.344-.312 1.274 1.274 0 0 0-.594-.125c-.168 0-.324.028-.469.079a1.333 1.333 0 0 0-.36.171 2.037 2.037 0 0 0-.265.22 2.11 2.11 0 0 1-.187.171l-.344-.375.172-.172a2.27 2.27 0 0 1 .36-.25 2.06 2.06 0 0 1 .515-.234c.207-.063.43-.094.672-.094.32 0 .597.059.828.172.226.117.406.266.531.453.125.188.188.398.188.625 0 .219-.047.406-.141.563a1.487 1.487 0 0 1-.36.406 3.516 3.516 0 0 1-.89.5 3.41 3.41 0 0 0-.625.36 1.97 1.97 0 0 0-.406.359A1.345 1.345 0 0 0 .922-.5h2.844V0Zm0 0"/></symbol><symbol overflow="visible" id="s"><path style="stroke:none" d="M2.734-1.875c.239.031.442.117.61.25.176.137.312.305.406.5.094.2.14.43.14.688 0 .324-.078.601-.234.843A1.6 1.6 0 0 1 3 .97a2.15 2.15 0 0 1-.953.203A2.19 2.19 0 0 1 .984.922 1.587 1.587 0 0 1 .297.25l.375-.344c.125.227.297.41.515.547.227.145.516.219.86.219.394 0 .707-.102.937-.297.227-.188.344-.46.344-.828 0-.352-.121-.64-.36-.86-.241-.218-.585-.328-1.03-.328h-.204v-.453h.22c.405 0 .718-.094.937-.281a.945.945 0 0 0 .328-.734.941.941 0 0 0-.156-.547.875.875 0 0 0-.407-.328 1.534 1.534 0 0 0-.594-.11c-.304 0-.57.07-.796.203a1.39 1.39 0 0 0-.532.563l-.343-.344c.093-.176.222-.332.39-.469.164-.144.364-.254.594-.328a2.15 2.15 0 0 1 .734-.125c.332 0 .625.063.875.188.25.117.442.281.579.5.144.21.218.46.218.75 0 .21-.043.406-.125.594a1.26 1.26 0 0 1-.36.453 1.304 1.304 0 0 1-.562.234Zm0 0"/></symbol><symbol overflow="visible" id="r"><path style="stroke:none" d="M2.11-3.781c.046-.094.078-.156.078-.235 0-.265-.25-.437-.47-.437-.312 0-.405.281-.437.39L.266-.624C.234-.531.234-.515.234-.5c0 .063.047.078.125.11.157.062.172.062.188.062.015 0 .062 0 .125-.14Zm0 0"/></symbol><clipPath id="a"><path d="M0 0h349.258v375.004H0Zm0 0"/></clipPath><clipPath id="k"><path d="M332 185h17.258v18H332Zm0 0"/></clipPath><clipPath id="l"><path d="M326 180h23.258v29H326Zm0 0"/></clipPath><clipPath id="n"><path d="M28 352h30v23.004H28Zm0 0"/></clipPath></defs><g clip-path="url(#a)"><path style="stroke:none;fill-rule:nonzero;fill:#fff;fill-opacity:1" d="M0 375.008V-.004h349.262v375.012Zm0 0"/></g><path style="fill:none;stroke-width:.79701;stroke-linecap:butt;stroke-linejoin:miter;stroke:#000;stroke-opacity:1;stroke-miterlimit:10" d="M141.732-.002c0 78.281-63.453 141.734-141.73 141.734-78.281 0-141.735-63.453-141.735-141.734 0-78.277 63.454-141.73 141.735-141.73 78.277 0 141.73 63.453 141.73 141.73Zm0 0" transform="matrix(1 0 0 -1 142.131 194.459)"/><g style="fill:#000;fill-opacity:1"><use xlink:href="#b" x="246.07" y="90.42"/><use xlink:href="#c" x="253.203" y="90.42"/></g><g style="fill:#000;fill-opacity:1"><use xlink:href="#d" x="256.541" y="90.42"/><use xlink:href="#e" x="262.469" y="90.42"/><use xlink:href="#f" x="268.386" y="90.42"/><use xlink:href="#g" x="274.195" y="90.42"/></g><path style="fill-rule:nonzero;fill:#234e83;fill-opacity:1;stroke-width:.3985;stroke-linecap:butt;stroke-linejoin:miter;stroke:#000;stroke-opacity:1;stroke-miterlimit:10" d="M93.545-.002c0 4.7-3.809 8.508-8.504 8.508-4.695 0-8.504-3.809-8.504-8.508a8.506 8.506 0 0 1 8.504-8.504 8.506 8.506 0 0 1 8.504 8.504Zm0 0" transform="matrix(1 0 0 -1 142.131 194.459)"/><use xlink:href="#h" x="225.038" y="182.435" style="fill:#000;fill-opacity:1"/><path style="fill-rule:nonzero;fill:#234e83;fill-opacity:1;stroke-width:.3985;stroke-linecap:butt;stroke-linejoin:miter;stroke:#000;stroke-opacity:1;stroke-miterlimit:10" d="M-34.018 73.647a8.5 8.5 0 0 1-8.504 8.503 8.503 8.503 0 0 1-8.504-8.504 8.506 8.506 0 0 1 8.504-8.503c4.7 0 8.504 3.808 8.504 8.504Zm0 0" transform="matrix(1 0 0 -1 142.131 194.459)"/><use xlink:href="#i" x="97.016" y="108.789" style="fill:#000;fill-opacity:1"/><path style="fill-rule:nonzero;fill:#234e83;fill-opacity:1;stroke-width:.3985;stroke-linecap:butt;stroke-linejoin:miter;stroke:#000;stroke-opacity:1;stroke-miterlimit:10" d="M-34.018-73.646a8.503 8.503 0 0 1-8.504 8.503 8.506 8.506 0 0 1-8.504-8.503c0-4.7 3.81-8.504 8.504-8.504a8.5 8.5 0 0 1 8.504 8.504Zm0 0" transform="matrix(1 0 0 -1 142.131 194.459)"/><use xlink:href="#j" x="96.951" y="254.617" style="fill:#000;fill-opacity:1"/><g clip-path="url(#k)"><path style="stroke:none;fill-rule:nonzero;fill:#234e83;fill-opacity:1" d="M349.063 194.46c0-4.698-3.81-8.507-8.504-8.507-4.696 0-8.504 3.809-8.504 8.508a8.506 8.506 0 0 0 8.504 8.504 8.506 8.506 0 0 0 8.503-8.504Zm0 0"/></g><g clip-path="url(#l)"><path style="fill:none;stroke-width:.3985;stroke-linecap:butt;stroke-linejoin:miter;stroke:#000;stroke-opacity:1;stroke-miterlimit:10" d="M206.931-.002c0 4.7-3.808 8.508-8.503 8.508-4.696 0-8.504-3.809-8.504-8.508a8.506 8.506 0 0 1 8.504-8.504 8.506 8.506 0 0 1 8.504 8.504Zm0 0" transform="matrix(1 0 0 -1 142.131 194.459)"/></g><g style="fill:#000;fill-opacity:1"><use xlink:href="#h" x="337.477" y="182.435"/><use xlink:href="#m" x="341.741" y="182.435"/></g><path style="fill-rule:nonzero;fill:#234e83;fill-opacity:1;stroke-width:.3985;stroke-linecap:butt;stroke-linejoin:miter;stroke:#000;stroke-opacity:1;stroke-miterlimit:10" d="M-90.71 171.846a8.506 8.506 0 0 1-8.503 8.504 8.503 8.503 0 0 1-8.504-8.504 8.504 8.504 0 1 1 17.008 0Zm0 0" transform="matrix(1 0 0 -1 142.131 194.459)"/><g style="fill:#000;fill-opacity:1"><use xlink:href="#i" x="39.376" y="10.594"/><use xlink:href="#m" x="44.567" y="10.594"/></g><path style="stroke:none;fill-rule:nonzero;fill:#234e83;fill-opacity:1" d="M51.422 366.305a8.504 8.504 0 1 0-17.008 0 8.503 8.503 0 0 0 8.504 8.504 8.506 8.506 0 0 0 8.504-8.504Zm0 0"/><g clip-path="url(#n)"><path style="fill:none;stroke-width:.3985;stroke-linecap:butt;stroke-linejoin:miter;stroke:#000;stroke-opacity:1;stroke-miterlimit:10" d="M-90.71-171.846a8.504 8.504 0 1 1-17.008 0 8.503 8.503 0 0 1 8.505-8.504 8.506 8.506 0 0 1 8.504 8.504Zm0 0" transform="matrix(1 0 0 -1 142.131 194.459)"/></g><g style="fill:#000;fill-opacity:1"><use xlink:href="#j" x="39.312" y="352.812"/><use xlink:href="#m" x="44.632" y="352.812"/></g><path style="fill:none;stroke-width:.3985;stroke-linecap:butt;stroke-linejoin:miter;stroke:#000;stroke-opacity:1;stroke-miterlimit:10" d="M81.072 2.291-38.553 71.357" transform="matrix(1 0 0 -1 142.131 194.459)"/><path style="fill-rule:nonzero;fill:#000;fill-opacity:1;stroke-width:.3985;stroke-linecap:butt;stroke-linejoin:miter;stroke:#000;stroke-opacity:1;stroke-miterlimit:10" d="M3.761.002C3.3.114 1.268.75 0 1.447l.003-2.894C1.269-.752 3.299-.112 3.762.002Zm0 0" transform="matrix(.86601 .49998 .49998 -.86601 223.203 192.168)"/><path style="fill-rule:nonzero;fill:#000;fill-opacity:1;stroke-width:.3985;stroke-linecap:butt;stroke-linejoin:miter;stroke:#000;stroke-opacity:1;stroke-miterlimit:10" d="M3.76 0C3.3.113 1.268.752 0 1.446l-.002-2.893C1.27-.752 3.3-.112 3.76-.001Zm0 0" transform="scale(-.99998 .99998) rotate(-29.999 177.932 254.843)"/><use xlink:href="#o" x="155.798" y="152.622" style="fill:#000;fill-opacity:1"/><g style="fill:#000;fill-opacity:1"><use xlink:href="#p" x="162.921" y="154.116"/><use xlink:href="#q" x="166.332" y="154.116"/></g><path style="fill:none;stroke-width:.3985;stroke-linecap:butt;stroke-linejoin:miter;stroke:#000;stroke-opacity:1;stroke-miterlimit:10" d="m81.69 3.127-177.551 165.59" transform="matrix(1 0 0 -1 142.131 194.459)"/><path style="fill-rule:nonzero;fill:#000;fill-opacity:1;stroke-width:.3985;stroke-linecap:butt;stroke-linejoin:miter;stroke:#000;stroke-opacity:1;stroke-miterlimit:10" d="M3.76 0C3.299.113 1.27.753 0 1.444l-.001-2.891C1.269-.753 3.3-.114 3.76 0Zm0 0" transform="matrix(.7313 .68204 .68204 -.7313 223.82 191.333)"/><path style="fill-rule:nonzero;fill:#000;fill-opacity:1;stroke-width:.3985;stroke-linecap:butt;stroke-linejoin:miter;stroke:#000;stroke-opacity:1;stroke-miterlimit:10" d="M3.76 0C3.3.114 1.268.751.002 1.445L0-1.445c1.271.693 3.3 1.33 3.76 1.444Zm0 0" transform="matrix(-.7313 -.68204 -.68204 .7313 46.269 25.74)"/><use xlink:href="#o" x="156.99" y="128.665" style="fill:#000;fill-opacity:1"/><use xlink:href="#r" x="164.349" y="124.747" style="fill:#000;fill-opacity:1"/><g style="fill:#000;fill-opacity:1"><use xlink:href="#p" x="164.113" y="131.128"/><use xlink:href="#q" x="167.524" y="131.128"/></g><path style="fill:none;stroke-width:.3985;stroke-linecap:butt;stroke-linejoin:miter;stroke:#000;stroke-opacity:1;stroke-miterlimit:10" d="m-44.81-77.615-52.114-90.262" transform="matrix(1 0 0 -1 142.131 194.459)"/><path style="fill-rule:nonzero;fill:#000;fill-opacity:1;stroke-width:.3985;stroke-linecap:butt;stroke-linejoin:miter;stroke:#000;stroke-opacity:1;stroke-miterlimit:10" d="M3.762.001C3.3.114 1.27.75 0 1.447v-2.891C1.27-.752 3.3-.112 3.762 0Zm0 0" transform="scale(.99998 -.99998) rotate(60.001 284.288 -51.759)"/><path style="fill-rule:nonzero;fill:#000;fill-opacity:1;stroke-width:.3985;stroke-linecap:butt;stroke-linejoin:miter;stroke:#000;stroke-opacity:1;stroke-miterlimit:10" d="M3.76 0C3.298.111 1.268.752 0 1.446l-.003-2.893C1.271-.752 3.301-.112 3.76-.001Zm0 0" transform="matrix(-.49997 .86602 .86602 .49997 45.21 362.338)"/><use xlink:href="#o" x="80.454" y="309.739" style="fill:#000;fill-opacity:1"/><use xlink:href="#r" x="87.813" y="305.82" style="fill:#000;fill-opacity:1"/><use xlink:href="#s" x="87.577" y="312.202" style="fill:#000;fill-opacity:1"/></svg>
