<svg xmlns="http://www.w3.org/2000/svg" xmlns:xlink="http://www.w3.org/1999/xlink" width="608.837" height="262.143" viewBox="0 0 456.628 196.607"><defs><symbol overflow="visible" id="b"><path style="stroke:none" d="M.86-7.078 3.39-.875l2.516-6.203h.735L3.703 0h-.625L.125-7.078Zm0 0"/></symbol><symbol overflow="visible" id="i"><path style="stroke:none" d="M.89 0v-7.078h.688V0Zm0 0"/></symbol><symbol overflow="visible" id="j"><path style="stroke:none" d="M.89 0v-7.078h2.985c.313 0 .594.062.844.187s.468.297.656.516c.188.219.332.46.438.719.101.261.156.527.156.797 0 .343-.07.668-.203.968a2.047 2.047 0 0 1-.547.75c-.23.211-.508.344-.828.407L6.125 0h-.781L3.672-2.61H1.578V0Zm.688-3.234h2.313c.28 0 .523-.07.734-.22.207-.155.367-.358.484-.608a1.91 1.91 0 0 0 .172-.797c0-.282-.07-.54-.203-.782a1.526 1.526 0 0 0-.516-.593 1.285 1.285 0 0 0-.718-.22H1.578Zm0 0"/></symbol><symbol overflow="visible" id="k"><path style="stroke:none" d="M.89 0v-7.078h.688v6.453h4.094V0Zm0 0"/></symbol><symbol overflow="visible" id="l"><path style="stroke:none" d="M7.156 0v-5.766L4.594-1.28h-.438L1.578-5.766V0H.891v-7.078h.718l2.75 4.844 2.782-4.844h.718V0Zm0 0"/></symbol><symbol overflow="visible" id="c"><path style="stroke:none" d="M.266-1.188c0-.257.07-.484.218-.671.145-.196.348-.348.61-.454a2.62 2.62 0 0 1 .922-.156c.195 0 .406.024.625.063.218.031.414.078.593.14v-.359c0-.344-.105-.617-.312-.828-.211-.207-.496-.313-.86-.313-.23 0-.453.043-.671.125a3.954 3.954 0 0 0-.672.36l-.203-.39c.27-.177.535-.313.796-.407.258-.094.524-.14.797-.14.508 0 .91.148 1.204.437.3.293.453.695.453 1.203v1.922c0 .074.015.133.046.172.032.03.083.046.157.046V0c-.063.008-.117.016-.156.016a.184.184 0 0 1-.094 0c-.137 0-.242-.04-.313-.125a.407.407 0 0 1-.094-.25l-.015-.313a1.86 1.86 0 0 1-.735.563 2.25 2.25 0 0 1-.89.187c-.274 0-.516-.058-.734-.172a1.367 1.367 0 0 1-.5-.453 1.222 1.222 0 0 1-.172-.64Zm2.78.313c.052-.07.095-.14.126-.203a.43.43 0 0 0 .062-.203v-.594a3.015 3.015 0 0 0-.578-.156 2.848 2.848 0 0 0-.578-.063c-.387 0-.7.078-.937.235a.691.691 0 0 0-.36.625c0 .156.035.304.11.437.082.137.203.25.359.344.156.086.336.125.547.125.258 0 .5-.05.719-.156.226-.102.406-.235.53-.391Zm0 0"/></symbol><symbol overflow="visible" id="d"><path style="stroke:none" d="M3.234-.5V0H.531v-.5h1.14v-3.406a1.14 1.14 0 0 1-.218.219c-.105.074-.226.14-.36.203-.124.062-.25.117-.374.156a1.106 1.106 0 0 1-.36.062v-.53c.125 0 .258-.032.407-.095a3.207 3.207 0 0 0 .75-.5.874.874 0 0 0 .156-.156h.547V-.5Zm0 0"/></symbol><symbol overflow="visible" id="e"><path style="stroke:none" d="M2.625.078a1.73 1.73 0 0 1-.906-.25 1.83 1.83 0 0 1-.64-.64V0H.593v-5.813h.547v2.532c.187-.281.41-.504.671-.672.258-.176.563-.266.907-.266.289 0 .55.063.781.188.227.117.426.277.594.484.164.2.289.43.375.688.082.261.125.527.125.796 0 .293-.055.57-.157.829A2.08 2.08 0 0 1 3.405-.093c-.242.113-.5.171-.781.171ZM2.5-.39c.227 0 .438-.046.625-.14a1.56 1.56 0 0 0 .484-.375c.145-.156.254-.332.329-.531A1.902 1.902 0 0 0 3.86-2.89a1.623 1.623 0 0 0-.516-.626 1.311 1.311 0 0 0-.781-.234 1.23 1.23 0 0 0-.594.156c-.18.094-.34.219-.485.375a2.4 2.4 0 0 0-.343.516v1.281a.91.91 0 0 0 .156.406c.094.125.207.235.344.329.132.085.273.156.421.218.157.055.301.078.438.078Zm0 0"/></symbol><symbol overflow="visible" id="f"><path style="stroke:none" d="M2.406.078c-.312 0-.594-.058-.844-.172a2.06 2.06 0 0 1-.656-.469 2.263 2.263 0 0 1-.594-1.53c0-.384.086-.739.266-1.063.176-.332.422-.594.735-.781A2.055 2.055 0 0 1 2.39-4.22c.382 0 .722.09 1.015.266.301.18.524.418.672.719l-.531.171a1.22 1.22 0 0 0-.485-.5 1.353 1.353 0 0 0-.703-.187c-.273 0-.523.074-.75.219a1.57 1.57 0 0 0-.546.594c-.137.25-.204.53-.204.843 0 .313.067.602.204.86.144.25.328.453.546.609.227.156.485.234.766.234.176 0 .348-.03.516-.093.164-.07.312-.16.437-.266a.873.873 0 0 0 .25-.36l.547.157c-.074.2-.2.375-.375.531-.18.156-.383.281-.61.375a2.18 2.18 0 0 1-.734.125Zm0 0"/></symbol><symbol overflow="visible" id="g"><path style="stroke:none" d="M4.094 0h-.547v-2.313c0-.488-.074-.847-.219-1.078-.148-.226-.371-.343-.672-.343-.219 0-.433.054-.64.156a1.89 1.89 0 0 0-.532.422c-.156.18-.273.383-.343.61V0H.594v-4.156h.5v.937c.113-.195.258-.367.437-.515.176-.157.38-.274.61-.36.226-.082.468-.125.718-.125.227 0 .422.043.579.125a.974.974 0 0 1 .374.36c.094.156.16.343.204.562.05.219.078.465.078.735Zm0 0"/></symbol><symbol overflow="visible" id="h"><path style="stroke:none" d="M.344 0c0-.176.015-.36.047-.547.039-.187.101-.367.187-.547.094-.176.227-.347.406-.515.176-.164.407-.329.688-.485l.484-.219c.164-.082.32-.171.469-.265.145-.094.258-.195.344-.313a.765.765 0 0 0 .016-.813.748.748 0 0 0-.344-.312 1.274 1.274 0 0 0-.594-.125c-.168 0-.324.028-.469.079a1.333 1.333 0 0 0-.36.171 2.037 2.037 0 0 0-.265.22 2.11 2.11 0 0 1-.187.171l-.344-.375.172-.172a2.27 2.27 0 0 1 .36-.25 2.06 2.06 0 0 1 .515-.234c.207-.063.43-.094.672-.094.32 0 .597.059.828.172.226.117.406.266.531.453.125.188.188.398.188.625 0 .219-.047.406-.141.563a1.487 1.487 0 0 1-.36.406 3.516 3.516 0 0 1-.89.5 3.41 3.41 0 0 0-.625.36 1.97 1.97 0 0 0-.406.359A1.345 1.345 0 0 0 .922-.5h2.844V0Zm0 0"/></symbol><clipPath id="a"><path d="M0 0h456.629v196.605H0Zm0 0"/></clipPath></defs><g clip-path="url(#a)"><path style="stroke:none;fill-rule:nonzero;fill:#fff;fill-opacity:1" d="M.004 196.605V-.004h456.633v196.61Zm0 0"/></g><use xlink:href="#b" x="3.894" y="19.681" style="fill:#000;fill-opacity:1"/><g style="fill:#000;fill-opacity:1"><use xlink:href="#c" x="10.659" y="21.176"/><use xlink:href="#d" x="15.003" y="21.176"/></g><path style="fill:none;stroke-width:.398;stroke-linecap:butt;stroke-linejoin:miter;stroke:#000;stroke-opacity:1;stroke-miterlimit:10" d="M0 .002h15.016" transform="matrix(1 0 0 -1 3.894 22.65)"/><use xlink:href="#b" x="3.321" y="75.928" style="fill:#000;fill-opacity:1"/><g style="fill:#000;fill-opacity:1"><use xlink:href="#e" x="10.085" y="78.315"/><use xlink:href="#d" x="15.003" y="78.315"/></g><path style="fill:none;stroke-width:.398;stroke-linecap:butt;stroke-linejoin:miter;stroke:#000;stroke-opacity:1;stroke-miterlimit:10" d="M0 0h15.593" transform="matrix(1 0 0 -1 3.321 79.789)"/><use xlink:href="#b" x="3.862" y="133.067" style="fill:#000;fill-opacity:1"/><g style="fill:#000;fill-opacity:1"><use xlink:href="#f" x="10.627" y="134.561"/><use xlink:href="#d" x="15.003" y="134.561"/></g><path style="fill:none;stroke-width:.398;stroke-linecap:butt;stroke-linejoin:miter;stroke:#000;stroke-opacity:1;stroke-miterlimit:10" d="M.001 0h15.047" transform="matrix(1 0 0 -1 3.862 136.036)"/><use xlink:href="#b" x="3.591" y="189.8" style="fill:#000;fill-opacity:1"/><g style="fill:#000;fill-opacity:1"><use xlink:href="#g" x="10.356" y="191.294"/><use xlink:href="#d" x="15.003" y="191.294"/></g><path style="fill:none;stroke-width:.398;stroke-linecap:butt;stroke-linejoin:miter;stroke:#000;stroke-opacity:1;stroke-miterlimit:10" d="M-.001.002h15.32" transform="matrix(1 0 0 -1 3.591 192.689)"/><use xlink:href="#b" x="436.975" y="19.681" style="fill:#000;fill-opacity:1"/><g style="fill:#000;fill-opacity:1"><use xlink:href="#c" x="443.74" y="21.176"/><use xlink:href="#h" x="448.084" y="21.176"/></g><path style="fill:none;stroke-width:.398;stroke-linecap:butt;stroke-linejoin:miter;stroke:#000;stroke-opacity:1;stroke-miterlimit:10" d="M.002.002h15.757" transform="matrix(1 0 0 -1 436.975 22.65)"/><use xlink:href="#b" x="436.975" y="75.928" style="fill:#000;fill-opacity:1"/><g style="fill:#000;fill-opacity:1"><use xlink:href="#e" x="443.74" y="78.315"/><use xlink:href="#h" x="448.658" y="78.315"/></g><path style="fill:none;stroke-width:.398;stroke-linecap:butt;stroke-linejoin:miter;stroke:#000;stroke-opacity:1;stroke-miterlimit:10" d="M.002 0h16.332" transform="matrix(1 0 0 -1 436.975 79.789)"/><use xlink:href="#b" x="436.975" y="133.067" style="fill:#000;fill-opacity:1"/><g style="fill:#000;fill-opacity:1"><use xlink:href="#f" x="443.74" y="134.561"/><use xlink:href="#h" x="448.116" y="134.561"/></g><path style="fill:none;stroke-width:.398;stroke-linecap:butt;stroke-linejoin:miter;stroke:#000;stroke-opacity:1;stroke-miterlimit:10" d="M.002 0H15.79" transform="matrix(1 0 0 -1 436.975 136.036)"/><use xlink:href="#b" x="436.975" y="189.8" style="fill:#000;fill-opacity:1"/><g style="fill:#000;fill-opacity:1"><use xlink:href="#g" x="443.74" y="191.294"/><use xlink:href="#h" x="448.387" y="191.294"/></g><path style="fill:none;stroke-width:.398;stroke-linecap:butt;stroke-linejoin:miter;stroke:#000;stroke-opacity:1;stroke-miterlimit:10" d="M.002.002H16.06" transform="matrix(1 0 0 -1 436.975 192.689)"/><path style="fill:none;stroke-width:.3985;stroke-linecap:butt;stroke-linejoin:miter;stroke:#000;stroke-opacity:1;stroke-miterlimit:10" d="M255.12 226.774h35.433m0 0h44.082m18.14 0h19.56m13.609 0h32.172m0 0h99.215m0 0h113.386m0 0h35.434" transform="matrix(1 0 0 -1 -232.686 414.778)"/><path style="fill-rule:nonzero;fill:#000;fill-opacity:1;stroke-width:.3985;stroke-linecap:butt;stroke-linejoin:miter;stroke:#000;stroke-opacity:1;stroke-miterlimit:10" d="M256.03 226.774a.908.908 0 0 1-1.817 0 .908.908 0 0 1 1.816 0Zm70.867 0a.908.908 0 0 1-1.816 0 .908.908 0 0 1 1.816 0Zm-37.336 0v-1.133l2.41 1.133-2.41 1.133Zm0 0" transform="matrix(1 0 0 -1 -232.686 414.778)"/><use xlink:href="#i" x="52.352" y="181" style="fill:#000;fill-opacity:1"/><g style="fill:#000;fill-opacity:1"><use xlink:href="#g" x="54.822" y="182.494"/><use xlink:href="#d" x="59.469" y="182.494"/></g><path style="fill:none;stroke-width:.398;stroke-linecap:butt;stroke-linejoin:miter;stroke:#000;stroke-opacity:1;stroke-miterlimit:10" d="M0-.002h11.027" transform="matrix(1 0 0 -1 52.352 183.889)"/><path style="fill:none;stroke-width:.797;stroke-linecap:butt;stroke-linejoin:miter;stroke:#000;stroke-opacity:1;stroke-miterlimit:10" d="M334.635 230.176h18.14v-6.804h-18.14Zm0 0" transform="matrix(1 0 0 -1 -232.686 414.778)"/><use xlink:href="#j" x="105.189" y="180.387" style="fill:#000;fill-opacity:1"/><use xlink:href="#g" x="111.695" y="181.881" style="fill:#000;fill-opacity:1"/><path style="fill:none;stroke-width:.797;stroke-linecap:butt;stroke-linejoin:bevel;stroke:#000;stroke-opacity:1;stroke-miterlimit:10" d="M371.936 226.614c0 1.879.95 3.402 2.121 3.402 1.172 0 2.121-1.523 2.121-3.402 0-.938-.379-1.7-.851-1.7-.47 0-.848.762-.848 1.7 0 1.879.95 3.402 2.117 3.402 1.172 0 2.121-1.523 2.121-3.402 0-.938-.379-1.7-.847-1.7-.473 0-.852.762-.852 1.7 0 1.879.95 3.402 2.121 3.402 1.172 0 2.121-1.523 2.121-3.402 0-.938-.383-1.7-.851-1.7-.47 0-.852.762-.852 1.7 0 1.879.95 3.402 2.121 3.402 1.172 0 2.121-1.523 2.121-3.402 0-.938-.379-1.7-.851-1.7-.469 0-.848.762-.848 1.7 0 1.879.95 3.402 2.121 3.402 1.168 0 2.121-1.523 2.121-3.402" transform="matrix(1 0 0 -1 -232.686 414.778)"/><use xlink:href="#k" x="140.971" y="180.387" style="fill:#000;fill-opacity:1"/><use xlink:href="#g" x="146.779" y="181.881" style="fill:#000;fill-opacity:1"/><path style="fill-rule:nonzero;fill:#000;fill-opacity:1;stroke-width:.3985;stroke-linecap:butt;stroke-linejoin:miter;stroke:#000;stroke-opacity:1;stroke-miterlimit:10" d="M596.19 226.774a.907.907 0 1 1-1.814-.001.907.907 0 0 1 1.814.001Zm70.867 0a.907.907 0 1 1-1.814-.001.907.907 0 0 1 1.814.001Zm-35.347 0v1.133l-2.41-1.133 2.41-1.133Zm0 0" transform="matrix(1 0 0 -1 -232.686 414.778)"/><use xlink:href="#i" x="392.138" y="181" style="fill:#000;fill-opacity:1"/><g style="fill:#000;fill-opacity:1"><use xlink:href="#g" x="394.609" y="182.494"/><use xlink:href="#h" x="399.256" y="182.494"/></g><path style="fill:none;stroke-width:.398;stroke-linecap:butt;stroke-linejoin:miter;stroke:#000;stroke-opacity:1;stroke-miterlimit:10" d="M-.001-.002h11.77" transform="matrix(1 0 0 -1 392.138 183.889)"/><path style="fill:none;stroke-width:.3985;stroke-linecap:butt;stroke-linejoin:miter;stroke:#000;stroke-opacity:1;stroke-miterlimit:10" d="M255.12 283.47h35.433m0 0h44.082m18.14 0h19.56m13.609 0h32.172m0 0h99.215m0 0h113.386m0 0h35.434" transform="matrix(1 0 0 -1 -232.686 414.778)"/><path style="fill-rule:nonzero;fill:#000;fill-opacity:1;stroke-width:.3985;stroke-linecap:butt;stroke-linejoin:miter;stroke:#000;stroke-opacity:1;stroke-miterlimit:10" d="M256.03 283.47a.908.908 0 1 1-1.816-.004.908.908 0 0 1 1.816.003Zm70.867 0a.908.908 0 1 1-1.816-.004.908.908 0 0 1 1.816.003Zm-37.336 0v-1.137l2.41 1.136-2.41 1.133Zm0 0" transform="matrix(1 0 0 -1 -232.686 414.778)"/><use xlink:href="#i" x="52.487" y="124.227" style="fill:#000;fill-opacity:1"/><g style="fill:#000;fill-opacity:1"><use xlink:href="#f" x="54.958" y="125.722"/><use xlink:href="#d" x="59.334" y="125.722"/></g><path style="fill:none;stroke-width:.398;stroke-linecap:butt;stroke-linejoin:miter;stroke:#000;stroke-opacity:1;stroke-miterlimit:10" d="M.001 0h10.754" transform="matrix(1 0 0 -1 52.487 127.196)"/><path style="fill:none;stroke-width:.797;stroke-linecap:butt;stroke-linejoin:miter;stroke:#000;stroke-opacity:1;stroke-miterlimit:10" d="M334.635 286.868h18.14v-6.8h-18.14Zm0 0" transform="matrix(1 0 0 -1 -232.686 414.778)"/><use xlink:href="#j" x="105.325" y="123.694" style="fill:#000;fill-opacity:1"/><use xlink:href="#f" x="111.83" y="125.188" style="fill:#000;fill-opacity:1"/><path style="fill:none;stroke-width:.797;stroke-linecap:butt;stroke-linejoin:bevel;stroke:#000;stroke-opacity:1;stroke-miterlimit:10" d="M371.936 283.31c0 1.878.95 3.402 2.121 3.402 1.172 0 2.121-1.524 2.121-3.403 0-.941-.379-1.703-.851-1.703-.47 0-.848.762-.848 1.703 0 1.88.95 3.403 2.117 3.403 1.172 0 2.121-1.524 2.121-3.403 0-.941-.379-1.703-.847-1.703-.473 0-.852.762-.852 1.703 0 1.88.95 3.403 2.121 3.403 1.172 0 2.121-1.524 2.121-3.403 0-.941-.383-1.703-.851-1.703-.47 0-.852.762-.852 1.703 0 1.88.95 3.403 2.121 3.403 1.172 0 2.121-1.524 2.121-3.403 0-.941-.379-1.703-.851-1.703-.469 0-.848.762-.848 1.703 0 1.88.95 3.403 2.121 3.403 1.168 0 2.121-1.524 2.121-3.403" transform="matrix(1 0 0 -1 -232.686 414.778)"/><use xlink:href="#k" x="141.107" y="123.694" style="fill:#000;fill-opacity:1"/><use xlink:href="#f" x="146.915" y="125.188" style="fill:#000;fill-opacity:1"/><path style="fill-rule:nonzero;fill:#000;fill-opacity:1;stroke-width:.3985;stroke-linecap:butt;stroke-linejoin:miter;stroke:#000;stroke-opacity:1;stroke-miterlimit:10" d="M596.19 283.47a.907.907 0 0 1-1.813 0 .908.908 0 1 1 1.813 0Zm70.867 0a.907.907 0 0 1-1.812 0 .907.907 0 1 1 1.812 0Zm-35.347 0v1.132l-2.41-1.133 2.41-1.136Zm0 0" transform="matrix(1 0 0 -1 -232.686 414.778)"/><use xlink:href="#i" x="392.274" y="124.227" style="fill:#000;fill-opacity:1"/><g style="fill:#000;fill-opacity:1"><use xlink:href="#f" x="394.744" y="125.722"/><use xlink:href="#h" x="399.12" y="125.722"/></g><path style="fill:none;stroke-width:.398;stroke-linecap:butt;stroke-linejoin:miter;stroke:#000;stroke-opacity:1;stroke-miterlimit:10" d="M0 0h11.496" transform="matrix(1 0 0 -1 392.274 127.196)"/><path style="fill:none;stroke-width:.3985;stroke-linecap:butt;stroke-linejoin:miter;stroke:#000;stroke-opacity:1;stroke-miterlimit:10" d="M255.12 340.16h35.433m0 0h44.082m18.14 0h19.56m13.609 0h32.172m0 0h99.215m0 0h113.386m0 0h35.434" transform="matrix(1 0 0 -1 -232.686 414.778)"/><path style="fill-rule:nonzero;fill:#000;fill-opacity:1;stroke-width:.3985;stroke-linecap:butt;stroke-linejoin:miter;stroke:#000;stroke-opacity:1;stroke-miterlimit:10" d="M256.03 340.16a.908.908 0 0 1-1.817 0 .908.908 0 0 1 1.816 0Zm70.867 0a.908.908 0 0 1-1.816 0 .908.908 0 0 1 1.816 0Zm-37.336 0v-1.132l2.41 1.133-2.41 1.137Zm0 0" transform="matrix(1 0 0 -1 -232.686 414.778)"/><use xlink:href="#i" x="52.216" y="66.642" style="fill:#000;fill-opacity:1"/><g style="fill:#000;fill-opacity:1"><use xlink:href="#e" x="54.687" y="69.029"/><use xlink:href="#d" x="59.605" y="69.029"/></g><path style="fill:none;stroke-width:.398;stroke-linecap:butt;stroke-linejoin:miter;stroke:#000;stroke-opacity:1;stroke-miterlimit:10" d="M-.001 0h11.3" transform="matrix(1 0 0 -1 52.216 70.503)"/><path style="fill:none;stroke-width:.797;stroke-linecap:butt;stroke-linejoin:miter;stroke:#000;stroke-opacity:1;stroke-miterlimit:10" d="M334.635 343.563h18.14v-6.805h-18.14Zm0 0" transform="matrix(1 0 0 -1 -232.686 414.778)"/><use xlink:href="#j" x="105.054" y="67.001" style="fill:#000;fill-opacity:1"/><use xlink:href="#e" x="111.559" y="69.387" style="fill:#000;fill-opacity:1"/><path style="fill:none;stroke-width:.797;stroke-linecap:butt;stroke-linejoin:bevel;stroke:#000;stroke-opacity:1;stroke-miterlimit:10" d="M371.936 340c0 1.88.95 3.403 2.121 3.403 1.172 0 2.121-1.523 2.121-3.402 0-.938-.379-1.7-.851-1.7-.47 0-.848.762-.848 1.7 0 1.879.95 3.402 2.117 3.402 1.172 0 2.121-1.523 2.121-3.402 0-.938-.379-1.7-.847-1.7-.473 0-.852.762-.852 1.7 0 1.879.95 3.402 2.121 3.402 1.172 0 2.121-1.523 2.121-3.402 0-.938-.383-1.7-.851-1.7-.47 0-.852.762-.852 1.7 0 1.879.95 3.402 2.121 3.402 1.172 0 2.121-1.523 2.121-3.402 0-.938-.379-1.7-.851-1.7-.469 0-.848.762-.848 1.7 0 1.879.95 3.402 2.121 3.402 1.168 0 2.121-1.523 2.121-3.402" transform="matrix(1 0 0 -1 -232.686 414.778)"/><use xlink:href="#k" x="140.836" y="67.001" style="fill:#000;fill-opacity:1"/><use xlink:href="#e" x="146.644" y="69.387" style="fill:#000;fill-opacity:1"/><path style="fill-rule:nonzero;fill:#000;fill-opacity:1;stroke-width:.3985;stroke-linecap:butt;stroke-linejoin:miter;stroke:#000;stroke-opacity:1;stroke-miterlimit:10" d="M596.19 340.16a.907.907 0 1 1-1.814 0 .907.907 0 0 1 1.814 0Zm70.867 0a.907.907 0 1 1-1.814 0 .907.907 0 0 1 1.814 0Zm-35.347 0v1.138l-2.41-1.137 2.41-1.133Zm0 0" transform="matrix(1 0 0 -1 -232.686 414.778)"/><use xlink:href="#i" x="392.003" y="66.642" style="fill:#000;fill-opacity:1"/><g style="fill:#000;fill-opacity:1"><use xlink:href="#e" x="394.473" y="69.029"/><use xlink:href="#h" x="399.391" y="69.029"/></g><path style="fill:none;stroke-width:.398;stroke-linecap:butt;stroke-linejoin:miter;stroke:#000;stroke-opacity:1;stroke-miterlimit:10" d="M0 0h12.04" transform="matrix(1 0 0 -1 392.003 70.503)"/><path style="fill:none;stroke-width:.3985;stroke-linecap:butt;stroke-linejoin:miter;stroke:#000;stroke-opacity:1;stroke-miterlimit:10" d="M255.12 396.856h35.433m0 0h44.082m18.14 0h19.56m13.609 0h32.172m0 0h99.215m0 0h113.386m0 0h35.434" transform="matrix(1 0 0 -1 -232.686 414.778)"/><path style="fill-rule:nonzero;fill:#000;fill-opacity:1;stroke-width:.3985;stroke-linecap:butt;stroke-linejoin:miter;stroke:#000;stroke-opacity:1;stroke-miterlimit:10" d="M256.03 396.856a.908.908 0 0 1-1.817 0 .908.908 0 0 1 1.816 0Zm70.867 0a.908.908 0 0 1-1.816 0 .908.908 0 0 1 1.816 0Zm-37.336 0v-1.133l2.41 1.133-2.41 1.133Zm0 0" transform="matrix(1 0 0 -1 -232.686 414.778)"/><use xlink:href="#i" x="52.503" y="10.841" style="fill:#000;fill-opacity:1"/><g style="fill:#000;fill-opacity:1"><use xlink:href="#c" x="54.974" y="12.336"/><use xlink:href="#d" x="59.318" y="12.336"/></g><path style="fill:none;stroke-width:.398;stroke-linecap:butt;stroke-linejoin:miter;stroke:#000;stroke-opacity:1;stroke-miterlimit:10" d="M0 .001h10.724" transform="matrix(1 0 0 -1 52.503 13.81)"/><path style="fill:none;stroke-width:.797;stroke-linecap:butt;stroke-linejoin:miter;stroke:#000;stroke-opacity:1;stroke-miterlimit:10" d="M334.635 400.258h18.14v-6.804h-18.14Zm0 0" transform="matrix(1 0 0 -1 -232.686 414.778)"/><use xlink:href="#j" x="105.341" y="10.308" style="fill:#000;fill-opacity:1"/><use xlink:href="#c" x="111.846" y="11.802" style="fill:#000;fill-opacity:1"/><path style="fill:none;stroke-width:.797;stroke-linecap:butt;stroke-linejoin:bevel;stroke:#000;stroke-opacity:1;stroke-miterlimit:10" d="M371.936 396.696c0 1.879.95 3.402 2.121 3.402 1.172 0 2.121-1.523 2.121-3.402 0-.938-.379-1.7-.851-1.7-.47 0-.848.762-.848 1.7 0 1.879.95 3.402 2.117 3.402 1.172 0 2.121-1.523 2.121-3.402 0-.938-.379-1.7-.847-1.7-.473 0-.852.762-.852 1.7 0 1.879.95 3.402 2.121 3.402 1.172 0 2.121-1.523 2.121-3.402 0-.938-.383-1.7-.851-1.7-.47 0-.852.762-.852 1.7 0 1.879.95 3.402 2.121 3.402 1.172 0 2.121-1.523 2.121-3.402 0-.938-.379-1.7-.851-1.7-.469 0-.848.762-.848 1.7 0 1.879.95 3.402 2.121 3.402 1.168 0 2.121-1.523 2.121-3.402" transform="matrix(1 0 0 -1 -232.686 414.778)"/><use xlink:href="#k" x="141.122" y="10.308" style="fill:#000;fill-opacity:1"/><use xlink:href="#c" x="146.931" y="11.802" style="fill:#000;fill-opacity:1"/><path style="fill-rule:nonzero;fill:#000;fill-opacity:1;stroke-width:.3985;stroke-linecap:butt;stroke-linejoin:miter;stroke:#000;stroke-opacity:1;stroke-miterlimit:10" d="M596.19 396.856a.907.907 0 1 1-1.814-.001.907.907 0 0 1 1.814.001Zm70.867 0a.907.907 0 1 1-1.814-.001.907.907 0 0 1 1.814.001Zm-35.347 0v1.133l-2.41-1.133 2.41-1.133Zm0 0" transform="matrix(1 0 0 -1 -232.686 414.778)"/><use xlink:href="#i" x="392.29" y="10.841" style="fill:#000;fill-opacity:1"/><g style="fill:#000;fill-opacity:1"><use xlink:href="#c" x="394.76" y="12.336"/><use xlink:href="#h" x="399.104" y="12.336"/></g><path style="fill:none;stroke-width:.398;stroke-linecap:butt;stroke-linejoin:miter;stroke:#000;stroke-opacity:1;stroke-miterlimit:10" d="M0 .001h11.464" transform="matrix(1 0 0 -1 392.29 13.81)"/><path style="fill:none;stroke-width:.3985;stroke-linecap:butt;stroke-linejoin:miter;stroke:#000;stroke-opacity:1;stroke-miterlimit:10" d="M441.55 392.813c8.156-16.363 8.156-32.25 0-48.613" transform="matrix(1 0 0 -1 -232.686 414.778)"/><path style="fill-rule:nonzero;fill:#000;fill-opacity:1;stroke-width:.3985;stroke-linecap:butt;stroke-linejoin:miter;stroke:#000;stroke-opacity:1;stroke-miterlimit:10" d="M3.76 0C3.3.114 1.268.753 0 1.446v-2.89C1.27-.753 3.3-.113 3.76 0Zm0 0" transform="scale(-.99995 .99995) rotate(-61.8 -86.084 185.476)"/><path style="fill-rule:nonzero;fill:#000;fill-opacity:1;stroke-width:.3985;stroke-linecap:butt;stroke-linejoin:miter;stroke:#000;stroke-opacity:1;stroke-miterlimit:10" d="M3.76 0C3.3.111 1.269.75 0 1.445v-2.891C1.268-.752 3.3-.113 3.76-.001Zm0 0" transform="matrix(-.47258 .88123 .88123 .47258 208.855 70.578)"/><use xlink:href="#l" x="218.494" y="47.581" style="fill:#000;fill-opacity:1"/><g style="fill:#000;fill-opacity:1"><use xlink:href="#c" x="227.231" y="49.968"/><use xlink:href="#e" x="231.575" y="49.968"/></g><path style="fill:none;stroke-width:.398;stroke-linecap:butt;stroke-linejoin:miter;stroke:#000;stroke-opacity:1;stroke-miterlimit:10" d="M-.002 0h18.5" transform="matrix(1 0 0 -1 218.494 51.442)"/><path style="fill:none;stroke-width:.3985;stroke-linecap:butt;stroke-linejoin:miter;stroke:#000;stroke-opacity:1;stroke-miterlimit:10" d="M441.55 336.118c8.156-16.36 8.156-32.25 0-48.61" transform="matrix(1 0 0 -1 -232.686 414.778)"/><path style="fill-rule:nonzero;fill:#000;fill-opacity:1;stroke-width:.3985;stroke-linecap:butt;stroke-linejoin:miter;stroke:#000;stroke-opacity:1;stroke-miterlimit:10" d="M3.761 0C3.3.113 1.27.75-.002 1.445l.001-2.891C1.27-.753 3.3-.111 3.761-.001Zm0 0" transform="scale(-.99995 .99995) rotate(-61.8 -38.718 213.824)"/><path style="fill-rule:nonzero;fill:#000;fill-opacity:1;stroke-width:.3985;stroke-linecap:butt;stroke-linejoin:miter;stroke:#000;stroke-opacity:1;stroke-miterlimit:10" d="M3.761 0C3.298.111 1.271.752 0 1.445l-.001-2.891C1.269-.751 3.299-.114 3.76 0Zm0 0" transform="matrix(-.47258 .88123 .88123 .47258 208.855 127.271)"/><use xlink:href="#l" x="218.494" y="104.274" style="fill:#000;fill-opacity:1"/><g style="fill:#000;fill-opacity:1"><use xlink:href="#e" x="227.231" y="106.661"/><use xlink:href="#f" x="232.149" y="106.661"/></g><path style="fill:none;stroke-width:.398;stroke-linecap:butt;stroke-linejoin:miter;stroke:#000;stroke-opacity:1;stroke-miterlimit:10" d="M-.002-.002H18.53" transform="matrix(1 0 0 -1 218.494 108.135)"/><path style="fill:none;stroke-width:.3985;stroke-linecap:butt;stroke-linejoin:miter;stroke:#000;stroke-opacity:1;stroke-miterlimit:10" d="M441.55 279.426c8.156-16.363 8.156-32.25 0-48.613" transform="matrix(1 0 0 -1 -232.686 414.778)"/><path style="fill-rule:nonzero;fill:#000;fill-opacity:1;stroke-width:.3985;stroke-linecap:butt;stroke-linejoin:miter;stroke:#000;stroke-opacity:1;stroke-miterlimit:10" d="M3.76 0C3.298.115 1.268.751 0 1.445v-2.891C1.27-.752 3.301-.112 3.76 0Zm0 0" transform="scale(-.99995 .99995) rotate(-61.8 8.649 242.172)"/><path style="fill-rule:nonzero;fill:#000;fill-opacity:1;stroke-width:.3985;stroke-linecap:butt;stroke-linejoin:miter;stroke:#000;stroke-opacity:1;stroke-miterlimit:10" d="M3.763.001C3.3.111 1.268.751 0 1.445v-2.89C1.266-.752 3.3-.113 3.762 0Zm0 0" transform="scale(-.99995 .99995) rotate(61.797 -258.143 -82.52)"/><use xlink:href="#l" x="218.494" y="161.413" style="fill:#000;fill-opacity:1"/><g style="fill:#000;fill-opacity:1"><use xlink:href="#f" x="227.231" y="162.908"/><use xlink:href="#g" x="231.607" y="162.908"/></g><path style="fill:none;stroke-width:.398;stroke-linecap:butt;stroke-linejoin:miter;stroke:#000;stroke-opacity:1;stroke-miterlimit:10" d="M-.002 0H18.26" transform="matrix(1 0 0 -1 218.494 164.382)"/><path style="fill:none;stroke-width:.3985;stroke-linecap:butt;stroke-linejoin:miter;stroke:#000;stroke-opacity:1;stroke-miterlimit:10" d="M480.588 392.848c19.13-35.527 19.13-69.851-.004-105.382" transform="matrix(1 0 0 -1 -232.686 414.778)"/><path style="fill-rule:nonzero;fill:#000;fill-opacity:1;stroke-width:.3985;stroke-linecap:butt;stroke-linejoin:miter;stroke:#000;stroke-opacity:1;stroke-miterlimit:10" d="M3.761 0c-.46.113-2.492.753-3.76 1.446L0-1.446C1.269-.75 3.3-.114 3.76 0Zm0 0" transform="scale(-.99997 .99997) rotate(-60.88 -105.295 221.895)"/><path style="fill-rule:nonzero;fill:#000;fill-opacity:1;stroke-width:.3985;stroke-linecap:butt;stroke-linejoin:miter;stroke:#000;stroke-opacity:1;stroke-miterlimit:10" d="M3.763 0C3.298.114 1.27.75 0 1.448v-2.895C1.271-.752 3.3-.114 3.763 0Zm0 0" transform="matrix(-.48666 .87355 .87355 .48666 247.897 127.307)"/><use xlink:href="#l" x="261.616" y="48.168" style="fill:#000;fill-opacity:1"/><g style="fill:#000;fill-opacity:1"><use xlink:href="#f" x="270.353" y="49.662"/><use xlink:href="#c" x="274.729" y="49.662"/></g><path style="fill:none;stroke-width:.398;stroke-linecap:butt;stroke-linejoin:miter;stroke:#000;stroke-opacity:1;stroke-miterlimit:10" d="M.001 0h17.953" transform="matrix(1 0 0 -1 261.616 51.136)"/><path style="fill:none;stroke-width:.3985;stroke-linecap:butt;stroke-linejoin:miter;stroke:#000;stroke-opacity:1;stroke-miterlimit:10" d="M503.971 336.157c19.133-35.531 19.13-69.856-.004-105.383" transform="matrix(1 0 0 -1 -232.686 414.778)"/><path style="fill-rule:nonzero;fill:#000;fill-opacity:1;stroke-width:.3985;stroke-linecap:butt;stroke-linejoin:miter;stroke:#000;stroke-opacity:1;stroke-miterlimit:10" d="M3.762-.003C3.3.113 1.271.75 0 1.445v-2.894C1.27-.752 3.299-.11 3.762-.003Zm0 0" transform="scale(-.99997 .99997) rotate(-60.88 -68.748 270.14)"/><path style="fill-rule:nonzero;fill:#000;fill-opacity:1;stroke-width:.3985;stroke-linecap:butt;stroke-linejoin:miter;stroke:#000;stroke-opacity:1;stroke-miterlimit:10" d="M3.76.001c-.46.11-2.492.75-3.762 1.446L0-1.445C1.268-.752 3.3-.112 3.76.001Zm0 0" transform="matrix(-.48665 .87357 .87357 .48665 271.282 184)"/><use xlink:href="#l" x="285.001" y="160.827" style="fill:#000;fill-opacity:1"/><g style="fill:#000;fill-opacity:1"><use xlink:href="#e" x="293.738" y="163.214"/><use xlink:href="#g" x="298.656" y="163.214"/></g><path style="fill:none;stroke-width:.398;stroke-linecap:butt;stroke-linejoin:miter;stroke:#000;stroke-opacity:1;stroke-miterlimit:10" d="M-.001 0h18.8" transform="matrix(1 0 0 -1 285.001 164.688)"/><path style="fill:none;stroke-width:.3985;stroke-linecap:butt;stroke-linejoin:miter;stroke:#000;stroke-opacity:1;stroke-miterlimit:10" d="M558.561 392.864c30.156-54.68 30.156-107.418 0-162.098" transform="matrix(1 0 0 -1 -232.686 414.778)"/><path style="fill-rule:nonzero;fill:#000;fill-opacity:1;stroke-width:.3985;stroke-linecap:butt;stroke-linejoin:miter;stroke:#000;stroke-opacity:1;stroke-miterlimit:10" d="M3.763 0C3.298.113 1.267.751 0 1.447v-2.893C1.267-.752 3.3-.113 3.762-.002Zm0 0" transform="matrix(-.49117 -.871 -.871 .49117 325.871 21.914)"/><path style="fill-rule:nonzero;fill:#000;fill-opacity:1;stroke-width:.3985;stroke-linecap:butt;stroke-linejoin:miter;stroke:#000;stroke-opacity:1;stroke-miterlimit:10" d="M3.762 0C3.3.112 1.267.75.002 1.445L0-1.448C1.27-.75 3.3-.112 3.762 0Zm0 0" transform="matrix(-.49117 .871 .871 .49117 325.871 184.012)"/><use xlink:href="#l" x="326.739" y="104.72" style="fill:#000;fill-opacity:1"/><g style="fill:#000;fill-opacity:1"><use xlink:href="#c" x="335.477" y="106.215"/><use xlink:href="#g" x="339.821" y="106.215"/></g><path style="fill:none;stroke-width:.398;stroke-linecap:butt;stroke-linejoin:miter;stroke:#000;stroke-opacity:1;stroke-miterlimit:10" d="M0 .002h18.226" transform="matrix(1 0 0 -1 326.739 107.689)"/></svg>
