<svg xmlns="http://www.w3.org/2000/svg" xmlns:xlink="http://www.w3.org/1999/xlink" width="429.336" height="342.707" viewBox="0 0 322.002 257.03"><defs><path id="a" d="M1.578-5.797V0H.891v-7.078h.578l4.64 5.906v-5.89h.704V0h-.657Zm0 0"/><path id="b" d="M3.078-7.078h.594L6.609 0h-.734l-.922-2.219H1.781L.875 0h-.75Zm1.719 4.312-1.422-3.5-1.453 3.5Zm0 0"/><path id="c" d="M6.203-1.828q-.001.532-.266.953a1.87 1.87 0 0 1-.718.64A2.1 2.1 0 0 1 4.234 0H.891v-7.078h3.406q.497.001.86.266c.238.18.421.406.546.687a1.92 1.92 0 0 1-.062 1.828q-.27.456-.75.672.608.175.953.672.359.487.36 1.125m-.687-.11q-.001-.357-.172-.656a1.3 1.3 0 0 0-.438-.5 1 1 0 0 0-.61-.203H1.579v2.688h2.656q.343 0 .625-.188.293-.186.47-.484a1.25 1.25 0 0 0 .187-.657m-3.938-4.53v2.609h2.438q.34 0 .609-.188.28-.187.438-.484c.101-.196.156-.407.156-.625q-.002-.358-.157-.657a1.16 1.16 0 0 0-.406-.468.94.94 0 0 0-.578-.188Zm0 0"/><path id="d" d="M.422-3.594c0-.426.07-.847.219-1.265Q.875-5.482 1.297-6a3 3 0 0 1 1.047-.812 3.25 3.25 0 0 1 1.437-.313q.936.002 1.61.438.684.44 1 1.109l-.547.344a2.14 2.14 0 0 0-.578-.735 2 2 0 0 0-.75-.39 2.6 2.6 0 0 0-.782-.125q-.644.002-1.125.25-.487.25-.828.672a3.1 3.1 0 0 0-.5.953q-.174.516-.172 1.062 0 .598.204 1.125.199.533.562.953.358.41.844.657c.32.167.672.25 1.047.25q.404 0 .812-.141a2.6 2.6 0 0 0 .781-.422c.25-.195.446-.453.594-.766l.578.313q-.22.515-.687.89a3.2 3.2 0 0 1-1.016.563 3.5 3.5 0 0 1-1.094.188Q2.998.065 2.391-.25a3.5 3.5 0 0 1-1.063-.828 3.9 3.9 0 0 1-.672-1.188 3.9 3.9 0 0 1-.234-1.328m0 0"/><path id="e" d="M2.11.094q-.58 0-1-.297A1.83 1.83 0 0 1 .468-1 2.6 2.6 0 0 1 .25-2.078q0-.607.234-1.188c.157-.382.368-.726.641-1.03q.406-.452.922-.72A2.4 2.4 0 0 1 3.14-5.28q.62.002 1.03.343.404.347.579.829l.672-3.172h.672L4.75-.891l-.031.079v.046c0 .118.066.172.203.172L4.782 0c-.055.008-.106.016-.157.016a.3.3 0 0 1-.125 0q-.223 0-.328-.11a.37.37 0 0 1-.11-.281v-.11q.013-.075.032-.202L4.172-1a3.1 3.1 0 0 1-.969.797A2.3 2.3 0 0 1 2.11.094M2.374-.5c.164 0 .344-.031.531-.094a2.8 2.8 0 0 0 .547-.281q.28-.17.485-.406.217-.247.312-.5l.328-1.61a1.3 1.3 0 0 0-.25-.656 1.6 1.6 0 0 0-.5-.469 1.3 1.3 0 0 0-.64-.171q-.456.001-.86.218a2.5 2.5 0 0 0-.703.594 3 3 0 0 0-.5.813 2.3 2.3 0 0 0-.172.874q-.002.471.172.86.186.375.5.61.329.22.75.218m0 0"/><path id="f" d="M2.39.078q-.456 0-.843-.172A2.1 2.1 0 0 1 .89-.562a2.2 2.2 0 0 1-.422-.688 2.2 2.2 0 0 1-.156-.844c0-.383.085-.738.265-1.062a2 2 0 0 1 .735-.766 1.96 1.96 0 0 1 1.062-.297c.414 0 .773.102 1.078.297q.45.283.719.766.265.487.266 1.062v.219H.874q.045.44.25.797.218.346.547.547.339.203.75.203.404 0 .765-.203.36-.218.5-.547l.47.125a1.5 1.5 0 0 1-.391.531 2.1 2.1 0 0 1-.625.375q-.345.124-.75.125M.86-2.266h3.062a1.7 1.7 0 0 0-.25-.796 1.46 1.46 0 0 0-.547-.532 1.46 1.46 0 0 0-1.484 0 1.6 1.6 0 0 0-.547.532q-.205.345-.235.796m0 0"/><path id="g" d="m.719-4.156 1.219 1.625.078.125.062-.125 1.203-1.625h.61L2.313-2.063 3.89 0h-.61L2.078-1.625l-.062-.11-.079.11L.734 0H.125l1.563-2.062L.125-4.156Zm0 0"/><path id="h" d="M2.594-.203a2 2 0 0 1-.203.094A2 2 0 0 1 2.063 0a1.7 1.7 0 0 1-.407.047q-.236 0-.437-.078A.8.8 0 0 1 .89-.297.77.77 0 0 1 .766-.75v-2.969H.203v-.437h.563v-1.39h.547v1.39h.953v.437h-.953v2.813c.007.156.062.273.156.344a.57.57 0 0 0 .343.109c.157 0 .29-.024.407-.078q.188-.075.234-.11Zm0 0"/><path id="p" d="M4.094 0h-.547v-2.312q0-.733-.219-1.079-.221-.341-.672-.343-.329.001-.64.156a1.9 1.9 0 0 0-.532.422c-.156.18-.273.383-.343.61V0H.594v-4.156h.5v.937q.169-.293.437-.515c.176-.157.38-.274.61-.36.226-.082.468-.125.718-.125q.342.001.579.125a1 1 0 0 1 .374.36q.14.234.204.562.077.33.078.735Zm0 0"/><path id="q" d="M.266-1.187c0-.258.07-.485.218-.672q.217-.295.61-.453c.27-.102.578-.157.922-.157.195 0 .406.024.625.063q.326.047.593.14v-.359c0-.344-.105-.617-.312-.828q-.315-.312-.86-.313-.344.001-.671.125-.316.127-.672.36l-.203-.39q.405-.266.797-.407.386-.14.796-.14.763.002 1.204.437.451.44.453 1.203v1.922q0 .112.046.172.047.045.157.046V0c-.063.008-.117.016-.156.016a.2.2 0 0 1-.094 0q-.206.001-.313-.125a.4.4 0 0 1-.094-.25l-.015-.313a1.86 1.86 0 0 1-.735.563 2.25 2.25 0 0 1-.89.187c-.274 0-.516-.058-.734-.172a1.4 1.4 0 0 1-.5-.453 1.2 1.2 0 0 1-.172-.64m2.78.312q.079-.107.126-.203.06-.107.062-.203v-.594a3 3 0 0 0-.578-.156 3 3 0 0 0-.578-.063q-.581 0-.937.235a.69.69 0 0 0-.36.625q-.001.236.11.437.124.204.359.344.232.127.547.125.389.002.719-.156c.226-.102.406-.235.53-.391m0 0"/><path id="i" d="M3.547 1.266V-.516H.234v-.593l3.532-4.578h.468v4.562h.875v.61h-.875v1.78ZM.953-1.125h2.672v-3.5Zm0 0"/><path id="l" d="M.438 0Q.437-.341.5-.687a2.6 2.6 0 0 1 .219-.672q.17-.34.5-.657.34-.311.875-.593.279-.154.594-.297.31-.14.578-.313.28-.186.437-.406a.83.83 0 0 0 .172-.531.94.94 0 0 0-.14-.485 1 1 0 0 0-.438-.39 1.6 1.6 0 0 0-.735-.157q-.314 0-.578.094-.27.093-.468.235a2.3 2.3 0 0 0-.328.265q-.14.127-.235.219l-.422-.469q.045-.06.219-.218a2.7 2.7 0 0 1 .438-.313q.28-.168.656-.297a2.6 2.6 0 0 1 .828-.125q.61 0 1.031.219.437.221.672.578.234.362.234.766c0 .28-.062.523-.187.718a1.9 1.9 0 0 1-.453.5q-.27.223-.563.375l-.531.266a5.5 5.5 0 0 0-.781.438q-.316.22-.516.437a2.2 2.2 0 0 0-.297.438 2.5 2.5 0 0 0-.14.437h3.578V0Zm0 0"/><path id="n" d="M3.422-2.36q.45.083.765.329.31.251.485.625.187.377.187.86c0 .398-.101.741-.296 1.046a1.85 1.85 0 0 1-.797.719 2.8 2.8 0 0 1-1.203.25q-.767-.001-1.329-.313A2.04 2.04 0 0 1 .375.313L.844-.11q.218.419.64.687.435.265 1.079.266.732 0 1.171-.36c.29-.242.438-.586.438-1.046q0-.669-.453-1.079-.456-.405-1.297-.406h-.25v-.578h.265c.508 0 .899-.117 1.172-.36q.422-.356.422-.906 0-.418-.187-.687a1.2 1.2 0 0 0-.516-.406 1.9 1.9 0 0 0-.75-.141q-.564.001-1 .266a1.6 1.6 0 0 0-.656.687l-.438-.406q.17-.357.485-.61.329-.264.75-.406.434-.14.922-.14.622.001 1.093.218c.313.149.555.356.735.625q.264.393.265.938-.002.394-.156.734-.159.345-.453.578a1.5 1.5 0 0 1-.703.282m0 0"/><path id="o" d="M.89 0v-7.078h2.985q.47 0 .844.187.375.188.656.516.28.33.438.719c.101.261.156.527.156.797q-.002.516-.203.968a2.05 2.05 0 0 1-.547.75q-.347.314-.828.407L6.125 0h-.781L3.672-2.61H1.578V0Zm.688-3.234h2.313c.28 0 .523-.07.734-.22q.31-.233.484-.608a1.9 1.9 0 0 0 .172-.797q-.002-.421-.203-.782a1.5 1.5 0 0 0-.516-.593 1.3 1.3 0 0 0-.718-.22H1.578Zm0 0"/><path id="m" d="M2.64-3.719h1.126c-.328 1.469-.422 1.906-.422 2.578 0 .141 0 .407.078.75.11.438.219.5.36.5.202 0 .421-.171.421-.375 0-.062 0-.078-.062-.218-.297-.72-.297-1.375-.297-1.657 0-.515.078-1.062.187-1.578h1.125c.14 0 .5 0 .5-.344 0-.234-.218-.234-.406-.234H1.906c-.218 0-.593 0-1.031.469-.344.39-.61.844-.61.89 0 .016 0 .11.126.11.078 0 .093-.047.156-.125.484-.766 1.062-.766 1.265-.766h.563c-.312 1.203-.844 2.407-1.266 3.313-.078.156-.078.172-.078.25 0 .187.157.265.282.265.296 0 .375-.28.5-.64.14-.469.14-.485.265-.985Zm0 0"/><clipPath id="j"><path d="M8 11h149v246.031H8Zm0 0"/></clipPath><clipPath id="k"><path d="M145 248h16v9.031h-16Zm0 0"/></clipPath></defs><path fill="#fff" d="M-.004 257.027V-.003h322.008v257.03Zm0 0"/><path d="M157.184 113.582A1.417 1.417 0 1 0 155.77 115c.78 0 1.414-.633 1.414-1.418m0 0"/><use xlink:href="#a" x="144.557" y="124.179"/><path fill="none" stroke="#000" stroke-miterlimit="10" stroke-width=".399" d="M184.113 113.582c0-15.656-12.691-28.348-28.343-28.348-15.657 0-28.348 12.692-28.348 28.348s12.691 28.348 28.348 28.348c15.652 0 28.343-12.692 28.343-28.348Zm0 0"/><path fill="none" stroke="#000" stroke-miterlimit="10" stroke-width=".399" d="M181.281 113.582c0-14.09-11.422-25.512-25.511-25.512-14.09 0-25.512 11.422-25.512 25.512s11.422 25.512 25.512 25.512 25.511-11.422 25.511-25.512Zm0 0"/><path d="M107.074 63.473a1.418 1.418 0 1 0-2.836 0 1.418 1.418 0 0 0 2.836 0m0 0"/><use xlink:href="#b" x="102.291" y="74.069"/><path fill="none" stroke="#000" stroke-miterlimit="10" stroke-width=".399" d="M148.18 63.473c0-23.485-19.04-42.52-42.524-42.52-23.48 0-42.52 19.035-42.52 42.52 0 23.484 19.04 42.52 42.52 42.52 23.485 0 42.524-19.036 42.524-42.52Zm0 0"/><path fill="none" stroke="#000" stroke-miterlimit="10" stroke-width=".399" d="M145.344 63.473c0-21.918-17.77-39.688-39.688-39.688s-39.683 17.77-39.683 39.688 17.765 39.683 39.683 39.683 39.688-17.765 39.688-39.683Zm0 0"/><path d="M207.297 63.473a1.418 1.418 0 1 0-2.836 0 1.418 1.418 0 0 0 2.836 0m0 0"/><use xlink:href="#c" x="209.398" y="67.012"/><path fill="none" stroke="#000" stroke-miterlimit="10" stroke-width=".399" d="M248.398 63.473c0-23.485-19.035-42.52-42.52-42.52-23.483 0-42.519 19.035-42.519 42.52 0 23.484 19.036 42.52 42.52 42.52s42.52-19.036 42.52-42.52Zm0 0"/><path fill="none" stroke="#000" stroke-miterlimit="10" stroke-width=".399" d="M245.563 63.473c0-21.918-17.766-39.688-39.684-39.688s-39.688 17.77-39.688 39.688 17.77 39.683 39.688 39.683 39.684-17.765 39.684-39.683Zm0 0"/><path d="M157.184 184.45a1.417 1.417 0 1 0-1.414 1.417c.78 0 1.414-.637 1.414-1.418m0 0"/><use xlink:href="#d" x="145.414" y="187.978"/><path fill="none" stroke="#000" stroke-miterlimit="10" stroke-width=".399" d="M198.29 184.45c0-23.485-19.04-42.52-42.52-42.52-23.485 0-42.524 19.035-42.524 42.52 0 23.484 19.04 42.519 42.524 42.519 23.48 0 42.52-19.035 42.52-42.52Zm0 0"/><path fill="none" stroke="#000" stroke-miterlimit="10" stroke-width=".399" d="M195.453 184.45c0-21.919-17.766-39.684-39.683-39.684s-39.688 17.765-39.688 39.683 17.77 39.688 39.688 39.688c21.917 0 39.683-17.77 39.683-39.688Zm0 0"/><path fill="none" stroke="#000" stroke-dasharray="2.98883 2.98883" stroke-miterlimit="10" stroke-width=".399" d="M269.156 113.582C269.156 50.961 218.391.195 155.77.195 93.145.195 42.379 50.961 42.379 113.582c0 62.625 50.766 113.387 113.39 113.387 62.622 0 113.387-50.762 113.387-113.387Zm0 0"/><path fill="none" stroke="#000" stroke-miterlimit="10" stroke-width=".399" d="M297.504 222.387V4.777"/><path stroke="#000" stroke-miterlimit="10" stroke-width=".399" d="M297.504 226.148c.11-.46.75-2.492 1.445-3.761h-2.894c.695 1.27 1.336 3.3 1.449 3.761Zm0-225.132c-.113.464-.754 2.492-1.45 3.761h2.895c-.695-1.27-1.336-3.297-1.445-3.761Zm0 0"/><use xlink:href="#e" x="301.02" y="116.12"/><use xlink:href="#f" x="306.978" y="118.244"/><use xlink:href="#g" x="311.497" y="118.244"/><use xlink:href="#h" x="315.514" y="118.244"/><path fill="none" stroke="#000" stroke-dasharray="2.98883 2.98883" stroke-miterlimit="10" stroke-width=".399" d="M155.77.195h141.734M155.77 226.969h141.734"/><path fill="none" stroke="#000" stroke-miterlimit="10" stroke-width=".399" d="m159.008 110.344 43.629-43.633"/><path stroke="#000" stroke-miterlimit="10" stroke-width=".399" d="M156.348 113c.406-.246 2.293-1.23 3.683-1.637l-2.047-2.043c-.406 1.387-1.386 3.274-1.636 3.68Zm48.949-48.945c-.406.246-2.293 1.23-3.684 1.636l2.047 2.043c.406-1.386 1.39-3.273 1.637-3.68Zm0 0"/><use xlink:href="#e" x="177.003" y="65.16"/><use xlink:href="#f" x="182.961" y="67.284"/><use xlink:href="#g" x="187.48" y="67.284"/><use xlink:href="#h" x="191.497" y="67.284"/><path fill="none" stroke="#000" stroke-miterlimit="10" stroke-width=".398" d="M177.004 69.41h17.66"/><use xlink:href="#i" x="183.114" y="78.734"/><path fill="none" stroke="#000" stroke-dasharray="2.98883 2.98883" stroke-miterlimit="10" stroke-width=".399" d="M155.77 113.582v141.734m0-141.734L55.547 13.363"/><g clip-path="url(#j)"><path fill="none" stroke="#000" stroke-miterlimit="10" stroke-width=".399" d="M52.36 16.652C.218 72.211 1.28 159.54 55.546 213.805a141.76 141.76 0 0 0 95.64 41.437"/></g><path stroke="#000" stroke-miterlimit="10" stroke-width=".399" d="M54.977 13.953c-.403.254-2.274 1.266-3.657 1.695l2.078 2.012c.383-1.394 1.336-3.297 1.579-3.707Zm0 0"/><path d="M154.945 255.305c-.457-.121-2.476-.797-3.734-1.512l-.05 2.894c1.28-.675 3.323-1.28 3.784-1.382m0 0"/><g clip-path="url(#k)"><path fill="none" stroke="#000" stroke-miterlimit="10" stroke-width=".399" d="M154.945 255.305c-.457-.121-2.476-.797-3.734-1.512l-.05 2.894c1.28-.675 3.323-1.28 3.784-1.382Zm0 0"/></g><use xlink:href="#l" x="8.888" y="177.129"/><use xlink:href="#m" x="14.078" y="177.129"/><path fill="none" stroke="#000" stroke-miterlimit="10" stroke-width=".398" d="M8.887 181.379h11.226"/><use xlink:href="#n" x="11.841" y="190.702"/><path fill="none" stroke="#000" stroke-miterlimit="10" stroke-width=".399" d="m159.008 116.824 11.558 11.559"/><path stroke="#000" stroke-miterlimit="10" stroke-width=".399" d="M156.348 114.164c.25.406 1.23 2.293 1.636 3.684l2.047-2.047c-1.39-.406-3.277-1.39-3.683-1.637Zm16.879 16.876c-.247-.407-1.23-2.294-1.637-3.68l-2.047 2.042c1.39.407 3.277 1.391 3.684 1.637Zm0 0"/><use xlink:href="#o" x="168.308" y="117.591"/><use xlink:href="#p" x="174.813" y="119.085"/><path fill="none" stroke="#000" stroke-miterlimit="10" stroke-width=".399" d="M102.418 66.71 80.836 88.294"/><path stroke="#000" stroke-miterlimit="10" stroke-width=".399" d="M105.078 64.055c-.406.246-2.297 1.23-3.683 1.636l2.046 2.043c.403-1.386 1.387-3.273 1.637-3.68ZM78.176 90.953c.406-.246 2.293-1.23 3.683-1.637l-2.047-2.046c-.406 1.39-1.39 3.277-1.636 3.683Zm0 0"/><use xlink:href="#o" x="76.761" y="72.412"/><use xlink:href="#q" x="83.266" y="73.907"/></svg>
