<svg xmlns="http://www.w3.org/2000/svg" xmlns:xlink="http://www.w3.org/1999/xlink" width="647.436" height="378.484" viewBox="0 0 485.577 283.863"><defs><path id="b" d="M5.11 0h-.673v-2.906q0-.905-.28-1.328-.27-.437-.844-.438a1.7 1.7 0 0 0-.782.203 2.1 2.1 0 0 0-.687.532 2.2 2.2 0 0 0-.422.75V0H.75v-5.187h.61v1.171q.217-.375.546-.656c.227-.195.485-.348.766-.453q.434-.155.89-.156.436.002.735.156.292.159.469.453c.125.2.21.438.265.719q.077.409.078.906Zm0 0"/><path id="c" d="M.328-1.5q0-.482.281-.828a1.75 1.75 0 0 1 .766-.547q.497-.201 1.14-.203.387.002.797.062.404.066.72.172v-.437c0-.438-.134-.785-.391-1.047q-.376-.388-1.063-.39a2.3 2.3 0 0 0-.828.155 4.3 4.3 0 0 0-.844.454l-.265-.47a4.4 4.4 0 0 1 1-.53 3.1 3.1 0 0 1 1-.172c.632 0 1.14.183 1.515.547q.563.549.563 1.515v2.407c0 .093.015.164.047.203q.06.065.203.078V0c-.074.008-.14.016-.203.016a.24.24 0 0 1-.11 0 .48.48 0 0 1-.516-.469l-.015-.39q-.344.456-.906.702a3 3 0 0 1-1.14.235 2 2 0 0 1-.907-.203 1.7 1.7 0 0 1-.625-.578A1.56 1.56 0 0 1 .328-1.5m3.485.406q.106-.139.156-.265a.7.7 0 0 0 .062-.235v-.765a4 4 0 0 0-.703-.188 3.5 3.5 0 0 0-.719-.078c-.492 0-.886.102-1.187.297q-.439.282-.438.781 0 .3.141.547.155.252.438.422.293.157.687.156c.32 0 .625-.062.906-.187q.422-.187.656-.485m0 0"/><path id="d" d="M3.297.094a2.2 2.2 0 0 1-1.14-.313A2.3 2.3 0 0 1 1.358-1v1H.75v-7.281h.672v3.172a3 3 0 0 1 .844-.844c.32-.219.703-.328 1.14-.328q.547 0 .969.234.435.223.75.61.31.377.469.859c.101.324.156.656.156 1q0 .55-.187 1.031A2.6 2.6 0 0 1 4.25-.109a2.3 2.3 0 0 1-.953.203M3.125-.5q.42.002.781-.172.358-.17.61-.469.264-.294.406-.671.14-.374.14-.766 0-.545-.234-1.031a2.03 2.03 0 0 0-.656-.782 1.62 1.62 0 0 0-.969-.296 1.5 1.5 0 0 0-.734.187q-.345.175-.61.469-.269.3-.437.64v1.61q.046.281.203.515.17.236.422.407.265.159.547.265.28.094.531.094m0 0"/><path id="e" d="M3 .094c-.375 0-.727-.07-1.047-.203a2.7 2.7 0 0 1-.828-.594 3 3 0 0 1-.547-.875A2.8 2.8 0 0 1 .391-2.61q0-.734.328-1.344.328-.607.906-.969.592-.359 1.36-.36c.488 0 .913.118 1.28.345q.564.327.844.89l-.656.203a1.6 1.6 0 0 0-.625-.61 1.7 1.7 0 0 0-.875-.234q-.518 0-.953.282c-.281.18-.508.422-.672.734q-.251.47-.25 1.063-.001.58.25 1.062.264.485.688.766.435.28.953.281.34.001.656-.11a1.9 1.9 0 0 0 .547-.327 1 1 0 0 0 .312-.454l.672.204q-.14.377-.468.671-.331.283-.766.454C3.64.039 3.332.094 3 .094m0 0"/><path id="f" d="M1.64-7.281h.673l-.704 3.265a3.3 3.3 0 0 1 1.016-.921 2.4 2.4 0 0 1 1.203-.344q.42 0 .688.172.262.158.375.453.124.298.125.703-.001.187-.032.422a3 3 0 0 1-.078.484L4.266 0h-.672l.61-2.906q.044-.218.062-.406.03-.188.03-.344 0-.498-.218-.75-.204-.265-.625-.266-.363.002-.75.203a2.8 2.8 0 0 0-.719.532q-.346.327-.546.75L.766 0H.094Zm0 0"/><path id="g" d="M1.578-5.797V0H.891v-7.078h.578l4.64 5.906v-5.89h.704V0h-.657Zm0 0"/><path id="h" d="M2.984.094q-.55-.002-1.03-.203a2.45 2.45 0 0 1-.829-.594 2.9 2.9 0 0 1-.547-.86 2.9 2.9 0 0 1-.187-1.046q0-.734.328-1.344.34-.607.922-.969.592-.359 1.343-.36c.508 0 .954.126 1.329.376.382.242.687.562.906.968q.328.598.328 1.313v.266H1.094q.045.564.312 1 .265.44.688.687.42.251.922.25.513.001.968-.25.45-.265.625-.687l.594.156q-.157.376-.484.672-.329.298-.782.469a2.9 2.9 0 0 1-.953.156M1.078-2.844h3.844a2.2 2.2 0 0 0-.313-.984 1.9 1.9 0 0 0-.687-.672 1.83 1.83 0 0 0-.938-.25c-.336 0-.64.086-.921.25a1.86 1.86 0 0 0-.688.672q-.269.422-.297.984m0 0"/><path id="i" d="M.703-2.14v-3.047h.672v2.921c0 .594.098 1.04.297 1.329q.31.438.906.437.406.002.781-.172.376-.17.657-.5a2.1 2.1 0 0 0 .437-.75v-3.266h.688v4.376c0 .093.015.164.046.203q.06.065.188.078V0c-.086.008-.152.016-.203.016h-.125a.58.58 0 0 1-.344-.157.47.47 0 0 1-.14-.343l-.032-.688a2.4 2.4 0 0 1-.922.938 2.5 2.5 0 0 1-1.25.328c-.554 0-.968-.188-1.25-.563Q.701-1.029.703-2.14m0 0"/><path id="j" d="m3.234-.25-.25.11a1.8 1.8 0 0 1-.406.14q-.234.062-.515.063c-.188 0-.372-.04-.547-.11a.9.9 0 0 1-.407-.328 1.1 1.1 0 0 1-.14-.562v-3.72H.25v-.53h.719v-1.766h.672v1.766h1.203v.53H1.64v3.532q.029.282.203.422.187.14.422.14.28 0 .515-.093.234-.095.281-.14Zm0 0"/><path id="k" d="M3.344-4.594q-.69.018-1.203.375-.503.363-.72.985V0H.75v-5.187h.64v1.234q.263-.545.704-.875c.3-.227.617-.36.953-.39h.297Zm0 0"/><path id="l" d="M.328-1.5q0-.482.281-.828a1.75 1.75 0 0 1 .766-.547q.497-.201 1.14-.203.387.002.797.062.404.066.72.172v-.437c0-.438-.134-.785-.391-1.047q-.376-.388-1.063-.39a2.3 2.3 0 0 0-.828.155 4.3 4.3 0 0 0-.844.454l-.265-.47a4.4 4.4 0 0 1 1-.53 3.1 3.1 0 0 1 1-.172c.632 0 1.14.183 1.515.547q.563.549.563 1.515v2.407c0 .093.015.164.047.203q.06.065.203.078V0c-.074.008-.14.016-.203.016a.24.24 0 0 1-.11 0 .48.48 0 0 1-.516-.469l-.015-.39q-.344.456-.906.702a3 3 0 0 1-1.14.235 2 2 0 0 1-.907-.203 1.7 1.7 0 0 1-.625-.578A1.56 1.56 0 0 1 .328-1.5m3.485.406q.106-.139.156-.265a.7.7 0 0 0 .062-.235v-.765a4 4 0 0 0-.703-.188 3.5 3.5 0 0 0-.719-.078c-.492 0-.886.102-1.187.297q-.439.282-.438.781 0 .3.141.547.155.252.438.422.293.157.687.156c.32 0 .625-.062.906-.187q.422-.187.656-.485m0 0"/><path id="m" d="M.781-7.281h.672v6.11q0 .391.14.515.141.11.345.11.168.001.343-.032.188-.047.328-.094l.11.547A2 2 0 0 1 2.25 0q-.27.062-.469.063c-.304 0-.547-.086-.734-.266Q.779-.485.78-.953Zm0 0"/><path id="n" d="M3 .094c-.375 0-.727-.07-1.047-.203a2.7 2.7 0 0 1-.828-.594 3 3 0 0 1-.547-.875A2.8 2.8 0 0 1 .391-2.61q0-.734.328-1.344.328-.607.906-.969.592-.359 1.36-.36c.488 0 .913.118 1.28.345q.564.327.844.89l-.656.203a1.6 1.6 0 0 0-.625-.61 1.7 1.7 0 0 0-.875-.234q-.518 0-.953.282c-.281.18-.508.422-.672.734q-.251.47-.25 1.063-.001.58.25 1.062.264.485.688.766.435.28.953.281.34.001.656-.11a1.9 1.9 0 0 0 .547-.327 1 1 0 0 0 .312-.454l.672.204q-.14.377-.468.671-.331.283-.766.454C3.64.039 3.332.094 3 .094m0 0"/><path id="o" d="M2.953.094Q2.403.092 1.922-.11a2.5 2.5 0 0 1-.813-.594A2.77 2.77 0 0 1 .39-2.578q0-.562.188-1.047c.125-.32.3-.61.531-.86q.359-.373.829-.577a2.4 2.4 0 0 1 1.03-.22q.564.001 1.032.22.468.204.813.578c.226.25.406.539.53.859a2.73 2.73 0 0 1 0 2.063 2.7 2.7 0 0 1-.53.859Q4.468-.326 4-.11a2.7 2.7 0 0 1-1.047.203M1.078-2.578q-.001.581.25 1.062.248.47.672.75.437.268.953.266.53 0 .953-.281.436-.281.688-.766a2.15 2.15 0 0 0 .265-1.047q-.001-.576-.265-1.047a2 2 0 0 0-.688-.765 1.7 1.7 0 0 0-.953-.282 1.6 1.6 0 0 0-.937.297 2.14 2.14 0 0 0-.688.766q-.251.471-.25 1.047m0 0"/><path id="p" d="M5.11 0h-.673v-2.906q0-.905-.28-1.328-.27-.437-.844-.438a1.7 1.7 0 0 0-.782.203 2.1 2.1 0 0 0-.687.532 2.2 2.2 0 0 0-.422.75V0H.75v-5.187h.61v1.171q.217-.375.546-.656c.227-.195.485-.348.766-.453q.434-.155.89-.156.436.002.735.156.292.159.469.453c.125.2.21.438.265.719q.077.409.078.906Zm0 0"/><path id="q" d="M.406-2.578q0-.734.297-1.344.294-.621.828-.984.545-.375 1.235-.375.656.002 1.172.343.515.347.796.829v-3.172h.672v6.469c0 .093.02.164.063.203q.058.065.187.078V0q-.205.028-.312.016A.537.537 0 0 1 4.812-.5V-1q-.316.504-.843.797-.518.299-1.094.297-.533 0-.984-.219a2.5 2.5 0 0 1-.797-.594 2.9 2.9 0 0 1-.516-.86 2.9 2.9 0 0 1-.172-1m4.328.797v-1.61a1.8 1.8 0 0 0-.421-.656 2.2 2.2 0 0 0-.657-.469 1.69 1.69 0 0 0-1.484 0 1.8 1.8 0 0 0-.578.485q-.236.298-.375.672c-.086.25-.125.511-.125.78q0 .423.14.798.153.377.422.672.264.3.61.453.356.157.765.156.263 0 .531-.094.281-.105.532-.281.264-.17.422-.406.17-.247.218-.5m0 0"/><path id="r" d="M.89 0v-7.078h2.923q.468 0 .843.187c.258.125.485.297.672.516q.28.33.438.719c.101.261.156.527.156.797q-.001.579-.266 1.093a2.24 2.24 0 0 1-.703.844q-.457.315-1.078.313H1.578V0Zm.688-3.234h2.266c.281 0 .523-.07.734-.22a1.46 1.46 0 0 0 .469-.593q.17-.374.172-.812-.002-.434-.203-.797a1.4 1.4 0 0 0-.516-.578 1.3 1.3 0 0 0-.719-.22H1.578Zm0 0"/><path id="s" d="M5.11 0h-.673v-2.906q0-.873-.312-1.313-.316-.452-.89-.453-.375.002-.75.203-.376.19-.657.532a2 2 0 0 0-.406.75V0H.75v-7.281h.672v3.265q.31-.575.86-.921.56-.342 1.187-.344.45.002.765.156.311.158.5.469.2.298.282.703.093.409.093.906Zm0 0"/><path id="t" d="M2.453.094Q1.81.092 1.266-.11a2.4 2.4 0 0 1-.953-.64l.28-.469a3 3 0 0 0 .876.594q.45.174.953.172.609 0 .984-.234a.79.79 0 0 0 .375-.704q0-.31-.187-.468-.176-.17-.516-.282-.346-.106-.828-.218a8 8 0 0 1-.906-.313 1.4 1.4 0 0 1-.547-.422q-.174-.248-.172-.672-.001-.499.25-.828.247-.34.688-.515.449-.171 1-.172.59 0 1.046.187.47.19.75.532l-.328.453a1.7 1.7 0 0 0-.656-.47 2.4 2.4 0 0 0-.86-.155q-.315 0-.609.093a1 1 0 0 0-.468.282q-.188.188-.188.515 0 .283.14.438.141.159.423.265.279.095.687.22.592.157 1.031.327.437.158.672.422c.164.18.25.418.25.719q0 .737-.562 1.14c-.368.274-.844.407-1.438.407m0 0"/><path id="u" d="M.89 0v-7.078h.688V0Zm0 0"/><path id="v" d="M3.734.047A3 3 0 0 1 2.406-.25a3.5 3.5 0 0 1-1.062-.828 3.9 3.9 0 0 1-.688-1.156 3.8 3.8 0 0 1-.234-1.313q0-.715.234-1.36a3.8 3.8 0 0 1 .688-1.14q.434-.5 1.031-.781a3 3 0 0 1 1.313-.297q1.044.002 1.703.438.655.422 1 1.109l-.532.36q-.346-.655-.921-.97A2.6 2.6 0 0 0 3.672-6.5c-.387 0-.742.086-1.063.25-.312.168-.586.39-.812.672q-.328.423-.516.953-.174.517-.172 1.094 0 .597.204 1.125.199.532.562.953.374.408.86.64.482.235 1.046.235Q4.42-.576 5-.891q.575-.325 1.11-1.015v.734Q5.105.048 3.733.047M6-2.937H4.422v-.547h2.172V0H6Zm0 0"/><path id="w" d="M.75 0v-5.187h.672V0Zm0-6.281v-1h.672v1Zm0 0"/><path id="x" d="M1-4.656H.281v-.532H1v-.14c0-.25.035-.492.11-.734q.106-.359.327-.657.234-.293.579-.468c.226-.125.5-.188.812-.188q.375 0 .656.078.294.082.516.188.233.11.344.203l-.313.484q-.156-.14-.484-.25a2.1 2.1 0 0 0-.672-.11q-.423.001-.687.22-.27.22-.391.546a1.8 1.8 0 0 0-.125.657v.172h2.61V0h-.688v-4.656H1.672V0H1Zm0 0"/><path id="y" d="M.438-3.453c0-.676.132-1.332.406-1.969q.404-.965.984-1.937l.531.234q-.203.315-.437.75-.224.439-.422.938-.188.504-.312 1.03a4.7 4.7 0 0 0-.11.985q0 .785.328 1.703.34.91.938 1.813l-.516.281a17 17 0 0 1-.734-1.266 7 7 0 0 1-.485-1.28 5 5 0 0 1-.171-1.282m0 0"/><path id="z" d="M3.406.094q-.656 0-1.172-.328a2.54 2.54 0 0 1-.812-.844v3.203H.75v-7.312h.61v1q.31-.482.827-.782a2.1 2.1 0 0 1 1.11-.312q.528 0 .969.234c.3.149.562.344.78.594q.341.377.516.86.188.484.188 1c0 .491-.102.937-.297 1.343a2.6 2.6 0 0 1-.828.984c-.344.243-.75.36-1.219.36M3.203-.5q.436.002.766-.172.34-.17.594-.469.246-.31.375-.671a2.5 2.5 0 0 0 .125-.782 2.3 2.3 0 0 0-.141-.797 1.8 1.8 0 0 0-.422-.656 2.1 2.1 0 0 0-.625-.469 1.7 1.7 0 0 0-.75-.171q-.251.002-.531.109a1.96 1.96 0 0 0-.969.703 1.2 1.2 0 0 0-.203.469v1.61q.152.362.422.655.28.3.625.47.358.173.734.171m0 0"/><path id="A" d="M2.234-3.453q0 .626-.171 1.281-.175.644-.5 1.281-.316.627-.72 1.266l-.5-.281a10 10 0 0 0 .923-1.813c.226-.613.343-1.18.343-1.703q-.001-.468-.125-.984a8 8 0 0 0-.328-1.032 10 10 0 0 0-.406-.937 7 7 0 0 0-.437-.75l.53-.234q.576.971.985 1.937.406.955.406 1.969m0 0"/><clipPath id="a"><path d="M0 0h284v283.863H0Zm0 0"/></clipPath><clipPath id="B"><path d="M324 70h161.578v145H324Zm0 0"/></clipPath></defs><path fill="#fff" d="M-.004 283.867V0h485.586v283.867Zm0 0"/><g clip-path="url(#a)"><path fill="#a9a9a9" stroke="#a9a9a9" stroke-miterlimit="10" stroke-width=".399" d="M.195 283.668V.199h283.47v283.469Zm0 0"/></g><path fill="#fff" stroke="#000" stroke-miterlimit="10" stroke-width=".399" d="M269.492 141.934c0-70.454-57.11-127.563-127.562-127.563-70.45 0-127.559 57.11-127.559 127.563 0 70.449 57.11 127.558 127.559 127.558 70.453 0 127.562-57.11 127.562-127.558Zm0 0"/><path fill="#adb9cb" stroke="#000" stroke-miterlimit="10" stroke-width=".399" d="M241.145 170.277c0-54.793-44.418-99.21-99.215-99.21-54.793 0-99.211 44.417-99.211 99.21 0 54.797 44.418 99.215 99.21 99.215 54.798 0 99.216-44.418 99.216-99.215Zm0 0"/><path d="M143.348 170.277c0-.78-.633-1.414-1.418-1.414a1.417 1.417 0 1 0 1.418 1.414m0 0"/><path fill="red" stroke="#000" stroke-miterlimit="10" stroke-width=".399" d="M132.367 135.203c0-14.09-11.422-25.512-25.512-25.512s-25.511 11.422-25.511 25.512 11.422 25.512 25.511 25.512c14.09 0 25.512-11.422 25.512-25.512Zm0 0"/><path fill="#fff" stroke="#000" stroke-miterlimit="10" stroke-width=".399" d="M115.469 135.203a8.615 8.615 0 0 0-8.614-8.613 8.61 8.61 0 0 0-8.613 8.613 8.615 8.615 0 0 0 8.613 8.613c4.754 0 8.614-3.859 8.614-8.613Zm0 0"/><use xlink:href="#b" x="103.951" y="137.841"/><path fill="#cad40e" stroke="#000" stroke-miterlimit="10" stroke-width=".399" d="M138.035 205.355c0-17.222-13.96-31.18-31.18-31.18-17.222 0-31.183 13.958-31.183 31.18s13.96 31.184 31.183 31.184c17.22 0 31.18-13.96 31.18-31.184Zm0 0"/><path fill="#fff" stroke="#000" stroke-miterlimit="10" stroke-width=".399" d="M115.344 205.355a8.49 8.49 0 0 0-8.489-8.488 8.49 8.49 0 0 0-8.492 8.488 8.49 8.49 0 0 0 8.492 8.489 8.49 8.49 0 0 0 8.489-8.489Zm0 0"/><use xlink:href="#c" x="104.14" y="207.945"/><path fill="#cad40e" stroke="#000" stroke-miterlimit="10" stroke-width=".399" d="M208.191 205.355c0-17.222-13.96-31.18-31.183-31.18s-31.18 13.958-31.18 31.18 13.957 31.184 31.18 31.184 31.183-13.96 31.183-31.184Zm0 0"/><path fill="#fff" stroke="#000" stroke-miterlimit="10" stroke-width=".399" d="M186.5 205.355c0-5.242-4.25-9.488-9.492-9.488s-9.492 4.246-9.492 9.488a9.492 9.492 0 0 0 18.984 0Zm0 0"/><use xlink:href="#d" x="173.935" y="208.941"/><path fill="#cad40e" stroke="#000" stroke-miterlimit="10" stroke-width=".399" d="M208.191 135.203c0-17.223-13.96-31.183-31.183-31.183s-31.18 13.96-31.18 31.183c0 17.219 13.957 31.18 31.18 31.18s31.183-13.961 31.183-31.18Zm0 0"/><path fill="#fff" stroke="#000" stroke-miterlimit="10" stroke-width=".399" d="M185.523 135.203a8.516 8.516 0 1 0-17.03 0 8.516 8.516 0 1 0 17.03 0Zm0 0"/><use xlink:href="#e" x="174.273" y="137.792"/><path fill="none" stroke="#000" stroke-miterlimit="10" stroke-width=".399" d="M297.84 165.695V4.781"/><path stroke="#000" stroke-miterlimit="10" stroke-width=".399" d="M297.84 169.457c.11-.46.75-2.492 1.445-3.762h-2.894c.695 1.27 1.336 3.301 1.449 3.762Zm0-168.437c-.113.46-.754 2.492-1.45 3.761h2.895c-.695-1.27-1.336-3.3-1.445-3.761Zm0 0"/><use xlink:href="#f" x="301.357" y="88.875"/><path fill="none" stroke="#000" stroke-dasharray="2.98883 2.98883" stroke-miterlimit="10" stroke-width=".399" d="M283.664.2h14.176M141.93 170.277h155.91"/><path fill="red" d="M347.445 85.238a7.085 7.085 0 0 0-7.086-7.086 7.085 7.085 0 0 0-7.086 7.086 7.085 7.085 0 0 0 7.086 7.086 7.085 7.085 0 0 0 7.086-7.086m0 0"/><use xlink:href="#g" x="352.38" y="88.825"/><use xlink:href="#h" x="359.991" y="88.825"/><use xlink:href="#i" x="365.84" y="88.825"/><use xlink:href="#j" x="371.757" y="88.825"/><use xlink:href="#k" x="375.095" y="88.825"/><use xlink:href="#l" x="378.572" y="88.825"/><use xlink:href="#m" x="384.001" y="88.825"/><use xlink:href="#n" x="388.953" y="88.825"/><use xlink:href="#o" x="394.373" y="88.825"/><use xlink:href="#p" x="400.3" y="88.825"/><use xlink:href="#q" x="406.109" y="88.825"/><use xlink:href="#i" x="412.305" y="88.825"/><use xlink:href="#n" x="418.223" y="88.825"/><use xlink:href="#j" x="423.693" y="88.825"/><use xlink:href="#o" x="426.94" y="88.825"/><use xlink:href="#k" x="432.868" y="88.825"/><path fill="#cad40e" d="M347.445 113.586a7.085 7.085 0 0 0-7.086-7.086 7.085 7.085 0 0 0-7.086 7.086 7.085 7.085 0 0 0 7.086 7.086 7.085 7.085 0 0 0 7.086-7.086m0 0"/><use xlink:href="#r" x="352.38" y="117.172"/><use xlink:href="#s" x="358.577" y="117.172"/><use xlink:href="#l" x="364.385" y="117.172"/><use xlink:href="#t" x="369.815" y="117.172"/><use xlink:href="#h" x="374.627" y="117.172"/><use xlink:href="#n" x="383.015" y="117.172"/><use xlink:href="#o" x="388.435" y="117.172"/><use xlink:href="#p" x="394.363" y="117.172"/><use xlink:href="#q" x="400.171" y="117.172"/><use xlink:href="#i" x="406.368" y="117.172"/><use xlink:href="#n" x="412.285" y="117.172"/><use xlink:href="#j" x="417.755" y="117.172"/><use xlink:href="#o" x="421.003" y="117.172"/><use xlink:href="#k" x="426.93" y="117.172"/><path fill="#adb9cb" stroke="#000" stroke-miterlimit="10" stroke-width=".399" d="M347.445 141.934a7.09 7.09 0 0 0-7.086-7.09 7.088 7.088 0 0 0 0 14.176 7.085 7.085 0 0 0 7.086-7.086Zm0 0"/><use xlink:href="#u" x="352.38" y="145.518"/><use xlink:href="#p" x="354.851" y="145.518"/><use xlink:href="#t" x="360.659" y="145.518"/><use xlink:href="#i" x="365.471" y="145.518"/><use xlink:href="#m" x="371.389" y="145.518"/><use xlink:href="#l" x="374.099" y="145.518"/><use xlink:href="#j" x="379.488" y="145.518"/><use xlink:href="#o" x="382.736" y="145.518"/><use xlink:href="#k" x="388.664" y="145.518"/><path fill="#a9a9a9" stroke="#a9a9a9" stroke-miterlimit="10" stroke-width=".399" d="M333.273 177.367v-14.176h14.172v14.176Zm0 0"/><use xlink:href="#v" x="352.38" y="173.864"/><use xlink:href="#k" x="359.513" y="173.864"/><use xlink:href="#o" x="362.851" y="173.864"/><use xlink:href="#i" x="368.779" y="173.864"/><use xlink:href="#p" x="374.696" y="173.864"/><use xlink:href="#q" x="380.505" y="173.864"/><path fill="#fff" stroke="#000" stroke-miterlimit="10" stroke-width=".399" d="M348.848 198.625a8.489 8.489 0 1 0-16.978.001 8.489 8.489 0 0 0 16.978-.001Zm0 0"/><use xlink:href="#c" x="337.642" y="201.215"/><use xlink:href="#u" x="352.38" y="201.25"/><use xlink:href="#q" x="354.781" y="201.25"/><use xlink:href="#h" x="360.978" y="201.25"/><use xlink:href="#p" x="366.826" y="201.25"/><use xlink:href="#j" x="372.584" y="201.25"/><use xlink:href="#w" x="375.922" y="201.25"/><use xlink:href="#x" x="378.094" y="201.25"/><use xlink:href="#h" x="383.115" y="201.25"/><use xlink:href="#k" x="388.963" y="201.25"/><use xlink:href="#y" x="394.771" y="201.25"/><use xlink:href="#z" x="397.451" y="201.25"/><use xlink:href="#s" x="403.598" y="201.25"/><use xlink:href="#l" x="409.406" y="201.25"/><use xlink:href="#t" x="414.836" y="201.25"/><use xlink:href="#h" x="419.648" y="201.25"/><use xlink:href="#o" x="428.036" y="201.25"/><use xlink:href="#k" x="433.964" y="201.25"/><use xlink:href="#p" x="439.772" y="201.25"/><use xlink:href="#h" x="445.58" y="201.25"/><use xlink:href="#i" x="451.429" y="201.25"/><use xlink:href="#j" x="457.346" y="201.25"/><use xlink:href="#k" x="460.684" y="201.25"/><use xlink:href="#l" x="464.161" y="201.25"/><use xlink:href="#m" x="469.59" y="201.25"/><use xlink:href="#A" x="472.3" y="201.25"/><g clip-path="url(#B)"><path fill="none" stroke="#000" stroke-miterlimit="10" stroke-width=".399" d="M324.781 214.203V71.066h160.602v143.137Zm0 0"/></g></svg>
