<svg xmlns="http://www.w3.org/2000/svg" xmlns:xlink="http://www.w3.org/1999/xlink" width="355.388" height="265.099" viewBox="0 0 266.541 198.824"><defs><symbol overflow="visible" id="c"><path style="stroke:none" d="M1.578-5.797V0H.891v-7.078h.578l4.64 5.906v-5.89h.704V0h-.657Zm0 0"/></symbol><symbol overflow="visible" id="d"><path style="stroke:none" d="M3.078-7.078h.594L6.609 0h-.734l-.922-2.219H1.781L.875 0h-.75Zm1.719 4.312-1.422-3.5-1.453 3.5Zm0 0"/></symbol><symbol overflow="visible" id="e"><path style="stroke:none" d="M6.203-1.828c0 .355-.09.672-.266.953a1.87 1.87 0 0 1-.718.64A2.126 2.126 0 0 1 4.234 0H.891v-7.078h3.406c.332 0 .617.09.86.266.238.18.421.406.546.687a1.915 1.915 0 0 1-.062 1.828 1.63 1.63 0 0 1-.75.672c.406.117.722.34.953.672.238.324.36.7.36 1.125Zm-.687-.11c0-.238-.059-.457-.172-.656a1.293 1.293 0 0 0-.438-.5 1.003 1.003 0 0 0-.61-.203H1.579v2.688h2.656c.227 0 .438-.063.625-.188.196-.125.352-.285.47-.484a1.25 1.25 0 0 0 .187-.657Zm-3.938-4.53v2.609h2.438c.226 0 .43-.063.609-.188.188-.125.332-.285.438-.484.101-.196.156-.407.156-.625 0-.239-.055-.457-.157-.657a1.155 1.155 0 0 0-.406-.468.94.94 0 0 0-.578-.188Zm0 0"/></symbol><symbol overflow="visible" id="f"><path style="stroke:none" d="M.422-3.594c0-.426.07-.847.219-1.265.156-.414.375-.797.656-1.141a2.993 2.993 0 0 1 1.047-.813 3.25 3.25 0 0 1 1.437-.312c.625 0 1.16.148 1.61.438.457.292.789.664 1 1.109l-.547.344a2.14 2.14 0 0 0-.578-.735 2.033 2.033 0 0 0-.75-.39 2.61 2.61 0 0 0-.782-.125c-.43 0-.804.086-1.125.25-.324.168-.601.39-.828.671a3.087 3.087 0 0 0-.5.954 3.273 3.273 0 0 0-.172 1.062c0 .399.067.774.204 1.125.132.356.32.672.562.953.238.274.52.492.844.657.32.167.672.25 1.047.25.27 0 .539-.047.812-.141a2.62 2.62 0 0 0 .781-.422c.25-.195.446-.453.594-.766l.578.313c-.148.344-.375.64-.687.89a3.16 3.16 0 0 1-1.016.563 3.462 3.462 0 0 1-1.094.188c-.492 0-.937-.102-1.343-.313a3.536 3.536 0 0 1-1.063-.828 3.877 3.877 0 0 1-.672-1.188 3.918 3.918 0 0 1-.234-1.328Zm0 0"/></symbol><symbol overflow="visible" id="h"><path style="stroke:none" d="M2.11.094c-.387 0-.72-.098-1-.297A1.826 1.826 0 0 1 .468-1 2.609 2.609 0 0 1 .25-2.078c0-.406.078-.8.234-1.188.157-.382.368-.726.641-1.03.27-.302.578-.54.922-.72A2.427 2.427 0 0 1 3.14-5.28c.414 0 .757.117 1.03.343.27.231.462.508.579.829l.672-3.172h.672L4.75-.891l-.031.079v.046c0 .118.066.172.203.172L4.782 0c-.055.008-.106.016-.157.016a.336.336 0 0 1-.125 0c-.148 0-.258-.036-.328-.11a.368.368 0 0 1-.11-.281v-.11c.008-.05.02-.117.032-.203L4.172-1a3.062 3.062 0 0 1-.969.797A2.33 2.33 0 0 1 2.11.094ZM2.374-.5c.164 0 .344-.031.531-.094a2.78 2.78 0 0 0 .547-.281c.188-.113.348-.25.485-.406.144-.164.25-.332.312-.5l.328-1.61a1.317 1.317 0 0 0-.25-.656 1.631 1.631 0 0 0-.5-.469 1.28 1.28 0 0 0-.64-.171c-.305 0-.59.074-.86.218a2.521 2.521 0 0 0-.703.594 2.94 2.94 0 0 0-.5.813 2.34 2.34 0 0 0-.172.874c0 .313.055.602.172.86.125.25.29.453.5.61.219.148.469.218.75.218Zm0 0"/></symbol><symbol overflow="visible" id="i"><path style="stroke:none" d="M2.39.078c-.304 0-.585-.058-.843-.172A2.06 2.06 0 0 1 .89-.563a2.16 2.16 0 0 1-.422-.687 2.207 2.207 0 0 1-.156-.844c0-.383.085-.738.265-1.062a2.01 2.01 0 0 1 .735-.766 1.96 1.96 0 0 1 1.062-.297c.414 0 .773.102 1.078.297.3.188.54.445.719.766.176.324.266.68.266 1.062v.219H.874c.031.293.113.559.25.797.145.23.328.414.547.547.226.136.476.203.75.203.27 0 .523-.067.765-.203.239-.145.407-.328.5-.547l.47.125a1.5 1.5 0 0 1-.391.531 2.13 2.13 0 0 1-.625.375c-.23.082-.48.125-.75.125ZM.86-2.266h3.062a1.727 1.727 0 0 0-.25-.796 1.456 1.456 0 0 0-.547-.532 1.46 1.46 0 0 0-1.484 0 1.578 1.578 0 0 0-.547.532c-.137.23-.215.496-.235.796Zm0 0"/></symbol><symbol overflow="visible" id="j"><path style="stroke:none" d="m.719-4.156 1.219 1.625.078.125.062-.125 1.203-1.625h.61L2.312-2.063 3.891 0h-.61L2.078-1.625l-.062-.11-.079.11L.734 0H.125l1.563-2.063L.125-4.155Zm0 0"/></symbol><symbol overflow="visible" id="k"><path style="stroke:none" d="M2.594-.203a2.28 2.28 0 0 1-.203.094A1.897 1.897 0 0 1 2.062 0a1.68 1.68 0 0 1-.406.047 1.21 1.21 0 0 1-.436-.078.787.787 0 0 1-.33-.266.773.773 0 0 1-.124-.453v-2.969H.203v-.437h.563v-1.39h.546v1.39h.954v.437h-.954v2.813c.008.156.063.273.157.344a.57.57 0 0 0 .343.109c.157 0 .29-.024.407-.078.125-.051.203-.086.234-.11Zm0 0"/></symbol><symbol overflow="visible" id="q"><path style="stroke:none" d="M4.094 0h-.547v-2.313c0-.488-.074-.847-.219-1.078-.148-.226-.371-.343-.672-.343-.219 0-.433.054-.64.156a1.89 1.89 0 0 0-.532.422c-.156.18-.273.383-.343.61V0H.594v-4.156h.5v.937c.113-.195.258-.367.437-.515.176-.157.38-.274.61-.36.226-.082.468-.125.718-.125.227 0 .422.043.579.125a.974.974 0 0 1 .374.36c.094.156.16.343.204.562.05.219.078.465.078.735Zm0 0"/></symbol><symbol overflow="visible" id="r"><path style="stroke:none" d="M.266-1.188c0-.257.07-.484.218-.671.145-.196.348-.348.61-.454a2.62 2.62 0 0 1 .922-.156c.195 0 .406.024.625.063.218.031.414.078.593.14v-.359c0-.344-.105-.617-.312-.828-.211-.207-.496-.313-.86-.313-.23 0-.453.043-.671.125a3.954 3.954 0 0 0-.672.36l-.203-.39c.27-.177.535-.313.796-.407.258-.094.524-.14.797-.14.508 0 .91.148 1.204.437.3.293.453.695.453 1.203v1.922c0 .074.015.133.046.172.032.03.083.046.157.046V0c-.063.008-.117.016-.156.016a.184.184 0 0 1-.094 0c-.137 0-.242-.04-.313-.125a.407.407 0 0 1-.094-.25l-.015-.313a1.86 1.86 0 0 1-.735.563 2.25 2.25 0 0 1-.89.187c-.274 0-.516-.058-.734-.172a1.367 1.367 0 0 1-.5-.453 1.222 1.222 0 0 1-.172-.64Zm2.78.313c.052-.07.095-.14.126-.203a.43.43 0 0 0 .062-.203v-.594a3.015 3.015 0 0 0-.578-.156 2.848 2.848 0 0 0-.578-.063c-.387 0-.7.078-.937.235a.691.691 0 0 0-.36.625c0 .156.035.304.11.437.082.137.203.25.359.344.156.086.336.125.547.125.258 0 .5-.05.719-.156.226-.102.406-.235.53-.391Zm0 0"/></symbol><symbol overflow="visible" id="m"><path style="stroke:none" d="M3.547 1.266V-.516H.234v-.593l3.532-4.579h.468v4.563h.875v.61h-.875v1.78ZM.953-1.125h2.672v-3.5Zm0 0"/></symbol><symbol overflow="visible" id="o"><path style="stroke:none" d="M.438 0c0-.227.019-.457.062-.688a2.55 2.55 0 0 1 .219-.671c.113-.227.281-.446.5-.657.226-.207.52-.406.875-.593.187-.102.383-.204.594-.297.207-.094.398-.196.578-.313a1.64 1.64 0 0 0 .437-.406.833.833 0 0 0 .172-.531.936.936 0 0 0-.14-.485.976.976 0 0 0-.438-.39 1.607 1.607 0 0 0-.735-.157 1.83 1.83 0 0 0-1.046.329 2.31 2.31 0 0 0-.329.265c-.093.086-.171.157-.234.219l-.422-.469a2.71 2.71 0 0 1 .656-.531c.188-.113.407-.21.657-.297a2.63 2.63 0 0 1 .828-.125c.406 0 .75.074 1.031.219.29.148.516.34.672.578.156.242.234.496.234.766 0 .28-.062.523-.187.718a1.89 1.89 0 0 1-.453.5c-.18.149-.367.274-.563.375l-.531.266a5.528 5.528 0 0 0-.781.438 3.162 3.162 0 0 0-.516.437 2.167 2.167 0 0 0-.297.438 2.47 2.47 0 0 0-.14.437h3.578V0Zm0 0"/></symbol><symbol overflow="visible" id="p"><path style="stroke:none" d="M.89 0v-7.078h2.985c.313 0 .594.062.844.187s.468.297.656.516c.188.219.332.46.438.719.101.261.156.527.156.797 0 .343-.07.668-.203.968a2.047 2.047 0 0 1-.547.75c-.23.211-.508.344-.828.407L6.125 0h-.781L3.672-2.61H1.578V0Zm.688-3.234h2.313c.28 0 .523-.07.734-.22.207-.155.367-.358.484-.608a1.91 1.91 0 0 0 .172-.797c0-.282-.07-.54-.203-.782a1.526 1.526 0 0 0-.516-.593 1.285 1.285 0 0 0-.718-.22H1.578Zm0 0"/></symbol><symbol overflow="visible" id="n"><path style="stroke:none" d="M2.64-3.719h1.126c-.329 1.469-.422 1.906-.422 2.578 0 .141 0 .407.078.75.11.438.219.5.36.5.202 0 .421-.171.421-.375 0-.062 0-.078-.062-.218-.297-.72-.297-1.375-.297-1.657 0-.515.078-1.062.187-1.578h1.125c.14 0 .5 0 .5-.344 0-.234-.218-.234-.406-.234H1.906c-.218 0-.593 0-1.031.469-.344.39-.61.844-.61.89 0 .016 0 .11.126.11.078 0 .093-.047.156-.125.484-.766 1.062-.766 1.265-.766h.563c-.313 1.203-.844 2.406-1.266 3.313-.078.156-.078.172-.078.25 0 .187.157.265.282.265.296 0 .375-.28.5-.64.14-.469.14-.485.265-.985Zm0 0"/></symbol><clipPath id="a"><path d="M0 0h266.54v198.824H0Zm0 0"/></clipPath><clipPath id="b"><path d="M33 0h210v198.824H33Zm0 0"/></clipPath><clipPath id="g"><path d="M17 188h15v10.824H17Zm0 0"/></clipPath><clipPath id="l"><path d="M24 198h115v.824H24Zm0 0"/></clipPath></defs><g clip-path="url(#a)"><path style="stroke:none;fill-rule:nonzero;fill:#fff;fill-opacity:1" d="M0 198.824V0h266.543v198.824Zm0 0"/></g><g clip-path="url(#b)"><path style="fill:none;stroke-width:.3985;stroke-linecap:butt;stroke-linejoin:miter;stroke:#000;stroke-opacity:1;stroke-miterlimit:10" d="M99.214-28.348c0 54.797-44.418 99.215-99.215 99.215-54.793 0-99.211-44.418-99.211-99.215 0-54.793 44.418-99.211 99.21-99.211 54.798 0 99.216 44.418 99.216 99.21Zm0 0" transform="matrix(1 0 0 -1 137.888 71.066)"/></g><path style="stroke:none;fill-rule:nonzero;fill:#000;fill-opacity:1" d="M139.305 99.414a1.418 1.418 0 1 0-2.836 0 1.418 1.418 0 0 0 2.836 0Zm0 0"/><path style="fill:none;stroke-width:.3985;stroke-linecap:butt;stroke-linejoin:miter;stroke:#000;stroke-opacity:1;stroke-miterlimit:10" d="M-9.564 6.73c0 14.09-11.422 25.512-25.511 25.512-14.09 0-25.512-11.422-25.512-25.512s11.422-25.512 25.512-25.512S-9.564-7.36-9.564 6.73Zm0 0" transform="matrix(1 0 0 -1 137.888 71.066)"/><path style="stroke:none;fill-rule:nonzero;fill:#000;fill-opacity:1" d="M104.227 64.336a1.417 1.417 0 1 0-1.415 1.418c.782 0 1.415-.637 1.415-1.418Zm0 0"/><use xlink:href="#c" x="106.331" y="74.929" style="fill:#000;fill-opacity:1"/><path style="fill:none;stroke-width:.3985;stroke-linecap:butt;stroke-linejoin:miter;stroke:#000;stroke-opacity:1;stroke-miterlimit:10" d="M-3.896-63.422c0 17.218-13.96 31.18-31.18 31.18-17.222 0-31.183-13.962-31.183-31.18 0-17.223 13.96-31.184 31.184-31.184 17.218 0 31.18 13.961 31.18 31.184Zm0 0" transform="matrix(1 0 0 -1 137.888 71.066)"/><path style="stroke:none;fill-rule:nonzero;fill:#000;fill-opacity:1" d="M104.227 134.488c0-.781-.633-1.414-1.415-1.414a1.415 1.415 0 1 0 1.414 1.414Zm0 0"/><use xlink:href="#d" x="106.331" y="130.969" style="fill:#000;fill-opacity:1"/><path style="fill:none;stroke-width:.3985;stroke-linecap:butt;stroke-linejoin:miter;stroke:#000;stroke-opacity:1;stroke-miterlimit:10" d="M66.26-63.422c0 17.218-13.96 31.18-31.183 31.18s-31.18-13.962-31.18-31.18c0-17.223 13.957-31.184 31.18-31.184S66.26-80.645 66.26-63.422Zm0 0" transform="matrix(1 0 0 -1 137.888 71.066)"/><path style="stroke:none;fill-rule:nonzero;fill:#000;fill-opacity:1" d="M174.383 134.488c0-.781-.637-1.414-1.418-1.414a1.417 1.417 0 1 0 1.418 1.414Zm0 0"/><use xlink:href="#e" x="169.647" y="145.082" style="fill:#000;fill-opacity:1"/><path style="fill:none;stroke-width:.3985;stroke-linecap:butt;stroke-linejoin:miter;stroke:#000;stroke-opacity:1;stroke-miterlimit:10" d="M66.26 6.73c0 17.223-13.96 31.184-31.183 31.184S3.897 23.953 3.897 6.73s13.957-31.18 31.18-31.18S66.26-10.493 66.26 6.73Zm0 0" transform="matrix(1 0 0 -1 137.888 71.066)"/><path style="stroke:none;fill-rule:nonzero;fill:#000;fill-opacity:1" d="M174.383 64.336a1.42 1.42 0 0 0-1.418-1.418 1.42 1.42 0 0 0-1.418 1.418 1.42 1.42 0 0 0 1.418 1.418 1.42 1.42 0 0 0 1.418-1.418Zm0 0"/><use xlink:href="#f" x="169.547" y="60.756" style="fill:#000;fill-opacity:1"/><path style="fill:none;stroke-width:.3985;stroke-linecap:butt;stroke-linejoin:miter;stroke:#000;stroke-opacity:1;stroke-miterlimit:10" d="M-113.388-122.977V66.285" transform="matrix(1 0 0 -1 137.888 71.066)"/><path style="stroke:none;fill-rule:nonzero;fill:#000;fill-opacity:1" d="M24.5 197.805c.113-.461.754-2.493 1.445-3.762h-2.89c.695 1.27 1.332 3.3 1.445 3.762Zm0 0"/><g clip-path="url(#g)"><path style="fill:none;stroke-width:.3985;stroke-linecap:butt;stroke-linejoin:miter;stroke:#000;stroke-opacity:1;stroke-miterlimit:10" d="M3.76 0C3.3.112 1.27.752 0 1.444v-2.891C1.268-.751 3.3-.114 3.76-.001Zm0 0" transform="matrix(0 1 1 0 24.5 194.044)"/></g><path style="fill-rule:nonzero;fill:#000;fill-opacity:1;stroke-width:.3985;stroke-linecap:butt;stroke-linejoin:miter;stroke:#000;stroke-opacity:1;stroke-miterlimit:10" d="M3.762 0C3.302.115 1.27.75.001 1.447v-2.89C1.27-.755 3.3-.114 3.762 0Zm0 0" transform="matrix(0 -1 -1 0 24.5 4.782)"/><use xlink:href="#h" x="3.321" y="101.947" style="fill:#000;fill-opacity:1"/><use xlink:href="#i" x="9.278" y="104.07" style="fill:#000;fill-opacity:1"/><g style="fill:#000;fill-opacity:1"><use xlink:href="#j" x="13.797" y="104.07"/><use xlink:href="#k" x="17.814" y="104.07"/></g><path style="fill:none;stroke-width:.3985;stroke-linecap:butt;stroke-linejoin:miter;stroke:#000;stroke-opacity:1;stroke-dasharray:2.98883,2.98883;stroke-miterlimit:10" d="M-.001 70.867h-113.387" transform="matrix(1 0 0 -1 137.888 71.066)"/><g clip-path="url(#l)"><path style="fill:none;stroke-width:.3985;stroke-linecap:butt;stroke-linejoin:miter;stroke:#000;stroke-opacity:1;stroke-dasharray:2.98883,2.98883;stroke-miterlimit:10" d="M-.001-127.559h-113.387" transform="matrix(1 0 0 -1 137.888 71.066)"/></g><path style="fill:none;stroke-width:.3985;stroke-linecap:butt;stroke-linejoin:miter;stroke:#000;stroke-opacity:1;stroke-miterlimit:10" d="M-4.583-28.348h-40.442" transform="matrix(1 0 0 -1 137.888 71.066)"/><path style="fill-rule:nonzero;fill:#000;fill-opacity:1;stroke-width:.3985;stroke-linecap:butt;stroke-linejoin:miter;stroke:#000;stroke-opacity:1;stroke-miterlimit:10" d="M3.761-.001C3.301.112 1.27.753 0 1.448v-2.895C1.27-.75 3.3-.115 3.76 0Zm0 0" transform="matrix(1 0 0 -1 133.305 99.413)"/><path style="fill-rule:nonzero;fill:#000;fill-opacity:1;stroke-width:.3985;stroke-linecap:butt;stroke-linejoin:miter;stroke:#000;stroke-opacity:1;stroke-miterlimit:10" d="M3.762.001C3.298.115 1.27.751.001 1.447v-2.895C1.27-.753 3.298-.112 3.762.002Zm0 0" transform="matrix(-1 0 0 1 92.864 99.413)"/><use xlink:href="#h" x="65.904" y="95.629" style="fill:#000;fill-opacity:1"/><use xlink:href="#i" x="71.862" y="97.753" style="fill:#000;fill-opacity:1"/><g style="fill:#000;fill-opacity:1"><use xlink:href="#j" x="76.381" y="97.753"/><use xlink:href="#k" x="80.398" y="97.753"/></g><path style="fill:none;stroke-width:.398;stroke-linecap:butt;stroke-linejoin:miter;stroke:#000;stroke-opacity:1;stroke-miterlimit:10" d="M-.002 0h17.664" transform="matrix(1 0 0 -1 65.904 99.878)"/><use xlink:href="#m" x="72.016" y="109.203" style="fill:#000;fill-opacity:1"/><path style="fill:none;stroke-width:.3985;stroke-linecap:butt;stroke-linejoin:miter;stroke:#000;stroke-opacity:1;stroke-dasharray:2.98883,2.98883;stroke-miterlimit:10" d="M49.608-28.348c0 27.398-22.21 49.61-49.61 49.61-27.394 0-49.605-22.212-49.605-49.61 0-27.395 22.211-49.606 49.606-49.606 27.398 0 49.61 22.211 49.61 49.606Zm-49.609 0 80.18 80.18m-80.18-80.18 80.18-80.176" transform="matrix(1 0 0 -1 137.888 71.066)"/><path style="fill:none;stroke-width:.3985;stroke-linecap:butt;stroke-linejoin:miter;stroke:#000;stroke-opacity:1;stroke-miterlimit:10" d="M83.35-105.22c40.047 43.36 40.047 110.384.004 153.747" transform="matrix(1 0 0 -1 137.888 71.066)"/><path style="fill-rule:nonzero;fill:#000;fill-opacity:1;stroke-width:.3985;stroke-linecap:butt;stroke-linejoin:miter;stroke:#000;stroke-opacity:1;stroke-miterlimit:10" d="M3.761-.001C3.3.113 1.268.752.001 1.447l-.002-2.893C1.27-.75 3.3-.113 3.76 0Zm0 0" transform="matrix(-.69228 .72157 .72157 .69228 221.238 176.283)"/><path style="fill-rule:nonzero;fill:#000;fill-opacity:1;stroke-width:.3985;stroke-linecap:butt;stroke-linejoin:miter;stroke:#000;stroke-opacity:1;stroke-miterlimit:10" d="M3.762 0C3.302.112 1.268.753 0 1.445l-.001-2.89C1.269-.753 3.3-.115 3.762 0Zm0 0" transform="matrix(-.6923 -.72156 -.72156 .6923 221.238 22.543)"/><use xlink:href="#n" x="255.989" y="94.77" style="fill:#000;fill-opacity:1"/><path style="fill:none;stroke-width:.398;stroke-linecap:butt;stroke-linejoin:miter;stroke:#000;stroke-opacity:1;stroke-miterlimit:10" d="M0 0h6.034" transform="matrix(1 0 0 -1 255.989 99.019)"/><use xlink:href="#o" x="256.412" y="108.344" style="fill:#000;fill-opacity:1"/><path style="fill:none;stroke-width:.3985;stroke-linecap:butt;stroke-linejoin:miter;stroke:#000;stroke-opacity:1;stroke-miterlimit:10" d="m-38.318 9.972-11.558 11.559" transform="matrix(1 0 0 -1 137.888 71.066)"/><path style="fill-rule:nonzero;fill:#000;fill-opacity:1;stroke-width:.3985;stroke-linecap:butt;stroke-linejoin:miter;stroke:#000;stroke-opacity:1;stroke-miterlimit:10" d="M3.761.001C3.3.114 1.27.752.001 1.446L0-1.446C1.269-.75 3.299-.112 3.761 0Zm0 0" transform="scale(1 -1) rotate(-45 -23.963 -150.741)"/><path style="fill-rule:nonzero;fill:#000;fill-opacity:1;stroke-width:.3985;stroke-linecap:butt;stroke-linejoin:miter;stroke:#000;stroke-opacity:1;stroke-miterlimit:10" d="M3.76.002C3.3.115 1.27.753.002 1.446L0-1.446C1.269-.75 3.299-.11 3.76.002Zm0 0" transform="scale(-1 1) rotate(-45 15.79 131.01)"/><use xlink:href="#p" x="97.311" y="50.302" style="fill:#000;fill-opacity:1"/><use xlink:href="#q" x="103.817" y="51.796" style="fill:#000;fill-opacity:1"/><path style="fill:none;stroke-width:.3985;stroke-linecap:butt;stroke-linejoin:miter;stroke:#000;stroke-opacity:1;stroke-miterlimit:10" d="m-38.318-66.664-15.566-15.567" transform="matrix(1 0 0 -1 137.888 71.066)"/><path style="fill-rule:nonzero;fill:#000;fill-opacity:1;stroke-width:.3985;stroke-linecap:butt;stroke-linejoin:miter;stroke:#000;stroke-opacity:1;stroke-miterlimit:10" d="M3.762 0C3.301.113 1.271.751 0 1.447v-2.894C1.27-.751 3.3-.113 3.762 0Zm0 0" transform="scale(1 -1) rotate(45 216.043 51.327)"/><path style="fill-rule:nonzero;fill:#000;fill-opacity:1;stroke-width:.3985;stroke-linecap:butt;stroke-linejoin:miter;stroke:#000;stroke-opacity:1;stroke-miterlimit:10" d="M3.76 0C3.3.113 1.27.751 0 1.447v-2.894C1.269-.751 3.299-.113 3.76 0Zm0 0" transform="scale(-1 1) rotate(45 -227.05 -24.752)"/><use xlink:href="#p" x="76.92" y="140.419" style="fill:#000;fill-opacity:1"/><use xlink:href="#r" x="83.425" y="141.914" style="fill:#000;fill-opacity:1"/></svg>
