<svg xmlns="http://www.w3.org/2000/svg" xmlns:xlink="http://www.w3.org/1999/xlink" width="355.388" height="265.099" viewBox="0 0 266.541 198.824"><defs><path id="c" d="M1.578-5.797V0H.891v-7.078h.578l4.64 5.906v-5.89h.704V0h-.657Zm0 0"/><path id="d" d="M3.078-7.078h.594L6.609 0h-.734l-.922-2.219H1.781L.875 0h-.75Zm1.719 4.312-1.422-3.5-1.453 3.5Zm0 0"/><path id="e" d="M6.203-1.828q-.001.532-.266.953a1.87 1.87 0 0 1-.718.64A2.1 2.1 0 0 1 4.234 0H.891v-7.078h3.406q.497.001.86.266c.238.18.421.406.546.687a1.92 1.92 0 0 1-.062 1.828q-.27.456-.75.672.608.175.953.672.359.487.36 1.125m-.687-.11q-.001-.357-.172-.656a1.3 1.3 0 0 0-.438-.5 1 1 0 0 0-.61-.203H1.579v2.688h2.656q.343 0 .625-.188.293-.186.47-.484a1.25 1.25 0 0 0 .187-.657m-3.938-4.53v2.609h2.438q.34 0 .609-.188.28-.187.438-.484c.101-.196.156-.407.156-.625q-.002-.358-.157-.657a1.16 1.16 0 0 0-.406-.468.94.94 0 0 0-.578-.188Zm0 0"/><path id="f" d="M.422-3.594c0-.426.07-.847.219-1.265Q.875-5.482 1.297-6a3 3 0 0 1 1.047-.812 3.25 3.25 0 0 1 1.437-.313q.936.002 1.61.438.684.44 1 1.109l-.547.344a2.14 2.14 0 0 0-.578-.735 2 2 0 0 0-.75-.39 2.6 2.6 0 0 0-.782-.125q-.644.002-1.125.25-.487.25-.828.672a3.1 3.1 0 0 0-.5.953q-.174.516-.172 1.062 0 .598.204 1.125.199.533.562.953.358.41.844.657c.32.167.672.25 1.047.25q.404 0 .812-.141a2.6 2.6 0 0 0 .781-.422c.25-.195.446-.453.594-.766l.578.313q-.22.515-.687.89a3.2 3.2 0 0 1-1.016.563 3.5 3.5 0 0 1-1.094.188Q2.998.065 2.391-.25a3.5 3.5 0 0 1-1.063-.828 3.9 3.9 0 0 1-.672-1.188 3.9 3.9 0 0 1-.234-1.328m0 0"/><path id="h" d="M2.11.094q-.58 0-1-.297A1.83 1.83 0 0 1 .468-1 2.6 2.6 0 0 1 .25-2.078q0-.607.234-1.188c.157-.382.368-.726.641-1.03q.406-.452.922-.72A2.4 2.4 0 0 1 3.14-5.28q.62.002 1.03.343.404.347.579.829l.672-3.172h.672L4.75-.891l-.031.079v.046c0 .118.066.172.203.172L4.782 0c-.055.008-.106.016-.157.016a.3.3 0 0 1-.125 0q-.223 0-.328-.11a.37.37 0 0 1-.11-.281v-.11q.013-.075.032-.202L4.172-1a3.1 3.1 0 0 1-.969.797A2.3 2.3 0 0 1 2.11.094M2.374-.5c.164 0 .344-.031.531-.094a2.8 2.8 0 0 0 .547-.281q.28-.17.485-.406.217-.247.312-.5l.328-1.61a1.3 1.3 0 0 0-.25-.656 1.6 1.6 0 0 0-.5-.469 1.3 1.3 0 0 0-.64-.171q-.456.001-.86.218a2.5 2.5 0 0 0-.703.594 3 3 0 0 0-.5.813 2.3 2.3 0 0 0-.172.874q-.002.471.172.86.186.375.5.61.329.22.75.218m0 0"/><path id="i" d="M2.39.078q-.456 0-.843-.172A2.1 2.1 0 0 1 .89-.562a2.2 2.2 0 0 1-.422-.688 2.2 2.2 0 0 1-.156-.844c0-.383.085-.738.265-1.062a2 2 0 0 1 .735-.766 1.96 1.96 0 0 1 1.062-.297c.414 0 .773.102 1.078.297q.45.283.719.766.265.487.266 1.062v.219H.874q.045.44.25.797.218.346.547.547.339.203.75.203.404 0 .765-.203.36-.218.5-.547l.47.125a1.5 1.5 0 0 1-.391.531 2.1 2.1 0 0 1-.625.375q-.345.124-.75.125M.86-2.266h3.062a1.7 1.7 0 0 0-.25-.796 1.46 1.46 0 0 0-.547-.532 1.46 1.46 0 0 0-1.484 0 1.6 1.6 0 0 0-.547.532q-.205.345-.235.796m0 0"/><path id="j" d="m.719-4.156 1.219 1.625.078.125.062-.125 1.203-1.625h.61L2.313-2.063 3.89 0h-.61L2.078-1.625l-.062-.11-.079.11L.734 0H.125l1.563-2.062L.125-4.156Zm0 0"/><path id="k" d="M2.594-.203a2 2 0 0 1-.203.094A2 2 0 0 1 2.063 0a1.7 1.7 0 0 1-.407.047q-.236 0-.437-.078A.8.8 0 0 1 .89-.297.77.77 0 0 1 .766-.75v-2.969H.203v-.437h.563v-1.39h.547v1.39h.953v.437h-.953v2.813c.007.156.062.273.156.344a.57.57 0 0 0 .343.109c.157 0 .29-.024.407-.078q.188-.075.234-.11Zm0 0"/><path id="q" d="M4.094 0h-.547v-2.312q0-.733-.219-1.079-.221-.341-.672-.343-.329.001-.64.156a1.9 1.9 0 0 0-.532.422c-.156.18-.273.383-.343.61V0H.594v-4.156h.5v.937q.169-.293.437-.515c.176-.157.38-.274.61-.36.226-.082.468-.125.718-.125q.342.001.579.125a1 1 0 0 1 .374.36q.14.234.204.562.077.33.078.735Zm0 0"/><path id="r" d="M.266-1.187c0-.258.07-.485.218-.672q.217-.295.61-.453c.27-.102.578-.157.922-.157.195 0 .406.024.625.063q.326.047.593.14v-.359c0-.344-.105-.617-.312-.828q-.315-.312-.86-.313-.344.001-.671.125-.316.127-.672.36l-.203-.39q.405-.266.797-.407.386-.14.796-.14.763.002 1.204.437.451.44.453 1.203v1.922q0 .112.046.172.047.045.157.046V0c-.063.008-.117.016-.156.016a.2.2 0 0 1-.094 0q-.206.001-.313-.125a.4.4 0 0 1-.094-.25l-.015-.313a1.86 1.86 0 0 1-.735.563 2.25 2.25 0 0 1-.89.187c-.274 0-.516-.058-.734-.172a1.4 1.4 0 0 1-.5-.453 1.2 1.2 0 0 1-.172-.64m2.78.312q.079-.107.126-.203.06-.107.062-.203v-.594a3 3 0 0 0-.578-.156 3 3 0 0 0-.578-.063q-.581 0-.937.235a.69.69 0 0 0-.36.625q-.001.236.11.437.124.204.359.344.232.127.547.125.389.002.719-.156c.226-.102.406-.235.53-.391m0 0"/><path id="m" d="M3.547 1.266V-.516H.234v-.593l3.532-4.578h.468v4.562h.875v.61h-.875v1.78ZM.953-1.125h2.672v-3.5Zm0 0"/><path id="o" d="M.438 0Q.437-.341.5-.687a2.6 2.6 0 0 1 .219-.672q.17-.34.5-.657.34-.311.875-.593.279-.154.594-.297.31-.14.578-.313.28-.186.437-.406a.83.83 0 0 0 .172-.531.94.94 0 0 0-.14-.485 1 1 0 0 0-.438-.39 1.6 1.6 0 0 0-.735-.157q-.314 0-.578.094-.27.093-.468.235a2.3 2.3 0 0 0-.328.265q-.14.127-.235.219l-.422-.469q.045-.06.219-.218a2.7 2.7 0 0 1 .438-.313q.28-.168.656-.297a2.6 2.6 0 0 1 .828-.125q.61 0 1.031.219.437.221.672.578.234.362.234.766c0 .28-.062.523-.187.718a1.9 1.9 0 0 1-.453.5q-.27.223-.563.375l-.531.266a5.5 5.5 0 0 0-.781.438q-.316.22-.516.437a2.2 2.2 0 0 0-.297.438 2.5 2.5 0 0 0-.14.437h3.578V0Zm0 0"/><path id="p" d="M.89 0v-7.078h2.985q.47 0 .844.187.375.188.656.516.28.33.438.719c.101.261.156.527.156.797q-.002.516-.203.968a2.05 2.05 0 0 1-.547.75q-.347.314-.828.407L6.125 0h-.781L3.672-2.61H1.578V0Zm.688-3.234h2.313c.28 0 .523-.07.734-.22q.31-.233.484-.608a1.9 1.9 0 0 0 .172-.797q-.002-.421-.203-.782a1.5 1.5 0 0 0-.516-.593 1.3 1.3 0 0 0-.718-.22H1.578Zm0 0"/><path id="n" d="M2.64-3.719h1.126c-.328 1.469-.422 1.906-.422 2.578 0 .141 0 .407.078.75.11.438.219.5.36.5.202 0 .421-.171.421-.375 0-.062 0-.078-.062-.218-.297-.72-.297-1.375-.297-1.657 0-.515.078-1.062.187-1.578h1.125c.14 0 .5 0 .5-.344 0-.234-.218-.234-.406-.234H1.906c-.218 0-.593 0-1.031.469-.344.39-.61.844-.61.89 0 .016 0 .11.126.11.078 0 .093-.047.156-.125.484-.766 1.062-.766 1.265-.766h.563c-.312 1.203-.844 2.407-1.266 3.313-.078.156-.078.172-.078.25 0 .187.157.265.282.265.296 0 .375-.28.5-.64.14-.469.14-.485.265-.985Zm0 0"/><clipPath id="a"><path d="M0 0h266.54v198.824H0Zm0 0"/></clipPath><clipPath id="b"><path d="M33 0h210v198.824H33Zm0 0"/></clipPath><clipPath id="g"><path d="M17 188h15v10.824H17Zm0 0"/></clipPath><clipPath id="l"><path d="M24 198h115v.824H24Zm0 0"/></clipPath></defs><g clip-path="url(#a)"><path fill="#fff" d="M0 198.824V0h266.543v198.824Zm0 0"/></g><g clip-path="url(#b)"><path fill="none" stroke="#000" stroke-miterlimit="10" stroke-width=".399" d="M237.102 99.414C237.102 44.617 192.684.2 137.887.2 83.094.2 38.676 44.617 38.676 99.414c0 54.793 44.418 99.211 99.21 99.211 54.798 0 99.216-44.418 99.216-99.21Zm0 0"/></g><path d="M139.305 99.414a1.418 1.418 0 1 0-2.836 0 1.418 1.418 0 0 0 2.836 0m0 0"/><path fill="none" stroke="#000" stroke-miterlimit="10" stroke-width=".399" d="M128.324 64.336c0-14.09-11.422-25.512-25.512-25.512s-25.51 11.422-25.51 25.512 11.422 25.512 25.511 25.512c14.09 0 25.512-11.422 25.512-25.512Zm0 0"/><path d="M104.227 64.336a1.417 1.417 0 1 0-1.415 1.418c.782 0 1.415-.637 1.415-1.418m0 0"/><use xlink:href="#c" x="106.331" y="74.929"/><path fill="none" stroke="#000" stroke-miterlimit="10" stroke-width=".399" d="M133.992 134.488c0-17.218-13.96-31.18-31.18-31.18-17.222 0-31.183 13.962-31.183 31.18 0 17.223 13.96 31.184 31.183 31.184 17.22 0 31.18-13.961 31.18-31.184Zm0 0"/><path d="M104.227 134.488c0-.781-.633-1.414-1.415-1.414a1.415 1.415 0 1 0 1.414 1.414m0 0"/><use xlink:href="#d" x="106.331" y="130.969"/><path fill="none" stroke="#000" stroke-miterlimit="10" stroke-width=".399" d="M204.148 134.488c0-17.218-13.96-31.18-31.183-31.18s-31.18 13.962-31.18 31.18c0 17.223 13.957 31.184 31.18 31.184s31.183-13.961 31.183-31.184Zm0 0"/><path d="M174.383 134.488c0-.781-.637-1.414-1.418-1.414a1.417 1.417 0 1 0 1.418 1.414m0 0"/><use xlink:href="#e" x="169.647" y="145.082"/><path fill="none" stroke="#000" stroke-miterlimit="10" stroke-width=".399" d="M204.148 64.336c0-17.223-13.96-31.184-31.183-31.184s-31.18 13.961-31.18 31.184 13.957 31.18 31.18 31.18 31.183-13.957 31.183-31.18Zm0 0"/><path d="M174.383 64.336a1.42 1.42 0 0 0-1.418-1.418 1.42 1.42 0 0 0-1.418 1.418 1.42 1.42 0 0 0 1.418 1.418 1.42 1.42 0 0 0 1.418-1.418m0 0"/><use xlink:href="#f" x="169.547" y="60.756"/><path fill="none" stroke="#000" stroke-miterlimit="10" stroke-width=".399" d="M24.5 194.043V4.781"/><path d="M24.5 197.805c.113-.461.754-2.493 1.445-3.762h-2.89c.695 1.27 1.332 3.3 1.445 3.762m0 0"/><g clip-path="url(#g)"><path fill="none" stroke="#000" stroke-miterlimit="10" stroke-width=".399" d="M24.5 197.805c.113-.461.754-2.493 1.445-3.762h-2.89c.695 1.27 1.332 3.3 1.445 3.762Zm0 0"/></g><path stroke="#000" stroke-miterlimit="10" stroke-width=".399" d="M24.5 1.02c-.113.46-.75 2.492-1.445 3.761h2.89c-.691-1.27-1.332-3.3-1.445-3.761Zm0 0"/><use xlink:href="#h" x="3.321" y="101.947"/><use xlink:href="#i" x="9.278" y="104.07"/><use xlink:href="#j" x="13.797" y="104.07"/><use xlink:href="#k" x="17.814" y="104.07"/><path fill="none" stroke="#000" stroke-dasharray="2.98883 2.98883" stroke-miterlimit="10" stroke-width=".399" d="M137.887.2H24.5"/><g clip-path="url(#l)"><path fill="none" stroke="#000" stroke-dasharray="2.98883 2.98883" stroke-miterlimit="10" stroke-width=".399" d="M137.887 198.625H24.5"/></g><path fill="none" stroke="#000" stroke-miterlimit="10" stroke-width=".399" d="M133.305 99.414H92.863"/><path stroke="#000" stroke-miterlimit="10" stroke-width=".399" d="M137.066 99.414c-.46-.113-2.492-.754-3.761-1.45v2.895c1.27-.695 3.3-1.332 3.761-1.445Zm-47.964 0c.464.113 2.492.75 3.761 1.445v-2.894c-1.27.695-3.297 1.336-3.761 1.45Zm0 0"/><use xlink:href="#h" x="65.904" y="95.629"/><use xlink:href="#i" x="71.862" y="97.753"/><use xlink:href="#j" x="76.381" y="97.753"/><use xlink:href="#k" x="80.398" y="97.753"/><path fill="none" stroke="#000" stroke-miterlimit="10" stroke-width=".398" d="M65.902 99.879h17.664"/><use xlink:href="#m" x="72.016" y="109.203"/><path fill="none" stroke="#000" stroke-dasharray="2.98883 2.98883" stroke-miterlimit="10" stroke-width=".399" d="M187.496 99.414c0-27.398-22.21-49.61-49.61-49.61-27.394 0-49.605 22.212-49.605 49.61 0 27.395 22.211 49.606 49.606 49.606 27.398 0 49.61-22.211 49.61-49.606Zm-49.609 0 80.18-80.18m-80.18 80.18 80.18 80.176"/><path fill="none" stroke="#000" stroke-miterlimit="10" stroke-width=".399" d="M221.238 176.285c40.047-43.36 40.047-110.383.004-153.746"/><path stroke="#000" stroke-miterlimit="10" stroke-width=".399" d="M218.633 178.996c.402-.254 2.27-1.277 3.648-1.71l-2.086-2.005c-.379 1.399-1.324 3.305-1.562 3.715Zm0-159.168c.238.41 1.183 2.32 1.562 3.715l2.086-2c-1.379-.438-3.246-1.461-3.648-1.715Zm0 0"/><use xlink:href="#n" x="255.989" y="94.77"/><path fill="none" stroke="#000" stroke-miterlimit="10" stroke-width=".398" d="M255.988 99.02h6.035"/><use xlink:href="#o" x="256.412" y="108.344"/><path fill="none" stroke="#000" stroke-miterlimit="10" stroke-width=".399" d="M99.57 61.094 88.012 49.535"/><path stroke="#000" stroke-miterlimit="10" stroke-width=".399" d="M102.23 63.754c-.246-.406-1.23-2.293-1.636-3.68l-2.047 2.043c1.39.406 3.277 1.39 3.683 1.637ZM85.352 46.879c.246.406 1.23 2.293 1.636 3.68l2.047-2.043c-1.39-.407-3.277-1.391-3.683-1.637Zm0 0"/><use xlink:href="#p" x="97.311" y="50.302"/><use xlink:href="#q" x="103.817" y="51.796"/><path fill="none" stroke="#000" stroke-miterlimit="10" stroke-width=".399" d="m99.57 137.73-15.566 15.567"/><path stroke="#000" stroke-miterlimit="10" stroke-width=".399" d="M102.23 135.07c-.406.246-2.293 1.23-3.683 1.637l2.047 2.047c.406-1.39 1.39-3.277 1.636-3.684Zm-20.886 20.887c.406-.246 2.293-1.23 3.683-1.637l-2.047-2.047c-.406 1.391-1.39 3.278-1.636 3.684Zm0 0"/><use xlink:href="#p" x="76.92" y="140.419"/><use xlink:href="#r" x="83.425" y="141.914"/></svg>
